%TF.GenerationSoftware,KiCad,Pcbnew,9.0.5*%
%TF.CreationDate,2025-11-08T17:12:59+10:00*%
%TF.ProjectId,badWingsLeft,62616457-696e-4677-934c-6566742e6b69,v1.0.0*%
%TF.SameCoordinates,Original*%
%TF.FileFunction,Drillmap*%
%TF.FilePolarity,Positive*%
%FSLAX45Y45*%
G04 Gerber Fmt 4.5, Leading zero omitted, Abs format (unit mm)*
G04 Created by KiCad (PCBNEW 9.0.5) date 2025-11-08 17:12:59*
%MOMM*%
%LPD*%
G01*
G04 APERTURE LIST*
%ADD10C,0.150000*%
%ADD11C,0.120000*%
%ADD12C,0.200000*%
%ADD13C,0.100000*%
%ADD14C,0.170180*%
%ADD15C,0.300000*%
%ADD16C,0.342900*%
G04 APERTURE END LIST*
D10*
X6932904Y-13826581D02*
G75*
G02*
X6817465Y-13960437I-193594J50252D01*
G01*
X9626175Y-11540110D02*
G75*
G02*
X9800838Y-11407116I188615J-66520D01*
G01*
X14607152Y-20983778D02*
G75*
G02*
X14584845Y-20970972I88398J179808D01*
G01*
X9800838Y-11407114D02*
X11764350Y-11269813D01*
X7216167Y-19766182D02*
G75*
G02*
X6953918Y-19660227I-78148J184102D01*
G01*
X5067145Y-14703405D02*
X6817466Y-13960439D01*
X18357471Y-11987246D02*
G75*
G02*
X18557474Y-12187246I-1J-200004D01*
G01*
X6953919Y-19660226D02*
X4961191Y-14965651D01*
X14584845Y-20970972D02*
X12750150Y-19754531D01*
X19937471Y-17854383D02*
G75*
G02*
X19926957Y-17918381I-199871J-27D01*
G01*
X9018625Y-19001085D02*
X7216167Y-19766182D01*
X16302018Y-21814982D02*
G75*
G02*
X16278919Y-21805373I65312J189562D01*
G01*
X4961191Y-14965651D02*
G75*
G02*
X5067144Y-14703404I184104J78145D01*
G01*
X6932904Y-13826581D02*
X7248579Y-12610299D01*
X16278919Y-21805373D02*
X14607152Y-20983778D01*
X19937471Y-16087246D02*
X19937471Y-17854383D01*
X18434685Y-22336549D02*
G75*
G02*
X18180087Y-22461655I-189485J63999D01*
G01*
X18757470Y-15887247D02*
G75*
G02*
X18557473Y-15687248I0J199997D01*
G01*
X12579261Y-11987246D02*
G75*
G02*
X12427618Y-11917652I-11J199986D01*
G01*
X9477906Y-11960532D02*
G75*
G02*
X9327452Y-12090337I-188606J66512D01*
G01*
X9085922Y-18954263D02*
G75*
G02*
X9018625Y-19001086I-145432J137253D01*
G01*
X11796160Y-17485315D02*
G75*
G02*
X11982837Y-17621091I-2740J-199985D01*
G01*
X9477906Y-11960532D02*
X9626175Y-11540110D01*
X18180087Y-22461653D02*
X16302018Y-21814982D01*
X18757470Y-15887247D02*
X19737471Y-15887247D01*
X19926955Y-17918381D02*
X18434685Y-22336549D01*
X7404004Y-12464220D02*
X9327452Y-12090338D01*
X10428963Y-17531345D02*
X9085922Y-18954263D01*
X11764350Y-11269813D02*
G75*
G02*
X11929943Y-11338922I13950J-199517D01*
G01*
X19737471Y-15887247D02*
G75*
G02*
X19937473Y-16087246I-1J-200003D01*
G01*
X7248579Y-12610299D02*
G75*
G02*
X7404004Y-12464219I193601J-50261D01*
G01*
X12579261Y-11987246D02*
X18357471Y-11987246D01*
X18557472Y-12187246D02*
X18557470Y-15687248D01*
X11929942Y-11338923D02*
X12427622Y-11917649D01*
X11796160Y-17485315D02*
X10577143Y-17468643D01*
X10428963Y-17531345D02*
G75*
G02*
X10577143Y-17468640I145448J-137275D01*
G01*
X12750150Y-19754531D02*
G75*
G02*
X12671255Y-19652046I110520J166691D01*
G01*
X12671255Y-19652046D02*
X11982837Y-17621091D01*
D11*
X8671253Y-12936083D02*
X8317867Y-13004775D01*
X8258715Y-12700473D01*
X8612102Y-12631781D01*
X8671253Y-12936083D01*
X13217471Y-14392246D02*
X12857471Y-14392247D01*
X12857471Y-14082248D01*
X13217471Y-14082248D01*
X13217471Y-14392246D01*
X6336755Y-14930370D02*
X6005374Y-15071034D01*
X5884246Y-14785679D01*
X6215627Y-14645014D01*
X6336755Y-14930370D01*
X14370864Y-18401155D02*
X14290630Y-18700590D01*
X13942897Y-18607415D01*
X14023131Y-18307980D01*
X14370864Y-18401155D01*
X16273651Y-18071717D02*
X16168397Y-18415986D01*
X15871943Y-18325351D01*
X15977198Y-17981081D01*
X16273651Y-18071717D01*
X8995629Y-14604851D02*
X8642243Y-14673543D01*
X8583092Y-14369241D01*
X8936478Y-14300549D01*
X8995629Y-14604851D01*
X18055523Y-20615519D02*
X17954597Y-20908629D01*
X17614210Y-20791424D01*
X17715136Y-20498314D01*
X18055523Y-20615519D01*
X11114495Y-13726128D02*
X10755372Y-13751240D01*
X10733747Y-13441996D01*
X11092870Y-13416884D01*
X11114495Y-13726128D01*
X16318148Y-19721829D02*
X16227513Y-20018283D01*
X15883243Y-19913028D01*
X15973879Y-19616575D01*
X16318148Y-19721829D01*
X9320003Y-16273616D02*
X8966617Y-16342308D01*
X8907465Y-16038006D01*
X9260852Y-15969314D01*
X9320003Y-16273616D01*
X7665242Y-18060087D02*
X7333861Y-18200752D01*
X7212734Y-17915396D01*
X7544115Y-17774731D01*
X7665242Y-18060087D01*
X11233080Y-15421988D02*
X10873958Y-15447100D01*
X10852333Y-15137857D01*
X11211456Y-15112744D01*
X11233080Y-15421988D01*
X15017470Y-12692247D02*
X14657470Y-12692247D01*
X14657470Y-12382248D01*
X15017470Y-12382248D01*
X15017470Y-12692247D01*
X13217471Y-16092247D02*
X12857471Y-16092247D01*
X12857471Y-15782248D01*
X13217471Y-15782248D01*
X13217471Y-16092247D01*
X15017472Y-14392245D02*
X14657472Y-14392245D01*
X14657472Y-14082246D01*
X15017472Y-14082246D01*
X15017472Y-14392245D01*
X15017472Y-16092246D02*
X14657472Y-16092246D01*
X14657472Y-15782247D01*
X15017472Y-15782247D01*
X15017472Y-16092246D01*
X10995909Y-12030269D02*
X10636786Y-12055381D01*
X10615161Y-11746137D01*
X10974284Y-11721025D01*
X10995909Y-12030269D01*
X13217471Y-12692246D02*
X12857472Y-12692246D01*
X12857472Y-12382247D01*
X13217471Y-12382247D01*
X13217471Y-12692246D01*
X18068643Y-18964859D02*
X17951438Y-19305245D01*
X17658328Y-19204319D01*
X17775533Y-18863933D01*
X18068643Y-18964859D01*
X7000998Y-16495229D02*
X6669617Y-16635894D01*
X6548490Y-16350538D01*
X6879871Y-16209873D01*
X7000998Y-16495229D01*
D12*
D13*
X18154471Y-13079748D02*
X18229471Y-13154748D01*
X18229471Y-13079748D02*
X18154471Y-13154748D01*
X18429471Y-13079748D02*
X18504471Y-13154748D01*
X18504471Y-13079748D02*
X18429471Y-13154748D01*
X18320471Y-14887247D02*
G75*
G02*
X18230471Y-14887247I-45000J0D01*
G01*
X18230471Y-14887247D02*
G75*
G02*
X18320471Y-14887247I45000J0D01*
G01*
X18320471Y-14587247D02*
G75*
G02*
X18230471Y-14587247I-45000J0D01*
G01*
X18230471Y-14587247D02*
G75*
G02*
X18320471Y-14587247I45000J0D01*
G01*
D14*
X5799588Y-15448089D02*
X5799588Y-15618269D01*
X5714498Y-15533179D02*
X5884678Y-15533179D01*
X6463832Y-17012948D02*
X6463832Y-17183128D01*
X6378742Y-17098038D02*
X6548922Y-17098038D01*
X6812144Y-15018286D02*
X6812144Y-15188466D01*
X6727054Y-15103376D02*
X6897234Y-15103376D01*
X7128075Y-18577805D02*
X7128075Y-18747985D01*
X7042985Y-18662895D02*
X7213165Y-18662895D01*
X7476387Y-16583145D02*
X7476387Y-16753325D01*
X7391297Y-16668235D02*
X7561477Y-16668235D01*
X8020494Y-13328947D02*
X8020494Y-13499127D01*
X7935404Y-13414037D02*
X8105584Y-13414037D01*
X8140631Y-18148002D02*
X8140631Y-18318182D01*
X8055541Y-18233092D02*
X8225721Y-18233092D01*
X8344870Y-14997713D02*
X8344870Y-15167893D01*
X8259780Y-15082803D02*
X8429960Y-15082803D01*
X8669244Y-16666481D02*
X8669244Y-16836661D01*
X8584154Y-16751571D02*
X8754334Y-16751571D01*
X9100285Y-13119057D02*
X9100285Y-13289237D01*
X9015195Y-13204147D02*
X9185375Y-13204147D01*
X9424661Y-14787824D02*
X9424661Y-14958004D01*
X9339571Y-14872914D02*
X9509751Y-14872914D01*
X9749034Y-16456591D02*
X9749034Y-16626771D01*
X9663944Y-16541681D02*
X9834124Y-16541681D01*
X10291754Y-12340261D02*
X10291754Y-12510441D01*
X10206664Y-12425351D02*
X10376844Y-12425351D01*
X10410338Y-14036121D02*
X10410338Y-14206301D01*
X10325248Y-14121211D02*
X10495428Y-14121211D01*
X10528926Y-15731980D02*
X10528926Y-15902160D01*
X10443836Y-15817070D02*
X10614016Y-15817070D01*
X11389074Y-12263529D02*
X11389074Y-12433709D01*
X11303984Y-12348619D02*
X11474164Y-12348619D01*
X11507658Y-13959388D02*
X11507658Y-14129568D01*
X11422568Y-14044478D02*
X11592748Y-14044478D01*
X11626246Y-15655247D02*
X11626246Y-15825427D01*
X11541156Y-15740337D02*
X11711336Y-15740337D01*
X12487471Y-16352156D02*
X12487471Y-16522336D01*
X12402381Y-16437246D02*
X12572561Y-16437246D01*
X12487472Y-12952157D02*
X12487472Y-13122337D01*
X12402382Y-13037247D02*
X12572562Y-13037247D01*
X12487473Y-14652156D02*
X12487473Y-14822336D01*
X12402383Y-14737246D02*
X12572563Y-14737246D01*
X13496214Y-18759806D02*
X13496214Y-18929986D01*
X13411124Y-18844896D02*
X13581304Y-18844896D01*
X13587471Y-16352156D02*
X13587471Y-16522336D01*
X13502381Y-16437246D02*
X13672561Y-16437246D01*
X13587472Y-12952157D02*
X13587472Y-13122337D01*
X13502382Y-13037247D02*
X13672562Y-13037247D01*
X13587473Y-14652156D02*
X13587473Y-14822336D01*
X13502383Y-14737246D02*
X13672563Y-14737246D01*
X14287470Y-14652159D02*
X14287470Y-14822339D01*
X14202380Y-14737249D02*
X14372560Y-14737249D01*
X14287471Y-12952158D02*
X14287471Y-13122338D01*
X14202381Y-13037248D02*
X14372561Y-13037248D01*
X14287471Y-16352157D02*
X14287471Y-16522337D01*
X14202381Y-16437247D02*
X14372561Y-16437247D01*
X14558731Y-19044506D02*
X14558731Y-19214686D01*
X14473641Y-19129596D02*
X14643821Y-19129596D01*
X15387470Y-14652159D02*
X15387470Y-14822339D01*
X15302380Y-14737249D02*
X15472560Y-14737249D01*
X15387471Y-12952158D02*
X15387471Y-13122338D01*
X15302381Y-13037248D02*
X15472561Y-13037248D01*
X15387471Y-16352157D02*
X15387471Y-16522337D01*
X15302381Y-16437247D02*
X15472561Y-16437247D01*
X15428544Y-20049688D02*
X15428544Y-20219868D01*
X15343454Y-20134778D02*
X15513634Y-20134778D01*
X16390146Y-18785597D02*
X16390146Y-18955777D01*
X16305056Y-18870687D02*
X16475236Y-18870687D01*
X16480479Y-20371297D02*
X16480479Y-20541477D01*
X16395389Y-20456387D02*
X16565569Y-20456387D01*
X16711755Y-17733662D02*
X16711755Y-17903842D01*
X16626665Y-17818752D02*
X16796845Y-17818752D01*
X17152049Y-20912079D02*
X17152049Y-21082259D01*
X17066959Y-20997169D02*
X17237139Y-20997169D01*
X18157181Y-19682319D02*
X18157181Y-19852499D01*
X18072091Y-19767409D02*
X18242271Y-19767409D01*
X18192119Y-21270204D02*
X18192119Y-21440384D01*
X18107029Y-21355294D02*
X18277209Y-21355294D01*
X18515306Y-18642250D02*
X18515306Y-18812430D01*
X18430216Y-18727340D02*
X18600396Y-18727340D01*
D15*
X6098205Y-15964900D02*
X6098205Y-15752766D01*
X5886071Y-15752766D01*
X5886071Y-15964900D01*
X6098205Y-15964900D01*
X6644418Y-15972045D02*
X6644418Y-15759911D01*
X6432284Y-15759911D01*
X6432284Y-15972045D01*
X6644418Y-15972045D01*
X6762448Y-17529759D02*
X6762448Y-17317625D01*
X6550314Y-17317625D01*
X6550314Y-17529759D01*
X6762448Y-17529759D01*
X7308662Y-17536904D02*
X7308662Y-17324770D01*
X7096528Y-17324770D01*
X7096528Y-17536904D01*
X7308662Y-17536904D01*
X7426692Y-19094616D02*
X7426692Y-18882482D01*
X7214558Y-18882482D01*
X7214558Y-19094616D01*
X7426692Y-19094616D01*
X7972905Y-19101761D02*
X7972905Y-18889627D01*
X7760771Y-18889627D01*
X7760771Y-19101761D01*
X7972905Y-19101761D01*
X8247196Y-13878674D02*
X8247196Y-13666540D01*
X8035062Y-13666540D01*
X8035062Y-13878674D01*
X8247196Y-13878674D01*
X8571572Y-15547440D02*
X8571572Y-15335306D01*
X8359438Y-15335306D01*
X8359438Y-15547440D01*
X8571572Y-15547440D01*
X8779988Y-13999228D02*
X8779988Y-13787094D01*
X8567854Y-13787094D01*
X8567854Y-13999228D01*
X8779988Y-13999228D01*
X8895946Y-17216208D02*
X8895946Y-17004074D01*
X8683812Y-17004074D01*
X8683812Y-17216208D01*
X8895946Y-17216208D01*
X9104364Y-15667995D02*
X9104364Y-15455861D01*
X8892230Y-15455861D01*
X8892230Y-15667995D01*
X9104364Y-15667995D01*
X9428738Y-17336762D02*
X9428738Y-17124628D01*
X9216604Y-17124628D01*
X9216604Y-17336762D01*
X9428738Y-17336762D01*
X10473857Y-12902017D02*
X10473857Y-12689883D01*
X10261723Y-12689883D01*
X10261723Y-12902017D01*
X10473857Y-12902017D01*
X10592442Y-14597876D02*
X10592442Y-14385742D01*
X10380308Y-14385742D01*
X10380308Y-14597876D01*
X10592442Y-14597876D01*
X10711029Y-16293736D02*
X10711029Y-16081602D01*
X10498895Y-16081602D01*
X10498895Y-16293736D01*
X10711029Y-16293736D01*
X10987987Y-13086603D02*
X10987987Y-12874469D01*
X10775853Y-12874469D01*
X10775853Y-13086603D01*
X10987987Y-13086603D01*
X11106571Y-14782463D02*
X11106571Y-14570329D01*
X10894437Y-14570329D01*
X10894437Y-14782463D01*
X11106571Y-14782463D01*
X11225159Y-16478322D02*
X11225159Y-16266188D01*
X11013025Y-16266188D01*
X11013025Y-16478322D01*
X11225159Y-16478322D01*
X12643538Y-16918313D02*
X12643538Y-16706179D01*
X12431404Y-16706179D01*
X12431404Y-16918313D01*
X12643538Y-16918313D01*
X12643539Y-13518314D02*
X12643539Y-13306180D01*
X12431405Y-13306180D01*
X12431405Y-13518314D01*
X12643539Y-13518314D01*
X12643540Y-15218313D02*
X12643540Y-15006179D01*
X12431406Y-15006179D01*
X12431406Y-15218313D01*
X12643540Y-15218313D01*
X13143538Y-17138314D02*
X13143538Y-16926180D01*
X12931404Y-16926180D01*
X12931404Y-17138314D01*
X13143538Y-17138314D01*
X13143540Y-13738315D02*
X13143540Y-13526181D01*
X12931406Y-13526181D01*
X12931406Y-13738315D01*
X13143540Y-13738315D01*
X13143540Y-15438314D02*
X13143540Y-15226180D01*
X12931406Y-15226180D01*
X12931406Y-15438314D01*
X13143540Y-15438314D01*
X13553519Y-19326126D02*
X13553519Y-19113992D01*
X13341385Y-19113992D01*
X13341385Y-19326126D01*
X13553519Y-19326126D01*
X13979542Y-19668039D02*
X13979542Y-19455905D01*
X13767408Y-19455905D01*
X13767408Y-19668039D01*
X13979542Y-19668039D01*
X14443537Y-15218316D02*
X14443537Y-15006182D01*
X14231403Y-15006182D01*
X14231403Y-15218316D01*
X14443537Y-15218316D01*
X14443538Y-13518315D02*
X14443538Y-13306181D01*
X14231404Y-13306181D01*
X14231404Y-13518315D01*
X14443538Y-13518315D01*
X14443538Y-16918314D02*
X14443538Y-16706180D01*
X14231404Y-16706180D01*
X14231404Y-16918314D01*
X14443538Y-16918314D01*
X14943538Y-15438316D02*
X14943538Y-15226182D01*
X14731404Y-15226182D01*
X14731404Y-15438316D01*
X14943538Y-15438316D01*
X14943539Y-13738316D02*
X14943539Y-13526182D01*
X14731405Y-13526182D01*
X14731405Y-13738316D01*
X14943539Y-13738316D01*
X14943539Y-17138315D02*
X14943539Y-16926181D01*
X14731405Y-16926181D01*
X14731405Y-17138315D01*
X14943539Y-17138315D01*
X15472787Y-20614078D02*
X15472787Y-20401944D01*
X15260653Y-20401944D01*
X15260653Y-20614078D01*
X15472787Y-20614078D01*
X15886617Y-20970652D02*
X15886617Y-20758518D01*
X15674483Y-20758518D01*
X15674483Y-20970652D01*
X15886617Y-20970652D01*
X16869446Y-19038578D02*
X16869446Y-18826444D01*
X16657312Y-18826444D01*
X16657312Y-19038578D01*
X16869446Y-19038578D01*
X17183304Y-21474084D02*
X17183304Y-21261950D01*
X16971170Y-21261950D01*
X16971170Y-21474084D01*
X17183304Y-21474084D01*
X17226020Y-18624748D02*
X17226020Y-18412614D01*
X17013886Y-18412614D01*
X17013886Y-18624748D01*
X17226020Y-18624748D01*
X17584438Y-21844882D02*
X17584438Y-21632748D01*
X17372304Y-21632748D01*
X17372304Y-21844882D01*
X17584438Y-21844882D01*
X18634096Y-19948289D02*
X18634096Y-19736155D01*
X18421962Y-19736155D01*
X18421962Y-19948289D01*
X18634096Y-19948289D01*
X19004894Y-19547155D02*
X19004894Y-19335021D01*
X18792760Y-19335021D01*
X18792760Y-19547155D01*
X19004894Y-19547155D01*
D16*
X6305866Y-15489728D02*
X6477316Y-15318278D01*
X6305866Y-15146828D01*
X6134416Y-15318278D01*
X6305866Y-15489728D01*
X6970110Y-17054587D02*
X7141560Y-16883137D01*
X6970110Y-16711687D01*
X6798660Y-16883137D01*
X6970110Y-17054587D01*
X7634353Y-18619443D02*
X7805803Y-18447993D01*
X7634353Y-18276543D01*
X7462903Y-18447993D01*
X7634353Y-18619443D01*
X8560390Y-13480542D02*
X8731840Y-13309092D01*
X8560390Y-13137642D01*
X8388940Y-13309092D01*
X8560390Y-13480542D01*
X8884765Y-15149308D02*
X9056215Y-14977858D01*
X8884765Y-14806408D01*
X8713315Y-14977858D01*
X8884765Y-15149308D01*
X9209139Y-16818076D02*
X9380589Y-16646626D01*
X9209139Y-16475176D01*
X9037689Y-16646626D01*
X9209139Y-16818076D01*
X10840414Y-12558435D02*
X11011864Y-12386985D01*
X10840414Y-12215535D01*
X10668964Y-12386985D01*
X10840414Y-12558435D01*
X10958998Y-14254294D02*
X11130448Y-14082844D01*
X10958998Y-13911394D01*
X10787548Y-14082844D01*
X10958998Y-14254294D01*
X11077586Y-15950154D02*
X11249036Y-15778704D01*
X11077586Y-15607254D01*
X10906136Y-15778704D01*
X11077586Y-15950154D01*
X13037471Y-16608696D02*
X13208921Y-16437246D01*
X13037471Y-16265796D01*
X12866021Y-16437246D01*
X13037471Y-16608696D01*
X13037472Y-13208697D02*
X13208922Y-13037247D01*
X13037472Y-12865797D01*
X12866022Y-13037247D01*
X13037472Y-13208697D01*
X13037473Y-14908696D02*
X13208923Y-14737246D01*
X13037473Y-14565796D01*
X12866023Y-14737246D01*
X13037473Y-14908696D01*
X14027473Y-19158696D02*
X14198923Y-18987246D01*
X14027473Y-18815796D01*
X13856023Y-18987246D01*
X14027473Y-19158696D01*
X14837470Y-14908699D02*
X15008920Y-14737249D01*
X14837470Y-14565799D01*
X14666020Y-14737249D01*
X14837470Y-14908699D01*
X14837471Y-13208698D02*
X15008921Y-13037248D01*
X14837471Y-12865798D01*
X14666021Y-13037248D01*
X14837471Y-13208698D01*
X14837471Y-16608697D02*
X15008921Y-16437247D01*
X14837471Y-16265797D01*
X14666021Y-16437247D01*
X14837471Y-16608697D01*
X15954512Y-20467033D02*
X16125962Y-20295583D01*
X15954512Y-20124133D01*
X15783062Y-20295583D01*
X15954512Y-20467033D01*
X16550951Y-18516169D02*
X16722401Y-18344719D01*
X16550951Y-18173269D01*
X16379501Y-18344719D01*
X16550951Y-18516169D01*
X17672084Y-21347682D02*
X17843534Y-21176232D01*
X17672084Y-21004782D01*
X17500634Y-21176232D01*
X17672084Y-21347682D01*
X18336243Y-19418824D02*
X18507693Y-19247374D01*
X18336243Y-19075924D01*
X18164793Y-19247374D01*
X18336243Y-19418824D01*
D12*
X5198569Y-22791535D02*
X5198569Y-22591535D01*
X5198569Y-22591535D02*
X5246188Y-22591535D01*
X5246188Y-22591535D02*
X5274760Y-22601059D01*
X5274760Y-22601059D02*
X5293807Y-22620106D01*
X5293807Y-22620106D02*
X5303331Y-22639154D01*
X5303331Y-22639154D02*
X5312855Y-22677249D01*
X5312855Y-22677249D02*
X5312855Y-22705821D01*
X5312855Y-22705821D02*
X5303331Y-22743916D01*
X5303331Y-22743916D02*
X5293807Y-22762963D01*
X5293807Y-22762963D02*
X5274760Y-22782011D01*
X5274760Y-22782011D02*
X5246188Y-22791535D01*
X5246188Y-22791535D02*
X5198569Y-22791535D01*
X5398569Y-22791535D02*
X5398569Y-22658202D01*
X5398569Y-22696297D02*
X5408093Y-22677249D01*
X5408093Y-22677249D02*
X5417617Y-22667725D01*
X5417617Y-22667725D02*
X5436665Y-22658202D01*
X5436665Y-22658202D02*
X5455712Y-22658202D01*
X5522379Y-22791535D02*
X5522379Y-22658202D01*
X5522379Y-22591535D02*
X5512855Y-22601059D01*
X5512855Y-22601059D02*
X5522379Y-22610583D01*
X5522379Y-22610583D02*
X5531903Y-22601059D01*
X5531903Y-22601059D02*
X5522379Y-22591535D01*
X5522379Y-22591535D02*
X5522379Y-22610583D01*
X5646188Y-22791535D02*
X5627141Y-22782011D01*
X5627141Y-22782011D02*
X5617617Y-22762963D01*
X5617617Y-22762963D02*
X5617617Y-22591535D01*
X5750950Y-22791535D02*
X5731903Y-22782011D01*
X5731903Y-22782011D02*
X5722379Y-22762963D01*
X5722379Y-22762963D02*
X5722379Y-22591535D01*
X5979522Y-22791535D02*
X5979522Y-22591535D01*
X5979522Y-22591535D02*
X6046188Y-22734392D01*
X6046188Y-22734392D02*
X6112855Y-22591535D01*
X6112855Y-22591535D02*
X6112855Y-22791535D01*
X6293807Y-22791535D02*
X6293807Y-22686773D01*
X6293807Y-22686773D02*
X6284284Y-22667725D01*
X6284284Y-22667725D02*
X6265236Y-22658202D01*
X6265236Y-22658202D02*
X6227141Y-22658202D01*
X6227141Y-22658202D02*
X6208093Y-22667725D01*
X6293807Y-22782011D02*
X6274760Y-22791535D01*
X6274760Y-22791535D02*
X6227141Y-22791535D01*
X6227141Y-22791535D02*
X6208093Y-22782011D01*
X6208093Y-22782011D02*
X6198569Y-22762963D01*
X6198569Y-22762963D02*
X6198569Y-22743916D01*
X6198569Y-22743916D02*
X6208093Y-22724868D01*
X6208093Y-22724868D02*
X6227141Y-22715344D01*
X6227141Y-22715344D02*
X6274760Y-22715344D01*
X6274760Y-22715344D02*
X6293807Y-22705821D01*
X6389045Y-22658202D02*
X6389045Y-22858202D01*
X6389045Y-22667725D02*
X6408093Y-22658202D01*
X6408093Y-22658202D02*
X6446188Y-22658202D01*
X6446188Y-22658202D02*
X6465236Y-22667725D01*
X6465236Y-22667725D02*
X6474760Y-22677249D01*
X6474760Y-22677249D02*
X6484284Y-22696297D01*
X6484284Y-22696297D02*
X6484284Y-22753440D01*
X6484284Y-22753440D02*
X6474760Y-22772487D01*
X6474760Y-22772487D02*
X6465236Y-22782011D01*
X6465236Y-22782011D02*
X6446188Y-22791535D01*
X6446188Y-22791535D02*
X6408093Y-22791535D01*
X6408093Y-22791535D02*
X6389045Y-22782011D01*
X6569998Y-22772487D02*
X6579522Y-22782011D01*
X6579522Y-22782011D02*
X6569998Y-22791535D01*
X6569998Y-22791535D02*
X6560474Y-22782011D01*
X6560474Y-22782011D02*
X6569998Y-22772487D01*
X6569998Y-22772487D02*
X6569998Y-22791535D01*
X6569998Y-22667725D02*
X6579522Y-22677249D01*
X6579522Y-22677249D02*
X6569998Y-22686773D01*
X6569998Y-22686773D02*
X6560474Y-22677249D01*
X6560474Y-22677249D02*
X6569998Y-22667725D01*
X6569998Y-22667725D02*
X6569998Y-22686773D01*
D13*
X4862793Y-23082551D02*
X4937793Y-23157551D01*
X4937793Y-23082551D02*
X4862793Y-23157551D01*
D12*
X5236665Y-23011535D02*
X5255712Y-23011535D01*
X5255712Y-23011535D02*
X5274760Y-23021059D01*
X5274760Y-23021059D02*
X5284284Y-23030583D01*
X5284284Y-23030583D02*
X5293807Y-23049630D01*
X5293807Y-23049630D02*
X5303331Y-23087725D01*
X5303331Y-23087725D02*
X5303331Y-23135344D01*
X5303331Y-23135344D02*
X5293807Y-23173440D01*
X5293807Y-23173440D02*
X5284284Y-23192487D01*
X5284284Y-23192487D02*
X5274760Y-23202011D01*
X5274760Y-23202011D02*
X5255712Y-23211535D01*
X5255712Y-23211535D02*
X5236665Y-23211535D01*
X5236665Y-23211535D02*
X5217617Y-23202011D01*
X5217617Y-23202011D02*
X5208093Y-23192487D01*
X5208093Y-23192487D02*
X5198569Y-23173440D01*
X5198569Y-23173440D02*
X5189046Y-23135344D01*
X5189046Y-23135344D02*
X5189046Y-23087725D01*
X5189046Y-23087725D02*
X5198569Y-23049630D01*
X5198569Y-23049630D02*
X5208093Y-23030583D01*
X5208093Y-23030583D02*
X5217617Y-23021059D01*
X5217617Y-23021059D02*
X5236665Y-23011535D01*
X5389046Y-23192487D02*
X5398569Y-23202011D01*
X5398569Y-23202011D02*
X5389046Y-23211535D01*
X5389046Y-23211535D02*
X5379522Y-23202011D01*
X5379522Y-23202011D02*
X5389046Y-23192487D01*
X5389046Y-23192487D02*
X5389046Y-23211535D01*
X5465236Y-23011535D02*
X5598569Y-23011535D01*
X5598569Y-23011535D02*
X5512855Y-23211535D01*
X5769998Y-23011535D02*
X5674760Y-23011535D01*
X5674760Y-23011535D02*
X5665236Y-23106773D01*
X5665236Y-23106773D02*
X5674760Y-23097249D01*
X5674760Y-23097249D02*
X5693807Y-23087725D01*
X5693807Y-23087725D02*
X5741426Y-23087725D01*
X5741426Y-23087725D02*
X5760474Y-23097249D01*
X5760474Y-23097249D02*
X5769998Y-23106773D01*
X5769998Y-23106773D02*
X5779522Y-23125821D01*
X5779522Y-23125821D02*
X5779522Y-23173440D01*
X5779522Y-23173440D02*
X5769998Y-23192487D01*
X5769998Y-23192487D02*
X5760474Y-23202011D01*
X5760474Y-23202011D02*
X5741426Y-23211535D01*
X5741426Y-23211535D02*
X5693807Y-23211535D01*
X5693807Y-23211535D02*
X5674760Y-23202011D01*
X5674760Y-23202011D02*
X5665236Y-23192487D01*
X5903331Y-23011535D02*
X5922379Y-23011535D01*
X5922379Y-23011535D02*
X5941426Y-23021059D01*
X5941426Y-23021059D02*
X5950950Y-23030583D01*
X5950950Y-23030583D02*
X5960474Y-23049630D01*
X5960474Y-23049630D02*
X5969998Y-23087725D01*
X5969998Y-23087725D02*
X5969998Y-23135344D01*
X5969998Y-23135344D02*
X5960474Y-23173440D01*
X5960474Y-23173440D02*
X5950950Y-23192487D01*
X5950950Y-23192487D02*
X5941426Y-23202011D01*
X5941426Y-23202011D02*
X5922379Y-23211535D01*
X5922379Y-23211535D02*
X5903331Y-23211535D01*
X5903331Y-23211535D02*
X5884284Y-23202011D01*
X5884284Y-23202011D02*
X5874760Y-23192487D01*
X5874760Y-23192487D02*
X5865236Y-23173440D01*
X5865236Y-23173440D02*
X5855712Y-23135344D01*
X5855712Y-23135344D02*
X5855712Y-23087725D01*
X5855712Y-23087725D02*
X5865236Y-23049630D01*
X5865236Y-23049630D02*
X5874760Y-23030583D01*
X5874760Y-23030583D02*
X5884284Y-23021059D01*
X5884284Y-23021059D02*
X5903331Y-23011535D01*
X6055712Y-23211535D02*
X6055712Y-23078202D01*
X6055712Y-23097249D02*
X6065236Y-23087725D01*
X6065236Y-23087725D02*
X6084284Y-23078202D01*
X6084284Y-23078202D02*
X6112855Y-23078202D01*
X6112855Y-23078202D02*
X6131903Y-23087725D01*
X6131903Y-23087725D02*
X6141426Y-23106773D01*
X6141426Y-23106773D02*
X6141426Y-23211535D01*
X6141426Y-23106773D02*
X6150950Y-23087725D01*
X6150950Y-23087725D02*
X6169998Y-23078202D01*
X6169998Y-23078202D02*
X6198569Y-23078202D01*
X6198569Y-23078202D02*
X6217617Y-23087725D01*
X6217617Y-23087725D02*
X6227141Y-23106773D01*
X6227141Y-23106773D02*
X6227141Y-23211535D01*
X6322379Y-23211535D02*
X6322379Y-23078202D01*
X6322379Y-23097249D02*
X6331903Y-23087725D01*
X6331903Y-23087725D02*
X6350950Y-23078202D01*
X6350950Y-23078202D02*
X6379522Y-23078202D01*
X6379522Y-23078202D02*
X6398569Y-23087725D01*
X6398569Y-23087725D02*
X6408093Y-23106773D01*
X6408093Y-23106773D02*
X6408093Y-23211535D01*
X6408093Y-23106773D02*
X6417617Y-23087725D01*
X6417617Y-23087725D02*
X6436665Y-23078202D01*
X6436665Y-23078202D02*
X6465236Y-23078202D01*
X6465236Y-23078202D02*
X6484284Y-23087725D01*
X6484284Y-23087725D02*
X6493807Y-23106773D01*
X6493807Y-23106773D02*
X6493807Y-23211535D01*
X6884284Y-23002011D02*
X6712855Y-23259154D01*
X7141427Y-23011535D02*
X7160474Y-23011535D01*
X7160474Y-23011535D02*
X7179522Y-23021059D01*
X7179522Y-23021059D02*
X7189046Y-23030583D01*
X7189046Y-23030583D02*
X7198569Y-23049630D01*
X7198569Y-23049630D02*
X7208093Y-23087725D01*
X7208093Y-23087725D02*
X7208093Y-23135344D01*
X7208093Y-23135344D02*
X7198569Y-23173440D01*
X7198569Y-23173440D02*
X7189046Y-23192487D01*
X7189046Y-23192487D02*
X7179522Y-23202011D01*
X7179522Y-23202011D02*
X7160474Y-23211535D01*
X7160474Y-23211535D02*
X7141427Y-23211535D01*
X7141427Y-23211535D02*
X7122379Y-23202011D01*
X7122379Y-23202011D02*
X7112855Y-23192487D01*
X7112855Y-23192487D02*
X7103331Y-23173440D01*
X7103331Y-23173440D02*
X7093808Y-23135344D01*
X7093808Y-23135344D02*
X7093808Y-23087725D01*
X7093808Y-23087725D02*
X7103331Y-23049630D01*
X7103331Y-23049630D02*
X7112855Y-23030583D01*
X7112855Y-23030583D02*
X7122379Y-23021059D01*
X7122379Y-23021059D02*
X7141427Y-23011535D01*
X7293808Y-23192487D02*
X7303331Y-23202011D01*
X7303331Y-23202011D02*
X7293808Y-23211535D01*
X7293808Y-23211535D02*
X7284284Y-23202011D01*
X7284284Y-23202011D02*
X7293808Y-23192487D01*
X7293808Y-23192487D02*
X7293808Y-23211535D01*
X7427141Y-23011535D02*
X7446189Y-23011535D01*
X7446189Y-23011535D02*
X7465236Y-23021059D01*
X7465236Y-23021059D02*
X7474760Y-23030583D01*
X7474760Y-23030583D02*
X7484284Y-23049630D01*
X7484284Y-23049630D02*
X7493808Y-23087725D01*
X7493808Y-23087725D02*
X7493808Y-23135344D01*
X7493808Y-23135344D02*
X7484284Y-23173440D01*
X7484284Y-23173440D02*
X7474760Y-23192487D01*
X7474760Y-23192487D02*
X7465236Y-23202011D01*
X7465236Y-23202011D02*
X7446189Y-23211535D01*
X7446189Y-23211535D02*
X7427141Y-23211535D01*
X7427141Y-23211535D02*
X7408093Y-23202011D01*
X7408093Y-23202011D02*
X7398569Y-23192487D01*
X7398569Y-23192487D02*
X7389046Y-23173440D01*
X7389046Y-23173440D02*
X7379522Y-23135344D01*
X7379522Y-23135344D02*
X7379522Y-23087725D01*
X7379522Y-23087725D02*
X7389046Y-23049630D01*
X7389046Y-23049630D02*
X7398569Y-23030583D01*
X7398569Y-23030583D02*
X7408093Y-23021059D01*
X7408093Y-23021059D02*
X7427141Y-23011535D01*
X7569998Y-23030583D02*
X7579522Y-23021059D01*
X7579522Y-23021059D02*
X7598569Y-23011535D01*
X7598569Y-23011535D02*
X7646189Y-23011535D01*
X7646189Y-23011535D02*
X7665236Y-23021059D01*
X7665236Y-23021059D02*
X7674760Y-23030583D01*
X7674760Y-23030583D02*
X7684284Y-23049630D01*
X7684284Y-23049630D02*
X7684284Y-23068678D01*
X7684284Y-23068678D02*
X7674760Y-23097249D01*
X7674760Y-23097249D02*
X7560474Y-23211535D01*
X7560474Y-23211535D02*
X7684284Y-23211535D01*
X7779522Y-23211535D02*
X7817617Y-23211535D01*
X7817617Y-23211535D02*
X7836665Y-23202011D01*
X7836665Y-23202011D02*
X7846189Y-23192487D01*
X7846189Y-23192487D02*
X7865236Y-23163916D01*
X7865236Y-23163916D02*
X7874760Y-23125821D01*
X7874760Y-23125821D02*
X7874760Y-23049630D01*
X7874760Y-23049630D02*
X7865236Y-23030583D01*
X7865236Y-23030583D02*
X7855712Y-23021059D01*
X7855712Y-23021059D02*
X7836665Y-23011535D01*
X7836665Y-23011535D02*
X7798569Y-23011535D01*
X7798569Y-23011535D02*
X7779522Y-23021059D01*
X7779522Y-23021059D02*
X7769998Y-23030583D01*
X7769998Y-23030583D02*
X7760474Y-23049630D01*
X7760474Y-23049630D02*
X7760474Y-23097249D01*
X7760474Y-23097249D02*
X7769998Y-23116297D01*
X7769998Y-23116297D02*
X7779522Y-23125821D01*
X7779522Y-23125821D02*
X7798569Y-23135344D01*
X7798569Y-23135344D02*
X7836665Y-23135344D01*
X7836665Y-23135344D02*
X7855712Y-23125821D01*
X7855712Y-23125821D02*
X7865236Y-23116297D01*
X7865236Y-23116297D02*
X7874760Y-23097249D01*
X8055712Y-23011535D02*
X7960474Y-23011535D01*
X7960474Y-23011535D02*
X7950950Y-23106773D01*
X7950950Y-23106773D02*
X7960474Y-23097249D01*
X7960474Y-23097249D02*
X7979522Y-23087725D01*
X7979522Y-23087725D02*
X8027141Y-23087725D01*
X8027141Y-23087725D02*
X8046189Y-23097249D01*
X8046189Y-23097249D02*
X8055712Y-23106773D01*
X8055712Y-23106773D02*
X8065236Y-23125821D01*
X8065236Y-23125821D02*
X8065236Y-23173440D01*
X8065236Y-23173440D02*
X8055712Y-23192487D01*
X8055712Y-23192487D02*
X8046189Y-23202011D01*
X8046189Y-23202011D02*
X8027141Y-23211535D01*
X8027141Y-23211535D02*
X7979522Y-23211535D01*
X7979522Y-23211535D02*
X7960474Y-23202011D01*
X7960474Y-23202011D02*
X7950950Y-23192487D01*
X8141427Y-23011535D02*
X8141427Y-23049630D01*
X8217617Y-23011535D02*
X8217617Y-23049630D01*
X8512855Y-23287725D02*
X8503332Y-23278202D01*
X8503332Y-23278202D02*
X8484284Y-23249630D01*
X8484284Y-23249630D02*
X8474760Y-23230583D01*
X8474760Y-23230583D02*
X8465236Y-23202011D01*
X8465236Y-23202011D02*
X8455713Y-23154392D01*
X8455713Y-23154392D02*
X8455713Y-23116297D01*
X8455713Y-23116297D02*
X8465236Y-23068678D01*
X8465236Y-23068678D02*
X8474760Y-23040106D01*
X8474760Y-23040106D02*
X8484284Y-23021059D01*
X8484284Y-23021059D02*
X8503332Y-22992487D01*
X8503332Y-22992487D02*
X8512855Y-22982963D01*
X8579522Y-23030583D02*
X8589046Y-23021059D01*
X8589046Y-23021059D02*
X8608093Y-23011535D01*
X8608093Y-23011535D02*
X8655713Y-23011535D01*
X8655713Y-23011535D02*
X8674760Y-23021059D01*
X8674760Y-23021059D02*
X8684284Y-23030583D01*
X8684284Y-23030583D02*
X8693808Y-23049630D01*
X8693808Y-23049630D02*
X8693808Y-23068678D01*
X8693808Y-23068678D02*
X8684284Y-23097249D01*
X8684284Y-23097249D02*
X8569998Y-23211535D01*
X8569998Y-23211535D02*
X8693808Y-23211535D01*
X8931903Y-23211535D02*
X8931903Y-23011535D01*
X9017617Y-23211535D02*
X9017617Y-23106773D01*
X9017617Y-23106773D02*
X9008094Y-23087725D01*
X9008094Y-23087725D02*
X8989046Y-23078202D01*
X8989046Y-23078202D02*
X8960474Y-23078202D01*
X8960474Y-23078202D02*
X8941427Y-23087725D01*
X8941427Y-23087725D02*
X8931903Y-23097249D01*
X9141427Y-23211535D02*
X9122379Y-23202011D01*
X9122379Y-23202011D02*
X9112855Y-23192487D01*
X9112855Y-23192487D02*
X9103332Y-23173440D01*
X9103332Y-23173440D02*
X9103332Y-23116297D01*
X9103332Y-23116297D02*
X9112855Y-23097249D01*
X9112855Y-23097249D02*
X9122379Y-23087725D01*
X9122379Y-23087725D02*
X9141427Y-23078202D01*
X9141427Y-23078202D02*
X9169998Y-23078202D01*
X9169998Y-23078202D02*
X9189046Y-23087725D01*
X9189046Y-23087725D02*
X9198570Y-23097249D01*
X9198570Y-23097249D02*
X9208094Y-23116297D01*
X9208094Y-23116297D02*
X9208094Y-23173440D01*
X9208094Y-23173440D02*
X9198570Y-23192487D01*
X9198570Y-23192487D02*
X9189046Y-23202011D01*
X9189046Y-23202011D02*
X9169998Y-23211535D01*
X9169998Y-23211535D02*
X9141427Y-23211535D01*
X9322379Y-23211535D02*
X9303332Y-23202011D01*
X9303332Y-23202011D02*
X9293808Y-23182963D01*
X9293808Y-23182963D02*
X9293808Y-23011535D01*
X9474760Y-23202011D02*
X9455713Y-23211535D01*
X9455713Y-23211535D02*
X9417617Y-23211535D01*
X9417617Y-23211535D02*
X9398570Y-23202011D01*
X9398570Y-23202011D02*
X9389046Y-23182963D01*
X9389046Y-23182963D02*
X9389046Y-23106773D01*
X9389046Y-23106773D02*
X9398570Y-23087725D01*
X9398570Y-23087725D02*
X9417617Y-23078202D01*
X9417617Y-23078202D02*
X9455713Y-23078202D01*
X9455713Y-23078202D02*
X9474760Y-23087725D01*
X9474760Y-23087725D02*
X9484284Y-23106773D01*
X9484284Y-23106773D02*
X9484284Y-23125821D01*
X9484284Y-23125821D02*
X9389046Y-23144868D01*
X9560475Y-23202011D02*
X9579522Y-23211535D01*
X9579522Y-23211535D02*
X9617617Y-23211535D01*
X9617617Y-23211535D02*
X9636665Y-23202011D01*
X9636665Y-23202011D02*
X9646189Y-23182963D01*
X9646189Y-23182963D02*
X9646189Y-23173440D01*
X9646189Y-23173440D02*
X9636665Y-23154392D01*
X9636665Y-23154392D02*
X9617617Y-23144868D01*
X9617617Y-23144868D02*
X9589046Y-23144868D01*
X9589046Y-23144868D02*
X9569998Y-23135344D01*
X9569998Y-23135344D02*
X9560475Y-23116297D01*
X9560475Y-23116297D02*
X9560475Y-23106773D01*
X9560475Y-23106773D02*
X9569998Y-23087725D01*
X9569998Y-23087725D02*
X9589046Y-23078202D01*
X9589046Y-23078202D02*
X9617617Y-23078202D01*
X9617617Y-23078202D02*
X9636665Y-23087725D01*
X9712856Y-23287725D02*
X9722379Y-23278202D01*
X9722379Y-23278202D02*
X9741427Y-23249630D01*
X9741427Y-23249630D02*
X9750951Y-23230583D01*
X9750951Y-23230583D02*
X9760475Y-23202011D01*
X9760475Y-23202011D02*
X9769998Y-23154392D01*
X9769998Y-23154392D02*
X9769998Y-23116297D01*
X9769998Y-23116297D02*
X9760475Y-23068678D01*
X9760475Y-23068678D02*
X9750951Y-23040106D01*
X9750951Y-23040106D02*
X9741427Y-23021059D01*
X9741427Y-23021059D02*
X9722379Y-22992487D01*
X9722379Y-22992487D02*
X9712856Y-22982963D01*
X10074760Y-23287725D02*
X10065236Y-23278202D01*
X10065236Y-23278202D02*
X10046189Y-23249630D01*
X10046189Y-23249630D02*
X10036665Y-23230583D01*
X10036665Y-23230583D02*
X10027141Y-23202011D01*
X10027141Y-23202011D02*
X10017617Y-23154392D01*
X10017617Y-23154392D02*
X10017617Y-23116297D01*
X10017617Y-23116297D02*
X10027141Y-23068678D01*
X10027141Y-23068678D02*
X10036665Y-23040106D01*
X10036665Y-23040106D02*
X10046189Y-23021059D01*
X10046189Y-23021059D02*
X10065236Y-22992487D01*
X10065236Y-22992487D02*
X10074760Y-22982963D01*
X10150951Y-23078202D02*
X10150951Y-23211535D01*
X10150951Y-23097249D02*
X10160475Y-23087725D01*
X10160475Y-23087725D02*
X10179522Y-23078202D01*
X10179522Y-23078202D02*
X10208094Y-23078202D01*
X10208094Y-23078202D02*
X10227141Y-23087725D01*
X10227141Y-23087725D02*
X10236665Y-23106773D01*
X10236665Y-23106773D02*
X10236665Y-23211535D01*
X10360475Y-23211535D02*
X10341427Y-23202011D01*
X10341427Y-23202011D02*
X10331903Y-23192487D01*
X10331903Y-23192487D02*
X10322379Y-23173440D01*
X10322379Y-23173440D02*
X10322379Y-23116297D01*
X10322379Y-23116297D02*
X10331903Y-23097249D01*
X10331903Y-23097249D02*
X10341427Y-23087725D01*
X10341427Y-23087725D02*
X10360475Y-23078202D01*
X10360475Y-23078202D02*
X10389046Y-23078202D01*
X10389046Y-23078202D02*
X10408094Y-23087725D01*
X10408094Y-23087725D02*
X10417617Y-23097249D01*
X10417617Y-23097249D02*
X10427141Y-23116297D01*
X10427141Y-23116297D02*
X10427141Y-23173440D01*
X10427141Y-23173440D02*
X10417617Y-23192487D01*
X10417617Y-23192487D02*
X10408094Y-23202011D01*
X10408094Y-23202011D02*
X10389046Y-23211535D01*
X10389046Y-23211535D02*
X10360475Y-23211535D01*
X10484284Y-23078202D02*
X10560475Y-23078202D01*
X10512856Y-23011535D02*
X10512856Y-23182963D01*
X10512856Y-23182963D02*
X10522379Y-23202011D01*
X10522379Y-23202011D02*
X10541427Y-23211535D01*
X10541427Y-23211535D02*
X10560475Y-23211535D01*
X10779522Y-23078202D02*
X10779522Y-23278202D01*
X10779522Y-23087725D02*
X10798570Y-23078202D01*
X10798570Y-23078202D02*
X10836665Y-23078202D01*
X10836665Y-23078202D02*
X10855713Y-23087725D01*
X10855713Y-23087725D02*
X10865237Y-23097249D01*
X10865237Y-23097249D02*
X10874760Y-23116297D01*
X10874760Y-23116297D02*
X10874760Y-23173440D01*
X10874760Y-23173440D02*
X10865237Y-23192487D01*
X10865237Y-23192487D02*
X10855713Y-23202011D01*
X10855713Y-23202011D02*
X10836665Y-23211535D01*
X10836665Y-23211535D02*
X10798570Y-23211535D01*
X10798570Y-23211535D02*
X10779522Y-23202011D01*
X10989046Y-23211535D02*
X10969998Y-23202011D01*
X10969998Y-23202011D02*
X10960475Y-23182963D01*
X10960475Y-23182963D02*
X10960475Y-23011535D01*
X11150951Y-23211535D02*
X11150951Y-23106773D01*
X11150951Y-23106773D02*
X11141427Y-23087725D01*
X11141427Y-23087725D02*
X11122379Y-23078202D01*
X11122379Y-23078202D02*
X11084284Y-23078202D01*
X11084284Y-23078202D02*
X11065237Y-23087725D01*
X11150951Y-23202011D02*
X11131903Y-23211535D01*
X11131903Y-23211535D02*
X11084284Y-23211535D01*
X11084284Y-23211535D02*
X11065237Y-23202011D01*
X11065237Y-23202011D02*
X11055713Y-23182963D01*
X11055713Y-23182963D02*
X11055713Y-23163916D01*
X11055713Y-23163916D02*
X11065237Y-23144868D01*
X11065237Y-23144868D02*
X11084284Y-23135344D01*
X11084284Y-23135344D02*
X11131903Y-23135344D01*
X11131903Y-23135344D02*
X11150951Y-23125821D01*
X11217617Y-23078202D02*
X11293808Y-23078202D01*
X11246189Y-23011535D02*
X11246189Y-23182963D01*
X11246189Y-23182963D02*
X11255713Y-23202011D01*
X11255713Y-23202011D02*
X11274760Y-23211535D01*
X11274760Y-23211535D02*
X11293808Y-23211535D01*
X11436665Y-23202011D02*
X11417617Y-23211535D01*
X11417617Y-23211535D02*
X11379522Y-23211535D01*
X11379522Y-23211535D02*
X11360475Y-23202011D01*
X11360475Y-23202011D02*
X11350951Y-23182963D01*
X11350951Y-23182963D02*
X11350951Y-23106773D01*
X11350951Y-23106773D02*
X11360475Y-23087725D01*
X11360475Y-23087725D02*
X11379522Y-23078202D01*
X11379522Y-23078202D02*
X11417617Y-23078202D01*
X11417617Y-23078202D02*
X11436665Y-23087725D01*
X11436665Y-23087725D02*
X11446189Y-23106773D01*
X11446189Y-23106773D02*
X11446189Y-23125821D01*
X11446189Y-23125821D02*
X11350951Y-23144868D01*
X11617617Y-23211535D02*
X11617617Y-23011535D01*
X11617617Y-23202011D02*
X11598570Y-23211535D01*
X11598570Y-23211535D02*
X11560475Y-23211535D01*
X11560475Y-23211535D02*
X11541427Y-23202011D01*
X11541427Y-23202011D02*
X11531903Y-23192487D01*
X11531903Y-23192487D02*
X11522379Y-23173440D01*
X11522379Y-23173440D02*
X11522379Y-23116297D01*
X11522379Y-23116297D02*
X11531903Y-23097249D01*
X11531903Y-23097249D02*
X11541427Y-23087725D01*
X11541427Y-23087725D02*
X11560475Y-23078202D01*
X11560475Y-23078202D02*
X11598570Y-23078202D01*
X11598570Y-23078202D02*
X11617617Y-23087725D01*
X11693808Y-23287725D02*
X11703332Y-23278202D01*
X11703332Y-23278202D02*
X11722379Y-23249630D01*
X11722379Y-23249630D02*
X11731903Y-23230583D01*
X11731903Y-23230583D02*
X11741427Y-23202011D01*
X11741427Y-23202011D02*
X11750951Y-23154392D01*
X11750951Y-23154392D02*
X11750951Y-23116297D01*
X11750951Y-23116297D02*
X11741427Y-23068678D01*
X11741427Y-23068678D02*
X11731903Y-23040106D01*
X11731903Y-23040106D02*
X11722379Y-23021059D01*
X11722379Y-23021059D02*
X11703332Y-22992487D01*
X11703332Y-22992487D02*
X11693808Y-22982963D01*
D13*
X4937793Y-23384051D02*
G75*
G02*
X4847793Y-23384051I-45000J0D01*
G01*
X4847793Y-23384051D02*
G75*
G02*
X4937793Y-23384051I45000J0D01*
G01*
D12*
X5236665Y-23275535D02*
X5255712Y-23275535D01*
X5255712Y-23275535D02*
X5274760Y-23285059D01*
X5274760Y-23285059D02*
X5284284Y-23294583D01*
X5284284Y-23294583D02*
X5293807Y-23313630D01*
X5293807Y-23313630D02*
X5303331Y-23351725D01*
X5303331Y-23351725D02*
X5303331Y-23399344D01*
X5303331Y-23399344D02*
X5293807Y-23437440D01*
X5293807Y-23437440D02*
X5284284Y-23456487D01*
X5284284Y-23456487D02*
X5274760Y-23466011D01*
X5274760Y-23466011D02*
X5255712Y-23475535D01*
X5255712Y-23475535D02*
X5236665Y-23475535D01*
X5236665Y-23475535D02*
X5217617Y-23466011D01*
X5217617Y-23466011D02*
X5208093Y-23456487D01*
X5208093Y-23456487D02*
X5198569Y-23437440D01*
X5198569Y-23437440D02*
X5189046Y-23399344D01*
X5189046Y-23399344D02*
X5189046Y-23351725D01*
X5189046Y-23351725D02*
X5198569Y-23313630D01*
X5198569Y-23313630D02*
X5208093Y-23294583D01*
X5208093Y-23294583D02*
X5217617Y-23285059D01*
X5217617Y-23285059D02*
X5236665Y-23275535D01*
X5389046Y-23456487D02*
X5398569Y-23466011D01*
X5398569Y-23466011D02*
X5389046Y-23475535D01*
X5389046Y-23475535D02*
X5379522Y-23466011D01*
X5379522Y-23466011D02*
X5389046Y-23456487D01*
X5389046Y-23456487D02*
X5389046Y-23475535D01*
X5493807Y-23475535D02*
X5531903Y-23475535D01*
X5531903Y-23475535D02*
X5550950Y-23466011D01*
X5550950Y-23466011D02*
X5560474Y-23456487D01*
X5560474Y-23456487D02*
X5579522Y-23427916D01*
X5579522Y-23427916D02*
X5589046Y-23389821D01*
X5589046Y-23389821D02*
X5589046Y-23313630D01*
X5589046Y-23313630D02*
X5579522Y-23294583D01*
X5579522Y-23294583D02*
X5569998Y-23285059D01*
X5569998Y-23285059D02*
X5550950Y-23275535D01*
X5550950Y-23275535D02*
X5512855Y-23275535D01*
X5512855Y-23275535D02*
X5493807Y-23285059D01*
X5493807Y-23285059D02*
X5484284Y-23294583D01*
X5484284Y-23294583D02*
X5474760Y-23313630D01*
X5474760Y-23313630D02*
X5474760Y-23361249D01*
X5474760Y-23361249D02*
X5484284Y-23380297D01*
X5484284Y-23380297D02*
X5493807Y-23389821D01*
X5493807Y-23389821D02*
X5512855Y-23399344D01*
X5512855Y-23399344D02*
X5550950Y-23399344D01*
X5550950Y-23399344D02*
X5569998Y-23389821D01*
X5569998Y-23389821D02*
X5579522Y-23380297D01*
X5579522Y-23380297D02*
X5589046Y-23361249D01*
X5712855Y-23275535D02*
X5731903Y-23275535D01*
X5731903Y-23275535D02*
X5750950Y-23285059D01*
X5750950Y-23285059D02*
X5760474Y-23294583D01*
X5760474Y-23294583D02*
X5769998Y-23313630D01*
X5769998Y-23313630D02*
X5779522Y-23351725D01*
X5779522Y-23351725D02*
X5779522Y-23399344D01*
X5779522Y-23399344D02*
X5769998Y-23437440D01*
X5769998Y-23437440D02*
X5760474Y-23456487D01*
X5760474Y-23456487D02*
X5750950Y-23466011D01*
X5750950Y-23466011D02*
X5731903Y-23475535D01*
X5731903Y-23475535D02*
X5712855Y-23475535D01*
X5712855Y-23475535D02*
X5693807Y-23466011D01*
X5693807Y-23466011D02*
X5684284Y-23456487D01*
X5684284Y-23456487D02*
X5674760Y-23437440D01*
X5674760Y-23437440D02*
X5665236Y-23399344D01*
X5665236Y-23399344D02*
X5665236Y-23351725D01*
X5665236Y-23351725D02*
X5674760Y-23313630D01*
X5674760Y-23313630D02*
X5684284Y-23294583D01*
X5684284Y-23294583D02*
X5693807Y-23285059D01*
X5693807Y-23285059D02*
X5712855Y-23275535D01*
X5903331Y-23275535D02*
X5922379Y-23275535D01*
X5922379Y-23275535D02*
X5941426Y-23285059D01*
X5941426Y-23285059D02*
X5950950Y-23294583D01*
X5950950Y-23294583D02*
X5960474Y-23313630D01*
X5960474Y-23313630D02*
X5969998Y-23351725D01*
X5969998Y-23351725D02*
X5969998Y-23399344D01*
X5969998Y-23399344D02*
X5960474Y-23437440D01*
X5960474Y-23437440D02*
X5950950Y-23456487D01*
X5950950Y-23456487D02*
X5941426Y-23466011D01*
X5941426Y-23466011D02*
X5922379Y-23475535D01*
X5922379Y-23475535D02*
X5903331Y-23475535D01*
X5903331Y-23475535D02*
X5884284Y-23466011D01*
X5884284Y-23466011D02*
X5874760Y-23456487D01*
X5874760Y-23456487D02*
X5865236Y-23437440D01*
X5865236Y-23437440D02*
X5855712Y-23399344D01*
X5855712Y-23399344D02*
X5855712Y-23351725D01*
X5855712Y-23351725D02*
X5865236Y-23313630D01*
X5865236Y-23313630D02*
X5874760Y-23294583D01*
X5874760Y-23294583D02*
X5884284Y-23285059D01*
X5884284Y-23285059D02*
X5903331Y-23275535D01*
X6055712Y-23475535D02*
X6055712Y-23342202D01*
X6055712Y-23361249D02*
X6065236Y-23351725D01*
X6065236Y-23351725D02*
X6084284Y-23342202D01*
X6084284Y-23342202D02*
X6112855Y-23342202D01*
X6112855Y-23342202D02*
X6131903Y-23351725D01*
X6131903Y-23351725D02*
X6141426Y-23370773D01*
X6141426Y-23370773D02*
X6141426Y-23475535D01*
X6141426Y-23370773D02*
X6150950Y-23351725D01*
X6150950Y-23351725D02*
X6169998Y-23342202D01*
X6169998Y-23342202D02*
X6198569Y-23342202D01*
X6198569Y-23342202D02*
X6217617Y-23351725D01*
X6217617Y-23351725D02*
X6227141Y-23370773D01*
X6227141Y-23370773D02*
X6227141Y-23475535D01*
X6322379Y-23475535D02*
X6322379Y-23342202D01*
X6322379Y-23361249D02*
X6331903Y-23351725D01*
X6331903Y-23351725D02*
X6350950Y-23342202D01*
X6350950Y-23342202D02*
X6379522Y-23342202D01*
X6379522Y-23342202D02*
X6398569Y-23351725D01*
X6398569Y-23351725D02*
X6408093Y-23370773D01*
X6408093Y-23370773D02*
X6408093Y-23475535D01*
X6408093Y-23370773D02*
X6417617Y-23351725D01*
X6417617Y-23351725D02*
X6436665Y-23342202D01*
X6436665Y-23342202D02*
X6465236Y-23342202D01*
X6465236Y-23342202D02*
X6484284Y-23351725D01*
X6484284Y-23351725D02*
X6493807Y-23370773D01*
X6493807Y-23370773D02*
X6493807Y-23475535D01*
X6884284Y-23266011D02*
X6712855Y-23523154D01*
X7141427Y-23275535D02*
X7160474Y-23275535D01*
X7160474Y-23275535D02*
X7179522Y-23285059D01*
X7179522Y-23285059D02*
X7189046Y-23294583D01*
X7189046Y-23294583D02*
X7198569Y-23313630D01*
X7198569Y-23313630D02*
X7208093Y-23351725D01*
X7208093Y-23351725D02*
X7208093Y-23399344D01*
X7208093Y-23399344D02*
X7198569Y-23437440D01*
X7198569Y-23437440D02*
X7189046Y-23456487D01*
X7189046Y-23456487D02*
X7179522Y-23466011D01*
X7179522Y-23466011D02*
X7160474Y-23475535D01*
X7160474Y-23475535D02*
X7141427Y-23475535D01*
X7141427Y-23475535D02*
X7122379Y-23466011D01*
X7122379Y-23466011D02*
X7112855Y-23456487D01*
X7112855Y-23456487D02*
X7103331Y-23437440D01*
X7103331Y-23437440D02*
X7093808Y-23399344D01*
X7093808Y-23399344D02*
X7093808Y-23351725D01*
X7093808Y-23351725D02*
X7103331Y-23313630D01*
X7103331Y-23313630D02*
X7112855Y-23294583D01*
X7112855Y-23294583D02*
X7122379Y-23285059D01*
X7122379Y-23285059D02*
X7141427Y-23275535D01*
X7293808Y-23456487D02*
X7303331Y-23466011D01*
X7303331Y-23466011D02*
X7293808Y-23475535D01*
X7293808Y-23475535D02*
X7284284Y-23466011D01*
X7284284Y-23466011D02*
X7293808Y-23456487D01*
X7293808Y-23456487D02*
X7293808Y-23475535D01*
X7427141Y-23275535D02*
X7446189Y-23275535D01*
X7446189Y-23275535D02*
X7465236Y-23285059D01*
X7465236Y-23285059D02*
X7474760Y-23294583D01*
X7474760Y-23294583D02*
X7484284Y-23313630D01*
X7484284Y-23313630D02*
X7493808Y-23351725D01*
X7493808Y-23351725D02*
X7493808Y-23399344D01*
X7493808Y-23399344D02*
X7484284Y-23437440D01*
X7484284Y-23437440D02*
X7474760Y-23456487D01*
X7474760Y-23456487D02*
X7465236Y-23466011D01*
X7465236Y-23466011D02*
X7446189Y-23475535D01*
X7446189Y-23475535D02*
X7427141Y-23475535D01*
X7427141Y-23475535D02*
X7408093Y-23466011D01*
X7408093Y-23466011D02*
X7398569Y-23456487D01*
X7398569Y-23456487D02*
X7389046Y-23437440D01*
X7389046Y-23437440D02*
X7379522Y-23399344D01*
X7379522Y-23399344D02*
X7379522Y-23351725D01*
X7379522Y-23351725D02*
X7389046Y-23313630D01*
X7389046Y-23313630D02*
X7398569Y-23294583D01*
X7398569Y-23294583D02*
X7408093Y-23285059D01*
X7408093Y-23285059D02*
X7427141Y-23275535D01*
X7560474Y-23275535D02*
X7684284Y-23275535D01*
X7684284Y-23275535D02*
X7617617Y-23351725D01*
X7617617Y-23351725D02*
X7646189Y-23351725D01*
X7646189Y-23351725D02*
X7665236Y-23361249D01*
X7665236Y-23361249D02*
X7674760Y-23370773D01*
X7674760Y-23370773D02*
X7684284Y-23389821D01*
X7684284Y-23389821D02*
X7684284Y-23437440D01*
X7684284Y-23437440D02*
X7674760Y-23456487D01*
X7674760Y-23456487D02*
X7665236Y-23466011D01*
X7665236Y-23466011D02*
X7646189Y-23475535D01*
X7646189Y-23475535D02*
X7589046Y-23475535D01*
X7589046Y-23475535D02*
X7569998Y-23466011D01*
X7569998Y-23466011D02*
X7560474Y-23456487D01*
X7865236Y-23275535D02*
X7769998Y-23275535D01*
X7769998Y-23275535D02*
X7760474Y-23370773D01*
X7760474Y-23370773D02*
X7769998Y-23361249D01*
X7769998Y-23361249D02*
X7789046Y-23351725D01*
X7789046Y-23351725D02*
X7836665Y-23351725D01*
X7836665Y-23351725D02*
X7855712Y-23361249D01*
X7855712Y-23361249D02*
X7865236Y-23370773D01*
X7865236Y-23370773D02*
X7874760Y-23389821D01*
X7874760Y-23389821D02*
X7874760Y-23437440D01*
X7874760Y-23437440D02*
X7865236Y-23456487D01*
X7865236Y-23456487D02*
X7855712Y-23466011D01*
X7855712Y-23466011D02*
X7836665Y-23475535D01*
X7836665Y-23475535D02*
X7789046Y-23475535D01*
X7789046Y-23475535D02*
X7769998Y-23466011D01*
X7769998Y-23466011D02*
X7760474Y-23456487D01*
X8046189Y-23342202D02*
X8046189Y-23475535D01*
X7998569Y-23266011D02*
X7950950Y-23408868D01*
X7950950Y-23408868D02*
X8074760Y-23408868D01*
X8141427Y-23275535D02*
X8141427Y-23313630D01*
X8217617Y-23275535D02*
X8217617Y-23313630D01*
X8512855Y-23551725D02*
X8503332Y-23542202D01*
X8503332Y-23542202D02*
X8484284Y-23513630D01*
X8484284Y-23513630D02*
X8474760Y-23494583D01*
X8474760Y-23494583D02*
X8465236Y-23466011D01*
X8465236Y-23466011D02*
X8455713Y-23418392D01*
X8455713Y-23418392D02*
X8455713Y-23380297D01*
X8455713Y-23380297D02*
X8465236Y-23332678D01*
X8465236Y-23332678D02*
X8474760Y-23304106D01*
X8474760Y-23304106D02*
X8484284Y-23285059D01*
X8484284Y-23285059D02*
X8503332Y-23256487D01*
X8503332Y-23256487D02*
X8512855Y-23246963D01*
X8579522Y-23294583D02*
X8589046Y-23285059D01*
X8589046Y-23285059D02*
X8608093Y-23275535D01*
X8608093Y-23275535D02*
X8655713Y-23275535D01*
X8655713Y-23275535D02*
X8674760Y-23285059D01*
X8674760Y-23285059D02*
X8684284Y-23294583D01*
X8684284Y-23294583D02*
X8693808Y-23313630D01*
X8693808Y-23313630D02*
X8693808Y-23332678D01*
X8693808Y-23332678D02*
X8684284Y-23361249D01*
X8684284Y-23361249D02*
X8569998Y-23475535D01*
X8569998Y-23475535D02*
X8693808Y-23475535D01*
X8931903Y-23475535D02*
X8931903Y-23275535D01*
X9017617Y-23475535D02*
X9017617Y-23370773D01*
X9017617Y-23370773D02*
X9008094Y-23351725D01*
X9008094Y-23351725D02*
X8989046Y-23342202D01*
X8989046Y-23342202D02*
X8960474Y-23342202D01*
X8960474Y-23342202D02*
X8941427Y-23351725D01*
X8941427Y-23351725D02*
X8931903Y-23361249D01*
X9141427Y-23475535D02*
X9122379Y-23466011D01*
X9122379Y-23466011D02*
X9112855Y-23456487D01*
X9112855Y-23456487D02*
X9103332Y-23437440D01*
X9103332Y-23437440D02*
X9103332Y-23380297D01*
X9103332Y-23380297D02*
X9112855Y-23361249D01*
X9112855Y-23361249D02*
X9122379Y-23351725D01*
X9122379Y-23351725D02*
X9141427Y-23342202D01*
X9141427Y-23342202D02*
X9169998Y-23342202D01*
X9169998Y-23342202D02*
X9189046Y-23351725D01*
X9189046Y-23351725D02*
X9198570Y-23361249D01*
X9198570Y-23361249D02*
X9208094Y-23380297D01*
X9208094Y-23380297D02*
X9208094Y-23437440D01*
X9208094Y-23437440D02*
X9198570Y-23456487D01*
X9198570Y-23456487D02*
X9189046Y-23466011D01*
X9189046Y-23466011D02*
X9169998Y-23475535D01*
X9169998Y-23475535D02*
X9141427Y-23475535D01*
X9322379Y-23475535D02*
X9303332Y-23466011D01*
X9303332Y-23466011D02*
X9293808Y-23446963D01*
X9293808Y-23446963D02*
X9293808Y-23275535D01*
X9474760Y-23466011D02*
X9455713Y-23475535D01*
X9455713Y-23475535D02*
X9417617Y-23475535D01*
X9417617Y-23475535D02*
X9398570Y-23466011D01*
X9398570Y-23466011D02*
X9389046Y-23446963D01*
X9389046Y-23446963D02*
X9389046Y-23370773D01*
X9389046Y-23370773D02*
X9398570Y-23351725D01*
X9398570Y-23351725D02*
X9417617Y-23342202D01*
X9417617Y-23342202D02*
X9455713Y-23342202D01*
X9455713Y-23342202D02*
X9474760Y-23351725D01*
X9474760Y-23351725D02*
X9484284Y-23370773D01*
X9484284Y-23370773D02*
X9484284Y-23389821D01*
X9484284Y-23389821D02*
X9389046Y-23408868D01*
X9560475Y-23466011D02*
X9579522Y-23475535D01*
X9579522Y-23475535D02*
X9617617Y-23475535D01*
X9617617Y-23475535D02*
X9636665Y-23466011D01*
X9636665Y-23466011D02*
X9646189Y-23446963D01*
X9646189Y-23446963D02*
X9646189Y-23437440D01*
X9646189Y-23437440D02*
X9636665Y-23418392D01*
X9636665Y-23418392D02*
X9617617Y-23408868D01*
X9617617Y-23408868D02*
X9589046Y-23408868D01*
X9589046Y-23408868D02*
X9569998Y-23399344D01*
X9569998Y-23399344D02*
X9560475Y-23380297D01*
X9560475Y-23380297D02*
X9560475Y-23370773D01*
X9560475Y-23370773D02*
X9569998Y-23351725D01*
X9569998Y-23351725D02*
X9589046Y-23342202D01*
X9589046Y-23342202D02*
X9617617Y-23342202D01*
X9617617Y-23342202D02*
X9636665Y-23351725D01*
X9712856Y-23551725D02*
X9722379Y-23542202D01*
X9722379Y-23542202D02*
X9741427Y-23513630D01*
X9741427Y-23513630D02*
X9750951Y-23494583D01*
X9750951Y-23494583D02*
X9760475Y-23466011D01*
X9760475Y-23466011D02*
X9769998Y-23418392D01*
X9769998Y-23418392D02*
X9769998Y-23380297D01*
X9769998Y-23380297D02*
X9760475Y-23332678D01*
X9760475Y-23332678D02*
X9750951Y-23304106D01*
X9750951Y-23304106D02*
X9741427Y-23285059D01*
X9741427Y-23285059D02*
X9722379Y-23256487D01*
X9722379Y-23256487D02*
X9712856Y-23246963D01*
X10074760Y-23551725D02*
X10065236Y-23542202D01*
X10065236Y-23542202D02*
X10046189Y-23513630D01*
X10046189Y-23513630D02*
X10036665Y-23494583D01*
X10036665Y-23494583D02*
X10027141Y-23466011D01*
X10027141Y-23466011D02*
X10017617Y-23418392D01*
X10017617Y-23418392D02*
X10017617Y-23380297D01*
X10017617Y-23380297D02*
X10027141Y-23332678D01*
X10027141Y-23332678D02*
X10036665Y-23304106D01*
X10036665Y-23304106D02*
X10046189Y-23285059D01*
X10046189Y-23285059D02*
X10065236Y-23256487D01*
X10065236Y-23256487D02*
X10074760Y-23246963D01*
X10150951Y-23342202D02*
X10150951Y-23475535D01*
X10150951Y-23361249D02*
X10160475Y-23351725D01*
X10160475Y-23351725D02*
X10179522Y-23342202D01*
X10179522Y-23342202D02*
X10208094Y-23342202D01*
X10208094Y-23342202D02*
X10227141Y-23351725D01*
X10227141Y-23351725D02*
X10236665Y-23370773D01*
X10236665Y-23370773D02*
X10236665Y-23475535D01*
X10360475Y-23475535D02*
X10341427Y-23466011D01*
X10341427Y-23466011D02*
X10331903Y-23456487D01*
X10331903Y-23456487D02*
X10322379Y-23437440D01*
X10322379Y-23437440D02*
X10322379Y-23380297D01*
X10322379Y-23380297D02*
X10331903Y-23361249D01*
X10331903Y-23361249D02*
X10341427Y-23351725D01*
X10341427Y-23351725D02*
X10360475Y-23342202D01*
X10360475Y-23342202D02*
X10389046Y-23342202D01*
X10389046Y-23342202D02*
X10408094Y-23351725D01*
X10408094Y-23351725D02*
X10417617Y-23361249D01*
X10417617Y-23361249D02*
X10427141Y-23380297D01*
X10427141Y-23380297D02*
X10427141Y-23437440D01*
X10427141Y-23437440D02*
X10417617Y-23456487D01*
X10417617Y-23456487D02*
X10408094Y-23466011D01*
X10408094Y-23466011D02*
X10389046Y-23475535D01*
X10389046Y-23475535D02*
X10360475Y-23475535D01*
X10484284Y-23342202D02*
X10560475Y-23342202D01*
X10512856Y-23275535D02*
X10512856Y-23446963D01*
X10512856Y-23446963D02*
X10522379Y-23466011D01*
X10522379Y-23466011D02*
X10541427Y-23475535D01*
X10541427Y-23475535D02*
X10560475Y-23475535D01*
X10779522Y-23342202D02*
X10779522Y-23542202D01*
X10779522Y-23351725D02*
X10798570Y-23342202D01*
X10798570Y-23342202D02*
X10836665Y-23342202D01*
X10836665Y-23342202D02*
X10855713Y-23351725D01*
X10855713Y-23351725D02*
X10865237Y-23361249D01*
X10865237Y-23361249D02*
X10874760Y-23380297D01*
X10874760Y-23380297D02*
X10874760Y-23437440D01*
X10874760Y-23437440D02*
X10865237Y-23456487D01*
X10865237Y-23456487D02*
X10855713Y-23466011D01*
X10855713Y-23466011D02*
X10836665Y-23475535D01*
X10836665Y-23475535D02*
X10798570Y-23475535D01*
X10798570Y-23475535D02*
X10779522Y-23466011D01*
X10989046Y-23475535D02*
X10969998Y-23466011D01*
X10969998Y-23466011D02*
X10960475Y-23446963D01*
X10960475Y-23446963D02*
X10960475Y-23275535D01*
X11150951Y-23475535D02*
X11150951Y-23370773D01*
X11150951Y-23370773D02*
X11141427Y-23351725D01*
X11141427Y-23351725D02*
X11122379Y-23342202D01*
X11122379Y-23342202D02*
X11084284Y-23342202D01*
X11084284Y-23342202D02*
X11065237Y-23351725D01*
X11150951Y-23466011D02*
X11131903Y-23475535D01*
X11131903Y-23475535D02*
X11084284Y-23475535D01*
X11084284Y-23475535D02*
X11065237Y-23466011D01*
X11065237Y-23466011D02*
X11055713Y-23446963D01*
X11055713Y-23446963D02*
X11055713Y-23427916D01*
X11055713Y-23427916D02*
X11065237Y-23408868D01*
X11065237Y-23408868D02*
X11084284Y-23399344D01*
X11084284Y-23399344D02*
X11131903Y-23399344D01*
X11131903Y-23399344D02*
X11150951Y-23389821D01*
X11217617Y-23342202D02*
X11293808Y-23342202D01*
X11246189Y-23275535D02*
X11246189Y-23446963D01*
X11246189Y-23446963D02*
X11255713Y-23466011D01*
X11255713Y-23466011D02*
X11274760Y-23475535D01*
X11274760Y-23475535D02*
X11293808Y-23475535D01*
X11436665Y-23466011D02*
X11417617Y-23475535D01*
X11417617Y-23475535D02*
X11379522Y-23475535D01*
X11379522Y-23475535D02*
X11360475Y-23466011D01*
X11360475Y-23466011D02*
X11350951Y-23446963D01*
X11350951Y-23446963D02*
X11350951Y-23370773D01*
X11350951Y-23370773D02*
X11360475Y-23351725D01*
X11360475Y-23351725D02*
X11379522Y-23342202D01*
X11379522Y-23342202D02*
X11417617Y-23342202D01*
X11417617Y-23342202D02*
X11436665Y-23351725D01*
X11436665Y-23351725D02*
X11446189Y-23370773D01*
X11446189Y-23370773D02*
X11446189Y-23389821D01*
X11446189Y-23389821D02*
X11350951Y-23408868D01*
X11617617Y-23475535D02*
X11617617Y-23275535D01*
X11617617Y-23466011D02*
X11598570Y-23475535D01*
X11598570Y-23475535D02*
X11560475Y-23475535D01*
X11560475Y-23475535D02*
X11541427Y-23466011D01*
X11541427Y-23466011D02*
X11531903Y-23456487D01*
X11531903Y-23456487D02*
X11522379Y-23437440D01*
X11522379Y-23437440D02*
X11522379Y-23380297D01*
X11522379Y-23380297D02*
X11531903Y-23361249D01*
X11531903Y-23361249D02*
X11541427Y-23351725D01*
X11541427Y-23351725D02*
X11560475Y-23342202D01*
X11560475Y-23342202D02*
X11598570Y-23342202D01*
X11598570Y-23342202D02*
X11617617Y-23351725D01*
X11693808Y-23551725D02*
X11703332Y-23542202D01*
X11703332Y-23542202D02*
X11722379Y-23513630D01*
X11722379Y-23513630D02*
X11731903Y-23494583D01*
X11731903Y-23494583D02*
X11741427Y-23466011D01*
X11741427Y-23466011D02*
X11750951Y-23418392D01*
X11750951Y-23418392D02*
X11750951Y-23380297D01*
X11750951Y-23380297D02*
X11741427Y-23332678D01*
X11741427Y-23332678D02*
X11731903Y-23304106D01*
X11731903Y-23304106D02*
X11722379Y-23285059D01*
X11722379Y-23285059D02*
X11703332Y-23256487D01*
X11703332Y-23256487D02*
X11693808Y-23246963D01*
D14*
X4852703Y-23562961D02*
X4852703Y-23733141D01*
X4767613Y-23648051D02*
X4937793Y-23648051D01*
D12*
X5303331Y-23739535D02*
X5189046Y-23739535D01*
X5246188Y-23739535D02*
X5246188Y-23539535D01*
X5246188Y-23539535D02*
X5227141Y-23568106D01*
X5227141Y-23568106D02*
X5208093Y-23587154D01*
X5208093Y-23587154D02*
X5189046Y-23596678D01*
X5389046Y-23720487D02*
X5398569Y-23730011D01*
X5398569Y-23730011D02*
X5389046Y-23739535D01*
X5389046Y-23739535D02*
X5379522Y-23730011D01*
X5379522Y-23730011D02*
X5389046Y-23720487D01*
X5389046Y-23720487D02*
X5389046Y-23739535D01*
X5465236Y-23539535D02*
X5598569Y-23539535D01*
X5598569Y-23539535D02*
X5512855Y-23739535D01*
X5712855Y-23539535D02*
X5731903Y-23539535D01*
X5731903Y-23539535D02*
X5750950Y-23549059D01*
X5750950Y-23549059D02*
X5760474Y-23558583D01*
X5760474Y-23558583D02*
X5769998Y-23577630D01*
X5769998Y-23577630D02*
X5779522Y-23615725D01*
X5779522Y-23615725D02*
X5779522Y-23663344D01*
X5779522Y-23663344D02*
X5769998Y-23701440D01*
X5769998Y-23701440D02*
X5760474Y-23720487D01*
X5760474Y-23720487D02*
X5750950Y-23730011D01*
X5750950Y-23730011D02*
X5731903Y-23739535D01*
X5731903Y-23739535D02*
X5712855Y-23739535D01*
X5712855Y-23739535D02*
X5693807Y-23730011D01*
X5693807Y-23730011D02*
X5684284Y-23720487D01*
X5684284Y-23720487D02*
X5674760Y-23701440D01*
X5674760Y-23701440D02*
X5665236Y-23663344D01*
X5665236Y-23663344D02*
X5665236Y-23615725D01*
X5665236Y-23615725D02*
X5674760Y-23577630D01*
X5674760Y-23577630D02*
X5684284Y-23558583D01*
X5684284Y-23558583D02*
X5693807Y-23549059D01*
X5693807Y-23549059D02*
X5712855Y-23539535D01*
X5855712Y-23558583D02*
X5865236Y-23549059D01*
X5865236Y-23549059D02*
X5884284Y-23539535D01*
X5884284Y-23539535D02*
X5931903Y-23539535D01*
X5931903Y-23539535D02*
X5950950Y-23549059D01*
X5950950Y-23549059D02*
X5960474Y-23558583D01*
X5960474Y-23558583D02*
X5969998Y-23577630D01*
X5969998Y-23577630D02*
X5969998Y-23596678D01*
X5969998Y-23596678D02*
X5960474Y-23625249D01*
X5960474Y-23625249D02*
X5846188Y-23739535D01*
X5846188Y-23739535D02*
X5969998Y-23739535D01*
X6055712Y-23739535D02*
X6055712Y-23606202D01*
X6055712Y-23625249D02*
X6065236Y-23615725D01*
X6065236Y-23615725D02*
X6084284Y-23606202D01*
X6084284Y-23606202D02*
X6112855Y-23606202D01*
X6112855Y-23606202D02*
X6131903Y-23615725D01*
X6131903Y-23615725D02*
X6141426Y-23634773D01*
X6141426Y-23634773D02*
X6141426Y-23739535D01*
X6141426Y-23634773D02*
X6150950Y-23615725D01*
X6150950Y-23615725D02*
X6169998Y-23606202D01*
X6169998Y-23606202D02*
X6198569Y-23606202D01*
X6198569Y-23606202D02*
X6217617Y-23615725D01*
X6217617Y-23615725D02*
X6227141Y-23634773D01*
X6227141Y-23634773D02*
X6227141Y-23739535D01*
X6322379Y-23739535D02*
X6322379Y-23606202D01*
X6322379Y-23625249D02*
X6331903Y-23615725D01*
X6331903Y-23615725D02*
X6350950Y-23606202D01*
X6350950Y-23606202D02*
X6379522Y-23606202D01*
X6379522Y-23606202D02*
X6398569Y-23615725D01*
X6398569Y-23615725D02*
X6408093Y-23634773D01*
X6408093Y-23634773D02*
X6408093Y-23739535D01*
X6408093Y-23634773D02*
X6417617Y-23615725D01*
X6417617Y-23615725D02*
X6436665Y-23606202D01*
X6436665Y-23606202D02*
X6465236Y-23606202D01*
X6465236Y-23606202D02*
X6484284Y-23615725D01*
X6484284Y-23615725D02*
X6493807Y-23634773D01*
X6493807Y-23634773D02*
X6493807Y-23739535D01*
X6884284Y-23530011D02*
X6712855Y-23787154D01*
X7141427Y-23539535D02*
X7160474Y-23539535D01*
X7160474Y-23539535D02*
X7179522Y-23549059D01*
X7179522Y-23549059D02*
X7189046Y-23558583D01*
X7189046Y-23558583D02*
X7198569Y-23577630D01*
X7198569Y-23577630D02*
X7208093Y-23615725D01*
X7208093Y-23615725D02*
X7208093Y-23663344D01*
X7208093Y-23663344D02*
X7198569Y-23701440D01*
X7198569Y-23701440D02*
X7189046Y-23720487D01*
X7189046Y-23720487D02*
X7179522Y-23730011D01*
X7179522Y-23730011D02*
X7160474Y-23739535D01*
X7160474Y-23739535D02*
X7141427Y-23739535D01*
X7141427Y-23739535D02*
X7122379Y-23730011D01*
X7122379Y-23730011D02*
X7112855Y-23720487D01*
X7112855Y-23720487D02*
X7103331Y-23701440D01*
X7103331Y-23701440D02*
X7093808Y-23663344D01*
X7093808Y-23663344D02*
X7093808Y-23615725D01*
X7093808Y-23615725D02*
X7103331Y-23577630D01*
X7103331Y-23577630D02*
X7112855Y-23558583D01*
X7112855Y-23558583D02*
X7122379Y-23549059D01*
X7122379Y-23549059D02*
X7141427Y-23539535D01*
X7293808Y-23720487D02*
X7303331Y-23730011D01*
X7303331Y-23730011D02*
X7293808Y-23739535D01*
X7293808Y-23739535D02*
X7284284Y-23730011D01*
X7284284Y-23730011D02*
X7293808Y-23720487D01*
X7293808Y-23720487D02*
X7293808Y-23739535D01*
X7427141Y-23539535D02*
X7446189Y-23539535D01*
X7446189Y-23539535D02*
X7465236Y-23549059D01*
X7465236Y-23549059D02*
X7474760Y-23558583D01*
X7474760Y-23558583D02*
X7484284Y-23577630D01*
X7484284Y-23577630D02*
X7493808Y-23615725D01*
X7493808Y-23615725D02*
X7493808Y-23663344D01*
X7493808Y-23663344D02*
X7484284Y-23701440D01*
X7484284Y-23701440D02*
X7474760Y-23720487D01*
X7474760Y-23720487D02*
X7465236Y-23730011D01*
X7465236Y-23730011D02*
X7446189Y-23739535D01*
X7446189Y-23739535D02*
X7427141Y-23739535D01*
X7427141Y-23739535D02*
X7408093Y-23730011D01*
X7408093Y-23730011D02*
X7398569Y-23720487D01*
X7398569Y-23720487D02*
X7389046Y-23701440D01*
X7389046Y-23701440D02*
X7379522Y-23663344D01*
X7379522Y-23663344D02*
X7379522Y-23615725D01*
X7379522Y-23615725D02*
X7389046Y-23577630D01*
X7389046Y-23577630D02*
X7398569Y-23558583D01*
X7398569Y-23558583D02*
X7408093Y-23549059D01*
X7408093Y-23549059D02*
X7427141Y-23539535D01*
X7665236Y-23539535D02*
X7627141Y-23539535D01*
X7627141Y-23539535D02*
X7608093Y-23549059D01*
X7608093Y-23549059D02*
X7598569Y-23558583D01*
X7598569Y-23558583D02*
X7579522Y-23587154D01*
X7579522Y-23587154D02*
X7569998Y-23625249D01*
X7569998Y-23625249D02*
X7569998Y-23701440D01*
X7569998Y-23701440D02*
X7579522Y-23720487D01*
X7579522Y-23720487D02*
X7589046Y-23730011D01*
X7589046Y-23730011D02*
X7608093Y-23739535D01*
X7608093Y-23739535D02*
X7646189Y-23739535D01*
X7646189Y-23739535D02*
X7665236Y-23730011D01*
X7665236Y-23730011D02*
X7674760Y-23720487D01*
X7674760Y-23720487D02*
X7684284Y-23701440D01*
X7684284Y-23701440D02*
X7684284Y-23653821D01*
X7684284Y-23653821D02*
X7674760Y-23634773D01*
X7674760Y-23634773D02*
X7665236Y-23625249D01*
X7665236Y-23625249D02*
X7646189Y-23615725D01*
X7646189Y-23615725D02*
X7608093Y-23615725D01*
X7608093Y-23615725D02*
X7589046Y-23625249D01*
X7589046Y-23625249D02*
X7579522Y-23634773D01*
X7579522Y-23634773D02*
X7569998Y-23653821D01*
X7750950Y-23539535D02*
X7884284Y-23539535D01*
X7884284Y-23539535D02*
X7798569Y-23739535D01*
X7998569Y-23539535D02*
X8017617Y-23539535D01*
X8017617Y-23539535D02*
X8036665Y-23549059D01*
X8036665Y-23549059D02*
X8046189Y-23558583D01*
X8046189Y-23558583D02*
X8055712Y-23577630D01*
X8055712Y-23577630D02*
X8065236Y-23615725D01*
X8065236Y-23615725D02*
X8065236Y-23663344D01*
X8065236Y-23663344D02*
X8055712Y-23701440D01*
X8055712Y-23701440D02*
X8046189Y-23720487D01*
X8046189Y-23720487D02*
X8036665Y-23730011D01*
X8036665Y-23730011D02*
X8017617Y-23739535D01*
X8017617Y-23739535D02*
X7998569Y-23739535D01*
X7998569Y-23739535D02*
X7979522Y-23730011D01*
X7979522Y-23730011D02*
X7969998Y-23720487D01*
X7969998Y-23720487D02*
X7960474Y-23701440D01*
X7960474Y-23701440D02*
X7950950Y-23663344D01*
X7950950Y-23663344D02*
X7950950Y-23615725D01*
X7950950Y-23615725D02*
X7960474Y-23577630D01*
X7960474Y-23577630D02*
X7969998Y-23558583D01*
X7969998Y-23558583D02*
X7979522Y-23549059D01*
X7979522Y-23549059D02*
X7998569Y-23539535D01*
X8141427Y-23539535D02*
X8141427Y-23577630D01*
X8217617Y-23539535D02*
X8217617Y-23577630D01*
X8512855Y-23815725D02*
X8503332Y-23806202D01*
X8503332Y-23806202D02*
X8484284Y-23777630D01*
X8484284Y-23777630D02*
X8474760Y-23758583D01*
X8474760Y-23758583D02*
X8465236Y-23730011D01*
X8465236Y-23730011D02*
X8455713Y-23682392D01*
X8455713Y-23682392D02*
X8455713Y-23644297D01*
X8455713Y-23644297D02*
X8465236Y-23596678D01*
X8465236Y-23596678D02*
X8474760Y-23568106D01*
X8474760Y-23568106D02*
X8484284Y-23549059D01*
X8484284Y-23549059D02*
X8503332Y-23520487D01*
X8503332Y-23520487D02*
X8512855Y-23510963D01*
X8674760Y-23606202D02*
X8674760Y-23739535D01*
X8627141Y-23530011D02*
X8579522Y-23672868D01*
X8579522Y-23672868D02*
X8703332Y-23672868D01*
X8817617Y-23539535D02*
X8836665Y-23539535D01*
X8836665Y-23539535D02*
X8855713Y-23549059D01*
X8855713Y-23549059D02*
X8865236Y-23558583D01*
X8865236Y-23558583D02*
X8874760Y-23577630D01*
X8874760Y-23577630D02*
X8884284Y-23615725D01*
X8884284Y-23615725D02*
X8884284Y-23663344D01*
X8884284Y-23663344D02*
X8874760Y-23701440D01*
X8874760Y-23701440D02*
X8865236Y-23720487D01*
X8865236Y-23720487D02*
X8855713Y-23730011D01*
X8855713Y-23730011D02*
X8836665Y-23739535D01*
X8836665Y-23739535D02*
X8817617Y-23739535D01*
X8817617Y-23739535D02*
X8798570Y-23730011D01*
X8798570Y-23730011D02*
X8789046Y-23720487D01*
X8789046Y-23720487D02*
X8779522Y-23701440D01*
X8779522Y-23701440D02*
X8769998Y-23663344D01*
X8769998Y-23663344D02*
X8769998Y-23615725D01*
X8769998Y-23615725D02*
X8779522Y-23577630D01*
X8779522Y-23577630D02*
X8789046Y-23558583D01*
X8789046Y-23558583D02*
X8798570Y-23549059D01*
X8798570Y-23549059D02*
X8817617Y-23539535D01*
X9122379Y-23739535D02*
X9122379Y-23539535D01*
X9208094Y-23739535D02*
X9208094Y-23634773D01*
X9208094Y-23634773D02*
X9198570Y-23615725D01*
X9198570Y-23615725D02*
X9179522Y-23606202D01*
X9179522Y-23606202D02*
X9150951Y-23606202D01*
X9150951Y-23606202D02*
X9131903Y-23615725D01*
X9131903Y-23615725D02*
X9122379Y-23625249D01*
X9331903Y-23739535D02*
X9312855Y-23730011D01*
X9312855Y-23730011D02*
X9303332Y-23720487D01*
X9303332Y-23720487D02*
X9293808Y-23701440D01*
X9293808Y-23701440D02*
X9293808Y-23644297D01*
X9293808Y-23644297D02*
X9303332Y-23625249D01*
X9303332Y-23625249D02*
X9312855Y-23615725D01*
X9312855Y-23615725D02*
X9331903Y-23606202D01*
X9331903Y-23606202D02*
X9360475Y-23606202D01*
X9360475Y-23606202D02*
X9379522Y-23615725D01*
X9379522Y-23615725D02*
X9389046Y-23625249D01*
X9389046Y-23625249D02*
X9398570Y-23644297D01*
X9398570Y-23644297D02*
X9398570Y-23701440D01*
X9398570Y-23701440D02*
X9389046Y-23720487D01*
X9389046Y-23720487D02*
X9379522Y-23730011D01*
X9379522Y-23730011D02*
X9360475Y-23739535D01*
X9360475Y-23739535D02*
X9331903Y-23739535D01*
X9512855Y-23739535D02*
X9493808Y-23730011D01*
X9493808Y-23730011D02*
X9484284Y-23710963D01*
X9484284Y-23710963D02*
X9484284Y-23539535D01*
X9665236Y-23730011D02*
X9646189Y-23739535D01*
X9646189Y-23739535D02*
X9608094Y-23739535D01*
X9608094Y-23739535D02*
X9589046Y-23730011D01*
X9589046Y-23730011D02*
X9579522Y-23710963D01*
X9579522Y-23710963D02*
X9579522Y-23634773D01*
X9579522Y-23634773D02*
X9589046Y-23615725D01*
X9589046Y-23615725D02*
X9608094Y-23606202D01*
X9608094Y-23606202D02*
X9646189Y-23606202D01*
X9646189Y-23606202D02*
X9665236Y-23615725D01*
X9665236Y-23615725D02*
X9674760Y-23634773D01*
X9674760Y-23634773D02*
X9674760Y-23653821D01*
X9674760Y-23653821D02*
X9579522Y-23672868D01*
X9750951Y-23730011D02*
X9769998Y-23739535D01*
X9769998Y-23739535D02*
X9808094Y-23739535D01*
X9808094Y-23739535D02*
X9827141Y-23730011D01*
X9827141Y-23730011D02*
X9836665Y-23710963D01*
X9836665Y-23710963D02*
X9836665Y-23701440D01*
X9836665Y-23701440D02*
X9827141Y-23682392D01*
X9827141Y-23682392D02*
X9808094Y-23672868D01*
X9808094Y-23672868D02*
X9779522Y-23672868D01*
X9779522Y-23672868D02*
X9760475Y-23663344D01*
X9760475Y-23663344D02*
X9750951Y-23644297D01*
X9750951Y-23644297D02*
X9750951Y-23634773D01*
X9750951Y-23634773D02*
X9760475Y-23615725D01*
X9760475Y-23615725D02*
X9779522Y-23606202D01*
X9779522Y-23606202D02*
X9808094Y-23606202D01*
X9808094Y-23606202D02*
X9827141Y-23615725D01*
X9903332Y-23815725D02*
X9912856Y-23806202D01*
X9912856Y-23806202D02*
X9931903Y-23777630D01*
X9931903Y-23777630D02*
X9941427Y-23758583D01*
X9941427Y-23758583D02*
X9950951Y-23730011D01*
X9950951Y-23730011D02*
X9960475Y-23682392D01*
X9960475Y-23682392D02*
X9960475Y-23644297D01*
X9960475Y-23644297D02*
X9950951Y-23596678D01*
X9950951Y-23596678D02*
X9941427Y-23568106D01*
X9941427Y-23568106D02*
X9931903Y-23549059D01*
X9931903Y-23549059D02*
X9912856Y-23520487D01*
X9912856Y-23520487D02*
X9903332Y-23510963D01*
X10265237Y-23815725D02*
X10255713Y-23806202D01*
X10255713Y-23806202D02*
X10236665Y-23777630D01*
X10236665Y-23777630D02*
X10227141Y-23758583D01*
X10227141Y-23758583D02*
X10217617Y-23730011D01*
X10217617Y-23730011D02*
X10208094Y-23682392D01*
X10208094Y-23682392D02*
X10208094Y-23644297D01*
X10208094Y-23644297D02*
X10217617Y-23596678D01*
X10217617Y-23596678D02*
X10227141Y-23568106D01*
X10227141Y-23568106D02*
X10236665Y-23549059D01*
X10236665Y-23549059D02*
X10255713Y-23520487D01*
X10255713Y-23520487D02*
X10265237Y-23510963D01*
X10341427Y-23606202D02*
X10341427Y-23739535D01*
X10341427Y-23625249D02*
X10350951Y-23615725D01*
X10350951Y-23615725D02*
X10369998Y-23606202D01*
X10369998Y-23606202D02*
X10398570Y-23606202D01*
X10398570Y-23606202D02*
X10417617Y-23615725D01*
X10417617Y-23615725D02*
X10427141Y-23634773D01*
X10427141Y-23634773D02*
X10427141Y-23739535D01*
X10550951Y-23739535D02*
X10531903Y-23730011D01*
X10531903Y-23730011D02*
X10522379Y-23720487D01*
X10522379Y-23720487D02*
X10512856Y-23701440D01*
X10512856Y-23701440D02*
X10512856Y-23644297D01*
X10512856Y-23644297D02*
X10522379Y-23625249D01*
X10522379Y-23625249D02*
X10531903Y-23615725D01*
X10531903Y-23615725D02*
X10550951Y-23606202D01*
X10550951Y-23606202D02*
X10579522Y-23606202D01*
X10579522Y-23606202D02*
X10598570Y-23615725D01*
X10598570Y-23615725D02*
X10608094Y-23625249D01*
X10608094Y-23625249D02*
X10617617Y-23644297D01*
X10617617Y-23644297D02*
X10617617Y-23701440D01*
X10617617Y-23701440D02*
X10608094Y-23720487D01*
X10608094Y-23720487D02*
X10598570Y-23730011D01*
X10598570Y-23730011D02*
X10579522Y-23739535D01*
X10579522Y-23739535D02*
X10550951Y-23739535D01*
X10674760Y-23606202D02*
X10750951Y-23606202D01*
X10703332Y-23539535D02*
X10703332Y-23710963D01*
X10703332Y-23710963D02*
X10712856Y-23730011D01*
X10712856Y-23730011D02*
X10731903Y-23739535D01*
X10731903Y-23739535D02*
X10750951Y-23739535D01*
X10969998Y-23606202D02*
X10969998Y-23806202D01*
X10969998Y-23615725D02*
X10989046Y-23606202D01*
X10989046Y-23606202D02*
X11027141Y-23606202D01*
X11027141Y-23606202D02*
X11046189Y-23615725D01*
X11046189Y-23615725D02*
X11055713Y-23625249D01*
X11055713Y-23625249D02*
X11065237Y-23644297D01*
X11065237Y-23644297D02*
X11065237Y-23701440D01*
X11065237Y-23701440D02*
X11055713Y-23720487D01*
X11055713Y-23720487D02*
X11046189Y-23730011D01*
X11046189Y-23730011D02*
X11027141Y-23739535D01*
X11027141Y-23739535D02*
X10989046Y-23739535D01*
X10989046Y-23739535D02*
X10969998Y-23730011D01*
X11179522Y-23739535D02*
X11160475Y-23730011D01*
X11160475Y-23730011D02*
X11150951Y-23710963D01*
X11150951Y-23710963D02*
X11150951Y-23539535D01*
X11341427Y-23739535D02*
X11341427Y-23634773D01*
X11341427Y-23634773D02*
X11331903Y-23615725D01*
X11331903Y-23615725D02*
X11312856Y-23606202D01*
X11312856Y-23606202D02*
X11274760Y-23606202D01*
X11274760Y-23606202D02*
X11255713Y-23615725D01*
X11341427Y-23730011D02*
X11322379Y-23739535D01*
X11322379Y-23739535D02*
X11274760Y-23739535D01*
X11274760Y-23739535D02*
X11255713Y-23730011D01*
X11255713Y-23730011D02*
X11246189Y-23710963D01*
X11246189Y-23710963D02*
X11246189Y-23691916D01*
X11246189Y-23691916D02*
X11255713Y-23672868D01*
X11255713Y-23672868D02*
X11274760Y-23663344D01*
X11274760Y-23663344D02*
X11322379Y-23663344D01*
X11322379Y-23663344D02*
X11341427Y-23653821D01*
X11408094Y-23606202D02*
X11484284Y-23606202D01*
X11436665Y-23539535D02*
X11436665Y-23710963D01*
X11436665Y-23710963D02*
X11446189Y-23730011D01*
X11446189Y-23730011D02*
X11465236Y-23739535D01*
X11465236Y-23739535D02*
X11484284Y-23739535D01*
X11627141Y-23730011D02*
X11608094Y-23739535D01*
X11608094Y-23739535D02*
X11569998Y-23739535D01*
X11569998Y-23739535D02*
X11550951Y-23730011D01*
X11550951Y-23730011D02*
X11541427Y-23710963D01*
X11541427Y-23710963D02*
X11541427Y-23634773D01*
X11541427Y-23634773D02*
X11550951Y-23615725D01*
X11550951Y-23615725D02*
X11569998Y-23606202D01*
X11569998Y-23606202D02*
X11608094Y-23606202D01*
X11608094Y-23606202D02*
X11627141Y-23615725D01*
X11627141Y-23615725D02*
X11636665Y-23634773D01*
X11636665Y-23634773D02*
X11636665Y-23653821D01*
X11636665Y-23653821D02*
X11541427Y-23672868D01*
X11808094Y-23739535D02*
X11808094Y-23539535D01*
X11808094Y-23730011D02*
X11789046Y-23739535D01*
X11789046Y-23739535D02*
X11750951Y-23739535D01*
X11750951Y-23739535D02*
X11731903Y-23730011D01*
X11731903Y-23730011D02*
X11722379Y-23720487D01*
X11722379Y-23720487D02*
X11712856Y-23701440D01*
X11712856Y-23701440D02*
X11712856Y-23644297D01*
X11712856Y-23644297D02*
X11722379Y-23625249D01*
X11722379Y-23625249D02*
X11731903Y-23615725D01*
X11731903Y-23615725D02*
X11750951Y-23606202D01*
X11750951Y-23606202D02*
X11789046Y-23606202D01*
X11789046Y-23606202D02*
X11808094Y-23615725D01*
X11884284Y-23815725D02*
X11893808Y-23806202D01*
X11893808Y-23806202D02*
X11912856Y-23777630D01*
X11912856Y-23777630D02*
X11922379Y-23758583D01*
X11922379Y-23758583D02*
X11931903Y-23730011D01*
X11931903Y-23730011D02*
X11941427Y-23682392D01*
X11941427Y-23682392D02*
X11941427Y-23644297D01*
X11941427Y-23644297D02*
X11931903Y-23596678D01*
X11931903Y-23596678D02*
X11922379Y-23568106D01*
X11922379Y-23568106D02*
X11912856Y-23549059D01*
X11912856Y-23549059D02*
X11893808Y-23520487D01*
X11893808Y-23520487D02*
X11884284Y-23510963D01*
X4908504Y-24008943D02*
X4908504Y-23867520D01*
X4767081Y-23867520D01*
X4767081Y-24008943D01*
X4908504Y-24008943D01*
X5179522Y-23829715D02*
X5303331Y-23829715D01*
X5303331Y-23829715D02*
X5236665Y-23905905D01*
X5236665Y-23905905D02*
X5265236Y-23905905D01*
X5265236Y-23905905D02*
X5284284Y-23915429D01*
X5284284Y-23915429D02*
X5293807Y-23924953D01*
X5293807Y-23924953D02*
X5303331Y-23944001D01*
X5303331Y-23944001D02*
X5303331Y-23991620D01*
X5303331Y-23991620D02*
X5293807Y-24010667D01*
X5293807Y-24010667D02*
X5284284Y-24020191D01*
X5284284Y-24020191D02*
X5265236Y-24029715D01*
X5265236Y-24029715D02*
X5208093Y-24029715D01*
X5208093Y-24029715D02*
X5189046Y-24020191D01*
X5189046Y-24020191D02*
X5179522Y-24010667D01*
X5389046Y-24010667D02*
X5398569Y-24020191D01*
X5398569Y-24020191D02*
X5389046Y-24029715D01*
X5389046Y-24029715D02*
X5379522Y-24020191D01*
X5379522Y-24020191D02*
X5389046Y-24010667D01*
X5389046Y-24010667D02*
X5389046Y-24029715D01*
X5522379Y-23829715D02*
X5541427Y-23829715D01*
X5541427Y-23829715D02*
X5560474Y-23839239D01*
X5560474Y-23839239D02*
X5569998Y-23848763D01*
X5569998Y-23848763D02*
X5579522Y-23867810D01*
X5579522Y-23867810D02*
X5589046Y-23905905D01*
X5589046Y-23905905D02*
X5589046Y-23953524D01*
X5589046Y-23953524D02*
X5579522Y-23991620D01*
X5579522Y-23991620D02*
X5569998Y-24010667D01*
X5569998Y-24010667D02*
X5560474Y-24020191D01*
X5560474Y-24020191D02*
X5541427Y-24029715D01*
X5541427Y-24029715D02*
X5522379Y-24029715D01*
X5522379Y-24029715D02*
X5503331Y-24020191D01*
X5503331Y-24020191D02*
X5493807Y-24010667D01*
X5493807Y-24010667D02*
X5484284Y-23991620D01*
X5484284Y-23991620D02*
X5474760Y-23953524D01*
X5474760Y-23953524D02*
X5474760Y-23905905D01*
X5474760Y-23905905D02*
X5484284Y-23867810D01*
X5484284Y-23867810D02*
X5493807Y-23848763D01*
X5493807Y-23848763D02*
X5503331Y-23839239D01*
X5503331Y-23839239D02*
X5522379Y-23829715D01*
X5712855Y-23829715D02*
X5731903Y-23829715D01*
X5731903Y-23829715D02*
X5750950Y-23839239D01*
X5750950Y-23839239D02*
X5760474Y-23848763D01*
X5760474Y-23848763D02*
X5769998Y-23867810D01*
X5769998Y-23867810D02*
X5779522Y-23905905D01*
X5779522Y-23905905D02*
X5779522Y-23953524D01*
X5779522Y-23953524D02*
X5769998Y-23991620D01*
X5769998Y-23991620D02*
X5760474Y-24010667D01*
X5760474Y-24010667D02*
X5750950Y-24020191D01*
X5750950Y-24020191D02*
X5731903Y-24029715D01*
X5731903Y-24029715D02*
X5712855Y-24029715D01*
X5712855Y-24029715D02*
X5693807Y-24020191D01*
X5693807Y-24020191D02*
X5684284Y-24010667D01*
X5684284Y-24010667D02*
X5674760Y-23991620D01*
X5674760Y-23991620D02*
X5665236Y-23953524D01*
X5665236Y-23953524D02*
X5665236Y-23905905D01*
X5665236Y-23905905D02*
X5674760Y-23867810D01*
X5674760Y-23867810D02*
X5684284Y-23848763D01*
X5684284Y-23848763D02*
X5693807Y-23839239D01*
X5693807Y-23839239D02*
X5712855Y-23829715D01*
X5903331Y-23829715D02*
X5922379Y-23829715D01*
X5922379Y-23829715D02*
X5941426Y-23839239D01*
X5941426Y-23839239D02*
X5950950Y-23848763D01*
X5950950Y-23848763D02*
X5960474Y-23867810D01*
X5960474Y-23867810D02*
X5969998Y-23905905D01*
X5969998Y-23905905D02*
X5969998Y-23953524D01*
X5969998Y-23953524D02*
X5960474Y-23991620D01*
X5960474Y-23991620D02*
X5950950Y-24010667D01*
X5950950Y-24010667D02*
X5941426Y-24020191D01*
X5941426Y-24020191D02*
X5922379Y-24029715D01*
X5922379Y-24029715D02*
X5903331Y-24029715D01*
X5903331Y-24029715D02*
X5884284Y-24020191D01*
X5884284Y-24020191D02*
X5874760Y-24010667D01*
X5874760Y-24010667D02*
X5865236Y-23991620D01*
X5865236Y-23991620D02*
X5855712Y-23953524D01*
X5855712Y-23953524D02*
X5855712Y-23905905D01*
X5855712Y-23905905D02*
X5865236Y-23867810D01*
X5865236Y-23867810D02*
X5874760Y-23848763D01*
X5874760Y-23848763D02*
X5884284Y-23839239D01*
X5884284Y-23839239D02*
X5903331Y-23829715D01*
X6055712Y-24029715D02*
X6055712Y-23896382D01*
X6055712Y-23915429D02*
X6065236Y-23905905D01*
X6065236Y-23905905D02*
X6084284Y-23896382D01*
X6084284Y-23896382D02*
X6112855Y-23896382D01*
X6112855Y-23896382D02*
X6131903Y-23905905D01*
X6131903Y-23905905D02*
X6141426Y-23924953D01*
X6141426Y-23924953D02*
X6141426Y-24029715D01*
X6141426Y-23924953D02*
X6150950Y-23905905D01*
X6150950Y-23905905D02*
X6169998Y-23896382D01*
X6169998Y-23896382D02*
X6198569Y-23896382D01*
X6198569Y-23896382D02*
X6217617Y-23905905D01*
X6217617Y-23905905D02*
X6227141Y-23924953D01*
X6227141Y-23924953D02*
X6227141Y-24029715D01*
X6322379Y-24029715D02*
X6322379Y-23896382D01*
X6322379Y-23915429D02*
X6331903Y-23905905D01*
X6331903Y-23905905D02*
X6350950Y-23896382D01*
X6350950Y-23896382D02*
X6379522Y-23896382D01*
X6379522Y-23896382D02*
X6398569Y-23905905D01*
X6398569Y-23905905D02*
X6408093Y-23924953D01*
X6408093Y-23924953D02*
X6408093Y-24029715D01*
X6408093Y-23924953D02*
X6417617Y-23905905D01*
X6417617Y-23905905D02*
X6436665Y-23896382D01*
X6436665Y-23896382D02*
X6465236Y-23896382D01*
X6465236Y-23896382D02*
X6484284Y-23905905D01*
X6484284Y-23905905D02*
X6493807Y-23924953D01*
X6493807Y-23924953D02*
X6493807Y-24029715D01*
X6884284Y-23820191D02*
X6712855Y-24077334D01*
X7141427Y-23829715D02*
X7160474Y-23829715D01*
X7160474Y-23829715D02*
X7179522Y-23839239D01*
X7179522Y-23839239D02*
X7189046Y-23848763D01*
X7189046Y-23848763D02*
X7198569Y-23867810D01*
X7198569Y-23867810D02*
X7208093Y-23905905D01*
X7208093Y-23905905D02*
X7208093Y-23953524D01*
X7208093Y-23953524D02*
X7198569Y-23991620D01*
X7198569Y-23991620D02*
X7189046Y-24010667D01*
X7189046Y-24010667D02*
X7179522Y-24020191D01*
X7179522Y-24020191D02*
X7160474Y-24029715D01*
X7160474Y-24029715D02*
X7141427Y-24029715D01*
X7141427Y-24029715D02*
X7122379Y-24020191D01*
X7122379Y-24020191D02*
X7112855Y-24010667D01*
X7112855Y-24010667D02*
X7103331Y-23991620D01*
X7103331Y-23991620D02*
X7093808Y-23953524D01*
X7093808Y-23953524D02*
X7093808Y-23905905D01*
X7093808Y-23905905D02*
X7103331Y-23867810D01*
X7103331Y-23867810D02*
X7112855Y-23848763D01*
X7112855Y-23848763D02*
X7122379Y-23839239D01*
X7122379Y-23839239D02*
X7141427Y-23829715D01*
X7293808Y-24010667D02*
X7303331Y-24020191D01*
X7303331Y-24020191D02*
X7293808Y-24029715D01*
X7293808Y-24029715D02*
X7284284Y-24020191D01*
X7284284Y-24020191D02*
X7293808Y-24010667D01*
X7293808Y-24010667D02*
X7293808Y-24029715D01*
X7493808Y-24029715D02*
X7379522Y-24029715D01*
X7436665Y-24029715D02*
X7436665Y-23829715D01*
X7436665Y-23829715D02*
X7417617Y-23858286D01*
X7417617Y-23858286D02*
X7398569Y-23877334D01*
X7398569Y-23877334D02*
X7379522Y-23886858D01*
X7684284Y-24029715D02*
X7569998Y-24029715D01*
X7627141Y-24029715D02*
X7627141Y-23829715D01*
X7627141Y-23829715D02*
X7608093Y-23858286D01*
X7608093Y-23858286D02*
X7589046Y-23877334D01*
X7589046Y-23877334D02*
X7569998Y-23886858D01*
X7798569Y-23915429D02*
X7779522Y-23905905D01*
X7779522Y-23905905D02*
X7769998Y-23896382D01*
X7769998Y-23896382D02*
X7760474Y-23877334D01*
X7760474Y-23877334D02*
X7760474Y-23867810D01*
X7760474Y-23867810D02*
X7769998Y-23848763D01*
X7769998Y-23848763D02*
X7779522Y-23839239D01*
X7779522Y-23839239D02*
X7798569Y-23829715D01*
X7798569Y-23829715D02*
X7836665Y-23829715D01*
X7836665Y-23829715D02*
X7855712Y-23839239D01*
X7855712Y-23839239D02*
X7865236Y-23848763D01*
X7865236Y-23848763D02*
X7874760Y-23867810D01*
X7874760Y-23867810D02*
X7874760Y-23877334D01*
X7874760Y-23877334D02*
X7865236Y-23896382D01*
X7865236Y-23896382D02*
X7855712Y-23905905D01*
X7855712Y-23905905D02*
X7836665Y-23915429D01*
X7836665Y-23915429D02*
X7798569Y-23915429D01*
X7798569Y-23915429D02*
X7779522Y-23924953D01*
X7779522Y-23924953D02*
X7769998Y-23934477D01*
X7769998Y-23934477D02*
X7760474Y-23953524D01*
X7760474Y-23953524D02*
X7760474Y-23991620D01*
X7760474Y-23991620D02*
X7769998Y-24010667D01*
X7769998Y-24010667D02*
X7779522Y-24020191D01*
X7779522Y-24020191D02*
X7798569Y-24029715D01*
X7798569Y-24029715D02*
X7836665Y-24029715D01*
X7836665Y-24029715D02*
X7855712Y-24020191D01*
X7855712Y-24020191D02*
X7865236Y-24010667D01*
X7865236Y-24010667D02*
X7874760Y-23991620D01*
X7874760Y-23991620D02*
X7874760Y-23953524D01*
X7874760Y-23953524D02*
X7865236Y-23934477D01*
X7865236Y-23934477D02*
X7855712Y-23924953D01*
X7855712Y-23924953D02*
X7836665Y-23915429D01*
X8065236Y-24029715D02*
X7950950Y-24029715D01*
X8008093Y-24029715D02*
X8008093Y-23829715D01*
X8008093Y-23829715D02*
X7989046Y-23858286D01*
X7989046Y-23858286D02*
X7969998Y-23877334D01*
X7969998Y-23877334D02*
X7950950Y-23886858D01*
X8141427Y-23829715D02*
X8141427Y-23867810D01*
X8217617Y-23829715D02*
X8217617Y-23867810D01*
X8512855Y-24105905D02*
X8503332Y-24096382D01*
X8503332Y-24096382D02*
X8484284Y-24067810D01*
X8484284Y-24067810D02*
X8474760Y-24048763D01*
X8474760Y-24048763D02*
X8465236Y-24020191D01*
X8465236Y-24020191D02*
X8455713Y-23972572D01*
X8455713Y-23972572D02*
X8455713Y-23934477D01*
X8455713Y-23934477D02*
X8465236Y-23886858D01*
X8465236Y-23886858D02*
X8474760Y-23858286D01*
X8474760Y-23858286D02*
X8484284Y-23839239D01*
X8484284Y-23839239D02*
X8503332Y-23810667D01*
X8503332Y-23810667D02*
X8512855Y-23801143D01*
X8674760Y-23896382D02*
X8674760Y-24029715D01*
X8627141Y-23820191D02*
X8579522Y-23963048D01*
X8579522Y-23963048D02*
X8703332Y-23963048D01*
X8817617Y-23829715D02*
X8836665Y-23829715D01*
X8836665Y-23829715D02*
X8855713Y-23839239D01*
X8855713Y-23839239D02*
X8865236Y-23848763D01*
X8865236Y-23848763D02*
X8874760Y-23867810D01*
X8874760Y-23867810D02*
X8884284Y-23905905D01*
X8884284Y-23905905D02*
X8884284Y-23953524D01*
X8884284Y-23953524D02*
X8874760Y-23991620D01*
X8874760Y-23991620D02*
X8865236Y-24010667D01*
X8865236Y-24010667D02*
X8855713Y-24020191D01*
X8855713Y-24020191D02*
X8836665Y-24029715D01*
X8836665Y-24029715D02*
X8817617Y-24029715D01*
X8817617Y-24029715D02*
X8798570Y-24020191D01*
X8798570Y-24020191D02*
X8789046Y-24010667D01*
X8789046Y-24010667D02*
X8779522Y-23991620D01*
X8779522Y-23991620D02*
X8769998Y-23953524D01*
X8769998Y-23953524D02*
X8769998Y-23905905D01*
X8769998Y-23905905D02*
X8779522Y-23867810D01*
X8779522Y-23867810D02*
X8789046Y-23848763D01*
X8789046Y-23848763D02*
X8798570Y-23839239D01*
X8798570Y-23839239D02*
X8817617Y-23829715D01*
X9122379Y-24029715D02*
X9122379Y-23829715D01*
X9208094Y-24029715D02*
X9208094Y-23924953D01*
X9208094Y-23924953D02*
X9198570Y-23905905D01*
X9198570Y-23905905D02*
X9179522Y-23896382D01*
X9179522Y-23896382D02*
X9150951Y-23896382D01*
X9150951Y-23896382D02*
X9131903Y-23905905D01*
X9131903Y-23905905D02*
X9122379Y-23915429D01*
X9331903Y-24029715D02*
X9312855Y-24020191D01*
X9312855Y-24020191D02*
X9303332Y-24010667D01*
X9303332Y-24010667D02*
X9293808Y-23991620D01*
X9293808Y-23991620D02*
X9293808Y-23934477D01*
X9293808Y-23934477D02*
X9303332Y-23915429D01*
X9303332Y-23915429D02*
X9312855Y-23905905D01*
X9312855Y-23905905D02*
X9331903Y-23896382D01*
X9331903Y-23896382D02*
X9360475Y-23896382D01*
X9360475Y-23896382D02*
X9379522Y-23905905D01*
X9379522Y-23905905D02*
X9389046Y-23915429D01*
X9389046Y-23915429D02*
X9398570Y-23934477D01*
X9398570Y-23934477D02*
X9398570Y-23991620D01*
X9398570Y-23991620D02*
X9389046Y-24010667D01*
X9389046Y-24010667D02*
X9379522Y-24020191D01*
X9379522Y-24020191D02*
X9360475Y-24029715D01*
X9360475Y-24029715D02*
X9331903Y-24029715D01*
X9512855Y-24029715D02*
X9493808Y-24020191D01*
X9493808Y-24020191D02*
X9484284Y-24001143D01*
X9484284Y-24001143D02*
X9484284Y-23829715D01*
X9665236Y-24020191D02*
X9646189Y-24029715D01*
X9646189Y-24029715D02*
X9608094Y-24029715D01*
X9608094Y-24029715D02*
X9589046Y-24020191D01*
X9589046Y-24020191D02*
X9579522Y-24001143D01*
X9579522Y-24001143D02*
X9579522Y-23924953D01*
X9579522Y-23924953D02*
X9589046Y-23905905D01*
X9589046Y-23905905D02*
X9608094Y-23896382D01*
X9608094Y-23896382D02*
X9646189Y-23896382D01*
X9646189Y-23896382D02*
X9665236Y-23905905D01*
X9665236Y-23905905D02*
X9674760Y-23924953D01*
X9674760Y-23924953D02*
X9674760Y-23944001D01*
X9674760Y-23944001D02*
X9579522Y-23963048D01*
X9750951Y-24020191D02*
X9769998Y-24029715D01*
X9769998Y-24029715D02*
X9808094Y-24029715D01*
X9808094Y-24029715D02*
X9827141Y-24020191D01*
X9827141Y-24020191D02*
X9836665Y-24001143D01*
X9836665Y-24001143D02*
X9836665Y-23991620D01*
X9836665Y-23991620D02*
X9827141Y-23972572D01*
X9827141Y-23972572D02*
X9808094Y-23963048D01*
X9808094Y-23963048D02*
X9779522Y-23963048D01*
X9779522Y-23963048D02*
X9760475Y-23953524D01*
X9760475Y-23953524D02*
X9750951Y-23934477D01*
X9750951Y-23934477D02*
X9750951Y-23924953D01*
X9750951Y-23924953D02*
X9760475Y-23905905D01*
X9760475Y-23905905D02*
X9779522Y-23896382D01*
X9779522Y-23896382D02*
X9808094Y-23896382D01*
X9808094Y-23896382D02*
X9827141Y-23905905D01*
X9903332Y-24105905D02*
X9912856Y-24096382D01*
X9912856Y-24096382D02*
X9931903Y-24067810D01*
X9931903Y-24067810D02*
X9941427Y-24048763D01*
X9941427Y-24048763D02*
X9950951Y-24020191D01*
X9950951Y-24020191D02*
X9960475Y-23972572D01*
X9960475Y-23972572D02*
X9960475Y-23934477D01*
X9960475Y-23934477D02*
X9950951Y-23886858D01*
X9950951Y-23886858D02*
X9941427Y-23858286D01*
X9941427Y-23858286D02*
X9931903Y-23839239D01*
X9931903Y-23839239D02*
X9912856Y-23810667D01*
X9912856Y-23810667D02*
X9903332Y-23801143D01*
X10265237Y-24105905D02*
X10255713Y-24096382D01*
X10255713Y-24096382D02*
X10236665Y-24067810D01*
X10236665Y-24067810D02*
X10227141Y-24048763D01*
X10227141Y-24048763D02*
X10217617Y-24020191D01*
X10217617Y-24020191D02*
X10208094Y-23972572D01*
X10208094Y-23972572D02*
X10208094Y-23934477D01*
X10208094Y-23934477D02*
X10217617Y-23886858D01*
X10217617Y-23886858D02*
X10227141Y-23858286D01*
X10227141Y-23858286D02*
X10236665Y-23839239D01*
X10236665Y-23839239D02*
X10255713Y-23810667D01*
X10255713Y-23810667D02*
X10265237Y-23801143D01*
X10341427Y-23896382D02*
X10341427Y-24029715D01*
X10341427Y-23915429D02*
X10350951Y-23905905D01*
X10350951Y-23905905D02*
X10369998Y-23896382D01*
X10369998Y-23896382D02*
X10398570Y-23896382D01*
X10398570Y-23896382D02*
X10417617Y-23905905D01*
X10417617Y-23905905D02*
X10427141Y-23924953D01*
X10427141Y-23924953D02*
X10427141Y-24029715D01*
X10550951Y-24029715D02*
X10531903Y-24020191D01*
X10531903Y-24020191D02*
X10522379Y-24010667D01*
X10522379Y-24010667D02*
X10512856Y-23991620D01*
X10512856Y-23991620D02*
X10512856Y-23934477D01*
X10512856Y-23934477D02*
X10522379Y-23915429D01*
X10522379Y-23915429D02*
X10531903Y-23905905D01*
X10531903Y-23905905D02*
X10550951Y-23896382D01*
X10550951Y-23896382D02*
X10579522Y-23896382D01*
X10579522Y-23896382D02*
X10598570Y-23905905D01*
X10598570Y-23905905D02*
X10608094Y-23915429D01*
X10608094Y-23915429D02*
X10617617Y-23934477D01*
X10617617Y-23934477D02*
X10617617Y-23991620D01*
X10617617Y-23991620D02*
X10608094Y-24010667D01*
X10608094Y-24010667D02*
X10598570Y-24020191D01*
X10598570Y-24020191D02*
X10579522Y-24029715D01*
X10579522Y-24029715D02*
X10550951Y-24029715D01*
X10674760Y-23896382D02*
X10750951Y-23896382D01*
X10703332Y-23829715D02*
X10703332Y-24001143D01*
X10703332Y-24001143D02*
X10712856Y-24020191D01*
X10712856Y-24020191D02*
X10731903Y-24029715D01*
X10731903Y-24029715D02*
X10750951Y-24029715D01*
X10969998Y-23896382D02*
X10969998Y-24096382D01*
X10969998Y-23905905D02*
X10989046Y-23896382D01*
X10989046Y-23896382D02*
X11027141Y-23896382D01*
X11027141Y-23896382D02*
X11046189Y-23905905D01*
X11046189Y-23905905D02*
X11055713Y-23915429D01*
X11055713Y-23915429D02*
X11065237Y-23934477D01*
X11065237Y-23934477D02*
X11065237Y-23991620D01*
X11065237Y-23991620D02*
X11055713Y-24010667D01*
X11055713Y-24010667D02*
X11046189Y-24020191D01*
X11046189Y-24020191D02*
X11027141Y-24029715D01*
X11027141Y-24029715D02*
X10989046Y-24029715D01*
X10989046Y-24029715D02*
X10969998Y-24020191D01*
X11179522Y-24029715D02*
X11160475Y-24020191D01*
X11160475Y-24020191D02*
X11150951Y-24001143D01*
X11150951Y-24001143D02*
X11150951Y-23829715D01*
X11341427Y-24029715D02*
X11341427Y-23924953D01*
X11341427Y-23924953D02*
X11331903Y-23905905D01*
X11331903Y-23905905D02*
X11312856Y-23896382D01*
X11312856Y-23896382D02*
X11274760Y-23896382D01*
X11274760Y-23896382D02*
X11255713Y-23905905D01*
X11341427Y-24020191D02*
X11322379Y-24029715D01*
X11322379Y-24029715D02*
X11274760Y-24029715D01*
X11274760Y-24029715D02*
X11255713Y-24020191D01*
X11255713Y-24020191D02*
X11246189Y-24001143D01*
X11246189Y-24001143D02*
X11246189Y-23982096D01*
X11246189Y-23982096D02*
X11255713Y-23963048D01*
X11255713Y-23963048D02*
X11274760Y-23953524D01*
X11274760Y-23953524D02*
X11322379Y-23953524D01*
X11322379Y-23953524D02*
X11341427Y-23944001D01*
X11408094Y-23896382D02*
X11484284Y-23896382D01*
X11436665Y-23829715D02*
X11436665Y-24001143D01*
X11436665Y-24001143D02*
X11446189Y-24020191D01*
X11446189Y-24020191D02*
X11465236Y-24029715D01*
X11465236Y-24029715D02*
X11484284Y-24029715D01*
X11627141Y-24020191D02*
X11608094Y-24029715D01*
X11608094Y-24029715D02*
X11569998Y-24029715D01*
X11569998Y-24029715D02*
X11550951Y-24020191D01*
X11550951Y-24020191D02*
X11541427Y-24001143D01*
X11541427Y-24001143D02*
X11541427Y-23924953D01*
X11541427Y-23924953D02*
X11550951Y-23905905D01*
X11550951Y-23905905D02*
X11569998Y-23896382D01*
X11569998Y-23896382D02*
X11608094Y-23896382D01*
X11608094Y-23896382D02*
X11627141Y-23905905D01*
X11627141Y-23905905D02*
X11636665Y-23924953D01*
X11636665Y-23924953D02*
X11636665Y-23944001D01*
X11636665Y-23944001D02*
X11541427Y-23963048D01*
X11808094Y-24029715D02*
X11808094Y-23829715D01*
X11808094Y-24020191D02*
X11789046Y-24029715D01*
X11789046Y-24029715D02*
X11750951Y-24029715D01*
X11750951Y-24029715D02*
X11731903Y-24020191D01*
X11731903Y-24020191D02*
X11722379Y-24010667D01*
X11722379Y-24010667D02*
X11712856Y-23991620D01*
X11712856Y-23991620D02*
X11712856Y-23934477D01*
X11712856Y-23934477D02*
X11722379Y-23915429D01*
X11722379Y-23915429D02*
X11731903Y-23905905D01*
X11731903Y-23905905D02*
X11750951Y-23896382D01*
X11750951Y-23896382D02*
X11789046Y-23896382D01*
X11789046Y-23896382D02*
X11808094Y-23905905D01*
X11884284Y-24105905D02*
X11893808Y-24096382D01*
X11893808Y-24096382D02*
X11912856Y-24067810D01*
X11912856Y-24067810D02*
X11922379Y-24048763D01*
X11922379Y-24048763D02*
X11931903Y-24020191D01*
X11931903Y-24020191D02*
X11941427Y-23972572D01*
X11941427Y-23972572D02*
X11941427Y-23934477D01*
X11941427Y-23934477D02*
X11931903Y-23886858D01*
X11931903Y-23886858D02*
X11922379Y-23858286D01*
X11922379Y-23858286D02*
X11912856Y-23839239D01*
X11912856Y-23839239D02*
X11893808Y-23810667D01*
X11893808Y-23810667D02*
X11884284Y-23801143D01*
X4837793Y-24358231D02*
X4937793Y-24258231D01*
X4837793Y-24158231D01*
X4737793Y-24258231D01*
X4837793Y-24358231D01*
X5179522Y-24149715D02*
X5303331Y-24149715D01*
X5303331Y-24149715D02*
X5236665Y-24225905D01*
X5236665Y-24225905D02*
X5265236Y-24225905D01*
X5265236Y-24225905D02*
X5284284Y-24235429D01*
X5284284Y-24235429D02*
X5293807Y-24244953D01*
X5293807Y-24244953D02*
X5303331Y-24264001D01*
X5303331Y-24264001D02*
X5303331Y-24311620D01*
X5303331Y-24311620D02*
X5293807Y-24330667D01*
X5293807Y-24330667D02*
X5284284Y-24340191D01*
X5284284Y-24340191D02*
X5265236Y-24349715D01*
X5265236Y-24349715D02*
X5208093Y-24349715D01*
X5208093Y-24349715D02*
X5189046Y-24340191D01*
X5189046Y-24340191D02*
X5179522Y-24330667D01*
X5389046Y-24330667D02*
X5398569Y-24340191D01*
X5398569Y-24340191D02*
X5389046Y-24349715D01*
X5389046Y-24349715D02*
X5379522Y-24340191D01*
X5379522Y-24340191D02*
X5389046Y-24330667D01*
X5389046Y-24330667D02*
X5389046Y-24349715D01*
X5569998Y-24216382D02*
X5569998Y-24349715D01*
X5522379Y-24140191D02*
X5474760Y-24283048D01*
X5474760Y-24283048D02*
X5598569Y-24283048D01*
X5665236Y-24168763D02*
X5674760Y-24159239D01*
X5674760Y-24159239D02*
X5693807Y-24149715D01*
X5693807Y-24149715D02*
X5741426Y-24149715D01*
X5741426Y-24149715D02*
X5760474Y-24159239D01*
X5760474Y-24159239D02*
X5769998Y-24168763D01*
X5769998Y-24168763D02*
X5779522Y-24187810D01*
X5779522Y-24187810D02*
X5779522Y-24206858D01*
X5779522Y-24206858D02*
X5769998Y-24235429D01*
X5769998Y-24235429D02*
X5655712Y-24349715D01*
X5655712Y-24349715D02*
X5779522Y-24349715D01*
X5874760Y-24349715D02*
X5912855Y-24349715D01*
X5912855Y-24349715D02*
X5931903Y-24340191D01*
X5931903Y-24340191D02*
X5941426Y-24330667D01*
X5941426Y-24330667D02*
X5960474Y-24302096D01*
X5960474Y-24302096D02*
X5969998Y-24264001D01*
X5969998Y-24264001D02*
X5969998Y-24187810D01*
X5969998Y-24187810D02*
X5960474Y-24168763D01*
X5960474Y-24168763D02*
X5950950Y-24159239D01*
X5950950Y-24159239D02*
X5931903Y-24149715D01*
X5931903Y-24149715D02*
X5893807Y-24149715D01*
X5893807Y-24149715D02*
X5874760Y-24159239D01*
X5874760Y-24159239D02*
X5865236Y-24168763D01*
X5865236Y-24168763D02*
X5855712Y-24187810D01*
X5855712Y-24187810D02*
X5855712Y-24235429D01*
X5855712Y-24235429D02*
X5865236Y-24254477D01*
X5865236Y-24254477D02*
X5874760Y-24264001D01*
X5874760Y-24264001D02*
X5893807Y-24273524D01*
X5893807Y-24273524D02*
X5931903Y-24273524D01*
X5931903Y-24273524D02*
X5950950Y-24264001D01*
X5950950Y-24264001D02*
X5960474Y-24254477D01*
X5960474Y-24254477D02*
X5969998Y-24235429D01*
X6055712Y-24349715D02*
X6055712Y-24216382D01*
X6055712Y-24235429D02*
X6065236Y-24225905D01*
X6065236Y-24225905D02*
X6084284Y-24216382D01*
X6084284Y-24216382D02*
X6112855Y-24216382D01*
X6112855Y-24216382D02*
X6131903Y-24225905D01*
X6131903Y-24225905D02*
X6141426Y-24244953D01*
X6141426Y-24244953D02*
X6141426Y-24349715D01*
X6141426Y-24244953D02*
X6150950Y-24225905D01*
X6150950Y-24225905D02*
X6169998Y-24216382D01*
X6169998Y-24216382D02*
X6198569Y-24216382D01*
X6198569Y-24216382D02*
X6217617Y-24225905D01*
X6217617Y-24225905D02*
X6227141Y-24244953D01*
X6227141Y-24244953D02*
X6227141Y-24349715D01*
X6322379Y-24349715D02*
X6322379Y-24216382D01*
X6322379Y-24235429D02*
X6331903Y-24225905D01*
X6331903Y-24225905D02*
X6350950Y-24216382D01*
X6350950Y-24216382D02*
X6379522Y-24216382D01*
X6379522Y-24216382D02*
X6398569Y-24225905D01*
X6398569Y-24225905D02*
X6408093Y-24244953D01*
X6408093Y-24244953D02*
X6408093Y-24349715D01*
X6408093Y-24244953D02*
X6417617Y-24225905D01*
X6417617Y-24225905D02*
X6436665Y-24216382D01*
X6436665Y-24216382D02*
X6465236Y-24216382D01*
X6465236Y-24216382D02*
X6484284Y-24225905D01*
X6484284Y-24225905D02*
X6493807Y-24244953D01*
X6493807Y-24244953D02*
X6493807Y-24349715D01*
X6884284Y-24140191D02*
X6712855Y-24397334D01*
X7141427Y-24149715D02*
X7160474Y-24149715D01*
X7160474Y-24149715D02*
X7179522Y-24159239D01*
X7179522Y-24159239D02*
X7189046Y-24168763D01*
X7189046Y-24168763D02*
X7198569Y-24187810D01*
X7198569Y-24187810D02*
X7208093Y-24225905D01*
X7208093Y-24225905D02*
X7208093Y-24273524D01*
X7208093Y-24273524D02*
X7198569Y-24311620D01*
X7198569Y-24311620D02*
X7189046Y-24330667D01*
X7189046Y-24330667D02*
X7179522Y-24340191D01*
X7179522Y-24340191D02*
X7160474Y-24349715D01*
X7160474Y-24349715D02*
X7141427Y-24349715D01*
X7141427Y-24349715D02*
X7122379Y-24340191D01*
X7122379Y-24340191D02*
X7112855Y-24330667D01*
X7112855Y-24330667D02*
X7103331Y-24311620D01*
X7103331Y-24311620D02*
X7093808Y-24273524D01*
X7093808Y-24273524D02*
X7093808Y-24225905D01*
X7093808Y-24225905D02*
X7103331Y-24187810D01*
X7103331Y-24187810D02*
X7112855Y-24168763D01*
X7112855Y-24168763D02*
X7122379Y-24159239D01*
X7122379Y-24159239D02*
X7141427Y-24149715D01*
X7293808Y-24330667D02*
X7303331Y-24340191D01*
X7303331Y-24340191D02*
X7293808Y-24349715D01*
X7293808Y-24349715D02*
X7284284Y-24340191D01*
X7284284Y-24340191D02*
X7293808Y-24330667D01*
X7293808Y-24330667D02*
X7293808Y-24349715D01*
X7493808Y-24349715D02*
X7379522Y-24349715D01*
X7436665Y-24349715D02*
X7436665Y-24149715D01*
X7436665Y-24149715D02*
X7417617Y-24178286D01*
X7417617Y-24178286D02*
X7398569Y-24197334D01*
X7398569Y-24197334D02*
X7379522Y-24206858D01*
X7560474Y-24149715D02*
X7684284Y-24149715D01*
X7684284Y-24149715D02*
X7617617Y-24225905D01*
X7617617Y-24225905D02*
X7646189Y-24225905D01*
X7646189Y-24225905D02*
X7665236Y-24235429D01*
X7665236Y-24235429D02*
X7674760Y-24244953D01*
X7674760Y-24244953D02*
X7684284Y-24264001D01*
X7684284Y-24264001D02*
X7684284Y-24311620D01*
X7684284Y-24311620D02*
X7674760Y-24330667D01*
X7674760Y-24330667D02*
X7665236Y-24340191D01*
X7665236Y-24340191D02*
X7646189Y-24349715D01*
X7646189Y-24349715D02*
X7589046Y-24349715D01*
X7589046Y-24349715D02*
X7569998Y-24340191D01*
X7569998Y-24340191D02*
X7560474Y-24330667D01*
X7865236Y-24149715D02*
X7769998Y-24149715D01*
X7769998Y-24149715D02*
X7760474Y-24244953D01*
X7760474Y-24244953D02*
X7769998Y-24235429D01*
X7769998Y-24235429D02*
X7789046Y-24225905D01*
X7789046Y-24225905D02*
X7836665Y-24225905D01*
X7836665Y-24225905D02*
X7855712Y-24235429D01*
X7855712Y-24235429D02*
X7865236Y-24244953D01*
X7865236Y-24244953D02*
X7874760Y-24264001D01*
X7874760Y-24264001D02*
X7874760Y-24311620D01*
X7874760Y-24311620D02*
X7865236Y-24330667D01*
X7865236Y-24330667D02*
X7855712Y-24340191D01*
X7855712Y-24340191D02*
X7836665Y-24349715D01*
X7836665Y-24349715D02*
X7789046Y-24349715D01*
X7789046Y-24349715D02*
X7769998Y-24340191D01*
X7769998Y-24340191D02*
X7760474Y-24330667D01*
X7998569Y-24149715D02*
X8017617Y-24149715D01*
X8017617Y-24149715D02*
X8036665Y-24159239D01*
X8036665Y-24159239D02*
X8046189Y-24168763D01*
X8046189Y-24168763D02*
X8055712Y-24187810D01*
X8055712Y-24187810D02*
X8065236Y-24225905D01*
X8065236Y-24225905D02*
X8065236Y-24273524D01*
X8065236Y-24273524D02*
X8055712Y-24311620D01*
X8055712Y-24311620D02*
X8046189Y-24330667D01*
X8046189Y-24330667D02*
X8036665Y-24340191D01*
X8036665Y-24340191D02*
X8017617Y-24349715D01*
X8017617Y-24349715D02*
X7998569Y-24349715D01*
X7998569Y-24349715D02*
X7979522Y-24340191D01*
X7979522Y-24340191D02*
X7969998Y-24330667D01*
X7969998Y-24330667D02*
X7960474Y-24311620D01*
X7960474Y-24311620D02*
X7950950Y-24273524D01*
X7950950Y-24273524D02*
X7950950Y-24225905D01*
X7950950Y-24225905D02*
X7960474Y-24187810D01*
X7960474Y-24187810D02*
X7969998Y-24168763D01*
X7969998Y-24168763D02*
X7979522Y-24159239D01*
X7979522Y-24159239D02*
X7998569Y-24149715D01*
X8141427Y-24149715D02*
X8141427Y-24187810D01*
X8217617Y-24149715D02*
X8217617Y-24187810D01*
X8512855Y-24425905D02*
X8503332Y-24416382D01*
X8503332Y-24416382D02*
X8484284Y-24387810D01*
X8484284Y-24387810D02*
X8474760Y-24368763D01*
X8474760Y-24368763D02*
X8465236Y-24340191D01*
X8465236Y-24340191D02*
X8455713Y-24292572D01*
X8455713Y-24292572D02*
X8455713Y-24254477D01*
X8455713Y-24254477D02*
X8465236Y-24206858D01*
X8465236Y-24206858D02*
X8474760Y-24178286D01*
X8474760Y-24178286D02*
X8484284Y-24159239D01*
X8484284Y-24159239D02*
X8503332Y-24130667D01*
X8503332Y-24130667D02*
X8512855Y-24121143D01*
X8579522Y-24168763D02*
X8589046Y-24159239D01*
X8589046Y-24159239D02*
X8608093Y-24149715D01*
X8608093Y-24149715D02*
X8655713Y-24149715D01*
X8655713Y-24149715D02*
X8674760Y-24159239D01*
X8674760Y-24159239D02*
X8684284Y-24168763D01*
X8684284Y-24168763D02*
X8693808Y-24187810D01*
X8693808Y-24187810D02*
X8693808Y-24206858D01*
X8693808Y-24206858D02*
X8684284Y-24235429D01*
X8684284Y-24235429D02*
X8569998Y-24349715D01*
X8569998Y-24349715D02*
X8693808Y-24349715D01*
X8817617Y-24149715D02*
X8836665Y-24149715D01*
X8836665Y-24149715D02*
X8855713Y-24159239D01*
X8855713Y-24159239D02*
X8865236Y-24168763D01*
X8865236Y-24168763D02*
X8874760Y-24187810D01*
X8874760Y-24187810D02*
X8884284Y-24225905D01*
X8884284Y-24225905D02*
X8884284Y-24273524D01*
X8884284Y-24273524D02*
X8874760Y-24311620D01*
X8874760Y-24311620D02*
X8865236Y-24330667D01*
X8865236Y-24330667D02*
X8855713Y-24340191D01*
X8855713Y-24340191D02*
X8836665Y-24349715D01*
X8836665Y-24349715D02*
X8817617Y-24349715D01*
X8817617Y-24349715D02*
X8798570Y-24340191D01*
X8798570Y-24340191D02*
X8789046Y-24330667D01*
X8789046Y-24330667D02*
X8779522Y-24311620D01*
X8779522Y-24311620D02*
X8769998Y-24273524D01*
X8769998Y-24273524D02*
X8769998Y-24225905D01*
X8769998Y-24225905D02*
X8779522Y-24187810D01*
X8779522Y-24187810D02*
X8789046Y-24168763D01*
X8789046Y-24168763D02*
X8798570Y-24159239D01*
X8798570Y-24159239D02*
X8817617Y-24149715D01*
X9122379Y-24349715D02*
X9122379Y-24149715D01*
X9208094Y-24349715D02*
X9208094Y-24244953D01*
X9208094Y-24244953D02*
X9198570Y-24225905D01*
X9198570Y-24225905D02*
X9179522Y-24216382D01*
X9179522Y-24216382D02*
X9150951Y-24216382D01*
X9150951Y-24216382D02*
X9131903Y-24225905D01*
X9131903Y-24225905D02*
X9122379Y-24235429D01*
X9331903Y-24349715D02*
X9312855Y-24340191D01*
X9312855Y-24340191D02*
X9303332Y-24330667D01*
X9303332Y-24330667D02*
X9293808Y-24311620D01*
X9293808Y-24311620D02*
X9293808Y-24254477D01*
X9293808Y-24254477D02*
X9303332Y-24235429D01*
X9303332Y-24235429D02*
X9312855Y-24225905D01*
X9312855Y-24225905D02*
X9331903Y-24216382D01*
X9331903Y-24216382D02*
X9360475Y-24216382D01*
X9360475Y-24216382D02*
X9379522Y-24225905D01*
X9379522Y-24225905D02*
X9389046Y-24235429D01*
X9389046Y-24235429D02*
X9398570Y-24254477D01*
X9398570Y-24254477D02*
X9398570Y-24311620D01*
X9398570Y-24311620D02*
X9389046Y-24330667D01*
X9389046Y-24330667D02*
X9379522Y-24340191D01*
X9379522Y-24340191D02*
X9360475Y-24349715D01*
X9360475Y-24349715D02*
X9331903Y-24349715D01*
X9512855Y-24349715D02*
X9493808Y-24340191D01*
X9493808Y-24340191D02*
X9484284Y-24321143D01*
X9484284Y-24321143D02*
X9484284Y-24149715D01*
X9665236Y-24340191D02*
X9646189Y-24349715D01*
X9646189Y-24349715D02*
X9608094Y-24349715D01*
X9608094Y-24349715D02*
X9589046Y-24340191D01*
X9589046Y-24340191D02*
X9579522Y-24321143D01*
X9579522Y-24321143D02*
X9579522Y-24244953D01*
X9579522Y-24244953D02*
X9589046Y-24225905D01*
X9589046Y-24225905D02*
X9608094Y-24216382D01*
X9608094Y-24216382D02*
X9646189Y-24216382D01*
X9646189Y-24216382D02*
X9665236Y-24225905D01*
X9665236Y-24225905D02*
X9674760Y-24244953D01*
X9674760Y-24244953D02*
X9674760Y-24264001D01*
X9674760Y-24264001D02*
X9579522Y-24283048D01*
X9750951Y-24340191D02*
X9769998Y-24349715D01*
X9769998Y-24349715D02*
X9808094Y-24349715D01*
X9808094Y-24349715D02*
X9827141Y-24340191D01*
X9827141Y-24340191D02*
X9836665Y-24321143D01*
X9836665Y-24321143D02*
X9836665Y-24311620D01*
X9836665Y-24311620D02*
X9827141Y-24292572D01*
X9827141Y-24292572D02*
X9808094Y-24283048D01*
X9808094Y-24283048D02*
X9779522Y-24283048D01*
X9779522Y-24283048D02*
X9760475Y-24273524D01*
X9760475Y-24273524D02*
X9750951Y-24254477D01*
X9750951Y-24254477D02*
X9750951Y-24244953D01*
X9750951Y-24244953D02*
X9760475Y-24225905D01*
X9760475Y-24225905D02*
X9779522Y-24216382D01*
X9779522Y-24216382D02*
X9808094Y-24216382D01*
X9808094Y-24216382D02*
X9827141Y-24225905D01*
X9903332Y-24425905D02*
X9912856Y-24416382D01*
X9912856Y-24416382D02*
X9931903Y-24387810D01*
X9931903Y-24387810D02*
X9941427Y-24368763D01*
X9941427Y-24368763D02*
X9950951Y-24340191D01*
X9950951Y-24340191D02*
X9960475Y-24292572D01*
X9960475Y-24292572D02*
X9960475Y-24254477D01*
X9960475Y-24254477D02*
X9950951Y-24206858D01*
X9950951Y-24206858D02*
X9941427Y-24178286D01*
X9941427Y-24178286D02*
X9931903Y-24159239D01*
X9931903Y-24159239D02*
X9912856Y-24130667D01*
X9912856Y-24130667D02*
X9903332Y-24121143D01*
X10265237Y-24425905D02*
X10255713Y-24416382D01*
X10255713Y-24416382D02*
X10236665Y-24387810D01*
X10236665Y-24387810D02*
X10227141Y-24368763D01*
X10227141Y-24368763D02*
X10217617Y-24340191D01*
X10217617Y-24340191D02*
X10208094Y-24292572D01*
X10208094Y-24292572D02*
X10208094Y-24254477D01*
X10208094Y-24254477D02*
X10217617Y-24206858D01*
X10217617Y-24206858D02*
X10227141Y-24178286D01*
X10227141Y-24178286D02*
X10236665Y-24159239D01*
X10236665Y-24159239D02*
X10255713Y-24130667D01*
X10255713Y-24130667D02*
X10265237Y-24121143D01*
X10341427Y-24216382D02*
X10341427Y-24349715D01*
X10341427Y-24235429D02*
X10350951Y-24225905D01*
X10350951Y-24225905D02*
X10369998Y-24216382D01*
X10369998Y-24216382D02*
X10398570Y-24216382D01*
X10398570Y-24216382D02*
X10417617Y-24225905D01*
X10417617Y-24225905D02*
X10427141Y-24244953D01*
X10427141Y-24244953D02*
X10427141Y-24349715D01*
X10550951Y-24349715D02*
X10531903Y-24340191D01*
X10531903Y-24340191D02*
X10522379Y-24330667D01*
X10522379Y-24330667D02*
X10512856Y-24311620D01*
X10512856Y-24311620D02*
X10512856Y-24254477D01*
X10512856Y-24254477D02*
X10522379Y-24235429D01*
X10522379Y-24235429D02*
X10531903Y-24225905D01*
X10531903Y-24225905D02*
X10550951Y-24216382D01*
X10550951Y-24216382D02*
X10579522Y-24216382D01*
X10579522Y-24216382D02*
X10598570Y-24225905D01*
X10598570Y-24225905D02*
X10608094Y-24235429D01*
X10608094Y-24235429D02*
X10617617Y-24254477D01*
X10617617Y-24254477D02*
X10617617Y-24311620D01*
X10617617Y-24311620D02*
X10608094Y-24330667D01*
X10608094Y-24330667D02*
X10598570Y-24340191D01*
X10598570Y-24340191D02*
X10579522Y-24349715D01*
X10579522Y-24349715D02*
X10550951Y-24349715D01*
X10674760Y-24216382D02*
X10750951Y-24216382D01*
X10703332Y-24149715D02*
X10703332Y-24321143D01*
X10703332Y-24321143D02*
X10712856Y-24340191D01*
X10712856Y-24340191D02*
X10731903Y-24349715D01*
X10731903Y-24349715D02*
X10750951Y-24349715D01*
X10969998Y-24216382D02*
X10969998Y-24416382D01*
X10969998Y-24225905D02*
X10989046Y-24216382D01*
X10989046Y-24216382D02*
X11027141Y-24216382D01*
X11027141Y-24216382D02*
X11046189Y-24225905D01*
X11046189Y-24225905D02*
X11055713Y-24235429D01*
X11055713Y-24235429D02*
X11065237Y-24254477D01*
X11065237Y-24254477D02*
X11065237Y-24311620D01*
X11065237Y-24311620D02*
X11055713Y-24330667D01*
X11055713Y-24330667D02*
X11046189Y-24340191D01*
X11046189Y-24340191D02*
X11027141Y-24349715D01*
X11027141Y-24349715D02*
X10989046Y-24349715D01*
X10989046Y-24349715D02*
X10969998Y-24340191D01*
X11179522Y-24349715D02*
X11160475Y-24340191D01*
X11160475Y-24340191D02*
X11150951Y-24321143D01*
X11150951Y-24321143D02*
X11150951Y-24149715D01*
X11341427Y-24349715D02*
X11341427Y-24244953D01*
X11341427Y-24244953D02*
X11331903Y-24225905D01*
X11331903Y-24225905D02*
X11312856Y-24216382D01*
X11312856Y-24216382D02*
X11274760Y-24216382D01*
X11274760Y-24216382D02*
X11255713Y-24225905D01*
X11341427Y-24340191D02*
X11322379Y-24349715D01*
X11322379Y-24349715D02*
X11274760Y-24349715D01*
X11274760Y-24349715D02*
X11255713Y-24340191D01*
X11255713Y-24340191D02*
X11246189Y-24321143D01*
X11246189Y-24321143D02*
X11246189Y-24302096D01*
X11246189Y-24302096D02*
X11255713Y-24283048D01*
X11255713Y-24283048D02*
X11274760Y-24273524D01*
X11274760Y-24273524D02*
X11322379Y-24273524D01*
X11322379Y-24273524D02*
X11341427Y-24264001D01*
X11408094Y-24216382D02*
X11484284Y-24216382D01*
X11436665Y-24149715D02*
X11436665Y-24321143D01*
X11436665Y-24321143D02*
X11446189Y-24340191D01*
X11446189Y-24340191D02*
X11465236Y-24349715D01*
X11465236Y-24349715D02*
X11484284Y-24349715D01*
X11627141Y-24340191D02*
X11608094Y-24349715D01*
X11608094Y-24349715D02*
X11569998Y-24349715D01*
X11569998Y-24349715D02*
X11550951Y-24340191D01*
X11550951Y-24340191D02*
X11541427Y-24321143D01*
X11541427Y-24321143D02*
X11541427Y-24244953D01*
X11541427Y-24244953D02*
X11550951Y-24225905D01*
X11550951Y-24225905D02*
X11569998Y-24216382D01*
X11569998Y-24216382D02*
X11608094Y-24216382D01*
X11608094Y-24216382D02*
X11627141Y-24225905D01*
X11627141Y-24225905D02*
X11636665Y-24244953D01*
X11636665Y-24244953D02*
X11636665Y-24264001D01*
X11636665Y-24264001D02*
X11541427Y-24283048D01*
X11808094Y-24349715D02*
X11808094Y-24149715D01*
X11808094Y-24340191D02*
X11789046Y-24349715D01*
X11789046Y-24349715D02*
X11750951Y-24349715D01*
X11750951Y-24349715D02*
X11731903Y-24340191D01*
X11731903Y-24340191D02*
X11722379Y-24330667D01*
X11722379Y-24330667D02*
X11712856Y-24311620D01*
X11712856Y-24311620D02*
X11712856Y-24254477D01*
X11712856Y-24254477D02*
X11722379Y-24235429D01*
X11722379Y-24235429D02*
X11731903Y-24225905D01*
X11731903Y-24225905D02*
X11750951Y-24216382D01*
X11750951Y-24216382D02*
X11789046Y-24216382D01*
X11789046Y-24216382D02*
X11808094Y-24225905D01*
X11884284Y-24425905D02*
X11893808Y-24416382D01*
X11893808Y-24416382D02*
X11912856Y-24387810D01*
X11912856Y-24387810D02*
X11922379Y-24368763D01*
X11922379Y-24368763D02*
X11931903Y-24340191D01*
X11931903Y-24340191D02*
X11941427Y-24292572D01*
X11941427Y-24292572D02*
X11941427Y-24254477D01*
X11941427Y-24254477D02*
X11931903Y-24206858D01*
X11931903Y-24206858D02*
X11922379Y-24178286D01*
X11922379Y-24178286D02*
X11912856Y-24159239D01*
X11912856Y-24159239D02*
X11893808Y-24130667D01*
X11893808Y-24130667D02*
X11884284Y-24121143D01*
M02*
