%TF.GenerationSoftware,KiCad,Pcbnew,9.0.5*%
%TF.CreationDate,2025-11-08T17:13:18+10:00*%
%TF.ProjectId,badWingsLeft,62616457-696e-4677-934c-6566742e6b69,v1.0.0*%
%TF.SameCoordinates,Original*%
%TF.FileFunction,Soldermask,Top*%
%TF.FilePolarity,Negative*%
%FSLAX46Y46*%
G04 Gerber Fmt 4.6, Leading zero omitted, Abs format (unit mm)*
G04 Created by KiCad (PCBNEW 9.0.5) date 2025-11-08 17:13:18*
%MOMM*%
%LPD*%
G01*
G04 APERTURE LIST*
G04 Aperture macros list*
%AMRoundRect*
0 Rectangle with rounded corners*
0 $1 Rounding radius*
0 $2 $3 $4 $5 $6 $7 $8 $9 X,Y pos of 4 corners*
0 Add a 4 corners polygon primitive as box body*
4,1,4,$2,$3,$4,$5,$6,$7,$8,$9,$2,$3,0*
0 Add four circle primitives for the rounded corners*
1,1,$1+$1,$2,$3*
1,1,$1+$1,$4,$5*
1,1,$1+$1,$6,$7*
1,1,$1+$1,$8,$9*
0 Add four rect primitives between the rounded corners*
20,1,$1+$1,$2,$3,$4,$5,0*
20,1,$1+$1,$4,$5,$6,$7,0*
20,1,$1+$1,$6,$7,$8,$9,0*
20,1,$1+$1,$8,$9,$2,$3,0*%
G04 Aperture macros list end*
%ADD10C,1.100000*%
%ADD11C,1.801800*%
%ADD12C,3.100000*%
%ADD13C,3.529000*%
%ADD14C,0.800000*%
%ADD15C,4.500000*%
%ADD16C,0.850000*%
%ADD17RoundRect,0.050000X-0.850000X0.600000X-0.850000X-0.600000X0.850000X-0.600000X0.850000X0.600000X0*%
%ADD18O,1.800000X1.300000*%
%ADD19O,1.800000X1.800000*%
%ADD20RoundRect,0.050000X-0.850000X-0.850000X0.850000X-0.850000X0.850000X0.850000X-0.850000X0.850000X0*%
%ADD21RoundRect,0.050000X1.600000X1.000000X-1.600000X1.000000X-1.600000X-1.000000X1.600000X-1.000000X0*%
%ADD22C,1.600000*%
%ADD23RoundRect,0.050000X1.000000X1.000000X-1.000000X1.000000X-1.000000X-1.000000X1.000000X-1.000000X0*%
%ADD24C,2.100000*%
%ADD25C,1.852600*%
G04 APERTURE END LIST*
D10*
%TO.C,T1*%
X182754709Y-145872470D03*
X182754707Y-148872472D03*
%TD*%
D11*
%TO.C,S8*%
X115076583Y-140444784D03*
D12*
X110005038Y-146763959D03*
D13*
X109589981Y-140828445D03*
D12*
X104863745Y-144918095D03*
D11*
X104103379Y-141212106D03*
%TD*%
D14*
%TO.C,_78*%
X72753381Y-143619263D03*
X72874420Y-142362222D03*
X73556655Y-144593713D03*
X73848870Y-141558948D03*
D15*
X74331283Y-143136850D03*
D14*
X74813696Y-144714752D03*
X75105911Y-141679987D03*
X75788146Y-143911478D03*
X75909185Y-142654437D03*
%TD*%
D16*
%TO.C,B1*%
X181919707Y-131172482D03*
X184669707Y-131172484D03*
%TD*%
D11*
%TO.C,S1*%
X81406313Y-182330918D03*
D12*
X78668384Y-189956938D03*
D13*
X76343534Y-184479934D03*
D12*
X73206249Y-189885485D03*
D11*
X71280755Y-186628950D03*
%TD*%
D17*
%TO.C,JST1*%
X191214711Y-176972469D03*
D18*
X191214715Y-178972469D03*
%TD*%
D14*
%TO.C,_79*%
X137724722Y-138872471D03*
X138207996Y-137705745D03*
X138207996Y-140039197D03*
X139374722Y-137222471D03*
D15*
X139374722Y-138872471D03*
D14*
X139374722Y-140522471D03*
X140541448Y-137705745D03*
X140541448Y-140039197D03*
X141024722Y-138872471D03*
%TD*%
D11*
%TO.C,S4*%
X97490343Y-165416808D03*
D13*
X92091391Y-166466257D03*
D12*
X93226706Y-172306951D03*
X87898785Y-171101406D03*
D11*
X86692439Y-167515706D03*
%TD*%
D14*
%TO.C,_81*%
X113551190Y-169522018D03*
X113951900Y-168324423D03*
X114114674Y-170652191D03*
X115082073Y-167760939D03*
D15*
X115197171Y-169406920D03*
D14*
X115312269Y-171052901D03*
X116279668Y-168161649D03*
X116442442Y-170489417D03*
X116843152Y-169291822D03*
%TD*%
%TO.C,_80*%
X193524713Y-177972461D03*
X194007987Y-176805735D03*
X194007987Y-179139187D03*
X195174713Y-176322461D03*
D15*
X195174713Y-177972461D03*
D14*
X195174713Y-179622461D03*
X196341439Y-176805735D03*
X196341439Y-179139187D03*
X196824713Y-177972461D03*
%TD*%
D11*
%TO.C,S6*%
X91002847Y-132041472D03*
D13*
X85603895Y-133090921D03*
D12*
X86739210Y-138931615D03*
X81411289Y-137726070D03*
D11*
X80204943Y-134140370D03*
%TD*%
%TO.C,S16*%
X145587315Y-191295963D03*
D12*
X138734753Y-195619721D03*
D13*
X140274726Y-189872460D03*
D12*
X134474518Y-192200587D03*
D11*
X134962137Y-188448957D03*
%TD*%
%TO.C,S5*%
X94246606Y-148729136D03*
D13*
X88847654Y-149778585D03*
D12*
X89982969Y-155619279D03*
X84655048Y-154413734D03*
D11*
X83448702Y-150828034D03*
%TD*%
%TO.C,S7*%
X116262461Y-157403375D03*
D12*
X111190916Y-163722550D03*
D13*
X110775859Y-157787036D03*
D12*
X106049623Y-161876686D03*
D11*
X105289257Y-158170697D03*
%TD*%
%TO.C,S3*%
X68121441Y-151033763D03*
D12*
X65383512Y-158659783D03*
D13*
X63058662Y-153182779D03*
D12*
X59921377Y-158588330D03*
D11*
X57995883Y-155331795D03*
%TD*%
%TO.C,S13*%
X153874713Y-164372470D03*
D12*
X148374718Y-170322476D03*
D13*
X148374713Y-164372470D03*
D12*
X143374713Y-168122470D03*
D11*
X142874713Y-164372470D03*
%TD*%
%TO.C,S18*%
X167117551Y-178187516D03*
D12*
X171199526Y-185186805D03*
D13*
X165509507Y-183447192D03*
D12*
X167633791Y-189325110D03*
D11*
X163901463Y-188706868D03*
%TD*%
D19*
%TO.C,niceView1*%
X174454707Y-159072472D03*
D20*
X171914710Y-159072473D03*
D19*
X169374708Y-159072474D03*
X166834708Y-159072473D03*
X164294713Y-159072474D03*
%TD*%
D11*
%TO.C,S14*%
X153874705Y-147372487D03*
D12*
X148374710Y-153322493D03*
D13*
X148374705Y-147372487D03*
D12*
X143374705Y-151122487D03*
D11*
X142874705Y-147372487D03*
%TD*%
D14*
%TO.C,_76*%
X169645013Y-198353841D03*
X169545931Y-197094879D03*
X170605296Y-199174000D03*
X170366090Y-196134596D03*
D15*
X171115174Y-197604757D03*
D14*
X171864258Y-199074918D03*
X171625052Y-196035514D03*
X172684417Y-198114635D03*
X172585335Y-196855673D03*
%TD*%
D11*
%TO.C,S15*%
X153874711Y-130372482D03*
D12*
X148374716Y-136322488D03*
D13*
X148374711Y-130372482D03*
D12*
X143374711Y-134122482D03*
D11*
X142874711Y-130372482D03*
%TD*%
D14*
%TO.C,_85*%
X180384709Y-123672467D03*
X180867983Y-122505741D03*
X180867983Y-124839193D03*
X182034709Y-122022467D03*
D15*
X182034709Y-123672467D03*
D14*
X182034709Y-125322467D03*
X183201435Y-122505741D03*
X183201435Y-124839193D03*
X183684709Y-123672467D03*
%TD*%
D11*
%TO.C,S9*%
X113890741Y-123486190D03*
D12*
X108819196Y-129805365D03*
D13*
X108404139Y-123869851D03*
D12*
X103677903Y-127959501D03*
D11*
X102917537Y-124253512D03*
%TD*%
%TO.C,S12*%
X135874721Y-130372471D03*
D12*
X130374726Y-136322477D03*
D13*
X130374721Y-130372471D03*
D12*
X125374721Y-134122471D03*
D11*
X124874721Y-130372471D03*
%TD*%
D14*
%TO.C,_84*%
X175524694Y-174232469D03*
X176007968Y-173065743D03*
X176007968Y-175399195D03*
X177174694Y-172582469D03*
D15*
X177174694Y-174232469D03*
D14*
X177174694Y-175882469D03*
X178341420Y-173065743D03*
X178341420Y-175399195D03*
X178824694Y-174232469D03*
%TD*%
%TO.C,_77*%
X89179568Y-181955567D03*
X89300607Y-180698526D03*
X89982842Y-182930017D03*
X90275057Y-179895252D03*
D15*
X90757470Y-181473154D03*
D14*
X91239883Y-183051056D03*
X91532098Y-180016291D03*
X92214333Y-182247782D03*
X92335372Y-180990741D03*
%TD*%
D11*
%TO.C,S11*%
X135874727Y-147372465D03*
D12*
X130374732Y-153322471D03*
D13*
X130374727Y-147372465D03*
D12*
X125374727Y-151122465D03*
D11*
X124874727Y-147372465D03*
%TD*%
%TO.C,S17*%
X164804793Y-204563872D03*
D12*
X157805504Y-208645847D03*
D13*
X159545117Y-202955828D03*
D12*
X153667199Y-205080112D03*
D11*
X154285441Y-201347784D03*
%TD*%
%TO.C,S2*%
X74763875Y-166682350D03*
D12*
X72025946Y-174308370D03*
D13*
X69701096Y-168831366D03*
D12*
X66563811Y-174236917D03*
D11*
X64638317Y-170980382D03*
%TD*%
%TO.C,S20*%
X185153055Y-187273395D03*
D13*
X183362432Y-192473744D03*
D12*
X188988269Y-194410876D03*
X185280286Y-198422217D03*
D11*
X181571809Y-197674093D03*
%TD*%
D14*
%TO.C,_83*%
X159324702Y-167772466D03*
X159807976Y-166605740D03*
X159807976Y-168939192D03*
X160974702Y-166122466D03*
D15*
X160974702Y-167772466D03*
D14*
X160974702Y-169422466D03*
X162141428Y-166605740D03*
X162141428Y-168939192D03*
X162624702Y-167772466D03*
%TD*%
%TO.C,_82*%
X98372989Y-133092058D03*
X98773699Y-131894463D03*
X98936473Y-134222231D03*
X99903872Y-131330979D03*
D15*
X100018970Y-132976960D03*
D14*
X100134068Y-134622941D03*
X101101467Y-131731689D03*
X101264241Y-134059457D03*
X101664951Y-132861862D03*
%TD*%
D11*
%TO.C,S10*%
X135874708Y-164372462D03*
D12*
X130374713Y-170322468D03*
D13*
X130374708Y-164372462D03*
D12*
X125374708Y-168122462D03*
D11*
X124874708Y-164372462D03*
%TD*%
%TO.C,S19*%
X181921191Y-213552938D03*
D13*
X176720842Y-211762315D03*
D12*
X174783710Y-217388152D03*
X170772369Y-213680169D03*
D11*
X171520493Y-209971692D03*
%TD*%
D21*
%TO.C,ROT1*%
X188494710Y-161962467D03*
X188494708Y-173162475D03*
D22*
X181494712Y-170062478D03*
X181494709Y-165062473D03*
D23*
X195994710Y-170062474D03*
D24*
X195994708Y-165062474D03*
X195994710Y-167562474D03*
%TD*%
D25*
%TO.C,MCU1*%
X176994704Y-125902472D03*
X176994709Y-128442471D03*
X176994708Y-130982468D03*
X176994708Y-133522469D03*
X176994711Y-136062467D03*
X176994707Y-138602468D03*
X176994705Y-141142472D03*
X176994713Y-143682469D03*
X176994709Y-146222469D03*
X176994708Y-148762471D03*
X176994709Y-151302471D03*
X176994715Y-153842463D03*
X161754712Y-153842466D03*
X161754707Y-151302467D03*
X161754708Y-148762470D03*
X161754708Y-146222469D03*
X161754705Y-143682471D03*
X161754709Y-141142470D03*
X161754711Y-138602466D03*
X161754703Y-136062469D03*
X161754707Y-133522469D03*
X161754708Y-130982467D03*
X161754707Y-128442467D03*
X161754701Y-125902475D03*
X164294707Y-148762469D03*
X166834708Y-148762468D03*
X169374708Y-148762469D03*
%TD*%
M02*
