%TF.GenerationSoftware,KiCad,Pcbnew,9.0.5*%
%TF.CreationDate,2025-11-08T17:13:18+10:00*%
%TF.ProjectId,badWingsLeft,62616457-696e-4677-934c-6566742e6b69,v1.0.0*%
%TF.SameCoordinates,Original*%
%TF.FileFunction,Legend,Bot*%
%TF.FilePolarity,Positive*%
%FSLAX46Y46*%
G04 Gerber Fmt 4.6, Leading zero omitted, Abs format (unit mm)*
G04 Created by KiCad (PCBNEW 9.0.5) date 2025-11-08 17:13:18*
%MOMM*%
%LPD*%
G01*
G04 APERTURE LIST*
%ADD10C,0.150000*%
%ADD11C,0.120000*%
%ADD12C,0.100000*%
%ADD13C,0.381000*%
%ADD14C,1.752600*%
G04 APERTURE END LIST*
D10*
X168937003Y-155805807D02*
X169737003Y-156072474D01*
X169737003Y-156072474D02*
X168937003Y-156339140D01*
X169660812Y-157062950D02*
X169698908Y-157024854D01*
X169698908Y-157024854D02*
X169737003Y-156910569D01*
X169737003Y-156910569D02*
X169737003Y-156834378D01*
X169737003Y-156834378D02*
X169698908Y-156720092D01*
X169698908Y-156720092D02*
X169622717Y-156643902D01*
X169622717Y-156643902D02*
X169546527Y-156605807D01*
X169546527Y-156605807D02*
X169394146Y-156567711D01*
X169394146Y-156567711D02*
X169279860Y-156567711D01*
X169279860Y-156567711D02*
X169127479Y-156605807D01*
X169127479Y-156605807D02*
X169051288Y-156643902D01*
X169051288Y-156643902D02*
X168975098Y-156720092D01*
X168975098Y-156720092D02*
X168937003Y-156834378D01*
X168937003Y-156834378D02*
X168937003Y-156910569D01*
X168937003Y-156910569D02*
X168975098Y-157024854D01*
X168975098Y-157024854D02*
X169013193Y-157062950D01*
X169660812Y-157862950D02*
X169698908Y-157824854D01*
X169698908Y-157824854D02*
X169737003Y-157710569D01*
X169737003Y-157710569D02*
X169737003Y-157634378D01*
X169737003Y-157634378D02*
X169698908Y-157520092D01*
X169698908Y-157520092D02*
X169622717Y-157443902D01*
X169622717Y-157443902D02*
X169546527Y-157405807D01*
X169546527Y-157405807D02*
X169394146Y-157367711D01*
X169394146Y-157367711D02*
X169279860Y-157367711D01*
X169279860Y-157367711D02*
X169127479Y-157405807D01*
X169127479Y-157405807D02*
X169051288Y-157443902D01*
X169051288Y-157443902D02*
X168975098Y-157520092D01*
X168975098Y-157520092D02*
X168937003Y-157634378D01*
X168937003Y-157634378D02*
X168937003Y-157710569D01*
X168937003Y-157710569D02*
X168975098Y-157824854D01*
X168975098Y-157824854D02*
X169013193Y-157862950D01*
X164618908Y-155901045D02*
X164657003Y-156015331D01*
X164657003Y-156015331D02*
X164657003Y-156205807D01*
X164657003Y-156205807D02*
X164618908Y-156281998D01*
X164618908Y-156281998D02*
X164580812Y-156320093D01*
X164580812Y-156320093D02*
X164504622Y-156358188D01*
X164504622Y-156358188D02*
X164428431Y-156358188D01*
X164428431Y-156358188D02*
X164352241Y-156320093D01*
X164352241Y-156320093D02*
X164314146Y-156281998D01*
X164314146Y-156281998D02*
X164276050Y-156205807D01*
X164276050Y-156205807D02*
X164237955Y-156053426D01*
X164237955Y-156053426D02*
X164199860Y-155977236D01*
X164199860Y-155977236D02*
X164161765Y-155939141D01*
X164161765Y-155939141D02*
X164085574Y-155901045D01*
X164085574Y-155901045D02*
X164009384Y-155901045D01*
X164009384Y-155901045D02*
X163933193Y-155939141D01*
X163933193Y-155939141D02*
X163895098Y-155977236D01*
X163895098Y-155977236D02*
X163857003Y-156053426D01*
X163857003Y-156053426D02*
X163857003Y-156243903D01*
X163857003Y-156243903D02*
X163895098Y-156358188D01*
X164657003Y-156701046D02*
X163857003Y-156701046D01*
X163857003Y-156701046D02*
X163857003Y-156891522D01*
X163857003Y-156891522D02*
X163895098Y-157005808D01*
X163895098Y-157005808D02*
X163971288Y-157081998D01*
X163971288Y-157081998D02*
X164047479Y-157120093D01*
X164047479Y-157120093D02*
X164199860Y-157158189D01*
X164199860Y-157158189D02*
X164314146Y-157158189D01*
X164314146Y-157158189D02*
X164466527Y-157120093D01*
X164466527Y-157120093D02*
X164542717Y-157081998D01*
X164542717Y-157081998D02*
X164618908Y-157005808D01*
X164618908Y-157005808D02*
X164657003Y-156891522D01*
X164657003Y-156891522D02*
X164657003Y-156701046D01*
X164428431Y-157462950D02*
X164428431Y-157843903D01*
X164657003Y-157386760D02*
X163857003Y-157653427D01*
X163857003Y-157653427D02*
X164657003Y-157920093D01*
X174740814Y-156739142D02*
X174778910Y-156701046D01*
X174778910Y-156701046D02*
X174817005Y-156586761D01*
X174817005Y-156586761D02*
X174817005Y-156510570D01*
X174817005Y-156510570D02*
X174778910Y-156396284D01*
X174778910Y-156396284D02*
X174702719Y-156320094D01*
X174702719Y-156320094D02*
X174626529Y-156281999D01*
X174626529Y-156281999D02*
X174474148Y-156243903D01*
X174474148Y-156243903D02*
X174359862Y-156243903D01*
X174359862Y-156243903D02*
X174207481Y-156281999D01*
X174207481Y-156281999D02*
X174131290Y-156320094D01*
X174131290Y-156320094D02*
X174055100Y-156396284D01*
X174055100Y-156396284D02*
X174017005Y-156510570D01*
X174017005Y-156510570D02*
X174017005Y-156586761D01*
X174017005Y-156586761D02*
X174055100Y-156701046D01*
X174055100Y-156701046D02*
X174093195Y-156739142D01*
X174778910Y-157043903D02*
X174817005Y-157158189D01*
X174817005Y-157158189D02*
X174817005Y-157348665D01*
X174817005Y-157348665D02*
X174778910Y-157424856D01*
X174778910Y-157424856D02*
X174740814Y-157462951D01*
X174740814Y-157462951D02*
X174664624Y-157501046D01*
X174664624Y-157501046D02*
X174588433Y-157501046D01*
X174588433Y-157501046D02*
X174512243Y-157462951D01*
X174512243Y-157462951D02*
X174474148Y-157424856D01*
X174474148Y-157424856D02*
X174436052Y-157348665D01*
X174436052Y-157348665D02*
X174397957Y-157196284D01*
X174397957Y-157196284D02*
X174359862Y-157120094D01*
X174359862Y-157120094D02*
X174321767Y-157081999D01*
X174321767Y-157081999D02*
X174245576Y-157043903D01*
X174245576Y-157043903D02*
X174169386Y-157043903D01*
X174169386Y-157043903D02*
X174093195Y-157081999D01*
X174093195Y-157081999D02*
X174055100Y-157120094D01*
X174055100Y-157120094D02*
X174017005Y-157196284D01*
X174017005Y-157196284D02*
X174017005Y-157386761D01*
X174017005Y-157386761D02*
X174055100Y-157501046D01*
X167158908Y-155920092D02*
X167197003Y-156034378D01*
X167197003Y-156034378D02*
X167197003Y-156224854D01*
X167197003Y-156224854D02*
X167158908Y-156301045D01*
X167158908Y-156301045D02*
X167120812Y-156339140D01*
X167120812Y-156339140D02*
X167044622Y-156377235D01*
X167044622Y-156377235D02*
X166968431Y-156377235D01*
X166968431Y-156377235D02*
X166892241Y-156339140D01*
X166892241Y-156339140D02*
X166854146Y-156301045D01*
X166854146Y-156301045D02*
X166816050Y-156224854D01*
X166816050Y-156224854D02*
X166777955Y-156072473D01*
X166777955Y-156072473D02*
X166739860Y-155996283D01*
X166739860Y-155996283D02*
X166701765Y-155958188D01*
X166701765Y-155958188D02*
X166625574Y-155920092D01*
X166625574Y-155920092D02*
X166549384Y-155920092D01*
X166549384Y-155920092D02*
X166473193Y-155958188D01*
X166473193Y-155958188D02*
X166435098Y-155996283D01*
X166435098Y-155996283D02*
X166397003Y-156072473D01*
X166397003Y-156072473D02*
X166397003Y-156262950D01*
X166397003Y-156262950D02*
X166435098Y-156377235D01*
X167120812Y-157177236D02*
X167158908Y-157139140D01*
X167158908Y-157139140D02*
X167197003Y-157024855D01*
X167197003Y-157024855D02*
X167197003Y-156948664D01*
X167197003Y-156948664D02*
X167158908Y-156834378D01*
X167158908Y-156834378D02*
X167082717Y-156758188D01*
X167082717Y-156758188D02*
X167006527Y-156720093D01*
X167006527Y-156720093D02*
X166854146Y-156681997D01*
X166854146Y-156681997D02*
X166739860Y-156681997D01*
X166739860Y-156681997D02*
X166587479Y-156720093D01*
X166587479Y-156720093D02*
X166511288Y-156758188D01*
X166511288Y-156758188D02*
X166435098Y-156834378D01*
X166435098Y-156834378D02*
X166397003Y-156948664D01*
X166397003Y-156948664D02*
X166397003Y-157024855D01*
X166397003Y-157024855D02*
X166435098Y-157139140D01*
X166435098Y-157139140D02*
X166473193Y-157177236D01*
X167197003Y-157901045D02*
X167197003Y-157520093D01*
X167197003Y-157520093D02*
X166397003Y-157520093D01*
X171515098Y-156262950D02*
X171477003Y-156186760D01*
X171477003Y-156186760D02*
X171477003Y-156072474D01*
X171477003Y-156072474D02*
X171515098Y-155958188D01*
X171515098Y-155958188D02*
X171591288Y-155881998D01*
X171591288Y-155881998D02*
X171667479Y-155843903D01*
X171667479Y-155843903D02*
X171819860Y-155805807D01*
X171819860Y-155805807D02*
X171934146Y-155805807D01*
X171934146Y-155805807D02*
X172086527Y-155843903D01*
X172086527Y-155843903D02*
X172162717Y-155881998D01*
X172162717Y-155881998D02*
X172238908Y-155958188D01*
X172238908Y-155958188D02*
X172277003Y-156072474D01*
X172277003Y-156072474D02*
X172277003Y-156148665D01*
X172277003Y-156148665D02*
X172238908Y-156262950D01*
X172238908Y-156262950D02*
X172200812Y-156301046D01*
X172200812Y-156301046D02*
X171934146Y-156301046D01*
X171934146Y-156301046D02*
X171934146Y-156148665D01*
X172277003Y-156643903D02*
X171477003Y-156643903D01*
X171477003Y-156643903D02*
X172277003Y-157101046D01*
X172277003Y-157101046D02*
X171477003Y-157101046D01*
X172277003Y-157481998D02*
X171477003Y-157481998D01*
X171477003Y-157481998D02*
X171477003Y-157672474D01*
X171477003Y-157672474D02*
X171515098Y-157786760D01*
X171515098Y-157786760D02*
X171591288Y-157862950D01*
X171591288Y-157862950D02*
X171667479Y-157901045D01*
X171667479Y-157901045D02*
X171819860Y-157939141D01*
X171819860Y-157939141D02*
X171934146Y-157939141D01*
X171934146Y-157939141D02*
X172086527Y-157901045D01*
X172086527Y-157901045D02*
X172162717Y-157862950D01*
X172162717Y-157862950D02*
X172238908Y-157786760D01*
X172238908Y-157786760D02*
X172277003Y-157672474D01*
X172277003Y-157672474D02*
X172277003Y-157481998D01*
X164637516Y-140704764D02*
X164561326Y-140704764D01*
X164561326Y-140704764D02*
X164485135Y-140742859D01*
X164485135Y-140742859D02*
X164447040Y-140780954D01*
X164447040Y-140780954D02*
X164408945Y-140857145D01*
X164408945Y-140857145D02*
X164370850Y-141009526D01*
X164370850Y-141009526D02*
X164370850Y-141200002D01*
X164370850Y-141200002D02*
X164408945Y-141352383D01*
X164408945Y-141352383D02*
X164447040Y-141428573D01*
X164447040Y-141428573D02*
X164485135Y-141466669D01*
X164485135Y-141466669D02*
X164561326Y-141504764D01*
X164561326Y-141504764D02*
X164637516Y-141504764D01*
X164637516Y-141504764D02*
X164713707Y-141466669D01*
X164713707Y-141466669D02*
X164751802Y-141428573D01*
X164751802Y-141428573D02*
X164789897Y-141352383D01*
X164789897Y-141352383D02*
X164827993Y-141200002D01*
X164827993Y-141200002D02*
X164827993Y-141009526D01*
X164827993Y-141009526D02*
X164789897Y-140857145D01*
X164789897Y-140857145D02*
X164751802Y-140780954D01*
X164751802Y-140780954D02*
X164713707Y-140742859D01*
X164713707Y-140742859D02*
X164637516Y-140704764D01*
X163875611Y-140704764D02*
X163799421Y-140704764D01*
X163799421Y-140704764D02*
X163723230Y-140742859D01*
X163723230Y-140742859D02*
X163685135Y-140780954D01*
X163685135Y-140780954D02*
X163647040Y-140857145D01*
X163647040Y-140857145D02*
X163608945Y-141009526D01*
X163608945Y-141009526D02*
X163608945Y-141200002D01*
X163608945Y-141200002D02*
X163647040Y-141352383D01*
X163647040Y-141352383D02*
X163685135Y-141428573D01*
X163685135Y-141428573D02*
X163723230Y-141466669D01*
X163723230Y-141466669D02*
X163799421Y-141504764D01*
X163799421Y-141504764D02*
X163875611Y-141504764D01*
X163875611Y-141504764D02*
X163951802Y-141466669D01*
X163951802Y-141466669D02*
X163989897Y-141428573D01*
X163989897Y-141428573D02*
X164027992Y-141352383D01*
X164027992Y-141352383D02*
X164066088Y-141200002D01*
X164066088Y-141200002D02*
X164066088Y-141009526D01*
X164066088Y-141009526D02*
X164027992Y-140857145D01*
X164027992Y-140857145D02*
X163989897Y-140780954D01*
X163989897Y-140780954D02*
X163951802Y-140742859D01*
X163951802Y-140742859D02*
X163875611Y-140704764D01*
X163304183Y-140780954D02*
X163266087Y-140742859D01*
X163266087Y-140742859D02*
X163189897Y-140704764D01*
X163189897Y-140704764D02*
X162999421Y-140704764D01*
X162999421Y-140704764D02*
X162923230Y-140742859D01*
X162923230Y-140742859D02*
X162885135Y-140780954D01*
X162885135Y-140780954D02*
X162847040Y-140857145D01*
X162847040Y-140857145D02*
X162847040Y-140933335D01*
X162847040Y-140933335D02*
X162885135Y-141047621D01*
X162885135Y-141047621D02*
X163342278Y-141504764D01*
X163342278Y-141504764D02*
X162847040Y-141504764D01*
X164370853Y-144044767D02*
X164827996Y-144044767D01*
X164599424Y-144044767D02*
X164599424Y-143244767D01*
X164599424Y-143244767D02*
X164675615Y-143359052D01*
X164675615Y-143359052D02*
X164751805Y-143435243D01*
X164751805Y-143435243D02*
X164827996Y-143473338D01*
X163608948Y-144044767D02*
X164066091Y-144044767D01*
X163837519Y-144044767D02*
X163837519Y-143244767D01*
X163837519Y-143244767D02*
X163913710Y-143359052D01*
X163913710Y-143359052D02*
X163989900Y-143435243D01*
X163989900Y-143435243D02*
X164066091Y-143473338D01*
X162885138Y-143244767D02*
X163266090Y-143244767D01*
X163266090Y-143244767D02*
X163304186Y-143625719D01*
X163304186Y-143625719D02*
X163266090Y-143587624D01*
X163266090Y-143587624D02*
X163189900Y-143549529D01*
X163189900Y-143549529D02*
X162999424Y-143549529D01*
X162999424Y-143549529D02*
X162923233Y-143587624D01*
X162923233Y-143587624D02*
X162885138Y-143625719D01*
X162885138Y-143625719D02*
X162847043Y-143701910D01*
X162847043Y-143701910D02*
X162847043Y-143892386D01*
X162847043Y-143892386D02*
X162885138Y-143968576D01*
X162885138Y-143968576D02*
X162923233Y-144006672D01*
X162923233Y-144006672D02*
X162999424Y-144044767D01*
X162999424Y-144044767D02*
X163189900Y-144044767D01*
X163189900Y-144044767D02*
X163266090Y-144006672D01*
X163266090Y-144006672D02*
X163304186Y-143968576D01*
X175711896Y-140734764D02*
X175635706Y-140734764D01*
X175635706Y-140734764D02*
X175559515Y-140772859D01*
X175559515Y-140772859D02*
X175521420Y-140810954D01*
X175521420Y-140810954D02*
X175483325Y-140887145D01*
X175483325Y-140887145D02*
X175445230Y-141039526D01*
X175445230Y-141039526D02*
X175445230Y-141230002D01*
X175445230Y-141230002D02*
X175483325Y-141382383D01*
X175483325Y-141382383D02*
X175521420Y-141458573D01*
X175521420Y-141458573D02*
X175559515Y-141496669D01*
X175559515Y-141496669D02*
X175635706Y-141534764D01*
X175635706Y-141534764D02*
X175711896Y-141534764D01*
X175711896Y-141534764D02*
X175788087Y-141496669D01*
X175788087Y-141496669D02*
X175826182Y-141458573D01*
X175826182Y-141458573D02*
X175864277Y-141382383D01*
X175864277Y-141382383D02*
X175902373Y-141230002D01*
X175902373Y-141230002D02*
X175902373Y-141039526D01*
X175902373Y-141039526D02*
X175864277Y-140887145D01*
X175864277Y-140887145D02*
X175826182Y-140810954D01*
X175826182Y-140810954D02*
X175788087Y-140772859D01*
X175788087Y-140772859D02*
X175711896Y-140734764D01*
X175140468Y-140810954D02*
X175102372Y-140772859D01*
X175102372Y-140772859D02*
X175026182Y-140734764D01*
X175026182Y-140734764D02*
X174835706Y-140734764D01*
X174835706Y-140734764D02*
X174759515Y-140772859D01*
X174759515Y-140772859D02*
X174721420Y-140810954D01*
X174721420Y-140810954D02*
X174683325Y-140887145D01*
X174683325Y-140887145D02*
X174683325Y-140963335D01*
X174683325Y-140963335D02*
X174721420Y-141077621D01*
X174721420Y-141077621D02*
X175178563Y-141534764D01*
X175178563Y-141534764D02*
X174683325Y-141534764D01*
X174378563Y-140810954D02*
X174340467Y-140772859D01*
X174340467Y-140772859D02*
X174264277Y-140734764D01*
X174264277Y-140734764D02*
X174073801Y-140734764D01*
X174073801Y-140734764D02*
X173997610Y-140772859D01*
X173997610Y-140772859D02*
X173959515Y-140810954D01*
X173959515Y-140810954D02*
X173921420Y-140887145D01*
X173921420Y-140887145D02*
X173921420Y-140963335D01*
X173921420Y-140963335D02*
X173959515Y-141077621D01*
X173959515Y-141077621D02*
X174416658Y-141534764D01*
X174416658Y-141534764D02*
X173921420Y-141534764D01*
X175445231Y-151664764D02*
X175902374Y-151664764D01*
X175673802Y-151664764D02*
X175673802Y-150864764D01*
X175673802Y-150864764D02*
X175749993Y-150979049D01*
X175749993Y-150979049D02*
X175826183Y-151055240D01*
X175826183Y-151055240D02*
X175902374Y-151093335D01*
X174949992Y-150864764D02*
X174873802Y-150864764D01*
X174873802Y-150864764D02*
X174797611Y-150902859D01*
X174797611Y-150902859D02*
X174759516Y-150940954D01*
X174759516Y-150940954D02*
X174721421Y-151017145D01*
X174721421Y-151017145D02*
X174683326Y-151169526D01*
X174683326Y-151169526D02*
X174683326Y-151360002D01*
X174683326Y-151360002D02*
X174721421Y-151512383D01*
X174721421Y-151512383D02*
X174759516Y-151588573D01*
X174759516Y-151588573D02*
X174797611Y-151626669D01*
X174797611Y-151626669D02*
X174873802Y-151664764D01*
X174873802Y-151664764D02*
X174949992Y-151664764D01*
X174949992Y-151664764D02*
X175026183Y-151626669D01*
X175026183Y-151626669D02*
X175064278Y-151588573D01*
X175064278Y-151588573D02*
X175102373Y-151512383D01*
X175102373Y-151512383D02*
X175140469Y-151360002D01*
X175140469Y-151360002D02*
X175140469Y-151169526D01*
X175140469Y-151169526D02*
X175102373Y-151017145D01*
X175102373Y-151017145D02*
X175064278Y-150940954D01*
X175064278Y-150940954D02*
X175026183Y-150902859D01*
X175026183Y-150902859D02*
X174949992Y-150864764D01*
X173997611Y-151131430D02*
X173997611Y-151664764D01*
X174188087Y-150826669D02*
X174378564Y-151398097D01*
X174378564Y-151398097D02*
X173883325Y-151398097D01*
X175445239Y-146584764D02*
X175902382Y-146584764D01*
X175673810Y-146584764D02*
X175673810Y-145784764D01*
X175673810Y-145784764D02*
X175750001Y-145899049D01*
X175750001Y-145899049D02*
X175826191Y-145975240D01*
X175826191Y-145975240D02*
X175902382Y-146013335D01*
X174950000Y-145784764D02*
X174873810Y-145784764D01*
X174873810Y-145784764D02*
X174797619Y-145822859D01*
X174797619Y-145822859D02*
X174759524Y-145860954D01*
X174759524Y-145860954D02*
X174721429Y-145937145D01*
X174721429Y-145937145D02*
X174683334Y-146089526D01*
X174683334Y-146089526D02*
X174683334Y-146280002D01*
X174683334Y-146280002D02*
X174721429Y-146432383D01*
X174721429Y-146432383D02*
X174759524Y-146508573D01*
X174759524Y-146508573D02*
X174797619Y-146546669D01*
X174797619Y-146546669D02*
X174873810Y-146584764D01*
X174873810Y-146584764D02*
X174950000Y-146584764D01*
X174950000Y-146584764D02*
X175026191Y-146546669D01*
X175026191Y-146546669D02*
X175064286Y-146508573D01*
X175064286Y-146508573D02*
X175102381Y-146432383D01*
X175102381Y-146432383D02*
X175140477Y-146280002D01*
X175140477Y-146280002D02*
X175140477Y-146089526D01*
X175140477Y-146089526D02*
X175102381Y-145937145D01*
X175102381Y-145937145D02*
X175064286Y-145860954D01*
X175064286Y-145860954D02*
X175026191Y-145822859D01*
X175026191Y-145822859D02*
X174950000Y-145784764D01*
X174188095Y-145784764D02*
X174111905Y-145784764D01*
X174111905Y-145784764D02*
X174035714Y-145822859D01*
X174035714Y-145822859D02*
X173997619Y-145860954D01*
X173997619Y-145860954D02*
X173959524Y-145937145D01*
X173959524Y-145937145D02*
X173921429Y-146089526D01*
X173921429Y-146089526D02*
X173921429Y-146280002D01*
X173921429Y-146280002D02*
X173959524Y-146432383D01*
X173959524Y-146432383D02*
X173997619Y-146508573D01*
X173997619Y-146508573D02*
X174035714Y-146546669D01*
X174035714Y-146546669D02*
X174111905Y-146584764D01*
X174111905Y-146584764D02*
X174188095Y-146584764D01*
X174188095Y-146584764D02*
X174264286Y-146546669D01*
X174264286Y-146546669D02*
X174302381Y-146508573D01*
X174302381Y-146508573D02*
X174340476Y-146432383D01*
X174340476Y-146432383D02*
X174378572Y-146280002D01*
X174378572Y-146280002D02*
X174378572Y-146089526D01*
X174378572Y-146089526D02*
X174340476Y-145937145D01*
X174340476Y-145937145D02*
X174302381Y-145860954D01*
X174302381Y-145860954D02*
X174264286Y-145822859D01*
X174264286Y-145822859D02*
X174188095Y-145784764D01*
X175445231Y-133122859D02*
X175521421Y-133084764D01*
X175521421Y-133084764D02*
X175635707Y-133084764D01*
X175635707Y-133084764D02*
X175749993Y-133122859D01*
X175749993Y-133122859D02*
X175826183Y-133199049D01*
X175826183Y-133199049D02*
X175864278Y-133275240D01*
X175864278Y-133275240D02*
X175902374Y-133427621D01*
X175902374Y-133427621D02*
X175902374Y-133541907D01*
X175902374Y-133541907D02*
X175864278Y-133694288D01*
X175864278Y-133694288D02*
X175826183Y-133770478D01*
X175826183Y-133770478D02*
X175749993Y-133846669D01*
X175749993Y-133846669D02*
X175635707Y-133884764D01*
X175635707Y-133884764D02*
X175559516Y-133884764D01*
X175559516Y-133884764D02*
X175445231Y-133846669D01*
X175445231Y-133846669D02*
X175407135Y-133808573D01*
X175407135Y-133808573D02*
X175407135Y-133541907D01*
X175407135Y-133541907D02*
X175559516Y-133541907D01*
X175064278Y-133884764D02*
X175064278Y-133084764D01*
X175064278Y-133084764D02*
X174607135Y-133884764D01*
X174607135Y-133884764D02*
X174607135Y-133084764D01*
X174226183Y-133884764D02*
X174226183Y-133084764D01*
X174226183Y-133084764D02*
X174035707Y-133084764D01*
X174035707Y-133084764D02*
X173921421Y-133122859D01*
X173921421Y-133122859D02*
X173845231Y-133199049D01*
X173845231Y-133199049D02*
X173807136Y-133275240D01*
X173807136Y-133275240D02*
X173769040Y-133427621D01*
X173769040Y-133427621D02*
X173769040Y-133541907D01*
X173769040Y-133541907D02*
X173807136Y-133694288D01*
X173807136Y-133694288D02*
X173845231Y-133770478D01*
X173845231Y-133770478D02*
X173921421Y-133846669D01*
X173921421Y-133846669D02*
X174035707Y-133884764D01*
X174035707Y-133884764D02*
X174226183Y-133884764D01*
X175711897Y-135634764D02*
X175635707Y-135634764D01*
X175635707Y-135634764D02*
X175559516Y-135672859D01*
X175559516Y-135672859D02*
X175521421Y-135710954D01*
X175521421Y-135710954D02*
X175483326Y-135787145D01*
X175483326Y-135787145D02*
X175445231Y-135939526D01*
X175445231Y-135939526D02*
X175445231Y-136130002D01*
X175445231Y-136130002D02*
X175483326Y-136282383D01*
X175483326Y-136282383D02*
X175521421Y-136358573D01*
X175521421Y-136358573D02*
X175559516Y-136396669D01*
X175559516Y-136396669D02*
X175635707Y-136434764D01*
X175635707Y-136434764D02*
X175711897Y-136434764D01*
X175711897Y-136434764D02*
X175788088Y-136396669D01*
X175788088Y-136396669D02*
X175826183Y-136358573D01*
X175826183Y-136358573D02*
X175864278Y-136282383D01*
X175864278Y-136282383D02*
X175902374Y-136130002D01*
X175902374Y-136130002D02*
X175902374Y-135939526D01*
X175902374Y-135939526D02*
X175864278Y-135787145D01*
X175864278Y-135787145D02*
X175826183Y-135710954D01*
X175826183Y-135710954D02*
X175788088Y-135672859D01*
X175788088Y-135672859D02*
X175711897Y-135634764D01*
X174683326Y-136434764D02*
X175140469Y-136434764D01*
X174911897Y-136434764D02*
X174911897Y-135634764D01*
X174911897Y-135634764D02*
X174988088Y-135749049D01*
X174988088Y-135749049D02*
X175064278Y-135825240D01*
X175064278Y-135825240D02*
X175140469Y-135863335D01*
X174416659Y-135634764D02*
X173883325Y-135634764D01*
X173883325Y-135634764D02*
X174226183Y-136434764D01*
X164224802Y-131344764D02*
X164491469Y-130963811D01*
X164681945Y-131344764D02*
X164681945Y-130544764D01*
X164681945Y-130544764D02*
X164377183Y-130544764D01*
X164377183Y-130544764D02*
X164300993Y-130582859D01*
X164300993Y-130582859D02*
X164262898Y-130620954D01*
X164262898Y-130620954D02*
X164224802Y-130697145D01*
X164224802Y-130697145D02*
X164224802Y-130811430D01*
X164224802Y-130811430D02*
X164262898Y-130887621D01*
X164262898Y-130887621D02*
X164300993Y-130925716D01*
X164300993Y-130925716D02*
X164377183Y-130963811D01*
X164377183Y-130963811D02*
X164681945Y-130963811D01*
X163920041Y-131306669D02*
X163805755Y-131344764D01*
X163805755Y-131344764D02*
X163615279Y-131344764D01*
X163615279Y-131344764D02*
X163539088Y-131306669D01*
X163539088Y-131306669D02*
X163500993Y-131268573D01*
X163500993Y-131268573D02*
X163462898Y-131192383D01*
X163462898Y-131192383D02*
X163462898Y-131116192D01*
X163462898Y-131116192D02*
X163500993Y-131040002D01*
X163500993Y-131040002D02*
X163539088Y-131001907D01*
X163539088Y-131001907D02*
X163615279Y-130963811D01*
X163615279Y-130963811D02*
X163767660Y-130925716D01*
X163767660Y-130925716D02*
X163843850Y-130887621D01*
X163843850Y-130887621D02*
X163881945Y-130849526D01*
X163881945Y-130849526D02*
X163920041Y-130773335D01*
X163920041Y-130773335D02*
X163920041Y-130697145D01*
X163920041Y-130697145D02*
X163881945Y-130620954D01*
X163881945Y-130620954D02*
X163843850Y-130582859D01*
X163843850Y-130582859D02*
X163767660Y-130544764D01*
X163767660Y-130544764D02*
X163577183Y-130544764D01*
X163577183Y-130544764D02*
X163462898Y-130582859D01*
X163234326Y-130544764D02*
X162777183Y-130544764D01*
X163005755Y-131344764D02*
X163005755Y-130544764D01*
X175711895Y-125464764D02*
X175635705Y-125464764D01*
X175635705Y-125464764D02*
X175559514Y-125502859D01*
X175559514Y-125502859D02*
X175521419Y-125540954D01*
X175521419Y-125540954D02*
X175483324Y-125617145D01*
X175483324Y-125617145D02*
X175445229Y-125769526D01*
X175445229Y-125769526D02*
X175445229Y-125960002D01*
X175445229Y-125960002D02*
X175483324Y-126112383D01*
X175483324Y-126112383D02*
X175521419Y-126188573D01*
X175521419Y-126188573D02*
X175559514Y-126226669D01*
X175559514Y-126226669D02*
X175635705Y-126264764D01*
X175635705Y-126264764D02*
X175711895Y-126264764D01*
X175711895Y-126264764D02*
X175788086Y-126226669D01*
X175788086Y-126226669D02*
X175826181Y-126188573D01*
X175826181Y-126188573D02*
X175864276Y-126112383D01*
X175864276Y-126112383D02*
X175902372Y-125960002D01*
X175902372Y-125960002D02*
X175902372Y-125769526D01*
X175902372Y-125769526D02*
X175864276Y-125617145D01*
X175864276Y-125617145D02*
X175826181Y-125540954D01*
X175826181Y-125540954D02*
X175788086Y-125502859D01*
X175788086Y-125502859D02*
X175711895Y-125464764D01*
X174949990Y-125464764D02*
X174873800Y-125464764D01*
X174873800Y-125464764D02*
X174797609Y-125502859D01*
X174797609Y-125502859D02*
X174759514Y-125540954D01*
X174759514Y-125540954D02*
X174721419Y-125617145D01*
X174721419Y-125617145D02*
X174683324Y-125769526D01*
X174683324Y-125769526D02*
X174683324Y-125960002D01*
X174683324Y-125960002D02*
X174721419Y-126112383D01*
X174721419Y-126112383D02*
X174759514Y-126188573D01*
X174759514Y-126188573D02*
X174797609Y-126226669D01*
X174797609Y-126226669D02*
X174873800Y-126264764D01*
X174873800Y-126264764D02*
X174949990Y-126264764D01*
X174949990Y-126264764D02*
X175026181Y-126226669D01*
X175026181Y-126226669D02*
X175064276Y-126188573D01*
X175064276Y-126188573D02*
X175102371Y-126112383D01*
X175102371Y-126112383D02*
X175140467Y-125960002D01*
X175140467Y-125960002D02*
X175140467Y-125769526D01*
X175140467Y-125769526D02*
X175102371Y-125617145D01*
X175102371Y-125617145D02*
X175064276Y-125540954D01*
X175064276Y-125540954D02*
X175026181Y-125502859D01*
X175026181Y-125502859D02*
X174949990Y-125464764D01*
X173997609Y-125464764D02*
X174149990Y-125464764D01*
X174149990Y-125464764D02*
X174226181Y-125502859D01*
X174226181Y-125502859D02*
X174264276Y-125540954D01*
X174264276Y-125540954D02*
X174340466Y-125655240D01*
X174340466Y-125655240D02*
X174378562Y-125807621D01*
X174378562Y-125807621D02*
X174378562Y-126112383D01*
X174378562Y-126112383D02*
X174340466Y-126188573D01*
X174340466Y-126188573D02*
X174302371Y-126226669D01*
X174302371Y-126226669D02*
X174226181Y-126264764D01*
X174226181Y-126264764D02*
X174073800Y-126264764D01*
X174073800Y-126264764D02*
X173997609Y-126226669D01*
X173997609Y-126226669D02*
X173959514Y-126188573D01*
X173959514Y-126188573D02*
X173921419Y-126112383D01*
X173921419Y-126112383D02*
X173921419Y-125921907D01*
X173921419Y-125921907D02*
X173959514Y-125845716D01*
X173959514Y-125845716D02*
X173997609Y-125807621D01*
X173997609Y-125807621D02*
X174073800Y-125769526D01*
X174073800Y-125769526D02*
X174226181Y-125769526D01*
X174226181Y-125769526D02*
X174302371Y-125807621D01*
X174302371Y-125807621D02*
X174340466Y-125845716D01*
X174340466Y-125845716D02*
X174378562Y-125921907D01*
X164637516Y-138164763D02*
X164561326Y-138164763D01*
X164561326Y-138164763D02*
X164485135Y-138202858D01*
X164485135Y-138202858D02*
X164447040Y-138240953D01*
X164447040Y-138240953D02*
X164408945Y-138317144D01*
X164408945Y-138317144D02*
X164370850Y-138469525D01*
X164370850Y-138469525D02*
X164370850Y-138660001D01*
X164370850Y-138660001D02*
X164408945Y-138812382D01*
X164408945Y-138812382D02*
X164447040Y-138888572D01*
X164447040Y-138888572D02*
X164485135Y-138926668D01*
X164485135Y-138926668D02*
X164561326Y-138964763D01*
X164561326Y-138964763D02*
X164637516Y-138964763D01*
X164637516Y-138964763D02*
X164713707Y-138926668D01*
X164713707Y-138926668D02*
X164751802Y-138888572D01*
X164751802Y-138888572D02*
X164789897Y-138812382D01*
X164789897Y-138812382D02*
X164827993Y-138660001D01*
X164827993Y-138660001D02*
X164827993Y-138469525D01*
X164827993Y-138469525D02*
X164789897Y-138317144D01*
X164789897Y-138317144D02*
X164751802Y-138240953D01*
X164751802Y-138240953D02*
X164713707Y-138202858D01*
X164713707Y-138202858D02*
X164637516Y-138164763D01*
X164066088Y-138240953D02*
X164027992Y-138202858D01*
X164027992Y-138202858D02*
X163951802Y-138164763D01*
X163951802Y-138164763D02*
X163761326Y-138164763D01*
X163761326Y-138164763D02*
X163685135Y-138202858D01*
X163685135Y-138202858D02*
X163647040Y-138240953D01*
X163647040Y-138240953D02*
X163608945Y-138317144D01*
X163608945Y-138317144D02*
X163608945Y-138393334D01*
X163608945Y-138393334D02*
X163647040Y-138507620D01*
X163647040Y-138507620D02*
X164104183Y-138964763D01*
X164104183Y-138964763D02*
X163608945Y-138964763D01*
X163227992Y-138964763D02*
X163075611Y-138964763D01*
X163075611Y-138964763D02*
X162999421Y-138926668D01*
X162999421Y-138926668D02*
X162961325Y-138888572D01*
X162961325Y-138888572D02*
X162885135Y-138774287D01*
X162885135Y-138774287D02*
X162847040Y-138621906D01*
X162847040Y-138621906D02*
X162847040Y-138317144D01*
X162847040Y-138317144D02*
X162885135Y-138240953D01*
X162885135Y-138240953D02*
X162923230Y-138202858D01*
X162923230Y-138202858D02*
X162999421Y-138164763D01*
X162999421Y-138164763D02*
X163151802Y-138164763D01*
X163151802Y-138164763D02*
X163227992Y-138202858D01*
X163227992Y-138202858D02*
X163266087Y-138240953D01*
X163266087Y-138240953D02*
X163304183Y-138317144D01*
X163304183Y-138317144D02*
X163304183Y-138507620D01*
X163304183Y-138507620D02*
X163266087Y-138583810D01*
X163266087Y-138583810D02*
X163227992Y-138621906D01*
X163227992Y-138621906D02*
X163151802Y-138660001D01*
X163151802Y-138660001D02*
X162999421Y-138660001D01*
X162999421Y-138660001D02*
X162923230Y-138621906D01*
X162923230Y-138621906D02*
X162885135Y-138583810D01*
X162885135Y-138583810D02*
X162847040Y-138507620D01*
X164370841Y-146584765D02*
X164827984Y-146584765D01*
X164599412Y-146584765D02*
X164599412Y-145784765D01*
X164599412Y-145784765D02*
X164675603Y-145899050D01*
X164675603Y-145899050D02*
X164751793Y-145975241D01*
X164751793Y-145975241D02*
X164827984Y-146013336D01*
X163608936Y-146584765D02*
X164066079Y-146584765D01*
X163837507Y-146584765D02*
X163837507Y-145784765D01*
X163837507Y-145784765D02*
X163913698Y-145899050D01*
X163913698Y-145899050D02*
X163989888Y-145975241D01*
X163989888Y-145975241D02*
X164066079Y-146013336D01*
X163342269Y-145784765D02*
X162847031Y-145784765D01*
X162847031Y-145784765D02*
X163113697Y-146089527D01*
X163113697Y-146089527D02*
X162999412Y-146089527D01*
X162999412Y-146089527D02*
X162923221Y-146127622D01*
X162923221Y-146127622D02*
X162885126Y-146165717D01*
X162885126Y-146165717D02*
X162847031Y-146241908D01*
X162847031Y-146241908D02*
X162847031Y-146432384D01*
X162847031Y-146432384D02*
X162885126Y-146508574D01*
X162885126Y-146508574D02*
X162923221Y-146546670D01*
X162923221Y-146546670D02*
X162999412Y-146584765D01*
X162999412Y-146584765D02*
X163227983Y-146584765D01*
X163227983Y-146584765D02*
X163304174Y-146546670D01*
X163304174Y-146546670D02*
X163342269Y-146508574D01*
X164529564Y-128042859D02*
X164605754Y-128004764D01*
X164605754Y-128004764D02*
X164720040Y-128004764D01*
X164720040Y-128004764D02*
X164834326Y-128042859D01*
X164834326Y-128042859D02*
X164910516Y-128119049D01*
X164910516Y-128119049D02*
X164948611Y-128195240D01*
X164948611Y-128195240D02*
X164986707Y-128347621D01*
X164986707Y-128347621D02*
X164986707Y-128461907D01*
X164986707Y-128461907D02*
X164948611Y-128614288D01*
X164948611Y-128614288D02*
X164910516Y-128690478D01*
X164910516Y-128690478D02*
X164834326Y-128766669D01*
X164834326Y-128766669D02*
X164720040Y-128804764D01*
X164720040Y-128804764D02*
X164643849Y-128804764D01*
X164643849Y-128804764D02*
X164529564Y-128766669D01*
X164529564Y-128766669D02*
X164491468Y-128728573D01*
X164491468Y-128728573D02*
X164491468Y-128461907D01*
X164491468Y-128461907D02*
X164643849Y-128461907D01*
X164148611Y-128804764D02*
X164148611Y-128004764D01*
X164148611Y-128004764D02*
X163691468Y-128804764D01*
X163691468Y-128804764D02*
X163691468Y-128004764D01*
X163310516Y-128804764D02*
X163310516Y-128004764D01*
X163310516Y-128004764D02*
X163120040Y-128004764D01*
X163120040Y-128004764D02*
X163005754Y-128042859D01*
X163005754Y-128042859D02*
X162929564Y-128119049D01*
X162929564Y-128119049D02*
X162891469Y-128195240D01*
X162891469Y-128195240D02*
X162853373Y-128347621D01*
X162853373Y-128347621D02*
X162853373Y-128461907D01*
X162853373Y-128461907D02*
X162891469Y-128614288D01*
X162891469Y-128614288D02*
X162929564Y-128690478D01*
X162929564Y-128690478D02*
X163005754Y-128766669D01*
X163005754Y-128766669D02*
X163120040Y-128804764D01*
X163120040Y-128804764D02*
X163310516Y-128804764D01*
X175711897Y-138234764D02*
X175635707Y-138234764D01*
X175635707Y-138234764D02*
X175559516Y-138272859D01*
X175559516Y-138272859D02*
X175521421Y-138310954D01*
X175521421Y-138310954D02*
X175483326Y-138387145D01*
X175483326Y-138387145D02*
X175445231Y-138539526D01*
X175445231Y-138539526D02*
X175445231Y-138730002D01*
X175445231Y-138730002D02*
X175483326Y-138882383D01*
X175483326Y-138882383D02*
X175521421Y-138958573D01*
X175521421Y-138958573D02*
X175559516Y-138996669D01*
X175559516Y-138996669D02*
X175635707Y-139034764D01*
X175635707Y-139034764D02*
X175711897Y-139034764D01*
X175711897Y-139034764D02*
X175788088Y-138996669D01*
X175788088Y-138996669D02*
X175826183Y-138958573D01*
X175826183Y-138958573D02*
X175864278Y-138882383D01*
X175864278Y-138882383D02*
X175902374Y-138730002D01*
X175902374Y-138730002D02*
X175902374Y-138539526D01*
X175902374Y-138539526D02*
X175864278Y-138387145D01*
X175864278Y-138387145D02*
X175826183Y-138310954D01*
X175826183Y-138310954D02*
X175788088Y-138272859D01*
X175788088Y-138272859D02*
X175711897Y-138234764D01*
X175140469Y-138310954D02*
X175102373Y-138272859D01*
X175102373Y-138272859D02*
X175026183Y-138234764D01*
X175026183Y-138234764D02*
X174835707Y-138234764D01*
X174835707Y-138234764D02*
X174759516Y-138272859D01*
X174759516Y-138272859D02*
X174721421Y-138310954D01*
X174721421Y-138310954D02*
X174683326Y-138387145D01*
X174683326Y-138387145D02*
X174683326Y-138463335D01*
X174683326Y-138463335D02*
X174721421Y-138577621D01*
X174721421Y-138577621D02*
X175178564Y-139034764D01*
X175178564Y-139034764D02*
X174683326Y-139034764D01*
X174188087Y-138234764D02*
X174111897Y-138234764D01*
X174111897Y-138234764D02*
X174035706Y-138272859D01*
X174035706Y-138272859D02*
X173997611Y-138310954D01*
X173997611Y-138310954D02*
X173959516Y-138387145D01*
X173959516Y-138387145D02*
X173921421Y-138539526D01*
X173921421Y-138539526D02*
X173921421Y-138730002D01*
X173921421Y-138730002D02*
X173959516Y-138882383D01*
X173959516Y-138882383D02*
X173997611Y-138958573D01*
X173997611Y-138958573D02*
X174035706Y-138996669D01*
X174035706Y-138996669D02*
X174111897Y-139034764D01*
X174111897Y-139034764D02*
X174188087Y-139034764D01*
X174188087Y-139034764D02*
X174264278Y-138996669D01*
X174264278Y-138996669D02*
X174302373Y-138958573D01*
X174302373Y-138958573D02*
X174340468Y-138882383D01*
X174340468Y-138882383D02*
X174378564Y-138730002D01*
X174378564Y-138730002D02*
X174378564Y-138539526D01*
X174378564Y-138539526D02*
X174340468Y-138387145D01*
X174340468Y-138387145D02*
X174302373Y-138310954D01*
X174302373Y-138310954D02*
X174264278Y-138272859D01*
X174264278Y-138272859D02*
X174188087Y-138234764D01*
X164637521Y-135624764D02*
X164561331Y-135624764D01*
X164561331Y-135624764D02*
X164485140Y-135662859D01*
X164485140Y-135662859D02*
X164447045Y-135700954D01*
X164447045Y-135700954D02*
X164408950Y-135777145D01*
X164408950Y-135777145D02*
X164370855Y-135929526D01*
X164370855Y-135929526D02*
X164370855Y-136120002D01*
X164370855Y-136120002D02*
X164408950Y-136272383D01*
X164408950Y-136272383D02*
X164447045Y-136348573D01*
X164447045Y-136348573D02*
X164485140Y-136386669D01*
X164485140Y-136386669D02*
X164561331Y-136424764D01*
X164561331Y-136424764D02*
X164637521Y-136424764D01*
X164637521Y-136424764D02*
X164713712Y-136386669D01*
X164713712Y-136386669D02*
X164751807Y-136348573D01*
X164751807Y-136348573D02*
X164789902Y-136272383D01*
X164789902Y-136272383D02*
X164827998Y-136120002D01*
X164827998Y-136120002D02*
X164827998Y-135929526D01*
X164827998Y-135929526D02*
X164789902Y-135777145D01*
X164789902Y-135777145D02*
X164751807Y-135700954D01*
X164751807Y-135700954D02*
X164713712Y-135662859D01*
X164713712Y-135662859D02*
X164637521Y-135624764D01*
X164104188Y-135624764D02*
X163608950Y-135624764D01*
X163608950Y-135624764D02*
X163875616Y-135929526D01*
X163875616Y-135929526D02*
X163761331Y-135929526D01*
X163761331Y-135929526D02*
X163685140Y-135967621D01*
X163685140Y-135967621D02*
X163647045Y-136005716D01*
X163647045Y-136005716D02*
X163608950Y-136081907D01*
X163608950Y-136081907D02*
X163608950Y-136272383D01*
X163608950Y-136272383D02*
X163647045Y-136348573D01*
X163647045Y-136348573D02*
X163685140Y-136386669D01*
X163685140Y-136386669D02*
X163761331Y-136424764D01*
X163761331Y-136424764D02*
X163989902Y-136424764D01*
X163989902Y-136424764D02*
X164066093Y-136386669D01*
X164066093Y-136386669D02*
X164104188Y-136348573D01*
X162847045Y-136424764D02*
X163304188Y-136424764D01*
X163075616Y-136424764D02*
X163075616Y-135624764D01*
X163075616Y-135624764D02*
X163151807Y-135739049D01*
X163151807Y-135739049D02*
X163227997Y-135815240D01*
X163227997Y-135815240D02*
X163304188Y-135853335D01*
X175711897Y-143244764D02*
X175635707Y-143244764D01*
X175635707Y-143244764D02*
X175559516Y-143282859D01*
X175559516Y-143282859D02*
X175521421Y-143320954D01*
X175521421Y-143320954D02*
X175483326Y-143397145D01*
X175483326Y-143397145D02*
X175445231Y-143549526D01*
X175445231Y-143549526D02*
X175445231Y-143740002D01*
X175445231Y-143740002D02*
X175483326Y-143892383D01*
X175483326Y-143892383D02*
X175521421Y-143968573D01*
X175521421Y-143968573D02*
X175559516Y-144006669D01*
X175559516Y-144006669D02*
X175635707Y-144044764D01*
X175635707Y-144044764D02*
X175711897Y-144044764D01*
X175711897Y-144044764D02*
X175788088Y-144006669D01*
X175788088Y-144006669D02*
X175826183Y-143968573D01*
X175826183Y-143968573D02*
X175864278Y-143892383D01*
X175864278Y-143892383D02*
X175902374Y-143740002D01*
X175902374Y-143740002D02*
X175902374Y-143549526D01*
X175902374Y-143549526D02*
X175864278Y-143397145D01*
X175864278Y-143397145D02*
X175826183Y-143320954D01*
X175826183Y-143320954D02*
X175788088Y-143282859D01*
X175788088Y-143282859D02*
X175711897Y-143244764D01*
X175140469Y-143320954D02*
X175102373Y-143282859D01*
X175102373Y-143282859D02*
X175026183Y-143244764D01*
X175026183Y-143244764D02*
X174835707Y-143244764D01*
X174835707Y-143244764D02*
X174759516Y-143282859D01*
X174759516Y-143282859D02*
X174721421Y-143320954D01*
X174721421Y-143320954D02*
X174683326Y-143397145D01*
X174683326Y-143397145D02*
X174683326Y-143473335D01*
X174683326Y-143473335D02*
X174721421Y-143587621D01*
X174721421Y-143587621D02*
X175178564Y-144044764D01*
X175178564Y-144044764D02*
X174683326Y-144044764D01*
X173997611Y-143511430D02*
X173997611Y-144044764D01*
X174188087Y-143206669D02*
X174378564Y-143778097D01*
X174378564Y-143778097D02*
X173883325Y-143778097D01*
X175445230Y-130582857D02*
X175521420Y-130544762D01*
X175521420Y-130544762D02*
X175635706Y-130544762D01*
X175635706Y-130544762D02*
X175749992Y-130582857D01*
X175749992Y-130582857D02*
X175826182Y-130659047D01*
X175826182Y-130659047D02*
X175864277Y-130735238D01*
X175864277Y-130735238D02*
X175902373Y-130887619D01*
X175902373Y-130887619D02*
X175902373Y-131001905D01*
X175902373Y-131001905D02*
X175864277Y-131154286D01*
X175864277Y-131154286D02*
X175826182Y-131230476D01*
X175826182Y-131230476D02*
X175749992Y-131306667D01*
X175749992Y-131306667D02*
X175635706Y-131344762D01*
X175635706Y-131344762D02*
X175559515Y-131344762D01*
X175559515Y-131344762D02*
X175445230Y-131306667D01*
X175445230Y-131306667D02*
X175407134Y-131268571D01*
X175407134Y-131268571D02*
X175407134Y-131001905D01*
X175407134Y-131001905D02*
X175559515Y-131001905D01*
X175064277Y-131344762D02*
X175064277Y-130544762D01*
X175064277Y-130544762D02*
X174607134Y-131344762D01*
X174607134Y-131344762D02*
X174607134Y-130544762D01*
X174226182Y-131344762D02*
X174226182Y-130544762D01*
X174226182Y-130544762D02*
X174035706Y-130544762D01*
X174035706Y-130544762D02*
X173921420Y-130582857D01*
X173921420Y-130582857D02*
X173845230Y-130659047D01*
X173845230Y-130659047D02*
X173807135Y-130735238D01*
X173807135Y-130735238D02*
X173769039Y-130887619D01*
X173769039Y-130887619D02*
X173769039Y-131001905D01*
X173769039Y-131001905D02*
X173807135Y-131154286D01*
X173807135Y-131154286D02*
X173845230Y-131230476D01*
X173845230Y-131230476D02*
X173921420Y-131306667D01*
X173921420Y-131306667D02*
X174035706Y-131344762D01*
X174035706Y-131344762D02*
X174226182Y-131344762D01*
X175711896Y-127934764D02*
X175635706Y-127934764D01*
X175635706Y-127934764D02*
X175559515Y-127972859D01*
X175559515Y-127972859D02*
X175521420Y-128010954D01*
X175521420Y-128010954D02*
X175483325Y-128087145D01*
X175483325Y-128087145D02*
X175445230Y-128239526D01*
X175445230Y-128239526D02*
X175445230Y-128430002D01*
X175445230Y-128430002D02*
X175483325Y-128582383D01*
X175483325Y-128582383D02*
X175521420Y-128658573D01*
X175521420Y-128658573D02*
X175559515Y-128696669D01*
X175559515Y-128696669D02*
X175635706Y-128734764D01*
X175635706Y-128734764D02*
X175711896Y-128734764D01*
X175711896Y-128734764D02*
X175788087Y-128696669D01*
X175788087Y-128696669D02*
X175826182Y-128658573D01*
X175826182Y-128658573D02*
X175864277Y-128582383D01*
X175864277Y-128582383D02*
X175902373Y-128430002D01*
X175902373Y-128430002D02*
X175902373Y-128239526D01*
X175902373Y-128239526D02*
X175864277Y-128087145D01*
X175864277Y-128087145D02*
X175826182Y-128010954D01*
X175826182Y-128010954D02*
X175788087Y-127972859D01*
X175788087Y-127972859D02*
X175711896Y-127934764D01*
X174949991Y-127934764D02*
X174873801Y-127934764D01*
X174873801Y-127934764D02*
X174797610Y-127972859D01*
X174797610Y-127972859D02*
X174759515Y-128010954D01*
X174759515Y-128010954D02*
X174721420Y-128087145D01*
X174721420Y-128087145D02*
X174683325Y-128239526D01*
X174683325Y-128239526D02*
X174683325Y-128430002D01*
X174683325Y-128430002D02*
X174721420Y-128582383D01*
X174721420Y-128582383D02*
X174759515Y-128658573D01*
X174759515Y-128658573D02*
X174797610Y-128696669D01*
X174797610Y-128696669D02*
X174873801Y-128734764D01*
X174873801Y-128734764D02*
X174949991Y-128734764D01*
X174949991Y-128734764D02*
X175026182Y-128696669D01*
X175026182Y-128696669D02*
X175064277Y-128658573D01*
X175064277Y-128658573D02*
X175102372Y-128582383D01*
X175102372Y-128582383D02*
X175140468Y-128430002D01*
X175140468Y-128430002D02*
X175140468Y-128239526D01*
X175140468Y-128239526D02*
X175102372Y-128087145D01*
X175102372Y-128087145D02*
X175064277Y-128010954D01*
X175064277Y-128010954D02*
X175026182Y-127972859D01*
X175026182Y-127972859D02*
X174949991Y-127934764D01*
X174226182Y-128277621D02*
X174302372Y-128239526D01*
X174302372Y-128239526D02*
X174340467Y-128201430D01*
X174340467Y-128201430D02*
X174378563Y-128125240D01*
X174378563Y-128125240D02*
X174378563Y-128087145D01*
X174378563Y-128087145D02*
X174340467Y-128010954D01*
X174340467Y-128010954D02*
X174302372Y-127972859D01*
X174302372Y-127972859D02*
X174226182Y-127934764D01*
X174226182Y-127934764D02*
X174073801Y-127934764D01*
X174073801Y-127934764D02*
X173997610Y-127972859D01*
X173997610Y-127972859D02*
X173959515Y-128010954D01*
X173959515Y-128010954D02*
X173921420Y-128087145D01*
X173921420Y-128087145D02*
X173921420Y-128125240D01*
X173921420Y-128125240D02*
X173959515Y-128201430D01*
X173959515Y-128201430D02*
X173997610Y-128239526D01*
X173997610Y-128239526D02*
X174073801Y-128277621D01*
X174073801Y-128277621D02*
X174226182Y-128277621D01*
X174226182Y-128277621D02*
X174302372Y-128315716D01*
X174302372Y-128315716D02*
X174340467Y-128353811D01*
X174340467Y-128353811D02*
X174378563Y-128430002D01*
X174378563Y-128430002D02*
X174378563Y-128582383D01*
X174378563Y-128582383D02*
X174340467Y-128658573D01*
X174340467Y-128658573D02*
X174302372Y-128696669D01*
X174302372Y-128696669D02*
X174226182Y-128734764D01*
X174226182Y-128734764D02*
X174073801Y-128734764D01*
X174073801Y-128734764D02*
X173997610Y-128696669D01*
X173997610Y-128696669D02*
X173959515Y-128658573D01*
X173959515Y-128658573D02*
X173921420Y-128582383D01*
X173921420Y-128582383D02*
X173921420Y-128430002D01*
X173921420Y-128430002D02*
X173959515Y-128353811D01*
X173959515Y-128353811D02*
X173997610Y-128315716D01*
X173997610Y-128315716D02*
X174073801Y-128277621D01*
X164370850Y-149124764D02*
X164827993Y-149124764D01*
X164599421Y-149124764D02*
X164599421Y-148324764D01*
X164599421Y-148324764D02*
X164675612Y-148439049D01*
X164675612Y-148439049D02*
X164751802Y-148515240D01*
X164751802Y-148515240D02*
X164827993Y-148553335D01*
X163608945Y-149124764D02*
X164066088Y-149124764D01*
X163837516Y-149124764D02*
X163837516Y-148324764D01*
X163837516Y-148324764D02*
X163913707Y-148439049D01*
X163913707Y-148439049D02*
X163989897Y-148515240D01*
X163989897Y-148515240D02*
X164066088Y-148553335D01*
X162847040Y-149124764D02*
X163304183Y-149124764D01*
X163075611Y-149124764D02*
X163075611Y-148324764D01*
X163075611Y-148324764D02*
X163151802Y-148439049D01*
X163151802Y-148439049D02*
X163227992Y-148515240D01*
X163227992Y-148515240D02*
X163304183Y-148553335D01*
X164637516Y-150864764D02*
X164561326Y-150864764D01*
X164561326Y-150864764D02*
X164485135Y-150902859D01*
X164485135Y-150902859D02*
X164447040Y-150940954D01*
X164447040Y-150940954D02*
X164408945Y-151017145D01*
X164408945Y-151017145D02*
X164370850Y-151169526D01*
X164370850Y-151169526D02*
X164370850Y-151360002D01*
X164370850Y-151360002D02*
X164408945Y-151512383D01*
X164408945Y-151512383D02*
X164447040Y-151588573D01*
X164447040Y-151588573D02*
X164485135Y-151626669D01*
X164485135Y-151626669D02*
X164561326Y-151664764D01*
X164561326Y-151664764D02*
X164637516Y-151664764D01*
X164637516Y-151664764D02*
X164713707Y-151626669D01*
X164713707Y-151626669D02*
X164751802Y-151588573D01*
X164751802Y-151588573D02*
X164789897Y-151512383D01*
X164789897Y-151512383D02*
X164827993Y-151360002D01*
X164827993Y-151360002D02*
X164827993Y-151169526D01*
X164827993Y-151169526D02*
X164789897Y-151017145D01*
X164789897Y-151017145D02*
X164751802Y-150940954D01*
X164751802Y-150940954D02*
X164713707Y-150902859D01*
X164713707Y-150902859D02*
X164637516Y-150864764D01*
X163608945Y-151664764D02*
X164066088Y-151664764D01*
X163837516Y-151664764D02*
X163837516Y-150864764D01*
X163837516Y-150864764D02*
X163913707Y-150979049D01*
X163913707Y-150979049D02*
X163989897Y-151055240D01*
X163989897Y-151055240D02*
X164066088Y-151093335D01*
X163113706Y-150864764D02*
X163037516Y-150864764D01*
X163037516Y-150864764D02*
X162961325Y-150902859D01*
X162961325Y-150902859D02*
X162923230Y-150940954D01*
X162923230Y-150940954D02*
X162885135Y-151017145D01*
X162885135Y-151017145D02*
X162847040Y-151169526D01*
X162847040Y-151169526D02*
X162847040Y-151360002D01*
X162847040Y-151360002D02*
X162885135Y-151512383D01*
X162885135Y-151512383D02*
X162923230Y-151588573D01*
X162923230Y-151588573D02*
X162961325Y-151626669D01*
X162961325Y-151626669D02*
X163037516Y-151664764D01*
X163037516Y-151664764D02*
X163113706Y-151664764D01*
X163113706Y-151664764D02*
X163189897Y-151626669D01*
X163189897Y-151626669D02*
X163227992Y-151588573D01*
X163227992Y-151588573D02*
X163266087Y-151512383D01*
X163266087Y-151512383D02*
X163304183Y-151360002D01*
X163304183Y-151360002D02*
X163304183Y-151169526D01*
X163304183Y-151169526D02*
X163266087Y-151017145D01*
X163266087Y-151017145D02*
X163227992Y-150940954D01*
X163227992Y-150940954D02*
X163189897Y-150902859D01*
X163189897Y-150902859D02*
X163113706Y-150864764D01*
X164904177Y-133084766D02*
X164637510Y-133884766D01*
X164637510Y-133884766D02*
X164370844Y-133084766D01*
X163647034Y-133808575D02*
X163685130Y-133846671D01*
X163685130Y-133846671D02*
X163799415Y-133884766D01*
X163799415Y-133884766D02*
X163875606Y-133884766D01*
X163875606Y-133884766D02*
X163989892Y-133846671D01*
X163989892Y-133846671D02*
X164066082Y-133770480D01*
X164066082Y-133770480D02*
X164104177Y-133694290D01*
X164104177Y-133694290D02*
X164142273Y-133541909D01*
X164142273Y-133541909D02*
X164142273Y-133427623D01*
X164142273Y-133427623D02*
X164104177Y-133275242D01*
X164104177Y-133275242D02*
X164066082Y-133199051D01*
X164066082Y-133199051D02*
X163989892Y-133122861D01*
X163989892Y-133122861D02*
X163875606Y-133084766D01*
X163875606Y-133084766D02*
X163799415Y-133084766D01*
X163799415Y-133084766D02*
X163685130Y-133122861D01*
X163685130Y-133122861D02*
X163647034Y-133160956D01*
X162847034Y-133808575D02*
X162885130Y-133846671D01*
X162885130Y-133846671D02*
X162999415Y-133884766D01*
X162999415Y-133884766D02*
X163075606Y-133884766D01*
X163075606Y-133884766D02*
X163189892Y-133846671D01*
X163189892Y-133846671D02*
X163266082Y-133770480D01*
X163266082Y-133770480D02*
X163304177Y-133694290D01*
X163304177Y-133694290D02*
X163342273Y-133541909D01*
X163342273Y-133541909D02*
X163342273Y-133427623D01*
X163342273Y-133427623D02*
X163304177Y-133275242D01*
X163304177Y-133275242D02*
X163266082Y-133199051D01*
X163266082Y-133199051D02*
X163189892Y-133122861D01*
X163189892Y-133122861D02*
X163075606Y-133084766D01*
X163075606Y-133084766D02*
X162999415Y-133084766D01*
X162999415Y-133084766D02*
X162885130Y-133122861D01*
X162885130Y-133122861D02*
X162847034Y-133160956D01*
X164453373Y-126264764D02*
X164720040Y-125883811D01*
X164910516Y-126264764D02*
X164910516Y-125464764D01*
X164910516Y-125464764D02*
X164605754Y-125464764D01*
X164605754Y-125464764D02*
X164529564Y-125502859D01*
X164529564Y-125502859D02*
X164491469Y-125540954D01*
X164491469Y-125540954D02*
X164453373Y-125617145D01*
X164453373Y-125617145D02*
X164453373Y-125731430D01*
X164453373Y-125731430D02*
X164491469Y-125807621D01*
X164491469Y-125807621D02*
X164529564Y-125845716D01*
X164529564Y-125845716D02*
X164605754Y-125883811D01*
X164605754Y-125883811D02*
X164910516Y-125883811D01*
X164148612Y-126036192D02*
X163767659Y-126036192D01*
X164224802Y-126264764D02*
X163958135Y-125464764D01*
X163958135Y-125464764D02*
X163691469Y-126264764D01*
X163500993Y-125464764D02*
X163310517Y-126264764D01*
X163310517Y-126264764D02*
X163158136Y-125693335D01*
X163158136Y-125693335D02*
X163005755Y-126264764D01*
X163005755Y-126264764D02*
X162815279Y-125464764D01*
%TO.C,T1*%
X181254711Y-150672473D02*
X184104704Y-150672472D01*
X181254712Y-144072469D02*
X181254711Y-150672473D01*
X184104705Y-144072470D02*
X181254712Y-144072469D01*
X184104708Y-149322471D02*
X184104708Y-145422471D01*
X184104711Y-147372470D02*
X184104704Y-150672472D01*
X184104711Y-147372470D02*
X184104705Y-144072470D01*
D11*
%TO.C,B1*%
X181444708Y-133522482D02*
X181444707Y-128822483D01*
X183019703Y-128722481D02*
X183569710Y-128722485D01*
X183019704Y-133622481D02*
X183569711Y-133622485D01*
X185144706Y-129747484D02*
X185144706Y-128822484D01*
X185144707Y-133522483D02*
X185144707Y-132597477D01*
D10*
%TO.C,JST1*%
X184964713Y-175022469D02*
X184964713Y-180922469D01*
X184964713Y-180922469D02*
X192564706Y-180922466D01*
X189464713Y-176722469D02*
X189464713Y-177222469D01*
X189714713Y-176972469D02*
X189214706Y-176972469D01*
X190964714Y-175722461D02*
X192564713Y-175722470D01*
X190964714Y-180222475D02*
X190964714Y-175722461D01*
X192564706Y-180922466D02*
X192564713Y-180222469D01*
X192564711Y-175022463D02*
X184964713Y-175022469D01*
X192564713Y-175722470D02*
X192564711Y-175022463D01*
X192564713Y-180222469D02*
X190964714Y-180222475D01*
D12*
%TO.C,D19*%
X168957544Y-208507514D02*
X169531091Y-208070435D01*
X169335752Y-208637743D02*
X169172968Y-209110502D01*
X169531091Y-208070435D02*
X169011057Y-207891371D01*
X169531091Y-208070435D02*
X169713954Y-208767966D01*
X169531091Y-208070435D02*
X170051128Y-208249490D01*
X169661320Y-207692224D02*
X169531091Y-208070435D01*
X169713954Y-208767966D02*
X168957544Y-208507514D01*
%TO.C,D13*%
X139974717Y-163822463D02*
X140374717Y-163222465D01*
X140374717Y-162822462D02*
X140374717Y-163222465D01*
X140374717Y-163222465D02*
X139824715Y-163222469D01*
X140374717Y-163222465D02*
X140774715Y-163822462D01*
X140374717Y-163222465D02*
X140924719Y-163222466D01*
X140374717Y-163822468D02*
X140374717Y-164322464D01*
X140774715Y-163822462D02*
X139974717Y-163822463D01*
D11*
%TO.C,LED6*%
X88380025Y-127457702D02*
X88685324Y-129028300D01*
X88685324Y-129028300D02*
X87114710Y-129333595D01*
%TO.C,LED11*%
X134174709Y-142372471D02*
X134174711Y-143972468D01*
X134174711Y-143972468D02*
X132574708Y-143972467D01*
D12*
%TO.C,D10*%
X121974715Y-163822475D02*
X122374715Y-163222477D01*
X122374715Y-162822474D02*
X122374715Y-163222477D01*
X122374715Y-163222477D02*
X121824713Y-163222481D01*
X122374715Y-163222477D02*
X122774713Y-163822474D01*
X122374715Y-163222477D02*
X122924717Y-163222478D01*
X122374715Y-163822480D02*
X122374715Y-164322476D01*
X122774713Y-163822474D02*
X121974715Y-163822475D01*
D11*
%TO.C,LED3*%
X64602924Y-147095462D02*
X65228094Y-148568272D01*
X65228094Y-148568272D02*
X63755286Y-149193440D01*
D12*
%TO.C,D11*%
X121974711Y-146822468D02*
X122374711Y-146222470D01*
X122374711Y-145822467D02*
X122374711Y-146222470D01*
X122374711Y-146222470D02*
X121824709Y-146222474D01*
X122374711Y-146222470D02*
X122774709Y-146822467D01*
X122374711Y-146222470D02*
X122924713Y-146222471D01*
X122374711Y-146822473D02*
X122374711Y-147322469D01*
X122774709Y-146822467D02*
X121974711Y-146822468D01*
%TO.C,D14*%
X139974697Y-146822462D02*
X140374697Y-146222464D01*
X140374697Y-145822461D02*
X140374697Y-146222464D01*
X140374697Y-146222464D02*
X139824695Y-146222468D01*
X140374697Y-146222464D02*
X140774695Y-146822461D01*
X140374697Y-146222464D02*
X140924699Y-146222465D01*
X140374697Y-146822467D02*
X140374697Y-147322463D01*
X140774695Y-146822461D02*
X139974697Y-146822462D01*
%TO.C,D5*%
X80497034Y-150841494D02*
X80775197Y-150176198D01*
X80698875Y-149783544D02*
X80775197Y-150176198D01*
X80775197Y-150176198D02*
X80235303Y-150281145D01*
X80775197Y-150176198D02*
X81282330Y-150688848D01*
X80775197Y-150176198D02*
X81315101Y-150071252D01*
X80889684Y-150765179D02*
X80985089Y-151255984D01*
X81282330Y-150688848D02*
X80497034Y-150841494D01*
D11*
%TO.C,LED16*%
X144825212Y-187571842D02*
X143279737Y-187157732D01*
X145239322Y-186026360D02*
X144825212Y-187571842D01*
D12*
%TO.C,D7*%
X102357933Y-157824325D02*
X102715101Y-157197891D01*
X102687199Y-156798865D02*
X102715101Y-157197891D01*
X102715101Y-157197891D02*
X102166439Y-157236265D01*
X102715101Y-157197891D02*
X103155981Y-157768526D01*
X102715101Y-157197891D02*
X103263761Y-157159528D01*
X102756955Y-157796429D02*
X102791833Y-158295211D01*
X103155981Y-157768526D02*
X102357933Y-157824325D01*
D11*
%TO.C,LED18*%
X161838986Y-178351377D02*
X163369074Y-178819172D01*
X163369074Y-178819172D02*
X162901274Y-180349256D01*
D12*
%TO.C,D9*%
X99986240Y-123907143D02*
X100343408Y-123280709D01*
X100315506Y-122881683D02*
X100343408Y-123280709D01*
X100343408Y-123280709D02*
X99794746Y-123319083D01*
X100343408Y-123280709D02*
X100784288Y-123851344D01*
X100343408Y-123280709D02*
X100892068Y-123242346D01*
X100385262Y-123879247D02*
X100420140Y-124378029D01*
X100784288Y-123851344D02*
X99986240Y-123907143D01*
D11*
%TO.C,LED5*%
X91623790Y-144145391D02*
X91929089Y-145715989D01*
X91929089Y-145715989D02*
X90358475Y-146021284D01*
D12*
%TO.C,D20*%
X179292335Y-199533254D02*
X179670546Y-199663483D01*
X179670546Y-199663483D02*
X179491482Y-200183517D01*
X179670546Y-199663483D02*
X179849601Y-199143446D01*
X179670546Y-199663483D02*
X180368077Y-199480620D01*
X180107625Y-200237030D02*
X179670546Y-199663483D01*
X180237854Y-199858822D02*
X180710613Y-200021606D01*
X180368077Y-199480620D02*
X180107625Y-200237030D01*
D11*
%TO.C,LED19*%
X181420727Y-209784707D02*
X179907897Y-209263798D01*
X181941636Y-208271877D02*
X181420727Y-209784707D01*
%TO.C,LED8*%
X113031953Y-135575544D02*
X113143571Y-137171643D01*
X113143571Y-137171643D02*
X111547461Y-137283250D01*
D12*
%TO.C,D21*%
X178774708Y-167122474D02*
X179574706Y-167122473D01*
X179174706Y-167122468D02*
X179174706Y-166622472D01*
X179174706Y-167722471D02*
X178624704Y-167722470D01*
X179174706Y-167722471D02*
X178774708Y-167122474D01*
X179174706Y-167722471D02*
X179724708Y-167722467D01*
X179174706Y-168122474D02*
X179174706Y-167722471D01*
X179574706Y-167122473D02*
X179174706Y-167722471D01*
%TO.C,D4*%
X83740783Y-167529156D02*
X84018946Y-166863860D01*
X83942624Y-166471206D02*
X84018946Y-166863860D01*
X84018946Y-166863860D02*
X83479052Y-166968807D01*
X84018946Y-166863860D02*
X84526079Y-167376510D01*
X84018946Y-166863860D02*
X84558850Y-166758914D01*
X84133433Y-167452841D02*
X84228838Y-167943646D01*
X84526079Y-167376510D02*
X83740783Y-167529156D01*
D11*
%TO.C,LED17*%
X164173121Y-200815386D02*
X162643037Y-200347586D01*
X164640916Y-199285298D02*
X164173121Y-200815386D01*
%TO.C,LED4*%
X94867524Y-160833041D02*
X95172823Y-162403639D01*
X95172823Y-162403639D02*
X93602209Y-162708934D01*
D12*
%TO.C,D1*%
X68373857Y-186178985D02*
X68530149Y-186547187D01*
X68396384Y-187255778D02*
X68530149Y-186547187D01*
X68530149Y-186547187D02*
X68023872Y-186762086D01*
X68530149Y-186547187D02*
X69036427Y-186332291D01*
X68530149Y-186547187D02*
X69132788Y-186943197D01*
X68764591Y-187099489D02*
X68959953Y-187559743D01*
X69132788Y-186943197D02*
X68396384Y-187255778D01*
D11*
%TO.C,LED1*%
X77887797Y-178392634D02*
X78512967Y-179865444D01*
X78512967Y-179865444D02*
X77040159Y-180490612D01*
D12*
%TO.C,D2*%
X61731441Y-170530430D02*
X61887733Y-170898632D01*
X61753968Y-171607223D02*
X61887733Y-170898632D01*
X61887733Y-170898632D02*
X61381456Y-171113531D01*
X61887733Y-170898632D02*
X62394011Y-170683736D01*
X61887733Y-170898632D02*
X62490372Y-171294642D01*
X62122175Y-171450934D02*
X62317537Y-171911188D01*
X62490372Y-171294642D02*
X61753968Y-171607223D01*
D11*
%TO.C,LED7*%
X114217809Y-152534148D02*
X114329427Y-154130247D01*
X114329427Y-154130247D02*
X112733317Y-154241854D01*
%TO.C,LED15*%
X152174703Y-125372473D02*
X152174705Y-126972470D01*
X152174705Y-126972470D02*
X150574702Y-126972469D01*
D12*
%TO.C,D6*%
X77253279Y-134153809D02*
X77531442Y-133488513D01*
X77455120Y-133095859D02*
X77531442Y-133488513D01*
X77531442Y-133488513D02*
X76991548Y-133593460D01*
X77531442Y-133488513D02*
X78038575Y-134001163D01*
X77531442Y-133488513D02*
X78071346Y-133383567D01*
X77645929Y-134077494D02*
X77741334Y-134568299D01*
X78038575Y-134001163D02*
X77253279Y-134153809D01*
D11*
%TO.C,LED10*%
X134174712Y-159372477D02*
X134174714Y-160972474D01*
X134174714Y-160972474D02*
X132574711Y-160972473D01*
D12*
%TO.C,D8*%
X101172083Y-140865737D02*
X101529251Y-140239303D01*
X101501349Y-139840277D02*
X101529251Y-140239303D01*
X101529251Y-140239303D02*
X100980589Y-140277677D01*
X101529251Y-140239303D02*
X101970131Y-140809938D01*
X101529251Y-140239303D02*
X102077911Y-140200940D01*
X101571105Y-140837841D02*
X101605983Y-141336623D01*
X101970131Y-140809938D02*
X101172083Y-140865737D01*
%TO.C,D18*%
X161688240Y-190644460D02*
X162070768Y-190761408D01*
X162070768Y-190761408D02*
X161909959Y-191287382D01*
X162070768Y-190761408D02*
X162231570Y-190235443D01*
X162070768Y-190761408D02*
X162761485Y-190554312D01*
X162527597Y-191319352D02*
X162070768Y-190761408D01*
X162644545Y-190936832D02*
X163122698Y-191083018D01*
X162761485Y-190554312D02*
X162527597Y-191319352D01*
D11*
%TO.C,LED14*%
X152174719Y-142372458D02*
X152174721Y-143972455D01*
X152174721Y-143972455D02*
X150574718Y-143972454D01*
D12*
%TO.C,D17*%
X151672947Y-199973934D02*
X152230891Y-199517105D01*
X152055467Y-200090882D02*
X151909281Y-200569035D01*
X152230891Y-199517105D02*
X151704917Y-199356296D01*
X152230891Y-199517105D02*
X152437987Y-200207822D01*
X152230891Y-199517105D02*
X152756856Y-199677907D01*
X152347839Y-199134577D02*
X152230891Y-199517105D01*
X152437987Y-200207822D02*
X151672947Y-199973934D01*
%TO.C,D16*%
X132303284Y-187167134D02*
X132844946Y-186691111D01*
X132689654Y-187270667D02*
X132560245Y-187753623D01*
X132844946Y-186691111D02*
X132313684Y-186548758D01*
X132844946Y-186691111D02*
X133076025Y-187374187D01*
X132844946Y-186691111D02*
X133376206Y-186833460D01*
X132948473Y-186304735D02*
X132844946Y-186691111D01*
X133076025Y-187374187D02*
X132303284Y-187167134D01*
%TO.C,D15*%
X139974719Y-129822470D02*
X140374719Y-129222472D01*
X140374719Y-128822469D02*
X140374719Y-129222472D01*
X140374719Y-129222472D02*
X139824717Y-129222476D01*
X140374719Y-129222472D02*
X140774717Y-129822469D01*
X140374719Y-129222472D02*
X140924721Y-129222473D01*
X140374719Y-129822475D02*
X140374719Y-130322471D01*
X140774717Y-129822469D02*
X139974719Y-129822470D01*
D11*
%TO.C,LED13*%
X152174720Y-159372464D02*
X152174722Y-160972461D01*
X152174722Y-160972461D02*
X150574719Y-160972460D01*
D13*
%TO.C,MCU1*%
X160484707Y-155112469D02*
X178264709Y-155112468D01*
X160484708Y-122092469D02*
X160484707Y-155112469D01*
X178264708Y-122092469D02*
X160484708Y-122092469D01*
X178264709Y-155112468D02*
X178264708Y-122092469D01*
D11*
%TO.C,LED9*%
X111846091Y-118616955D02*
X111957709Y-120213054D01*
X111957709Y-120213054D02*
X110361599Y-120324661D01*
%TO.C,LED12*%
X134174714Y-125372468D02*
X134174716Y-126972465D01*
X134174716Y-126972465D02*
X132574713Y-126972464D01*
%TO.C,LED20*%
X179872012Y-187252920D02*
X181384842Y-187773829D01*
X181384842Y-187773829D02*
X180863933Y-189286659D01*
D12*
%TO.C,D12*%
X121974717Y-129822465D02*
X122374717Y-129222467D01*
X122374717Y-128822464D02*
X122374717Y-129222467D01*
X122374717Y-129222467D02*
X121824715Y-129222471D01*
X122374717Y-129222467D02*
X122774715Y-129822464D01*
X122374717Y-129222467D02*
X122924719Y-129222468D01*
X122374717Y-129822470D02*
X122374717Y-130322466D01*
X122774715Y-129822464D02*
X121974717Y-129822465D01*
%TO.C,D3*%
X55089008Y-154881848D02*
X55245300Y-155250050D01*
X55111535Y-155958641D02*
X55245300Y-155250050D01*
X55245300Y-155250050D02*
X54739023Y-155464949D01*
X55245300Y-155250050D02*
X55751578Y-155035154D01*
X55245300Y-155250050D02*
X55847939Y-155646060D01*
X55479742Y-155802352D02*
X55675104Y-156262606D01*
X55847939Y-155646060D02*
X55111535Y-155958641D01*
D11*
%TO.C,LED2*%
X71245357Y-162744055D02*
X71870527Y-164216865D01*
X71870527Y-164216865D02*
X70397719Y-164842033D01*
%TD*%
D14*
%TO.C,MCU1*%
X176994704Y-125902472D03*
X176994709Y-128442471D03*
X176994708Y-130982468D03*
X176994708Y-133522469D03*
X176994711Y-136062467D03*
X176994707Y-138602468D03*
X176994705Y-141142472D03*
X176994713Y-143682469D03*
X176994709Y-146222469D03*
X176994708Y-148762471D03*
X176994709Y-151302471D03*
X176994715Y-153842463D03*
X161754712Y-153842466D03*
X161754707Y-151302467D03*
X161754708Y-148762470D03*
X161754708Y-146222469D03*
X161754705Y-143682471D03*
X161754709Y-141142470D03*
X161754711Y-138602466D03*
X161754703Y-136062469D03*
X161754707Y-133522469D03*
X161754708Y-130982467D03*
X161754707Y-128442467D03*
X161754701Y-125902475D03*
X164294707Y-148762469D03*
X166834708Y-148762468D03*
X169374708Y-148762469D03*
%TD*%
M02*
