%TF.GenerationSoftware,KiCad,Pcbnew,9.0.5*%
%TF.CreationDate,2025-11-08T17:13:18+10:00*%
%TF.ProjectId,badWingsLeft,62616457-696e-4677-934c-6566742e6b69,v1.0.0*%
%TF.SameCoordinates,Original*%
%TF.FileFunction,Soldermask,Bot*%
%TF.FilePolarity,Negative*%
%FSLAX46Y46*%
G04 Gerber Fmt 4.6, Leading zero omitted, Abs format (unit mm)*
G04 Created by KiCad (PCBNEW 9.0.5) date 2025-11-08 17:13:18*
%MOMM*%
%LPD*%
G01*
G04 APERTURE LIST*
G04 Aperture macros list*
%AMRoundRect*
0 Rectangle with rounded corners*
0 $1 Rounding radius*
0 $2 $3 $4 $5 $6 $7 $8 $9 X,Y pos of 4 corners*
0 Add a 4 corners polygon primitive as box body*
4,1,4,$2,$3,$4,$5,$6,$7,$8,$9,$2,$3,0*
0 Add four circle primitives for the rounded corners*
1,1,$1+$1,$2,$3*
1,1,$1+$1,$4,$5*
1,1,$1+$1,$6,$7*
1,1,$1+$1,$8,$9*
0 Add four rect primitives between the rounded corners*
20,1,$1+$1,$2,$3,$4,$5,0*
20,1,$1+$1,$4,$5,$6,$7,0*
20,1,$1+$1,$6,$7,$8,$9,0*
20,1,$1+$1,$8,$9,$2,$3,0*%
G04 Aperture macros list end*
%ADD10RoundRect,0.050000X-0.450000X0.450000X-0.450000X-0.450000X0.450000X-0.450000X0.450000X0.450000X0*%
%ADD11C,1.100000*%
%ADD12RoundRect,0.050000X-0.625000X0.450000X-0.625000X-0.450000X0.625000X-0.450000X0.625000X0.450000X0*%
%ADD13C,1.801800*%
%ADD14C,3.100000*%
%ADD15C,3.529000*%
%ADD16RoundRect,0.050000X1.206150X1.387517X-1.387517X1.206150X-1.206150X-1.387517X1.387517X-1.206150X0*%
%ADD17C,0.800000*%
%ADD18C,4.500000*%
%ADD19C,0.850000*%
%ADD20RoundRect,0.050000X-0.500000X0.775000X-0.500000X-0.775000X0.500000X-0.775000X0.500000X0.775000X0*%
%ADD21RoundRect,0.050000X0.688706X1.704607X-1.704607X0.688706X-0.688706X-1.704607X1.704607X-0.688706X0*%
%ADD22RoundRect,0.050000X-0.850000X0.600000X-0.850000X-0.600000X0.850000X-0.600000X0.850000X0.600000X0*%
%ADD23O,1.800000X1.300000*%
%ADD24RoundRect,0.050000X1.028064X1.524167X-1.524167X1.028064X-1.028064X-1.524167X1.524167X-1.028064X0*%
%ADD25RoundRect,0.050000X1.592168X0.919239X-0.919239X1.592168X-1.592168X-0.919239X0.919239X-1.592168X0*%
%ADD26RoundRect,0.050000X1.300000X1.300000X-1.300000X1.300000X-1.300000X-1.300000X1.300000X-1.300000X0*%
%ADD27RoundRect,0.050000X-0.863113X1.623279X-1.623279X-0.863113X0.863113X-1.623279X1.623279X0.863113X0*%
%ADD28O,1.800000X1.800000*%
%ADD29RoundRect,0.050000X-0.850000X-0.850000X0.850000X-0.850000X0.850000X0.850000X-0.850000X0.850000X0*%
%ADD30RoundRect,0.050000X1.623279X0.863113X-0.863113X1.623279X-1.623279X-0.863113X0.863113X-1.623279X0*%
%ADD31RoundRect,0.050000X-0.805936X1.652413X-1.652413X-0.805936X0.805936X-1.652413X1.652413X0.805936X0*%
%ADD32RoundRect,0.050000X1.652413X0.805936X-0.805936X1.652413X-1.652413X-0.805936X0.805936X-1.652413X0*%
%ADD33RoundRect,0.050000X1.600000X1.000000X-1.600000X1.000000X-1.600000X-1.000000X1.600000X-1.000000X0*%
%ADD34C,1.600000*%
%ADD35RoundRect,0.050000X1.000000X1.000000X-1.000000X1.000000X-1.000000X-1.000000X1.000000X-1.000000X0*%
%ADD36C,2.100000*%
%ADD37RoundRect,0.050000X-0.420805X0.620824X-0.713817X-0.230142X0.420805X-0.620824X0.713817X0.230142X0*%
%ADD38RoundRect,0.050000X-0.600000X0.450000X-0.600000X-0.450000X0.600000X-0.450000X0.600000X0.450000X0*%
%ADD39RoundRect,0.050000X0.591735X0.624380X-0.782544X0.357247X-0.591735X-0.624380X0.782544X-0.357247X0*%
%ADD40RoundRect,0.050000X0.700000X0.500000X-0.700000X0.500000X-0.700000X-0.500000X0.700000X-0.500000X0*%
%ADD41RoundRect,0.050000X0.448988X0.733764X-0.839719X0.186741X-0.448988X-0.733764X0.839719X-0.186741X0*%
%ADD42RoundRect,0.050000X-0.674840X0.327247X-0.503112X-0.556218X0.674840X-0.327247X0.503112X0.556218X0*%
%ADD43RoundRect,0.050000X0.805558X0.301790X-0.546739X0.664136X-0.805558X-0.301790X0.546739X-0.664136X0*%
%ADD44RoundRect,0.050000X-0.629929X0.407050X-0.567148X-0.490758X0.629929X-0.407050X0.567148X0.490758X0*%
%ADD45RoundRect,0.050000X-0.273492X0.815599X-0.682813X-0.523227X0.273492X-0.815599X0.682813X0.523227X0*%
%ADD46RoundRect,0.050000X-0.620824X-0.420805X0.230142X-0.713817X0.620824X0.420805X-0.230142X0.713817X0*%
%ADD47RoundRect,0.050000X0.824647X0.244862X-0.499079X0.700657X-0.824647X-0.244862X0.499079X-0.700657X0*%
%ADD48RoundRect,0.050000X0.663417X0.547612X-0.733173X0.449952X-0.663417X-0.547612X0.733173X-0.449952X0*%
%ADD49RoundRect,0.050000X0.600000X-0.450000X0.600000X0.450000X-0.600000X0.450000X-0.600000X-0.450000X0*%
%ADD50RoundRect,0.050000X0.815599X0.273492X-0.523227X0.682813X-0.815599X-0.273492X0.523227X-0.682813X0*%
%ADD51RoundRect,0.050000X-0.728132X0.179789X-0.376474X-0.648666X0.728132X-0.179789X0.376474X0.648666X0*%
%ADD52RoundRect,0.050000X-0.605760X-0.442216X0.254914X-0.705350X0.605760X0.442216X-0.254914X0.705350X0*%
%ADD53RoundRect,0.050000X-0.442216X0.605760X-0.705350X-0.254914X0.442216X-0.605760X0.705350X0.254914X0*%
%ADD54RoundRect,0.050000X-0.463087X0.589958X-0.696024X-0.279375X0.463087X-0.589958X0.696024X0.279375X0*%
%ADD55C,1.852600*%
%ADD56RoundRect,0.050000X-0.244862X0.824647X-0.700657X-0.499079X0.244862X-0.824647X0.700657X0.499079X0*%
G04 APERTURE END LIST*
D10*
%TO.C,T1*%
X183854703Y-143672470D03*
X181654714Y-143672470D03*
D11*
X182754709Y-145872470D03*
X182754707Y-148872472D03*
D10*
X183854702Y-151072472D03*
X181654713Y-151072472D03*
D12*
X180679707Y-145122471D03*
X180679708Y-148122472D03*
X180679708Y-149622471D03*
%TD*%
D13*
%TO.C,S8*%
X115076583Y-140444784D03*
D14*
X110005038Y-146763959D03*
D15*
X109589981Y-140828445D03*
D14*
X104863745Y-144918095D03*
D13*
X104103379Y-141212106D03*
D16*
X113272052Y-146535500D03*
X101596724Y-145146542D03*
%TD*%
D17*
%TO.C,_78*%
X72753381Y-143619263D03*
X72874420Y-142362222D03*
X73556655Y-144593713D03*
X73848870Y-141558948D03*
D18*
X74331283Y-143136850D03*
D17*
X74813696Y-144714752D03*
X75105911Y-141679987D03*
X75788146Y-143911478D03*
X75909185Y-142654437D03*
%TD*%
D19*
%TO.C,B1*%
X181919707Y-131172482D03*
X184669707Y-131172484D03*
D20*
X184144707Y-128547483D03*
X184144707Y-133797483D03*
X182444707Y-128547483D03*
X182444707Y-133797483D03*
%TD*%
D13*
%TO.C,S1*%
X81406313Y-182330918D03*
D14*
X78668384Y-189956938D03*
D15*
X76343534Y-184479934D03*
D14*
X73206249Y-189885485D03*
D13*
X71280755Y-186628950D03*
D21*
X81683039Y-188677293D03*
X70191598Y-191165126D03*
%TD*%
D22*
%TO.C,JST1*%
X191214711Y-176972469D03*
D23*
X191214715Y-178972469D03*
%TD*%
D17*
%TO.C,_79*%
X137724722Y-138872471D03*
X138207996Y-137705745D03*
X138207996Y-140039197D03*
X139374722Y-137222471D03*
D18*
X139374722Y-138872471D03*
D17*
X139374722Y-140522471D03*
X140541448Y-137705745D03*
X140541448Y-140039197D03*
X141024722Y-138872471D03*
%TD*%
D13*
%TO.C,S4*%
X97490343Y-165416808D03*
D15*
X92091391Y-166466257D03*
D14*
X93226706Y-172306951D03*
X87898785Y-171101406D03*
D13*
X86692439Y-167515706D03*
D24*
X96441532Y-171682037D03*
X84683962Y-171726302D03*
%TD*%
D17*
%TO.C,_81*%
X113551190Y-169522018D03*
X113951900Y-168324423D03*
X114114674Y-170652191D03*
X115082073Y-167760939D03*
D18*
X115197171Y-169406920D03*
D17*
X115312269Y-171052901D03*
X116279668Y-168161649D03*
X116442442Y-170489417D03*
X116843152Y-169291822D03*
%TD*%
%TO.C,_80*%
X193524713Y-177972461D03*
X194007987Y-176805735D03*
X194007987Y-179139187D03*
X195174713Y-176322461D03*
D18*
X195174713Y-177972461D03*
D17*
X195174713Y-179622461D03*
X196341439Y-176805735D03*
X196341439Y-179139187D03*
X196824713Y-177972461D03*
%TD*%
D13*
%TO.C,S6*%
X91002847Y-132041472D03*
D15*
X85603895Y-133090921D03*
D14*
X86739210Y-138931615D03*
X81411289Y-137726070D03*
D13*
X80204943Y-134140370D03*
D24*
X89954036Y-138306701D03*
X78196466Y-138350966D03*
%TD*%
D13*
%TO.C,S16*%
X145587315Y-191295963D03*
D14*
X138734753Y-195619721D03*
D15*
X140274726Y-189872460D03*
D14*
X134474518Y-192200587D03*
D13*
X134962137Y-188448957D03*
D25*
X141898160Y-196467351D03*
X131311119Y-191352947D03*
%TD*%
D13*
%TO.C,S5*%
X94246606Y-148729136D03*
D15*
X88847654Y-149778585D03*
D14*
X89982969Y-155619279D03*
X84655048Y-154413734D03*
D13*
X83448702Y-150828034D03*
D24*
X93197795Y-154994365D03*
X81440225Y-155038630D03*
%TD*%
D13*
%TO.C,S7*%
X116262461Y-157403375D03*
D14*
X111190916Y-163722550D03*
D15*
X110775859Y-157787036D03*
D14*
X106049623Y-161876686D03*
D13*
X105289257Y-158170697D03*
D16*
X114457930Y-163494091D03*
X102782602Y-162105133D03*
%TD*%
D13*
%TO.C,S3*%
X68121441Y-151033763D03*
D14*
X65383512Y-158659783D03*
D15*
X63058662Y-153182779D03*
D14*
X59921377Y-158588330D03*
D13*
X57995883Y-155331795D03*
D21*
X68398167Y-157380138D03*
X56906726Y-159867971D03*
%TD*%
D13*
%TO.C,S13*%
X153874713Y-164372470D03*
D14*
X148374718Y-170322476D03*
D15*
X148374713Y-164372470D03*
D14*
X143374713Y-168122470D03*
D13*
X142874713Y-164372470D03*
D26*
X151649713Y-170322470D03*
X140099715Y-168122470D03*
%TD*%
D13*
%TO.C,S18*%
X167117551Y-178187516D03*
D14*
X171199526Y-185186805D03*
D15*
X165509507Y-183447192D03*
D14*
X167633791Y-189325110D03*
D13*
X163901463Y-188706868D03*
D27*
X172157038Y-182054906D03*
X166676268Y-192457007D03*
%TD*%
D28*
%TO.C,niceView1*%
X174454707Y-159072472D03*
D29*
X171914710Y-159072473D03*
D28*
X169374708Y-159072474D03*
X166834708Y-159072473D03*
X164294713Y-159072474D03*
%TD*%
D13*
%TO.C,S14*%
X153874705Y-147372487D03*
D14*
X148374710Y-153322493D03*
D15*
X148374705Y-147372487D03*
D14*
X143374705Y-151122487D03*
D13*
X142874705Y-147372487D03*
D26*
X151649705Y-153322487D03*
X140099707Y-151122487D03*
%TD*%
D17*
%TO.C,_76*%
X169645013Y-198353841D03*
X169545931Y-197094879D03*
X170605296Y-199174000D03*
X170366090Y-196134596D03*
D18*
X171115174Y-197604757D03*
D17*
X171864258Y-199074918D03*
X171625052Y-196035514D03*
X172684417Y-198114635D03*
X172585335Y-196855673D03*
%TD*%
D13*
%TO.C,S15*%
X153874711Y-130372482D03*
D14*
X148374716Y-136322488D03*
D15*
X148374711Y-130372482D03*
D14*
X143374711Y-134122482D03*
D13*
X142874711Y-130372482D03*
D26*
X151649711Y-136322482D03*
X140099713Y-134122482D03*
%TD*%
D17*
%TO.C,_85*%
X180384709Y-123672467D03*
X180867983Y-122505741D03*
X180867983Y-124839193D03*
X182034709Y-122022467D03*
D18*
X182034709Y-123672467D03*
D17*
X182034709Y-125322467D03*
X183201435Y-122505741D03*
X183201435Y-124839193D03*
X183684709Y-123672467D03*
%TD*%
D13*
%TO.C,S9*%
X113890741Y-123486190D03*
D14*
X108819196Y-129805365D03*
D15*
X108404139Y-123869851D03*
D14*
X103677903Y-127959501D03*
D13*
X102917537Y-124253512D03*
D16*
X112086210Y-129576906D03*
X100410882Y-128187948D03*
%TD*%
D13*
%TO.C,S12*%
X135874721Y-130372471D03*
D14*
X130374726Y-136322477D03*
D15*
X130374721Y-130372471D03*
D14*
X125374721Y-134122471D03*
D13*
X124874721Y-130372471D03*
D26*
X133649721Y-136322471D03*
X122099723Y-134122471D03*
%TD*%
D17*
%TO.C,_84*%
X175524694Y-174232469D03*
X176007968Y-173065743D03*
X176007968Y-175399195D03*
X177174694Y-172582469D03*
D18*
X177174694Y-174232469D03*
D17*
X177174694Y-175882469D03*
X178341420Y-173065743D03*
X178341420Y-175399195D03*
X178824694Y-174232469D03*
%TD*%
%TO.C,_77*%
X89179568Y-181955567D03*
X89300607Y-180698526D03*
X89982842Y-182930017D03*
X90275057Y-179895252D03*
D18*
X90757470Y-181473154D03*
D17*
X91239883Y-183051056D03*
X91532098Y-180016291D03*
X92214333Y-182247782D03*
X92335372Y-180990741D03*
%TD*%
D13*
%TO.C,S11*%
X135874727Y-147372465D03*
D14*
X130374732Y-153322471D03*
D15*
X130374727Y-147372465D03*
D14*
X125374727Y-151122465D03*
D13*
X124874727Y-147372465D03*
D26*
X133649727Y-153322465D03*
X122099729Y-151122465D03*
%TD*%
D13*
%TO.C,S17*%
X164804793Y-204563872D03*
D14*
X157805504Y-208645847D03*
D15*
X159545117Y-202955828D03*
D14*
X153667199Y-205080112D03*
D13*
X154285441Y-201347784D03*
D30*
X160937403Y-209603359D03*
X150535302Y-204122589D03*
%TD*%
D13*
%TO.C,S2*%
X74763875Y-166682350D03*
D14*
X72025946Y-174308370D03*
D15*
X69701096Y-168831366D03*
D14*
X66563811Y-174236917D03*
D13*
X64638317Y-170980382D03*
D21*
X75040601Y-173028725D03*
X63549160Y-175516558D03*
%TD*%
D13*
%TO.C,S20*%
X185153055Y-187273395D03*
D15*
X183362432Y-192473744D03*
D14*
X188988269Y-194410876D03*
X185280286Y-198422217D03*
D13*
X181571809Y-197674093D03*
D31*
X190054503Y-191314300D03*
X184214044Y-201518790D03*
%TD*%
D17*
%TO.C,_83*%
X159324702Y-167772466D03*
X159807976Y-166605740D03*
X159807976Y-168939192D03*
X160974702Y-166122466D03*
D18*
X160974702Y-167772466D03*
D17*
X160974702Y-169422466D03*
X162141428Y-166605740D03*
X162141428Y-168939192D03*
X162624702Y-167772466D03*
%TD*%
%TO.C,_82*%
X98372989Y-133092058D03*
X98773699Y-131894463D03*
X98936473Y-134222231D03*
X99903872Y-131330979D03*
D18*
X100018970Y-132976960D03*
D17*
X100134068Y-134622941D03*
X101101467Y-131731689D03*
X101264241Y-134059457D03*
X101664951Y-132861862D03*
%TD*%
D13*
%TO.C,S10*%
X135874708Y-164372462D03*
D14*
X130374713Y-170322468D03*
D15*
X130374708Y-164372462D03*
D14*
X125374708Y-168122462D03*
D13*
X124874708Y-164372462D03*
D26*
X133649708Y-170322462D03*
X122099710Y-168122462D03*
%TD*%
D13*
%TO.C,S19*%
X181921191Y-213552938D03*
D15*
X176720842Y-211762315D03*
D14*
X174783710Y-217388152D03*
X170772369Y-213680169D03*
D13*
X171520493Y-209971692D03*
D32*
X177880286Y-218454386D03*
X167675796Y-212613927D03*
%TD*%
D33*
%TO.C,ROT1*%
X188494710Y-161962467D03*
X188494708Y-173162475D03*
D34*
X181494712Y-170062478D03*
X181494709Y-165062473D03*
D35*
X195994710Y-170062474D03*
D36*
X195994708Y-165062474D03*
X195994710Y-167562474D03*
%TD*%
D37*
%TO.C,D19*%
X169954331Y-206841257D03*
X168879957Y-209961469D03*
%TD*%
D38*
%TO.C,D13*%
X140374717Y-161922463D03*
X140374717Y-165222463D03*
%TD*%
D39*
%TO.C,LED6*%
X81865882Y-128010821D03*
X82133016Y-129385099D03*
X87433802Y-128354731D03*
X87166668Y-126980453D03*
%TD*%
D40*
%TO.C,LED11*%
X127674709Y-141672471D03*
X127674709Y-143072471D03*
X133074709Y-143072471D03*
X133074709Y-141672471D03*
%TD*%
D38*
%TO.C,D10*%
X122374715Y-161922475D03*
X122374715Y-165222475D03*
%TD*%
D41*
%TO.C,LED3*%
X58346132Y-148990863D03*
X58893159Y-150279569D03*
X63863882Y-148169621D03*
X63316855Y-146880915D03*
%TD*%
D38*
%TO.C,D11*%
X122374711Y-144922468D03*
X122374711Y-148222468D03*
%TD*%
%TO.C,D14*%
X140374697Y-144922462D03*
X140374697Y-148222462D03*
%TD*%
D42*
%TO.C,D5*%
X80527147Y-148900079D03*
X81156817Y-152139449D03*
%TD*%
D43*
%TO.C,LED16*%
X139141978Y-183667888D03*
X138779631Y-185020185D03*
X143995630Y-186417808D03*
X144357977Y-185065511D03*
%TD*%
D44*
%TO.C,D7*%
X102624418Y-155901057D03*
X102854614Y-159193019D03*
%TD*%
D45*
%TO.C,LED18*%
X159269157Y-184362698D03*
X160607984Y-184772018D03*
X162186791Y-179607972D03*
X160847964Y-179198652D03*
%TD*%
D44*
%TO.C,D9*%
X100252725Y-121983875D03*
X100482921Y-125275837D03*
%TD*%
D39*
%TO.C,LED5*%
X85109647Y-144698510D03*
X85376781Y-146072788D03*
X90677567Y-145042420D03*
X90410433Y-143668142D03*
%TD*%
D46*
%TO.C,D20*%
X178441368Y-199240243D03*
X181561580Y-200314617D03*
%TD*%
D47*
%TO.C,LED19*%
X176023663Y-205493821D03*
X175567866Y-206817552D03*
X180673667Y-208575615D03*
X181129464Y-207251884D03*
%TD*%
D48*
%TO.C,LED8*%
X106498958Y-135330667D03*
X106596616Y-136727256D03*
X111983462Y-136350571D03*
X111885804Y-134953982D03*
%TD*%
D49*
%TO.C,D21*%
X179174706Y-169022473D03*
X179174706Y-165722473D03*
%TD*%
D42*
%TO.C,D4*%
X83770896Y-165587741D03*
X84400566Y-168827111D03*
%TD*%
D50*
%TO.C,LED17*%
X158629595Y-196715469D03*
X158220275Y-198054296D03*
X163384321Y-199633103D03*
X163793641Y-198294276D03*
%TD*%
D39*
%TO.C,LED4*%
X88353381Y-161386160D03*
X88620515Y-162760438D03*
X93921301Y-161730070D03*
X93654167Y-160355792D03*
%TD*%
D51*
%TO.C,D1*%
X68022199Y-185350531D03*
X69311611Y-188388197D03*
%TD*%
D41*
%TO.C,LED1*%
X71631005Y-180288035D03*
X72178032Y-181576741D03*
X77148755Y-179466793D03*
X76601728Y-178178087D03*
%TD*%
D51*
%TO.C,D2*%
X61379783Y-169701976D03*
X62669195Y-172739642D03*
%TD*%
D48*
%TO.C,LED7*%
X107684814Y-152289271D03*
X107782472Y-153685860D03*
X113169318Y-153309175D03*
X113071660Y-151912586D03*
%TD*%
D40*
%TO.C,LED15*%
X145674703Y-124672473D03*
X145674703Y-126072473D03*
X151074703Y-126072473D03*
X151074703Y-124672473D03*
%TD*%
D42*
%TO.C,D6*%
X77283392Y-132212394D03*
X77913062Y-135451764D03*
%TD*%
D40*
%TO.C,LED10*%
X127674712Y-158672477D03*
X127674712Y-160072477D03*
X133074712Y-160072477D03*
X133074712Y-158672477D03*
%TD*%
D44*
%TO.C,D8*%
X101438568Y-138942469D03*
X101668764Y-142234431D03*
%TD*%
D52*
%TO.C,D18*%
X160827566Y-190381326D03*
X163983372Y-191346152D03*
%TD*%
D40*
%TO.C,LED14*%
X145674719Y-141672458D03*
X145674719Y-143072458D03*
X151074719Y-143072458D03*
X151074719Y-141672458D03*
%TD*%
D53*
%TO.C,D17*%
X152610973Y-198273903D03*
X151646147Y-201429709D03*
%TD*%
D54*
%TO.C,D16*%
X133181409Y-185435401D03*
X132327309Y-188622957D03*
%TD*%
D38*
%TO.C,D15*%
X140374719Y-127922470D03*
X140374719Y-131222470D03*
%TD*%
D40*
%TO.C,LED13*%
X145674720Y-158672464D03*
X145674720Y-160072464D03*
X151074720Y-160072464D03*
X151074720Y-158672464D03*
%TD*%
D55*
%TO.C,MCU1*%
X176994704Y-125902472D03*
X176994709Y-128442471D03*
X176994708Y-130982468D03*
X176994708Y-133522469D03*
X176994711Y-136062467D03*
X176994707Y-138602468D03*
X176994705Y-141142472D03*
X176994713Y-143682469D03*
X176994709Y-146222469D03*
X176994708Y-148762471D03*
X176994709Y-151302471D03*
X176994715Y-153842463D03*
X161754712Y-153842466D03*
X161754707Y-151302467D03*
X161754708Y-148762470D03*
X161754708Y-146222469D03*
X161754705Y-143682471D03*
X161754709Y-141142470D03*
X161754711Y-138602466D03*
X161754703Y-136062469D03*
X161754707Y-133522469D03*
X161754708Y-130982467D03*
X161754707Y-128442467D03*
X161754701Y-125902475D03*
X164294707Y-148762469D03*
X166834708Y-148762468D03*
X169374708Y-148762469D03*
%TD*%
D48*
%TO.C,LED9*%
X105313096Y-118372078D03*
X105410754Y-119768667D03*
X110797600Y-119391982D03*
X110699942Y-117995393D03*
%TD*%
D40*
%TO.C,LED12*%
X127674714Y-124672468D03*
X127674714Y-126072468D03*
X133074714Y-126072468D03*
X133074714Y-124672468D03*
%TD*%
D56*
%TO.C,LED20*%
X177093956Y-193170893D03*
X178417687Y-193626690D03*
X180175750Y-188520889D03*
X178852019Y-188065092D03*
%TD*%
D38*
%TO.C,D12*%
X122374717Y-127922465D03*
X122374717Y-131222465D03*
%TD*%
D51*
%TO.C,D3*%
X54737350Y-154053394D03*
X56026762Y-157091060D03*
%TD*%
D41*
%TO.C,LED2*%
X64988565Y-164639456D03*
X65535592Y-165928162D03*
X70506315Y-163818214D03*
X69959288Y-162529508D03*
%TD*%
M02*
