%TF.GenerationSoftware,KiCad,Pcbnew,9.0.5*%
%TF.CreationDate,2025-11-08T17:12:59+10:00*%
%TF.ProjectId,badWingsLeft,62616457-696e-4677-934c-6566742e6b69,v1.0.0*%
%TF.SameCoordinates,Original*%
%TF.FileFunction,Drillmap*%
%TF.FilePolarity,Positive*%
%FSLAX45Y45*%
G04 Gerber Fmt 4.5, Leading zero omitted, Abs format (unit mm)*
G04 Created by KiCad (PCBNEW 9.0.5) date 2025-11-08 17:12:59*
%MOMM*%
%LPD*%
G01*
G04 APERTURE LIST*
%ADD10C,0.150000*%
%ADD11C,0.120000*%
%ADD12C,0.200000*%
%ADD13C,0.100000*%
%ADD14C,0.109220*%
%ADD15C,0.220000*%
G04 APERTURE END LIST*
D10*
X6932904Y-13826581D02*
G75*
G02*
X6817465Y-13960437I-193594J50252D01*
G01*
X9626175Y-11540110D02*
G75*
G02*
X9800838Y-11407116I188615J-66520D01*
G01*
X14607152Y-20983778D02*
G75*
G02*
X14584845Y-20970972I88398J179808D01*
G01*
X9800838Y-11407114D02*
X11764350Y-11269813D01*
X7216167Y-19766182D02*
G75*
G02*
X6953918Y-19660227I-78148J184102D01*
G01*
X5067145Y-14703405D02*
X6817466Y-13960439D01*
X18357471Y-11987246D02*
G75*
G02*
X18557474Y-12187246I-1J-200004D01*
G01*
X6953919Y-19660226D02*
X4961191Y-14965651D01*
X14584845Y-20970972D02*
X12750150Y-19754531D01*
X19937471Y-17854383D02*
G75*
G02*
X19926957Y-17918381I-199871J-27D01*
G01*
X9018625Y-19001085D02*
X7216167Y-19766182D01*
X16302018Y-21814982D02*
G75*
G02*
X16278919Y-21805373I65312J189562D01*
G01*
X4961191Y-14965651D02*
G75*
G02*
X5067144Y-14703404I184104J78145D01*
G01*
X6932904Y-13826581D02*
X7248579Y-12610299D01*
X16278919Y-21805373D02*
X14607152Y-20983778D01*
X19937471Y-16087246D02*
X19937471Y-17854383D01*
X18434685Y-22336549D02*
G75*
G02*
X18180087Y-22461655I-189485J63999D01*
G01*
X18757470Y-15887247D02*
G75*
G02*
X18557473Y-15687248I0J199997D01*
G01*
X12579261Y-11987246D02*
G75*
G02*
X12427618Y-11917652I-11J199986D01*
G01*
X9477906Y-11960532D02*
G75*
G02*
X9327452Y-12090337I-188606J66512D01*
G01*
X9085922Y-18954263D02*
G75*
G02*
X9018625Y-19001086I-145432J137253D01*
G01*
X11796160Y-17485315D02*
G75*
G02*
X11982837Y-17621091I-2740J-199985D01*
G01*
X9477906Y-11960532D02*
X9626175Y-11540110D01*
X18180087Y-22461653D02*
X16302018Y-21814982D01*
X18757470Y-15887247D02*
X19737471Y-15887247D01*
X19926955Y-17918381D02*
X18434685Y-22336549D01*
X7404004Y-12464220D02*
X9327452Y-12090338D01*
X10428963Y-17531345D02*
X9085922Y-18954263D01*
X11764350Y-11269813D02*
G75*
G02*
X11929943Y-11338922I13950J-199517D01*
G01*
X19737471Y-15887247D02*
G75*
G02*
X19937473Y-16087246I-1J-200003D01*
G01*
X7248579Y-12610299D02*
G75*
G02*
X7404004Y-12464219I193601J-50261D01*
G01*
X12579261Y-11987246D02*
X18357471Y-11987246D01*
X18557472Y-12187246D02*
X18557470Y-15687248D01*
X11929942Y-11338923D02*
X12427622Y-11917649D01*
X11796160Y-17485315D02*
X10577143Y-17468643D01*
X10428963Y-17531345D02*
G75*
G02*
X10577143Y-17468640I145448J-137275D01*
G01*
X12750150Y-19754531D02*
G75*
G02*
X12671255Y-19652046I110520J166691D01*
G01*
X12671255Y-19652046D02*
X11982837Y-17621091D01*
D11*
X8671253Y-12936083D02*
X8317867Y-13004775D01*
X8258715Y-12700473D01*
X8612102Y-12631781D01*
X8671253Y-12936083D01*
X13217471Y-14392246D02*
X12857471Y-14392247D01*
X12857471Y-14082248D01*
X13217471Y-14082248D01*
X13217471Y-14392246D01*
X6336755Y-14930370D02*
X6005374Y-15071034D01*
X5884246Y-14785679D01*
X6215627Y-14645014D01*
X6336755Y-14930370D01*
X14370864Y-18401155D02*
X14290630Y-18700590D01*
X13942897Y-18607415D01*
X14023131Y-18307980D01*
X14370864Y-18401155D01*
X16273651Y-18071717D02*
X16168397Y-18415986D01*
X15871943Y-18325351D01*
X15977198Y-17981081D01*
X16273651Y-18071717D01*
X8995629Y-14604851D02*
X8642243Y-14673543D01*
X8583092Y-14369241D01*
X8936478Y-14300549D01*
X8995629Y-14604851D01*
X18055523Y-20615519D02*
X17954597Y-20908629D01*
X17614210Y-20791424D01*
X17715136Y-20498314D01*
X18055523Y-20615519D01*
X11114495Y-13726128D02*
X10755372Y-13751240D01*
X10733747Y-13441996D01*
X11092870Y-13416884D01*
X11114495Y-13726128D01*
X16318148Y-19721829D02*
X16227513Y-20018283D01*
X15883243Y-19913028D01*
X15973879Y-19616575D01*
X16318148Y-19721829D01*
X9320003Y-16273616D02*
X8966617Y-16342308D01*
X8907465Y-16038006D01*
X9260852Y-15969314D01*
X9320003Y-16273616D01*
X7665242Y-18060087D02*
X7333861Y-18200752D01*
X7212734Y-17915396D01*
X7544115Y-17774731D01*
X7665242Y-18060087D01*
X11233080Y-15421988D02*
X10873958Y-15447100D01*
X10852333Y-15137857D01*
X11211456Y-15112744D01*
X11233080Y-15421988D01*
X15017470Y-12692247D02*
X14657470Y-12692247D01*
X14657470Y-12382248D01*
X15017470Y-12382248D01*
X15017470Y-12692247D01*
X13217471Y-16092247D02*
X12857471Y-16092247D01*
X12857471Y-15782248D01*
X13217471Y-15782248D01*
X13217471Y-16092247D01*
X15017472Y-14392245D02*
X14657472Y-14392245D01*
X14657472Y-14082246D01*
X15017472Y-14082246D01*
X15017472Y-14392245D01*
X15017472Y-16092246D02*
X14657472Y-16092246D01*
X14657472Y-15782247D01*
X15017472Y-15782247D01*
X15017472Y-16092246D01*
X10995909Y-12030269D02*
X10636786Y-12055381D01*
X10615161Y-11746137D01*
X10974284Y-11721025D01*
X10995909Y-12030269D01*
X13217471Y-12692246D02*
X12857472Y-12692246D01*
X12857472Y-12382247D01*
X13217471Y-12382247D01*
X13217471Y-12692246D01*
X18068643Y-18964859D02*
X17951438Y-19305245D01*
X17658328Y-19204319D01*
X17775533Y-18863933D01*
X18068643Y-18964859D01*
X7000998Y-16495229D02*
X6669617Y-16635894D01*
X6548490Y-16350538D01*
X6879871Y-16209873D01*
X7000998Y-16495229D01*
D12*
D13*
X5596810Y-15331730D02*
X5626810Y-15361730D01*
X5626810Y-15331730D02*
X5596810Y-15361730D01*
X5653922Y-14954419D02*
X5683922Y-14984419D01*
X5683922Y-14954419D02*
X5653922Y-14984419D01*
X6261053Y-16896588D02*
X6291053Y-16926588D01*
X6291053Y-16896588D02*
X6261053Y-16926588D01*
X6372868Y-16648148D02*
X6402868Y-16678148D01*
X6402868Y-16648148D02*
X6372868Y-16678148D01*
X6482376Y-14602761D02*
X6512376Y-14632761D01*
X6512376Y-14602761D02*
X6482376Y-14632761D01*
X6925295Y-18461446D02*
X6955295Y-18491446D01*
X6955295Y-18461446D02*
X6925295Y-18491446D01*
X7037111Y-18213006D02*
X7067111Y-18243006D01*
X7067111Y-18213006D02*
X7037111Y-18243006D01*
X7146622Y-16167619D02*
X7176622Y-16197619D01*
X7176622Y-16167619D02*
X7146622Y-16197619D01*
X7810863Y-17732477D02*
X7840863Y-17762477D01*
X7840863Y-17732477D02*
X7810863Y-17762477D01*
X7860582Y-13177620D02*
X7890582Y-13207620D01*
X7890582Y-13177620D02*
X7860582Y-13207620D01*
X7994896Y-12820429D02*
X8024896Y-12850429D01*
X8024896Y-12820429D02*
X7994896Y-12850429D01*
X8021609Y-12957857D02*
X8051609Y-12987857D01*
X8051609Y-12957857D02*
X8021609Y-12987857D01*
X8184957Y-14846387D02*
X8214957Y-14876387D01*
X8214957Y-14846387D02*
X8184957Y-14876387D01*
X8345985Y-14626624D02*
X8375985Y-14656624D01*
X8375985Y-14626624D02*
X8345985Y-14656624D01*
X8509333Y-16515153D02*
X8539333Y-16545153D01*
X8539333Y-16515153D02*
X8509333Y-16545153D01*
X8670359Y-16295389D02*
X8700359Y-16325389D01*
X8700359Y-16295389D02*
X8670359Y-16325389D01*
X8878360Y-12648701D02*
X8908360Y-12678701D01*
X8908360Y-12648701D02*
X8878360Y-12678701D01*
X9202736Y-14317468D02*
X9232736Y-14347468D01*
X9232736Y-14317468D02*
X9202736Y-14347468D01*
X9527110Y-15986234D02*
X9557110Y-16016234D01*
X9557110Y-15986234D02*
X9527110Y-16016234D01*
X10090236Y-17206197D02*
X10120236Y-17236197D01*
X10120236Y-17206197D02*
X10090236Y-17236197D01*
X10159906Y-12172925D02*
X10189906Y-12202925D01*
X10189906Y-12172925D02*
X10159906Y-12202925D01*
X10278492Y-13868783D02*
X10308492Y-13898783D01*
X10308492Y-13868783D02*
X10278492Y-13898783D01*
X10336748Y-11834764D02*
X10366748Y-11864764D01*
X10366748Y-11834764D02*
X10336748Y-11864764D01*
X10346514Y-11974423D02*
X10376514Y-12004423D01*
X10376514Y-11974423D02*
X10346514Y-12004423D01*
X10397079Y-15564642D02*
X10427079Y-15594642D01*
X10427079Y-15564642D02*
X10397079Y-15594642D01*
X10465099Y-13670284D02*
X10495099Y-13700284D01*
X10495099Y-13670284D02*
X10465099Y-13700284D01*
X10583686Y-15366141D02*
X10613686Y-15396141D01*
X10613686Y-15366141D02*
X10583686Y-15396141D01*
X11234556Y-11771984D02*
X11264556Y-11801984D01*
X11264556Y-11771984D02*
X11234556Y-11801984D01*
X11353143Y-13467842D02*
X11383143Y-13497842D01*
X11383143Y-13467842D02*
X11353143Y-13497842D01*
X11471727Y-15163702D02*
X11501727Y-15193702D01*
X11501727Y-15163702D02*
X11471727Y-15193702D01*
X11881980Y-16443202D02*
X11911980Y-16473202D01*
X11911980Y-16443202D02*
X11881980Y-16473202D01*
X12372470Y-14477248D02*
X12402470Y-14507248D01*
X12402470Y-14477248D02*
X12372470Y-14507248D01*
X12372471Y-16177248D02*
X12402471Y-16207248D01*
X12402471Y-16177248D02*
X12372471Y-16207248D01*
X12372471Y-12777247D02*
X12402471Y-12807247D01*
X12402471Y-12777247D02*
X12372471Y-12807247D01*
X12572471Y-12452247D02*
X12602471Y-12482247D01*
X12602471Y-12452247D02*
X12572471Y-12482247D01*
X12572471Y-14292247D02*
X12602471Y-14322247D01*
X12602471Y-14292247D02*
X12572471Y-14322247D01*
X12572471Y-12592248D02*
X12602471Y-12622248D01*
X12602471Y-12592248D02*
X12572471Y-12622248D01*
X12572472Y-15992247D02*
X12602472Y-16022247D01*
X12602472Y-15992247D02*
X12572472Y-16022247D01*
X13448030Y-18567362D02*
X13478030Y-18597362D01*
X13478030Y-18567362D02*
X13448030Y-18597362D01*
X13472471Y-15852246D02*
X13502471Y-15882246D01*
X13502471Y-15852246D02*
X13472471Y-15882246D01*
X13472472Y-14152246D02*
X13502472Y-14182246D01*
X13502472Y-14152246D02*
X13472472Y-14182246D01*
X13472472Y-12452246D02*
X13502472Y-12482246D01*
X13502472Y-12452246D02*
X13472472Y-12482246D01*
X13689096Y-18440430D02*
X13719096Y-18470430D01*
X13719096Y-18440430D02*
X13689096Y-18470430D01*
X13725333Y-18305201D02*
X13755333Y-18335201D01*
X13755333Y-18305201D02*
X13725333Y-18335201D01*
X14172470Y-12777246D02*
X14202470Y-12807246D01*
X14202470Y-12777246D02*
X14172470Y-12807246D01*
X14172471Y-14477247D02*
X14202471Y-14507247D01*
X14202471Y-14477247D02*
X14172471Y-14507247D01*
X14172473Y-16177246D02*
X14202473Y-16207246D01*
X14202473Y-16177246D02*
X14172473Y-16207246D01*
X14372470Y-12452245D02*
X14402470Y-12482245D01*
X14402470Y-12452245D02*
X14372470Y-12482245D01*
X14372470Y-14292248D02*
X14402470Y-14322248D01*
X14402470Y-14292248D02*
X14372470Y-14322248D01*
X14372471Y-15992246D02*
X14402471Y-16022246D01*
X14402471Y-15992246D02*
X14372471Y-16022246D01*
X14372472Y-12592248D02*
X14402472Y-12622248D01*
X14402472Y-12592248D02*
X14372472Y-12622248D01*
X14594664Y-18538138D02*
X14624664Y-18568138D01*
X14624664Y-18538138D02*
X14594664Y-18568138D01*
X15272470Y-15852246D02*
X15302470Y-15882246D01*
X15302470Y-15852246D02*
X15272470Y-15882246D01*
X15272471Y-12452247D02*
X15302471Y-12482247D01*
X15302471Y-12452247D02*
X15272471Y-12482247D01*
X15272471Y-14152246D02*
X15302471Y-14182246D01*
X15302471Y-14152246D02*
X15272471Y-14182246D01*
X15389544Y-19856245D02*
X15419544Y-19886245D01*
X15419544Y-19856245D02*
X15389544Y-19886245D01*
X15409037Y-20886983D02*
X15439037Y-20916983D01*
X15439037Y-20886983D02*
X15409037Y-20916983D01*
X15634894Y-19737802D02*
X15664894Y-19767802D01*
X15664894Y-19737802D02*
X15634894Y-19767802D01*
X15675826Y-19603922D02*
X15705826Y-19633922D01*
X15705826Y-19603922D02*
X15675826Y-19633922D01*
X15859289Y-18593406D02*
X15889289Y-18623406D01*
X15889289Y-18593406D02*
X15859289Y-18623406D01*
X15993172Y-18634339D02*
X16023172Y-18664339D01*
X16023172Y-18634339D02*
X15993172Y-18664339D01*
X16111612Y-18879687D02*
X16141612Y-18909687D01*
X16141612Y-18879687D02*
X16111612Y-18909687D01*
X16122422Y-17732731D02*
X16152422Y-17762731D01*
X16152422Y-17732731D02*
X16122422Y-17762731D01*
X16536501Y-19867056D02*
X16566501Y-19897056D01*
X16566501Y-19867056D02*
X16536501Y-19897056D01*
X17105770Y-21748751D02*
X17135770Y-21778751D01*
X17135770Y-21748751D02*
X17105770Y-21778751D01*
X17122261Y-20717962D02*
X17152261Y-20747962D01*
X17152261Y-20717962D02*
X17122261Y-20747962D01*
X17371595Y-20608154D02*
X17401595Y-20638154D01*
X17401595Y-20608154D02*
X17371595Y-20638154D01*
X17417175Y-20475779D02*
X17447175Y-20505779D01*
X17447175Y-20475779D02*
X17417175Y-20505779D01*
X17635791Y-19472283D02*
X17665791Y-19502283D01*
X17665791Y-19472283D02*
X17635791Y-19502283D01*
X17768165Y-19517863D02*
X17798165Y-19547863D01*
X17798165Y-19517863D02*
X17768165Y-19547863D01*
X17877971Y-19767197D02*
X17907971Y-19797197D01*
X17907971Y-19767197D02*
X17877971Y-19797197D01*
X17902471Y-17022246D02*
X17932471Y-17052246D01*
X17932471Y-17022246D02*
X17902471Y-17052246D01*
X17928803Y-18621318D02*
X17958803Y-18651318D01*
X17958803Y-18621318D02*
X17928803Y-18651318D01*
X17972472Y-14672247D02*
X18002472Y-14702247D01*
X18002472Y-14672247D02*
X17972472Y-14702247D01*
X18268142Y-20768793D02*
X18298142Y-20798793D01*
X18298142Y-20768793D02*
X18268142Y-20798793D01*
X7295338Y-14361926D02*
G75*
G02*
X7255338Y-14361926I-20000J0D01*
G01*
X7255338Y-14361926D02*
G75*
G02*
X7295338Y-14361926I20000J0D01*
G01*
X7307442Y-14236222D02*
G75*
G02*
X7267442Y-14236222I-20000J0D01*
G01*
X7267442Y-14236222D02*
G75*
G02*
X7307442Y-14236222I20000J0D01*
G01*
X7375665Y-14459371D02*
G75*
G02*
X7335665Y-14459371I-20000J0D01*
G01*
X7335665Y-14459371D02*
G75*
G02*
X7375665Y-14459371I20000J0D01*
G01*
X7404887Y-14155895D02*
G75*
G02*
X7364887Y-14155895I-20000J0D01*
G01*
X7364887Y-14155895D02*
G75*
G02*
X7404887Y-14155895I20000J0D01*
G01*
X7501370Y-14471475D02*
G75*
G02*
X7461370Y-14471475I-20000J0D01*
G01*
X7461370Y-14471475D02*
G75*
G02*
X7501370Y-14471475I20000J0D01*
G01*
X7530591Y-14167999D02*
G75*
G02*
X7490591Y-14167999I-20000J0D01*
G01*
X7490591Y-14167999D02*
G75*
G02*
X7530591Y-14167999I20000J0D01*
G01*
X7598815Y-14391148D02*
G75*
G02*
X7558815Y-14391148I-20000J0D01*
G01*
X7558815Y-14391148D02*
G75*
G02*
X7598815Y-14391148I20000J0D01*
G01*
X7610918Y-14265444D02*
G75*
G02*
X7570918Y-14265444I-20000J0D01*
G01*
X7570918Y-14265444D02*
G75*
G02*
X7610918Y-14265444I20000J0D01*
G01*
X8937957Y-18195557D02*
G75*
G02*
X8897957Y-18195557I-20000J0D01*
G01*
X8897957Y-18195557D02*
G75*
G02*
X8937957Y-18195557I20000J0D01*
G01*
X8950061Y-18069853D02*
G75*
G02*
X8910061Y-18069853I-20000J0D01*
G01*
X8910061Y-18069853D02*
G75*
G02*
X8950061Y-18069853I20000J0D01*
G01*
X9018284Y-18293002D02*
G75*
G02*
X8978284Y-18293002I-20000J0D01*
G01*
X8978284Y-18293002D02*
G75*
G02*
X9018284Y-18293002I20000J0D01*
G01*
X9047506Y-17989525D02*
G75*
G02*
X9007506Y-17989525I-20000J0D01*
G01*
X9007506Y-17989525D02*
G75*
G02*
X9047506Y-17989525I20000J0D01*
G01*
X9143988Y-18305106D02*
G75*
G02*
X9103988Y-18305106I-20000J0D01*
G01*
X9103988Y-18305106D02*
G75*
G02*
X9143988Y-18305106I20000J0D01*
G01*
X9173210Y-18001629D02*
G75*
G02*
X9133210Y-18001629I-20000J0D01*
G01*
X9133210Y-18001629D02*
G75*
G02*
X9173210Y-18001629I20000J0D01*
G01*
X9241433Y-18224778D02*
G75*
G02*
X9201433Y-18224778I-20000J0D01*
G01*
X9201433Y-18224778D02*
G75*
G02*
X9241433Y-18224778I20000J0D01*
G01*
X9253537Y-18099074D02*
G75*
G02*
X9213537Y-18099074I-20000J0D01*
G01*
X9213537Y-18099074D02*
G75*
G02*
X9253537Y-18099074I20000J0D01*
G01*
X9857299Y-13309206D02*
G75*
G02*
X9817299Y-13309206I-20000J0D01*
G01*
X9817299Y-13309206D02*
G75*
G02*
X9857299Y-13309206I20000J0D01*
G01*
X9897370Y-13189446D02*
G75*
G02*
X9857370Y-13189446I-20000J0D01*
G01*
X9857370Y-13189446D02*
G75*
G02*
X9897370Y-13189446I20000J0D01*
G01*
X9913647Y-13422223D02*
G75*
G02*
X9873647Y-13422223I-20000J0D01*
G01*
X9873647Y-13422223D02*
G75*
G02*
X9913647Y-13422223I20000J0D01*
G01*
X10010387Y-13133098D02*
G75*
G02*
X9970387Y-13133098I-20000J0D01*
G01*
X9970387Y-13133098D02*
G75*
G02*
X10010387Y-13133098I20000J0D01*
G01*
X10033407Y-13462294D02*
G75*
G02*
X9993407Y-13462294I-20000J0D01*
G01*
X9993407Y-13462294D02*
G75*
G02*
X10033407Y-13462294I20000J0D01*
G01*
X10130147Y-13173169D02*
G75*
G02*
X10090147Y-13173169I-20000J0D01*
G01*
X10090147Y-13173169D02*
G75*
G02*
X10130147Y-13173169I20000J0D01*
G01*
X10146424Y-13405946D02*
G75*
G02*
X10106424Y-13405946I-20000J0D01*
G01*
X10106424Y-13405946D02*
G75*
G02*
X10146424Y-13405946I20000J0D01*
G01*
X10186495Y-13286186D02*
G75*
G02*
X10146495Y-13286186I-20000J0D01*
G01*
X10146495Y-13286186D02*
G75*
G02*
X10186495Y-13286186I20000J0D01*
G01*
X11375119Y-16952202D02*
G75*
G02*
X11335119Y-16952202I-20000J0D01*
G01*
X11335119Y-16952202D02*
G75*
G02*
X11375119Y-16952202I20000J0D01*
G01*
X11415190Y-16832442D02*
G75*
G02*
X11375190Y-16832442I-20000J0D01*
G01*
X11375190Y-16832442D02*
G75*
G02*
X11415190Y-16832442I20000J0D01*
G01*
X11431467Y-17065219D02*
G75*
G02*
X11391467Y-17065219I-20000J0D01*
G01*
X11391467Y-17065219D02*
G75*
G02*
X11431467Y-17065219I20000J0D01*
G01*
X11528207Y-16776094D02*
G75*
G02*
X11488207Y-16776094I-20000J0D01*
G01*
X11488207Y-16776094D02*
G75*
G02*
X11528207Y-16776094I20000J0D01*
G01*
X11551227Y-17105290D02*
G75*
G02*
X11511227Y-17105290I-20000J0D01*
G01*
X11511227Y-17105290D02*
G75*
G02*
X11551227Y-17105290I20000J0D01*
G01*
X11647967Y-16816165D02*
G75*
G02*
X11607967Y-16816165I-20000J0D01*
G01*
X11607967Y-16816165D02*
G75*
G02*
X11647967Y-16816165I20000J0D01*
G01*
X11664244Y-17048942D02*
G75*
G02*
X11624244Y-17048942I-20000J0D01*
G01*
X11624244Y-17048942D02*
G75*
G02*
X11664244Y-17048942I20000J0D01*
G01*
X11704315Y-16929182D02*
G75*
G02*
X11664315Y-16929182I-20000J0D01*
G01*
X11664315Y-16929182D02*
G75*
G02*
X11704315Y-16929182I20000J0D01*
G01*
X13792472Y-13887247D02*
G75*
G02*
X13752472Y-13887247I-20000J0D01*
G01*
X13752472Y-13887247D02*
G75*
G02*
X13792472Y-13887247I20000J0D01*
G01*
X13840800Y-13770574D02*
G75*
G02*
X13800800Y-13770574I-20000J0D01*
G01*
X13800800Y-13770574D02*
G75*
G02*
X13840800Y-13770574I20000J0D01*
G01*
X13840800Y-14003920D02*
G75*
G02*
X13800800Y-14003920I-20000J0D01*
G01*
X13800800Y-14003920D02*
G75*
G02*
X13840800Y-14003920I20000J0D01*
G01*
X13957472Y-13722247D02*
G75*
G02*
X13917472Y-13722247I-20000J0D01*
G01*
X13917472Y-13722247D02*
G75*
G02*
X13957472Y-13722247I20000J0D01*
G01*
X13957472Y-14052247D02*
G75*
G02*
X13917472Y-14052247I-20000J0D01*
G01*
X13917472Y-14052247D02*
G75*
G02*
X13957472Y-14052247I20000J0D01*
G01*
X14074145Y-13770574D02*
G75*
G02*
X14034145Y-13770574I-20000J0D01*
G01*
X14034145Y-13770574D02*
G75*
G02*
X14074145Y-13770574I20000J0D01*
G01*
X14074145Y-14003920D02*
G75*
G02*
X14034145Y-14003920I-20000J0D01*
G01*
X14034145Y-14003920D02*
G75*
G02*
X14074145Y-14003920I20000J0D01*
G01*
X14122472Y-13887247D02*
G75*
G02*
X14082472Y-13887247I-20000J0D01*
G01*
X14082472Y-13887247D02*
G75*
G02*
X14122472Y-13887247I20000J0D01*
G01*
X15952470Y-16777247D02*
G75*
G02*
X15912470Y-16777247I-20000J0D01*
G01*
X15912470Y-16777247D02*
G75*
G02*
X15952470Y-16777247I20000J0D01*
G01*
X16000798Y-16660574D02*
G75*
G02*
X15960798Y-16660574I-20000J0D01*
G01*
X15960798Y-16660574D02*
G75*
G02*
X16000798Y-16660574I20000J0D01*
G01*
X16000798Y-16893919D02*
G75*
G02*
X15960798Y-16893919I-20000J0D01*
G01*
X15960798Y-16893919D02*
G75*
G02*
X16000798Y-16893919I20000J0D01*
G01*
X16117470Y-16612247D02*
G75*
G02*
X16077470Y-16612247I-20000J0D01*
G01*
X16077470Y-16612247D02*
G75*
G02*
X16117470Y-16612247I20000J0D01*
G01*
X16117470Y-16942247D02*
G75*
G02*
X16077470Y-16942247I-20000J0D01*
G01*
X16077470Y-16942247D02*
G75*
G02*
X16117470Y-16942247I20000J0D01*
G01*
X16234143Y-16660574D02*
G75*
G02*
X16194143Y-16660574I-20000J0D01*
G01*
X16194143Y-16660574D02*
G75*
G02*
X16234143Y-16660574I20000J0D01*
G01*
X16234143Y-16893919D02*
G75*
G02*
X16194143Y-16893919I-20000J0D01*
G01*
X16194143Y-16893919D02*
G75*
G02*
X16234143Y-16893919I20000J0D01*
G01*
X16282470Y-16777247D02*
G75*
G02*
X16242470Y-16777247I-20000J0D01*
G01*
X16242470Y-16777247D02*
G75*
G02*
X16282470Y-16777247I20000J0D01*
G01*
X16974593Y-19709488D02*
G75*
G02*
X16934593Y-19709488I-20000J0D01*
G01*
X16934593Y-19709488D02*
G75*
G02*
X16974593Y-19709488I20000J0D01*
G01*
X16984501Y-19835384D02*
G75*
G02*
X16944501Y-19835384I-20000J0D01*
G01*
X16944501Y-19835384D02*
G75*
G02*
X16984501Y-19835384I20000J0D01*
G01*
X17056609Y-19613460D02*
G75*
G02*
X17016609Y-19613460I-20000J0D01*
G01*
X17016609Y-19613460D02*
G75*
G02*
X17056609Y-19613460I20000J0D01*
G01*
X17080530Y-19917400D02*
G75*
G02*
X17040530Y-19917400I-20000J0D01*
G01*
X17040530Y-19917400D02*
G75*
G02*
X17080530Y-19917400I20000J0D01*
G01*
X17182505Y-19603551D02*
G75*
G02*
X17142505Y-19603551I-20000J0D01*
G01*
X17142505Y-19603551D02*
G75*
G02*
X17182505Y-19603551I20000J0D01*
G01*
X17206426Y-19907492D02*
G75*
G02*
X17166426Y-19907492I-20000J0D01*
G01*
X17166426Y-19907492D02*
G75*
G02*
X17206426Y-19907492I20000J0D01*
G01*
X17278534Y-19685567D02*
G75*
G02*
X17238534Y-19685567I-20000J0D01*
G01*
X17238534Y-19685567D02*
G75*
G02*
X17278534Y-19685567I20000J0D01*
G01*
X17288442Y-19811464D02*
G75*
G02*
X17248442Y-19811464I-20000J0D01*
G01*
X17248442Y-19811464D02*
G75*
G02*
X17288442Y-19811464I20000J0D01*
G01*
X17572469Y-17423247D02*
G75*
G02*
X17532469Y-17423247I-20000J0D01*
G01*
X17532469Y-17423247D02*
G75*
G02*
X17572469Y-17423247I20000J0D01*
G01*
X17620797Y-17306574D02*
G75*
G02*
X17580797Y-17306574I-20000J0D01*
G01*
X17580797Y-17306574D02*
G75*
G02*
X17620797Y-17306574I20000J0D01*
G01*
X17620797Y-17539920D02*
G75*
G02*
X17580797Y-17539920I-20000J0D01*
G01*
X17580797Y-17539920D02*
G75*
G02*
X17620797Y-17539920I20000J0D01*
G01*
X17737469Y-17258247D02*
G75*
G02*
X17697469Y-17258247I-20000J0D01*
G01*
X17697469Y-17258247D02*
G75*
G02*
X17737469Y-17258247I20000J0D01*
G01*
X17737469Y-17588247D02*
G75*
G02*
X17697469Y-17588247I-20000J0D01*
G01*
X17697469Y-17588247D02*
G75*
G02*
X17737469Y-17588247I20000J0D01*
G01*
X17854142Y-17306574D02*
G75*
G02*
X17814142Y-17306574I-20000J0D01*
G01*
X17814142Y-17306574D02*
G75*
G02*
X17854142Y-17306574I20000J0D01*
G01*
X17854142Y-17539920D02*
G75*
G02*
X17814142Y-17539920I-20000J0D01*
G01*
X17814142Y-17539920D02*
G75*
G02*
X17854142Y-17539920I20000J0D01*
G01*
X17902469Y-17423247D02*
G75*
G02*
X17862469Y-17423247I-20000J0D01*
G01*
X17862469Y-17423247D02*
G75*
G02*
X17902469Y-17423247I20000J0D01*
G01*
X18058471Y-12367247D02*
G75*
G02*
X18018471Y-12367247I-20000J0D01*
G01*
X18018471Y-12367247D02*
G75*
G02*
X18058471Y-12367247I20000J0D01*
G01*
X18106798Y-12250574D02*
G75*
G02*
X18066798Y-12250574I-20000J0D01*
G01*
X18066798Y-12250574D02*
G75*
G02*
X18106798Y-12250574I20000J0D01*
G01*
X18106798Y-12483919D02*
G75*
G02*
X18066798Y-12483919I-20000J0D01*
G01*
X18066798Y-12483919D02*
G75*
G02*
X18106798Y-12483919I20000J0D01*
G01*
X18223471Y-12202247D02*
G75*
G02*
X18183471Y-12202247I-20000J0D01*
G01*
X18183471Y-12202247D02*
G75*
G02*
X18223471Y-12202247I20000J0D01*
G01*
X18223471Y-12532247D02*
G75*
G02*
X18183471Y-12532247I-20000J0D01*
G01*
X18183471Y-12532247D02*
G75*
G02*
X18223471Y-12532247I20000J0D01*
G01*
X18340144Y-12250574D02*
G75*
G02*
X18300144Y-12250574I-20000J0D01*
G01*
X18300144Y-12250574D02*
G75*
G02*
X18340144Y-12250574I20000J0D01*
G01*
X18340144Y-12483919D02*
G75*
G02*
X18300144Y-12483919I-20000J0D01*
G01*
X18300144Y-12483919D02*
G75*
G02*
X18340144Y-12483919I20000J0D01*
G01*
X18388471Y-12367247D02*
G75*
G02*
X18348471Y-12367247I-20000J0D01*
G01*
X18348471Y-12367247D02*
G75*
G02*
X18388471Y-12367247I20000J0D01*
G01*
X19372471Y-17797246D02*
G75*
G02*
X19332471Y-17797246I-20000J0D01*
G01*
X19332471Y-17797246D02*
G75*
G02*
X19372471Y-17797246I20000J0D01*
G01*
X19420799Y-17680574D02*
G75*
G02*
X19380799Y-17680574I-20000J0D01*
G01*
X19380799Y-17680574D02*
G75*
G02*
X19420799Y-17680574I20000J0D01*
G01*
X19420799Y-17913919D02*
G75*
G02*
X19380799Y-17913919I-20000J0D01*
G01*
X19380799Y-17913919D02*
G75*
G02*
X19420799Y-17913919I20000J0D01*
G01*
X19537471Y-17632246D02*
G75*
G02*
X19497471Y-17632246I-20000J0D01*
G01*
X19497471Y-17632246D02*
G75*
G02*
X19537471Y-17632246I20000J0D01*
G01*
X19537471Y-17962246D02*
G75*
G02*
X19497471Y-17962246I-20000J0D01*
G01*
X19497471Y-17962246D02*
G75*
G02*
X19537471Y-17962246I20000J0D01*
G01*
X19654144Y-17680574D02*
G75*
G02*
X19614144Y-17680574I-20000J0D01*
G01*
X19614144Y-17680574D02*
G75*
G02*
X19654144Y-17680574I20000J0D01*
G01*
X19654144Y-17913919D02*
G75*
G02*
X19614144Y-17913919I-20000J0D01*
G01*
X19614144Y-17913919D02*
G75*
G02*
X19654144Y-17913919I20000J0D01*
G01*
X19702471Y-17797246D02*
G75*
G02*
X19662471Y-17797246I-20000J0D01*
G01*
X19662471Y-17797246D02*
G75*
G02*
X19702471Y-17797246I20000J0D01*
G01*
X19121471Y-17659747D02*
X19121471Y-17734747D01*
X19083971Y-17697247D02*
X19158971Y-17697247D01*
X19121472Y-17859747D02*
X19121472Y-17934747D01*
X19083972Y-17897247D02*
X19158972Y-17897247D01*
X16464827Y-15942603D02*
X16464827Y-15871892D01*
X16394116Y-15871892D01*
X16394116Y-15942603D01*
X16464827Y-15942603D01*
X16718826Y-15942603D02*
X16718826Y-15871892D01*
X16648115Y-15871892D01*
X16648115Y-15942603D01*
X16718826Y-15942603D01*
X16972827Y-15942603D02*
X16972827Y-15871892D01*
X16902115Y-15871892D01*
X16902115Y-15942603D01*
X16972827Y-15942603D01*
X17226827Y-15942603D02*
X17226827Y-15871892D01*
X17156115Y-15871892D01*
X17156115Y-15942603D01*
X17226827Y-15942603D01*
X17480826Y-15942603D02*
X17480826Y-15871891D01*
X17410115Y-15871891D01*
X17410115Y-15942603D01*
X17480826Y-15942603D01*
X18184827Y-16541603D02*
X18184827Y-16470892D01*
X18114115Y-16470892D01*
X18114115Y-16541603D01*
X18184827Y-16541603D01*
X18184827Y-17041604D02*
X18184827Y-16970892D01*
X18114116Y-16970892D01*
X18114116Y-17041604D01*
X18184827Y-17041604D01*
X19634827Y-16541603D02*
X19634827Y-16470892D01*
X19564115Y-16470892D01*
X19564115Y-16541603D01*
X19634827Y-16541603D01*
X19634827Y-16791603D02*
X19634827Y-16720892D01*
X19564115Y-16720892D01*
X19564115Y-16791603D01*
X19634827Y-16791603D01*
X19634827Y-17041603D02*
X19634827Y-16970892D01*
X19564115Y-16970892D01*
X19564115Y-17041603D01*
X19634827Y-17041603D01*
D14*
X16175470Y-12644857D02*
X16230080Y-12590247D01*
X16175470Y-12535637D01*
X16120860Y-12590247D01*
X16175470Y-12644857D01*
X16175470Y-13660857D02*
X16230080Y-13606247D01*
X16175470Y-13551637D01*
X16120860Y-13606247D01*
X16175470Y-13660857D01*
X16175470Y-14422857D02*
X16230080Y-14368247D01*
X16175470Y-14313637D01*
X16120860Y-14368247D01*
X16175470Y-14422857D01*
X16175471Y-12898857D02*
X16230081Y-12844247D01*
X16175471Y-12789637D01*
X16120861Y-12844247D01*
X16175471Y-12898857D01*
X16175471Y-13406857D02*
X16230081Y-13352247D01*
X16175471Y-13297637D01*
X16120861Y-13352247D01*
X16175471Y-13406857D01*
X16175471Y-15184857D02*
X16230081Y-15130247D01*
X16175471Y-15075637D01*
X16120861Y-15130247D01*
X16175471Y-15184857D01*
X16175471Y-13152857D02*
X16230081Y-13098247D01*
X16175471Y-13043637D01*
X16120861Y-13098247D01*
X16175471Y-13152857D01*
X16175471Y-14676857D02*
X16230081Y-14622247D01*
X16175471Y-14567637D01*
X16120861Y-14622247D01*
X16175471Y-14676857D01*
X16175471Y-14930857D02*
X16230081Y-14876247D01*
X16175471Y-14821637D01*
X16120861Y-14876247D01*
X16175471Y-14930857D01*
X16175471Y-14168857D02*
X16230081Y-14114247D01*
X16175471Y-14059637D01*
X16120861Y-14114247D01*
X16175471Y-14168857D01*
X16175471Y-13914857D02*
X16230081Y-13860247D01*
X16175471Y-13805637D01*
X16120861Y-13860247D01*
X16175471Y-13914857D01*
X16175471Y-15438857D02*
X16230081Y-15384247D01*
X16175471Y-15329637D01*
X16120861Y-15384247D01*
X16175471Y-15438857D01*
X16429471Y-14930857D02*
X16484081Y-14876247D01*
X16429471Y-14821637D01*
X16374861Y-14876247D01*
X16429471Y-14930857D01*
X16683471Y-14930857D02*
X16738081Y-14876247D01*
X16683471Y-14821637D01*
X16628861Y-14876247D01*
X16683471Y-14930857D01*
X16937471Y-14930857D02*
X16992081Y-14876247D01*
X16937471Y-14821637D01*
X16882861Y-14876247D01*
X16937471Y-14930857D01*
X17699470Y-12644857D02*
X17754080Y-12590247D01*
X17699470Y-12535637D01*
X17644860Y-12590247D01*
X17699470Y-12644857D01*
X17699471Y-14168857D02*
X17754081Y-14114247D01*
X17699471Y-14059637D01*
X17644861Y-14114247D01*
X17699471Y-14168857D01*
X17699471Y-13914857D02*
X17754081Y-13860247D01*
X17699471Y-13805637D01*
X17644861Y-13860247D01*
X17699471Y-13914857D01*
X17699471Y-13152857D02*
X17754081Y-13098247D01*
X17699471Y-13043637D01*
X17644861Y-13098247D01*
X17699471Y-13152857D01*
X17699471Y-13406857D02*
X17754081Y-13352247D01*
X17699471Y-13297637D01*
X17644861Y-13352247D01*
X17699471Y-13406857D01*
X17699471Y-14930857D02*
X17754081Y-14876247D01*
X17699471Y-14821637D01*
X17644861Y-14876247D01*
X17699471Y-14930857D01*
X17699471Y-12898857D02*
X17754081Y-12844247D01*
X17699471Y-12789637D01*
X17644861Y-12844247D01*
X17699471Y-12898857D01*
X17699471Y-14676857D02*
X17754081Y-14622247D01*
X17699471Y-14567637D01*
X17644861Y-14622247D01*
X17699471Y-14676857D01*
X17699471Y-15184857D02*
X17754081Y-15130247D01*
X17699471Y-15075637D01*
X17644861Y-15130247D01*
X17699471Y-15184857D01*
X17699471Y-13660857D02*
X17754081Y-13606247D01*
X17699471Y-13551637D01*
X17644861Y-13606247D01*
X17699471Y-13660857D01*
X17699471Y-14422857D02*
X17754081Y-14368247D01*
X17699471Y-14313637D01*
X17644861Y-14368247D01*
X17699471Y-14422857D01*
X17699472Y-15438856D02*
X17754082Y-15384246D01*
X17699472Y-15329636D01*
X17644862Y-15384246D01*
X17699472Y-15438856D01*
D10*
X18774471Y-17241248D02*
X18924471Y-17391248D01*
X18924471Y-17241248D02*
X18774471Y-17391248D01*
X18924471Y-17316248D02*
G75*
G02*
X18774471Y-17316248I-75000J0D01*
G01*
X18774471Y-17316248D02*
G75*
G02*
X18924471Y-17316248I75000J0D01*
G01*
D13*
X18914471Y-17241248D02*
X18784471Y-17241248D01*
X18784471Y-17391248D02*
G75*
G02*
X18784471Y-17241248I0J75000D01*
G01*
X18784471Y-17391248D02*
X18914471Y-17391248D01*
X18914471Y-17391248D02*
G75*
G03*
X18914471Y-17241248I0J75000D01*
G01*
D10*
X18774471Y-16121247D02*
X18924471Y-16271247D01*
X18924471Y-16121247D02*
X18774471Y-16271247D01*
X18924471Y-16196247D02*
G75*
G02*
X18774471Y-16196247I-75000J0D01*
G01*
X18774471Y-16196247D02*
G75*
G02*
X18924471Y-16196247I75000J0D01*
G01*
D13*
X18914471Y-16121247D02*
X18784471Y-16121247D01*
X18784471Y-16271247D02*
G75*
G02*
X18784471Y-16121247I0J75000D01*
G01*
X18784471Y-16271247D02*
X18914471Y-16271247D01*
X18914471Y-16271247D02*
G75*
G03*
X18914471Y-16121247I0J75000D01*
G01*
D15*
X7323128Y-14203685D02*
X7543128Y-14423685D01*
X7543128Y-14203685D02*
X7323128Y-14423685D01*
X7433128Y-14203685D02*
X7433128Y-14423685D01*
X7323128Y-14313685D02*
X7543128Y-14313685D01*
X8965747Y-18037315D02*
X9185747Y-18257315D01*
X9185747Y-18037315D02*
X8965747Y-18257315D01*
X9075747Y-18037315D02*
X9075747Y-18257315D01*
X8965747Y-18147315D02*
X9185747Y-18147315D01*
X9891897Y-13187696D02*
X10111897Y-13407696D01*
X10111897Y-13187696D02*
X9891897Y-13407696D01*
X10001897Y-13187696D02*
X10001897Y-13407696D01*
X9891897Y-13297696D02*
X10111897Y-13297696D01*
X11409717Y-16830692D02*
X11629717Y-17050692D01*
X11629717Y-16830692D02*
X11409717Y-17050692D01*
X11519717Y-16830692D02*
X11519717Y-17050692D01*
X11409717Y-16940692D02*
X11629717Y-16940692D01*
X13827472Y-13777247D02*
X14047472Y-13997247D01*
X14047472Y-13777247D02*
X13827472Y-13997247D01*
X13937472Y-13777247D02*
X13937472Y-13997247D01*
X13827472Y-13887247D02*
X14047472Y-13887247D01*
X15987470Y-16667247D02*
X16207470Y-16887247D01*
X16207470Y-16667247D02*
X15987470Y-16887247D01*
X16097470Y-16667247D02*
X16097470Y-16887247D01*
X15987470Y-16777247D02*
X16207470Y-16777247D01*
X17001517Y-19650476D02*
X17221517Y-19870476D01*
X17221517Y-19650476D02*
X17001517Y-19870476D01*
X17111517Y-19650476D02*
X17111517Y-19870476D01*
X17001517Y-19760476D02*
X17221517Y-19760476D01*
X17607469Y-17313247D02*
X17827469Y-17533247D01*
X17827469Y-17313247D02*
X17607469Y-17533247D01*
X17717469Y-17313247D02*
X17717469Y-17533247D01*
X17607469Y-17423247D02*
X17827469Y-17423247D01*
X18093471Y-12257247D02*
X18313471Y-12477247D01*
X18313471Y-12257247D02*
X18093471Y-12477247D01*
X18203471Y-12257247D02*
X18203471Y-12477247D01*
X18093471Y-12367247D02*
X18313471Y-12367247D01*
X19407471Y-17687246D02*
X19627471Y-17907246D01*
X19627471Y-17687246D02*
X19407471Y-17907246D01*
X19517471Y-17687246D02*
X19517471Y-17907246D01*
X19407471Y-17797246D02*
X19627471Y-17797246D01*
D12*
X5198569Y-22791535D02*
X5198569Y-22591535D01*
X5198569Y-22591535D02*
X5246188Y-22591535D01*
X5246188Y-22591535D02*
X5274760Y-22601059D01*
X5274760Y-22601059D02*
X5293807Y-22620106D01*
X5293807Y-22620106D02*
X5303331Y-22639154D01*
X5303331Y-22639154D02*
X5312855Y-22677249D01*
X5312855Y-22677249D02*
X5312855Y-22705821D01*
X5312855Y-22705821D02*
X5303331Y-22743916D01*
X5303331Y-22743916D02*
X5293807Y-22762963D01*
X5293807Y-22762963D02*
X5274760Y-22782011D01*
X5274760Y-22782011D02*
X5246188Y-22791535D01*
X5246188Y-22791535D02*
X5198569Y-22791535D01*
X5398569Y-22791535D02*
X5398569Y-22658202D01*
X5398569Y-22696297D02*
X5408093Y-22677249D01*
X5408093Y-22677249D02*
X5417617Y-22667725D01*
X5417617Y-22667725D02*
X5436665Y-22658202D01*
X5436665Y-22658202D02*
X5455712Y-22658202D01*
X5522379Y-22791535D02*
X5522379Y-22658202D01*
X5522379Y-22591535D02*
X5512855Y-22601059D01*
X5512855Y-22601059D02*
X5522379Y-22610583D01*
X5522379Y-22610583D02*
X5531903Y-22601059D01*
X5531903Y-22601059D02*
X5522379Y-22591535D01*
X5522379Y-22591535D02*
X5522379Y-22610583D01*
X5646188Y-22791535D02*
X5627141Y-22782011D01*
X5627141Y-22782011D02*
X5617617Y-22762963D01*
X5617617Y-22762963D02*
X5617617Y-22591535D01*
X5750950Y-22791535D02*
X5731903Y-22782011D01*
X5731903Y-22782011D02*
X5722379Y-22762963D01*
X5722379Y-22762963D02*
X5722379Y-22591535D01*
X5979522Y-22791535D02*
X5979522Y-22591535D01*
X5979522Y-22591535D02*
X6046188Y-22734392D01*
X6046188Y-22734392D02*
X6112855Y-22591535D01*
X6112855Y-22591535D02*
X6112855Y-22791535D01*
X6293807Y-22791535D02*
X6293807Y-22686773D01*
X6293807Y-22686773D02*
X6284284Y-22667725D01*
X6284284Y-22667725D02*
X6265236Y-22658202D01*
X6265236Y-22658202D02*
X6227141Y-22658202D01*
X6227141Y-22658202D02*
X6208093Y-22667725D01*
X6293807Y-22782011D02*
X6274760Y-22791535D01*
X6274760Y-22791535D02*
X6227141Y-22791535D01*
X6227141Y-22791535D02*
X6208093Y-22782011D01*
X6208093Y-22782011D02*
X6198569Y-22762963D01*
X6198569Y-22762963D02*
X6198569Y-22743916D01*
X6198569Y-22743916D02*
X6208093Y-22724868D01*
X6208093Y-22724868D02*
X6227141Y-22715344D01*
X6227141Y-22715344D02*
X6274760Y-22715344D01*
X6274760Y-22715344D02*
X6293807Y-22705821D01*
X6389045Y-22658202D02*
X6389045Y-22858202D01*
X6389045Y-22667725D02*
X6408093Y-22658202D01*
X6408093Y-22658202D02*
X6446188Y-22658202D01*
X6446188Y-22658202D02*
X6465236Y-22667725D01*
X6465236Y-22667725D02*
X6474760Y-22677249D01*
X6474760Y-22677249D02*
X6484284Y-22696297D01*
X6484284Y-22696297D02*
X6484284Y-22753440D01*
X6484284Y-22753440D02*
X6474760Y-22772487D01*
X6474760Y-22772487D02*
X6465236Y-22782011D01*
X6465236Y-22782011D02*
X6446188Y-22791535D01*
X6446188Y-22791535D02*
X6408093Y-22791535D01*
X6408093Y-22791535D02*
X6389045Y-22782011D01*
X6569998Y-22772487D02*
X6579522Y-22782011D01*
X6579522Y-22782011D02*
X6569998Y-22791535D01*
X6569998Y-22791535D02*
X6560474Y-22782011D01*
X6560474Y-22782011D02*
X6569998Y-22772487D01*
X6569998Y-22772487D02*
X6569998Y-22791535D01*
X6569998Y-22667725D02*
X6579522Y-22677249D01*
X6579522Y-22677249D02*
X6569998Y-22686773D01*
X6569998Y-22686773D02*
X6560474Y-22677249D01*
X6560474Y-22677249D02*
X6569998Y-22667725D01*
X6569998Y-22667725D02*
X6569998Y-22686773D01*
D13*
X4907793Y-23105051D02*
X4937793Y-23135051D01*
X4937793Y-23105051D02*
X4907793Y-23135051D01*
D12*
X5236665Y-23011535D02*
X5255712Y-23011535D01*
X5255712Y-23011535D02*
X5274760Y-23021059D01*
X5274760Y-23021059D02*
X5284284Y-23030583D01*
X5284284Y-23030583D02*
X5293807Y-23049630D01*
X5293807Y-23049630D02*
X5303331Y-23087725D01*
X5303331Y-23087725D02*
X5303331Y-23135344D01*
X5303331Y-23135344D02*
X5293807Y-23173440D01*
X5293807Y-23173440D02*
X5284284Y-23192487D01*
X5284284Y-23192487D02*
X5274760Y-23202011D01*
X5274760Y-23202011D02*
X5255712Y-23211535D01*
X5255712Y-23211535D02*
X5236665Y-23211535D01*
X5236665Y-23211535D02*
X5217617Y-23202011D01*
X5217617Y-23202011D02*
X5208093Y-23192487D01*
X5208093Y-23192487D02*
X5198569Y-23173440D01*
X5198569Y-23173440D02*
X5189046Y-23135344D01*
X5189046Y-23135344D02*
X5189046Y-23087725D01*
X5189046Y-23087725D02*
X5198569Y-23049630D01*
X5198569Y-23049630D02*
X5208093Y-23030583D01*
X5208093Y-23030583D02*
X5217617Y-23021059D01*
X5217617Y-23021059D02*
X5236665Y-23011535D01*
X5389046Y-23192487D02*
X5398569Y-23202011D01*
X5398569Y-23202011D02*
X5389046Y-23211535D01*
X5389046Y-23211535D02*
X5379522Y-23202011D01*
X5379522Y-23202011D02*
X5389046Y-23192487D01*
X5389046Y-23192487D02*
X5389046Y-23211535D01*
X5465236Y-23011535D02*
X5589046Y-23011535D01*
X5589046Y-23011535D02*
X5522379Y-23087725D01*
X5522379Y-23087725D02*
X5550950Y-23087725D01*
X5550950Y-23087725D02*
X5569998Y-23097249D01*
X5569998Y-23097249D02*
X5579522Y-23106773D01*
X5579522Y-23106773D02*
X5589046Y-23125821D01*
X5589046Y-23125821D02*
X5589046Y-23173440D01*
X5589046Y-23173440D02*
X5579522Y-23192487D01*
X5579522Y-23192487D02*
X5569998Y-23202011D01*
X5569998Y-23202011D02*
X5550950Y-23211535D01*
X5550950Y-23211535D02*
X5493807Y-23211535D01*
X5493807Y-23211535D02*
X5474760Y-23202011D01*
X5474760Y-23202011D02*
X5465236Y-23192487D01*
X5712855Y-23011535D02*
X5731903Y-23011535D01*
X5731903Y-23011535D02*
X5750950Y-23021059D01*
X5750950Y-23021059D02*
X5760474Y-23030583D01*
X5760474Y-23030583D02*
X5769998Y-23049630D01*
X5769998Y-23049630D02*
X5779522Y-23087725D01*
X5779522Y-23087725D02*
X5779522Y-23135344D01*
X5779522Y-23135344D02*
X5769998Y-23173440D01*
X5769998Y-23173440D02*
X5760474Y-23192487D01*
X5760474Y-23192487D02*
X5750950Y-23202011D01*
X5750950Y-23202011D02*
X5731903Y-23211535D01*
X5731903Y-23211535D02*
X5712855Y-23211535D01*
X5712855Y-23211535D02*
X5693807Y-23202011D01*
X5693807Y-23202011D02*
X5684284Y-23192487D01*
X5684284Y-23192487D02*
X5674760Y-23173440D01*
X5674760Y-23173440D02*
X5665236Y-23135344D01*
X5665236Y-23135344D02*
X5665236Y-23087725D01*
X5665236Y-23087725D02*
X5674760Y-23049630D01*
X5674760Y-23049630D02*
X5684284Y-23030583D01*
X5684284Y-23030583D02*
X5693807Y-23021059D01*
X5693807Y-23021059D02*
X5712855Y-23011535D01*
X5903331Y-23011535D02*
X5922379Y-23011535D01*
X5922379Y-23011535D02*
X5941426Y-23021059D01*
X5941426Y-23021059D02*
X5950950Y-23030583D01*
X5950950Y-23030583D02*
X5960474Y-23049630D01*
X5960474Y-23049630D02*
X5969998Y-23087725D01*
X5969998Y-23087725D02*
X5969998Y-23135344D01*
X5969998Y-23135344D02*
X5960474Y-23173440D01*
X5960474Y-23173440D02*
X5950950Y-23192487D01*
X5950950Y-23192487D02*
X5941426Y-23202011D01*
X5941426Y-23202011D02*
X5922379Y-23211535D01*
X5922379Y-23211535D02*
X5903331Y-23211535D01*
X5903331Y-23211535D02*
X5884284Y-23202011D01*
X5884284Y-23202011D02*
X5874760Y-23192487D01*
X5874760Y-23192487D02*
X5865236Y-23173440D01*
X5865236Y-23173440D02*
X5855712Y-23135344D01*
X5855712Y-23135344D02*
X5855712Y-23087725D01*
X5855712Y-23087725D02*
X5865236Y-23049630D01*
X5865236Y-23049630D02*
X5874760Y-23030583D01*
X5874760Y-23030583D02*
X5884284Y-23021059D01*
X5884284Y-23021059D02*
X5903331Y-23011535D01*
X6055712Y-23211535D02*
X6055712Y-23078202D01*
X6055712Y-23097249D02*
X6065236Y-23087725D01*
X6065236Y-23087725D02*
X6084284Y-23078202D01*
X6084284Y-23078202D02*
X6112855Y-23078202D01*
X6112855Y-23078202D02*
X6131903Y-23087725D01*
X6131903Y-23087725D02*
X6141426Y-23106773D01*
X6141426Y-23106773D02*
X6141426Y-23211535D01*
X6141426Y-23106773D02*
X6150950Y-23087725D01*
X6150950Y-23087725D02*
X6169998Y-23078202D01*
X6169998Y-23078202D02*
X6198569Y-23078202D01*
X6198569Y-23078202D02*
X6217617Y-23087725D01*
X6217617Y-23087725D02*
X6227141Y-23106773D01*
X6227141Y-23106773D02*
X6227141Y-23211535D01*
X6322379Y-23211535D02*
X6322379Y-23078202D01*
X6322379Y-23097249D02*
X6331903Y-23087725D01*
X6331903Y-23087725D02*
X6350950Y-23078202D01*
X6350950Y-23078202D02*
X6379522Y-23078202D01*
X6379522Y-23078202D02*
X6398569Y-23087725D01*
X6398569Y-23087725D02*
X6408093Y-23106773D01*
X6408093Y-23106773D02*
X6408093Y-23211535D01*
X6408093Y-23106773D02*
X6417617Y-23087725D01*
X6417617Y-23087725D02*
X6436665Y-23078202D01*
X6436665Y-23078202D02*
X6465236Y-23078202D01*
X6465236Y-23078202D02*
X6484284Y-23087725D01*
X6484284Y-23087725D02*
X6493807Y-23106773D01*
X6493807Y-23106773D02*
X6493807Y-23211535D01*
X6884284Y-23002011D02*
X6712855Y-23259154D01*
X7141427Y-23011535D02*
X7160474Y-23011535D01*
X7160474Y-23011535D02*
X7179522Y-23021059D01*
X7179522Y-23021059D02*
X7189046Y-23030583D01*
X7189046Y-23030583D02*
X7198569Y-23049630D01*
X7198569Y-23049630D02*
X7208093Y-23087725D01*
X7208093Y-23087725D02*
X7208093Y-23135344D01*
X7208093Y-23135344D02*
X7198569Y-23173440D01*
X7198569Y-23173440D02*
X7189046Y-23192487D01*
X7189046Y-23192487D02*
X7179522Y-23202011D01*
X7179522Y-23202011D02*
X7160474Y-23211535D01*
X7160474Y-23211535D02*
X7141427Y-23211535D01*
X7141427Y-23211535D02*
X7122379Y-23202011D01*
X7122379Y-23202011D02*
X7112855Y-23192487D01*
X7112855Y-23192487D02*
X7103331Y-23173440D01*
X7103331Y-23173440D02*
X7093808Y-23135344D01*
X7093808Y-23135344D02*
X7093808Y-23087725D01*
X7093808Y-23087725D02*
X7103331Y-23049630D01*
X7103331Y-23049630D02*
X7112855Y-23030583D01*
X7112855Y-23030583D02*
X7122379Y-23021059D01*
X7122379Y-23021059D02*
X7141427Y-23011535D01*
X7293808Y-23192487D02*
X7303331Y-23202011D01*
X7303331Y-23202011D02*
X7293808Y-23211535D01*
X7293808Y-23211535D02*
X7284284Y-23202011D01*
X7284284Y-23202011D02*
X7293808Y-23192487D01*
X7293808Y-23192487D02*
X7293808Y-23211535D01*
X7427141Y-23011535D02*
X7446189Y-23011535D01*
X7446189Y-23011535D02*
X7465236Y-23021059D01*
X7465236Y-23021059D02*
X7474760Y-23030583D01*
X7474760Y-23030583D02*
X7484284Y-23049630D01*
X7484284Y-23049630D02*
X7493808Y-23087725D01*
X7493808Y-23087725D02*
X7493808Y-23135344D01*
X7493808Y-23135344D02*
X7484284Y-23173440D01*
X7484284Y-23173440D02*
X7474760Y-23192487D01*
X7474760Y-23192487D02*
X7465236Y-23202011D01*
X7465236Y-23202011D02*
X7446189Y-23211535D01*
X7446189Y-23211535D02*
X7427141Y-23211535D01*
X7427141Y-23211535D02*
X7408093Y-23202011D01*
X7408093Y-23202011D02*
X7398569Y-23192487D01*
X7398569Y-23192487D02*
X7389046Y-23173440D01*
X7389046Y-23173440D02*
X7379522Y-23135344D01*
X7379522Y-23135344D02*
X7379522Y-23087725D01*
X7379522Y-23087725D02*
X7389046Y-23049630D01*
X7389046Y-23049630D02*
X7398569Y-23030583D01*
X7398569Y-23030583D02*
X7408093Y-23021059D01*
X7408093Y-23021059D02*
X7427141Y-23011535D01*
X7684284Y-23211535D02*
X7569998Y-23211535D01*
X7627141Y-23211535D02*
X7627141Y-23011535D01*
X7627141Y-23011535D02*
X7608093Y-23040106D01*
X7608093Y-23040106D02*
X7589046Y-23059154D01*
X7589046Y-23059154D02*
X7569998Y-23068678D01*
X7874760Y-23211535D02*
X7760474Y-23211535D01*
X7817617Y-23211535D02*
X7817617Y-23011535D01*
X7817617Y-23011535D02*
X7798569Y-23040106D01*
X7798569Y-23040106D02*
X7779522Y-23059154D01*
X7779522Y-23059154D02*
X7760474Y-23068678D01*
X7989046Y-23097249D02*
X7969998Y-23087725D01*
X7969998Y-23087725D02*
X7960474Y-23078202D01*
X7960474Y-23078202D02*
X7950950Y-23059154D01*
X7950950Y-23059154D02*
X7950950Y-23049630D01*
X7950950Y-23049630D02*
X7960474Y-23030583D01*
X7960474Y-23030583D02*
X7969998Y-23021059D01*
X7969998Y-23021059D02*
X7989046Y-23011535D01*
X7989046Y-23011535D02*
X8027141Y-23011535D01*
X8027141Y-23011535D02*
X8046189Y-23021059D01*
X8046189Y-23021059D02*
X8055712Y-23030583D01*
X8055712Y-23030583D02*
X8065236Y-23049630D01*
X8065236Y-23049630D02*
X8065236Y-23059154D01*
X8065236Y-23059154D02*
X8055712Y-23078202D01*
X8055712Y-23078202D02*
X8046189Y-23087725D01*
X8046189Y-23087725D02*
X8027141Y-23097249D01*
X8027141Y-23097249D02*
X7989046Y-23097249D01*
X7989046Y-23097249D02*
X7969998Y-23106773D01*
X7969998Y-23106773D02*
X7960474Y-23116297D01*
X7960474Y-23116297D02*
X7950950Y-23135344D01*
X7950950Y-23135344D02*
X7950950Y-23173440D01*
X7950950Y-23173440D02*
X7960474Y-23192487D01*
X7960474Y-23192487D02*
X7969998Y-23202011D01*
X7969998Y-23202011D02*
X7989046Y-23211535D01*
X7989046Y-23211535D02*
X8027141Y-23211535D01*
X8027141Y-23211535D02*
X8046189Y-23202011D01*
X8046189Y-23202011D02*
X8055712Y-23192487D01*
X8055712Y-23192487D02*
X8065236Y-23173440D01*
X8065236Y-23173440D02*
X8065236Y-23135344D01*
X8065236Y-23135344D02*
X8055712Y-23116297D01*
X8055712Y-23116297D02*
X8046189Y-23106773D01*
X8046189Y-23106773D02*
X8027141Y-23097249D01*
X8141427Y-23011535D02*
X8141427Y-23049630D01*
X8217617Y-23011535D02*
X8217617Y-23049630D01*
X8512855Y-23287725D02*
X8503332Y-23278202D01*
X8503332Y-23278202D02*
X8484284Y-23249630D01*
X8484284Y-23249630D02*
X8474760Y-23230583D01*
X8474760Y-23230583D02*
X8465236Y-23202011D01*
X8465236Y-23202011D02*
X8455713Y-23154392D01*
X8455713Y-23154392D02*
X8455713Y-23116297D01*
X8455713Y-23116297D02*
X8465236Y-23068678D01*
X8465236Y-23068678D02*
X8474760Y-23040106D01*
X8474760Y-23040106D02*
X8484284Y-23021059D01*
X8484284Y-23021059D02*
X8503332Y-22992487D01*
X8503332Y-22992487D02*
X8512855Y-22982963D01*
X8569998Y-23011535D02*
X8703332Y-23011535D01*
X8703332Y-23011535D02*
X8617617Y-23211535D01*
X8874760Y-23011535D02*
X8779522Y-23011535D01*
X8779522Y-23011535D02*
X8769998Y-23106773D01*
X8769998Y-23106773D02*
X8779522Y-23097249D01*
X8779522Y-23097249D02*
X8798570Y-23087725D01*
X8798570Y-23087725D02*
X8846189Y-23087725D01*
X8846189Y-23087725D02*
X8865236Y-23097249D01*
X8865236Y-23097249D02*
X8874760Y-23106773D01*
X8874760Y-23106773D02*
X8884284Y-23125821D01*
X8884284Y-23125821D02*
X8884284Y-23173440D01*
X8884284Y-23173440D02*
X8874760Y-23192487D01*
X8874760Y-23192487D02*
X8865236Y-23202011D01*
X8865236Y-23202011D02*
X8846189Y-23211535D01*
X8846189Y-23211535D02*
X8798570Y-23211535D01*
X8798570Y-23211535D02*
X8779522Y-23202011D01*
X8779522Y-23202011D02*
X8769998Y-23192487D01*
X9122379Y-23211535D02*
X9122379Y-23011535D01*
X9208094Y-23211535D02*
X9208094Y-23106773D01*
X9208094Y-23106773D02*
X9198570Y-23087725D01*
X9198570Y-23087725D02*
X9179522Y-23078202D01*
X9179522Y-23078202D02*
X9150951Y-23078202D01*
X9150951Y-23078202D02*
X9131903Y-23087725D01*
X9131903Y-23087725D02*
X9122379Y-23097249D01*
X9331903Y-23211535D02*
X9312855Y-23202011D01*
X9312855Y-23202011D02*
X9303332Y-23192487D01*
X9303332Y-23192487D02*
X9293808Y-23173440D01*
X9293808Y-23173440D02*
X9293808Y-23116297D01*
X9293808Y-23116297D02*
X9303332Y-23097249D01*
X9303332Y-23097249D02*
X9312855Y-23087725D01*
X9312855Y-23087725D02*
X9331903Y-23078202D01*
X9331903Y-23078202D02*
X9360475Y-23078202D01*
X9360475Y-23078202D02*
X9379522Y-23087725D01*
X9379522Y-23087725D02*
X9389046Y-23097249D01*
X9389046Y-23097249D02*
X9398570Y-23116297D01*
X9398570Y-23116297D02*
X9398570Y-23173440D01*
X9398570Y-23173440D02*
X9389046Y-23192487D01*
X9389046Y-23192487D02*
X9379522Y-23202011D01*
X9379522Y-23202011D02*
X9360475Y-23211535D01*
X9360475Y-23211535D02*
X9331903Y-23211535D01*
X9512855Y-23211535D02*
X9493808Y-23202011D01*
X9493808Y-23202011D02*
X9484284Y-23182963D01*
X9484284Y-23182963D02*
X9484284Y-23011535D01*
X9665236Y-23202011D02*
X9646189Y-23211535D01*
X9646189Y-23211535D02*
X9608094Y-23211535D01*
X9608094Y-23211535D02*
X9589046Y-23202011D01*
X9589046Y-23202011D02*
X9579522Y-23182963D01*
X9579522Y-23182963D02*
X9579522Y-23106773D01*
X9579522Y-23106773D02*
X9589046Y-23087725D01*
X9589046Y-23087725D02*
X9608094Y-23078202D01*
X9608094Y-23078202D02*
X9646189Y-23078202D01*
X9646189Y-23078202D02*
X9665236Y-23087725D01*
X9665236Y-23087725D02*
X9674760Y-23106773D01*
X9674760Y-23106773D02*
X9674760Y-23125821D01*
X9674760Y-23125821D02*
X9579522Y-23144868D01*
X9750951Y-23202011D02*
X9769998Y-23211535D01*
X9769998Y-23211535D02*
X9808094Y-23211535D01*
X9808094Y-23211535D02*
X9827141Y-23202011D01*
X9827141Y-23202011D02*
X9836665Y-23182963D01*
X9836665Y-23182963D02*
X9836665Y-23173440D01*
X9836665Y-23173440D02*
X9827141Y-23154392D01*
X9827141Y-23154392D02*
X9808094Y-23144868D01*
X9808094Y-23144868D02*
X9779522Y-23144868D01*
X9779522Y-23144868D02*
X9760475Y-23135344D01*
X9760475Y-23135344D02*
X9750951Y-23116297D01*
X9750951Y-23116297D02*
X9750951Y-23106773D01*
X9750951Y-23106773D02*
X9760475Y-23087725D01*
X9760475Y-23087725D02*
X9779522Y-23078202D01*
X9779522Y-23078202D02*
X9808094Y-23078202D01*
X9808094Y-23078202D02*
X9827141Y-23087725D01*
X9903332Y-23287725D02*
X9912856Y-23278202D01*
X9912856Y-23278202D02*
X9931903Y-23249630D01*
X9931903Y-23249630D02*
X9941427Y-23230583D01*
X9941427Y-23230583D02*
X9950951Y-23202011D01*
X9950951Y-23202011D02*
X9960475Y-23154392D01*
X9960475Y-23154392D02*
X9960475Y-23116297D01*
X9960475Y-23116297D02*
X9950951Y-23068678D01*
X9950951Y-23068678D02*
X9941427Y-23040106D01*
X9941427Y-23040106D02*
X9931903Y-23021059D01*
X9931903Y-23021059D02*
X9912856Y-22992487D01*
X9912856Y-22992487D02*
X9903332Y-22982963D01*
D13*
X4937793Y-23384051D02*
G75*
G02*
X4897793Y-23384051I-20000J0D01*
G01*
X4897793Y-23384051D02*
G75*
G02*
X4937793Y-23384051I20000J0D01*
G01*
D12*
X5236665Y-23275535D02*
X5255712Y-23275535D01*
X5255712Y-23275535D02*
X5274760Y-23285059D01*
X5274760Y-23285059D02*
X5284284Y-23294583D01*
X5284284Y-23294583D02*
X5293807Y-23313630D01*
X5293807Y-23313630D02*
X5303331Y-23351725D01*
X5303331Y-23351725D02*
X5303331Y-23399344D01*
X5303331Y-23399344D02*
X5293807Y-23437440D01*
X5293807Y-23437440D02*
X5284284Y-23456487D01*
X5284284Y-23456487D02*
X5274760Y-23466011D01*
X5274760Y-23466011D02*
X5255712Y-23475535D01*
X5255712Y-23475535D02*
X5236665Y-23475535D01*
X5236665Y-23475535D02*
X5217617Y-23466011D01*
X5217617Y-23466011D02*
X5208093Y-23456487D01*
X5208093Y-23456487D02*
X5198569Y-23437440D01*
X5198569Y-23437440D02*
X5189046Y-23399344D01*
X5189046Y-23399344D02*
X5189046Y-23351725D01*
X5189046Y-23351725D02*
X5198569Y-23313630D01*
X5198569Y-23313630D02*
X5208093Y-23294583D01*
X5208093Y-23294583D02*
X5217617Y-23285059D01*
X5217617Y-23285059D02*
X5236665Y-23275535D01*
X5389046Y-23456487D02*
X5398569Y-23466011D01*
X5398569Y-23466011D02*
X5389046Y-23475535D01*
X5389046Y-23475535D02*
X5379522Y-23466011D01*
X5379522Y-23466011D02*
X5389046Y-23456487D01*
X5389046Y-23456487D02*
X5389046Y-23475535D01*
X5569998Y-23342202D02*
X5569998Y-23475535D01*
X5522379Y-23266011D02*
X5474760Y-23408868D01*
X5474760Y-23408868D02*
X5598569Y-23408868D01*
X5712855Y-23275535D02*
X5731903Y-23275535D01*
X5731903Y-23275535D02*
X5750950Y-23285059D01*
X5750950Y-23285059D02*
X5760474Y-23294583D01*
X5760474Y-23294583D02*
X5769998Y-23313630D01*
X5769998Y-23313630D02*
X5779522Y-23351725D01*
X5779522Y-23351725D02*
X5779522Y-23399344D01*
X5779522Y-23399344D02*
X5769998Y-23437440D01*
X5769998Y-23437440D02*
X5760474Y-23456487D01*
X5760474Y-23456487D02*
X5750950Y-23466011D01*
X5750950Y-23466011D02*
X5731903Y-23475535D01*
X5731903Y-23475535D02*
X5712855Y-23475535D01*
X5712855Y-23475535D02*
X5693807Y-23466011D01*
X5693807Y-23466011D02*
X5684284Y-23456487D01*
X5684284Y-23456487D02*
X5674760Y-23437440D01*
X5674760Y-23437440D02*
X5665236Y-23399344D01*
X5665236Y-23399344D02*
X5665236Y-23351725D01*
X5665236Y-23351725D02*
X5674760Y-23313630D01*
X5674760Y-23313630D02*
X5684284Y-23294583D01*
X5684284Y-23294583D02*
X5693807Y-23285059D01*
X5693807Y-23285059D02*
X5712855Y-23275535D01*
X5903331Y-23275535D02*
X5922379Y-23275535D01*
X5922379Y-23275535D02*
X5941426Y-23285059D01*
X5941426Y-23285059D02*
X5950950Y-23294583D01*
X5950950Y-23294583D02*
X5960474Y-23313630D01*
X5960474Y-23313630D02*
X5969998Y-23351725D01*
X5969998Y-23351725D02*
X5969998Y-23399344D01*
X5969998Y-23399344D02*
X5960474Y-23437440D01*
X5960474Y-23437440D02*
X5950950Y-23456487D01*
X5950950Y-23456487D02*
X5941426Y-23466011D01*
X5941426Y-23466011D02*
X5922379Y-23475535D01*
X5922379Y-23475535D02*
X5903331Y-23475535D01*
X5903331Y-23475535D02*
X5884284Y-23466011D01*
X5884284Y-23466011D02*
X5874760Y-23456487D01*
X5874760Y-23456487D02*
X5865236Y-23437440D01*
X5865236Y-23437440D02*
X5855712Y-23399344D01*
X5855712Y-23399344D02*
X5855712Y-23351725D01*
X5855712Y-23351725D02*
X5865236Y-23313630D01*
X5865236Y-23313630D02*
X5874760Y-23294583D01*
X5874760Y-23294583D02*
X5884284Y-23285059D01*
X5884284Y-23285059D02*
X5903331Y-23275535D01*
X6055712Y-23475535D02*
X6055712Y-23342202D01*
X6055712Y-23361249D02*
X6065236Y-23351725D01*
X6065236Y-23351725D02*
X6084284Y-23342202D01*
X6084284Y-23342202D02*
X6112855Y-23342202D01*
X6112855Y-23342202D02*
X6131903Y-23351725D01*
X6131903Y-23351725D02*
X6141426Y-23370773D01*
X6141426Y-23370773D02*
X6141426Y-23475535D01*
X6141426Y-23370773D02*
X6150950Y-23351725D01*
X6150950Y-23351725D02*
X6169998Y-23342202D01*
X6169998Y-23342202D02*
X6198569Y-23342202D01*
X6198569Y-23342202D02*
X6217617Y-23351725D01*
X6217617Y-23351725D02*
X6227141Y-23370773D01*
X6227141Y-23370773D02*
X6227141Y-23475535D01*
X6322379Y-23475535D02*
X6322379Y-23342202D01*
X6322379Y-23361249D02*
X6331903Y-23351725D01*
X6331903Y-23351725D02*
X6350950Y-23342202D01*
X6350950Y-23342202D02*
X6379522Y-23342202D01*
X6379522Y-23342202D02*
X6398569Y-23351725D01*
X6398569Y-23351725D02*
X6408093Y-23370773D01*
X6408093Y-23370773D02*
X6408093Y-23475535D01*
X6408093Y-23370773D02*
X6417617Y-23351725D01*
X6417617Y-23351725D02*
X6436665Y-23342202D01*
X6436665Y-23342202D02*
X6465236Y-23342202D01*
X6465236Y-23342202D02*
X6484284Y-23351725D01*
X6484284Y-23351725D02*
X6493807Y-23370773D01*
X6493807Y-23370773D02*
X6493807Y-23475535D01*
X6884284Y-23266011D02*
X6712855Y-23523154D01*
X7141427Y-23275535D02*
X7160474Y-23275535D01*
X7160474Y-23275535D02*
X7179522Y-23285059D01*
X7179522Y-23285059D02*
X7189046Y-23294583D01*
X7189046Y-23294583D02*
X7198569Y-23313630D01*
X7198569Y-23313630D02*
X7208093Y-23351725D01*
X7208093Y-23351725D02*
X7208093Y-23399344D01*
X7208093Y-23399344D02*
X7198569Y-23437440D01*
X7198569Y-23437440D02*
X7189046Y-23456487D01*
X7189046Y-23456487D02*
X7179522Y-23466011D01*
X7179522Y-23466011D02*
X7160474Y-23475535D01*
X7160474Y-23475535D02*
X7141427Y-23475535D01*
X7141427Y-23475535D02*
X7122379Y-23466011D01*
X7122379Y-23466011D02*
X7112855Y-23456487D01*
X7112855Y-23456487D02*
X7103331Y-23437440D01*
X7103331Y-23437440D02*
X7093808Y-23399344D01*
X7093808Y-23399344D02*
X7093808Y-23351725D01*
X7093808Y-23351725D02*
X7103331Y-23313630D01*
X7103331Y-23313630D02*
X7112855Y-23294583D01*
X7112855Y-23294583D02*
X7122379Y-23285059D01*
X7122379Y-23285059D02*
X7141427Y-23275535D01*
X7293808Y-23456487D02*
X7303331Y-23466011D01*
X7303331Y-23466011D02*
X7293808Y-23475535D01*
X7293808Y-23475535D02*
X7284284Y-23466011D01*
X7284284Y-23466011D02*
X7293808Y-23456487D01*
X7293808Y-23456487D02*
X7293808Y-23475535D01*
X7427141Y-23275535D02*
X7446189Y-23275535D01*
X7446189Y-23275535D02*
X7465236Y-23285059D01*
X7465236Y-23285059D02*
X7474760Y-23294583D01*
X7474760Y-23294583D02*
X7484284Y-23313630D01*
X7484284Y-23313630D02*
X7493808Y-23351725D01*
X7493808Y-23351725D02*
X7493808Y-23399344D01*
X7493808Y-23399344D02*
X7484284Y-23437440D01*
X7484284Y-23437440D02*
X7474760Y-23456487D01*
X7474760Y-23456487D02*
X7465236Y-23466011D01*
X7465236Y-23466011D02*
X7446189Y-23475535D01*
X7446189Y-23475535D02*
X7427141Y-23475535D01*
X7427141Y-23475535D02*
X7408093Y-23466011D01*
X7408093Y-23466011D02*
X7398569Y-23456487D01*
X7398569Y-23456487D02*
X7389046Y-23437440D01*
X7389046Y-23437440D02*
X7379522Y-23399344D01*
X7379522Y-23399344D02*
X7379522Y-23351725D01*
X7379522Y-23351725D02*
X7389046Y-23313630D01*
X7389046Y-23313630D02*
X7398569Y-23294583D01*
X7398569Y-23294583D02*
X7408093Y-23285059D01*
X7408093Y-23285059D02*
X7427141Y-23275535D01*
X7684284Y-23475535D02*
X7569998Y-23475535D01*
X7627141Y-23475535D02*
X7627141Y-23275535D01*
X7627141Y-23275535D02*
X7608093Y-23304106D01*
X7608093Y-23304106D02*
X7589046Y-23323154D01*
X7589046Y-23323154D02*
X7569998Y-23332678D01*
X7865236Y-23275535D02*
X7769998Y-23275535D01*
X7769998Y-23275535D02*
X7760474Y-23370773D01*
X7760474Y-23370773D02*
X7769998Y-23361249D01*
X7769998Y-23361249D02*
X7789046Y-23351725D01*
X7789046Y-23351725D02*
X7836665Y-23351725D01*
X7836665Y-23351725D02*
X7855712Y-23361249D01*
X7855712Y-23361249D02*
X7865236Y-23370773D01*
X7865236Y-23370773D02*
X7874760Y-23389821D01*
X7874760Y-23389821D02*
X7874760Y-23437440D01*
X7874760Y-23437440D02*
X7865236Y-23456487D01*
X7865236Y-23456487D02*
X7855712Y-23466011D01*
X7855712Y-23466011D02*
X7836665Y-23475535D01*
X7836665Y-23475535D02*
X7789046Y-23475535D01*
X7789046Y-23475535D02*
X7769998Y-23466011D01*
X7769998Y-23466011D02*
X7760474Y-23456487D01*
X7941427Y-23275535D02*
X8074760Y-23275535D01*
X8074760Y-23275535D02*
X7989046Y-23475535D01*
X8141427Y-23275535D02*
X8141427Y-23313630D01*
X8217617Y-23275535D02*
X8217617Y-23313630D01*
X8512855Y-23551725D02*
X8503332Y-23542202D01*
X8503332Y-23542202D02*
X8484284Y-23513630D01*
X8484284Y-23513630D02*
X8474760Y-23494583D01*
X8474760Y-23494583D02*
X8465236Y-23466011D01*
X8465236Y-23466011D02*
X8455713Y-23418392D01*
X8455713Y-23418392D02*
X8455713Y-23380297D01*
X8455713Y-23380297D02*
X8465236Y-23332678D01*
X8465236Y-23332678D02*
X8474760Y-23304106D01*
X8474760Y-23304106D02*
X8484284Y-23285059D01*
X8484284Y-23285059D02*
X8503332Y-23256487D01*
X8503332Y-23256487D02*
X8512855Y-23246963D01*
X8617617Y-23361249D02*
X8598570Y-23351725D01*
X8598570Y-23351725D02*
X8589046Y-23342202D01*
X8589046Y-23342202D02*
X8579522Y-23323154D01*
X8579522Y-23323154D02*
X8579522Y-23313630D01*
X8579522Y-23313630D02*
X8589046Y-23294583D01*
X8589046Y-23294583D02*
X8598570Y-23285059D01*
X8598570Y-23285059D02*
X8617617Y-23275535D01*
X8617617Y-23275535D02*
X8655713Y-23275535D01*
X8655713Y-23275535D02*
X8674760Y-23285059D01*
X8674760Y-23285059D02*
X8684284Y-23294583D01*
X8684284Y-23294583D02*
X8693808Y-23313630D01*
X8693808Y-23313630D02*
X8693808Y-23323154D01*
X8693808Y-23323154D02*
X8684284Y-23342202D01*
X8684284Y-23342202D02*
X8674760Y-23351725D01*
X8674760Y-23351725D02*
X8655713Y-23361249D01*
X8655713Y-23361249D02*
X8617617Y-23361249D01*
X8617617Y-23361249D02*
X8598570Y-23370773D01*
X8598570Y-23370773D02*
X8589046Y-23380297D01*
X8589046Y-23380297D02*
X8579522Y-23399344D01*
X8579522Y-23399344D02*
X8579522Y-23437440D01*
X8579522Y-23437440D02*
X8589046Y-23456487D01*
X8589046Y-23456487D02*
X8598570Y-23466011D01*
X8598570Y-23466011D02*
X8617617Y-23475535D01*
X8617617Y-23475535D02*
X8655713Y-23475535D01*
X8655713Y-23475535D02*
X8674760Y-23466011D01*
X8674760Y-23466011D02*
X8684284Y-23456487D01*
X8684284Y-23456487D02*
X8693808Y-23437440D01*
X8693808Y-23437440D02*
X8693808Y-23399344D01*
X8693808Y-23399344D02*
X8684284Y-23380297D01*
X8684284Y-23380297D02*
X8674760Y-23370773D01*
X8674760Y-23370773D02*
X8655713Y-23361249D01*
X8817617Y-23275535D02*
X8836665Y-23275535D01*
X8836665Y-23275535D02*
X8855713Y-23285059D01*
X8855713Y-23285059D02*
X8865236Y-23294583D01*
X8865236Y-23294583D02*
X8874760Y-23313630D01*
X8874760Y-23313630D02*
X8884284Y-23351725D01*
X8884284Y-23351725D02*
X8884284Y-23399344D01*
X8884284Y-23399344D02*
X8874760Y-23437440D01*
X8874760Y-23437440D02*
X8865236Y-23456487D01*
X8865236Y-23456487D02*
X8855713Y-23466011D01*
X8855713Y-23466011D02*
X8836665Y-23475535D01*
X8836665Y-23475535D02*
X8817617Y-23475535D01*
X8817617Y-23475535D02*
X8798570Y-23466011D01*
X8798570Y-23466011D02*
X8789046Y-23456487D01*
X8789046Y-23456487D02*
X8779522Y-23437440D01*
X8779522Y-23437440D02*
X8769998Y-23399344D01*
X8769998Y-23399344D02*
X8769998Y-23351725D01*
X8769998Y-23351725D02*
X8779522Y-23313630D01*
X8779522Y-23313630D02*
X8789046Y-23294583D01*
X8789046Y-23294583D02*
X8798570Y-23285059D01*
X8798570Y-23285059D02*
X8817617Y-23275535D01*
X9122379Y-23475535D02*
X9122379Y-23275535D01*
X9208094Y-23475535D02*
X9208094Y-23370773D01*
X9208094Y-23370773D02*
X9198570Y-23351725D01*
X9198570Y-23351725D02*
X9179522Y-23342202D01*
X9179522Y-23342202D02*
X9150951Y-23342202D01*
X9150951Y-23342202D02*
X9131903Y-23351725D01*
X9131903Y-23351725D02*
X9122379Y-23361249D01*
X9331903Y-23475535D02*
X9312855Y-23466011D01*
X9312855Y-23466011D02*
X9303332Y-23456487D01*
X9303332Y-23456487D02*
X9293808Y-23437440D01*
X9293808Y-23437440D02*
X9293808Y-23380297D01*
X9293808Y-23380297D02*
X9303332Y-23361249D01*
X9303332Y-23361249D02*
X9312855Y-23351725D01*
X9312855Y-23351725D02*
X9331903Y-23342202D01*
X9331903Y-23342202D02*
X9360475Y-23342202D01*
X9360475Y-23342202D02*
X9379522Y-23351725D01*
X9379522Y-23351725D02*
X9389046Y-23361249D01*
X9389046Y-23361249D02*
X9398570Y-23380297D01*
X9398570Y-23380297D02*
X9398570Y-23437440D01*
X9398570Y-23437440D02*
X9389046Y-23456487D01*
X9389046Y-23456487D02*
X9379522Y-23466011D01*
X9379522Y-23466011D02*
X9360475Y-23475535D01*
X9360475Y-23475535D02*
X9331903Y-23475535D01*
X9512855Y-23475535D02*
X9493808Y-23466011D01*
X9493808Y-23466011D02*
X9484284Y-23446963D01*
X9484284Y-23446963D02*
X9484284Y-23275535D01*
X9665236Y-23466011D02*
X9646189Y-23475535D01*
X9646189Y-23475535D02*
X9608094Y-23475535D01*
X9608094Y-23475535D02*
X9589046Y-23466011D01*
X9589046Y-23466011D02*
X9579522Y-23446963D01*
X9579522Y-23446963D02*
X9579522Y-23370773D01*
X9579522Y-23370773D02*
X9589046Y-23351725D01*
X9589046Y-23351725D02*
X9608094Y-23342202D01*
X9608094Y-23342202D02*
X9646189Y-23342202D01*
X9646189Y-23342202D02*
X9665236Y-23351725D01*
X9665236Y-23351725D02*
X9674760Y-23370773D01*
X9674760Y-23370773D02*
X9674760Y-23389821D01*
X9674760Y-23389821D02*
X9579522Y-23408868D01*
X9750951Y-23466011D02*
X9769998Y-23475535D01*
X9769998Y-23475535D02*
X9808094Y-23475535D01*
X9808094Y-23475535D02*
X9827141Y-23466011D01*
X9827141Y-23466011D02*
X9836665Y-23446963D01*
X9836665Y-23446963D02*
X9836665Y-23437440D01*
X9836665Y-23437440D02*
X9827141Y-23418392D01*
X9827141Y-23418392D02*
X9808094Y-23408868D01*
X9808094Y-23408868D02*
X9779522Y-23408868D01*
X9779522Y-23408868D02*
X9760475Y-23399344D01*
X9760475Y-23399344D02*
X9750951Y-23380297D01*
X9750951Y-23380297D02*
X9750951Y-23370773D01*
X9750951Y-23370773D02*
X9760475Y-23351725D01*
X9760475Y-23351725D02*
X9779522Y-23342202D01*
X9779522Y-23342202D02*
X9808094Y-23342202D01*
X9808094Y-23342202D02*
X9827141Y-23351725D01*
X9903332Y-23551725D02*
X9912856Y-23542202D01*
X9912856Y-23542202D02*
X9931903Y-23513630D01*
X9931903Y-23513630D02*
X9941427Y-23494583D01*
X9941427Y-23494583D02*
X9950951Y-23466011D01*
X9950951Y-23466011D02*
X9960475Y-23418392D01*
X9960475Y-23418392D02*
X9960475Y-23380297D01*
X9960475Y-23380297D02*
X9950951Y-23332678D01*
X9950951Y-23332678D02*
X9941427Y-23304106D01*
X9941427Y-23304106D02*
X9931903Y-23285059D01*
X9931903Y-23285059D02*
X9912856Y-23256487D01*
X9912856Y-23256487D02*
X9903332Y-23246963D01*
D13*
X4900293Y-23610551D02*
X4900293Y-23685551D01*
X4862793Y-23648051D02*
X4937793Y-23648051D01*
D12*
X5236665Y-23539535D02*
X5255712Y-23539535D01*
X5255712Y-23539535D02*
X5274760Y-23549059D01*
X5274760Y-23549059D02*
X5284284Y-23558583D01*
X5284284Y-23558583D02*
X5293807Y-23577630D01*
X5293807Y-23577630D02*
X5303331Y-23615725D01*
X5303331Y-23615725D02*
X5303331Y-23663344D01*
X5303331Y-23663344D02*
X5293807Y-23701440D01*
X5293807Y-23701440D02*
X5284284Y-23720487D01*
X5284284Y-23720487D02*
X5274760Y-23730011D01*
X5274760Y-23730011D02*
X5255712Y-23739535D01*
X5255712Y-23739535D02*
X5236665Y-23739535D01*
X5236665Y-23739535D02*
X5217617Y-23730011D01*
X5217617Y-23730011D02*
X5208093Y-23720487D01*
X5208093Y-23720487D02*
X5198569Y-23701440D01*
X5198569Y-23701440D02*
X5189046Y-23663344D01*
X5189046Y-23663344D02*
X5189046Y-23615725D01*
X5189046Y-23615725D02*
X5198569Y-23577630D01*
X5198569Y-23577630D02*
X5208093Y-23558583D01*
X5208093Y-23558583D02*
X5217617Y-23549059D01*
X5217617Y-23549059D02*
X5236665Y-23539535D01*
X5389046Y-23720487D02*
X5398569Y-23730011D01*
X5398569Y-23730011D02*
X5389046Y-23739535D01*
X5389046Y-23739535D02*
X5379522Y-23730011D01*
X5379522Y-23730011D02*
X5389046Y-23720487D01*
X5389046Y-23720487D02*
X5389046Y-23739535D01*
X5465236Y-23539535D02*
X5598569Y-23539535D01*
X5598569Y-23539535D02*
X5512855Y-23739535D01*
X5769998Y-23539535D02*
X5674760Y-23539535D01*
X5674760Y-23539535D02*
X5665236Y-23634773D01*
X5665236Y-23634773D02*
X5674760Y-23625249D01*
X5674760Y-23625249D02*
X5693807Y-23615725D01*
X5693807Y-23615725D02*
X5741426Y-23615725D01*
X5741426Y-23615725D02*
X5760474Y-23625249D01*
X5760474Y-23625249D02*
X5769998Y-23634773D01*
X5769998Y-23634773D02*
X5779522Y-23653821D01*
X5779522Y-23653821D02*
X5779522Y-23701440D01*
X5779522Y-23701440D02*
X5769998Y-23720487D01*
X5769998Y-23720487D02*
X5760474Y-23730011D01*
X5760474Y-23730011D02*
X5741426Y-23739535D01*
X5741426Y-23739535D02*
X5693807Y-23739535D01*
X5693807Y-23739535D02*
X5674760Y-23730011D01*
X5674760Y-23730011D02*
X5665236Y-23720487D01*
X5903331Y-23539535D02*
X5922379Y-23539535D01*
X5922379Y-23539535D02*
X5941426Y-23549059D01*
X5941426Y-23549059D02*
X5950950Y-23558583D01*
X5950950Y-23558583D02*
X5960474Y-23577630D01*
X5960474Y-23577630D02*
X5969998Y-23615725D01*
X5969998Y-23615725D02*
X5969998Y-23663344D01*
X5969998Y-23663344D02*
X5960474Y-23701440D01*
X5960474Y-23701440D02*
X5950950Y-23720487D01*
X5950950Y-23720487D02*
X5941426Y-23730011D01*
X5941426Y-23730011D02*
X5922379Y-23739535D01*
X5922379Y-23739535D02*
X5903331Y-23739535D01*
X5903331Y-23739535D02*
X5884284Y-23730011D01*
X5884284Y-23730011D02*
X5874760Y-23720487D01*
X5874760Y-23720487D02*
X5865236Y-23701440D01*
X5865236Y-23701440D02*
X5855712Y-23663344D01*
X5855712Y-23663344D02*
X5855712Y-23615725D01*
X5855712Y-23615725D02*
X5865236Y-23577630D01*
X5865236Y-23577630D02*
X5874760Y-23558583D01*
X5874760Y-23558583D02*
X5884284Y-23549059D01*
X5884284Y-23549059D02*
X5903331Y-23539535D01*
X6055712Y-23739535D02*
X6055712Y-23606202D01*
X6055712Y-23625249D02*
X6065236Y-23615725D01*
X6065236Y-23615725D02*
X6084284Y-23606202D01*
X6084284Y-23606202D02*
X6112855Y-23606202D01*
X6112855Y-23606202D02*
X6131903Y-23615725D01*
X6131903Y-23615725D02*
X6141426Y-23634773D01*
X6141426Y-23634773D02*
X6141426Y-23739535D01*
X6141426Y-23634773D02*
X6150950Y-23615725D01*
X6150950Y-23615725D02*
X6169998Y-23606202D01*
X6169998Y-23606202D02*
X6198569Y-23606202D01*
X6198569Y-23606202D02*
X6217617Y-23615725D01*
X6217617Y-23615725D02*
X6227141Y-23634773D01*
X6227141Y-23634773D02*
X6227141Y-23739535D01*
X6322379Y-23739535D02*
X6322379Y-23606202D01*
X6322379Y-23625249D02*
X6331903Y-23615725D01*
X6331903Y-23615725D02*
X6350950Y-23606202D01*
X6350950Y-23606202D02*
X6379522Y-23606202D01*
X6379522Y-23606202D02*
X6398569Y-23615725D01*
X6398569Y-23615725D02*
X6408093Y-23634773D01*
X6408093Y-23634773D02*
X6408093Y-23739535D01*
X6408093Y-23634773D02*
X6417617Y-23615725D01*
X6417617Y-23615725D02*
X6436665Y-23606202D01*
X6436665Y-23606202D02*
X6465236Y-23606202D01*
X6465236Y-23606202D02*
X6484284Y-23615725D01*
X6484284Y-23615725D02*
X6493807Y-23634773D01*
X6493807Y-23634773D02*
X6493807Y-23739535D01*
X6884284Y-23530011D02*
X6712855Y-23787154D01*
X7141427Y-23539535D02*
X7160474Y-23539535D01*
X7160474Y-23539535D02*
X7179522Y-23549059D01*
X7179522Y-23549059D02*
X7189046Y-23558583D01*
X7189046Y-23558583D02*
X7198569Y-23577630D01*
X7198569Y-23577630D02*
X7208093Y-23615725D01*
X7208093Y-23615725D02*
X7208093Y-23663344D01*
X7208093Y-23663344D02*
X7198569Y-23701440D01*
X7198569Y-23701440D02*
X7189046Y-23720487D01*
X7189046Y-23720487D02*
X7179522Y-23730011D01*
X7179522Y-23730011D02*
X7160474Y-23739535D01*
X7160474Y-23739535D02*
X7141427Y-23739535D01*
X7141427Y-23739535D02*
X7122379Y-23730011D01*
X7122379Y-23730011D02*
X7112855Y-23720487D01*
X7112855Y-23720487D02*
X7103331Y-23701440D01*
X7103331Y-23701440D02*
X7093808Y-23663344D01*
X7093808Y-23663344D02*
X7093808Y-23615725D01*
X7093808Y-23615725D02*
X7103331Y-23577630D01*
X7103331Y-23577630D02*
X7112855Y-23558583D01*
X7112855Y-23558583D02*
X7122379Y-23549059D01*
X7122379Y-23549059D02*
X7141427Y-23539535D01*
X7293808Y-23720487D02*
X7303331Y-23730011D01*
X7303331Y-23730011D02*
X7293808Y-23739535D01*
X7293808Y-23739535D02*
X7284284Y-23730011D01*
X7284284Y-23730011D02*
X7293808Y-23720487D01*
X7293808Y-23720487D02*
X7293808Y-23739535D01*
X7427141Y-23539535D02*
X7446189Y-23539535D01*
X7446189Y-23539535D02*
X7465236Y-23549059D01*
X7465236Y-23549059D02*
X7474760Y-23558583D01*
X7474760Y-23558583D02*
X7484284Y-23577630D01*
X7484284Y-23577630D02*
X7493808Y-23615725D01*
X7493808Y-23615725D02*
X7493808Y-23663344D01*
X7493808Y-23663344D02*
X7484284Y-23701440D01*
X7484284Y-23701440D02*
X7474760Y-23720487D01*
X7474760Y-23720487D02*
X7465236Y-23730011D01*
X7465236Y-23730011D02*
X7446189Y-23739535D01*
X7446189Y-23739535D02*
X7427141Y-23739535D01*
X7427141Y-23739535D02*
X7408093Y-23730011D01*
X7408093Y-23730011D02*
X7398569Y-23720487D01*
X7398569Y-23720487D02*
X7389046Y-23701440D01*
X7389046Y-23701440D02*
X7379522Y-23663344D01*
X7379522Y-23663344D02*
X7379522Y-23615725D01*
X7379522Y-23615725D02*
X7389046Y-23577630D01*
X7389046Y-23577630D02*
X7398569Y-23558583D01*
X7398569Y-23558583D02*
X7408093Y-23549059D01*
X7408093Y-23549059D02*
X7427141Y-23539535D01*
X7569998Y-23558583D02*
X7579522Y-23549059D01*
X7579522Y-23549059D02*
X7598569Y-23539535D01*
X7598569Y-23539535D02*
X7646189Y-23539535D01*
X7646189Y-23539535D02*
X7665236Y-23549059D01*
X7665236Y-23549059D02*
X7674760Y-23558583D01*
X7674760Y-23558583D02*
X7684284Y-23577630D01*
X7684284Y-23577630D02*
X7684284Y-23596678D01*
X7684284Y-23596678D02*
X7674760Y-23625249D01*
X7674760Y-23625249D02*
X7560474Y-23739535D01*
X7560474Y-23739535D02*
X7684284Y-23739535D01*
X7779522Y-23739535D02*
X7817617Y-23739535D01*
X7817617Y-23739535D02*
X7836665Y-23730011D01*
X7836665Y-23730011D02*
X7846189Y-23720487D01*
X7846189Y-23720487D02*
X7865236Y-23691916D01*
X7865236Y-23691916D02*
X7874760Y-23653821D01*
X7874760Y-23653821D02*
X7874760Y-23577630D01*
X7874760Y-23577630D02*
X7865236Y-23558583D01*
X7865236Y-23558583D02*
X7855712Y-23549059D01*
X7855712Y-23549059D02*
X7836665Y-23539535D01*
X7836665Y-23539535D02*
X7798569Y-23539535D01*
X7798569Y-23539535D02*
X7779522Y-23549059D01*
X7779522Y-23549059D02*
X7769998Y-23558583D01*
X7769998Y-23558583D02*
X7760474Y-23577630D01*
X7760474Y-23577630D02*
X7760474Y-23625249D01*
X7760474Y-23625249D02*
X7769998Y-23644297D01*
X7769998Y-23644297D02*
X7779522Y-23653821D01*
X7779522Y-23653821D02*
X7798569Y-23663344D01*
X7798569Y-23663344D02*
X7836665Y-23663344D01*
X7836665Y-23663344D02*
X7855712Y-23653821D01*
X7855712Y-23653821D02*
X7865236Y-23644297D01*
X7865236Y-23644297D02*
X7874760Y-23625249D01*
X8055712Y-23539535D02*
X7960474Y-23539535D01*
X7960474Y-23539535D02*
X7950950Y-23634773D01*
X7950950Y-23634773D02*
X7960474Y-23625249D01*
X7960474Y-23625249D02*
X7979522Y-23615725D01*
X7979522Y-23615725D02*
X8027141Y-23615725D01*
X8027141Y-23615725D02*
X8046189Y-23625249D01*
X8046189Y-23625249D02*
X8055712Y-23634773D01*
X8055712Y-23634773D02*
X8065236Y-23653821D01*
X8065236Y-23653821D02*
X8065236Y-23701440D01*
X8065236Y-23701440D02*
X8055712Y-23720487D01*
X8055712Y-23720487D02*
X8046189Y-23730011D01*
X8046189Y-23730011D02*
X8027141Y-23739535D01*
X8027141Y-23739535D02*
X7979522Y-23739535D01*
X7979522Y-23739535D02*
X7960474Y-23730011D01*
X7960474Y-23730011D02*
X7950950Y-23720487D01*
X8141427Y-23539535D02*
X8141427Y-23577630D01*
X8217617Y-23539535D02*
X8217617Y-23577630D01*
X8512855Y-23815725D02*
X8503332Y-23806202D01*
X8503332Y-23806202D02*
X8484284Y-23777630D01*
X8484284Y-23777630D02*
X8474760Y-23758583D01*
X8474760Y-23758583D02*
X8465236Y-23730011D01*
X8465236Y-23730011D02*
X8455713Y-23682392D01*
X8455713Y-23682392D02*
X8455713Y-23644297D01*
X8455713Y-23644297D02*
X8465236Y-23596678D01*
X8465236Y-23596678D02*
X8474760Y-23568106D01*
X8474760Y-23568106D02*
X8484284Y-23549059D01*
X8484284Y-23549059D02*
X8503332Y-23520487D01*
X8503332Y-23520487D02*
X8512855Y-23510963D01*
X8579522Y-23558583D02*
X8589046Y-23549059D01*
X8589046Y-23549059D02*
X8608093Y-23539535D01*
X8608093Y-23539535D02*
X8655713Y-23539535D01*
X8655713Y-23539535D02*
X8674760Y-23549059D01*
X8674760Y-23549059D02*
X8684284Y-23558583D01*
X8684284Y-23558583D02*
X8693808Y-23577630D01*
X8693808Y-23577630D02*
X8693808Y-23596678D01*
X8693808Y-23596678D02*
X8684284Y-23625249D01*
X8684284Y-23625249D02*
X8569998Y-23739535D01*
X8569998Y-23739535D02*
X8693808Y-23739535D01*
X8931903Y-23739535D02*
X8931903Y-23539535D01*
X9017617Y-23739535D02*
X9017617Y-23634773D01*
X9017617Y-23634773D02*
X9008094Y-23615725D01*
X9008094Y-23615725D02*
X8989046Y-23606202D01*
X8989046Y-23606202D02*
X8960474Y-23606202D01*
X8960474Y-23606202D02*
X8941427Y-23615725D01*
X8941427Y-23615725D02*
X8931903Y-23625249D01*
X9141427Y-23739535D02*
X9122379Y-23730011D01*
X9122379Y-23730011D02*
X9112855Y-23720487D01*
X9112855Y-23720487D02*
X9103332Y-23701440D01*
X9103332Y-23701440D02*
X9103332Y-23644297D01*
X9103332Y-23644297D02*
X9112855Y-23625249D01*
X9112855Y-23625249D02*
X9122379Y-23615725D01*
X9122379Y-23615725D02*
X9141427Y-23606202D01*
X9141427Y-23606202D02*
X9169998Y-23606202D01*
X9169998Y-23606202D02*
X9189046Y-23615725D01*
X9189046Y-23615725D02*
X9198570Y-23625249D01*
X9198570Y-23625249D02*
X9208094Y-23644297D01*
X9208094Y-23644297D02*
X9208094Y-23701440D01*
X9208094Y-23701440D02*
X9198570Y-23720487D01*
X9198570Y-23720487D02*
X9189046Y-23730011D01*
X9189046Y-23730011D02*
X9169998Y-23739535D01*
X9169998Y-23739535D02*
X9141427Y-23739535D01*
X9322379Y-23739535D02*
X9303332Y-23730011D01*
X9303332Y-23730011D02*
X9293808Y-23710963D01*
X9293808Y-23710963D02*
X9293808Y-23539535D01*
X9474760Y-23730011D02*
X9455713Y-23739535D01*
X9455713Y-23739535D02*
X9417617Y-23739535D01*
X9417617Y-23739535D02*
X9398570Y-23730011D01*
X9398570Y-23730011D02*
X9389046Y-23710963D01*
X9389046Y-23710963D02*
X9389046Y-23634773D01*
X9389046Y-23634773D02*
X9398570Y-23615725D01*
X9398570Y-23615725D02*
X9417617Y-23606202D01*
X9417617Y-23606202D02*
X9455713Y-23606202D01*
X9455713Y-23606202D02*
X9474760Y-23615725D01*
X9474760Y-23615725D02*
X9484284Y-23634773D01*
X9484284Y-23634773D02*
X9484284Y-23653821D01*
X9484284Y-23653821D02*
X9389046Y-23672868D01*
X9560475Y-23730011D02*
X9579522Y-23739535D01*
X9579522Y-23739535D02*
X9617617Y-23739535D01*
X9617617Y-23739535D02*
X9636665Y-23730011D01*
X9636665Y-23730011D02*
X9646189Y-23710963D01*
X9646189Y-23710963D02*
X9646189Y-23701440D01*
X9646189Y-23701440D02*
X9636665Y-23682392D01*
X9636665Y-23682392D02*
X9617617Y-23672868D01*
X9617617Y-23672868D02*
X9589046Y-23672868D01*
X9589046Y-23672868D02*
X9569998Y-23663344D01*
X9569998Y-23663344D02*
X9560475Y-23644297D01*
X9560475Y-23644297D02*
X9560475Y-23634773D01*
X9560475Y-23634773D02*
X9569998Y-23615725D01*
X9569998Y-23615725D02*
X9589046Y-23606202D01*
X9589046Y-23606202D02*
X9617617Y-23606202D01*
X9617617Y-23606202D02*
X9636665Y-23615725D01*
X9712856Y-23815725D02*
X9722379Y-23806202D01*
X9722379Y-23806202D02*
X9741427Y-23777630D01*
X9741427Y-23777630D02*
X9750951Y-23758583D01*
X9750951Y-23758583D02*
X9760475Y-23730011D01*
X9760475Y-23730011D02*
X9769998Y-23682392D01*
X9769998Y-23682392D02*
X9769998Y-23644297D01*
X9769998Y-23644297D02*
X9760475Y-23596678D01*
X9760475Y-23596678D02*
X9750951Y-23568106D01*
X9750951Y-23568106D02*
X9741427Y-23549059D01*
X9741427Y-23549059D02*
X9722379Y-23520487D01*
X9722379Y-23520487D02*
X9712856Y-23510963D01*
D13*
X4923148Y-23947407D02*
X4923148Y-23876695D01*
X4852437Y-23876695D01*
X4852437Y-23947407D01*
X4923148Y-23947407D01*
D12*
X5303331Y-24003535D02*
X5189046Y-24003535D01*
X5246188Y-24003535D02*
X5246188Y-23803535D01*
X5246188Y-23803535D02*
X5227141Y-23832106D01*
X5227141Y-23832106D02*
X5208093Y-23851154D01*
X5208093Y-23851154D02*
X5189046Y-23860678D01*
X5389046Y-23984487D02*
X5398569Y-23994011D01*
X5398569Y-23994011D02*
X5389046Y-24003535D01*
X5389046Y-24003535D02*
X5379522Y-23994011D01*
X5379522Y-23994011D02*
X5389046Y-23984487D01*
X5389046Y-23984487D02*
X5389046Y-24003535D01*
X5522379Y-23803535D02*
X5541427Y-23803535D01*
X5541427Y-23803535D02*
X5560474Y-23813059D01*
X5560474Y-23813059D02*
X5569998Y-23822583D01*
X5569998Y-23822583D02*
X5579522Y-23841630D01*
X5579522Y-23841630D02*
X5589046Y-23879725D01*
X5589046Y-23879725D02*
X5589046Y-23927344D01*
X5589046Y-23927344D02*
X5579522Y-23965440D01*
X5579522Y-23965440D02*
X5569998Y-23984487D01*
X5569998Y-23984487D02*
X5560474Y-23994011D01*
X5560474Y-23994011D02*
X5541427Y-24003535D01*
X5541427Y-24003535D02*
X5522379Y-24003535D01*
X5522379Y-24003535D02*
X5503331Y-23994011D01*
X5503331Y-23994011D02*
X5493807Y-23984487D01*
X5493807Y-23984487D02*
X5484284Y-23965440D01*
X5484284Y-23965440D02*
X5474760Y-23927344D01*
X5474760Y-23927344D02*
X5474760Y-23879725D01*
X5474760Y-23879725D02*
X5484284Y-23841630D01*
X5484284Y-23841630D02*
X5493807Y-23822583D01*
X5493807Y-23822583D02*
X5503331Y-23813059D01*
X5503331Y-23813059D02*
X5522379Y-23803535D01*
X5712855Y-23803535D02*
X5731903Y-23803535D01*
X5731903Y-23803535D02*
X5750950Y-23813059D01*
X5750950Y-23813059D02*
X5760474Y-23822583D01*
X5760474Y-23822583D02*
X5769998Y-23841630D01*
X5769998Y-23841630D02*
X5779522Y-23879725D01*
X5779522Y-23879725D02*
X5779522Y-23927344D01*
X5779522Y-23927344D02*
X5769998Y-23965440D01*
X5769998Y-23965440D02*
X5760474Y-23984487D01*
X5760474Y-23984487D02*
X5750950Y-23994011D01*
X5750950Y-23994011D02*
X5731903Y-24003535D01*
X5731903Y-24003535D02*
X5712855Y-24003535D01*
X5712855Y-24003535D02*
X5693807Y-23994011D01*
X5693807Y-23994011D02*
X5684284Y-23984487D01*
X5684284Y-23984487D02*
X5674760Y-23965440D01*
X5674760Y-23965440D02*
X5665236Y-23927344D01*
X5665236Y-23927344D02*
X5665236Y-23879725D01*
X5665236Y-23879725D02*
X5674760Y-23841630D01*
X5674760Y-23841630D02*
X5684284Y-23822583D01*
X5684284Y-23822583D02*
X5693807Y-23813059D01*
X5693807Y-23813059D02*
X5712855Y-23803535D01*
X5903331Y-23803535D02*
X5922379Y-23803535D01*
X5922379Y-23803535D02*
X5941426Y-23813059D01*
X5941426Y-23813059D02*
X5950950Y-23822583D01*
X5950950Y-23822583D02*
X5960474Y-23841630D01*
X5960474Y-23841630D02*
X5969998Y-23879725D01*
X5969998Y-23879725D02*
X5969998Y-23927344D01*
X5969998Y-23927344D02*
X5960474Y-23965440D01*
X5960474Y-23965440D02*
X5950950Y-23984487D01*
X5950950Y-23984487D02*
X5941426Y-23994011D01*
X5941426Y-23994011D02*
X5922379Y-24003535D01*
X5922379Y-24003535D02*
X5903331Y-24003535D01*
X5903331Y-24003535D02*
X5884284Y-23994011D01*
X5884284Y-23994011D02*
X5874760Y-23984487D01*
X5874760Y-23984487D02*
X5865236Y-23965440D01*
X5865236Y-23965440D02*
X5855712Y-23927344D01*
X5855712Y-23927344D02*
X5855712Y-23879725D01*
X5855712Y-23879725D02*
X5865236Y-23841630D01*
X5865236Y-23841630D02*
X5874760Y-23822583D01*
X5874760Y-23822583D02*
X5884284Y-23813059D01*
X5884284Y-23813059D02*
X5903331Y-23803535D01*
X6055712Y-24003535D02*
X6055712Y-23870202D01*
X6055712Y-23889249D02*
X6065236Y-23879725D01*
X6065236Y-23879725D02*
X6084284Y-23870202D01*
X6084284Y-23870202D02*
X6112855Y-23870202D01*
X6112855Y-23870202D02*
X6131903Y-23879725D01*
X6131903Y-23879725D02*
X6141426Y-23898773D01*
X6141426Y-23898773D02*
X6141426Y-24003535D01*
X6141426Y-23898773D02*
X6150950Y-23879725D01*
X6150950Y-23879725D02*
X6169998Y-23870202D01*
X6169998Y-23870202D02*
X6198569Y-23870202D01*
X6198569Y-23870202D02*
X6217617Y-23879725D01*
X6217617Y-23879725D02*
X6227141Y-23898773D01*
X6227141Y-23898773D02*
X6227141Y-24003535D01*
X6322379Y-24003535D02*
X6322379Y-23870202D01*
X6322379Y-23889249D02*
X6331903Y-23879725D01*
X6331903Y-23879725D02*
X6350950Y-23870202D01*
X6350950Y-23870202D02*
X6379522Y-23870202D01*
X6379522Y-23870202D02*
X6398569Y-23879725D01*
X6398569Y-23879725D02*
X6408093Y-23898773D01*
X6408093Y-23898773D02*
X6408093Y-24003535D01*
X6408093Y-23898773D02*
X6417617Y-23879725D01*
X6417617Y-23879725D02*
X6436665Y-23870202D01*
X6436665Y-23870202D02*
X6465236Y-23870202D01*
X6465236Y-23870202D02*
X6484284Y-23879725D01*
X6484284Y-23879725D02*
X6493807Y-23898773D01*
X6493807Y-23898773D02*
X6493807Y-24003535D01*
X6884284Y-23794011D02*
X6712855Y-24051154D01*
X7141427Y-23803535D02*
X7160474Y-23803535D01*
X7160474Y-23803535D02*
X7179522Y-23813059D01*
X7179522Y-23813059D02*
X7189046Y-23822583D01*
X7189046Y-23822583D02*
X7198569Y-23841630D01*
X7198569Y-23841630D02*
X7208093Y-23879725D01*
X7208093Y-23879725D02*
X7208093Y-23927344D01*
X7208093Y-23927344D02*
X7198569Y-23965440D01*
X7198569Y-23965440D02*
X7189046Y-23984487D01*
X7189046Y-23984487D02*
X7179522Y-23994011D01*
X7179522Y-23994011D02*
X7160474Y-24003535D01*
X7160474Y-24003535D02*
X7141427Y-24003535D01*
X7141427Y-24003535D02*
X7122379Y-23994011D01*
X7122379Y-23994011D02*
X7112855Y-23984487D01*
X7112855Y-23984487D02*
X7103331Y-23965440D01*
X7103331Y-23965440D02*
X7093808Y-23927344D01*
X7093808Y-23927344D02*
X7093808Y-23879725D01*
X7093808Y-23879725D02*
X7103331Y-23841630D01*
X7103331Y-23841630D02*
X7112855Y-23822583D01*
X7112855Y-23822583D02*
X7122379Y-23813059D01*
X7122379Y-23813059D02*
X7141427Y-23803535D01*
X7293808Y-23984487D02*
X7303331Y-23994011D01*
X7303331Y-23994011D02*
X7293808Y-24003535D01*
X7293808Y-24003535D02*
X7284284Y-23994011D01*
X7284284Y-23994011D02*
X7293808Y-23984487D01*
X7293808Y-23984487D02*
X7293808Y-24003535D01*
X7427141Y-23803535D02*
X7446189Y-23803535D01*
X7446189Y-23803535D02*
X7465236Y-23813059D01*
X7465236Y-23813059D02*
X7474760Y-23822583D01*
X7474760Y-23822583D02*
X7484284Y-23841630D01*
X7484284Y-23841630D02*
X7493808Y-23879725D01*
X7493808Y-23879725D02*
X7493808Y-23927344D01*
X7493808Y-23927344D02*
X7484284Y-23965440D01*
X7484284Y-23965440D02*
X7474760Y-23984487D01*
X7474760Y-23984487D02*
X7465236Y-23994011D01*
X7465236Y-23994011D02*
X7446189Y-24003535D01*
X7446189Y-24003535D02*
X7427141Y-24003535D01*
X7427141Y-24003535D02*
X7408093Y-23994011D01*
X7408093Y-23994011D02*
X7398569Y-23984487D01*
X7398569Y-23984487D02*
X7389046Y-23965440D01*
X7389046Y-23965440D02*
X7379522Y-23927344D01*
X7379522Y-23927344D02*
X7379522Y-23879725D01*
X7379522Y-23879725D02*
X7389046Y-23841630D01*
X7389046Y-23841630D02*
X7398569Y-23822583D01*
X7398569Y-23822583D02*
X7408093Y-23813059D01*
X7408093Y-23813059D02*
X7427141Y-23803535D01*
X7560474Y-23803535D02*
X7684284Y-23803535D01*
X7684284Y-23803535D02*
X7617617Y-23879725D01*
X7617617Y-23879725D02*
X7646189Y-23879725D01*
X7646189Y-23879725D02*
X7665236Y-23889249D01*
X7665236Y-23889249D02*
X7674760Y-23898773D01*
X7674760Y-23898773D02*
X7684284Y-23917821D01*
X7684284Y-23917821D02*
X7684284Y-23965440D01*
X7684284Y-23965440D02*
X7674760Y-23984487D01*
X7674760Y-23984487D02*
X7665236Y-23994011D01*
X7665236Y-23994011D02*
X7646189Y-24003535D01*
X7646189Y-24003535D02*
X7589046Y-24003535D01*
X7589046Y-24003535D02*
X7569998Y-23994011D01*
X7569998Y-23994011D02*
X7560474Y-23984487D01*
X7779522Y-24003535D02*
X7817617Y-24003535D01*
X7817617Y-24003535D02*
X7836665Y-23994011D01*
X7836665Y-23994011D02*
X7846189Y-23984487D01*
X7846189Y-23984487D02*
X7865236Y-23955916D01*
X7865236Y-23955916D02*
X7874760Y-23917821D01*
X7874760Y-23917821D02*
X7874760Y-23841630D01*
X7874760Y-23841630D02*
X7865236Y-23822583D01*
X7865236Y-23822583D02*
X7855712Y-23813059D01*
X7855712Y-23813059D02*
X7836665Y-23803535D01*
X7836665Y-23803535D02*
X7798569Y-23803535D01*
X7798569Y-23803535D02*
X7779522Y-23813059D01*
X7779522Y-23813059D02*
X7769998Y-23822583D01*
X7769998Y-23822583D02*
X7760474Y-23841630D01*
X7760474Y-23841630D02*
X7760474Y-23889249D01*
X7760474Y-23889249D02*
X7769998Y-23908297D01*
X7769998Y-23908297D02*
X7779522Y-23917821D01*
X7779522Y-23917821D02*
X7798569Y-23927344D01*
X7798569Y-23927344D02*
X7836665Y-23927344D01*
X7836665Y-23927344D02*
X7855712Y-23917821D01*
X7855712Y-23917821D02*
X7865236Y-23908297D01*
X7865236Y-23908297D02*
X7874760Y-23889249D01*
X8046189Y-23870202D02*
X8046189Y-24003535D01*
X7998569Y-23794011D02*
X7950950Y-23936868D01*
X7950950Y-23936868D02*
X8074760Y-23936868D01*
X8141427Y-23803535D02*
X8141427Y-23841630D01*
X8217617Y-23803535D02*
X8217617Y-23841630D01*
X8512855Y-24079725D02*
X8503332Y-24070202D01*
X8503332Y-24070202D02*
X8484284Y-24041630D01*
X8484284Y-24041630D02*
X8474760Y-24022583D01*
X8474760Y-24022583D02*
X8465236Y-23994011D01*
X8465236Y-23994011D02*
X8455713Y-23946392D01*
X8455713Y-23946392D02*
X8455713Y-23908297D01*
X8455713Y-23908297D02*
X8465236Y-23860678D01*
X8465236Y-23860678D02*
X8474760Y-23832106D01*
X8474760Y-23832106D02*
X8484284Y-23813059D01*
X8484284Y-23813059D02*
X8503332Y-23784487D01*
X8503332Y-23784487D02*
X8512855Y-23774963D01*
X8693808Y-24003535D02*
X8579522Y-24003535D01*
X8636665Y-24003535D02*
X8636665Y-23803535D01*
X8636665Y-23803535D02*
X8617617Y-23832106D01*
X8617617Y-23832106D02*
X8598570Y-23851154D01*
X8598570Y-23851154D02*
X8579522Y-23860678D01*
X8817617Y-23803535D02*
X8836665Y-23803535D01*
X8836665Y-23803535D02*
X8855713Y-23813059D01*
X8855713Y-23813059D02*
X8865236Y-23822583D01*
X8865236Y-23822583D02*
X8874760Y-23841630D01*
X8874760Y-23841630D02*
X8884284Y-23879725D01*
X8884284Y-23879725D02*
X8884284Y-23927344D01*
X8884284Y-23927344D02*
X8874760Y-23965440D01*
X8874760Y-23965440D02*
X8865236Y-23984487D01*
X8865236Y-23984487D02*
X8855713Y-23994011D01*
X8855713Y-23994011D02*
X8836665Y-24003535D01*
X8836665Y-24003535D02*
X8817617Y-24003535D01*
X8817617Y-24003535D02*
X8798570Y-23994011D01*
X8798570Y-23994011D02*
X8789046Y-23984487D01*
X8789046Y-23984487D02*
X8779522Y-23965440D01*
X8779522Y-23965440D02*
X8769998Y-23927344D01*
X8769998Y-23927344D02*
X8769998Y-23879725D01*
X8769998Y-23879725D02*
X8779522Y-23841630D01*
X8779522Y-23841630D02*
X8789046Y-23822583D01*
X8789046Y-23822583D02*
X8798570Y-23813059D01*
X8798570Y-23813059D02*
X8817617Y-23803535D01*
X9122379Y-24003535D02*
X9122379Y-23803535D01*
X9208094Y-24003535D02*
X9208094Y-23898773D01*
X9208094Y-23898773D02*
X9198570Y-23879725D01*
X9198570Y-23879725D02*
X9179522Y-23870202D01*
X9179522Y-23870202D02*
X9150951Y-23870202D01*
X9150951Y-23870202D02*
X9131903Y-23879725D01*
X9131903Y-23879725D02*
X9122379Y-23889249D01*
X9331903Y-24003535D02*
X9312855Y-23994011D01*
X9312855Y-23994011D02*
X9303332Y-23984487D01*
X9303332Y-23984487D02*
X9293808Y-23965440D01*
X9293808Y-23965440D02*
X9293808Y-23908297D01*
X9293808Y-23908297D02*
X9303332Y-23889249D01*
X9303332Y-23889249D02*
X9312855Y-23879725D01*
X9312855Y-23879725D02*
X9331903Y-23870202D01*
X9331903Y-23870202D02*
X9360475Y-23870202D01*
X9360475Y-23870202D02*
X9379522Y-23879725D01*
X9379522Y-23879725D02*
X9389046Y-23889249D01*
X9389046Y-23889249D02*
X9398570Y-23908297D01*
X9398570Y-23908297D02*
X9398570Y-23965440D01*
X9398570Y-23965440D02*
X9389046Y-23984487D01*
X9389046Y-23984487D02*
X9379522Y-23994011D01*
X9379522Y-23994011D02*
X9360475Y-24003535D01*
X9360475Y-24003535D02*
X9331903Y-24003535D01*
X9512855Y-24003535D02*
X9493808Y-23994011D01*
X9493808Y-23994011D02*
X9484284Y-23974963D01*
X9484284Y-23974963D02*
X9484284Y-23803535D01*
X9665236Y-23994011D02*
X9646189Y-24003535D01*
X9646189Y-24003535D02*
X9608094Y-24003535D01*
X9608094Y-24003535D02*
X9589046Y-23994011D01*
X9589046Y-23994011D02*
X9579522Y-23974963D01*
X9579522Y-23974963D02*
X9579522Y-23898773D01*
X9579522Y-23898773D02*
X9589046Y-23879725D01*
X9589046Y-23879725D02*
X9608094Y-23870202D01*
X9608094Y-23870202D02*
X9646189Y-23870202D01*
X9646189Y-23870202D02*
X9665236Y-23879725D01*
X9665236Y-23879725D02*
X9674760Y-23898773D01*
X9674760Y-23898773D02*
X9674760Y-23917821D01*
X9674760Y-23917821D02*
X9579522Y-23936868D01*
X9750951Y-23994011D02*
X9769998Y-24003535D01*
X9769998Y-24003535D02*
X9808094Y-24003535D01*
X9808094Y-24003535D02*
X9827141Y-23994011D01*
X9827141Y-23994011D02*
X9836665Y-23974963D01*
X9836665Y-23974963D02*
X9836665Y-23965440D01*
X9836665Y-23965440D02*
X9827141Y-23946392D01*
X9827141Y-23946392D02*
X9808094Y-23936868D01*
X9808094Y-23936868D02*
X9779522Y-23936868D01*
X9779522Y-23936868D02*
X9760475Y-23927344D01*
X9760475Y-23927344D02*
X9750951Y-23908297D01*
X9750951Y-23908297D02*
X9750951Y-23898773D01*
X9750951Y-23898773D02*
X9760475Y-23879725D01*
X9760475Y-23879725D02*
X9779522Y-23870202D01*
X9779522Y-23870202D02*
X9808094Y-23870202D01*
X9808094Y-23870202D02*
X9827141Y-23879725D01*
X9903332Y-24079725D02*
X9912856Y-24070202D01*
X9912856Y-24070202D02*
X9931903Y-24041630D01*
X9931903Y-24041630D02*
X9941427Y-24022583D01*
X9941427Y-24022583D02*
X9950951Y-23994011D01*
X9950951Y-23994011D02*
X9960475Y-23946392D01*
X9960475Y-23946392D02*
X9960475Y-23908297D01*
X9960475Y-23908297D02*
X9950951Y-23860678D01*
X9950951Y-23860678D02*
X9941427Y-23832106D01*
X9941427Y-23832106D02*
X9931903Y-23813059D01*
X9931903Y-23813059D02*
X9912856Y-23784487D01*
X9912856Y-23784487D02*
X9903332Y-23774963D01*
D14*
X4883183Y-24230661D02*
X4937793Y-24176051D01*
X4883183Y-24121441D01*
X4828573Y-24176051D01*
X4883183Y-24230661D01*
D12*
X5303331Y-24267535D02*
X5189046Y-24267535D01*
X5246188Y-24267535D02*
X5246188Y-24067535D01*
X5246188Y-24067535D02*
X5227141Y-24096106D01*
X5227141Y-24096106D02*
X5208093Y-24115154D01*
X5208093Y-24115154D02*
X5189046Y-24124678D01*
X5389046Y-24248487D02*
X5398569Y-24258011D01*
X5398569Y-24258011D02*
X5389046Y-24267535D01*
X5389046Y-24267535D02*
X5379522Y-24258011D01*
X5379522Y-24258011D02*
X5389046Y-24248487D01*
X5389046Y-24248487D02*
X5389046Y-24267535D01*
X5522379Y-24067535D02*
X5541427Y-24067535D01*
X5541427Y-24067535D02*
X5560474Y-24077059D01*
X5560474Y-24077059D02*
X5569998Y-24086583D01*
X5569998Y-24086583D02*
X5579522Y-24105630D01*
X5579522Y-24105630D02*
X5589046Y-24143725D01*
X5589046Y-24143725D02*
X5589046Y-24191344D01*
X5589046Y-24191344D02*
X5579522Y-24229440D01*
X5579522Y-24229440D02*
X5569998Y-24248487D01*
X5569998Y-24248487D02*
X5560474Y-24258011D01*
X5560474Y-24258011D02*
X5541427Y-24267535D01*
X5541427Y-24267535D02*
X5522379Y-24267535D01*
X5522379Y-24267535D02*
X5503331Y-24258011D01*
X5503331Y-24258011D02*
X5493807Y-24248487D01*
X5493807Y-24248487D02*
X5484284Y-24229440D01*
X5484284Y-24229440D02*
X5474760Y-24191344D01*
X5474760Y-24191344D02*
X5474760Y-24143725D01*
X5474760Y-24143725D02*
X5484284Y-24105630D01*
X5484284Y-24105630D02*
X5493807Y-24086583D01*
X5493807Y-24086583D02*
X5503331Y-24077059D01*
X5503331Y-24077059D02*
X5522379Y-24067535D01*
X5684284Y-24267535D02*
X5722379Y-24267535D01*
X5722379Y-24267535D02*
X5741426Y-24258011D01*
X5741426Y-24258011D02*
X5750950Y-24248487D01*
X5750950Y-24248487D02*
X5769998Y-24219916D01*
X5769998Y-24219916D02*
X5779522Y-24181821D01*
X5779522Y-24181821D02*
X5779522Y-24105630D01*
X5779522Y-24105630D02*
X5769998Y-24086583D01*
X5769998Y-24086583D02*
X5760474Y-24077059D01*
X5760474Y-24077059D02*
X5741426Y-24067535D01*
X5741426Y-24067535D02*
X5703331Y-24067535D01*
X5703331Y-24067535D02*
X5684284Y-24077059D01*
X5684284Y-24077059D02*
X5674760Y-24086583D01*
X5674760Y-24086583D02*
X5665236Y-24105630D01*
X5665236Y-24105630D02*
X5665236Y-24153249D01*
X5665236Y-24153249D02*
X5674760Y-24172297D01*
X5674760Y-24172297D02*
X5684284Y-24181821D01*
X5684284Y-24181821D02*
X5703331Y-24191344D01*
X5703331Y-24191344D02*
X5741426Y-24191344D01*
X5741426Y-24191344D02*
X5760474Y-24181821D01*
X5760474Y-24181821D02*
X5769998Y-24172297D01*
X5769998Y-24172297D02*
X5779522Y-24153249D01*
X5855712Y-24086583D02*
X5865236Y-24077059D01*
X5865236Y-24077059D02*
X5884284Y-24067535D01*
X5884284Y-24067535D02*
X5931903Y-24067535D01*
X5931903Y-24067535D02*
X5950950Y-24077059D01*
X5950950Y-24077059D02*
X5960474Y-24086583D01*
X5960474Y-24086583D02*
X5969998Y-24105630D01*
X5969998Y-24105630D02*
X5969998Y-24124678D01*
X5969998Y-24124678D02*
X5960474Y-24153249D01*
X5960474Y-24153249D02*
X5846188Y-24267535D01*
X5846188Y-24267535D02*
X5969998Y-24267535D01*
X6055712Y-24267535D02*
X6055712Y-24134202D01*
X6055712Y-24153249D02*
X6065236Y-24143725D01*
X6065236Y-24143725D02*
X6084284Y-24134202D01*
X6084284Y-24134202D02*
X6112855Y-24134202D01*
X6112855Y-24134202D02*
X6131903Y-24143725D01*
X6131903Y-24143725D02*
X6141426Y-24162773D01*
X6141426Y-24162773D02*
X6141426Y-24267535D01*
X6141426Y-24162773D02*
X6150950Y-24143725D01*
X6150950Y-24143725D02*
X6169998Y-24134202D01*
X6169998Y-24134202D02*
X6198569Y-24134202D01*
X6198569Y-24134202D02*
X6217617Y-24143725D01*
X6217617Y-24143725D02*
X6227141Y-24162773D01*
X6227141Y-24162773D02*
X6227141Y-24267535D01*
X6322379Y-24267535D02*
X6322379Y-24134202D01*
X6322379Y-24153249D02*
X6331903Y-24143725D01*
X6331903Y-24143725D02*
X6350950Y-24134202D01*
X6350950Y-24134202D02*
X6379522Y-24134202D01*
X6379522Y-24134202D02*
X6398569Y-24143725D01*
X6398569Y-24143725D02*
X6408093Y-24162773D01*
X6408093Y-24162773D02*
X6408093Y-24267535D01*
X6408093Y-24162773D02*
X6417617Y-24143725D01*
X6417617Y-24143725D02*
X6436665Y-24134202D01*
X6436665Y-24134202D02*
X6465236Y-24134202D01*
X6465236Y-24134202D02*
X6484284Y-24143725D01*
X6484284Y-24143725D02*
X6493807Y-24162773D01*
X6493807Y-24162773D02*
X6493807Y-24267535D01*
X6884284Y-24058011D02*
X6712855Y-24315154D01*
X7141427Y-24067535D02*
X7160474Y-24067535D01*
X7160474Y-24067535D02*
X7179522Y-24077059D01*
X7179522Y-24077059D02*
X7189046Y-24086583D01*
X7189046Y-24086583D02*
X7198569Y-24105630D01*
X7198569Y-24105630D02*
X7208093Y-24143725D01*
X7208093Y-24143725D02*
X7208093Y-24191344D01*
X7208093Y-24191344D02*
X7198569Y-24229440D01*
X7198569Y-24229440D02*
X7189046Y-24248487D01*
X7189046Y-24248487D02*
X7179522Y-24258011D01*
X7179522Y-24258011D02*
X7160474Y-24267535D01*
X7160474Y-24267535D02*
X7141427Y-24267535D01*
X7141427Y-24267535D02*
X7122379Y-24258011D01*
X7122379Y-24258011D02*
X7112855Y-24248487D01*
X7112855Y-24248487D02*
X7103331Y-24229440D01*
X7103331Y-24229440D02*
X7093808Y-24191344D01*
X7093808Y-24191344D02*
X7093808Y-24143725D01*
X7093808Y-24143725D02*
X7103331Y-24105630D01*
X7103331Y-24105630D02*
X7112855Y-24086583D01*
X7112855Y-24086583D02*
X7122379Y-24077059D01*
X7122379Y-24077059D02*
X7141427Y-24067535D01*
X7293808Y-24248487D02*
X7303331Y-24258011D01*
X7303331Y-24258011D02*
X7293808Y-24267535D01*
X7293808Y-24267535D02*
X7284284Y-24258011D01*
X7284284Y-24258011D02*
X7293808Y-24248487D01*
X7293808Y-24248487D02*
X7293808Y-24267535D01*
X7427141Y-24067535D02*
X7446189Y-24067535D01*
X7446189Y-24067535D02*
X7465236Y-24077059D01*
X7465236Y-24077059D02*
X7474760Y-24086583D01*
X7474760Y-24086583D02*
X7484284Y-24105630D01*
X7484284Y-24105630D02*
X7493808Y-24143725D01*
X7493808Y-24143725D02*
X7493808Y-24191344D01*
X7493808Y-24191344D02*
X7484284Y-24229440D01*
X7484284Y-24229440D02*
X7474760Y-24248487D01*
X7474760Y-24248487D02*
X7465236Y-24258011D01*
X7465236Y-24258011D02*
X7446189Y-24267535D01*
X7446189Y-24267535D02*
X7427141Y-24267535D01*
X7427141Y-24267535D02*
X7408093Y-24258011D01*
X7408093Y-24258011D02*
X7398569Y-24248487D01*
X7398569Y-24248487D02*
X7389046Y-24229440D01*
X7389046Y-24229440D02*
X7379522Y-24191344D01*
X7379522Y-24191344D02*
X7379522Y-24143725D01*
X7379522Y-24143725D02*
X7389046Y-24105630D01*
X7389046Y-24105630D02*
X7398569Y-24086583D01*
X7398569Y-24086583D02*
X7408093Y-24077059D01*
X7408093Y-24077059D02*
X7427141Y-24067535D01*
X7665236Y-24134202D02*
X7665236Y-24267535D01*
X7617617Y-24058011D02*
X7569998Y-24200868D01*
X7569998Y-24200868D02*
X7693808Y-24200868D01*
X7750950Y-24067535D02*
X7874760Y-24067535D01*
X7874760Y-24067535D02*
X7808093Y-24143725D01*
X7808093Y-24143725D02*
X7836665Y-24143725D01*
X7836665Y-24143725D02*
X7855712Y-24153249D01*
X7855712Y-24153249D02*
X7865236Y-24162773D01*
X7865236Y-24162773D02*
X7874760Y-24181821D01*
X7874760Y-24181821D02*
X7874760Y-24229440D01*
X7874760Y-24229440D02*
X7865236Y-24248487D01*
X7865236Y-24248487D02*
X7855712Y-24258011D01*
X7855712Y-24258011D02*
X7836665Y-24267535D01*
X7836665Y-24267535D02*
X7779522Y-24267535D01*
X7779522Y-24267535D02*
X7760474Y-24258011D01*
X7760474Y-24258011D02*
X7750950Y-24248487D01*
X7998569Y-24067535D02*
X8017617Y-24067535D01*
X8017617Y-24067535D02*
X8036665Y-24077059D01*
X8036665Y-24077059D02*
X8046189Y-24086583D01*
X8046189Y-24086583D02*
X8055712Y-24105630D01*
X8055712Y-24105630D02*
X8065236Y-24143725D01*
X8065236Y-24143725D02*
X8065236Y-24191344D01*
X8065236Y-24191344D02*
X8055712Y-24229440D01*
X8055712Y-24229440D02*
X8046189Y-24248487D01*
X8046189Y-24248487D02*
X8036665Y-24258011D01*
X8036665Y-24258011D02*
X8017617Y-24267535D01*
X8017617Y-24267535D02*
X7998569Y-24267535D01*
X7998569Y-24267535D02*
X7979522Y-24258011D01*
X7979522Y-24258011D02*
X7969998Y-24248487D01*
X7969998Y-24248487D02*
X7960474Y-24229440D01*
X7960474Y-24229440D02*
X7950950Y-24191344D01*
X7950950Y-24191344D02*
X7950950Y-24143725D01*
X7950950Y-24143725D02*
X7960474Y-24105630D01*
X7960474Y-24105630D02*
X7969998Y-24086583D01*
X7969998Y-24086583D02*
X7979522Y-24077059D01*
X7979522Y-24077059D02*
X7998569Y-24067535D01*
X8141427Y-24067535D02*
X8141427Y-24105630D01*
X8217617Y-24067535D02*
X8217617Y-24105630D01*
X8512855Y-24343725D02*
X8503332Y-24334202D01*
X8503332Y-24334202D02*
X8484284Y-24305630D01*
X8484284Y-24305630D02*
X8474760Y-24286583D01*
X8474760Y-24286583D02*
X8465236Y-24258011D01*
X8465236Y-24258011D02*
X8455713Y-24210392D01*
X8455713Y-24210392D02*
X8455713Y-24172297D01*
X8455713Y-24172297D02*
X8465236Y-24124678D01*
X8465236Y-24124678D02*
X8474760Y-24096106D01*
X8474760Y-24096106D02*
X8484284Y-24077059D01*
X8484284Y-24077059D02*
X8503332Y-24048487D01*
X8503332Y-24048487D02*
X8512855Y-24038963D01*
X8579522Y-24086583D02*
X8589046Y-24077059D01*
X8589046Y-24077059D02*
X8608093Y-24067535D01*
X8608093Y-24067535D02*
X8655713Y-24067535D01*
X8655713Y-24067535D02*
X8674760Y-24077059D01*
X8674760Y-24077059D02*
X8684284Y-24086583D01*
X8684284Y-24086583D02*
X8693808Y-24105630D01*
X8693808Y-24105630D02*
X8693808Y-24124678D01*
X8693808Y-24124678D02*
X8684284Y-24153249D01*
X8684284Y-24153249D02*
X8569998Y-24267535D01*
X8569998Y-24267535D02*
X8693808Y-24267535D01*
X8760474Y-24067535D02*
X8893808Y-24067535D01*
X8893808Y-24067535D02*
X8808093Y-24267535D01*
X9122379Y-24267535D02*
X9122379Y-24067535D01*
X9208094Y-24267535D02*
X9208094Y-24162773D01*
X9208094Y-24162773D02*
X9198570Y-24143725D01*
X9198570Y-24143725D02*
X9179522Y-24134202D01*
X9179522Y-24134202D02*
X9150951Y-24134202D01*
X9150951Y-24134202D02*
X9131903Y-24143725D01*
X9131903Y-24143725D02*
X9122379Y-24153249D01*
X9331903Y-24267535D02*
X9312855Y-24258011D01*
X9312855Y-24258011D02*
X9303332Y-24248487D01*
X9303332Y-24248487D02*
X9293808Y-24229440D01*
X9293808Y-24229440D02*
X9293808Y-24172297D01*
X9293808Y-24172297D02*
X9303332Y-24153249D01*
X9303332Y-24153249D02*
X9312855Y-24143725D01*
X9312855Y-24143725D02*
X9331903Y-24134202D01*
X9331903Y-24134202D02*
X9360475Y-24134202D01*
X9360475Y-24134202D02*
X9379522Y-24143725D01*
X9379522Y-24143725D02*
X9389046Y-24153249D01*
X9389046Y-24153249D02*
X9398570Y-24172297D01*
X9398570Y-24172297D02*
X9398570Y-24229440D01*
X9398570Y-24229440D02*
X9389046Y-24248487D01*
X9389046Y-24248487D02*
X9379522Y-24258011D01*
X9379522Y-24258011D02*
X9360475Y-24267535D01*
X9360475Y-24267535D02*
X9331903Y-24267535D01*
X9512855Y-24267535D02*
X9493808Y-24258011D01*
X9493808Y-24258011D02*
X9484284Y-24238963D01*
X9484284Y-24238963D02*
X9484284Y-24067535D01*
X9665236Y-24258011D02*
X9646189Y-24267535D01*
X9646189Y-24267535D02*
X9608094Y-24267535D01*
X9608094Y-24267535D02*
X9589046Y-24258011D01*
X9589046Y-24258011D02*
X9579522Y-24238963D01*
X9579522Y-24238963D02*
X9579522Y-24162773D01*
X9579522Y-24162773D02*
X9589046Y-24143725D01*
X9589046Y-24143725D02*
X9608094Y-24134202D01*
X9608094Y-24134202D02*
X9646189Y-24134202D01*
X9646189Y-24134202D02*
X9665236Y-24143725D01*
X9665236Y-24143725D02*
X9674760Y-24162773D01*
X9674760Y-24162773D02*
X9674760Y-24181821D01*
X9674760Y-24181821D02*
X9579522Y-24200868D01*
X9750951Y-24258011D02*
X9769998Y-24267535D01*
X9769998Y-24267535D02*
X9808094Y-24267535D01*
X9808094Y-24267535D02*
X9827141Y-24258011D01*
X9827141Y-24258011D02*
X9836665Y-24238963D01*
X9836665Y-24238963D02*
X9836665Y-24229440D01*
X9836665Y-24229440D02*
X9827141Y-24210392D01*
X9827141Y-24210392D02*
X9808094Y-24200868D01*
X9808094Y-24200868D02*
X9779522Y-24200868D01*
X9779522Y-24200868D02*
X9760475Y-24191344D01*
X9760475Y-24191344D02*
X9750951Y-24172297D01*
X9750951Y-24172297D02*
X9750951Y-24162773D01*
X9750951Y-24162773D02*
X9760475Y-24143725D01*
X9760475Y-24143725D02*
X9779522Y-24134202D01*
X9779522Y-24134202D02*
X9808094Y-24134202D01*
X9808094Y-24134202D02*
X9827141Y-24143725D01*
X9903332Y-24343725D02*
X9912856Y-24334202D01*
X9912856Y-24334202D02*
X9931903Y-24305630D01*
X9931903Y-24305630D02*
X9941427Y-24286583D01*
X9941427Y-24286583D02*
X9950951Y-24258011D01*
X9950951Y-24258011D02*
X9960475Y-24210392D01*
X9960475Y-24210392D02*
X9960475Y-24172297D01*
X9960475Y-24172297D02*
X9950951Y-24124678D01*
X9950951Y-24124678D02*
X9941427Y-24096106D01*
X9941427Y-24096106D02*
X9931903Y-24077059D01*
X9931903Y-24077059D02*
X9912856Y-24048487D01*
X9912856Y-24048487D02*
X9903332Y-24038963D01*
D10*
X4787793Y-24365051D02*
X4937793Y-24515051D01*
X4937793Y-24365051D02*
X4787793Y-24515051D01*
X4937793Y-24440051D02*
G75*
G02*
X4787793Y-24440051I-75000J0D01*
G01*
X4787793Y-24440051D02*
G75*
G02*
X4937793Y-24440051I75000J0D01*
G01*
D12*
X5303331Y-24531535D02*
X5189046Y-24531535D01*
X5246188Y-24531535D02*
X5246188Y-24331535D01*
X5246188Y-24331535D02*
X5227141Y-24360106D01*
X5227141Y-24360106D02*
X5208093Y-24379154D01*
X5208093Y-24379154D02*
X5189046Y-24388678D01*
X5389046Y-24512487D02*
X5398569Y-24522011D01*
X5398569Y-24522011D02*
X5389046Y-24531535D01*
X5389046Y-24531535D02*
X5379522Y-24522011D01*
X5379522Y-24522011D02*
X5389046Y-24512487D01*
X5389046Y-24512487D02*
X5389046Y-24531535D01*
X5579522Y-24331535D02*
X5484284Y-24331535D01*
X5484284Y-24331535D02*
X5474760Y-24426773D01*
X5474760Y-24426773D02*
X5484284Y-24417249D01*
X5484284Y-24417249D02*
X5503331Y-24407725D01*
X5503331Y-24407725D02*
X5550950Y-24407725D01*
X5550950Y-24407725D02*
X5569998Y-24417249D01*
X5569998Y-24417249D02*
X5579522Y-24426773D01*
X5579522Y-24426773D02*
X5589046Y-24445821D01*
X5589046Y-24445821D02*
X5589046Y-24493440D01*
X5589046Y-24493440D02*
X5579522Y-24512487D01*
X5579522Y-24512487D02*
X5569998Y-24522011D01*
X5569998Y-24522011D02*
X5550950Y-24531535D01*
X5550950Y-24531535D02*
X5503331Y-24531535D01*
X5503331Y-24531535D02*
X5484284Y-24522011D01*
X5484284Y-24522011D02*
X5474760Y-24512487D01*
X5712855Y-24331535D02*
X5731903Y-24331535D01*
X5731903Y-24331535D02*
X5750950Y-24341059D01*
X5750950Y-24341059D02*
X5760474Y-24350583D01*
X5760474Y-24350583D02*
X5769998Y-24369630D01*
X5769998Y-24369630D02*
X5779522Y-24407725D01*
X5779522Y-24407725D02*
X5779522Y-24455344D01*
X5779522Y-24455344D02*
X5769998Y-24493440D01*
X5769998Y-24493440D02*
X5760474Y-24512487D01*
X5760474Y-24512487D02*
X5750950Y-24522011D01*
X5750950Y-24522011D02*
X5731903Y-24531535D01*
X5731903Y-24531535D02*
X5712855Y-24531535D01*
X5712855Y-24531535D02*
X5693807Y-24522011D01*
X5693807Y-24522011D02*
X5684284Y-24512487D01*
X5684284Y-24512487D02*
X5674760Y-24493440D01*
X5674760Y-24493440D02*
X5665236Y-24455344D01*
X5665236Y-24455344D02*
X5665236Y-24407725D01*
X5665236Y-24407725D02*
X5674760Y-24369630D01*
X5674760Y-24369630D02*
X5684284Y-24350583D01*
X5684284Y-24350583D02*
X5693807Y-24341059D01*
X5693807Y-24341059D02*
X5712855Y-24331535D01*
X5903331Y-24331535D02*
X5922379Y-24331535D01*
X5922379Y-24331535D02*
X5941426Y-24341059D01*
X5941426Y-24341059D02*
X5950950Y-24350583D01*
X5950950Y-24350583D02*
X5960474Y-24369630D01*
X5960474Y-24369630D02*
X5969998Y-24407725D01*
X5969998Y-24407725D02*
X5969998Y-24455344D01*
X5969998Y-24455344D02*
X5960474Y-24493440D01*
X5960474Y-24493440D02*
X5950950Y-24512487D01*
X5950950Y-24512487D02*
X5941426Y-24522011D01*
X5941426Y-24522011D02*
X5922379Y-24531535D01*
X5922379Y-24531535D02*
X5903331Y-24531535D01*
X5903331Y-24531535D02*
X5884284Y-24522011D01*
X5884284Y-24522011D02*
X5874760Y-24512487D01*
X5874760Y-24512487D02*
X5865236Y-24493440D01*
X5865236Y-24493440D02*
X5855712Y-24455344D01*
X5855712Y-24455344D02*
X5855712Y-24407725D01*
X5855712Y-24407725D02*
X5865236Y-24369630D01*
X5865236Y-24369630D02*
X5874760Y-24350583D01*
X5874760Y-24350583D02*
X5884284Y-24341059D01*
X5884284Y-24341059D02*
X5903331Y-24331535D01*
X6055712Y-24531535D02*
X6055712Y-24398202D01*
X6055712Y-24417249D02*
X6065236Y-24407725D01*
X6065236Y-24407725D02*
X6084284Y-24398202D01*
X6084284Y-24398202D02*
X6112855Y-24398202D01*
X6112855Y-24398202D02*
X6131903Y-24407725D01*
X6131903Y-24407725D02*
X6141426Y-24426773D01*
X6141426Y-24426773D02*
X6141426Y-24531535D01*
X6141426Y-24426773D02*
X6150950Y-24407725D01*
X6150950Y-24407725D02*
X6169998Y-24398202D01*
X6169998Y-24398202D02*
X6198569Y-24398202D01*
X6198569Y-24398202D02*
X6217617Y-24407725D01*
X6217617Y-24407725D02*
X6227141Y-24426773D01*
X6227141Y-24426773D02*
X6227141Y-24531535D01*
X6322379Y-24531535D02*
X6322379Y-24398202D01*
X6322379Y-24417249D02*
X6331903Y-24407725D01*
X6331903Y-24407725D02*
X6350950Y-24398202D01*
X6350950Y-24398202D02*
X6379522Y-24398202D01*
X6379522Y-24398202D02*
X6398569Y-24407725D01*
X6398569Y-24407725D02*
X6408093Y-24426773D01*
X6408093Y-24426773D02*
X6408093Y-24531535D01*
X6408093Y-24426773D02*
X6417617Y-24407725D01*
X6417617Y-24407725D02*
X6436665Y-24398202D01*
X6436665Y-24398202D02*
X6465236Y-24398202D01*
X6465236Y-24398202D02*
X6484284Y-24407725D01*
X6484284Y-24407725D02*
X6493807Y-24426773D01*
X6493807Y-24426773D02*
X6493807Y-24531535D01*
X6884284Y-24322011D02*
X6712855Y-24579154D01*
X7141427Y-24331535D02*
X7160474Y-24331535D01*
X7160474Y-24331535D02*
X7179522Y-24341059D01*
X7179522Y-24341059D02*
X7189046Y-24350583D01*
X7189046Y-24350583D02*
X7198569Y-24369630D01*
X7198569Y-24369630D02*
X7208093Y-24407725D01*
X7208093Y-24407725D02*
X7208093Y-24455344D01*
X7208093Y-24455344D02*
X7198569Y-24493440D01*
X7198569Y-24493440D02*
X7189046Y-24512487D01*
X7189046Y-24512487D02*
X7179522Y-24522011D01*
X7179522Y-24522011D02*
X7160474Y-24531535D01*
X7160474Y-24531535D02*
X7141427Y-24531535D01*
X7141427Y-24531535D02*
X7122379Y-24522011D01*
X7122379Y-24522011D02*
X7112855Y-24512487D01*
X7112855Y-24512487D02*
X7103331Y-24493440D01*
X7103331Y-24493440D02*
X7093808Y-24455344D01*
X7093808Y-24455344D02*
X7093808Y-24407725D01*
X7093808Y-24407725D02*
X7103331Y-24369630D01*
X7103331Y-24369630D02*
X7112855Y-24350583D01*
X7112855Y-24350583D02*
X7122379Y-24341059D01*
X7122379Y-24341059D02*
X7141427Y-24331535D01*
X7293808Y-24512487D02*
X7303331Y-24522011D01*
X7303331Y-24522011D02*
X7293808Y-24531535D01*
X7293808Y-24531535D02*
X7284284Y-24522011D01*
X7284284Y-24522011D02*
X7293808Y-24512487D01*
X7293808Y-24512487D02*
X7293808Y-24531535D01*
X7427141Y-24331535D02*
X7446189Y-24331535D01*
X7446189Y-24331535D02*
X7465236Y-24341059D01*
X7465236Y-24341059D02*
X7474760Y-24350583D01*
X7474760Y-24350583D02*
X7484284Y-24369630D01*
X7484284Y-24369630D02*
X7493808Y-24407725D01*
X7493808Y-24407725D02*
X7493808Y-24455344D01*
X7493808Y-24455344D02*
X7484284Y-24493440D01*
X7484284Y-24493440D02*
X7474760Y-24512487D01*
X7474760Y-24512487D02*
X7465236Y-24522011D01*
X7465236Y-24522011D02*
X7446189Y-24531535D01*
X7446189Y-24531535D02*
X7427141Y-24531535D01*
X7427141Y-24531535D02*
X7408093Y-24522011D01*
X7408093Y-24522011D02*
X7398569Y-24512487D01*
X7398569Y-24512487D02*
X7389046Y-24493440D01*
X7389046Y-24493440D02*
X7379522Y-24455344D01*
X7379522Y-24455344D02*
X7379522Y-24407725D01*
X7379522Y-24407725D02*
X7389046Y-24369630D01*
X7389046Y-24369630D02*
X7398569Y-24350583D01*
X7398569Y-24350583D02*
X7408093Y-24341059D01*
X7408093Y-24341059D02*
X7427141Y-24331535D01*
X7674760Y-24331535D02*
X7579522Y-24331535D01*
X7579522Y-24331535D02*
X7569998Y-24426773D01*
X7569998Y-24426773D02*
X7579522Y-24417249D01*
X7579522Y-24417249D02*
X7598569Y-24407725D01*
X7598569Y-24407725D02*
X7646189Y-24407725D01*
X7646189Y-24407725D02*
X7665236Y-24417249D01*
X7665236Y-24417249D02*
X7674760Y-24426773D01*
X7674760Y-24426773D02*
X7684284Y-24445821D01*
X7684284Y-24445821D02*
X7684284Y-24493440D01*
X7684284Y-24493440D02*
X7674760Y-24512487D01*
X7674760Y-24512487D02*
X7665236Y-24522011D01*
X7665236Y-24522011D02*
X7646189Y-24531535D01*
X7646189Y-24531535D02*
X7598569Y-24531535D01*
X7598569Y-24531535D02*
X7579522Y-24522011D01*
X7579522Y-24522011D02*
X7569998Y-24512487D01*
X7779522Y-24531535D02*
X7817617Y-24531535D01*
X7817617Y-24531535D02*
X7836665Y-24522011D01*
X7836665Y-24522011D02*
X7846189Y-24512487D01*
X7846189Y-24512487D02*
X7865236Y-24483916D01*
X7865236Y-24483916D02*
X7874760Y-24445821D01*
X7874760Y-24445821D02*
X7874760Y-24369630D01*
X7874760Y-24369630D02*
X7865236Y-24350583D01*
X7865236Y-24350583D02*
X7855712Y-24341059D01*
X7855712Y-24341059D02*
X7836665Y-24331535D01*
X7836665Y-24331535D02*
X7798569Y-24331535D01*
X7798569Y-24331535D02*
X7779522Y-24341059D01*
X7779522Y-24341059D02*
X7769998Y-24350583D01*
X7769998Y-24350583D02*
X7760474Y-24369630D01*
X7760474Y-24369630D02*
X7760474Y-24417249D01*
X7760474Y-24417249D02*
X7769998Y-24436297D01*
X7769998Y-24436297D02*
X7779522Y-24445821D01*
X7779522Y-24445821D02*
X7798569Y-24455344D01*
X7798569Y-24455344D02*
X7836665Y-24455344D01*
X7836665Y-24455344D02*
X7855712Y-24445821D01*
X7855712Y-24445821D02*
X7865236Y-24436297D01*
X7865236Y-24436297D02*
X7874760Y-24417249D01*
X8065236Y-24531535D02*
X7950950Y-24531535D01*
X8008093Y-24531535D02*
X8008093Y-24331535D01*
X8008093Y-24331535D02*
X7989046Y-24360106D01*
X7989046Y-24360106D02*
X7969998Y-24379154D01*
X7969998Y-24379154D02*
X7950950Y-24388678D01*
X8141427Y-24331535D02*
X8141427Y-24369630D01*
X8217617Y-24331535D02*
X8217617Y-24369630D01*
X8512855Y-24607725D02*
X8503332Y-24598202D01*
X8503332Y-24598202D02*
X8484284Y-24569630D01*
X8484284Y-24569630D02*
X8474760Y-24550583D01*
X8474760Y-24550583D02*
X8465236Y-24522011D01*
X8465236Y-24522011D02*
X8455713Y-24474392D01*
X8455713Y-24474392D02*
X8455713Y-24436297D01*
X8455713Y-24436297D02*
X8465236Y-24388678D01*
X8465236Y-24388678D02*
X8474760Y-24360106D01*
X8474760Y-24360106D02*
X8484284Y-24341059D01*
X8484284Y-24341059D02*
X8503332Y-24312487D01*
X8503332Y-24312487D02*
X8512855Y-24302963D01*
X8627141Y-24331535D02*
X8646189Y-24331535D01*
X8646189Y-24331535D02*
X8665236Y-24341059D01*
X8665236Y-24341059D02*
X8674760Y-24350583D01*
X8674760Y-24350583D02*
X8684284Y-24369630D01*
X8684284Y-24369630D02*
X8693808Y-24407725D01*
X8693808Y-24407725D02*
X8693808Y-24455344D01*
X8693808Y-24455344D02*
X8684284Y-24493440D01*
X8684284Y-24493440D02*
X8674760Y-24512487D01*
X8674760Y-24512487D02*
X8665236Y-24522011D01*
X8665236Y-24522011D02*
X8646189Y-24531535D01*
X8646189Y-24531535D02*
X8627141Y-24531535D01*
X8627141Y-24531535D02*
X8608093Y-24522011D01*
X8608093Y-24522011D02*
X8598570Y-24512487D01*
X8598570Y-24512487D02*
X8589046Y-24493440D01*
X8589046Y-24493440D02*
X8579522Y-24455344D01*
X8579522Y-24455344D02*
X8579522Y-24407725D01*
X8579522Y-24407725D02*
X8589046Y-24369630D01*
X8589046Y-24369630D02*
X8598570Y-24350583D01*
X8598570Y-24350583D02*
X8608093Y-24341059D01*
X8608093Y-24341059D02*
X8627141Y-24331535D01*
X8931903Y-24531535D02*
X8931903Y-24331535D01*
X9017617Y-24531535D02*
X9017617Y-24426773D01*
X9017617Y-24426773D02*
X9008094Y-24407725D01*
X9008094Y-24407725D02*
X8989046Y-24398202D01*
X8989046Y-24398202D02*
X8960474Y-24398202D01*
X8960474Y-24398202D02*
X8941427Y-24407725D01*
X8941427Y-24407725D02*
X8931903Y-24417249D01*
X9141427Y-24531535D02*
X9122379Y-24522011D01*
X9122379Y-24522011D02*
X9112855Y-24512487D01*
X9112855Y-24512487D02*
X9103332Y-24493440D01*
X9103332Y-24493440D02*
X9103332Y-24436297D01*
X9103332Y-24436297D02*
X9112855Y-24417249D01*
X9112855Y-24417249D02*
X9122379Y-24407725D01*
X9122379Y-24407725D02*
X9141427Y-24398202D01*
X9141427Y-24398202D02*
X9169998Y-24398202D01*
X9169998Y-24398202D02*
X9189046Y-24407725D01*
X9189046Y-24407725D02*
X9198570Y-24417249D01*
X9198570Y-24417249D02*
X9208094Y-24436297D01*
X9208094Y-24436297D02*
X9208094Y-24493440D01*
X9208094Y-24493440D02*
X9198570Y-24512487D01*
X9198570Y-24512487D02*
X9189046Y-24522011D01*
X9189046Y-24522011D02*
X9169998Y-24531535D01*
X9169998Y-24531535D02*
X9141427Y-24531535D01*
X9322379Y-24531535D02*
X9303332Y-24522011D01*
X9303332Y-24522011D02*
X9293808Y-24502963D01*
X9293808Y-24502963D02*
X9293808Y-24331535D01*
X9474760Y-24522011D02*
X9455713Y-24531535D01*
X9455713Y-24531535D02*
X9417617Y-24531535D01*
X9417617Y-24531535D02*
X9398570Y-24522011D01*
X9398570Y-24522011D02*
X9389046Y-24502963D01*
X9389046Y-24502963D02*
X9389046Y-24426773D01*
X9389046Y-24426773D02*
X9398570Y-24407725D01*
X9398570Y-24407725D02*
X9417617Y-24398202D01*
X9417617Y-24398202D02*
X9455713Y-24398202D01*
X9455713Y-24398202D02*
X9474760Y-24407725D01*
X9474760Y-24407725D02*
X9484284Y-24426773D01*
X9484284Y-24426773D02*
X9484284Y-24445821D01*
X9484284Y-24445821D02*
X9389046Y-24464868D01*
X9560475Y-24522011D02*
X9579522Y-24531535D01*
X9579522Y-24531535D02*
X9617617Y-24531535D01*
X9617617Y-24531535D02*
X9636665Y-24522011D01*
X9636665Y-24522011D02*
X9646189Y-24502963D01*
X9646189Y-24502963D02*
X9646189Y-24493440D01*
X9646189Y-24493440D02*
X9636665Y-24474392D01*
X9636665Y-24474392D02*
X9617617Y-24464868D01*
X9617617Y-24464868D02*
X9589046Y-24464868D01*
X9589046Y-24464868D02*
X9569998Y-24455344D01*
X9569998Y-24455344D02*
X9560475Y-24436297D01*
X9560475Y-24436297D02*
X9560475Y-24426773D01*
X9560475Y-24426773D02*
X9569998Y-24407725D01*
X9569998Y-24407725D02*
X9589046Y-24398202D01*
X9589046Y-24398202D02*
X9617617Y-24398202D01*
X9617617Y-24398202D02*
X9636665Y-24407725D01*
X9884284Y-24455344D02*
X10036665Y-24455344D01*
X9960475Y-24531535D02*
X9960475Y-24379154D01*
X10274760Y-24350583D02*
X10284284Y-24341059D01*
X10284284Y-24341059D02*
X10303332Y-24331535D01*
X10303332Y-24331535D02*
X10350951Y-24331535D01*
X10350951Y-24331535D02*
X10369998Y-24341059D01*
X10369998Y-24341059D02*
X10379522Y-24350583D01*
X10379522Y-24350583D02*
X10389046Y-24369630D01*
X10389046Y-24369630D02*
X10389046Y-24388678D01*
X10389046Y-24388678D02*
X10379522Y-24417249D01*
X10379522Y-24417249D02*
X10265237Y-24531535D01*
X10265237Y-24531535D02*
X10389046Y-24531535D01*
X10617618Y-24522011D02*
X10636665Y-24531535D01*
X10636665Y-24531535D02*
X10674760Y-24531535D01*
X10674760Y-24531535D02*
X10693808Y-24522011D01*
X10693808Y-24522011D02*
X10703332Y-24502963D01*
X10703332Y-24502963D02*
X10703332Y-24493440D01*
X10703332Y-24493440D02*
X10693808Y-24474392D01*
X10693808Y-24474392D02*
X10674760Y-24464868D01*
X10674760Y-24464868D02*
X10646189Y-24464868D01*
X10646189Y-24464868D02*
X10627141Y-24455344D01*
X10627141Y-24455344D02*
X10617618Y-24436297D01*
X10617618Y-24436297D02*
X10617618Y-24426773D01*
X10617618Y-24426773D02*
X10627141Y-24407725D01*
X10627141Y-24407725D02*
X10646189Y-24398202D01*
X10646189Y-24398202D02*
X10674760Y-24398202D01*
X10674760Y-24398202D02*
X10693808Y-24407725D01*
X10817618Y-24531535D02*
X10798570Y-24522011D01*
X10798570Y-24522011D02*
X10789046Y-24502963D01*
X10789046Y-24502963D02*
X10789046Y-24331535D01*
X10922379Y-24531535D02*
X10903332Y-24522011D01*
X10903332Y-24522011D02*
X10893808Y-24512487D01*
X10893808Y-24512487D02*
X10884284Y-24493440D01*
X10884284Y-24493440D02*
X10884284Y-24436297D01*
X10884284Y-24436297D02*
X10893808Y-24417249D01*
X10893808Y-24417249D02*
X10903332Y-24407725D01*
X10903332Y-24407725D02*
X10922379Y-24398202D01*
X10922379Y-24398202D02*
X10950951Y-24398202D01*
X10950951Y-24398202D02*
X10969999Y-24407725D01*
X10969999Y-24407725D02*
X10979522Y-24417249D01*
X10979522Y-24417249D02*
X10989046Y-24436297D01*
X10989046Y-24436297D02*
X10989046Y-24493440D01*
X10989046Y-24493440D02*
X10979522Y-24512487D01*
X10979522Y-24512487D02*
X10969999Y-24522011D01*
X10969999Y-24522011D02*
X10950951Y-24531535D01*
X10950951Y-24531535D02*
X10922379Y-24531535D01*
X11046189Y-24398202D02*
X11122379Y-24398202D01*
X11074760Y-24331535D02*
X11074760Y-24502963D01*
X11074760Y-24502963D02*
X11084284Y-24522011D01*
X11084284Y-24522011D02*
X11103332Y-24531535D01*
X11103332Y-24531535D02*
X11122379Y-24531535D01*
X11179522Y-24522011D02*
X11198570Y-24531535D01*
X11198570Y-24531535D02*
X11236665Y-24531535D01*
X11236665Y-24531535D02*
X11255713Y-24522011D01*
X11255713Y-24522011D02*
X11265237Y-24502963D01*
X11265237Y-24502963D02*
X11265237Y-24493440D01*
X11265237Y-24493440D02*
X11255713Y-24474392D01*
X11255713Y-24474392D02*
X11236665Y-24464868D01*
X11236665Y-24464868D02*
X11208094Y-24464868D01*
X11208094Y-24464868D02*
X11189046Y-24455344D01*
X11189046Y-24455344D02*
X11179522Y-24436297D01*
X11179522Y-24436297D02*
X11179522Y-24426773D01*
X11179522Y-24426773D02*
X11189046Y-24407725D01*
X11189046Y-24407725D02*
X11208094Y-24398202D01*
X11208094Y-24398202D02*
X11236665Y-24398202D01*
X11236665Y-24398202D02*
X11255713Y-24407725D01*
X11331903Y-24607725D02*
X11341427Y-24598202D01*
X11341427Y-24598202D02*
X11360475Y-24569630D01*
X11360475Y-24569630D02*
X11369998Y-24550583D01*
X11369998Y-24550583D02*
X11379522Y-24522011D01*
X11379522Y-24522011D02*
X11389046Y-24474392D01*
X11389046Y-24474392D02*
X11389046Y-24436297D01*
X11389046Y-24436297D02*
X11379522Y-24388678D01*
X11379522Y-24388678D02*
X11369998Y-24360106D01*
X11369998Y-24360106D02*
X11360475Y-24341059D01*
X11360475Y-24341059D02*
X11341427Y-24312487D01*
X11341427Y-24312487D02*
X11331903Y-24302963D01*
X4737793Y-24610051D02*
X4937793Y-24810051D01*
X4937793Y-24610051D02*
X4737793Y-24810051D01*
X4837793Y-24610051D02*
X4837793Y-24810051D01*
X4737793Y-24710051D02*
X4937793Y-24710051D01*
X5189046Y-24620583D02*
X5198569Y-24611059D01*
X5198569Y-24611059D02*
X5217617Y-24601535D01*
X5217617Y-24601535D02*
X5265236Y-24601535D01*
X5265236Y-24601535D02*
X5284284Y-24611059D01*
X5284284Y-24611059D02*
X5293807Y-24620583D01*
X5293807Y-24620583D02*
X5303331Y-24639630D01*
X5303331Y-24639630D02*
X5303331Y-24658678D01*
X5303331Y-24658678D02*
X5293807Y-24687249D01*
X5293807Y-24687249D02*
X5179522Y-24801535D01*
X5179522Y-24801535D02*
X5303331Y-24801535D01*
X5389046Y-24782487D02*
X5398569Y-24792011D01*
X5398569Y-24792011D02*
X5389046Y-24801535D01*
X5389046Y-24801535D02*
X5379522Y-24792011D01*
X5379522Y-24792011D02*
X5389046Y-24782487D01*
X5389046Y-24782487D02*
X5389046Y-24801535D01*
X5474760Y-24620583D02*
X5484284Y-24611059D01*
X5484284Y-24611059D02*
X5503331Y-24601535D01*
X5503331Y-24601535D02*
X5550950Y-24601535D01*
X5550950Y-24601535D02*
X5569998Y-24611059D01*
X5569998Y-24611059D02*
X5579522Y-24620583D01*
X5579522Y-24620583D02*
X5589046Y-24639630D01*
X5589046Y-24639630D02*
X5589046Y-24658678D01*
X5589046Y-24658678D02*
X5579522Y-24687249D01*
X5579522Y-24687249D02*
X5465236Y-24801535D01*
X5465236Y-24801535D02*
X5589046Y-24801535D01*
X5712855Y-24601535D02*
X5731903Y-24601535D01*
X5731903Y-24601535D02*
X5750950Y-24611059D01*
X5750950Y-24611059D02*
X5760474Y-24620583D01*
X5760474Y-24620583D02*
X5769998Y-24639630D01*
X5769998Y-24639630D02*
X5779522Y-24677725D01*
X5779522Y-24677725D02*
X5779522Y-24725344D01*
X5779522Y-24725344D02*
X5769998Y-24763440D01*
X5769998Y-24763440D02*
X5760474Y-24782487D01*
X5760474Y-24782487D02*
X5750950Y-24792011D01*
X5750950Y-24792011D02*
X5731903Y-24801535D01*
X5731903Y-24801535D02*
X5712855Y-24801535D01*
X5712855Y-24801535D02*
X5693807Y-24792011D01*
X5693807Y-24792011D02*
X5684284Y-24782487D01*
X5684284Y-24782487D02*
X5674760Y-24763440D01*
X5674760Y-24763440D02*
X5665236Y-24725344D01*
X5665236Y-24725344D02*
X5665236Y-24677725D01*
X5665236Y-24677725D02*
X5674760Y-24639630D01*
X5674760Y-24639630D02*
X5684284Y-24620583D01*
X5684284Y-24620583D02*
X5693807Y-24611059D01*
X5693807Y-24611059D02*
X5712855Y-24601535D01*
X5903331Y-24601535D02*
X5922379Y-24601535D01*
X5922379Y-24601535D02*
X5941426Y-24611059D01*
X5941426Y-24611059D02*
X5950950Y-24620583D01*
X5950950Y-24620583D02*
X5960474Y-24639630D01*
X5960474Y-24639630D02*
X5969998Y-24677725D01*
X5969998Y-24677725D02*
X5969998Y-24725344D01*
X5969998Y-24725344D02*
X5960474Y-24763440D01*
X5960474Y-24763440D02*
X5950950Y-24782487D01*
X5950950Y-24782487D02*
X5941426Y-24792011D01*
X5941426Y-24792011D02*
X5922379Y-24801535D01*
X5922379Y-24801535D02*
X5903331Y-24801535D01*
X5903331Y-24801535D02*
X5884284Y-24792011D01*
X5884284Y-24792011D02*
X5874760Y-24782487D01*
X5874760Y-24782487D02*
X5865236Y-24763440D01*
X5865236Y-24763440D02*
X5855712Y-24725344D01*
X5855712Y-24725344D02*
X5855712Y-24677725D01*
X5855712Y-24677725D02*
X5865236Y-24639630D01*
X5865236Y-24639630D02*
X5874760Y-24620583D01*
X5874760Y-24620583D02*
X5884284Y-24611059D01*
X5884284Y-24611059D02*
X5903331Y-24601535D01*
X6055712Y-24801535D02*
X6055712Y-24668202D01*
X6055712Y-24687249D02*
X6065236Y-24677725D01*
X6065236Y-24677725D02*
X6084284Y-24668202D01*
X6084284Y-24668202D02*
X6112855Y-24668202D01*
X6112855Y-24668202D02*
X6131903Y-24677725D01*
X6131903Y-24677725D02*
X6141426Y-24696773D01*
X6141426Y-24696773D02*
X6141426Y-24801535D01*
X6141426Y-24696773D02*
X6150950Y-24677725D01*
X6150950Y-24677725D02*
X6169998Y-24668202D01*
X6169998Y-24668202D02*
X6198569Y-24668202D01*
X6198569Y-24668202D02*
X6217617Y-24677725D01*
X6217617Y-24677725D02*
X6227141Y-24696773D01*
X6227141Y-24696773D02*
X6227141Y-24801535D01*
X6322379Y-24801535D02*
X6322379Y-24668202D01*
X6322379Y-24687249D02*
X6331903Y-24677725D01*
X6331903Y-24677725D02*
X6350950Y-24668202D01*
X6350950Y-24668202D02*
X6379522Y-24668202D01*
X6379522Y-24668202D02*
X6398569Y-24677725D01*
X6398569Y-24677725D02*
X6408093Y-24696773D01*
X6408093Y-24696773D02*
X6408093Y-24801535D01*
X6408093Y-24696773D02*
X6417617Y-24677725D01*
X6417617Y-24677725D02*
X6436665Y-24668202D01*
X6436665Y-24668202D02*
X6465236Y-24668202D01*
X6465236Y-24668202D02*
X6484284Y-24677725D01*
X6484284Y-24677725D02*
X6493807Y-24696773D01*
X6493807Y-24696773D02*
X6493807Y-24801535D01*
X6884284Y-24592011D02*
X6712855Y-24849154D01*
X7141427Y-24601535D02*
X7160474Y-24601535D01*
X7160474Y-24601535D02*
X7179522Y-24611059D01*
X7179522Y-24611059D02*
X7189046Y-24620583D01*
X7189046Y-24620583D02*
X7198569Y-24639630D01*
X7198569Y-24639630D02*
X7208093Y-24677725D01*
X7208093Y-24677725D02*
X7208093Y-24725344D01*
X7208093Y-24725344D02*
X7198569Y-24763440D01*
X7198569Y-24763440D02*
X7189046Y-24782487D01*
X7189046Y-24782487D02*
X7179522Y-24792011D01*
X7179522Y-24792011D02*
X7160474Y-24801535D01*
X7160474Y-24801535D02*
X7141427Y-24801535D01*
X7141427Y-24801535D02*
X7122379Y-24792011D01*
X7122379Y-24792011D02*
X7112855Y-24782487D01*
X7112855Y-24782487D02*
X7103331Y-24763440D01*
X7103331Y-24763440D02*
X7093808Y-24725344D01*
X7093808Y-24725344D02*
X7093808Y-24677725D01*
X7093808Y-24677725D02*
X7103331Y-24639630D01*
X7103331Y-24639630D02*
X7112855Y-24620583D01*
X7112855Y-24620583D02*
X7122379Y-24611059D01*
X7122379Y-24611059D02*
X7141427Y-24601535D01*
X7293808Y-24782487D02*
X7303331Y-24792011D01*
X7303331Y-24792011D02*
X7293808Y-24801535D01*
X7293808Y-24801535D02*
X7284284Y-24792011D01*
X7284284Y-24792011D02*
X7293808Y-24782487D01*
X7293808Y-24782487D02*
X7293808Y-24801535D01*
X7427141Y-24601535D02*
X7446189Y-24601535D01*
X7446189Y-24601535D02*
X7465236Y-24611059D01*
X7465236Y-24611059D02*
X7474760Y-24620583D01*
X7474760Y-24620583D02*
X7484284Y-24639630D01*
X7484284Y-24639630D02*
X7493808Y-24677725D01*
X7493808Y-24677725D02*
X7493808Y-24725344D01*
X7493808Y-24725344D02*
X7484284Y-24763440D01*
X7484284Y-24763440D02*
X7474760Y-24782487D01*
X7474760Y-24782487D02*
X7465236Y-24792011D01*
X7465236Y-24792011D02*
X7446189Y-24801535D01*
X7446189Y-24801535D02*
X7427141Y-24801535D01*
X7427141Y-24801535D02*
X7408093Y-24792011D01*
X7408093Y-24792011D02*
X7398569Y-24782487D01*
X7398569Y-24782487D02*
X7389046Y-24763440D01*
X7389046Y-24763440D02*
X7379522Y-24725344D01*
X7379522Y-24725344D02*
X7379522Y-24677725D01*
X7379522Y-24677725D02*
X7389046Y-24639630D01*
X7389046Y-24639630D02*
X7398569Y-24620583D01*
X7398569Y-24620583D02*
X7408093Y-24611059D01*
X7408093Y-24611059D02*
X7427141Y-24601535D01*
X7608093Y-24687249D02*
X7589046Y-24677725D01*
X7589046Y-24677725D02*
X7579522Y-24668202D01*
X7579522Y-24668202D02*
X7569998Y-24649154D01*
X7569998Y-24649154D02*
X7569998Y-24639630D01*
X7569998Y-24639630D02*
X7579522Y-24620583D01*
X7579522Y-24620583D02*
X7589046Y-24611059D01*
X7589046Y-24611059D02*
X7608093Y-24601535D01*
X7608093Y-24601535D02*
X7646189Y-24601535D01*
X7646189Y-24601535D02*
X7665236Y-24611059D01*
X7665236Y-24611059D02*
X7674760Y-24620583D01*
X7674760Y-24620583D02*
X7684284Y-24639630D01*
X7684284Y-24639630D02*
X7684284Y-24649154D01*
X7684284Y-24649154D02*
X7674760Y-24668202D01*
X7674760Y-24668202D02*
X7665236Y-24677725D01*
X7665236Y-24677725D02*
X7646189Y-24687249D01*
X7646189Y-24687249D02*
X7608093Y-24687249D01*
X7608093Y-24687249D02*
X7589046Y-24696773D01*
X7589046Y-24696773D02*
X7579522Y-24706297D01*
X7579522Y-24706297D02*
X7569998Y-24725344D01*
X7569998Y-24725344D02*
X7569998Y-24763440D01*
X7569998Y-24763440D02*
X7579522Y-24782487D01*
X7579522Y-24782487D02*
X7589046Y-24792011D01*
X7589046Y-24792011D02*
X7608093Y-24801535D01*
X7608093Y-24801535D02*
X7646189Y-24801535D01*
X7646189Y-24801535D02*
X7665236Y-24792011D01*
X7665236Y-24792011D02*
X7674760Y-24782487D01*
X7674760Y-24782487D02*
X7684284Y-24763440D01*
X7684284Y-24763440D02*
X7684284Y-24725344D01*
X7684284Y-24725344D02*
X7674760Y-24706297D01*
X7674760Y-24706297D02*
X7665236Y-24696773D01*
X7665236Y-24696773D02*
X7646189Y-24687249D01*
X7855712Y-24601535D02*
X7817617Y-24601535D01*
X7817617Y-24601535D02*
X7798569Y-24611059D01*
X7798569Y-24611059D02*
X7789046Y-24620583D01*
X7789046Y-24620583D02*
X7769998Y-24649154D01*
X7769998Y-24649154D02*
X7760474Y-24687249D01*
X7760474Y-24687249D02*
X7760474Y-24763440D01*
X7760474Y-24763440D02*
X7769998Y-24782487D01*
X7769998Y-24782487D02*
X7779522Y-24792011D01*
X7779522Y-24792011D02*
X7798569Y-24801535D01*
X7798569Y-24801535D02*
X7836665Y-24801535D01*
X7836665Y-24801535D02*
X7855712Y-24792011D01*
X7855712Y-24792011D02*
X7865236Y-24782487D01*
X7865236Y-24782487D02*
X7874760Y-24763440D01*
X7874760Y-24763440D02*
X7874760Y-24715821D01*
X7874760Y-24715821D02*
X7865236Y-24696773D01*
X7865236Y-24696773D02*
X7855712Y-24687249D01*
X7855712Y-24687249D02*
X7836665Y-24677725D01*
X7836665Y-24677725D02*
X7798569Y-24677725D01*
X7798569Y-24677725D02*
X7779522Y-24687249D01*
X7779522Y-24687249D02*
X7769998Y-24696773D01*
X7769998Y-24696773D02*
X7760474Y-24715821D01*
X8046189Y-24601535D02*
X8008093Y-24601535D01*
X8008093Y-24601535D02*
X7989046Y-24611059D01*
X7989046Y-24611059D02*
X7979522Y-24620583D01*
X7979522Y-24620583D02*
X7960474Y-24649154D01*
X7960474Y-24649154D02*
X7950950Y-24687249D01*
X7950950Y-24687249D02*
X7950950Y-24763440D01*
X7950950Y-24763440D02*
X7960474Y-24782487D01*
X7960474Y-24782487D02*
X7969998Y-24792011D01*
X7969998Y-24792011D02*
X7989046Y-24801535D01*
X7989046Y-24801535D02*
X8027141Y-24801535D01*
X8027141Y-24801535D02*
X8046189Y-24792011D01*
X8046189Y-24792011D02*
X8055712Y-24782487D01*
X8055712Y-24782487D02*
X8065236Y-24763440D01*
X8065236Y-24763440D02*
X8065236Y-24715821D01*
X8065236Y-24715821D02*
X8055712Y-24696773D01*
X8055712Y-24696773D02*
X8046189Y-24687249D01*
X8046189Y-24687249D02*
X8027141Y-24677725D01*
X8027141Y-24677725D02*
X7989046Y-24677725D01*
X7989046Y-24677725D02*
X7969998Y-24687249D01*
X7969998Y-24687249D02*
X7960474Y-24696773D01*
X7960474Y-24696773D02*
X7950950Y-24715821D01*
X8141427Y-24601535D02*
X8141427Y-24639630D01*
X8217617Y-24601535D02*
X8217617Y-24639630D01*
X8512855Y-24877725D02*
X8503332Y-24868202D01*
X8503332Y-24868202D02*
X8484284Y-24839630D01*
X8484284Y-24839630D02*
X8474760Y-24820583D01*
X8474760Y-24820583D02*
X8465236Y-24792011D01*
X8465236Y-24792011D02*
X8455713Y-24744392D01*
X8455713Y-24744392D02*
X8455713Y-24706297D01*
X8455713Y-24706297D02*
X8465236Y-24658678D01*
X8465236Y-24658678D02*
X8474760Y-24630106D01*
X8474760Y-24630106D02*
X8484284Y-24611059D01*
X8484284Y-24611059D02*
X8503332Y-24582487D01*
X8503332Y-24582487D02*
X8512855Y-24572963D01*
X8693808Y-24801535D02*
X8579522Y-24801535D01*
X8636665Y-24801535D02*
X8636665Y-24601535D01*
X8636665Y-24601535D02*
X8617617Y-24630106D01*
X8617617Y-24630106D02*
X8598570Y-24649154D01*
X8598570Y-24649154D02*
X8579522Y-24658678D01*
X8817617Y-24601535D02*
X8836665Y-24601535D01*
X8836665Y-24601535D02*
X8855713Y-24611059D01*
X8855713Y-24611059D02*
X8865236Y-24620583D01*
X8865236Y-24620583D02*
X8874760Y-24639630D01*
X8874760Y-24639630D02*
X8884284Y-24677725D01*
X8884284Y-24677725D02*
X8884284Y-24725344D01*
X8884284Y-24725344D02*
X8874760Y-24763440D01*
X8874760Y-24763440D02*
X8865236Y-24782487D01*
X8865236Y-24782487D02*
X8855713Y-24792011D01*
X8855713Y-24792011D02*
X8836665Y-24801535D01*
X8836665Y-24801535D02*
X8817617Y-24801535D01*
X8817617Y-24801535D02*
X8798570Y-24792011D01*
X8798570Y-24792011D02*
X8789046Y-24782487D01*
X8789046Y-24782487D02*
X8779522Y-24763440D01*
X8779522Y-24763440D02*
X8769998Y-24725344D01*
X8769998Y-24725344D02*
X8769998Y-24677725D01*
X8769998Y-24677725D02*
X8779522Y-24639630D01*
X8779522Y-24639630D02*
X8789046Y-24620583D01*
X8789046Y-24620583D02*
X8798570Y-24611059D01*
X8798570Y-24611059D02*
X8817617Y-24601535D01*
X9122379Y-24801535D02*
X9122379Y-24601535D01*
X9208094Y-24801535D02*
X9208094Y-24696773D01*
X9208094Y-24696773D02*
X9198570Y-24677725D01*
X9198570Y-24677725D02*
X9179522Y-24668202D01*
X9179522Y-24668202D02*
X9150951Y-24668202D01*
X9150951Y-24668202D02*
X9131903Y-24677725D01*
X9131903Y-24677725D02*
X9122379Y-24687249D01*
X9331903Y-24801535D02*
X9312855Y-24792011D01*
X9312855Y-24792011D02*
X9303332Y-24782487D01*
X9303332Y-24782487D02*
X9293808Y-24763440D01*
X9293808Y-24763440D02*
X9293808Y-24706297D01*
X9293808Y-24706297D02*
X9303332Y-24687249D01*
X9303332Y-24687249D02*
X9312855Y-24677725D01*
X9312855Y-24677725D02*
X9331903Y-24668202D01*
X9331903Y-24668202D02*
X9360475Y-24668202D01*
X9360475Y-24668202D02*
X9379522Y-24677725D01*
X9379522Y-24677725D02*
X9389046Y-24687249D01*
X9389046Y-24687249D02*
X9398570Y-24706297D01*
X9398570Y-24706297D02*
X9398570Y-24763440D01*
X9398570Y-24763440D02*
X9389046Y-24782487D01*
X9389046Y-24782487D02*
X9379522Y-24792011D01*
X9379522Y-24792011D02*
X9360475Y-24801535D01*
X9360475Y-24801535D02*
X9331903Y-24801535D01*
X9512855Y-24801535D02*
X9493808Y-24792011D01*
X9493808Y-24792011D02*
X9484284Y-24772963D01*
X9484284Y-24772963D02*
X9484284Y-24601535D01*
X9665236Y-24792011D02*
X9646189Y-24801535D01*
X9646189Y-24801535D02*
X9608094Y-24801535D01*
X9608094Y-24801535D02*
X9589046Y-24792011D01*
X9589046Y-24792011D02*
X9579522Y-24772963D01*
X9579522Y-24772963D02*
X9579522Y-24696773D01*
X9579522Y-24696773D02*
X9589046Y-24677725D01*
X9589046Y-24677725D02*
X9608094Y-24668202D01*
X9608094Y-24668202D02*
X9646189Y-24668202D01*
X9646189Y-24668202D02*
X9665236Y-24677725D01*
X9665236Y-24677725D02*
X9674760Y-24696773D01*
X9674760Y-24696773D02*
X9674760Y-24715821D01*
X9674760Y-24715821D02*
X9579522Y-24734868D01*
X9750951Y-24792011D02*
X9769998Y-24801535D01*
X9769998Y-24801535D02*
X9808094Y-24801535D01*
X9808094Y-24801535D02*
X9827141Y-24792011D01*
X9827141Y-24792011D02*
X9836665Y-24772963D01*
X9836665Y-24772963D02*
X9836665Y-24763440D01*
X9836665Y-24763440D02*
X9827141Y-24744392D01*
X9827141Y-24744392D02*
X9808094Y-24734868D01*
X9808094Y-24734868D02*
X9779522Y-24734868D01*
X9779522Y-24734868D02*
X9760475Y-24725344D01*
X9760475Y-24725344D02*
X9750951Y-24706297D01*
X9750951Y-24706297D02*
X9750951Y-24696773D01*
X9750951Y-24696773D02*
X9760475Y-24677725D01*
X9760475Y-24677725D02*
X9779522Y-24668202D01*
X9779522Y-24668202D02*
X9808094Y-24668202D01*
X9808094Y-24668202D02*
X9827141Y-24677725D01*
X9903332Y-24877725D02*
X9912856Y-24868202D01*
X9912856Y-24868202D02*
X9931903Y-24839630D01*
X9931903Y-24839630D02*
X9941427Y-24820583D01*
X9941427Y-24820583D02*
X9950951Y-24792011D01*
X9950951Y-24792011D02*
X9960475Y-24744392D01*
X9960475Y-24744392D02*
X9960475Y-24706297D01*
X9960475Y-24706297D02*
X9950951Y-24658678D01*
X9950951Y-24658678D02*
X9941427Y-24630106D01*
X9941427Y-24630106D02*
X9931903Y-24611059D01*
X9931903Y-24611059D02*
X9912856Y-24582487D01*
X9912856Y-24582487D02*
X9903332Y-24572963D01*
M02*
