%TF.GenerationSoftware,KiCad,Pcbnew,9.0.5*%
%TF.CreationDate,2025-11-08T17:13:18+10:00*%
%TF.ProjectId,badWingsLeft,62616457-696e-4677-934c-6566742e6b69,v1.0.0*%
%TF.SameCoordinates,Original*%
%TF.FileFunction,Legend,Top*%
%TF.FilePolarity,Positive*%
%FSLAX46Y46*%
G04 Gerber Fmt 4.6, Leading zero omitted, Abs format (unit mm)*
G04 Created by KiCad (PCBNEW 9.0.5) date 2025-11-08 17:13:18*
%MOMM*%
%LPD*%
G01*
G04 APERTURE LIST*
%ADD10C,0.400000*%
%ADD11C,0.300000*%
%ADD12C,0.150000*%
%ADD13C,0.381000*%
%ADD14C,0.120000*%
%ADD15C,1.752600*%
G04 APERTURE END LIST*
D10*
X132530710Y-176468102D02*
X132941424Y-176610959D01*
X132941424Y-176610959D02*
X133066424Y-176753816D01*
X133066424Y-176753816D02*
X133173567Y-177039531D01*
X133173567Y-177039531D02*
X133119995Y-177468102D01*
X133119995Y-177468102D02*
X132941424Y-177753816D01*
X132941424Y-177753816D02*
X132780710Y-177896674D01*
X132780710Y-177896674D02*
X132477138Y-178039531D01*
X132477138Y-178039531D02*
X131334281Y-178039531D01*
X131334281Y-178039531D02*
X131709281Y-175039531D01*
X131709281Y-175039531D02*
X132709281Y-175039531D01*
X132709281Y-175039531D02*
X132977138Y-175182388D01*
X132977138Y-175182388D02*
X133102138Y-175325245D01*
X133102138Y-175325245D02*
X133209281Y-175610959D01*
X133209281Y-175610959D02*
X133173567Y-175896674D01*
X133173567Y-175896674D02*
X132994995Y-176182388D01*
X132994995Y-176182388D02*
X132834281Y-176325245D01*
X132834281Y-176325245D02*
X132530710Y-176468102D01*
X132530710Y-176468102D02*
X131530710Y-176468102D01*
X135619995Y-178039531D02*
X135816424Y-176468102D01*
X135816424Y-176468102D02*
X135709281Y-176182388D01*
X135709281Y-176182388D02*
X135441424Y-176039531D01*
X135441424Y-176039531D02*
X134869995Y-176039531D01*
X134869995Y-176039531D02*
X134566424Y-176182388D01*
X135637853Y-177896674D02*
X135334281Y-178039531D01*
X135334281Y-178039531D02*
X134619995Y-178039531D01*
X134619995Y-178039531D02*
X134352138Y-177896674D01*
X134352138Y-177896674D02*
X134244995Y-177610959D01*
X134244995Y-177610959D02*
X134280710Y-177325245D01*
X134280710Y-177325245D02*
X134459281Y-177039531D01*
X134459281Y-177039531D02*
X134762853Y-176896674D01*
X134762853Y-176896674D02*
X135477138Y-176896674D01*
X135477138Y-176896674D02*
X135780710Y-176753816D01*
X138334281Y-178039531D02*
X138709281Y-175039531D01*
X138352139Y-177896674D02*
X138048567Y-178039531D01*
X138048567Y-178039531D02*
X137477139Y-178039531D01*
X137477139Y-178039531D02*
X137209281Y-177896674D01*
X137209281Y-177896674D02*
X137084281Y-177753816D01*
X137084281Y-177753816D02*
X136977139Y-177468102D01*
X136977139Y-177468102D02*
X137084281Y-176610959D01*
X137084281Y-176610959D02*
X137262853Y-176325245D01*
X137262853Y-176325245D02*
X137423567Y-176182388D01*
X137423567Y-176182388D02*
X137727139Y-176039531D01*
X137727139Y-176039531D02*
X138298567Y-176039531D01*
X138298567Y-176039531D02*
X138566424Y-176182388D01*
X139852139Y-175039531D02*
X140191425Y-178039531D01*
X140191425Y-178039531D02*
X141030710Y-175896674D01*
X141030710Y-175896674D02*
X141334282Y-178039531D01*
X141334282Y-178039531D02*
X142423567Y-175039531D01*
X143191424Y-178039531D02*
X143441424Y-176039531D01*
X143566424Y-175039531D02*
X143405710Y-175182388D01*
X143405710Y-175182388D02*
X143530710Y-175325245D01*
X143530710Y-175325245D02*
X143691424Y-175182388D01*
X143691424Y-175182388D02*
X143566424Y-175039531D01*
X143566424Y-175039531D02*
X143530710Y-175325245D01*
X144869995Y-176039531D02*
X144619995Y-178039531D01*
X144834281Y-176325245D02*
X144994995Y-176182388D01*
X144994995Y-176182388D02*
X145298567Y-176039531D01*
X145298567Y-176039531D02*
X145727138Y-176039531D01*
X145727138Y-176039531D02*
X145994995Y-176182388D01*
X145994995Y-176182388D02*
X146102138Y-176468102D01*
X146102138Y-176468102D02*
X145905709Y-178039531D01*
X148869995Y-176039531D02*
X148566424Y-178468102D01*
X148566424Y-178468102D02*
X148387853Y-178753816D01*
X148387853Y-178753816D02*
X148227138Y-178896674D01*
X148227138Y-178896674D02*
X147923567Y-179039531D01*
X147923567Y-179039531D02*
X147494995Y-179039531D01*
X147494995Y-179039531D02*
X147227138Y-178896674D01*
X148637853Y-177896674D02*
X148334281Y-178039531D01*
X148334281Y-178039531D02*
X147762853Y-178039531D01*
X147762853Y-178039531D02*
X147494995Y-177896674D01*
X147494995Y-177896674D02*
X147369995Y-177753816D01*
X147369995Y-177753816D02*
X147262853Y-177468102D01*
X147262853Y-177468102D02*
X147369995Y-176610959D01*
X147369995Y-176610959D02*
X147548567Y-176325245D01*
X147548567Y-176325245D02*
X147709281Y-176182388D01*
X147709281Y-176182388D02*
X148012853Y-176039531D01*
X148012853Y-176039531D02*
X148584281Y-176039531D01*
X148584281Y-176039531D02*
X148852138Y-176182388D01*
X149923567Y-177896674D02*
X150191424Y-178039531D01*
X150191424Y-178039531D02*
X150762853Y-178039531D01*
X150762853Y-178039531D02*
X151066424Y-177896674D01*
X151066424Y-177896674D02*
X151244996Y-177610959D01*
X151244996Y-177610959D02*
X151262853Y-177468102D01*
X151262853Y-177468102D02*
X151155710Y-177182388D01*
X151155710Y-177182388D02*
X150887853Y-177039531D01*
X150887853Y-177039531D02*
X150459281Y-177039531D01*
X150459281Y-177039531D02*
X150191424Y-176896674D01*
X150191424Y-176896674D02*
X150084281Y-176610959D01*
X150084281Y-176610959D02*
X150102139Y-176468102D01*
X150102139Y-176468102D02*
X150280710Y-176182388D01*
X150280710Y-176182388D02*
X150584281Y-176039531D01*
X150584281Y-176039531D02*
X151012853Y-176039531D01*
X151012853Y-176039531D02*
X151280710Y-176182388D01*
D11*
X164696136Y-161350802D02*
X164696136Y-162350802D01*
X164696136Y-161493659D02*
X164767565Y-161422231D01*
X164767565Y-161422231D02*
X164910422Y-161350802D01*
X164910422Y-161350802D02*
X165124708Y-161350802D01*
X165124708Y-161350802D02*
X165267565Y-161422231D01*
X165267565Y-161422231D02*
X165338994Y-161565088D01*
X165338994Y-161565088D02*
X165338994Y-162350802D01*
X166053279Y-162350802D02*
X166053279Y-161350802D01*
X166053279Y-160850802D02*
X165981851Y-160922231D01*
X165981851Y-160922231D02*
X166053279Y-160993659D01*
X166053279Y-160993659D02*
X166124708Y-160922231D01*
X166124708Y-160922231D02*
X166053279Y-160850802D01*
X166053279Y-160850802D02*
X166053279Y-160993659D01*
X167410423Y-162279374D02*
X167267565Y-162350802D01*
X167267565Y-162350802D02*
X166981851Y-162350802D01*
X166981851Y-162350802D02*
X166838994Y-162279374D01*
X166838994Y-162279374D02*
X166767565Y-162207945D01*
X166767565Y-162207945D02*
X166696137Y-162065088D01*
X166696137Y-162065088D02*
X166696137Y-161636516D01*
X166696137Y-161636516D02*
X166767565Y-161493659D01*
X166767565Y-161493659D02*
X166838994Y-161422231D01*
X166838994Y-161422231D02*
X166981851Y-161350802D01*
X166981851Y-161350802D02*
X167267565Y-161350802D01*
X167267565Y-161350802D02*
X167410423Y-161422231D01*
X168624708Y-162279374D02*
X168481851Y-162350802D01*
X168481851Y-162350802D02*
X168196137Y-162350802D01*
X168196137Y-162350802D02*
X168053279Y-162279374D01*
X168053279Y-162279374D02*
X167981851Y-162136516D01*
X167981851Y-162136516D02*
X167981851Y-161565088D01*
X167981851Y-161565088D02*
X168053279Y-161422231D01*
X168053279Y-161422231D02*
X168196137Y-161350802D01*
X168196137Y-161350802D02*
X168481851Y-161350802D01*
X168481851Y-161350802D02*
X168624708Y-161422231D01*
X168624708Y-161422231D02*
X168696137Y-161565088D01*
X168696137Y-161565088D02*
X168696137Y-161707945D01*
X168696137Y-161707945D02*
X167981851Y-161850802D01*
X169338993Y-162207945D02*
X169410422Y-162279374D01*
X169410422Y-162279374D02*
X169338993Y-162350802D01*
X169338993Y-162350802D02*
X169267565Y-162279374D01*
X169267565Y-162279374D02*
X169338993Y-162207945D01*
X169338993Y-162207945D02*
X169338993Y-162350802D01*
X169338993Y-161779374D02*
X169267565Y-160922231D01*
X169267565Y-160922231D02*
X169338993Y-160850802D01*
X169338993Y-160850802D02*
X169410422Y-160922231D01*
X169410422Y-160922231D02*
X169338993Y-161779374D01*
X169338993Y-161779374D02*
X169338993Y-160850802D01*
X169910422Y-161350802D02*
X170267565Y-162350802D01*
X170267565Y-162350802D02*
X170624708Y-161350802D01*
X171196136Y-162350802D02*
X171196136Y-161350802D01*
X171196136Y-160850802D02*
X171124708Y-160922231D01*
X171124708Y-160922231D02*
X171196136Y-160993659D01*
X171196136Y-160993659D02*
X171267565Y-160922231D01*
X171267565Y-160922231D02*
X171196136Y-160850802D01*
X171196136Y-160850802D02*
X171196136Y-160993659D01*
X172481851Y-162279374D02*
X172338994Y-162350802D01*
X172338994Y-162350802D02*
X172053280Y-162350802D01*
X172053280Y-162350802D02*
X171910422Y-162279374D01*
X171910422Y-162279374D02*
X171838994Y-162136516D01*
X171838994Y-162136516D02*
X171838994Y-161565088D01*
X171838994Y-161565088D02*
X171910422Y-161422231D01*
X171910422Y-161422231D02*
X172053280Y-161350802D01*
X172053280Y-161350802D02*
X172338994Y-161350802D01*
X172338994Y-161350802D02*
X172481851Y-161422231D01*
X172481851Y-161422231D02*
X172553280Y-161565088D01*
X172553280Y-161565088D02*
X172553280Y-161707945D01*
X172553280Y-161707945D02*
X171838994Y-161850802D01*
X173053279Y-161350802D02*
X173338994Y-162350802D01*
X173338994Y-162350802D02*
X173624708Y-161636516D01*
X173624708Y-161636516D02*
X173910422Y-162350802D01*
X173910422Y-162350802D02*
X174196136Y-161350802D01*
D12*
X168937003Y-157939140D02*
X169737003Y-157672473D01*
X169737003Y-157672473D02*
X168937003Y-157405807D01*
X169660812Y-156681997D02*
X169698908Y-156720093D01*
X169698908Y-156720093D02*
X169737003Y-156834378D01*
X169737003Y-156834378D02*
X169737003Y-156910569D01*
X169737003Y-156910569D02*
X169698908Y-157024855D01*
X169698908Y-157024855D02*
X169622717Y-157101045D01*
X169622717Y-157101045D02*
X169546527Y-157139140D01*
X169546527Y-157139140D02*
X169394146Y-157177236D01*
X169394146Y-157177236D02*
X169279860Y-157177236D01*
X169279860Y-157177236D02*
X169127479Y-157139140D01*
X169127479Y-157139140D02*
X169051288Y-157101045D01*
X169051288Y-157101045D02*
X168975098Y-157024855D01*
X168975098Y-157024855D02*
X168937003Y-156910569D01*
X168937003Y-156910569D02*
X168937003Y-156834378D01*
X168937003Y-156834378D02*
X168975098Y-156720093D01*
X168975098Y-156720093D02*
X169013193Y-156681997D01*
X169660812Y-155881997D02*
X169698908Y-155920093D01*
X169698908Y-155920093D02*
X169737003Y-156034378D01*
X169737003Y-156034378D02*
X169737003Y-156110569D01*
X169737003Y-156110569D02*
X169698908Y-156224855D01*
X169698908Y-156224855D02*
X169622717Y-156301045D01*
X169622717Y-156301045D02*
X169546527Y-156339140D01*
X169546527Y-156339140D02*
X169394146Y-156377236D01*
X169394146Y-156377236D02*
X169279860Y-156377236D01*
X169279860Y-156377236D02*
X169127479Y-156339140D01*
X169127479Y-156339140D02*
X169051288Y-156301045D01*
X169051288Y-156301045D02*
X168975098Y-156224855D01*
X168975098Y-156224855D02*
X168937003Y-156110569D01*
X168937003Y-156110569D02*
X168937003Y-156034378D01*
X168937003Y-156034378D02*
X168975098Y-155920093D01*
X168975098Y-155920093D02*
X169013193Y-155881997D01*
X164618908Y-157843902D02*
X164657003Y-157729616D01*
X164657003Y-157729616D02*
X164657003Y-157539140D01*
X164657003Y-157539140D02*
X164618908Y-157462949D01*
X164618908Y-157462949D02*
X164580812Y-157424854D01*
X164580812Y-157424854D02*
X164504622Y-157386759D01*
X164504622Y-157386759D02*
X164428431Y-157386759D01*
X164428431Y-157386759D02*
X164352241Y-157424854D01*
X164352241Y-157424854D02*
X164314146Y-157462949D01*
X164314146Y-157462949D02*
X164276050Y-157539140D01*
X164276050Y-157539140D02*
X164237955Y-157691521D01*
X164237955Y-157691521D02*
X164199860Y-157767711D01*
X164199860Y-157767711D02*
X164161765Y-157805806D01*
X164161765Y-157805806D02*
X164085574Y-157843902D01*
X164085574Y-157843902D02*
X164009384Y-157843902D01*
X164009384Y-157843902D02*
X163933193Y-157805806D01*
X163933193Y-157805806D02*
X163895098Y-157767711D01*
X163895098Y-157767711D02*
X163857003Y-157691521D01*
X163857003Y-157691521D02*
X163857003Y-157501044D01*
X163857003Y-157501044D02*
X163895098Y-157386759D01*
X164657003Y-157043901D02*
X163857003Y-157043901D01*
X163857003Y-157043901D02*
X163857003Y-156853425D01*
X163857003Y-156853425D02*
X163895098Y-156739139D01*
X163895098Y-156739139D02*
X163971288Y-156662949D01*
X163971288Y-156662949D02*
X164047479Y-156624854D01*
X164047479Y-156624854D02*
X164199860Y-156586758D01*
X164199860Y-156586758D02*
X164314146Y-156586758D01*
X164314146Y-156586758D02*
X164466527Y-156624854D01*
X164466527Y-156624854D02*
X164542717Y-156662949D01*
X164542717Y-156662949D02*
X164618908Y-156739139D01*
X164618908Y-156739139D02*
X164657003Y-156853425D01*
X164657003Y-156853425D02*
X164657003Y-157043901D01*
X164428431Y-156281997D02*
X164428431Y-155901044D01*
X164657003Y-156358187D02*
X163857003Y-156091520D01*
X163857003Y-156091520D02*
X164657003Y-155824854D01*
X171515098Y-157481997D02*
X171477003Y-157558187D01*
X171477003Y-157558187D02*
X171477003Y-157672473D01*
X171477003Y-157672473D02*
X171515098Y-157786759D01*
X171515098Y-157786759D02*
X171591288Y-157862949D01*
X171591288Y-157862949D02*
X171667479Y-157901044D01*
X171667479Y-157901044D02*
X171819860Y-157939140D01*
X171819860Y-157939140D02*
X171934146Y-157939140D01*
X171934146Y-157939140D02*
X172086527Y-157901044D01*
X172086527Y-157901044D02*
X172162717Y-157862949D01*
X172162717Y-157862949D02*
X172238908Y-157786759D01*
X172238908Y-157786759D02*
X172277003Y-157672473D01*
X172277003Y-157672473D02*
X172277003Y-157596282D01*
X172277003Y-157596282D02*
X172238908Y-157481997D01*
X172238908Y-157481997D02*
X172200812Y-157443901D01*
X172200812Y-157443901D02*
X171934146Y-157443901D01*
X171934146Y-157443901D02*
X171934146Y-157596282D01*
X172277003Y-157101044D02*
X171477003Y-157101044D01*
X171477003Y-157101044D02*
X172277003Y-156643901D01*
X172277003Y-156643901D02*
X171477003Y-156643901D01*
X172277003Y-156262949D02*
X171477003Y-156262949D01*
X171477003Y-156262949D02*
X171477003Y-156072473D01*
X171477003Y-156072473D02*
X171515098Y-155958187D01*
X171515098Y-155958187D02*
X171591288Y-155881997D01*
X171591288Y-155881997D02*
X171667479Y-155843902D01*
X171667479Y-155843902D02*
X171819860Y-155805806D01*
X171819860Y-155805806D02*
X171934146Y-155805806D01*
X171934146Y-155805806D02*
X172086527Y-155843902D01*
X172086527Y-155843902D02*
X172162717Y-155881997D01*
X172162717Y-155881997D02*
X172238908Y-155958187D01*
X172238908Y-155958187D02*
X172277003Y-156072473D01*
X172277003Y-156072473D02*
X172277003Y-156262949D01*
X167158908Y-157824855D02*
X167197003Y-157710569D01*
X167197003Y-157710569D02*
X167197003Y-157520093D01*
X167197003Y-157520093D02*
X167158908Y-157443902D01*
X167158908Y-157443902D02*
X167120812Y-157405807D01*
X167120812Y-157405807D02*
X167044622Y-157367712D01*
X167044622Y-157367712D02*
X166968431Y-157367712D01*
X166968431Y-157367712D02*
X166892241Y-157405807D01*
X166892241Y-157405807D02*
X166854146Y-157443902D01*
X166854146Y-157443902D02*
X166816050Y-157520093D01*
X166816050Y-157520093D02*
X166777955Y-157672474D01*
X166777955Y-157672474D02*
X166739860Y-157748664D01*
X166739860Y-157748664D02*
X166701765Y-157786759D01*
X166701765Y-157786759D02*
X166625574Y-157824855D01*
X166625574Y-157824855D02*
X166549384Y-157824855D01*
X166549384Y-157824855D02*
X166473193Y-157786759D01*
X166473193Y-157786759D02*
X166435098Y-157748664D01*
X166435098Y-157748664D02*
X166397003Y-157672474D01*
X166397003Y-157672474D02*
X166397003Y-157481997D01*
X166397003Y-157481997D02*
X166435098Y-157367712D01*
X167120812Y-156567711D02*
X167158908Y-156605807D01*
X167158908Y-156605807D02*
X167197003Y-156720092D01*
X167197003Y-156720092D02*
X167197003Y-156796283D01*
X167197003Y-156796283D02*
X167158908Y-156910569D01*
X167158908Y-156910569D02*
X167082717Y-156986759D01*
X167082717Y-156986759D02*
X167006527Y-157024854D01*
X167006527Y-157024854D02*
X166854146Y-157062950D01*
X166854146Y-157062950D02*
X166739860Y-157062950D01*
X166739860Y-157062950D02*
X166587479Y-157024854D01*
X166587479Y-157024854D02*
X166511288Y-156986759D01*
X166511288Y-156986759D02*
X166435098Y-156910569D01*
X166435098Y-156910569D02*
X166397003Y-156796283D01*
X166397003Y-156796283D02*
X166397003Y-156720092D01*
X166397003Y-156720092D02*
X166435098Y-156605807D01*
X166435098Y-156605807D02*
X166473193Y-156567711D01*
X167197003Y-155843902D02*
X167197003Y-156224854D01*
X167197003Y-156224854D02*
X166397003Y-156224854D01*
X174740814Y-157005807D02*
X174778910Y-157043903D01*
X174778910Y-157043903D02*
X174817005Y-157158188D01*
X174817005Y-157158188D02*
X174817005Y-157234379D01*
X174817005Y-157234379D02*
X174778910Y-157348665D01*
X174778910Y-157348665D02*
X174702719Y-157424855D01*
X174702719Y-157424855D02*
X174626529Y-157462950D01*
X174626529Y-157462950D02*
X174474148Y-157501046D01*
X174474148Y-157501046D02*
X174359862Y-157501046D01*
X174359862Y-157501046D02*
X174207481Y-157462950D01*
X174207481Y-157462950D02*
X174131290Y-157424855D01*
X174131290Y-157424855D02*
X174055100Y-157348665D01*
X174055100Y-157348665D02*
X174017005Y-157234379D01*
X174017005Y-157234379D02*
X174017005Y-157158188D01*
X174017005Y-157158188D02*
X174055100Y-157043903D01*
X174055100Y-157043903D02*
X174093195Y-157005807D01*
X174778910Y-156701046D02*
X174817005Y-156586760D01*
X174817005Y-156586760D02*
X174817005Y-156396284D01*
X174817005Y-156396284D02*
X174778910Y-156320093D01*
X174778910Y-156320093D02*
X174740814Y-156281998D01*
X174740814Y-156281998D02*
X174664624Y-156243903D01*
X174664624Y-156243903D02*
X174588433Y-156243903D01*
X174588433Y-156243903D02*
X174512243Y-156281998D01*
X174512243Y-156281998D02*
X174474148Y-156320093D01*
X174474148Y-156320093D02*
X174436052Y-156396284D01*
X174436052Y-156396284D02*
X174397957Y-156548665D01*
X174397957Y-156548665D02*
X174359862Y-156624855D01*
X174359862Y-156624855D02*
X174321767Y-156662950D01*
X174321767Y-156662950D02*
X174245576Y-156701046D01*
X174245576Y-156701046D02*
X174169386Y-156701046D01*
X174169386Y-156701046D02*
X174093195Y-156662950D01*
X174093195Y-156662950D02*
X174055100Y-156624855D01*
X174055100Y-156624855D02*
X174017005Y-156548665D01*
X174017005Y-156548665D02*
X174017005Y-156358188D01*
X174017005Y-156358188D02*
X174055100Y-156243903D01*
X163348612Y-126264764D02*
X163081945Y-125883811D01*
X162891469Y-126264764D02*
X162891469Y-125464764D01*
X162891469Y-125464764D02*
X163196231Y-125464764D01*
X163196231Y-125464764D02*
X163272421Y-125502859D01*
X163272421Y-125502859D02*
X163310516Y-125540954D01*
X163310516Y-125540954D02*
X163348612Y-125617145D01*
X163348612Y-125617145D02*
X163348612Y-125731430D01*
X163348612Y-125731430D02*
X163310516Y-125807621D01*
X163310516Y-125807621D02*
X163272421Y-125845716D01*
X163272421Y-125845716D02*
X163196231Y-125883811D01*
X163196231Y-125883811D02*
X162891469Y-125883811D01*
X163653373Y-126036192D02*
X164034326Y-126036192D01*
X163577183Y-126264764D02*
X163843850Y-125464764D01*
X163843850Y-125464764D02*
X164110516Y-126264764D01*
X164300992Y-125464764D02*
X164491468Y-126264764D01*
X164491468Y-126264764D02*
X164643849Y-125693335D01*
X164643849Y-125693335D02*
X164796230Y-126264764D01*
X164796230Y-126264764D02*
X164986707Y-125464764D01*
X174378564Y-151664764D02*
X173921421Y-151664764D01*
X174149993Y-151664764D02*
X174149993Y-150864764D01*
X174149993Y-150864764D02*
X174073802Y-150979049D01*
X174073802Y-150979049D02*
X173997612Y-151055240D01*
X173997612Y-151055240D02*
X173921421Y-151093335D01*
X174873803Y-150864764D02*
X174949993Y-150864764D01*
X174949993Y-150864764D02*
X175026184Y-150902859D01*
X175026184Y-150902859D02*
X175064279Y-150940954D01*
X175064279Y-150940954D02*
X175102374Y-151017145D01*
X175102374Y-151017145D02*
X175140469Y-151169526D01*
X175140469Y-151169526D02*
X175140469Y-151360002D01*
X175140469Y-151360002D02*
X175102374Y-151512383D01*
X175102374Y-151512383D02*
X175064279Y-151588573D01*
X175064279Y-151588573D02*
X175026184Y-151626669D01*
X175026184Y-151626669D02*
X174949993Y-151664764D01*
X174949993Y-151664764D02*
X174873803Y-151664764D01*
X174873803Y-151664764D02*
X174797612Y-151626669D01*
X174797612Y-151626669D02*
X174759517Y-151588573D01*
X174759517Y-151588573D02*
X174721422Y-151512383D01*
X174721422Y-151512383D02*
X174683326Y-151360002D01*
X174683326Y-151360002D02*
X174683326Y-151169526D01*
X174683326Y-151169526D02*
X174721422Y-151017145D01*
X174721422Y-151017145D02*
X174759517Y-150940954D01*
X174759517Y-150940954D02*
X174797612Y-150902859D01*
X174797612Y-150902859D02*
X174873803Y-150864764D01*
X175826184Y-151131430D02*
X175826184Y-151664764D01*
X175635708Y-150826669D02*
X175445231Y-151398097D01*
X175445231Y-151398097D02*
X175940470Y-151398097D01*
X174226184Y-133122859D02*
X174149994Y-133084764D01*
X174149994Y-133084764D02*
X174035708Y-133084764D01*
X174035708Y-133084764D02*
X173921422Y-133122859D01*
X173921422Y-133122859D02*
X173845232Y-133199049D01*
X173845232Y-133199049D02*
X173807137Y-133275240D01*
X173807137Y-133275240D02*
X173769041Y-133427621D01*
X173769041Y-133427621D02*
X173769041Y-133541907D01*
X173769041Y-133541907D02*
X173807137Y-133694288D01*
X173807137Y-133694288D02*
X173845232Y-133770478D01*
X173845232Y-133770478D02*
X173921422Y-133846669D01*
X173921422Y-133846669D02*
X174035708Y-133884764D01*
X174035708Y-133884764D02*
X174111899Y-133884764D01*
X174111899Y-133884764D02*
X174226184Y-133846669D01*
X174226184Y-133846669D02*
X174264280Y-133808573D01*
X174264280Y-133808573D02*
X174264280Y-133541907D01*
X174264280Y-133541907D02*
X174111899Y-133541907D01*
X174607137Y-133884764D02*
X174607137Y-133084764D01*
X174607137Y-133084764D02*
X175064280Y-133884764D01*
X175064280Y-133884764D02*
X175064280Y-133084764D01*
X175445232Y-133884764D02*
X175445232Y-133084764D01*
X175445232Y-133084764D02*
X175635708Y-133084764D01*
X175635708Y-133084764D02*
X175749994Y-133122859D01*
X175749994Y-133122859D02*
X175826184Y-133199049D01*
X175826184Y-133199049D02*
X175864279Y-133275240D01*
X175864279Y-133275240D02*
X175902375Y-133427621D01*
X175902375Y-133427621D02*
X175902375Y-133541907D01*
X175902375Y-133541907D02*
X175864279Y-133694288D01*
X175864279Y-133694288D02*
X175826184Y-133770478D01*
X175826184Y-133770478D02*
X175749994Y-133846669D01*
X175749994Y-133846669D02*
X175635708Y-133884764D01*
X175635708Y-133884764D02*
X175445232Y-133884764D01*
X163304186Y-144044767D02*
X162847043Y-144044767D01*
X163075615Y-144044767D02*
X163075615Y-143244767D01*
X163075615Y-143244767D02*
X162999424Y-143359052D01*
X162999424Y-143359052D02*
X162923234Y-143435243D01*
X162923234Y-143435243D02*
X162847043Y-143473338D01*
X164066091Y-144044767D02*
X163608948Y-144044767D01*
X163837520Y-144044767D02*
X163837520Y-143244767D01*
X163837520Y-143244767D02*
X163761329Y-143359052D01*
X163761329Y-143359052D02*
X163685139Y-143435243D01*
X163685139Y-143435243D02*
X163608948Y-143473338D01*
X164789901Y-143244767D02*
X164408949Y-143244767D01*
X164408949Y-143244767D02*
X164370853Y-143625719D01*
X164370853Y-143625719D02*
X164408949Y-143587624D01*
X164408949Y-143587624D02*
X164485139Y-143549529D01*
X164485139Y-143549529D02*
X164675615Y-143549529D01*
X164675615Y-143549529D02*
X164751806Y-143587624D01*
X164751806Y-143587624D02*
X164789901Y-143625719D01*
X164789901Y-143625719D02*
X164827996Y-143701910D01*
X164827996Y-143701910D02*
X164827996Y-143892386D01*
X164827996Y-143892386D02*
X164789901Y-143968576D01*
X164789901Y-143968576D02*
X164751806Y-144006672D01*
X164751806Y-144006672D02*
X164675615Y-144044767D01*
X164675615Y-144044767D02*
X164485139Y-144044767D01*
X164485139Y-144044767D02*
X164408949Y-144006672D01*
X164408949Y-144006672D02*
X164370853Y-143968576D01*
X174111898Y-135634764D02*
X174188088Y-135634764D01*
X174188088Y-135634764D02*
X174264279Y-135672859D01*
X174264279Y-135672859D02*
X174302374Y-135710954D01*
X174302374Y-135710954D02*
X174340469Y-135787145D01*
X174340469Y-135787145D02*
X174378564Y-135939526D01*
X174378564Y-135939526D02*
X174378564Y-136130002D01*
X174378564Y-136130002D02*
X174340469Y-136282383D01*
X174340469Y-136282383D02*
X174302374Y-136358573D01*
X174302374Y-136358573D02*
X174264279Y-136396669D01*
X174264279Y-136396669D02*
X174188088Y-136434764D01*
X174188088Y-136434764D02*
X174111898Y-136434764D01*
X174111898Y-136434764D02*
X174035707Y-136396669D01*
X174035707Y-136396669D02*
X173997612Y-136358573D01*
X173997612Y-136358573D02*
X173959517Y-136282383D01*
X173959517Y-136282383D02*
X173921421Y-136130002D01*
X173921421Y-136130002D02*
X173921421Y-135939526D01*
X173921421Y-135939526D02*
X173959517Y-135787145D01*
X173959517Y-135787145D02*
X173997612Y-135710954D01*
X173997612Y-135710954D02*
X174035707Y-135672859D01*
X174035707Y-135672859D02*
X174111898Y-135634764D01*
X175140469Y-136434764D02*
X174683326Y-136434764D01*
X174911898Y-136434764D02*
X174911898Y-135634764D01*
X174911898Y-135634764D02*
X174835707Y-135749049D01*
X174835707Y-135749049D02*
X174759517Y-135825240D01*
X174759517Y-135825240D02*
X174683326Y-135863335D01*
X175407136Y-135634764D02*
X175940470Y-135634764D01*
X175940470Y-135634764D02*
X175597612Y-136434764D01*
X174226183Y-130582857D02*
X174149993Y-130544762D01*
X174149993Y-130544762D02*
X174035707Y-130544762D01*
X174035707Y-130544762D02*
X173921421Y-130582857D01*
X173921421Y-130582857D02*
X173845231Y-130659047D01*
X173845231Y-130659047D02*
X173807136Y-130735238D01*
X173807136Y-130735238D02*
X173769040Y-130887619D01*
X173769040Y-130887619D02*
X173769040Y-131001905D01*
X173769040Y-131001905D02*
X173807136Y-131154286D01*
X173807136Y-131154286D02*
X173845231Y-131230476D01*
X173845231Y-131230476D02*
X173921421Y-131306667D01*
X173921421Y-131306667D02*
X174035707Y-131344762D01*
X174035707Y-131344762D02*
X174111898Y-131344762D01*
X174111898Y-131344762D02*
X174226183Y-131306667D01*
X174226183Y-131306667D02*
X174264279Y-131268571D01*
X174264279Y-131268571D02*
X174264279Y-131001905D01*
X174264279Y-131001905D02*
X174111898Y-131001905D01*
X174607136Y-131344762D02*
X174607136Y-130544762D01*
X174607136Y-130544762D02*
X175064279Y-131344762D01*
X175064279Y-131344762D02*
X175064279Y-130544762D01*
X175445231Y-131344762D02*
X175445231Y-130544762D01*
X175445231Y-130544762D02*
X175635707Y-130544762D01*
X175635707Y-130544762D02*
X175749993Y-130582857D01*
X175749993Y-130582857D02*
X175826183Y-130659047D01*
X175826183Y-130659047D02*
X175864278Y-130735238D01*
X175864278Y-130735238D02*
X175902374Y-130887619D01*
X175902374Y-130887619D02*
X175902374Y-131001905D01*
X175902374Y-131001905D02*
X175864278Y-131154286D01*
X175864278Y-131154286D02*
X175826183Y-131230476D01*
X175826183Y-131230476D02*
X175749993Y-131306667D01*
X175749993Y-131306667D02*
X175635707Y-131344762D01*
X175635707Y-131344762D02*
X175445231Y-131344762D01*
X163037522Y-135624764D02*
X163113712Y-135624764D01*
X163113712Y-135624764D02*
X163189903Y-135662859D01*
X163189903Y-135662859D02*
X163227998Y-135700954D01*
X163227998Y-135700954D02*
X163266093Y-135777145D01*
X163266093Y-135777145D02*
X163304188Y-135929526D01*
X163304188Y-135929526D02*
X163304188Y-136120002D01*
X163304188Y-136120002D02*
X163266093Y-136272383D01*
X163266093Y-136272383D02*
X163227998Y-136348573D01*
X163227998Y-136348573D02*
X163189903Y-136386669D01*
X163189903Y-136386669D02*
X163113712Y-136424764D01*
X163113712Y-136424764D02*
X163037522Y-136424764D01*
X163037522Y-136424764D02*
X162961331Y-136386669D01*
X162961331Y-136386669D02*
X162923236Y-136348573D01*
X162923236Y-136348573D02*
X162885141Y-136272383D01*
X162885141Y-136272383D02*
X162847045Y-136120002D01*
X162847045Y-136120002D02*
X162847045Y-135929526D01*
X162847045Y-135929526D02*
X162885141Y-135777145D01*
X162885141Y-135777145D02*
X162923236Y-135700954D01*
X162923236Y-135700954D02*
X162961331Y-135662859D01*
X162961331Y-135662859D02*
X163037522Y-135624764D01*
X163570855Y-135624764D02*
X164066093Y-135624764D01*
X164066093Y-135624764D02*
X163799427Y-135929526D01*
X163799427Y-135929526D02*
X163913712Y-135929526D01*
X163913712Y-135929526D02*
X163989903Y-135967621D01*
X163989903Y-135967621D02*
X164027998Y-136005716D01*
X164027998Y-136005716D02*
X164066093Y-136081907D01*
X164066093Y-136081907D02*
X164066093Y-136272383D01*
X164066093Y-136272383D02*
X164027998Y-136348573D01*
X164027998Y-136348573D02*
X163989903Y-136386669D01*
X163989903Y-136386669D02*
X163913712Y-136424764D01*
X163913712Y-136424764D02*
X163685141Y-136424764D01*
X163685141Y-136424764D02*
X163608950Y-136386669D01*
X163608950Y-136386669D02*
X163570855Y-136348573D01*
X164827998Y-136424764D02*
X164370855Y-136424764D01*
X164599427Y-136424764D02*
X164599427Y-135624764D01*
X164599427Y-135624764D02*
X164523236Y-135739049D01*
X164523236Y-135739049D02*
X164447046Y-135815240D01*
X164447046Y-135815240D02*
X164370855Y-135853335D01*
X174111898Y-143244764D02*
X174188088Y-143244764D01*
X174188088Y-143244764D02*
X174264279Y-143282859D01*
X174264279Y-143282859D02*
X174302374Y-143320954D01*
X174302374Y-143320954D02*
X174340469Y-143397145D01*
X174340469Y-143397145D02*
X174378564Y-143549526D01*
X174378564Y-143549526D02*
X174378564Y-143740002D01*
X174378564Y-143740002D02*
X174340469Y-143892383D01*
X174340469Y-143892383D02*
X174302374Y-143968573D01*
X174302374Y-143968573D02*
X174264279Y-144006669D01*
X174264279Y-144006669D02*
X174188088Y-144044764D01*
X174188088Y-144044764D02*
X174111898Y-144044764D01*
X174111898Y-144044764D02*
X174035707Y-144006669D01*
X174035707Y-144006669D02*
X173997612Y-143968573D01*
X173997612Y-143968573D02*
X173959517Y-143892383D01*
X173959517Y-143892383D02*
X173921421Y-143740002D01*
X173921421Y-143740002D02*
X173921421Y-143549526D01*
X173921421Y-143549526D02*
X173959517Y-143397145D01*
X173959517Y-143397145D02*
X173997612Y-143320954D01*
X173997612Y-143320954D02*
X174035707Y-143282859D01*
X174035707Y-143282859D02*
X174111898Y-143244764D01*
X174683326Y-143320954D02*
X174721422Y-143282859D01*
X174721422Y-143282859D02*
X174797612Y-143244764D01*
X174797612Y-143244764D02*
X174988088Y-143244764D01*
X174988088Y-143244764D02*
X175064279Y-143282859D01*
X175064279Y-143282859D02*
X175102374Y-143320954D01*
X175102374Y-143320954D02*
X175140469Y-143397145D01*
X175140469Y-143397145D02*
X175140469Y-143473335D01*
X175140469Y-143473335D02*
X175102374Y-143587621D01*
X175102374Y-143587621D02*
X174645231Y-144044764D01*
X174645231Y-144044764D02*
X175140469Y-144044764D01*
X175826184Y-143511430D02*
X175826184Y-144044764D01*
X175635708Y-143206669D02*
X175445231Y-143778097D01*
X175445231Y-143778097D02*
X175940470Y-143778097D01*
X163304183Y-149124764D02*
X162847040Y-149124764D01*
X163075612Y-149124764D02*
X163075612Y-148324764D01*
X163075612Y-148324764D02*
X162999421Y-148439049D01*
X162999421Y-148439049D02*
X162923231Y-148515240D01*
X162923231Y-148515240D02*
X162847040Y-148553335D01*
X164066088Y-149124764D02*
X163608945Y-149124764D01*
X163837517Y-149124764D02*
X163837517Y-148324764D01*
X163837517Y-148324764D02*
X163761326Y-148439049D01*
X163761326Y-148439049D02*
X163685136Y-148515240D01*
X163685136Y-148515240D02*
X163608945Y-148553335D01*
X164827993Y-149124764D02*
X164370850Y-149124764D01*
X164599422Y-149124764D02*
X164599422Y-148324764D01*
X164599422Y-148324764D02*
X164523231Y-148439049D01*
X164523231Y-148439049D02*
X164447041Y-148515240D01*
X164447041Y-148515240D02*
X164370850Y-148553335D01*
X174111896Y-125464764D02*
X174188086Y-125464764D01*
X174188086Y-125464764D02*
X174264277Y-125502859D01*
X174264277Y-125502859D02*
X174302372Y-125540954D01*
X174302372Y-125540954D02*
X174340467Y-125617145D01*
X174340467Y-125617145D02*
X174378562Y-125769526D01*
X174378562Y-125769526D02*
X174378562Y-125960002D01*
X174378562Y-125960002D02*
X174340467Y-126112383D01*
X174340467Y-126112383D02*
X174302372Y-126188573D01*
X174302372Y-126188573D02*
X174264277Y-126226669D01*
X174264277Y-126226669D02*
X174188086Y-126264764D01*
X174188086Y-126264764D02*
X174111896Y-126264764D01*
X174111896Y-126264764D02*
X174035705Y-126226669D01*
X174035705Y-126226669D02*
X173997610Y-126188573D01*
X173997610Y-126188573D02*
X173959515Y-126112383D01*
X173959515Y-126112383D02*
X173921419Y-125960002D01*
X173921419Y-125960002D02*
X173921419Y-125769526D01*
X173921419Y-125769526D02*
X173959515Y-125617145D01*
X173959515Y-125617145D02*
X173997610Y-125540954D01*
X173997610Y-125540954D02*
X174035705Y-125502859D01*
X174035705Y-125502859D02*
X174111896Y-125464764D01*
X174873801Y-125464764D02*
X174949991Y-125464764D01*
X174949991Y-125464764D02*
X175026182Y-125502859D01*
X175026182Y-125502859D02*
X175064277Y-125540954D01*
X175064277Y-125540954D02*
X175102372Y-125617145D01*
X175102372Y-125617145D02*
X175140467Y-125769526D01*
X175140467Y-125769526D02*
X175140467Y-125960002D01*
X175140467Y-125960002D02*
X175102372Y-126112383D01*
X175102372Y-126112383D02*
X175064277Y-126188573D01*
X175064277Y-126188573D02*
X175026182Y-126226669D01*
X175026182Y-126226669D02*
X174949991Y-126264764D01*
X174949991Y-126264764D02*
X174873801Y-126264764D01*
X174873801Y-126264764D02*
X174797610Y-126226669D01*
X174797610Y-126226669D02*
X174759515Y-126188573D01*
X174759515Y-126188573D02*
X174721420Y-126112383D01*
X174721420Y-126112383D02*
X174683324Y-125960002D01*
X174683324Y-125960002D02*
X174683324Y-125769526D01*
X174683324Y-125769526D02*
X174721420Y-125617145D01*
X174721420Y-125617145D02*
X174759515Y-125540954D01*
X174759515Y-125540954D02*
X174797610Y-125502859D01*
X174797610Y-125502859D02*
X174873801Y-125464764D01*
X175826182Y-125464764D02*
X175673801Y-125464764D01*
X175673801Y-125464764D02*
X175597610Y-125502859D01*
X175597610Y-125502859D02*
X175559515Y-125540954D01*
X175559515Y-125540954D02*
X175483325Y-125655240D01*
X175483325Y-125655240D02*
X175445229Y-125807621D01*
X175445229Y-125807621D02*
X175445229Y-126112383D01*
X175445229Y-126112383D02*
X175483325Y-126188573D01*
X175483325Y-126188573D02*
X175521420Y-126226669D01*
X175521420Y-126226669D02*
X175597610Y-126264764D01*
X175597610Y-126264764D02*
X175749991Y-126264764D01*
X175749991Y-126264764D02*
X175826182Y-126226669D01*
X175826182Y-126226669D02*
X175864277Y-126188573D01*
X175864277Y-126188573D02*
X175902372Y-126112383D01*
X175902372Y-126112383D02*
X175902372Y-125921907D01*
X175902372Y-125921907D02*
X175864277Y-125845716D01*
X175864277Y-125845716D02*
X175826182Y-125807621D01*
X175826182Y-125807621D02*
X175749991Y-125769526D01*
X175749991Y-125769526D02*
X175597610Y-125769526D01*
X175597610Y-125769526D02*
X175521420Y-125807621D01*
X175521420Y-125807621D02*
X175483325Y-125845716D01*
X175483325Y-125845716D02*
X175445229Y-125921907D01*
D11*
X164084993Y-153012796D02*
X164084993Y-154012796D01*
X164084993Y-153155653D02*
X164156422Y-153084225D01*
X164156422Y-153084225D02*
X164299279Y-153012796D01*
X164299279Y-153012796D02*
X164513565Y-153012796D01*
X164513565Y-153012796D02*
X164656422Y-153084225D01*
X164656422Y-153084225D02*
X164727851Y-153227082D01*
X164727851Y-153227082D02*
X164727851Y-154012796D01*
X165442136Y-154012796D02*
X165442136Y-153012796D01*
X165442136Y-152512796D02*
X165370708Y-152584225D01*
X165370708Y-152584225D02*
X165442136Y-152655653D01*
X165442136Y-152655653D02*
X165513565Y-152584225D01*
X165513565Y-152584225D02*
X165442136Y-152512796D01*
X165442136Y-152512796D02*
X165442136Y-152655653D01*
X166799280Y-153941368D02*
X166656422Y-154012796D01*
X166656422Y-154012796D02*
X166370708Y-154012796D01*
X166370708Y-154012796D02*
X166227851Y-153941368D01*
X166227851Y-153941368D02*
X166156422Y-153869939D01*
X166156422Y-153869939D02*
X166084994Y-153727082D01*
X166084994Y-153727082D02*
X166084994Y-153298510D01*
X166084994Y-153298510D02*
X166156422Y-153155653D01*
X166156422Y-153155653D02*
X166227851Y-153084225D01*
X166227851Y-153084225D02*
X166370708Y-153012796D01*
X166370708Y-153012796D02*
X166656422Y-153012796D01*
X166656422Y-153012796D02*
X166799280Y-153084225D01*
X168013565Y-153941368D02*
X167870708Y-154012796D01*
X167870708Y-154012796D02*
X167584994Y-154012796D01*
X167584994Y-154012796D02*
X167442136Y-153941368D01*
X167442136Y-153941368D02*
X167370708Y-153798510D01*
X167370708Y-153798510D02*
X167370708Y-153227082D01*
X167370708Y-153227082D02*
X167442136Y-153084225D01*
X167442136Y-153084225D02*
X167584994Y-153012796D01*
X167584994Y-153012796D02*
X167870708Y-153012796D01*
X167870708Y-153012796D02*
X168013565Y-153084225D01*
X168013565Y-153084225D02*
X168084994Y-153227082D01*
X168084994Y-153227082D02*
X168084994Y-153369939D01*
X168084994Y-153369939D02*
X167370708Y-153512796D01*
X168727850Y-153869939D02*
X168799279Y-153941368D01*
X168799279Y-153941368D02*
X168727850Y-154012796D01*
X168727850Y-154012796D02*
X168656422Y-153941368D01*
X168656422Y-153941368D02*
X168727850Y-153869939D01*
X168727850Y-153869939D02*
X168727850Y-154012796D01*
X168727850Y-153441368D02*
X168656422Y-152584225D01*
X168656422Y-152584225D02*
X168727850Y-152512796D01*
X168727850Y-152512796D02*
X168799279Y-152584225D01*
X168799279Y-152584225D02*
X168727850Y-153441368D01*
X168727850Y-153441368D02*
X168727850Y-152512796D01*
X169442136Y-153012796D02*
X169442136Y-154012796D01*
X169442136Y-153155653D02*
X169513565Y-153084225D01*
X169513565Y-153084225D02*
X169656422Y-153012796D01*
X169656422Y-153012796D02*
X169870708Y-153012796D01*
X169870708Y-153012796D02*
X170013565Y-153084225D01*
X170013565Y-153084225D02*
X170084994Y-153227082D01*
X170084994Y-153227082D02*
X170084994Y-154012796D01*
X171442137Y-154012796D02*
X171442137Y-153227082D01*
X171442137Y-153227082D02*
X171370708Y-153084225D01*
X171370708Y-153084225D02*
X171227851Y-153012796D01*
X171227851Y-153012796D02*
X170942137Y-153012796D01*
X170942137Y-153012796D02*
X170799279Y-153084225D01*
X171442137Y-153941368D02*
X171299279Y-154012796D01*
X171299279Y-154012796D02*
X170942137Y-154012796D01*
X170942137Y-154012796D02*
X170799279Y-153941368D01*
X170799279Y-153941368D02*
X170727851Y-153798510D01*
X170727851Y-153798510D02*
X170727851Y-153655653D01*
X170727851Y-153655653D02*
X170799279Y-153512796D01*
X170799279Y-153512796D02*
X170942137Y-153441368D01*
X170942137Y-153441368D02*
X171299279Y-153441368D01*
X171299279Y-153441368D02*
X171442137Y-153369939D01*
X172156422Y-153012796D02*
X172156422Y-154012796D01*
X172156422Y-153155653D02*
X172227851Y-153084225D01*
X172227851Y-153084225D02*
X172370708Y-153012796D01*
X172370708Y-153012796D02*
X172584994Y-153012796D01*
X172584994Y-153012796D02*
X172727851Y-153084225D01*
X172727851Y-153084225D02*
X172799280Y-153227082D01*
X172799280Y-153227082D02*
X172799280Y-154012796D01*
X173727851Y-154012796D02*
X173584994Y-153941368D01*
X173584994Y-153941368D02*
X173513565Y-153869939D01*
X173513565Y-153869939D02*
X173442137Y-153727082D01*
X173442137Y-153727082D02*
X173442137Y-153298510D01*
X173442137Y-153298510D02*
X173513565Y-153155653D01*
X173513565Y-153155653D02*
X173584994Y-153084225D01*
X173584994Y-153084225D02*
X173727851Y-153012796D01*
X173727851Y-153012796D02*
X173942137Y-153012796D01*
X173942137Y-153012796D02*
X174084994Y-153084225D01*
X174084994Y-153084225D02*
X174156423Y-153155653D01*
X174156423Y-153155653D02*
X174227851Y-153298510D01*
X174227851Y-153298510D02*
X174227851Y-153727082D01*
X174227851Y-153727082D02*
X174156423Y-153869939D01*
X174156423Y-153869939D02*
X174084994Y-153941368D01*
X174084994Y-153941368D02*
X173942137Y-154012796D01*
X173942137Y-154012796D02*
X173727851Y-154012796D01*
D12*
X163304174Y-146584765D02*
X162847031Y-146584765D01*
X163075603Y-146584765D02*
X163075603Y-145784765D01*
X163075603Y-145784765D02*
X162999412Y-145899050D01*
X162999412Y-145899050D02*
X162923222Y-145975241D01*
X162923222Y-145975241D02*
X162847031Y-146013336D01*
X164066079Y-146584765D02*
X163608936Y-146584765D01*
X163837508Y-146584765D02*
X163837508Y-145784765D01*
X163837508Y-145784765D02*
X163761317Y-145899050D01*
X163761317Y-145899050D02*
X163685127Y-145975241D01*
X163685127Y-145975241D02*
X163608936Y-146013336D01*
X164332746Y-145784765D02*
X164827984Y-145784765D01*
X164827984Y-145784765D02*
X164561318Y-146089527D01*
X164561318Y-146089527D02*
X164675603Y-146089527D01*
X164675603Y-146089527D02*
X164751794Y-146127622D01*
X164751794Y-146127622D02*
X164789889Y-146165717D01*
X164789889Y-146165717D02*
X164827984Y-146241908D01*
X164827984Y-146241908D02*
X164827984Y-146432384D01*
X164827984Y-146432384D02*
X164789889Y-146508574D01*
X164789889Y-146508574D02*
X164751794Y-146546670D01*
X164751794Y-146546670D02*
X164675603Y-146584765D01*
X164675603Y-146584765D02*
X164447032Y-146584765D01*
X164447032Y-146584765D02*
X164370841Y-146546670D01*
X164370841Y-146546670D02*
X164332746Y-146508574D01*
X163037517Y-140704764D02*
X163113707Y-140704764D01*
X163113707Y-140704764D02*
X163189898Y-140742859D01*
X163189898Y-140742859D02*
X163227993Y-140780954D01*
X163227993Y-140780954D02*
X163266088Y-140857145D01*
X163266088Y-140857145D02*
X163304183Y-141009526D01*
X163304183Y-141009526D02*
X163304183Y-141200002D01*
X163304183Y-141200002D02*
X163266088Y-141352383D01*
X163266088Y-141352383D02*
X163227993Y-141428573D01*
X163227993Y-141428573D02*
X163189898Y-141466669D01*
X163189898Y-141466669D02*
X163113707Y-141504764D01*
X163113707Y-141504764D02*
X163037517Y-141504764D01*
X163037517Y-141504764D02*
X162961326Y-141466669D01*
X162961326Y-141466669D02*
X162923231Y-141428573D01*
X162923231Y-141428573D02*
X162885136Y-141352383D01*
X162885136Y-141352383D02*
X162847040Y-141200002D01*
X162847040Y-141200002D02*
X162847040Y-141009526D01*
X162847040Y-141009526D02*
X162885136Y-140857145D01*
X162885136Y-140857145D02*
X162923231Y-140780954D01*
X162923231Y-140780954D02*
X162961326Y-140742859D01*
X162961326Y-140742859D02*
X163037517Y-140704764D01*
X163799422Y-140704764D02*
X163875612Y-140704764D01*
X163875612Y-140704764D02*
X163951803Y-140742859D01*
X163951803Y-140742859D02*
X163989898Y-140780954D01*
X163989898Y-140780954D02*
X164027993Y-140857145D01*
X164027993Y-140857145D02*
X164066088Y-141009526D01*
X164066088Y-141009526D02*
X164066088Y-141200002D01*
X164066088Y-141200002D02*
X164027993Y-141352383D01*
X164027993Y-141352383D02*
X163989898Y-141428573D01*
X163989898Y-141428573D02*
X163951803Y-141466669D01*
X163951803Y-141466669D02*
X163875612Y-141504764D01*
X163875612Y-141504764D02*
X163799422Y-141504764D01*
X163799422Y-141504764D02*
X163723231Y-141466669D01*
X163723231Y-141466669D02*
X163685136Y-141428573D01*
X163685136Y-141428573D02*
X163647041Y-141352383D01*
X163647041Y-141352383D02*
X163608945Y-141200002D01*
X163608945Y-141200002D02*
X163608945Y-141009526D01*
X163608945Y-141009526D02*
X163647041Y-140857145D01*
X163647041Y-140857145D02*
X163685136Y-140780954D01*
X163685136Y-140780954D02*
X163723231Y-140742859D01*
X163723231Y-140742859D02*
X163799422Y-140704764D01*
X164370850Y-140780954D02*
X164408946Y-140742859D01*
X164408946Y-140742859D02*
X164485136Y-140704764D01*
X164485136Y-140704764D02*
X164675612Y-140704764D01*
X164675612Y-140704764D02*
X164751803Y-140742859D01*
X164751803Y-140742859D02*
X164789898Y-140780954D01*
X164789898Y-140780954D02*
X164827993Y-140857145D01*
X164827993Y-140857145D02*
X164827993Y-140933335D01*
X164827993Y-140933335D02*
X164789898Y-141047621D01*
X164789898Y-141047621D02*
X164332755Y-141504764D01*
X164332755Y-141504764D02*
X164827993Y-141504764D01*
X163348613Y-131344764D02*
X163081946Y-130963811D01*
X162891470Y-131344764D02*
X162891470Y-130544764D01*
X162891470Y-130544764D02*
X163196232Y-130544764D01*
X163196232Y-130544764D02*
X163272422Y-130582859D01*
X163272422Y-130582859D02*
X163310517Y-130620954D01*
X163310517Y-130620954D02*
X163348613Y-130697145D01*
X163348613Y-130697145D02*
X163348613Y-130811430D01*
X163348613Y-130811430D02*
X163310517Y-130887621D01*
X163310517Y-130887621D02*
X163272422Y-130925716D01*
X163272422Y-130925716D02*
X163196232Y-130963811D01*
X163196232Y-130963811D02*
X162891470Y-130963811D01*
X163653374Y-131306669D02*
X163767660Y-131344764D01*
X163767660Y-131344764D02*
X163958136Y-131344764D01*
X163958136Y-131344764D02*
X164034327Y-131306669D01*
X164034327Y-131306669D02*
X164072422Y-131268573D01*
X164072422Y-131268573D02*
X164110517Y-131192383D01*
X164110517Y-131192383D02*
X164110517Y-131116192D01*
X164110517Y-131116192D02*
X164072422Y-131040002D01*
X164072422Y-131040002D02*
X164034327Y-131001907D01*
X164034327Y-131001907D02*
X163958136Y-130963811D01*
X163958136Y-130963811D02*
X163805755Y-130925716D01*
X163805755Y-130925716D02*
X163729565Y-130887621D01*
X163729565Y-130887621D02*
X163691470Y-130849526D01*
X163691470Y-130849526D02*
X163653374Y-130773335D01*
X163653374Y-130773335D02*
X163653374Y-130697145D01*
X163653374Y-130697145D02*
X163691470Y-130620954D01*
X163691470Y-130620954D02*
X163729565Y-130582859D01*
X163729565Y-130582859D02*
X163805755Y-130544764D01*
X163805755Y-130544764D02*
X163996232Y-130544764D01*
X163996232Y-130544764D02*
X164110517Y-130582859D01*
X164339089Y-130544764D02*
X164796232Y-130544764D01*
X164567660Y-131344764D02*
X164567660Y-130544764D01*
X174111897Y-127934764D02*
X174188087Y-127934764D01*
X174188087Y-127934764D02*
X174264278Y-127972859D01*
X174264278Y-127972859D02*
X174302373Y-128010954D01*
X174302373Y-128010954D02*
X174340468Y-128087145D01*
X174340468Y-128087145D02*
X174378563Y-128239526D01*
X174378563Y-128239526D02*
X174378563Y-128430002D01*
X174378563Y-128430002D02*
X174340468Y-128582383D01*
X174340468Y-128582383D02*
X174302373Y-128658573D01*
X174302373Y-128658573D02*
X174264278Y-128696669D01*
X174264278Y-128696669D02*
X174188087Y-128734764D01*
X174188087Y-128734764D02*
X174111897Y-128734764D01*
X174111897Y-128734764D02*
X174035706Y-128696669D01*
X174035706Y-128696669D02*
X173997611Y-128658573D01*
X173997611Y-128658573D02*
X173959516Y-128582383D01*
X173959516Y-128582383D02*
X173921420Y-128430002D01*
X173921420Y-128430002D02*
X173921420Y-128239526D01*
X173921420Y-128239526D02*
X173959516Y-128087145D01*
X173959516Y-128087145D02*
X173997611Y-128010954D01*
X173997611Y-128010954D02*
X174035706Y-127972859D01*
X174035706Y-127972859D02*
X174111897Y-127934764D01*
X174873802Y-127934764D02*
X174949992Y-127934764D01*
X174949992Y-127934764D02*
X175026183Y-127972859D01*
X175026183Y-127972859D02*
X175064278Y-128010954D01*
X175064278Y-128010954D02*
X175102373Y-128087145D01*
X175102373Y-128087145D02*
X175140468Y-128239526D01*
X175140468Y-128239526D02*
X175140468Y-128430002D01*
X175140468Y-128430002D02*
X175102373Y-128582383D01*
X175102373Y-128582383D02*
X175064278Y-128658573D01*
X175064278Y-128658573D02*
X175026183Y-128696669D01*
X175026183Y-128696669D02*
X174949992Y-128734764D01*
X174949992Y-128734764D02*
X174873802Y-128734764D01*
X174873802Y-128734764D02*
X174797611Y-128696669D01*
X174797611Y-128696669D02*
X174759516Y-128658573D01*
X174759516Y-128658573D02*
X174721421Y-128582383D01*
X174721421Y-128582383D02*
X174683325Y-128430002D01*
X174683325Y-128430002D02*
X174683325Y-128239526D01*
X174683325Y-128239526D02*
X174721421Y-128087145D01*
X174721421Y-128087145D02*
X174759516Y-128010954D01*
X174759516Y-128010954D02*
X174797611Y-127972859D01*
X174797611Y-127972859D02*
X174873802Y-127934764D01*
X175597611Y-128277621D02*
X175521421Y-128239526D01*
X175521421Y-128239526D02*
X175483326Y-128201430D01*
X175483326Y-128201430D02*
X175445230Y-128125240D01*
X175445230Y-128125240D02*
X175445230Y-128087145D01*
X175445230Y-128087145D02*
X175483326Y-128010954D01*
X175483326Y-128010954D02*
X175521421Y-127972859D01*
X175521421Y-127972859D02*
X175597611Y-127934764D01*
X175597611Y-127934764D02*
X175749992Y-127934764D01*
X175749992Y-127934764D02*
X175826183Y-127972859D01*
X175826183Y-127972859D02*
X175864278Y-128010954D01*
X175864278Y-128010954D02*
X175902373Y-128087145D01*
X175902373Y-128087145D02*
X175902373Y-128125240D01*
X175902373Y-128125240D02*
X175864278Y-128201430D01*
X175864278Y-128201430D02*
X175826183Y-128239526D01*
X175826183Y-128239526D02*
X175749992Y-128277621D01*
X175749992Y-128277621D02*
X175597611Y-128277621D01*
X175597611Y-128277621D02*
X175521421Y-128315716D01*
X175521421Y-128315716D02*
X175483326Y-128353811D01*
X175483326Y-128353811D02*
X175445230Y-128430002D01*
X175445230Y-128430002D02*
X175445230Y-128582383D01*
X175445230Y-128582383D02*
X175483326Y-128658573D01*
X175483326Y-128658573D02*
X175521421Y-128696669D01*
X175521421Y-128696669D02*
X175597611Y-128734764D01*
X175597611Y-128734764D02*
X175749992Y-128734764D01*
X175749992Y-128734764D02*
X175826183Y-128696669D01*
X175826183Y-128696669D02*
X175864278Y-128658573D01*
X175864278Y-128658573D02*
X175902373Y-128582383D01*
X175902373Y-128582383D02*
X175902373Y-128430002D01*
X175902373Y-128430002D02*
X175864278Y-128353811D01*
X175864278Y-128353811D02*
X175826183Y-128315716D01*
X175826183Y-128315716D02*
X175749992Y-128277621D01*
X163310517Y-128042859D02*
X163234327Y-128004764D01*
X163234327Y-128004764D02*
X163120041Y-128004764D01*
X163120041Y-128004764D02*
X163005755Y-128042859D01*
X163005755Y-128042859D02*
X162929565Y-128119049D01*
X162929565Y-128119049D02*
X162891470Y-128195240D01*
X162891470Y-128195240D02*
X162853374Y-128347621D01*
X162853374Y-128347621D02*
X162853374Y-128461907D01*
X162853374Y-128461907D02*
X162891470Y-128614288D01*
X162891470Y-128614288D02*
X162929565Y-128690478D01*
X162929565Y-128690478D02*
X163005755Y-128766669D01*
X163005755Y-128766669D02*
X163120041Y-128804764D01*
X163120041Y-128804764D02*
X163196232Y-128804764D01*
X163196232Y-128804764D02*
X163310517Y-128766669D01*
X163310517Y-128766669D02*
X163348613Y-128728573D01*
X163348613Y-128728573D02*
X163348613Y-128461907D01*
X163348613Y-128461907D02*
X163196232Y-128461907D01*
X163691470Y-128804764D02*
X163691470Y-128004764D01*
X163691470Y-128004764D02*
X164148613Y-128804764D01*
X164148613Y-128804764D02*
X164148613Y-128004764D01*
X164529565Y-128804764D02*
X164529565Y-128004764D01*
X164529565Y-128004764D02*
X164720041Y-128004764D01*
X164720041Y-128004764D02*
X164834327Y-128042859D01*
X164834327Y-128042859D02*
X164910517Y-128119049D01*
X164910517Y-128119049D02*
X164948612Y-128195240D01*
X164948612Y-128195240D02*
X164986708Y-128347621D01*
X164986708Y-128347621D02*
X164986708Y-128461907D01*
X164986708Y-128461907D02*
X164948612Y-128614288D01*
X164948612Y-128614288D02*
X164910517Y-128690478D01*
X164910517Y-128690478D02*
X164834327Y-128766669D01*
X164834327Y-128766669D02*
X164720041Y-128804764D01*
X164720041Y-128804764D02*
X164529565Y-128804764D01*
X174111897Y-140734764D02*
X174188087Y-140734764D01*
X174188087Y-140734764D02*
X174264278Y-140772859D01*
X174264278Y-140772859D02*
X174302373Y-140810954D01*
X174302373Y-140810954D02*
X174340468Y-140887145D01*
X174340468Y-140887145D02*
X174378563Y-141039526D01*
X174378563Y-141039526D02*
X174378563Y-141230002D01*
X174378563Y-141230002D02*
X174340468Y-141382383D01*
X174340468Y-141382383D02*
X174302373Y-141458573D01*
X174302373Y-141458573D02*
X174264278Y-141496669D01*
X174264278Y-141496669D02*
X174188087Y-141534764D01*
X174188087Y-141534764D02*
X174111897Y-141534764D01*
X174111897Y-141534764D02*
X174035706Y-141496669D01*
X174035706Y-141496669D02*
X173997611Y-141458573D01*
X173997611Y-141458573D02*
X173959516Y-141382383D01*
X173959516Y-141382383D02*
X173921420Y-141230002D01*
X173921420Y-141230002D02*
X173921420Y-141039526D01*
X173921420Y-141039526D02*
X173959516Y-140887145D01*
X173959516Y-140887145D02*
X173997611Y-140810954D01*
X173997611Y-140810954D02*
X174035706Y-140772859D01*
X174035706Y-140772859D02*
X174111897Y-140734764D01*
X174683325Y-140810954D02*
X174721421Y-140772859D01*
X174721421Y-140772859D02*
X174797611Y-140734764D01*
X174797611Y-140734764D02*
X174988087Y-140734764D01*
X174988087Y-140734764D02*
X175064278Y-140772859D01*
X175064278Y-140772859D02*
X175102373Y-140810954D01*
X175102373Y-140810954D02*
X175140468Y-140887145D01*
X175140468Y-140887145D02*
X175140468Y-140963335D01*
X175140468Y-140963335D02*
X175102373Y-141077621D01*
X175102373Y-141077621D02*
X174645230Y-141534764D01*
X174645230Y-141534764D02*
X175140468Y-141534764D01*
X175445230Y-140810954D02*
X175483326Y-140772859D01*
X175483326Y-140772859D02*
X175559516Y-140734764D01*
X175559516Y-140734764D02*
X175749992Y-140734764D01*
X175749992Y-140734764D02*
X175826183Y-140772859D01*
X175826183Y-140772859D02*
X175864278Y-140810954D01*
X175864278Y-140810954D02*
X175902373Y-140887145D01*
X175902373Y-140887145D02*
X175902373Y-140963335D01*
X175902373Y-140963335D02*
X175864278Y-141077621D01*
X175864278Y-141077621D02*
X175407135Y-141534764D01*
X175407135Y-141534764D02*
X175902373Y-141534764D01*
X174111898Y-138234764D02*
X174188088Y-138234764D01*
X174188088Y-138234764D02*
X174264279Y-138272859D01*
X174264279Y-138272859D02*
X174302374Y-138310954D01*
X174302374Y-138310954D02*
X174340469Y-138387145D01*
X174340469Y-138387145D02*
X174378564Y-138539526D01*
X174378564Y-138539526D02*
X174378564Y-138730002D01*
X174378564Y-138730002D02*
X174340469Y-138882383D01*
X174340469Y-138882383D02*
X174302374Y-138958573D01*
X174302374Y-138958573D02*
X174264279Y-138996669D01*
X174264279Y-138996669D02*
X174188088Y-139034764D01*
X174188088Y-139034764D02*
X174111898Y-139034764D01*
X174111898Y-139034764D02*
X174035707Y-138996669D01*
X174035707Y-138996669D02*
X173997612Y-138958573D01*
X173997612Y-138958573D02*
X173959517Y-138882383D01*
X173959517Y-138882383D02*
X173921421Y-138730002D01*
X173921421Y-138730002D02*
X173921421Y-138539526D01*
X173921421Y-138539526D02*
X173959517Y-138387145D01*
X173959517Y-138387145D02*
X173997612Y-138310954D01*
X173997612Y-138310954D02*
X174035707Y-138272859D01*
X174035707Y-138272859D02*
X174111898Y-138234764D01*
X174683326Y-138310954D02*
X174721422Y-138272859D01*
X174721422Y-138272859D02*
X174797612Y-138234764D01*
X174797612Y-138234764D02*
X174988088Y-138234764D01*
X174988088Y-138234764D02*
X175064279Y-138272859D01*
X175064279Y-138272859D02*
X175102374Y-138310954D01*
X175102374Y-138310954D02*
X175140469Y-138387145D01*
X175140469Y-138387145D02*
X175140469Y-138463335D01*
X175140469Y-138463335D02*
X175102374Y-138577621D01*
X175102374Y-138577621D02*
X174645231Y-139034764D01*
X174645231Y-139034764D02*
X175140469Y-139034764D01*
X175635708Y-138234764D02*
X175711898Y-138234764D01*
X175711898Y-138234764D02*
X175788089Y-138272859D01*
X175788089Y-138272859D02*
X175826184Y-138310954D01*
X175826184Y-138310954D02*
X175864279Y-138387145D01*
X175864279Y-138387145D02*
X175902374Y-138539526D01*
X175902374Y-138539526D02*
X175902374Y-138730002D01*
X175902374Y-138730002D02*
X175864279Y-138882383D01*
X175864279Y-138882383D02*
X175826184Y-138958573D01*
X175826184Y-138958573D02*
X175788089Y-138996669D01*
X175788089Y-138996669D02*
X175711898Y-139034764D01*
X175711898Y-139034764D02*
X175635708Y-139034764D01*
X175635708Y-139034764D02*
X175559517Y-138996669D01*
X175559517Y-138996669D02*
X175521422Y-138958573D01*
X175521422Y-138958573D02*
X175483327Y-138882383D01*
X175483327Y-138882383D02*
X175445231Y-138730002D01*
X175445231Y-138730002D02*
X175445231Y-138539526D01*
X175445231Y-138539526D02*
X175483327Y-138387145D01*
X175483327Y-138387145D02*
X175521422Y-138310954D01*
X175521422Y-138310954D02*
X175559517Y-138272859D01*
X175559517Y-138272859D02*
X175635708Y-138234764D01*
X162770844Y-133084766D02*
X163037511Y-133884766D01*
X163037511Y-133884766D02*
X163304177Y-133084766D01*
X164027987Y-133808575D02*
X163989891Y-133846671D01*
X163989891Y-133846671D02*
X163875606Y-133884766D01*
X163875606Y-133884766D02*
X163799415Y-133884766D01*
X163799415Y-133884766D02*
X163685129Y-133846671D01*
X163685129Y-133846671D02*
X163608939Y-133770480D01*
X163608939Y-133770480D02*
X163570844Y-133694290D01*
X163570844Y-133694290D02*
X163532748Y-133541909D01*
X163532748Y-133541909D02*
X163532748Y-133427623D01*
X163532748Y-133427623D02*
X163570844Y-133275242D01*
X163570844Y-133275242D02*
X163608939Y-133199051D01*
X163608939Y-133199051D02*
X163685129Y-133122861D01*
X163685129Y-133122861D02*
X163799415Y-133084766D01*
X163799415Y-133084766D02*
X163875606Y-133084766D01*
X163875606Y-133084766D02*
X163989891Y-133122861D01*
X163989891Y-133122861D02*
X164027987Y-133160956D01*
X164827987Y-133808575D02*
X164789891Y-133846671D01*
X164789891Y-133846671D02*
X164675606Y-133884766D01*
X164675606Y-133884766D02*
X164599415Y-133884766D01*
X164599415Y-133884766D02*
X164485129Y-133846671D01*
X164485129Y-133846671D02*
X164408939Y-133770480D01*
X164408939Y-133770480D02*
X164370844Y-133694290D01*
X164370844Y-133694290D02*
X164332748Y-133541909D01*
X164332748Y-133541909D02*
X164332748Y-133427623D01*
X164332748Y-133427623D02*
X164370844Y-133275242D01*
X164370844Y-133275242D02*
X164408939Y-133199051D01*
X164408939Y-133199051D02*
X164485129Y-133122861D01*
X164485129Y-133122861D02*
X164599415Y-133084766D01*
X164599415Y-133084766D02*
X164675606Y-133084766D01*
X164675606Y-133084766D02*
X164789891Y-133122861D01*
X164789891Y-133122861D02*
X164827987Y-133160956D01*
X163037517Y-138164763D02*
X163113707Y-138164763D01*
X163113707Y-138164763D02*
X163189898Y-138202858D01*
X163189898Y-138202858D02*
X163227993Y-138240953D01*
X163227993Y-138240953D02*
X163266088Y-138317144D01*
X163266088Y-138317144D02*
X163304183Y-138469525D01*
X163304183Y-138469525D02*
X163304183Y-138660001D01*
X163304183Y-138660001D02*
X163266088Y-138812382D01*
X163266088Y-138812382D02*
X163227993Y-138888572D01*
X163227993Y-138888572D02*
X163189898Y-138926668D01*
X163189898Y-138926668D02*
X163113707Y-138964763D01*
X163113707Y-138964763D02*
X163037517Y-138964763D01*
X163037517Y-138964763D02*
X162961326Y-138926668D01*
X162961326Y-138926668D02*
X162923231Y-138888572D01*
X162923231Y-138888572D02*
X162885136Y-138812382D01*
X162885136Y-138812382D02*
X162847040Y-138660001D01*
X162847040Y-138660001D02*
X162847040Y-138469525D01*
X162847040Y-138469525D02*
X162885136Y-138317144D01*
X162885136Y-138317144D02*
X162923231Y-138240953D01*
X162923231Y-138240953D02*
X162961326Y-138202858D01*
X162961326Y-138202858D02*
X163037517Y-138164763D01*
X163608945Y-138240953D02*
X163647041Y-138202858D01*
X163647041Y-138202858D02*
X163723231Y-138164763D01*
X163723231Y-138164763D02*
X163913707Y-138164763D01*
X163913707Y-138164763D02*
X163989898Y-138202858D01*
X163989898Y-138202858D02*
X164027993Y-138240953D01*
X164027993Y-138240953D02*
X164066088Y-138317144D01*
X164066088Y-138317144D02*
X164066088Y-138393334D01*
X164066088Y-138393334D02*
X164027993Y-138507620D01*
X164027993Y-138507620D02*
X163570850Y-138964763D01*
X163570850Y-138964763D02*
X164066088Y-138964763D01*
X164447041Y-138964763D02*
X164599422Y-138964763D01*
X164599422Y-138964763D02*
X164675612Y-138926668D01*
X164675612Y-138926668D02*
X164713708Y-138888572D01*
X164713708Y-138888572D02*
X164789898Y-138774287D01*
X164789898Y-138774287D02*
X164827993Y-138621906D01*
X164827993Y-138621906D02*
X164827993Y-138317144D01*
X164827993Y-138317144D02*
X164789898Y-138240953D01*
X164789898Y-138240953D02*
X164751803Y-138202858D01*
X164751803Y-138202858D02*
X164675612Y-138164763D01*
X164675612Y-138164763D02*
X164523231Y-138164763D01*
X164523231Y-138164763D02*
X164447041Y-138202858D01*
X164447041Y-138202858D02*
X164408946Y-138240953D01*
X164408946Y-138240953D02*
X164370850Y-138317144D01*
X164370850Y-138317144D02*
X164370850Y-138507620D01*
X164370850Y-138507620D02*
X164408946Y-138583810D01*
X164408946Y-138583810D02*
X164447041Y-138621906D01*
X164447041Y-138621906D02*
X164523231Y-138660001D01*
X164523231Y-138660001D02*
X164675612Y-138660001D01*
X164675612Y-138660001D02*
X164751803Y-138621906D01*
X164751803Y-138621906D02*
X164789898Y-138583810D01*
X164789898Y-138583810D02*
X164827993Y-138507620D01*
X174378572Y-146584764D02*
X173921429Y-146584764D01*
X174150001Y-146584764D02*
X174150001Y-145784764D01*
X174150001Y-145784764D02*
X174073810Y-145899049D01*
X174073810Y-145899049D02*
X173997620Y-145975240D01*
X173997620Y-145975240D02*
X173921429Y-146013335D01*
X174873811Y-145784764D02*
X174950001Y-145784764D01*
X174950001Y-145784764D02*
X175026192Y-145822859D01*
X175026192Y-145822859D02*
X175064287Y-145860954D01*
X175064287Y-145860954D02*
X175102382Y-145937145D01*
X175102382Y-145937145D02*
X175140477Y-146089526D01*
X175140477Y-146089526D02*
X175140477Y-146280002D01*
X175140477Y-146280002D02*
X175102382Y-146432383D01*
X175102382Y-146432383D02*
X175064287Y-146508573D01*
X175064287Y-146508573D02*
X175026192Y-146546669D01*
X175026192Y-146546669D02*
X174950001Y-146584764D01*
X174950001Y-146584764D02*
X174873811Y-146584764D01*
X174873811Y-146584764D02*
X174797620Y-146546669D01*
X174797620Y-146546669D02*
X174759525Y-146508573D01*
X174759525Y-146508573D02*
X174721430Y-146432383D01*
X174721430Y-146432383D02*
X174683334Y-146280002D01*
X174683334Y-146280002D02*
X174683334Y-146089526D01*
X174683334Y-146089526D02*
X174721430Y-145937145D01*
X174721430Y-145937145D02*
X174759525Y-145860954D01*
X174759525Y-145860954D02*
X174797620Y-145822859D01*
X174797620Y-145822859D02*
X174873811Y-145784764D01*
X175635716Y-145784764D02*
X175711906Y-145784764D01*
X175711906Y-145784764D02*
X175788097Y-145822859D01*
X175788097Y-145822859D02*
X175826192Y-145860954D01*
X175826192Y-145860954D02*
X175864287Y-145937145D01*
X175864287Y-145937145D02*
X175902382Y-146089526D01*
X175902382Y-146089526D02*
X175902382Y-146280002D01*
X175902382Y-146280002D02*
X175864287Y-146432383D01*
X175864287Y-146432383D02*
X175826192Y-146508573D01*
X175826192Y-146508573D02*
X175788097Y-146546669D01*
X175788097Y-146546669D02*
X175711906Y-146584764D01*
X175711906Y-146584764D02*
X175635716Y-146584764D01*
X175635716Y-146584764D02*
X175559525Y-146546669D01*
X175559525Y-146546669D02*
X175521430Y-146508573D01*
X175521430Y-146508573D02*
X175483335Y-146432383D01*
X175483335Y-146432383D02*
X175445239Y-146280002D01*
X175445239Y-146280002D02*
X175445239Y-146089526D01*
X175445239Y-146089526D02*
X175483335Y-145937145D01*
X175483335Y-145937145D02*
X175521430Y-145860954D01*
X175521430Y-145860954D02*
X175559525Y-145822859D01*
X175559525Y-145822859D02*
X175635716Y-145784764D01*
X163037517Y-150864764D02*
X163113707Y-150864764D01*
X163113707Y-150864764D02*
X163189898Y-150902859D01*
X163189898Y-150902859D02*
X163227993Y-150940954D01*
X163227993Y-150940954D02*
X163266088Y-151017145D01*
X163266088Y-151017145D02*
X163304183Y-151169526D01*
X163304183Y-151169526D02*
X163304183Y-151360002D01*
X163304183Y-151360002D02*
X163266088Y-151512383D01*
X163266088Y-151512383D02*
X163227993Y-151588573D01*
X163227993Y-151588573D02*
X163189898Y-151626669D01*
X163189898Y-151626669D02*
X163113707Y-151664764D01*
X163113707Y-151664764D02*
X163037517Y-151664764D01*
X163037517Y-151664764D02*
X162961326Y-151626669D01*
X162961326Y-151626669D02*
X162923231Y-151588573D01*
X162923231Y-151588573D02*
X162885136Y-151512383D01*
X162885136Y-151512383D02*
X162847040Y-151360002D01*
X162847040Y-151360002D02*
X162847040Y-151169526D01*
X162847040Y-151169526D02*
X162885136Y-151017145D01*
X162885136Y-151017145D02*
X162923231Y-150940954D01*
X162923231Y-150940954D02*
X162961326Y-150902859D01*
X162961326Y-150902859D02*
X163037517Y-150864764D01*
X164066088Y-151664764D02*
X163608945Y-151664764D01*
X163837517Y-151664764D02*
X163837517Y-150864764D01*
X163837517Y-150864764D02*
X163761326Y-150979049D01*
X163761326Y-150979049D02*
X163685136Y-151055240D01*
X163685136Y-151055240D02*
X163608945Y-151093335D01*
X164561327Y-150864764D02*
X164637517Y-150864764D01*
X164637517Y-150864764D02*
X164713708Y-150902859D01*
X164713708Y-150902859D02*
X164751803Y-150940954D01*
X164751803Y-150940954D02*
X164789898Y-151017145D01*
X164789898Y-151017145D02*
X164827993Y-151169526D01*
X164827993Y-151169526D02*
X164827993Y-151360002D01*
X164827993Y-151360002D02*
X164789898Y-151512383D01*
X164789898Y-151512383D02*
X164751803Y-151588573D01*
X164751803Y-151588573D02*
X164713708Y-151626669D01*
X164713708Y-151626669D02*
X164637517Y-151664764D01*
X164637517Y-151664764D02*
X164561327Y-151664764D01*
X164561327Y-151664764D02*
X164485136Y-151626669D01*
X164485136Y-151626669D02*
X164447041Y-151588573D01*
X164447041Y-151588573D02*
X164408946Y-151512383D01*
X164408946Y-151512383D02*
X164370850Y-151360002D01*
X164370850Y-151360002D02*
X164370850Y-151169526D01*
X164370850Y-151169526D02*
X164408946Y-151017145D01*
X164408946Y-151017145D02*
X164447041Y-150940954D01*
X164447041Y-150940954D02*
X164485136Y-150902859D01*
X164485136Y-150902859D02*
X164561327Y-150864764D01*
D13*
%TO.C,niceView1*%
X162374708Y-124372474D02*
X176374708Y-124372474D01*
X162374708Y-160372474D02*
X162374708Y-124372474D01*
X176374708Y-124372474D02*
X176374708Y-160372474D01*
X176374708Y-160372474D02*
X162374708Y-160372474D01*
D14*
%TO.C,ROT1*%
X182394706Y-161662469D02*
X186494710Y-161662475D01*
X182394706Y-168862473D02*
X182394709Y-166262475D01*
X182394709Y-173462475D02*
X182394715Y-170862476D01*
X182394710Y-164262474D02*
X182394706Y-161662469D01*
X186494710Y-173462474D02*
X182394709Y-173462475D01*
X188494709Y-168062482D02*
X188494710Y-167062483D01*
X188994711Y-167562480D02*
X187994699Y-167562474D01*
X190494711Y-173362474D02*
X194594708Y-173362475D01*
X190494712Y-161662474D02*
X194594709Y-161662474D01*
X194594708Y-173362475D02*
X194594709Y-161662474D01*
X195694703Y-171662472D02*
X195994710Y-171362474D01*
X195994710Y-171362474D02*
X196294710Y-171662471D01*
X196294710Y-171662471D02*
X195694703Y-171662472D01*
X191494706Y-167562477D02*
G75*
G02*
X185494710Y-167562477I-2999998J0D01*
G01*
X185494710Y-167562477D02*
G75*
G02*
X191494706Y-167562477I2999998J0D01*
G01*
D13*
%TO.C,MCU1*%
X160484707Y-155112469D02*
X178264709Y-155112468D01*
X160484708Y-122092469D02*
X160484707Y-155112469D01*
X178264708Y-122092469D02*
X160484708Y-122092469D01*
X178264709Y-155112468D02*
X178264708Y-122092469D01*
%TD*%
D15*
%TO.C,MCU1*%
X176994704Y-125902472D03*
X176994709Y-128442471D03*
X176994708Y-130982468D03*
X176994708Y-133522469D03*
X176994711Y-136062467D03*
X176994707Y-138602468D03*
X176994705Y-141142472D03*
X176994713Y-143682469D03*
X176994709Y-146222469D03*
X176994708Y-148762471D03*
X176994709Y-151302471D03*
X176994715Y-153842463D03*
X161754712Y-153842466D03*
X161754707Y-151302467D03*
X161754708Y-148762470D03*
X161754708Y-146222469D03*
X161754705Y-143682471D03*
X161754709Y-141142470D03*
X161754711Y-138602466D03*
X161754703Y-136062469D03*
X161754707Y-133522469D03*
X161754708Y-130982467D03*
X161754707Y-128442467D03*
X161754701Y-125902475D03*
X164294707Y-148762469D03*
X166834708Y-148762468D03*
X169374708Y-148762469D03*
%TD*%
M02*
