%TF.GenerationSoftware,KiCad,Pcbnew,9.0.5*%
%TF.CreationDate,2025-11-08T17:13:18+10:00*%
%TF.ProjectId,badWingsLeft,62616457-696e-4677-934c-6566742e6b69,v1.0.0*%
%TF.SameCoordinates,Original*%
%TF.FileFunction,Paste,Bot*%
%TF.FilePolarity,Positive*%
%FSLAX46Y46*%
G04 Gerber Fmt 4.6, Leading zero omitted, Abs format (unit mm)*
G04 Created by KiCad (PCBNEW 9.0.5) date 2025-11-08 17:13:18*
%MOMM*%
%LPD*%
G01*
G04 APERTURE LIST*
G04 Aperture macros list*
%AMRotRect*
0 Rectangle, with rotation*
0 The origin of the aperture is its center*
0 $1 length*
0 $2 width*
0 $3 Rotation angle, in degrees counterclockwise*
0 Add horizontal line*
21,1,$1,$2,0,0,$3*%
G04 Aperture macros list end*
%ADD10R,0.900000X0.900000*%
%ADD11R,1.250000X0.900000*%
%ADD12RotRect,2.600000X2.600000X184.000000*%
%ADD13R,1.000000X1.550000*%
%ADD14RotRect,2.600000X2.600000X203.000000*%
%ADD15RotRect,2.600000X2.600000X191.000000*%
%ADD16RotRect,2.600000X2.600000X165.000000*%
%ADD17R,2.600000X2.600000*%
%ADD18RotRect,2.600000X2.600000X253.000000*%
%ADD19RotRect,2.600000X2.600000X163.000000*%
%ADD20RotRect,2.600000X2.600000X251.000000*%
%ADD21RotRect,2.600000X2.600000X161.000000*%
%ADD22RotRect,0.900000X1.200000X251.000000*%
%ADD23R,1.200000X0.900000*%
%ADD24RotRect,1.400000X1.000000X191.000000*%
%ADD25R,1.400000X1.000000*%
%ADD26RotRect,1.400000X1.000000X203.000000*%
%ADD27RotRect,0.900000X1.200000X281.000000*%
%ADD28RotRect,1.400000X1.000000X165.000000*%
%ADD29RotRect,0.900000X1.200000X274.000000*%
%ADD30RotRect,1.400000X1.000000X253.000000*%
%ADD31RotRect,0.900000X1.200000X341.000000*%
%ADD32RotRect,1.400000X1.000000X161.000000*%
%ADD33RotRect,1.400000X1.000000X184.000000*%
%ADD34RotRect,1.400000X1.000000X163.000000*%
%ADD35RotRect,0.900000X1.200000X293.000000*%
%ADD36RotRect,0.900000X1.200000X343.000000*%
%ADD37RotRect,0.900000X1.200000X253.000000*%
%ADD38RotRect,0.900000X1.200000X255.000000*%
%ADD39RotRect,1.400000X1.000000X251.000000*%
G04 APERTURE END LIST*
D10*
%TO.C,T1*%
X183854703Y-143672470D03*
X181654714Y-143672470D03*
X183854702Y-151072472D03*
X181654713Y-151072472D03*
D11*
X180679707Y-145122471D03*
X180679708Y-148122472D03*
X180679708Y-149622471D03*
%TD*%
D12*
%TO.C,S8*%
X113272052Y-146535500D03*
X101596724Y-145146542D03*
%TD*%
D13*
%TO.C,B1*%
X184144707Y-128547483D03*
X184144707Y-133797483D03*
X182444707Y-128547483D03*
X182444707Y-133797483D03*
%TD*%
D14*
%TO.C,S1*%
X81683039Y-188677293D03*
X70191598Y-191165126D03*
%TD*%
D15*
%TO.C,S4*%
X96441532Y-171682037D03*
X84683962Y-171726302D03*
%TD*%
%TO.C,S6*%
X89954036Y-138306701D03*
X78196466Y-138350966D03*
%TD*%
D16*
%TO.C,S16*%
X141898160Y-196467351D03*
X131311119Y-191352947D03*
%TD*%
D15*
%TO.C,S5*%
X93197795Y-154994365D03*
X81440225Y-155038630D03*
%TD*%
D12*
%TO.C,S7*%
X114457930Y-163494091D03*
X102782602Y-162105133D03*
%TD*%
D14*
%TO.C,S3*%
X68398167Y-157380138D03*
X56906726Y-159867971D03*
%TD*%
D17*
%TO.C,S13*%
X151649713Y-170322470D03*
X140099715Y-168122470D03*
%TD*%
D18*
%TO.C,S18*%
X172157038Y-182054906D03*
X166676268Y-192457007D03*
%TD*%
D17*
%TO.C,S14*%
X151649705Y-153322487D03*
X140099707Y-151122487D03*
%TD*%
%TO.C,S15*%
X151649711Y-136322482D03*
X140099713Y-134122482D03*
%TD*%
D12*
%TO.C,S9*%
X112086210Y-129576906D03*
X100410882Y-128187948D03*
%TD*%
D17*
%TO.C,S12*%
X133649721Y-136322471D03*
X122099723Y-134122471D03*
%TD*%
%TO.C,S11*%
X133649727Y-153322465D03*
X122099729Y-151122465D03*
%TD*%
D19*
%TO.C,S17*%
X160937403Y-209603359D03*
X150535302Y-204122589D03*
%TD*%
D14*
%TO.C,S2*%
X75040601Y-173028725D03*
X63549160Y-175516558D03*
%TD*%
D20*
%TO.C,S20*%
X190054503Y-191314300D03*
X184214044Y-201518790D03*
%TD*%
D17*
%TO.C,S10*%
X133649708Y-170322462D03*
X122099710Y-168122462D03*
%TD*%
D21*
%TO.C,S19*%
X177880286Y-218454386D03*
X167675796Y-212613927D03*
%TD*%
D22*
%TO.C,D19*%
X169954331Y-206841257D03*
X168879957Y-209961469D03*
%TD*%
D23*
%TO.C,D13*%
X140374717Y-161922463D03*
X140374717Y-165222463D03*
%TD*%
D24*
%TO.C,LED6*%
X81865882Y-128010821D03*
X82133016Y-129385099D03*
X87433802Y-128354731D03*
X87166668Y-126980453D03*
%TD*%
D25*
%TO.C,LED11*%
X127674709Y-141672471D03*
X127674709Y-143072471D03*
X133074709Y-143072471D03*
X133074709Y-141672471D03*
%TD*%
D23*
%TO.C,D10*%
X122374715Y-161922475D03*
X122374715Y-165222475D03*
%TD*%
D26*
%TO.C,LED3*%
X58346132Y-148990863D03*
X58893159Y-150279569D03*
X63863882Y-148169621D03*
X63316855Y-146880915D03*
%TD*%
D23*
%TO.C,D11*%
X122374711Y-144922468D03*
X122374711Y-148222468D03*
%TD*%
%TO.C,D14*%
X140374697Y-144922462D03*
X140374697Y-148222462D03*
%TD*%
D27*
%TO.C,D5*%
X80527147Y-148900079D03*
X81156817Y-152139449D03*
%TD*%
D28*
%TO.C,LED16*%
X139141978Y-183667888D03*
X138779631Y-185020185D03*
X143995630Y-186417808D03*
X144357977Y-185065511D03*
%TD*%
D29*
%TO.C,D7*%
X102624418Y-155901057D03*
X102854614Y-159193019D03*
%TD*%
D30*
%TO.C,LED18*%
X159269157Y-184362698D03*
X160607984Y-184772018D03*
X162186791Y-179607972D03*
X160847964Y-179198652D03*
%TD*%
D29*
%TO.C,D9*%
X100252725Y-121983875D03*
X100482921Y-125275837D03*
%TD*%
D24*
%TO.C,LED5*%
X85109647Y-144698510D03*
X85376781Y-146072788D03*
X90677567Y-145042420D03*
X90410433Y-143668142D03*
%TD*%
D31*
%TO.C,D20*%
X178441368Y-199240243D03*
X181561580Y-200314617D03*
%TD*%
D32*
%TO.C,LED19*%
X176023663Y-205493821D03*
X175567866Y-206817552D03*
X180673667Y-208575615D03*
X181129464Y-207251884D03*
%TD*%
D33*
%TO.C,LED8*%
X106498958Y-135330667D03*
X106596616Y-136727256D03*
X111983462Y-136350571D03*
X111885804Y-134953982D03*
%TD*%
D23*
%TO.C,D21*%
X179174706Y-169022473D03*
X179174706Y-165722473D03*
%TD*%
D27*
%TO.C,D4*%
X83770896Y-165587741D03*
X84400566Y-168827111D03*
%TD*%
D34*
%TO.C,LED17*%
X158629595Y-196715469D03*
X158220275Y-198054296D03*
X163384321Y-199633103D03*
X163793641Y-198294276D03*
%TD*%
D24*
%TO.C,LED4*%
X88353381Y-161386160D03*
X88620515Y-162760438D03*
X93921301Y-161730070D03*
X93654167Y-160355792D03*
%TD*%
D35*
%TO.C,D1*%
X68022199Y-185350531D03*
X69311611Y-188388197D03*
%TD*%
D26*
%TO.C,LED1*%
X71631005Y-180288035D03*
X72178032Y-181576741D03*
X77148755Y-179466793D03*
X76601728Y-178178087D03*
%TD*%
D35*
%TO.C,D2*%
X61379783Y-169701976D03*
X62669195Y-172739642D03*
%TD*%
D33*
%TO.C,LED7*%
X107684814Y-152289271D03*
X107782472Y-153685860D03*
X113169318Y-153309175D03*
X113071660Y-151912586D03*
%TD*%
D25*
%TO.C,LED15*%
X145674703Y-124672473D03*
X145674703Y-126072473D03*
X151074703Y-126072473D03*
X151074703Y-124672473D03*
%TD*%
D27*
%TO.C,D6*%
X77283392Y-132212394D03*
X77913062Y-135451764D03*
%TD*%
D25*
%TO.C,LED10*%
X127674712Y-158672477D03*
X127674712Y-160072477D03*
X133074712Y-160072477D03*
X133074712Y-158672477D03*
%TD*%
D29*
%TO.C,D8*%
X101438568Y-138942469D03*
X101668764Y-142234431D03*
%TD*%
D36*
%TO.C,D18*%
X160827566Y-190381326D03*
X163983372Y-191346152D03*
%TD*%
D25*
%TO.C,LED14*%
X145674719Y-141672458D03*
X145674719Y-143072458D03*
X151074719Y-143072458D03*
X151074719Y-141672458D03*
%TD*%
D37*
%TO.C,D17*%
X152610973Y-198273903D03*
X151646147Y-201429709D03*
%TD*%
D38*
%TO.C,D16*%
X133181409Y-185435401D03*
X132327309Y-188622957D03*
%TD*%
D23*
%TO.C,D15*%
X140374719Y-127922470D03*
X140374719Y-131222470D03*
%TD*%
D25*
%TO.C,LED13*%
X145674720Y-158672464D03*
X145674720Y-160072464D03*
X151074720Y-160072464D03*
X151074720Y-158672464D03*
%TD*%
D33*
%TO.C,LED9*%
X105313096Y-118372078D03*
X105410754Y-119768667D03*
X110797600Y-119391982D03*
X110699942Y-117995393D03*
%TD*%
D25*
%TO.C,LED12*%
X127674714Y-124672468D03*
X127674714Y-126072468D03*
X133074714Y-126072468D03*
X133074714Y-124672468D03*
%TD*%
D39*
%TO.C,LED20*%
X177093956Y-193170893D03*
X178417687Y-193626690D03*
X180175750Y-188520889D03*
X178852019Y-188065092D03*
%TD*%
D23*
%TO.C,D12*%
X122374717Y-127922465D03*
X122374717Y-131222465D03*
%TD*%
D35*
%TO.C,D3*%
X54737350Y-154053394D03*
X56026762Y-157091060D03*
%TD*%
D26*
%TO.C,LED2*%
X64988565Y-164639456D03*
X65535592Y-165928162D03*
X70506315Y-163818214D03*
X69959288Y-162529508D03*
%TD*%
M02*
