%TF.GenerationSoftware,KiCad,Pcbnew,9.0.5*%
%TF.CreationDate,2025-11-08T17:13:18+10:00*%
%TF.ProjectId,badWingsLeft,62616457-696e-4677-934c-6566742e6b69,v1.0.0*%
%TF.SameCoordinates,Original*%
%TF.FileFunction,Profile,NP*%
%FSLAX46Y46*%
G04 Gerber Fmt 4.6, Leading zero omitted, Abs format (unit mm)*
G04 Created by KiCad (PCBNEW 9.0.5) date 2025-11-08 17:13:18*
%MOMM*%
%LPD*%
G01*
G04 APERTURE LIST*
%TA.AperFunction,Profile*%
%ADD10C,0.150000*%
%TD*%
%TA.AperFunction,Profile*%
%ADD11C,0.120000*%
%TD*%
G04 APERTURE END LIST*
D10*
X69329036Y-138265815D02*
G75*
G02*
X68174650Y-139604373I-1935936J502515D01*
G01*
X96261752Y-115401100D02*
G75*
G02*
X98008381Y-114071161I1886148J-665200D01*
G01*
X146071518Y-209837782D02*
G75*
G02*
X145848452Y-209709720I883982J1798082D01*
G01*
X98008380Y-114071144D02*
X117643503Y-112698126D01*
X72161675Y-197661815D02*
G75*
G02*
X69539182Y-196602267I-781475J1841015D01*
G01*
X50671446Y-147034047D02*
X68174659Y-139604393D01*
X183574714Y-119872461D02*
G75*
G02*
X185574739Y-121872464I-14J-2000039D01*
G01*
X69539189Y-196602264D02*
X49611908Y-149656509D01*
X145848453Y-209709719D02*
X127501502Y-197545312D01*
X199374705Y-178543831D02*
G75*
G02*
X199269565Y-179183813I-1998705J-269D01*
G01*
X90186245Y-190010848D02*
X72161675Y-197661815D01*
X163020183Y-218149822D02*
G75*
G02*
X162789195Y-218053728I653117J1895622D01*
G01*
X49611908Y-149656509D02*
G75*
G02*
X50671444Y-147034042I1841042J781449D01*
G01*
X69329036Y-138265815D02*
X72485795Y-126102988D01*
X162789193Y-218053732D02*
X146071518Y-209837782D01*
X199374713Y-160872462D02*
X199374705Y-178543831D01*
X184346852Y-223365486D02*
G75*
G02*
X181800868Y-224616551I-1894852J639986D01*
G01*
X187574704Y-158872468D02*
G75*
G02*
X185574732Y-156872478I-4J1999968D01*
G01*
X125792613Y-119872460D02*
G75*
G02*
X124276182Y-119176525I-113J1999860D01*
G01*
X94779061Y-119605319D02*
G75*
G02*
X93274523Y-120903373I-1886061J665119D01*
G01*
X90859223Y-189542629D02*
G75*
G02*
X90186249Y-190010857I-1454323J1372529D01*
G01*
X117961599Y-174853146D02*
G75*
G02*
X119828372Y-176210910I-27399J-1999854D01*
G01*
X94779061Y-119605319D02*
X96261752Y-115401100D01*
X181800874Y-224616534D02*
X163020183Y-218149822D01*
X187574704Y-158872468D02*
X197374711Y-158872472D01*
X199269552Y-179183809D02*
X184346852Y-223365486D01*
X74040044Y-124642197D02*
X93274524Y-120903379D01*
X104289625Y-175313452D02*
X90859223Y-189542629D01*
X117643503Y-112698126D02*
G75*
G02*
X119299427Y-113389219I139497J-1995174D01*
G01*
X197374711Y-158872472D02*
G75*
G02*
X199374728Y-160872462I-11J-2000028D01*
G01*
X72485795Y-126102988D02*
G75*
G02*
X74040042Y-124642186I1936005J-502612D01*
G01*
X125792613Y-119872460D02*
X183574714Y-119872461D01*
X185574721Y-121872464D02*
X185574702Y-156872478D01*
X119299418Y-113389227D02*
X124276217Y-119176495D01*
X117961599Y-174853146D02*
X105771433Y-174686434D01*
X104289625Y-175313452D02*
G75*
G02*
X105771433Y-174686403I1454475J-1372748D01*
G01*
X127501502Y-197545312D02*
G75*
G02*
X126712546Y-196520457I1105198J1666912D01*
G01*
X126712550Y-196520456D02*
X119828374Y-176210909D01*
D11*
%TO.C,LED6*%
X86712529Y-129360826D02*
X83178667Y-130047746D01*
X82587155Y-127004726D01*
X86121017Y-126317806D01*
X86712529Y-129360826D01*
%TO.C,LED11*%
X132174707Y-143922464D02*
X128574711Y-143922466D01*
X128574711Y-140822478D01*
X132174707Y-140822476D01*
X132174707Y-143922464D01*
%TO.C,LED3*%
X63367550Y-149303698D02*
X60053739Y-150710345D01*
X58842464Y-147856786D01*
X62156275Y-146450139D01*
X63367550Y-149303698D01*
%TO.C,LED16*%
X143708637Y-184011545D02*
X142906301Y-187005901D01*
X139428971Y-186074151D01*
X140231307Y-183079795D01*
X143708637Y-184011545D01*
%TO.C,LED18*%
X162736513Y-180717165D02*
X161683970Y-184159860D01*
X158719435Y-183253505D01*
X159771978Y-179810810D01*
X162736513Y-180717165D01*
%TO.C,LED5*%
X89956294Y-146048515D02*
X86422432Y-146735435D01*
X85830920Y-143692415D01*
X89364782Y-143005495D01*
X89956294Y-146048515D01*
%TO.C,LED19*%
X180555226Y-206155194D02*
X179545968Y-209086294D01*
X176142104Y-207914242D01*
X177151362Y-204983142D01*
X180555226Y-206155194D01*
%TO.C,LED8*%
X111144948Y-137261276D02*
X107553719Y-137512400D01*
X107337472Y-134419962D01*
X110928701Y-134168838D01*
X111144948Y-137261276D01*
%TO.C,LED17*%
X163181483Y-197218290D02*
X162275128Y-200182825D01*
X158832433Y-199130282D01*
X159738788Y-196165747D01*
X163181483Y-197218290D01*
%TO.C,LED4*%
X93200028Y-162736165D02*
X89666166Y-163423085D01*
X89074654Y-160380065D01*
X92608516Y-159693145D01*
X93200028Y-162736165D01*
%TO.C,LED1*%
X76652423Y-180600870D02*
X73338612Y-182007517D01*
X72127337Y-179153958D01*
X75441148Y-177747311D01*
X76652423Y-180600870D01*
%TO.C,LED7*%
X112330804Y-154219880D02*
X108739575Y-154471004D01*
X108523328Y-151378566D01*
X112114557Y-151127442D01*
X112330804Y-154219880D01*
%TO.C,LED15*%
X150174701Y-126922466D02*
X146574705Y-126922468D01*
X146574705Y-123822480D01*
X150174701Y-123822478D01*
X150174701Y-126922466D01*
%TO.C,LED10*%
X132174710Y-160922470D02*
X128574714Y-160922472D01*
X128574714Y-157822484D01*
X132174710Y-157822482D01*
X132174710Y-160922470D01*
%TO.C,LED14*%
X150174717Y-143922451D02*
X146574721Y-143922453D01*
X146574721Y-140822465D01*
X150174717Y-140822463D01*
X150174717Y-143922451D01*
%TO.C,LED13*%
X150174718Y-160922457D02*
X146574722Y-160922459D01*
X146574722Y-157822471D01*
X150174718Y-157822469D01*
X150174718Y-160922457D01*
%TO.C,LED9*%
X109959086Y-120302687D02*
X106367857Y-120553811D01*
X106151610Y-117461373D01*
X109742839Y-117210249D01*
X109959086Y-120302687D01*
%TO.C,LED12*%
X132174712Y-126922461D02*
X128574716Y-126922463D01*
X128574716Y-123822475D01*
X132174712Y-123822473D01*
X132174712Y-126922461D01*
%TO.C,LED20*%
X180686429Y-189648588D02*
X179514377Y-193052452D01*
X176583277Y-192043194D01*
X177755329Y-188639330D01*
X180686429Y-189648588D01*
%TO.C,LED2*%
X70009983Y-164952291D02*
X66696172Y-166358938D01*
X65484897Y-163505379D01*
X68798708Y-162098732D01*
X70009983Y-164952291D01*
%TD*%
M02*
