M48
; DRILL file {KiCad 9.0.5} date 2025-11-08T17:12:59+1000
; FORMAT={-:-/ absolute / metric / decimal}
; #@! TF.CreationDate,2025-11-08T17:12:59+10:00
; #@! TF.GenerationSoftware,Kicad,Pcbnew,9.0.5
; #@! TF.FileFunction,Plated,1,2,PTH
FMAT,2
METRIC
; #@! TA.AperFunction,Plated,PTH,ComponentDrill
T1C0.300
; #@! TA.AperFunction,Plated,PTH,ComponentDrill
T2C0.400
; #@! TA.AperFunction,Plated,PTH,ComponentDrill
T3C0.750
; #@! TA.AperFunction,Plated,PTH,ComponentDrill
T4C1.000
; #@! TA.AperFunction,Plated,PTH,ComponentDrill
T5C1.092
; #@! TA.AperFunction,Plated,PTH,ComponentDrill
T6C1.500
; #@! TA.AperFunction,Plated,PTH,ComponentDrill
T7C2.200
%
G90
G05
T1
X56.118Y-153.467
X56.689Y-149.694
X62.761Y-169.116
X63.879Y-166.631
X64.974Y-146.178
X69.403Y-184.764
X70.521Y-182.28
X71.616Y-161.826
X78.259Y-177.475
X78.756Y-131.926
X80.099Y-128.354
X80.366Y-129.729
X82.0Y-148.614
X83.61Y-146.416
X85.243Y-165.302
X86.854Y-163.104
X88.934Y-126.637
X92.177Y-143.325
X95.421Y-160.012
X101.052Y-172.212
X101.749Y-121.879
X102.935Y-138.838
X103.517Y-118.498
X103.615Y-119.894
X104.121Y-155.796
X104.801Y-136.853
X105.987Y-153.811
X112.496Y-117.87
X113.681Y-134.828
X114.867Y-151.787
X118.97Y-164.582
X123.875Y-144.922
X123.875Y-161.922
X123.875Y-127.922
X125.875Y-124.672
X125.875Y-143.072
X125.875Y-126.072
X125.875Y-160.072
X134.63Y-185.824
X134.875Y-158.672
X134.875Y-141.672
X134.875Y-124.672
X137.041Y-184.554
X137.403Y-183.202
X141.875Y-127.922
X141.875Y-144.922
X141.875Y-161.922
X143.875Y-124.672
X143.875Y-143.072
X143.875Y-160.072
X143.875Y-126.072
X146.097Y-185.531
X152.875Y-158.672
X152.875Y-124.672
X152.875Y-141.672
X154.045Y-198.712
X154.24Y-209.02
X156.499Y-197.528
X156.908Y-196.189
X158.743Y-186.084
X160.082Y-186.493
X161.266Y-188.947
X161.374Y-177.477
X165.515Y-198.821
X171.208Y-217.638
X171.373Y-207.33
X173.866Y-206.232
X174.322Y-204.908
X176.508Y-194.873
X177.832Y-195.329
X178.93Y-197.822
X179.175Y-170.372
X179.438Y-186.363
X179.875Y-146.872
X182.831Y-207.838
T2
X72.753Y-143.619
X72.874Y-142.362
X73.557Y-144.594
X73.849Y-141.559
X74.814Y-144.715
X75.106Y-141.68
X75.788Y-143.911
X75.909Y-142.654
X89.18Y-181.956
X89.301Y-180.699
X89.983Y-182.93
X90.275Y-179.895
X91.24Y-183.051
X91.532Y-180.016
X92.214Y-182.248
X92.335Y-180.991
X98.373Y-133.092
X98.774Y-131.894
X98.936Y-134.222
X99.904Y-131.331
X100.134Y-134.623
X101.101Y-131.732
X101.264Y-134.059
X101.665Y-132.862
X113.551Y-169.522
X113.952Y-168.324
X114.115Y-170.652
X115.082Y-167.761
X115.312Y-171.053
X116.28Y-168.162
X116.442Y-170.489
X116.843Y-169.292
X137.725Y-138.872
X138.208Y-137.706
X138.208Y-140.039
X139.375Y-137.222
X139.375Y-140.522
X140.541Y-137.706
X140.541Y-140.039
X141.025Y-138.872
X159.325Y-167.772
X159.808Y-166.606
X159.808Y-168.939
X160.975Y-166.122
X160.975Y-169.422
X162.141Y-166.606
X162.141Y-168.939
X162.625Y-167.772
X169.546Y-197.095
X169.645Y-198.354
X170.366Y-196.135
X170.605Y-199.174
X171.625Y-196.036
X171.864Y-199.075
X172.585Y-196.856
X172.684Y-198.115
X175.525Y-174.232
X176.008Y-173.066
X176.008Y-175.399
X177.175Y-172.582
X177.175Y-175.882
X178.341Y-173.066
X178.341Y-175.399
X178.825Y-174.232
X180.385Y-123.672
X180.868Y-122.506
X180.868Y-124.839
X182.035Y-122.022
X182.035Y-125.322
X183.201Y-122.506
X183.201Y-124.839
X183.685Y-123.672
X193.525Y-177.972
X194.008Y-176.806
X194.008Y-179.139
X195.175Y-176.322
X195.175Y-179.622
X196.341Y-176.806
X196.341Y-179.139
X196.825Y-177.972
T3
X191.215Y-176.972
X191.215Y-178.972
T4
X164.295Y-159.072
X166.835Y-159.072
X169.375Y-159.072
X171.915Y-159.072
X174.455Y-159.072
X181.495Y-165.062
X181.495Y-170.062
X195.995Y-165.062
X195.995Y-167.562
X195.995Y-170.062
T5
X161.755Y-125.902
X161.755Y-136.062
X161.755Y-143.682
X161.755Y-128.442
X161.755Y-133.522
X161.755Y-151.302
X161.755Y-130.982
X161.755Y-146.222
X161.755Y-148.762
X161.755Y-141.142
X161.755Y-138.602
X161.755Y-153.842
X164.295Y-148.762
X166.835Y-148.762
X169.375Y-148.762
X176.995Y-125.902
X176.995Y-141.142
X176.995Y-138.602
X176.995Y-130.982
X176.995Y-133.522
X176.995Y-148.762
X176.995Y-128.442
X176.995Y-146.222
X176.995Y-151.302
X176.995Y-136.062
X176.995Y-143.682
X176.995Y-153.842
T7
X74.331Y-143.137
X90.757Y-181.473
X100.019Y-132.977
X115.197Y-169.407
X139.375Y-138.872
X160.975Y-167.772
X171.115Y-197.605
X177.175Y-174.232
X182.035Y-123.672
X195.175Y-177.972
T6
G00X189.145Y-173.162
M15
G01X187.845Y-173.162
M16
G05
G00X189.145Y-161.962
M15
G01X187.845Y-161.962
M16
G05
M30
