M48
; DRILL file {KiCad 9.0.5} date 2025-11-08T17:12:59+1000
; FORMAT={-:-/ absolute / metric / decimal}
; #@! TF.CreationDate,2025-11-08T17:12:59+10:00
; #@! TF.GenerationSoftware,Kicad,Pcbnew,9.0.5
; #@! TF.FileFunction,NonPlated,1,2,NPTH
FMAT,2
METRIC
; #@! TA.AperFunction,NonPlated,NPTH,ComponentDrill
T1C0.750
; #@! TA.AperFunction,NonPlated,NPTH,ComponentDrill
T2C0.900
; #@! TA.AperFunction,NonPlated,NPTH,ComponentDrill
T3C1.702
; #@! TA.AperFunction,NonPlated,NPTH,ComponentDrill
T4C3.000
; #@! TA.AperFunction,NonPlated,NPTH,ComponentDrill
T5C3.429
%
G90
G05
T1
X181.92Y-131.172
X184.67Y-131.172
T2
X182.755Y-148.872
X182.755Y-145.872
T3
X57.996Y-155.332
X64.638Y-170.98
X68.121Y-151.034
X71.281Y-186.629
X74.764Y-166.682
X80.205Y-134.14
X81.406Y-182.331
X83.449Y-150.828
X86.692Y-167.516
X91.003Y-132.041
X94.247Y-148.729
X97.49Y-165.417
X102.918Y-124.254
X104.103Y-141.212
X105.289Y-158.171
X113.891Y-123.486
X115.077Y-140.445
X116.262Y-157.403
X124.875Y-164.372
X124.875Y-130.372
X124.875Y-147.372
X134.962Y-188.449
X135.875Y-164.372
X135.875Y-130.372
X135.875Y-147.372
X142.875Y-147.372
X142.875Y-130.372
X142.875Y-164.372
X145.587Y-191.296
X153.875Y-147.372
X153.875Y-130.372
X153.875Y-164.372
X154.285Y-201.348
X163.901Y-188.707
X164.805Y-204.564
X167.118Y-178.188
X171.52Y-209.972
X181.572Y-197.674
X181.921Y-213.553
X185.153Y-187.273
T4
X59.921Y-158.588
X65.384Y-158.66
X66.564Y-174.237
X72.026Y-174.308
X73.206Y-189.885
X78.668Y-189.957
X81.411Y-137.726
X84.655Y-154.414
X86.739Y-138.932
X87.899Y-171.101
X89.983Y-155.619
X93.227Y-172.307
X103.678Y-127.96
X104.864Y-144.918
X106.05Y-161.877
X108.819Y-129.805
X110.005Y-146.764
X111.191Y-163.723
X125.375Y-168.122
X125.375Y-134.122
X125.375Y-151.122
X130.375Y-170.322
X130.375Y-136.322
X130.375Y-153.322
X134.475Y-192.201
X138.735Y-195.62
X143.375Y-151.122
X143.375Y-134.122
X143.375Y-168.122
X148.375Y-153.322
X148.375Y-136.322
X148.375Y-170.322
X153.667Y-205.08
X157.806Y-208.646
X167.634Y-189.325
X170.772Y-213.68
X171.2Y-185.187
X174.784Y-217.388
X185.28Y-198.422
X188.988Y-194.411
T5
X63.059Y-153.183
X69.701Y-168.831
X76.344Y-184.48
X85.604Y-133.091
X88.848Y-149.779
X92.091Y-166.466
X108.404Y-123.87
X109.59Y-140.828
X110.776Y-157.787
X130.375Y-164.372
X130.375Y-130.372
X130.375Y-147.372
X140.275Y-189.872
X148.375Y-147.372
X148.375Y-130.372
X148.375Y-164.372
X159.545Y-202.956
X165.51Y-183.447
X176.721Y-211.762
X183.362Y-192.474
M30
