0
SECTION
2
HEADER
9
$INSUNITS
70
4
0
ENDSEC
0
SECTION
2
TABLES
0
TABLE
2
LTYPE
0
LTYPE
72
65
70
64
2
CONTINUOUS
3
______
73
0
40
0
0
ENDTAB
0
TABLE
2
LAYER
0
ENDTAB
0
ENDSEC
0
SECTION
2
ENTITIES
0
LINE
8
0
10
446.6199224
20
-108.1117457
11
430.8503139
21
-101.417944
0
LINE
8
0
10
429.7530262
20
-100.2627177
11
425.0152532
21
-87.2832686
0
LINE
8
0
10
423.5181213
20
-86.0057976
11
405.8575233
21
-82.5729252
0
LINE
8
0
10
404.5351657
20
-81.656794
11
401.3752831
21
-76.5147404
0
LINE
8
0
10
399.8108204
20
-75.5667356
11
382.3802606
21
-74.3478721
0
LINE
8
0
10
380.3652048
20
-75.6484938
11
378.7113147
21
-80.1148914
0
LINE
8
0
10
319.7017526
20
-81.420385
11
376.8357719
21
-81.420385
0
LINE
8
0
10
317.7019257
20
-83.3940713
11
317.2538649
21
-117.4466985
0
LINE
8
0
10
315.254038
20
-119.4203849
11
302.2278953
21
-119.4203849
0
LINE
8
0
10
300.2278953
20
-121.4203849
11
300.2278953
21
-138.09271
0
LINE
8
0
10
300.3324592
20
-138.730928
11
303.0002481
21
-146.653963
0
LINE
8
0
10
303.0038597
20
-146.6647912
11
314.8841769
21
-182.6253487
0
LINE
8
0
10
317.434361
20
-183.888996
11
334.3098555
21
-178.0782973
0
LINE
8
0
10
334.5436591
20
-177.9808268
11
351.2830203
21
-169.7216807
0
LINE
8
0
10
351.5049274
20
-169.593914
11
369.8822844
21
-157.3830094
0
LINE
8
0
10
370.6663648
20
-156.368664
11
377.762971
21
-135.7698855
0
LINE
8
0
10
379.6552374
20
-134.4213405
11
394.0162025
21
-134.430954
0
LINE
8
0
10
395.4743799
20
-135.0635428
11
409.0531024
21
-149.5568946
0
LINE
8
0
10
409.7311564
20
-150.0304935
11
425.9111728
21
-156.898503
0
LINE
8
0
10
428.5336447
20
-155.8389554
11
447.67947
21
-110.7342176
0
ARC
8
0
10
431.631776
20
-99.5769343
40
2
50
200.0531511
51
247.0000025
0
ARC
8
0
10
423.1365033
20
-87.969052
40
2
50
20.0531511
51
78.9999999
0
ARC
8
0
10
406.2391413
20
-80.6096708
40
2
50
211.571462
51
258.9999999
0
ARC
8
0
10
399.6713074
20
-77.5618637
40
2
50
31.571462
51
85.9999987
0
ARC
8
0
10
382.2407476
20
-76.3430002
40
2
50
85.9999987
51
159.6805995
0
ARC
8
0
10
376.8357719
20
-79.420385
40
2
50
270
51
339.6805995
0
ARC
8
0
10
319.7017526
20
-83.4203849
40
2
50
90
51
179.2461491
0
ARC
8
0
10
315.254038
20
-117.4203849
40
2
50
270
51
359.2461491
0
ARC
8
0
10
302.2278953
20
-121.4203849
40
2
50
90
51
180
0
ARC
8
0
10
302.2278953
20
-138.09271
40
2
50
180
51
198.6090499
0
ARC
8
0
10
301.104812
20
-147.292181
40
2
50
18.2820447
51
18.6090499
0
ARC
8
0
10
316.7832246
20
-181.9979589
40
2
50
198.2820447
51
289.000002
0
ARC
8
0
10
333.6587191
20
-176.1872601
40
2
50
289.000002
51
296.2615835
0
ARC
8
0
10
350.3980802
20
-167.9281141
40
2
50
296.2615835
51
303.602203
0
ARC
8
0
10
368.7754373
20
-155.7172094
40
2
50
303.602203
51
340.9903566
0
ARC
8
0
10
379.6538986
20
-136.4213401
40
2
50
89.9616462
51
160.9903566
0
ARC
8
0
10
394.0148637
20
-136.4309536
40
2
50
43.1338802
51
89.9616462
0
ARC
8
0
10
410.5126186
20
-148.1894838
40
2
50
223.1338802
51
247.0000025
0
ARC
8
0
10
426.6926349
20
-155.0574932
40
2
50
247.0000025
51
337.0000025
0
ARC
8
0
10
445.8384602
20
-109.9527555
40
2
50
337.0000025
51
67.0000025
0
ENDSEC
0
EOF