0
SECTION
2
HEADER
9
$INSUNITS
70
4
0
ENDSEC
0
SECTION
2
TABLES
0
TABLE
2
LTYPE
0
LTYPE
72
65
70
64
2
CONTINUOUS
3
______
73
0
40
0
0
ENDTAB
0
TABLE
2
LAYER
0
ENDTAB
0
ENDSEC
0
SECTION
2
ENTITIES
0
LINE
8
0
10
52.4741469
20
-146.6550849
11
69.9773474
21
-139.225417
0
LINE
8
0
10
71.1317469
20
-137.8868412
11
74.288485
21
-125.7240357
0
LINE
8
0
10
75.8427286
20
-124.2632153
11
95.0772235
21
-120.5244082
0
LINE
8
0
10
96.5817458
20
-119.2263414
11
98.0644513
21
-115.0221281
0
LINE
8
0
10
99.8110787
20
-113.6921876
11
119.4461947
21
-112.3191666
0
LINE
8
0
10
121.1021117
20
-113.0102552
11
126.078915
21
-118.7975372
0
LINE
8
0
10
127.595319
20
-119.4934978
11
185.37741
21
-119.4934978
0
LINE
8
0
10
187.37741
20
-121.4934978
11
187.37741
21
-156.4934978
0
LINE
8
0
10
189.37741
20
-158.4934978
11
199.17741
21
-158.4934978
0
LINE
8
0
10
201.17741
20
-160.4934978
11
201.17741
21
-178.127965
0
LINE
8
0
10
201.0481146
20
-178.8354
11
198.6891341
21
-185.0733671
0
LINE
8
0
10
198.6611665
20
-185.1522766
11
186.1418481
21
-222.9710781
0
LINE
8
0
10
183.5920396
20
-224.2335898
11
164.8228781
21
-217.7708492
0
LINE
8
0
10
164.5918805
20
-217.6747604
11
147.8742096
21
-209.4587985
0
LINE
8
0
10
147.6511548
20
-209.3307507
11
129.3041983
21
-197.1663476
0
LINE
8
0
10
128.5152429
20
-196.1414888
11
121.6310918
21
-175.8319454
0
LINE
8
0
10
119.764294
20
-174.4741742
11
107.5741257
21
-174.3074798
0
LINE
8
0
10
106.0923319
20
-174.9344918
11
92.6619262
21
-189.1636618
0
LINE
8
0
10
91.9889409
20
-189.6318706
11
73.9643588
21
-197.2828519
0
LINE
8
0
10
71.3418869
20
-196.2233043
11
51.4145993
21
-149.2775568
0
ARC
8
0
10
69.1958853
20
-137.3844072
40
2
50
292.9999975
51
345.4504605
0
ARC
8
0
10
76.2243466
20
-126.2264697
40
2
50
101.0000001
51
165.4504605
0
ARC
8
0
10
94.6956055
20
-118.5611538
40
2
50
281.0000001
51
340.573716
0
ARC
8
0
10
99.9505917
20
-115.6873157
40
2
50
94.0000013
51
160.573716
0
ARC
8
0
10
119.5857077
20
-114.3142947
40
2
50
40.6940532
51
94.0000013
0
ARC
8
0
10
127.595319
20
-117.4934978
40
2
50
220.6940532
51
270
0
ARC
8
0
10
185.37741
20
-121.4934978
40
2
50
0
51
90
0
ARC
8
0
10
189.37741
20
-156.4934978
40
2
50
180
51
270
0
ARC
8
0
10
199.17741
20
-160.4934978
40
2
50
0
51
90
0
ARC
8
0
10
199.17741
20
-178.127965
40
2
50
339.2851366
51
0
0
ARC
8
0
10
200.5598386
20
-185.7808021
40
2
50
159.2851366
51
161.6836895
0
ARC
8
0
10
184.2431759
20
-222.3425526
40
2
50
250.999998
51
341.6836895
0
ARC
8
0
10
165.4740145
20
-215.8798121
40
2
50
243.8280208
51
250.999998
0
ARC
8
0
10
148.7563436
20
-207.6638501
40
2
50
236.4548171
51
243.8280208
0
ARC
8
0
10
130.4093871
20
-195.499447
40
2
50
198.724676
51
236.4548171
0
ARC
8
0
10
119.7369476
20
-176.4739872
40
2
50
18.724676
51
89.2165589
0
ARC
8
0
10
107.5467793
20
-176.3072928
40
2
50
89.2165589
51
136.6541505
0
ARC
8
0
10
91.2074788
20
-187.7908608
40
2
50
292.9999975
51
316.6541505
0
ARC
8
0
10
73.1828967
20
-195.4418421
40
2
50
202.9999975
51
292.9999975
0
ARC
8
0
10
53.2556091
20
-148.4960946
40
2
50
112.9999975
51
202.9999975
0
ENDSEC
0
EOF