0
SECTION
2
HEADER
9
$INSUNITS
70
4
0
ENDSEC
0
SECTION
2
TABLES
0
TABLE
2
LTYPE
0
LTYPE
72
65
70
64
2
CONTINUOUS
3
______
73
0
40
0
0
ENDTAB
0
TABLE
2
LAYER
0
ENDTAB
0
ENDSEC
0
SECTION
2
ENTITIES
0
LINE
8
0
10
145.8358682
20
-108.1117457
11
161.6054767
21
-101.417944
0
LINE
8
0
10
162.7027644
20
-100.2627177
11
167.4405374
21
-87.2832686
0
LINE
8
0
10
168.9376693
20
-86.0057976
11
186.5982673
21
-82.5729252
0
LINE
8
0
10
187.9206249
20
-81.656794
11
191.0805075
21
-76.5147404
0
LINE
8
0
10
192.6449702
20
-75.5667356
11
210.07553
21
-74.3478721
0
LINE
8
0
10
212.0905858
20
-75.6484938
11
213.7444759
21
-80.1148914
0
LINE
8
0
10
215.6200187
20
-81.420385
11
272.754038
21
-81.420385
0
LINE
8
0
10
274.7538649
20
-83.3940713
11
275.2019257
21
-117.4466985
0
LINE
8
0
10
277.2017526
20
-119.4203849
11
290.2278953
21
-119.4203849
0
LINE
8
0
10
292.2278953
20
-121.4203849
11
292.2278953
21
-138.09271
0
LINE
8
0
10
292.1233314
20
-138.730928
11
289.4555425
21
-146.653963
0
LINE
8
0
10
289.4519309
20
-146.6647912
11
277.5716137
21
-182.6253487
0
LINE
8
0
10
275.0214296
20
-183.888996
11
258.1459351
21
-178.0782973
0
LINE
8
0
10
257.9121315
20
-177.9808268
11
241.1727703
21
-169.7216807
0
LINE
8
0
10
240.9508632
20
-169.593914
11
222.5735062
21
-157.3830094
0
LINE
8
0
10
221.7894258
20
-156.368664
11
214.6928196
21
-135.7698855
0
LINE
8
0
10
212.8005532
20
-134.4213405
11
198.4395881
21
-134.430954
0
LINE
8
0
10
196.9814107
20
-135.0635428
11
183.4026882
21
-149.5568946
0
LINE
8
0
10
182.7246342
20
-150.0304935
11
166.5446178
21
-156.898503
0
LINE
8
0
10
163.9221459
20
-155.8389554
11
144.7763206
21
-110.7342176
0
ARC
8
0
10
160.8240146
20
-99.5769343
40
2
50
292.9999975
51
339.9468489
0
ARC
8
0
10
169.3192873
20
-87.969052
40
2
50
101.0000001
51
159.9468489
0
ARC
8
0
10
186.2166493
20
-80.6096708
40
2
50
281.0000001
51
328.428538
0
ARC
8
0
10
192.7844832
20
-77.5618637
40
2
50
94.0000013
51
148.428538
0
ARC
8
0
10
210.215043
20
-76.3430002
40
2
50
20.3194005
51
94.0000013
0
ARC
8
0
10
215.6200187
20
-79.420385
40
2
50
200.3194005
51
270
0
ARC
8
0
10
272.754038
20
-83.4203849
40
2
50
0.7538509
51
90
0
ARC
8
0
10
277.2017526
20
-117.4203849
40
2
50
180.7538509
51
270
0
ARC
8
0
10
290.2278953
20
-121.4203849
40
2
50
0
51
90
0
ARC
8
0
10
290.2278953
20
-138.09271
40
2
50
341.3909501
51
0
0
ARC
8
0
10
291.3509786
20
-147.292181
40
2
50
161.3909501
51
161.7179553
0
ARC
8
0
10
275.672566
20
-181.9979589
40
2
50
250.999998
51
341.7179553
0
ARC
8
0
10
258.7970715
20
-176.1872601
40
2
50
243.7384165
51
250.999998
0
ARC
8
0
10
242.0577104
20
-167.9281141
40
2
50
236.397797
51
243.7384165
0
ARC
8
0
10
223.6803533
20
-155.7172094
40
2
50
199.0096434
51
236.397797
0
ARC
8
0
10
212.801892
20
-136.4213401
40
2
50
19.0096434
51
90.0383538
0
ARC
8
0
10
198.4409269
20
-136.4309536
40
2
50
90.0383538
51
136.8661198
0
ARC
8
0
10
181.943172
20
-148.1894838
40
2
50
292.9999975
51
316.8661198
0
ARC
8
0
10
165.7631557
20
-155.0574932
40
2
50
202.9999975
51
292.9999975
0
ARC
8
0
10
146.6173304
20
-109.9527555
40
2
50
112.9999975
51
202.9999975
0
ENDSEC
0
EOF