0
SECTION
2
HEADER
9
$INSUNITS
70
4
0
ENDSEC
0
SECTION
2
TABLES
0
TABLE
2
LTYPE
0
LTYPE
72
65
70
64
2
CONTINUOUS
3
______
73
0
40
0
0
ENDTAB
0
TABLE
2
LAYER
0
ENDTAB
0
ENDSEC
0
SECTION
2
ENTITIES
0
LINE
8
0
10
53.7853828
20
-147.1848586
11
69.5549913
21
-140.4910569
0
LINE
8
0
10
70.652279
20
-139.3358306
11
75.3900521
21
-126.3563814
0
LINE
8
0
10
76.887184
20
-125.0789104
11
94.547782
21
-121.646038
0
LINE
8
0
10
95.8701396
20
-120.7299068
11
99.0300222
21
-115.5878533
0
LINE
8
0
10
100.5944849
20
-114.6398485
11
118.0250447
21
-113.420985
0
LINE
8
0
10
120.0401005
20
-114.7216067
11
121.6939906
21
-119.1880042
0
LINE
8
0
10
123.5695334
20
-120.4934978
11
184.67741
21
-120.4934978
0
LINE
8
0
10
186.67741
20
-122.4934978
11
186.67741
21
-156.4934978
0
LINE
8
0
10
188.67741
20
-158.4934978
11
198.17741
21
-158.4934978
0
LINE
8
0
10
200.17741
20
-160.4934978
11
200.17741
21
-177.1658232
0
LINE
8
0
10
200.072846
20
-177.8040412
11
197.4050624
21
-185.72706
0
LINE
8
0
10
197.4014507
20
-185.7378882
11
185.5211283
21
-221.6984615
0
LINE
8
0
10
182.9709442
20
-222.9621088
11
166.0954497
21
-217.1514101
0
LINE
8
0
10
165.8616461
20
-217.0539396
11
149.1222849
21
-208.7947935
0
LINE
8
0
10
148.9003778
20
-208.6670268
11
130.5230208
21
-196.4561222
0
LINE
8
0
10
129.7389404
20
-195.4417768
11
122.6423342
21
-174.8429983
0
LINE
8
0
10
120.7500679
20
-173.4944533
11
106.3891028
21
-173.5040669
0
LINE
8
0
10
104.9309254
20
-174.1366557
11
91.3522029
21
-188.6300075
0
LINE
8
0
10
90.6741489
20
-189.1036064
11
74.4941325
21
-195.9716159
0
LINE
8
0
10
71.8716606
20
-194.9120683
11
52.7258352
21
-149.8073305
0
ARC
8
0
10
68.7735292
20
-138.6500471
40
2
50
292.9999975
51
339.9468489
0
ARC
8
0
10
77.268802
20
-127.0421648
40
2
50
101.0000001
51
159.9468489
0
ARC
8
0
10
94.166164
20
-119.6827836
40
2
50
281.0000001
51
328.428538
0
ARC
8
0
10
100.7339978
20
-116.6349766
40
2
50
94.0000013
51
148.428538
0
ARC
8
0
10
118.1645577
20
-115.4161131
40
2
50
20.3194005
51
94.0000013
0
ARC
8
0
10
123.5695334
20
-118.4934978
40
2
50
200.3194005
51
270
0
ARC
8
0
10
184.67741
20
-122.4934978
40
2
50
0
51
90
0
ARC
8
0
10
188.67741
20
-156.4934978
40
2
50
180
51
270
0
ARC
8
0
10
198.17741
20
-160.4934978
40
2
50
0
51
90
0
ARC
8
0
10
198.17741
20
-177.1658232
40
2
50
341.3909501
51
0
0
ARC
8
0
10
199.3004984
20
-186.365278
40
2
50
161.3909501
51
161.7179553
0
ARC
8
0
10
183.6220806
20
-221.0710717
40
2
50
250.999998
51
341.7179553
0
ARC
8
0
10
166.7465861
20
-215.2603729
40
2
50
243.7384165
51
250.999998
0
ARC
8
0
10
150.007225
20
-207.0012269
40
2
50
236.397797
51
243.7384165
0
ARC
8
0
10
131.6298679
20
-194.7903222
40
2
50
199.0096434
51
236.397797
0
ARC
8
0
10
120.7514067
20
-175.4944529
40
2
50
19.0096434
51
90.0383538
0
ARC
8
0
10
106.3904416
20
-175.5040665
40
2
50
90.0383538
51
136.8661198
0
ARC
8
0
10
89.8926867
20
-187.2625967
40
2
50
292.9999975
51
316.8661198
0
ARC
8
0
10
73.7126704
20
-194.1306061
40
2
50
202.9999975
51
292.9999975
0
ARC
8
0
10
54.566845
20
-149.0258684
40
2
50
112.9999975
51
202.9999975
0
ENDSEC
0
EOF