0
SECTION
2
HEADER
9
$INSUNITS
70
4
0
ENDSEC
0
SECTION
2
TABLES
0
TABLE
2
LTYPE
0
LTYPE
72
65
70
64
2
CONTINUOUS
3
______
73
0
40
0
0
ENDTAB
0
TABLE
2
LAYER
0
ENDTAB
0
ENDSEC
0
SECTION
2
ENTITIES
0
LINE
8
0
10
354.5694372
20
-147.1848586
11
338.7998287
21
-140.4910569
0
LINE
8
0
10
337.702541
20
-139.3358306
11
332.9647679
21
-126.3563814
0
LINE
8
0
10
331.467636
20
-125.0789104
11
313.807038
21
-121.646038
0
LINE
8
0
10
312.4846804
20
-120.7299068
11
309.3247978
21
-115.5878533
0
LINE
8
0
10
307.7603351
20
-114.6398485
11
290.3297753
21
-113.420985
0
LINE
8
0
10
288.3147195
20
-114.7216067
11
286.6608294
21
-119.1880042
0
LINE
8
0
10
227.6512673
20
-120.4934978
11
284.7852866
21
-120.4934978
0
LINE
8
0
10
225.6514404
20
-122.4671842
11
225.2033796
21
-156.5198114
0
LINE
8
0
10
223.2035527
20
-158.4934978
11
210.17741
21
-158.4934978
0
LINE
8
0
10
208.17741
20
-160.4934978
11
208.17741
21
-177.1658232
0
LINE
8
0
10
208.281974
20
-177.8040412
11
210.9497576
21
-185.72706
0
LINE
8
0
10
210.9533693
20
-185.7378882
11
222.8336917
21
-221.6984615
0
LINE
8
0
10
225.3838758
20
-222.9621088
11
242.2593703
21
-217.1514101
0
LINE
8
0
10
242.4931739
20
-217.0539396
11
259.2325351
21
-208.7947935
0
LINE
8
0
10
259.4544422
20
-208.6670268
11
277.8317992
21
-196.4561222
0
LINE
8
0
10
278.6158796
20
-195.4417768
11
285.7124858
21
-174.8429983
0
LINE
8
0
10
287.6047521
20
-173.4944533
11
301.9657172
21
-173.5040669
0
LINE
8
0
10
303.4238946
20
-174.1366557
11
317.0026171
21
-188.6300075
0
LINE
8
0
10
317.6806711
20
-189.1036064
11
333.8606875
21
-195.9716159
0
LINE
8
0
10
336.4831594
20
-194.9120683
11
355.6289848
21
-149.8073305
0
ARC
8
0
10
339.5812908
20
-138.6500471
40
2
50
200.0531511
51
247.0000025
0
ARC
8
0
10
331.086018
20
-127.0421648
40
2
50
20.0531511
51
78.9999999
0
ARC
8
0
10
314.188656
20
-119.6827836
40
2
50
211.571462
51
258.9999999
0
ARC
8
0
10
307.6208222
20
-116.6349766
40
2
50
31.571462
51
85.9999987
0
ARC
8
0
10
290.1902623
20
-115.4161131
40
2
50
85.9999987
51
159.6805995
0
ARC
8
0
10
284.7852866
20
-118.4934978
40
2
50
270
51
339.6805995
0
ARC
8
0
10
227.6512673
20
-122.4934978
40
2
50
90
51
179.2461491
0
ARC
8
0
10
223.2035527
20
-156.4934978
40
2
50
270
51
359.2461491
0
ARC
8
0
10
210.17741
20
-160.4934978
40
2
50
90
51
180
0
ARC
8
0
10
210.17741
20
-177.1658232
40
2
50
180
51
198.6090499
0
ARC
8
0
10
209.0543216
20
-186.365278
40
2
50
18.2820447
51
18.6090499
0
ARC
8
0
10
224.7327394
20
-221.0710717
40
2
50
198.2820447
51
289.000002
0
ARC
8
0
10
241.6082339
20
-215.2603729
40
2
50
289.000002
51
296.2615835
0
ARC
8
0
10
258.347595
20
-207.0012269
40
2
50
296.2615835
51
303.602203
0
ARC
8
0
10
276.7249521
20
-194.7903222
40
2
50
303.602203
51
340.9903566
0
ARC
8
0
10
287.6034133
20
-175.4944529
40
2
50
89.9616462
51
160.9903566
0
ARC
8
0
10
301.9643784
20
-175.5040665
40
2
50
43.1338802
51
89.9616462
0
ARC
8
0
10
318.4621333
20
-187.2625967
40
2
50
223.1338802
51
247.0000025
0
ARC
8
0
10
334.6421496
20
-194.1306061
40
2
50
247.0000025
51
337.0000025
0
ARC
8
0
10
353.787975
20
-149.0258684
40
2
50
337.0000025
51
67.0000025
0
ENDSEC
0
EOF