0
SECTION
2
HEADER
9
$INSUNITS
70
4
0
ENDSEC
0
SECTION
2
TABLES
0
TABLE
2
LTYPE
0
LTYPE
72
65
70
64
2
CONTINUOUS
3
______
73
0
40
0
0
ENDTAB
0
TABLE
2
LAYER
0
ENDTAB
0
ENDSEC
0
SECTION
2
ENTITIES
0
LINE
8
0
10
145.8358682
20
-108.1117457
11
161.6054767
21
-101.417944
0
LINE
8
0
10
162.7027644
20
-100.2627177
11
167.4405374
21
-87.2832686
0
LINE
8
0
10
168.9376693
20
-86.0057976
11
186.5982673
21
-82.5729252
0
LINE
8
0
10
187.9206249
20
-81.656794
11
191.0805075
21
-76.5147404
0
LINE
8
0
10
192.6449702
20
-75.5667356
11
210.07553
21
-74.3478721
0
LINE
8
0
10
212.0905858
20
-75.6484938
11
213.7444759
21
-80.1148914
0
LINE
8
0
10
215.6200187
20
-81.420385
11
272.754038
21
-81.420385
0
LINE
8
0
10
274.7538649
20
-83.3940713
11
275.2019257
21
-117.4466985
0
LINE
8
0
10
277.2017526
20
-119.4203849
11
290.2278953
21
-119.4203849
0
LINE
8
0
10
292.2278953
20
-121.4203849
11
292.2278953
21
-138.09271
0
LINE
8
0
10
292.1233314
20
-138.730928
11
289.4555425
21
-146.653963
0
LINE
8
0
10
289.4519309
20
-146.6647912
11
277.5716137
21
-182.6253487
0
LINE
8
0
10
275.0214296
20
-183.888996
11
258.1459351
21
-178.0782973
0
LINE
8
0
10
257.9121315
20
-177.9808268
11
241.1727703
21
-169.7216807
0
LINE
8
0
10
240.9508632
20
-169.593914
11
222.5735062
21
-157.3830094
0
LINE
8
0
10
221.7894258
20
-156.368664
11
214.6928196
21
-135.7698855
0
LINE
8
0
10
212.8005532
20
-134.4213405
11
198.4395881
21
-134.430954
0
LINE
8
0
10
196.9814107
20
-135.0635428
11
183.4026882
21
-149.5568946
0
LINE
8
0
10
182.7246342
20
-150.0304935
11
166.5446178
21
-156.898503
0
LINE
8
0
10
163.9221459
20
-155.8389554
11
144.7763206
21
-110.7342176
0
ARC
8
0
10
160.8240146
20
-99.5769343
40
2
50
292.9999975
51
339.9468489
0
ARC
8
0
10
169.3192873
20
-87.969052
40
2
50
101.0000001
51
159.9468489
0
ARC
8
0
10
186.2166493
20
-80.6096708
40
2
50
281.0000001
51
328.428538
0
ARC
8
0
10
192.7844832
20
-77.5618637
40
2
50
94.0000013
51
148.428538
0
ARC
8
0
10
210.215043
20
-76.3430002
40
2
50
20.3194005
51
94.0000013
0
ARC
8
0
10
215.6200187
20
-79.420385
40
2
50
200.3194005
51
270
0
ARC
8
0
10
272.754038
20
-83.4203849
40
2
50
0.7538509
51
90
0
ARC
8
0
10
277.2017526
20
-117.4203849
40
2
50
180.7538509
51
270
0
ARC
8
0
10
290.2278953
20
-121.4203849
40
2
50
0
51
90
0
ARC
8
0
10
290.2278953
20
-138.09271
40
2
50
341.3909501
51
0
0
ARC
8
0
10
291.3509786
20
-147.292181
40
2
50
161.3909501
51
161.7179553
0
ARC
8
0
10
275.672566
20
-181.9979589
40
2
50
250.999998
51
341.7179553
0
ARC
8
0
10
258.7970715
20
-176.1872601
40
2
50
243.7384165
51
250.999998
0
ARC
8
0
10
242.0577104
20
-167.9281141
40
2
50
236.397797
51
243.7384165
0
ARC
8
0
10
223.6803533
20
-155.7172094
40
2
50
199.0096434
51
236.397797
0
ARC
8
0
10
212.801892
20
-136.4213401
40
2
50
19.0096434
51
90.0383538
0
ARC
8
0
10
198.4409269
20
-136.4309536
40
2
50
90.0383538
51
136.8661198
0
ARC
8
0
10
181.943172
20
-148.1894838
40
2
50
292.9999975
51
316.8661198
0
ARC
8
0
10
165.7631557
20
-155.0574932
40
2
50
202.9999975
51
292.9999975
0
ARC
8
0
10
146.6173304
20
-109.9527555
40
2
50
112.9999975
51
202.9999975
0
LINE
8
0
10
165.3658253
20
-156.0409202
11
181.4746603
21
-149.2031255
0
LINE
8
0
10
181.4746603
20
-149.2031255
11
175.0275967
21
-134.0147954
0
LINE
8
0
10
175.0275967
20
-134.0147954
11
158.9187617
21
-140.8525901
0
LINE
8
0
10
158.9187617
20
-140.8525901
11
165.3658253
21
-156.0409202
0
LINE
8
0
10
158.7233962
20
-140.3923377
11
174.8322312
21
-133.554543
0
LINE
8
0
10
174.8322312
20
-133.554543
11
168.3851676
21
-118.3662129
0
LINE
8
0
10
168.3851676
20
-118.3662129
11
152.2763326
21
-125.2040076
0
LINE
8
0
10
152.2763326
20
-125.2040076
11
158.7233962
21
-140.3923377
0
LINE
8
0
10
152.080967
20
-124.7437552
11
168.189802
21
-117.9059605
0
LINE
8
0
10
168.189802
20
-117.9059605
11
161.7427384
21
-102.7176304
0
LINE
8
0
10
161.7427384
20
-102.7176304
11
145.6339034
21
-109.5554251
0
LINE
8
0
10
145.6339034
20
-109.5554251
11
152.080967
21
-124.7437552
0
LINE
8
0
10
178.9295148
20
-136.7821685
11
196.1079905
21
-133.4430111
0
LINE
8
0
10
196.1079905
20
-133.4430111
11
192.959642
21
-117.2461625
0
LINE
8
0
10
192.959642
20
-117.2461625
11
175.7811663
21
-120.5853199
0
LINE
8
0
10
175.7811663
20
-120.5853199
11
178.9295148
21
-136.7821685
0
LINE
8
0
10
175.6857619
20
-120.0945064
11
192.8642376
21
-116.755349
0
LINE
8
0
10
192.8642376
20
-116.755349
11
189.7158891
21
-100.5585004
0
LINE
8
0
10
189.7158891
20
-100.5585004
11
172.5374134
21
-103.8976578
0
LINE
8
0
10
172.5374134
20
-103.8976578
11
175.6857619
21
-120.0945064
0
LINE
8
0
10
172.4420089
20
-103.4068444
11
189.6204846
21
-100.067687
0
LINE
8
0
10
189.6204846
20
-100.067687
11
186.4721361
21
-83.8708384
0
LINE
8
0
10
186.4721361
20
-83.8708384
11
169.2936604
21
-87.2099958
0
LINE
8
0
10
169.2936604
20
-87.2099958
11
172.4420089
21
-103.4068444
0
LINE
8
0
10
196.4758381
20
-127.1752234
11
213.9332089
21
-125.9544851
0
LINE
8
0
10
213.9332089
20
-125.9544851
11
212.7822271
21
-109.4946782
0
LINE
8
0
10
212.7822271
20
-109.4946782
11
195.3248563
21
-110.7154165
0
LINE
8
0
10
195.3248563
20
-110.7154165
11
196.4758381
21
-127.1752234
0
LINE
8
0
10
195.289978
20
-110.2166346
11
212.7473488
21
-108.9958963
0
LINE
8
0
10
212.7473488
20
-108.9958963
11
211.596367
21
-92.5360894
0
LINE
8
0
10
211.596367
20
-92.5360894
11
194.1389962
21
-93.7568277
0
LINE
8
0
10
194.1389962
20
-93.7568277
11
195.289978
21
-110.2166346
0
LINE
8
0
10
194.1041179
20
-93.2580457
11
211.5614887
21
-92.0373074
0
LINE
8
0
10
211.5614887
20
-92.0373074
11
210.4105069
21
-75.5775005
0
LINE
8
0
10
210.4105069
20
-75.5775005
11
192.9531361
21
-76.7982388
0
LINE
8
0
10
192.9531361
20
-76.7982388
11
194.1041179
21
-93.2580457
0
LINE
8
0
10
215.4778952
20
-133.170385
11
232.9778952
21
-133.170385
0
LINE
8
0
10
232.9778952
20
-133.170385
11
232.9778952
21
-116.670385
0
LINE
8
0
10
232.9778952
20
-116.670385
11
215.4778952
21
-116.670385
0
LINE
8
0
10
215.4778952
20
-116.670385
11
215.4778952
21
-133.170385
0
LINE
8
0
10
215.4778952
20
-116.170385
11
232.9778952
21
-116.170385
0
LINE
8
0
10
232.9778952
20
-116.170385
11
232.9778952
21
-99.670385
0
LINE
8
0
10
232.9778952
20
-99.670385
11
215.4778952
21
-99.670385
0
LINE
8
0
10
215.4778952
20
-99.670385
11
215.4778952
21
-116.170385
0
LINE
8
0
10
215.4778952
20
-99.170385
11
232.9778952
21
-99.170385
0
LINE
8
0
10
232.9778952
20
-99.170385
11
232.9778952
21
-82.670385
0
LINE
8
0
10
232.9778952
20
-82.670385
11
215.4778952
21
-82.670385
0
LINE
8
0
10
215.4778952
20
-82.670385
11
215.4778952
21
-99.170385
0
LINE
8
0
10
233.4778953
20
-133.1703849
11
250.9778953
21
-133.1703849
0
LINE
8
0
10
250.9778953
20
-133.1703849
11
250.9778953
21
-116.6703849
0
LINE
8
0
10
250.9778953
20
-116.6703849
11
233.4778953
21
-116.6703849
0
LINE
8
0
10
233.4778953
20
-116.6703849
11
233.4778953
21
-133.1703849
0
LINE
8
0
10
233.4778953
20
-116.1703849
11
250.9778953
21
-116.1703849
0
LINE
8
0
10
250.9778953
20
-116.1703849
11
250.9778953
21
-99.6703849
0
LINE
8
0
10
250.9778953
20
-99.6703849
11
233.4778953
21
-99.6703849
0
LINE
8
0
10
233.4778953
20
-99.6703849
11
233.4778953
21
-116.1703849
0
LINE
8
0
10
233.4778953
20
-99.1703849
11
250.9778953
21
-99.1703849
0
LINE
8
0
10
250.9778953
20
-99.1703849
11
250.9778953
21
-82.6703849
0
LINE
8
0
10
250.9778953
20
-82.6703849
11
233.4778953
21
-82.6703849
0
LINE
8
0
10
233.4778953
20
-82.6703849
11
233.4778953
21
-99.1703849
0
LINE
8
0
10
223.5407871
20
-156.1246064
11
240.4444891
21
-160.6539397
0
LINE
8
0
10
240.4444891
20
-160.6539397
11
244.7150033
21
-144.7161636
0
LINE
8
0
10
244.7150033
20
-144.7161636
11
227.8113013
21
-140.1868303
0
LINE
8
0
10
227.8113013
20
-140.1868303
11
223.5407871
21
-156.1246064
0
LINE
8
0
10
242.6185645
20
-168.8349984
11
259.3538978
21
-173.9515033
0
LINE
8
0
10
259.3538978
20
-173.9515033
11
264.1780309
21
-158.1724748
0
LINE
8
0
10
264.1780309
20
-158.1724748
11
247.4426976
21
-153.0559699
0
LINE
8
0
10
247.4426976
20
-153.0559699
11
242.6185645
21
-168.8349984
0
LINE
8
0
10
264.6939423
20
-154.7748528
11
269.8104472
21
-138.0395195
0
LINE
8
0
10
269.8104472
20
-138.0395195
11
254.0314187
21
-133.2153864
0
LINE
8
0
10
254.0314187
20
-133.2153864
11
248.9149138
21
-149.9507197
0
LINE
8
0
10
248.9149138
20
-149.9507197
11
264.6939423
21
-154.7748528
0
LINE
8
0
10
259.6147994
20
-177.262042
11
276.1613745
21
-182.9594847
0
LINE
8
0
10
276.1613745
20
-182.9594847
11
281.533249
21
-167.3584282
0
LINE
8
0
10
281.533249
20
-167.3584282
11
264.9866739
21
-161.6609855
0
LINE
8
0
10
264.9866739
20
-161.6609855
11
259.6147994
21
-177.262042
0
LINE
8
0
10
282.1674215
20
-163.980881
11
287.8648642
21
-147.4343059
0
LINE
8
0
10
287.8648642
20
-147.4343059
11
272.2638077
21
-142.0624314
0
LINE
8
0
10
272.2638077
20
-142.0624314
11
266.566365
21
-158.6090065
0
LINE
8
0
10
266.566365
20
-158.6090065
11
282.1674215
21
-163.980881
0
LINE
8
0
10
273.4778953
20
-137.1703849
11
290.9778953
21
-137.1703849
0
LINE
8
0
10
290.9778953
20
-137.1703849
11
290.9778953
21
-120.6703849
0
LINE
8
0
10
290.9778953
20
-120.6703849
11
273.4778953
21
-120.6703849
0
LINE
8
0
10
273.4778953
20
-120.6703849
11
273.4778953
21
-137.1703849
0
LINE
8
0
10
253.4778953
20
-110.1703849
11
270.9778953
21
-110.1703849
0
LINE
8
0
10
270.9778953
20
-110.1703849
11
270.9778953
21
-93.6703849
0
LINE
8
0
10
270.9778953
20
-93.6703849
11
253.4778953
21
-93.6703849
0
LINE
8
0
10
253.4778953
20
-93.6703849
11
253.4778953
21
-110.1703849
0
ENDSEC
0
EOF