0
SECTION
2
HEADER
9
$INSUNITS
70
4
0
ENDSEC
0
SECTION
2
TABLES
0
TABLE
2
LTYPE
0
LTYPE
72
65
70
64
2
CONTINUOUS
3
______
73
0
40
0
0
ENDTAB
0
TABLE
2
LAYER
0
ENDTAB
0
ENDSEC
0
SECTION
2
ENTITIES
0
LINE
8
0
10
354.5694372
20
-147.1848586
11
338.7998287
21
-140.4910569
0
LINE
8
0
10
337.702541
20
-139.3358306
11
332.9647679
21
-126.3563814
0
LINE
8
0
10
331.467636
20
-125.0789104
11
313.807038
21
-121.646038
0
LINE
8
0
10
312.4846804
20
-120.7299068
11
309.3247978
21
-115.5878533
0
LINE
8
0
10
307.7603351
20
-114.6398485
11
290.3297753
21
-113.420985
0
LINE
8
0
10
288.3147195
20
-114.7216067
11
286.6608294
21
-119.1880042
0
LINE
8
0
10
223.67741
20
-120.4934978
11
284.7852866
21
-120.4934978
0
LINE
8
0
10
221.67741
20
-122.4934978
11
221.67741
21
-156.4934978
0
LINE
8
0
10
219.67741
20
-158.4934978
11
210.17741
21
-158.4934978
0
LINE
8
0
10
208.17741
20
-160.4934978
11
208.17741
21
-177.1658232
0
LINE
8
0
10
208.281974
20
-177.8040412
11
210.9497576
21
-185.72706
0
LINE
8
0
10
210.9533693
20
-185.7378882
11
222.8336917
21
-221.6984615
0
LINE
8
0
10
225.3838758
20
-222.9621088
11
242.2593703
21
-217.1514101
0
LINE
8
0
10
242.4931739
20
-217.0539396
11
259.2325351
21
-208.7947935
0
LINE
8
0
10
259.4544422
20
-208.6670268
11
277.8317992
21
-196.4561222
0
LINE
8
0
10
278.6158796
20
-195.4417768
11
285.7124858
21
-174.8429983
0
LINE
8
0
10
287.6047521
20
-173.4944533
11
301.9657172
21
-173.5040669
0
LINE
8
0
10
303.4238946
20
-174.1366557
11
317.0026171
21
-188.6300075
0
LINE
8
0
10
317.6806711
20
-189.1036064
11
333.8606875
21
-195.9716159
0
LINE
8
0
10
336.4831594
20
-194.9120683
11
355.6289848
21
-149.8073305
0
ARC
8
0
10
339.5812908
20
-138.6500471
40
2
50
200.0531511
51
247.0000025
0
ARC
8
0
10
331.086018
20
-127.0421648
40
2
50
20.0531511
51
78.9999999
0
ARC
8
0
10
314.188656
20
-119.6827836
40
2
50
211.571462
51
258.9999999
0
ARC
8
0
10
307.6208222
20
-116.6349766
40
2
50
31.571462
51
85.9999987
0
ARC
8
0
10
290.1902623
20
-115.4161131
40
2
50
85.9999987
51
159.6805995
0
ARC
8
0
10
284.7852866
20
-118.4934978
40
2
50
270
51
339.6805995
0
ARC
8
0
10
223.67741
20
-122.4934978
40
2
50
90
51
180
0
ARC
8
0
10
219.67741
20
-156.4934978
40
2
50
270
51
0
0
ARC
8
0
10
210.17741
20
-160.4934978
40
2
50
90
51
180
0
ARC
8
0
10
210.17741
20
-177.1658232
40
2
50
180
51
198.6090499
0
ARC
8
0
10
209.0543216
20
-186.365278
40
2
50
18.2820447
51
18.6090499
0
ARC
8
0
10
224.7327394
20
-221.0710717
40
2
50
198.2820447
51
289.000002
0
ARC
8
0
10
241.6082339
20
-215.2603729
40
2
50
289.000002
51
296.2615835
0
ARC
8
0
10
258.347595
20
-207.0012269
40
2
50
296.2615835
51
303.602203
0
ARC
8
0
10
276.7249521
20
-194.7903222
40
2
50
303.602203
51
340.9903566
0
ARC
8
0
10
287.6034133
20
-175.4944529
40
2
50
89.9616462
51
160.9903566
0
ARC
8
0
10
301.9643784
20
-175.5040665
40
2
50
43.1338802
51
89.9616462
0
ARC
8
0
10
318.4621333
20
-187.2625967
40
2
50
223.1338802
51
247.0000025
0
ARC
8
0
10
334.6421496
20
-194.1306061
40
2
50
247.0000025
51
337.0000025
0
ARC
8
0
10
353.787975
20
-149.0258684
40
2
50
337.0000025
51
67.0000025
0
LINE
8
0
10
318.930645
20
-188.2762384
11
335.03948
21
-195.1140331
0
LINE
8
0
10
335.03948
20
-195.1140331
11
341.4865436
21
-179.925703
0
LINE
8
0
10
341.4865436
20
-179.925703
11
325.3777086
21
-173.0879083
0
LINE
8
0
10
325.3777086
20
-173.0879083
11
318.930645
21
-188.2762384
0
LINE
8
0
10
325.5730742
20
-172.6276559
11
341.6819092
21
-179.4654506
0
LINE
8
0
10
341.6819092
20
-179.4654506
11
348.1289728
21
-164.2771205
0
LINE
8
0
10
348.1289728
20
-164.2771205
11
332.0201378
21
-157.4393258
0
LINE
8
0
10
332.0201378
20
-157.4393258
11
325.5730742
21
-172.6276559
0
LINE
8
0
10
332.2155034
20
-156.9790734
11
348.3243384
21
-163.8168681
0
LINE
8
0
10
348.3243384
20
-163.8168681
11
354.771402
21
-148.628538
0
LINE
8
0
10
354.771402
20
-148.628538
11
338.662567
21
-141.7907433
0
LINE
8
0
10
338.662567
20
-141.7907433
11
332.2155034
21
-156.9790734
0
LINE
8
0
10
304.2973148
20
-172.516124
11
321.4757905
21
-175.8552814
0
LINE
8
0
10
321.4757905
20
-175.8552814
11
324.624139
21
-159.6584328
0
LINE
8
0
10
324.624139
20
-159.6584328
11
307.4456633
21
-156.3192754
0
LINE
8
0
10
307.4456633
20
-156.3192754
11
304.2973148
21
-172.516124
0
LINE
8
0
10
307.5410678
20
-155.8284619
11
324.7195435
21
-159.1676193
0
LINE
8
0
10
324.7195435
20
-159.1676193
11
327.867892
21
-142.9707707
0
LINE
8
0
10
327.867892
20
-142.9707707
11
310.6894163
21
-139.6316133
0
LINE
8
0
10
310.6894163
20
-139.6316133
11
307.5410678
21
-155.8284619
0
LINE
8
0
10
310.7848207
20
-139.1407998
11
327.9632964
21
-142.4799572
0
LINE
8
0
10
327.9632964
20
-142.4799572
11
331.1116449
21
-126.2831086
0
LINE
8
0
10
331.1116449
20
-126.2831086
11
313.9331692
21
-122.9439512
0
LINE
8
0
10
313.9331692
20
-122.9439512
11
310.7848207
21
-139.1407998
0
LINE
8
0
10
286.4720964
20
-165.027598
11
303.9294672
21
-166.2483363
0
LINE
8
0
10
303.9294672
20
-166.2483363
11
305.080449
21
-149.7885294
0
LINE
8
0
10
305.080449
20
-149.7885294
11
287.6230782
21
-148.5677911
0
LINE
8
0
10
287.6230782
20
-148.5677911
11
286.4720964
21
-165.027598
0
LINE
8
0
10
287.6579565
20
-148.0690091
11
305.1153273
21
-149.2897474
0
LINE
8
0
10
305.1153273
20
-149.2897474
11
306.2663091
21
-132.8299405
0
LINE
8
0
10
306.2663091
20
-132.8299405
11
288.8089383
21
-131.6092022
0
LINE
8
0
10
288.8089383
20
-131.6092022
11
287.6579565
21
-148.0690091
0
LINE
8
0
10
288.8438166
20
-131.1104203
11
306.3011874
21
-132.3311586
0
LINE
8
0
10
306.3011874
20
-132.3311586
11
307.4521692
21
-115.8713517
0
LINE
8
0
10
307.4521692
20
-115.8713517
11
289.9947984
21
-114.6506134
0
LINE
8
0
10
289.9947984
20
-114.6506134
11
288.8438166
21
-131.1104203
0
LINE
8
0
10
267.4274102
20
-172.2434978
11
284.9274102
21
-172.2434978
0
LINE
8
0
10
284.9274102
20
-172.2434978
11
284.9274102
21
-155.7434978
0
LINE
8
0
10
284.9274102
20
-155.7434978
11
267.4274102
21
-155.7434978
0
LINE
8
0
10
267.4274102
20
-155.7434978
11
267.4274102
21
-172.2434978
0
LINE
8
0
10
267.4274101
20
-155.2434978
11
284.9274101
21
-155.2434978
0
LINE
8
0
10
284.9274101
20
-155.2434978
11
284.9274101
21
-138.7434978
0
LINE
8
0
10
284.9274101
20
-138.7434978
11
267.4274101
21
-138.7434978
0
LINE
8
0
10
267.4274101
20
-138.7434978
11
267.4274101
21
-155.2434978
0
LINE
8
0
10
267.4274101
20
-138.2434978
11
284.9274101
21
-138.2434978
0
LINE
8
0
10
284.9274101
20
-138.2434978
11
284.9274101
21
-121.7434978
0
LINE
8
0
10
284.9274101
20
-121.7434978
11
267.4274101
21
-121.7434978
0
LINE
8
0
10
267.4274101
20
-121.7434978
11
267.4274101
21
-138.2434978
0
LINE
8
0
10
249.42741
20
-172.2434978
11
266.92741
21
-172.2434978
0
LINE
8
0
10
266.92741
20
-172.2434978
11
266.92741
21
-155.7434978
0
LINE
8
0
10
266.92741
20
-155.7434978
11
249.42741
21
-155.7434978
0
LINE
8
0
10
249.42741
20
-155.7434978
11
249.42741
21
-172.2434978
0
LINE
8
0
10
249.42741
20
-155.2434978
11
266.92741
21
-155.2434978
0
LINE
8
0
10
266.92741
20
-155.2434978
11
266.92741
21
-138.7434978
0
LINE
8
0
10
266.92741
20
-138.7434978
11
249.42741
21
-138.7434978
0
LINE
8
0
10
249.42741
20
-138.7434978
11
249.42741
21
-155.2434978
0
LINE
8
0
10
249.42741
20
-138.2434978
11
266.92741
21
-138.2434978
0
LINE
8
0
10
266.92741
20
-138.2434978
11
266.92741
21
-121.7434978
0
LINE
8
0
10
266.92741
20
-121.7434978
11
249.42741
21
-121.7434978
0
LINE
8
0
10
249.42741
20
-121.7434978
11
249.42741
21
-138.2434978
0
LINE
8
0
10
259.9608163
20
-199.7270525
11
276.8645183
21
-195.1977192
0
LINE
8
0
10
276.8645183
20
-195.1977192
11
272.5940041
21
-179.2599431
0
LINE
8
0
10
272.5940041
20
-179.2599431
11
255.6903021
21
-183.7892764
0
LINE
8
0
10
255.6903021
20
-183.7892764
11
259.9608163
21
-199.7270525
0
LINE
8
0
10
241.0514076
20
-213.0246161
11
257.7867409
21
-207.9081112
0
LINE
8
0
10
257.7867409
20
-207.9081112
11
252.9626078
21
-192.1290827
0
LINE
8
0
10
252.9626078
20
-192.1290827
11
236.2272745
21
-197.2455876
0
LINE
8
0
10
236.2272745
20
-197.2455876
11
241.0514076
21
-213.0246161
0
LINE
8
0
10
230.5948582
20
-177.1126323
11
235.7113631
21
-193.8479656
0
LINE
8
0
10
235.7113631
20
-193.8479656
11
251.4903916
21
-189.0238325
0
LINE
8
0
10
251.4903916
20
-189.0238325
11
246.3738867
21
-172.2884992
0
LINE
8
0
10
246.3738867
20
-172.2884992
11
230.5948582
21
-177.1126323
0
LINE
8
0
10
224.2439309
20
-222.0325975
11
240.790506
21
-216.3351548
0
LINE
8
0
10
240.790506
20
-216.3351548
11
235.4186315
21
-200.7340983
0
LINE
8
0
10
235.4186315
20
-200.7340983
11
218.8720564
21
-206.431541
0
LINE
8
0
10
218.8720564
20
-206.431541
11
224.2439309
21
-222.0325975
0
LINE
8
0
10
212.5404412
20
-186.5074187
11
218.2378839
21
-203.0539938
0
LINE
8
0
10
218.2378839
20
-203.0539938
11
233.8389404
21
-197.6821193
0
LINE
8
0
10
233.8389404
20
-197.6821193
11
228.1414977
21
-181.1355442
0
LINE
8
0
10
228.1414977
20
-181.1355442
11
212.5404412
21
-186.5074187
0
LINE
8
0
10
209.42741
20
-176.2434978
11
226.92741
21
-176.2434978
0
LINE
8
0
10
226.92741
20
-176.2434978
11
226.92741
21
-159.7434978
0
LINE
8
0
10
226.92741
20
-159.7434978
11
209.42741
21
-159.7434978
0
LINE
8
0
10
209.42741
20
-159.7434978
11
209.42741
21
-176.2434978
0
ENDSEC
0
EOF