0
SECTION
2
HEADER
9
$INSUNITS
70
4
0
ENDSEC
0
SECTION
2
TABLES
0
TABLE
2
LTYPE
0
LTYPE
72
65
70
64
2
CONTINUOUS
3
______
73
0
40
0
0
ENDTAB
0
TABLE
2
LAYER
0
ENDTAB
0
ENDSEC
0
SECTION
2
ENTITIES
0
LINE
8
0
10
446.6199224
20
-108.1117457
11
430.8503139
21
-101.417944
0
LINE
8
0
10
429.7530262
20
-100.2627177
11
425.0152532
21
-87.2832686
0
LINE
8
0
10
423.5181213
20
-86.0057976
11
405.8575233
21
-82.5729252
0
LINE
8
0
10
404.5351657
20
-81.656794
11
401.3752831
21
-76.5147404
0
LINE
8
0
10
399.8108204
20
-75.5667356
11
382.3802606
21
-74.3478721
0
LINE
8
0
10
380.3652048
20
-75.6484938
11
378.7113147
21
-80.1148914
0
LINE
8
0
10
319.7017526
20
-81.420385
11
376.8357719
21
-81.420385
0
LINE
8
0
10
317.7019257
20
-83.3940713
11
317.2538649
21
-117.4466985
0
LINE
8
0
10
315.254038
20
-119.4203849
11
302.2278953
21
-119.4203849
0
LINE
8
0
10
300.2278953
20
-121.4203849
11
300.2278953
21
-138.09271
0
LINE
8
0
10
300.3324592
20
-138.730928
11
303.0002481
21
-146.653963
0
LINE
8
0
10
303.0038597
20
-146.6647912
11
314.8841769
21
-182.6253487
0
LINE
8
0
10
317.434361
20
-183.888996
11
334.3098555
21
-178.0782973
0
LINE
8
0
10
334.5436591
20
-177.9808268
11
351.2830203
21
-169.7216807
0
LINE
8
0
10
351.5049274
20
-169.593914
11
369.8822844
21
-157.3830094
0
LINE
8
0
10
370.6663648
20
-156.368664
11
377.762971
21
-135.7698855
0
LINE
8
0
10
379.6552374
20
-134.4213405
11
394.0162025
21
-134.430954
0
LINE
8
0
10
395.4743799
20
-135.0635428
11
409.0531024
21
-149.5568946
0
LINE
8
0
10
409.7311564
20
-150.0304935
11
425.9111728
21
-156.898503
0
LINE
8
0
10
428.5336447
20
-155.8389554
11
447.67947
21
-110.7342176
0
ARC
8
0
10
431.631776
20
-99.5769343
40
2
50
200.0531511
51
247.0000025
0
ARC
8
0
10
423.1365033
20
-87.969052
40
2
50
20.0531511
51
78.9999999
0
ARC
8
0
10
406.2391413
20
-80.6096708
40
2
50
211.571462
51
258.9999999
0
ARC
8
0
10
399.6713074
20
-77.5618637
40
2
50
31.571462
51
85.9999987
0
ARC
8
0
10
382.2407476
20
-76.3430002
40
2
50
85.9999987
51
159.6805995
0
ARC
8
0
10
376.8357719
20
-79.420385
40
2
50
270
51
339.6805995
0
ARC
8
0
10
319.7017526
20
-83.4203849
40
2
50
90
51
179.2461491
0
ARC
8
0
10
315.254038
20
-117.4203849
40
2
50
270
51
359.2461491
0
ARC
8
0
10
302.2278953
20
-121.4203849
40
2
50
90
51
180
0
ARC
8
0
10
302.2278953
20
-138.09271
40
2
50
180
51
198.6090499
0
ARC
8
0
10
301.104812
20
-147.292181
40
2
50
18.2820447
51
18.6090499
0
ARC
8
0
10
316.7832246
20
-181.9979589
40
2
50
198.2820447
51
289.000002
0
ARC
8
0
10
333.6587191
20
-176.1872601
40
2
50
289.000002
51
296.2615835
0
ARC
8
0
10
350.3980802
20
-167.9281141
40
2
50
296.2615835
51
303.602203
0
ARC
8
0
10
368.7754373
20
-155.7172094
40
2
50
303.602203
51
340.9903566
0
ARC
8
0
10
379.6538986
20
-136.4213401
40
2
50
89.9616462
51
160.9903566
0
ARC
8
0
10
394.0148637
20
-136.4309536
40
2
50
43.1338802
51
89.9616462
0
ARC
8
0
10
410.5126186
20
-148.1894838
40
2
50
223.1338802
51
247.0000025
0
ARC
8
0
10
426.6926349
20
-155.0574932
40
2
50
247.0000025
51
337.0000025
0
ARC
8
0
10
445.8384602
20
-109.9527555
40
2
50
337.0000025
51
67.0000025
0
LINE
8
0
10
410.9811303
20
-149.2031255
11
427.0899653
21
-156.0409202
0
LINE
8
0
10
427.0899653
20
-156.0409202
11
433.5370289
21
-140.8525901
0
LINE
8
0
10
433.5370289
20
-140.8525901
11
417.4281939
21
-134.0147954
0
LINE
8
0
10
417.4281939
20
-134.0147954
11
410.9811303
21
-149.2031255
0
LINE
8
0
10
417.6235594
20
-133.554543
11
433.7323944
21
-140.3923377
0
LINE
8
0
10
433.7323944
20
-140.3923377
11
440.179458
21
-125.2040076
0
LINE
8
0
10
440.179458
20
-125.2040076
11
424.070623
21
-118.3662129
0
LINE
8
0
10
424.070623
20
-118.3662129
11
417.6235594
21
-133.554543
0
LINE
8
0
10
424.2659886
20
-117.9059605
11
440.3748236
21
-124.7437552
0
LINE
8
0
10
440.3748236
20
-124.7437552
11
446.8218872
21
-109.5554251
0
LINE
8
0
10
446.8218872
20
-109.5554251
11
430.7130522
21
-102.7176304
0
LINE
8
0
10
430.7130522
20
-102.7176304
11
424.2659886
21
-117.9059605
0
LINE
8
0
10
396.3478001
20
-133.4430111
11
413.5262758
21
-136.7821685
0
LINE
8
0
10
413.5262758
20
-136.7821685
11
416.6746243
21
-120.5853199
0
LINE
8
0
10
416.6746243
20
-120.5853199
11
399.4961486
21
-117.2461625
0
LINE
8
0
10
399.4961486
20
-117.2461625
11
396.3478001
21
-133.4430111
0
LINE
8
0
10
399.591553
20
-116.755349
11
416.7700287
21
-120.0945064
0
LINE
8
0
10
416.7700287
20
-120.0945064
11
419.9183772
21
-103.8976578
0
LINE
8
0
10
419.9183772
20
-103.8976578
11
402.7399015
21
-100.5585004
0
LINE
8
0
10
402.7399015
20
-100.5585004
11
399.591553
21
-116.755349
0
LINE
8
0
10
402.835306
20
-100.067687
11
420.0137817
21
-103.4068444
0
LINE
8
0
10
420.0137817
20
-103.4068444
11
423.1621302
21
-87.2099958
0
LINE
8
0
10
423.1621302
20
-87.2099958
11
405.9836545
21
-83.8708384
0
LINE
8
0
10
405.9836545
20
-83.8708384
11
402.835306
21
-100.067687
0
LINE
8
0
10
378.5225817
20
-125.9544851
11
395.9799525
21
-127.1752234
0
LINE
8
0
10
395.9799525
20
-127.1752234
11
397.1309343
21
-110.7154165
0
LINE
8
0
10
397.1309343
20
-110.7154165
11
379.6735635
21
-109.4946782
0
LINE
8
0
10
379.6735635
20
-109.4946782
11
378.5225817
21
-125.9544851
0
LINE
8
0
10
379.7084418
20
-108.9958963
11
397.1658126
21
-110.2166346
0
LINE
8
0
10
397.1658126
20
-110.2166346
11
398.3167944
21
-93.7568277
0
LINE
8
0
10
398.3167944
20
-93.7568277
11
380.8594236
21
-92.5360894
0
LINE
8
0
10
380.8594236
20
-92.5360894
11
379.7084418
21
-108.9958963
0
LINE
8
0
10
380.8943019
20
-92.0373074
11
398.3516727
21
-93.2580457
0
LINE
8
0
10
398.3516727
20
-93.2580457
11
399.5026545
21
-76.7982388
0
LINE
8
0
10
399.5026545
20
-76.7982388
11
382.0452837
21
-75.5775005
0
LINE
8
0
10
382.0452837
20
-75.5775005
11
380.8943019
21
-92.0373074
0
LINE
8
0
10
359.4778954
20
-133.170385
11
376.9778954
21
-133.170385
0
LINE
8
0
10
376.9778954
20
-133.170385
11
376.9778954
21
-116.670385
0
LINE
8
0
10
376.9778954
20
-116.670385
11
359.4778954
21
-116.670385
0
LINE
8
0
10
359.4778954
20
-116.670385
11
359.4778954
21
-133.170385
0
LINE
8
0
10
359.4778954
20
-116.170385
11
376.9778954
21
-116.170385
0
LINE
8
0
10
376.9778954
20
-116.170385
11
376.9778954
21
-99.670385
0
LINE
8
0
10
376.9778954
20
-99.670385
11
359.4778954
21
-99.670385
0
LINE
8
0
10
359.4778954
20
-99.670385
11
359.4778954
21
-116.170385
0
LINE
8
0
10
359.4778954
20
-99.170385
11
376.9778954
21
-99.170385
0
LINE
8
0
10
376.9778954
20
-99.170385
11
376.9778954
21
-82.670385
0
LINE
8
0
10
376.9778954
20
-82.670385
11
359.4778954
21
-82.670385
0
LINE
8
0
10
359.4778954
20
-82.670385
11
359.4778954
21
-99.170385
0
LINE
8
0
10
341.4778953
20
-133.1703849
11
358.9778953
21
-133.1703849
0
LINE
8
0
10
358.9778953
20
-133.1703849
11
358.9778953
21
-116.6703849
0
LINE
8
0
10
358.9778953
20
-116.6703849
11
341.4778953
21
-116.6703849
0
LINE
8
0
10
341.4778953
20
-116.6703849
11
341.4778953
21
-133.1703849
0
LINE
8
0
10
341.4778953
20
-116.1703849
11
358.9778953
21
-116.1703849
0
LINE
8
0
10
358.9778953
20
-116.1703849
11
358.9778953
21
-99.6703849
0
LINE
8
0
10
358.9778953
20
-99.6703849
11
341.4778953
21
-99.6703849
0
LINE
8
0
10
341.4778953
20
-99.6703849
11
341.4778953
21
-116.1703849
0
LINE
8
0
10
341.4778953
20
-99.1703849
11
358.9778953
21
-99.1703849
0
LINE
8
0
10
358.9778953
20
-99.1703849
11
358.9778953
21
-82.6703849
0
LINE
8
0
10
358.9778953
20
-82.6703849
11
341.4778953
21
-82.6703849
0
LINE
8
0
10
341.4778953
20
-82.6703849
11
341.4778953
21
-99.1703849
0
LINE
8
0
10
352.0113015
20
-160.6539397
11
368.9150035
21
-156.1246064
0
LINE
8
0
10
368.9150035
20
-156.1246064
11
364.6444893
21
-140.1868303
0
LINE
8
0
10
364.6444893
20
-140.1868303
11
347.7407873
21
-144.7161636
0
LINE
8
0
10
347.7407873
20
-144.7161636
11
352.0113015
21
-160.6539397
0
LINE
8
0
10
333.1018928
20
-173.9515033
11
349.8372261
21
-168.8349984
0
LINE
8
0
10
349.8372261
20
-168.8349984
11
345.013093
21
-153.0559699
0
LINE
8
0
10
345.013093
20
-153.0559699
11
328.2777597
21
-158.1724748
0
LINE
8
0
10
328.2777597
20
-158.1724748
11
333.1018928
21
-173.9515033
0
LINE
8
0
10
322.6453434
20
-138.0395195
11
327.7618483
21
-154.7748528
0
LINE
8
0
10
327.7618483
20
-154.7748528
11
343.5408768
21
-149.9507197
0
LINE
8
0
10
343.5408768
20
-149.9507197
11
338.4243719
21
-133.2153864
0
LINE
8
0
10
338.4243719
20
-133.2153864
11
322.6453434
21
-138.0395195
0
LINE
8
0
10
316.2944161
20
-182.9594847
11
332.8409912
21
-177.262042
0
LINE
8
0
10
332.8409912
20
-177.262042
11
327.4691167
21
-161.6609855
0
LINE
8
0
10
327.4691167
20
-161.6609855
11
310.9225416
21
-167.3584282
0
LINE
8
0
10
310.9225416
20
-167.3584282
11
316.2944161
21
-182.9594847
0
LINE
8
0
10
304.5909264
20
-147.4343059
11
310.2883691
21
-163.980881
0
LINE
8
0
10
310.2883691
20
-163.980881
11
325.8894256
21
-158.6090065
0
LINE
8
0
10
325.8894256
20
-158.6090065
11
320.1919829
21
-142.0624314
0
LINE
8
0
10
320.1919829
20
-142.0624314
11
304.5909264
21
-147.4343059
0
LINE
8
0
10
301.4778953
20
-137.1703849
11
318.9778953
21
-137.1703849
0
LINE
8
0
10
318.9778953
20
-137.1703849
11
318.9778953
21
-120.6703849
0
LINE
8
0
10
318.9778953
20
-120.6703849
11
301.4778953
21
-120.6703849
0
LINE
8
0
10
301.4778953
20
-120.6703849
11
301.4778953
21
-137.1703849
0
LINE
8
0
10
321.4778953
20
-110.1703849
11
338.9778953
21
-110.1703849
0
LINE
8
0
10
338.9778953
20
-110.1703849
11
338.9778953
21
-93.6703849
0
LINE
8
0
10
338.9778953
20
-93.6703849
11
321.4778953
21
-93.6703849
0
LINE
8
0
10
321.4778953
20
-93.6703849
11
321.4778953
21
-110.1703849
0
ENDSEC
0
EOF