0
SECTION
2
HEADER
9
$INSUNITS
70
4
0
ENDSEC
0
SECTION
2
TABLES
0
TABLE
2
LTYPE
0
LTYPE
72
65
70
64
2
CONTINUOUS
3
______
73
0
40
0
0
ENDTAB
0
TABLE
2
LAYER
0
ENDTAB
0
ENDSEC
0
SECTION
2
ENTITIES
0
LINE
8
0
10
165.3658253
20
-156.0409202
11
181.4746603
21
-149.2031255
0
LINE
8
0
10
181.4746603
20
-149.2031255
11
175.0275967
21
-134.0147954
0
LINE
8
0
10
175.0275967
20
-134.0147954
11
158.9187617
21
-140.8525901
0
LINE
8
0
10
158.9187617
20
-140.8525901
11
165.3658253
21
-156.0409202
0
LINE
8
0
10
158.7233962
20
-140.3923377
11
174.8322312
21
-133.554543
0
LINE
8
0
10
174.8322312
20
-133.554543
11
168.3851676
21
-118.3662129
0
LINE
8
0
10
168.3851676
20
-118.3662129
11
152.2763326
21
-125.2040076
0
LINE
8
0
10
152.2763326
20
-125.2040076
11
158.7233962
21
-140.3923377
0
LINE
8
0
10
152.080967
20
-124.7437552
11
168.189802
21
-117.9059605
0
LINE
8
0
10
168.189802
20
-117.9059605
11
161.7427384
21
-102.7176304
0
LINE
8
0
10
161.7427384
20
-102.7176304
11
145.6339034
21
-109.5554251
0
LINE
8
0
10
145.6339034
20
-109.5554251
11
152.080967
21
-124.7437552
0
LINE
8
0
10
178.9295148
20
-136.7821685
11
196.1079905
21
-133.4430111
0
LINE
8
0
10
196.1079905
20
-133.4430111
11
192.959642
21
-117.2461625
0
LINE
8
0
10
192.959642
20
-117.2461625
11
175.7811663
21
-120.5853199
0
LINE
8
0
10
175.7811663
20
-120.5853199
11
178.9295148
21
-136.7821685
0
LINE
8
0
10
175.6857619
20
-120.0945064
11
192.8642376
21
-116.755349
0
LINE
8
0
10
192.8642376
20
-116.755349
11
189.7158891
21
-100.5585004
0
LINE
8
0
10
189.7158891
20
-100.5585004
11
172.5374134
21
-103.8976578
0
LINE
8
0
10
172.5374134
20
-103.8976578
11
175.6857619
21
-120.0945064
0
LINE
8
0
10
172.4420089
20
-103.4068444
11
189.6204846
21
-100.067687
0
LINE
8
0
10
189.6204846
20
-100.067687
11
186.4721361
21
-83.8708384
0
LINE
8
0
10
186.4721361
20
-83.8708384
11
169.2936604
21
-87.2099958
0
LINE
8
0
10
169.2936604
20
-87.2099958
11
172.4420089
21
-103.4068444
0
LINE
8
0
10
196.4758381
20
-127.1752234
11
213.9332089
21
-125.9544851
0
LINE
8
0
10
213.9332089
20
-125.9544851
11
212.7822271
21
-109.4946782
0
LINE
8
0
10
212.7822271
20
-109.4946782
11
195.3248563
21
-110.7154165
0
LINE
8
0
10
195.3248563
20
-110.7154165
11
196.4758381
21
-127.1752234
0
LINE
8
0
10
195.289978
20
-110.2166346
11
212.7473488
21
-108.9958963
0
LINE
8
0
10
212.7473488
20
-108.9958963
11
211.596367
21
-92.5360894
0
LINE
8
0
10
211.596367
20
-92.5360894
11
194.1389962
21
-93.7568277
0
LINE
8
0
10
194.1389962
20
-93.7568277
11
195.289978
21
-110.2166346
0
LINE
8
0
10
194.1041179
20
-93.2580457
11
211.5614887
21
-92.0373074
0
LINE
8
0
10
211.5614887
20
-92.0373074
11
210.4105069
21
-75.5775005
0
LINE
8
0
10
210.4105069
20
-75.5775005
11
192.9531361
21
-76.7982388
0
LINE
8
0
10
192.9531361
20
-76.7982388
11
194.1041179
21
-93.2580457
0
LINE
8
0
10
215.4778952
20
-133.170385
11
232.9778952
21
-133.170385
0
LINE
8
0
10
232.9778952
20
-133.170385
11
232.9778952
21
-116.670385
0
LINE
8
0
10
232.9778952
20
-116.670385
11
215.4778952
21
-116.670385
0
LINE
8
0
10
215.4778952
20
-116.670385
11
215.4778952
21
-133.170385
0
LINE
8
0
10
215.4778952
20
-116.170385
11
232.9778952
21
-116.170385
0
LINE
8
0
10
232.9778952
20
-116.170385
11
232.9778952
21
-99.670385
0
LINE
8
0
10
232.9778952
20
-99.670385
11
215.4778952
21
-99.670385
0
LINE
8
0
10
215.4778952
20
-99.670385
11
215.4778952
21
-116.170385
0
LINE
8
0
10
215.4778952
20
-99.170385
11
232.9778952
21
-99.170385
0
LINE
8
0
10
232.9778952
20
-99.170385
11
232.9778952
21
-82.670385
0
LINE
8
0
10
232.9778952
20
-82.670385
11
215.4778952
21
-82.670385
0
LINE
8
0
10
215.4778952
20
-82.670385
11
215.4778952
21
-99.170385
0
LINE
8
0
10
233.4778953
20
-133.1703849
11
250.9778953
21
-133.1703849
0
LINE
8
0
10
250.9778953
20
-133.1703849
11
250.9778953
21
-116.6703849
0
LINE
8
0
10
250.9778953
20
-116.6703849
11
233.4778953
21
-116.6703849
0
LINE
8
0
10
233.4778953
20
-116.6703849
11
233.4778953
21
-133.1703849
0
LINE
8
0
10
233.4778953
20
-116.1703849
11
250.9778953
21
-116.1703849
0
LINE
8
0
10
250.9778953
20
-116.1703849
11
250.9778953
21
-99.6703849
0
LINE
8
0
10
250.9778953
20
-99.6703849
11
233.4778953
21
-99.6703849
0
LINE
8
0
10
233.4778953
20
-99.6703849
11
233.4778953
21
-116.1703849
0
LINE
8
0
10
233.4778953
20
-99.1703849
11
250.9778953
21
-99.1703849
0
LINE
8
0
10
250.9778953
20
-99.1703849
11
250.9778953
21
-82.6703849
0
LINE
8
0
10
250.9778953
20
-82.6703849
11
233.4778953
21
-82.6703849
0
LINE
8
0
10
233.4778953
20
-82.6703849
11
233.4778953
21
-99.1703849
0
LINE
8
0
10
223.5407871
20
-156.1246064
11
240.4444891
21
-160.6539397
0
LINE
8
0
10
240.4444891
20
-160.6539397
11
244.7150033
21
-144.7161636
0
LINE
8
0
10
244.7150033
20
-144.7161636
11
227.8113013
21
-140.1868303
0
LINE
8
0
10
227.8113013
20
-140.1868303
11
223.5407871
21
-156.1246064
0
LINE
8
0
10
242.6185645
20
-168.8349984
11
259.3538978
21
-173.9515033
0
LINE
8
0
10
259.3538978
20
-173.9515033
11
264.1780309
21
-158.1724748
0
LINE
8
0
10
264.1780309
20
-158.1724748
11
247.4426976
21
-153.0559699
0
LINE
8
0
10
247.4426976
20
-153.0559699
11
242.6185645
21
-168.8349984
0
LINE
8
0
10
264.6939423
20
-154.7748528
11
269.8104472
21
-138.0395195
0
LINE
8
0
10
269.8104472
20
-138.0395195
11
254.0314187
21
-133.2153864
0
LINE
8
0
10
254.0314187
20
-133.2153864
11
248.9149138
21
-149.9507197
0
LINE
8
0
10
248.9149138
20
-149.9507197
11
264.6939423
21
-154.7748528
0
LINE
8
0
10
259.6147994
20
-177.262042
11
276.1613745
21
-182.9594847
0
LINE
8
0
10
276.1613745
20
-182.9594847
11
281.533249
21
-167.3584282
0
LINE
8
0
10
281.533249
20
-167.3584282
11
264.9866739
21
-161.6609855
0
LINE
8
0
10
264.9866739
20
-161.6609855
11
259.6147994
21
-177.262042
0
LINE
8
0
10
282.1674215
20
-163.980881
11
287.8648642
21
-147.4343059
0
LINE
8
0
10
287.8648642
20
-147.4343059
11
272.2638077
21
-142.0624314
0
LINE
8
0
10
272.2638077
20
-142.0624314
11
266.566365
21
-158.6090065
0
LINE
8
0
10
266.566365
20
-158.6090065
11
282.1674215
21
-163.980881
0
LINE
8
0
10
273.4778953
20
-137.1703849
11
290.9778953
21
-137.1703849
0
LINE
8
0
10
290.9778953
20
-137.1703849
11
290.9778953
21
-120.6703849
0
LINE
8
0
10
290.9778953
20
-120.6703849
11
273.4778953
21
-120.6703849
0
LINE
8
0
10
273.4778953
20
-120.6703849
11
273.4778953
21
-137.1703849
0
LINE
8
0
10
253.4778953
20
-110.1703849
11
270.9778953
21
-110.1703849
0
LINE
8
0
10
270.9778953
20
-110.1703849
11
270.9778953
21
-93.6703849
0
LINE
8
0
10
270.9778953
20
-93.6703849
11
253.4778953
21
-93.6703849
0
LINE
8
0
10
253.4778953
20
-93.6703849
11
253.4778953
21
-110.1703849
0
LINE
8
0
10
410.9811303
20
-149.2031255
11
427.0899653
21
-156.0409202
0
LINE
8
0
10
427.0899653
20
-156.0409202
11
433.5370289
21
-140.8525901
0
LINE
8
0
10
433.5370289
20
-140.8525901
11
417.4281939
21
-134.0147954
0
LINE
8
0
10
417.4281939
20
-134.0147954
11
410.9811303
21
-149.2031255
0
LINE
8
0
10
417.6235594
20
-133.554543
11
433.7323944
21
-140.3923377
0
LINE
8
0
10
433.7323944
20
-140.3923377
11
440.179458
21
-125.2040076
0
LINE
8
0
10
440.179458
20
-125.2040076
11
424.070623
21
-118.3662129
0
LINE
8
0
10
424.070623
20
-118.3662129
11
417.6235594
21
-133.554543
0
LINE
8
0
10
424.2659886
20
-117.9059605
11
440.3748236
21
-124.7437552
0
LINE
8
0
10
440.3748236
20
-124.7437552
11
446.8218872
21
-109.5554251
0
LINE
8
0
10
446.8218872
20
-109.5554251
11
430.7130522
21
-102.7176304
0
LINE
8
0
10
430.7130522
20
-102.7176304
11
424.2659886
21
-117.9059605
0
LINE
8
0
10
396.3478001
20
-133.4430111
11
413.5262758
21
-136.7821685
0
LINE
8
0
10
413.5262758
20
-136.7821685
11
416.6746243
21
-120.5853199
0
LINE
8
0
10
416.6746243
20
-120.5853199
11
399.4961486
21
-117.2461625
0
LINE
8
0
10
399.4961486
20
-117.2461625
11
396.3478001
21
-133.4430111
0
LINE
8
0
10
399.591553
20
-116.755349
11
416.7700287
21
-120.0945064
0
LINE
8
0
10
416.7700287
20
-120.0945064
11
419.9183772
21
-103.8976578
0
LINE
8
0
10
419.9183772
20
-103.8976578
11
402.7399015
21
-100.5585004
0
LINE
8
0
10
402.7399015
20
-100.5585004
11
399.591553
21
-116.755349
0
LINE
8
0
10
402.835306
20
-100.067687
11
420.0137817
21
-103.4068444
0
LINE
8
0
10
420.0137817
20
-103.4068444
11
423.1621302
21
-87.2099958
0
LINE
8
0
10
423.1621302
20
-87.2099958
11
405.9836545
21
-83.8708384
0
LINE
8
0
10
405.9836545
20
-83.8708384
11
402.835306
21
-100.067687
0
LINE
8
0
10
378.5225817
20
-125.9544851
11
395.9799525
21
-127.1752234
0
LINE
8
0
10
395.9799525
20
-127.1752234
11
397.1309343
21
-110.7154165
0
LINE
8
0
10
397.1309343
20
-110.7154165
11
379.6735635
21
-109.4946782
0
LINE
8
0
10
379.6735635
20
-109.4946782
11
378.5225817
21
-125.9544851
0
LINE
8
0
10
379.7084418
20
-108.9958963
11
397.1658126
21
-110.2166346
0
LINE
8
0
10
397.1658126
20
-110.2166346
11
398.3167944
21
-93.7568277
0
LINE
8
0
10
398.3167944
20
-93.7568277
11
380.8594236
21
-92.5360894
0
LINE
8
0
10
380.8594236
20
-92.5360894
11
379.7084418
21
-108.9958963
0
LINE
8
0
10
380.8943019
20
-92.0373074
11
398.3516727
21
-93.2580457
0
LINE
8
0
10
398.3516727
20
-93.2580457
11
399.5026545
21
-76.7982388
0
LINE
8
0
10
399.5026545
20
-76.7982388
11
382.0452837
21
-75.5775005
0
LINE
8
0
10
382.0452837
20
-75.5775005
11
380.8943019
21
-92.0373074
0
LINE
8
0
10
359.4778954
20
-133.170385
11
376.9778954
21
-133.170385
0
LINE
8
0
10
376.9778954
20
-133.170385
11
376.9778954
21
-116.670385
0
LINE
8
0
10
376.9778954
20
-116.670385
11
359.4778954
21
-116.670385
0
LINE
8
0
10
359.4778954
20
-116.670385
11
359.4778954
21
-133.170385
0
LINE
8
0
10
359.4778954
20
-116.170385
11
376.9778954
21
-116.170385
0
LINE
8
0
10
376.9778954
20
-116.170385
11
376.9778954
21
-99.670385
0
LINE
8
0
10
376.9778954
20
-99.670385
11
359.4778954
21
-99.670385
0
LINE
8
0
10
359.4778954
20
-99.670385
11
359.4778954
21
-116.170385
0
LINE
8
0
10
359.4778954
20
-99.170385
11
376.9778954
21
-99.170385
0
LINE
8
0
10
376.9778954
20
-99.170385
11
376.9778954
21
-82.670385
0
LINE
8
0
10
376.9778954
20
-82.670385
11
359.4778954
21
-82.670385
0
LINE
8
0
10
359.4778954
20
-82.670385
11
359.4778954
21
-99.170385
0
LINE
8
0
10
341.4778953
20
-133.1703849
11
358.9778953
21
-133.1703849
0
LINE
8
0
10
358.9778953
20
-133.1703849
11
358.9778953
21
-116.6703849
0
LINE
8
0
10
358.9778953
20
-116.6703849
11
341.4778953
21
-116.6703849
0
LINE
8
0
10
341.4778953
20
-116.6703849
11
341.4778953
21
-133.1703849
0
LINE
8
0
10
341.4778953
20
-116.1703849
11
358.9778953
21
-116.1703849
0
LINE
8
0
10
358.9778953
20
-116.1703849
11
358.9778953
21
-99.6703849
0
LINE
8
0
10
358.9778953
20
-99.6703849
11
341.4778953
21
-99.6703849
0
LINE
8
0
10
341.4778953
20
-99.6703849
11
341.4778953
21
-116.1703849
0
LINE
8
0
10
341.4778953
20
-99.1703849
11
358.9778953
21
-99.1703849
0
LINE
8
0
10
358.9778953
20
-99.1703849
11
358.9778953
21
-82.6703849
0
LINE
8
0
10
358.9778953
20
-82.6703849
11
341.4778953
21
-82.6703849
0
LINE
8
0
10
341.4778953
20
-82.6703849
11
341.4778953
21
-99.1703849
0
LINE
8
0
10
352.0113015
20
-160.6539397
11
368.9150035
21
-156.1246064
0
LINE
8
0
10
368.9150035
20
-156.1246064
11
364.6444893
21
-140.1868303
0
LINE
8
0
10
364.6444893
20
-140.1868303
11
347.7407873
21
-144.7161636
0
LINE
8
0
10
347.7407873
20
-144.7161636
11
352.0113015
21
-160.6539397
0
LINE
8
0
10
333.1018928
20
-173.9515033
11
349.8372261
21
-168.8349984
0
LINE
8
0
10
349.8372261
20
-168.8349984
11
345.013093
21
-153.0559699
0
LINE
8
0
10
345.013093
20
-153.0559699
11
328.2777597
21
-158.1724748
0
LINE
8
0
10
328.2777597
20
-158.1724748
11
333.1018928
21
-173.9515033
0
LINE
8
0
10
322.6453434
20
-138.0395195
11
327.7618483
21
-154.7748528
0
LINE
8
0
10
327.7618483
20
-154.7748528
11
343.5408768
21
-149.9507197
0
LINE
8
0
10
343.5408768
20
-149.9507197
11
338.4243719
21
-133.2153864
0
LINE
8
0
10
338.4243719
20
-133.2153864
11
322.6453434
21
-138.0395195
0
LINE
8
0
10
316.2944161
20
-182.9594847
11
332.8409912
21
-177.262042
0
LINE
8
0
10
332.8409912
20
-177.262042
11
327.4691167
21
-161.6609855
0
LINE
8
0
10
327.4691167
20
-161.6609855
11
310.9225416
21
-167.3584282
0
LINE
8
0
10
310.9225416
20
-167.3584282
11
316.2944161
21
-182.9594847
0
LINE
8
0
10
304.5909264
20
-147.4343059
11
310.2883691
21
-163.980881
0
LINE
8
0
10
310.2883691
20
-163.980881
11
325.8894256
21
-158.6090065
0
LINE
8
0
10
325.8894256
20
-158.6090065
11
320.1919829
21
-142.0624314
0
LINE
8
0
10
320.1919829
20
-142.0624314
11
304.5909264
21
-147.4343059
0
LINE
8
0
10
301.4778953
20
-137.1703849
11
318.9778953
21
-137.1703849
0
LINE
8
0
10
318.9778953
20
-137.1703849
11
318.9778953
21
-120.6703849
0
LINE
8
0
10
318.9778953
20
-120.6703849
11
301.4778953
21
-120.6703849
0
LINE
8
0
10
301.4778953
20
-120.6703849
11
301.4778953
21
-137.1703849
0
LINE
8
0
10
321.4778953
20
-110.1703849
11
338.9778953
21
-110.1703849
0
LINE
8
0
10
338.9778953
20
-110.1703849
11
338.9778953
21
-93.6703849
0
LINE
8
0
10
338.9778953
20
-93.6703849
11
321.4778953
21
-93.6703849
0
LINE
8
0
10
321.4778953
20
-93.6703849
11
321.4778953
21
-110.1703849
0
ENDSEC
0
EOF