0
SECTION
2
HEADER
9
$INSUNITS
70
4
0
ENDSEC
0
SECTION
2
TABLES
0
TABLE
2
LTYPE
0
LTYPE
72
65
70
64
2
CONTINUOUS
3
______
73
0
40
0
0
ENDTAB
0
TABLE
2
LAYER
0
ENDTAB
0
ENDSEC
0
SECTION
2
ENTITIES
0
LINE
8
0
10
52.4741469
20
-146.6550849
11
69.9773474
21
-139.225417
0
LINE
8
0
10
71.1317469
20
-137.8868412
11
74.288485
21
-125.7240357
0
LINE
8
0
10
75.8427286
20
-124.2632153
11
95.0772235
21
-120.5244082
0
LINE
8
0
10
96.5817458
20
-119.2263414
11
98.0644513
21
-115.0221281
0
LINE
8
0
10
99.8110787
20
-113.6921876
11
119.4461947
21
-112.3191666
0
LINE
8
0
10
121.1021117
20
-113.0102552
11
126.078915
21
-118.7975372
0
LINE
8
0
10
127.595319
20
-119.4934978
11
185.37741
21
-119.4934978
0
LINE
8
0
10
187.37741
20
-121.4934978
11
187.37741
21
-156.4934978
0
LINE
8
0
10
189.37741
20
-158.4934978
11
199.17741
21
-158.4934978
0
LINE
8
0
10
201.17741
20
-160.4934978
11
201.17741
21
-178.1648598
0
LINE
8
0
10
201.0722466
20
-178.8048554
11
186.1495508
21
-222.9865212
0
LINE
8
0
10
183.6035778
20
-224.2375627
11
164.8228781
21
-217.7708492
0
LINE
8
0
10
164.5918805
20
-217.6747604
11
147.8742096
21
-209.4587985
0
LINE
8
0
10
147.6511548
20
-209.3307507
11
129.3041983
21
-197.1663476
0
LINE
8
0
10
128.5152429
20
-196.1414888
11
121.6310918
21
-175.8319454
0
LINE
8
0
10
119.764294
20
-174.4741742
11
107.5741257
21
-174.3074798
0
LINE
8
0
10
106.0923319
20
-174.9344918
11
92.6619262
21
-189.1636618
0
LINE
8
0
10
91.9889409
20
-189.6318706
11
73.9643588
21
-197.2828519
0
LINE
8
0
10
71.3418869
20
-196.2233043
11
51.4145993
21
-149.2775568
0
ARC
8
0
10
69.1958853
20
-137.3844072
40
2
50
292.9999975
51
345.4504605
0
ARC
8
0
10
76.2243466
20
-126.2264697
40
2
50
101.0000001
51
165.4504605
0
ARC
8
0
10
94.6956055
20
-118.5611538
40
2
50
281.0000001
51
340.573716
0
ARC
8
0
10
99.9505917
20
-115.6873157
40
2
50
94.0000013
51
160.573716
0
ARC
8
0
10
119.5857077
20
-114.3142947
40
2
50
40.6940532
51
94.0000013
0
ARC
8
0
10
127.595319
20
-117.4934978
40
2
50
220.6940532
51
270
0
ARC
8
0
10
185.37741
20
-121.4934978
40
2
50
0
51
90
0
ARC
8
0
10
189.37741
20
-156.4934978
40
2
50
180
51
270
0
ARC
8
0
10
199.17741
20
-160.4934978
40
2
50
0
51
90
0
ARC
8
0
10
199.17741
20
-178.1648598
40
2
50
341.3372084
51
0
0
ARC
8
0
10
184.2547142
20
-222.3465256
40
2
50
250.999998
51
341.3372084
0
ARC
8
0
10
165.4740145
20
-215.8798121
40
2
50
243.8280208
51
250.999998
0
ARC
8
0
10
148.7563436
20
-207.6638501
40
2
50
236.4548171
51
243.8280208
0
ARC
8
0
10
130.4093871
20
-195.499447
40
2
50
198.724676
51
236.4548171
0
ARC
8
0
10
119.7369476
20
-176.4739872
40
2
50
18.724676
51
89.2165589
0
ARC
8
0
10
107.5467793
20
-176.3072928
40
2
50
89.2165589
51
136.6541505
0
ARC
8
0
10
91.2074788
20
-187.7908608
40
2
50
292.9999975
51
316.6541505
0
ARC
8
0
10
73.1828967
20
-195.4418421
40
2
50
202.9999975
51
292.9999975
0
ARC
8
0
10
53.2556091
20
-148.4960946
40
2
50
112.9999975
51
202.9999975
0
LINE
8
0
10
74.4378096
20
-193.2796226
11
87.3248776
21
-187.8093868
0
LINE
8
0
10
87.3248776
20
-187.8093868
11
81.8546418
21
-174.9223188
0
LINE
8
0
10
81.8546418
20
-174.9223188
11
68.9675738
21
-180.3925546
0
LINE
8
0
10
68.9675738
20
-180.3925546
11
74.4378096
21
-193.2796226
0
LINE
8
0
10
67.7953804
20
-177.6310401
11
80.6824484
21
-172.1608043
0
LINE
8
0
10
80.6824484
20
-172.1608043
11
75.2122126
21
-159.2737363
0
LINE
8
0
10
75.2122126
20
-159.2737363
11
62.3251446
21
-164.7439721
0
LINE
8
0
10
62.3251446
20
-164.7439721
11
67.7953804
21
-177.6310401
0
LINE
8
0
10
61.1529512
20
-161.9824576
11
74.0400192
21
-156.5122218
0
LINE
8
0
10
74.0400192
20
-156.5122218
11
68.5697834
21
-143.6251538
0
LINE
8
0
10
68.5697834
20
-143.6251538
11
55.6827154
21
-149.0953896
0
LINE
8
0
10
55.6827154
20
-149.0953896
11
61.1529512
21
-161.9824576
0
LINE
8
0
10
88.3583658
20
-174.2943317
11
102.1011464
21
-171.6230057
0
LINE
8
0
10
102.1011464
20
-171.6230057
11
99.4298204
21
-157.8802251
0
LINE
8
0
10
99.4298204
20
-157.8802251
11
85.6870398
21
-160.5515511
0
LINE
8
0
10
85.6870398
20
-160.5515511
11
88.3583658
21
-174.2943317
0
LINE
8
0
10
85.1146128
20
-157.6066696
11
98.8573934
21
-154.9353436
0
LINE
8
0
10
98.8573934
20
-154.9353436
11
96.1860674
21
-141.192563
0
LINE
8
0
10
96.1860674
20
-141.192563
11
82.4432868
21
-143.863889
0
LINE
8
0
10
82.4432868
20
-143.863889
11
85.1146128
21
-157.6066696
0
LINE
8
0
10
81.8708599
20
-140.9190075
11
95.6136405
21
-138.2476815
0
LINE
8
0
10
95.6136405
20
-138.2476815
11
92.9423145
21
-124.5049009
0
LINE
8
0
10
92.9423145
20
-124.5049009
11
79.1995339
21
-127.1762269
0
LINE
8
0
10
79.1995339
20
-127.1762269
11
81.8708599
21
-140.9190075
0
LINE
8
0
10
106.0838943
20
-164.8793074
11
120.049791
21
-163.9027167
0
LINE
8
0
10
120.049791
20
-163.9027167
11
119.0732003
21
-149.93682
0
LINE
8
0
10
119.0732003
20
-149.93682
11
105.1073036
21
-150.9134107
0
LINE
8
0
10
105.1073036
20
-150.9134107
11
106.0838943
21
-164.8793074
0
LINE
8
0
10
104.8980342
20
-147.9207185
11
118.8639309
21
-146.9441278
0
LINE
8
0
10
118.8639309
20
-146.9441278
11
117.8873402
21
-132.9782311
0
LINE
8
0
10
117.8873402
20
-132.9782311
11
103.9214435
21
-133.9548218
0
LINE
8
0
10
103.9214435
20
-133.9548218
11
104.8980342
21
-147.9207185
0
LINE
8
0
10
103.7121741
20
-130.9621297
11
117.6780708
21
-129.985539
0
LINE
8
0
10
117.6780708
20
-129.985539
11
116.7014801
21
-116.0196423
0
LINE
8
0
10
116.7014801
20
-116.0196423
11
102.7355834
21
-116.996233
0
LINE
8
0
10
102.7355834
20
-116.996233
11
103.7121741
21
-130.9621297
0
LINE
8
0
10
125.1774098
20
-170.9934978
11
139.1774098
21
-170.9934978
0
LINE
8
0
10
139.1774098
20
-170.9934978
11
139.1774098
21
-156.9934978
0
LINE
8
0
10
139.1774098
20
-156.9934978
11
125.1774098
21
-156.9934978
0
LINE
8
0
10
125.1774098
20
-156.9934978
11
125.1774098
21
-170.9934978
0
LINE
8
0
10
125.1774099
20
-153.9934978
11
139.1774099
21
-153.9934978
0
LINE
8
0
10
139.1774099
20
-153.9934978
11
139.1774099
21
-139.9934978
0
LINE
8
0
10
139.1774099
20
-139.9934978
11
125.1774099
21
-139.9934978
0
LINE
8
0
10
125.1774099
20
-139.9934978
11
125.1774099
21
-153.9934978
0
LINE
8
0
10
125.1774099
20
-136.9934978
11
139.1774099
21
-136.9934978
0
LINE
8
0
10
139.1774099
20
-136.9934978
11
139.1774099
21
-122.9934978
0
LINE
8
0
10
139.1774099
20
-122.9934978
11
125.1774099
21
-122.9934978
0
LINE
8
0
10
125.1774099
20
-122.9934978
11
125.1774099
21
-136.9934978
0
LINE
8
0
10
143.17741
20
-170.9934978
11
157.17741
21
-170.9934978
0
LINE
8
0
10
157.17741
20
-170.9934978
11
157.17741
21
-156.9934978
0
LINE
8
0
10
157.17741
20
-156.9934978
11
143.17741
21
-156.9934978
0
LINE
8
0
10
143.17741
20
-156.9934978
11
143.17741
21
-170.9934978
0
LINE
8
0
10
143.17741
20
-153.9934978
11
157.17741
21
-153.9934978
0
LINE
8
0
10
157.17741
20
-153.9934978
11
157.17741
21
-139.9934978
0
LINE
8
0
10
157.17741
20
-139.9934978
11
143.17741
21
-139.9934978
0
LINE
8
0
10
143.17741
20
-139.9934978
11
143.17741
21
-153.9934978
0
LINE
8
0
10
143.17741
20
-136.9934978
11
157.17741
21
-136.9934978
0
LINE
8
0
10
157.17741
20
-136.9934978
11
157.17741
21
-122.9934978
0
LINE
8
0
10
157.17741
20
-122.9934978
11
143.17741
21
-122.9934978
0
LINE
8
0
10
143.17741
20
-122.9934978
11
143.17741
21
-136.9934978
0
LINE
8
0
10
133.5041957
20
-194.4432453
11
147.0271573
21
-198.0667119
0
LINE
8
0
10
147.0271573
20
-198.0667119
11
150.6506239
21
-184.5437503
0
LINE
8
0
10
150.6506239
20
-184.5437503
11
137.1276623
21
-180.9202837
0
LINE
8
0
10
137.1276623
20
-180.9202837
11
133.5041957
21
-194.4432453
0
LINE
8
0
10
152.6070771
20
-207.2243808
11
165.9953437
21
-211.3175846
0
LINE
8
0
10
165.9953437
20
-211.3175846
11
170.0885475
21
-197.929318
0
LINE
8
0
10
170.0885475
20
-197.929318
11
156.7002809
21
-193.8361142
0
LINE
8
0
10
156.7002809
20
-193.8361142
11
152.6070771
21
-207.2243808
0
LINE
8
0
10
171.9597265
20
-191.8089676
11
176.0529303
21
-178.420701
0
LINE
8
0
10
176.0529303
20
-178.420701
11
162.6646637
21
-174.3274972
0
LINE
8
0
10
162.6646637
20
-174.3274972
11
158.5714599
21
-187.7157638
0
LINE
8
0
10
158.5714599
20
-187.7157638
11
171.9597265
21
-191.8089676
0
LINE
8
0
10
169.6259317
20
-215.7230008
11
182.8631917
21
-220.280955
0
LINE
8
0
10
182.8631917
20
-220.280955
11
187.4211459
21
-207.043695
0
LINE
8
0
10
187.4211459
20
-207.043695
11
174.1838859
21
-202.4857408
0
LINE
8
0
10
174.1838859
20
-202.4857408
11
169.6259317
21
-215.7230008
0
LINE
8
0
10
189.5047821
20
-200.9923761
11
194.0627363
21
-187.7551161
0
LINE
8
0
10
194.0627363
20
-187.7551161
11
180.8254763
21
-183.1971619
0
LINE
8
0
10
180.8254763
20
-183.1971619
11
176.2675221
21
-196.4344219
0
LINE
8
0
10
176.2675221
20
-196.4344219
11
189.5047821
21
-200.9923761
0
LINE
8
0
10
184.17741
20
-173.9934978
11
196.17741
21
-173.9934978
0
LINE
8
0
10
196.17741
20
-173.9934978
11
196.17741
21
-161.9934978
0
LINE
8
0
10
196.17741
20
-161.9934978
11
184.17741
21
-161.9934978
0
LINE
8
0
10
184.17741
20
-161.9934978
11
184.17741
21
-173.9934978
0
LINE
8
0
10
161.92741
20
-156.2434978
11
164.17741
21
-156.2434978
0
LINE
8
0
10
178.17741
20
-156.2434978
11
180.42741
21
-156.2434978
0
LINE
8
0
10
180.42741
20
-156.2434978
11
180.42741
21
-122.7434978
0
LINE
8
0
10
180.42741
20
-122.7434978
11
161.92741
21
-122.7434978
0
LINE
8
0
10
161.92741
20
-122.7434978
11
161.92741
21
-156.2434978
0
LINE
8
0
10
164.17741
20
-163.9934978
11
178.17741
21
-163.9934978
0
LINE
8
0
10
178.17741
20
-163.9934978
11
178.17741
21
-156.2434978
0
LINE
8
0
10
164.17741
20
-156.2434978
11
164.17741
21
-163.9934978
0
ENDSEC
0
EOF