0
SECTION
2
HEADER
9
$INSUNITS
70
4
0
ENDSEC
0
SECTION
2
TABLES
0
TABLE
2
LTYPE
0
LTYPE
72
65
70
64
2
CONTINUOUS
3
______
73
0
40
0
0
ENDTAB
0
TABLE
2
LAYER
0
ENDTAB
0
ENDSEC
0
SECTION
2
ENTITIES
0
LINE
8
0
10
72.1233492
20
-198.0643141
11
92.3744559
21
-189.4682292
0
LINE
8
0
10
92.3744559
20
-189.4682292
11
87.5164529
21
-178.0234914
0
LINE
8
0
10
50.6331371
20
-147.4365472
11
72.1233492
21
-198.0643141
0
LINE
8
0
10
70.8842438
20
-138.8404623
11
82.8895878
21
-167.1232803
0
LINE
8
0
10
70.8842438
20
-138.8404623
11
50.6331371
21
-147.4365472
0
LINE
8
0
10
87.5164529
20
-178.0234914
11
106.6954866
21
-174.2954649
0
LINE
8
0
10
106.6954866
20
-174.2954649
11
105.554361
21
-168.4248825
0
LINE
8
0
10
74.6051937
20
-124.5037677
11
82.8895878
21
-167.1232803
0
LINE
8
0
10
96.2009918
20
-120.3059698
11
100.5059198
21
-142.4529042
0
LINE
8
0
10
96.2009918
20
-120.3059698
11
74.6051937
21
-124.5037677
0
LINE
8
0
10
105.554361
20
-168.4248825
11
121.1774098
21
-167.3324126
0
LINE
8
0
10
99.6870397
20
-130.7423735
11
99.9660655
21
-134.7326297
0
LINE
8
0
10
99.9660655
20
-134.7326297
11
100.5059198
21
-142.4529042
0
LINE
8
0
10
121.1774099
20
-122.6860713
11
120.4475887
21
-112.2491423
0
LINE
8
0
10
120.4475887
20
-112.2491423
11
98.5011796
21
-113.7837847
0
LINE
8
0
10
98.5011796
20
-113.7837847
11
99.6870397
21
-130.7423735
0
LINE
8
0
10
121.1774098
20
-174.4934978
11
158.9539911
21
-174.4934978
0
LINE
8
0
10
121.1774098
20
-167.3324126
11
121.1774098
21
-174.4934978
0
LINE
8
0
10
121.1774099
20
-119.4934978
11
161.17741
21
-119.4934978
0
LINE
8
0
10
121.1774099
20
-119.4934978
11
121.1774099
21
-122.6860713
0
LINE
8
0
10
161.17741
20
-169.6900311
11
161.17741
21
-119.4934978
0
LINE
8
0
10
128.7346257
20
-196.7887095
11
149.8823844
21
-202.4552344
0
LINE
8
0
10
150.7723226
20
-199.5443778
11
155.4201939
21
-182.1982861
0
LINE
8
0
10
155.4201939
20
-182.1982861
11
134.1698257
21
-176.5042671
0
LINE
8
0
10
134.1698257
20
-176.5042671
11
128.7346257
21
-196.7887095
0
LINE
8
0
10
147.7585571
20
-209.4019606
11
165.6848315
21
-214.8825727
0
LINE
8
0
10
154.3765153
20
-189.4657466
11
153.8983629
21
-189.3195607
0
LINE
8
0
10
153.8983629
20
-189.3195607
11
150.7723226
21
-199.5443778
0
LINE
8
0
10
149.8823844
20
-202.4552344
11
147.7585571
21
-209.4019606
0
LINE
8
0
10
179.6677996
20
-178.5680591
11
179.6905953
21
-178.4934978
0
LINE
8
0
10
179.17741
20
-175.1931833
11
161.17741
21
-169.6900311
0
LINE
8
0
10
158.9539911
20
-174.4934978
11
154.3765153
21
-189.4657466
0
LINE
8
0
10
164.7043688
20
-217.7300432
11
185.5057775
21
-224.8925426
0
LINE
8
0
10
185.5057775
20
-224.8925426
11
192.3427088
21
-205.0366526
0
LINE
8
0
10
192.3427088
20
-205.0366526
11
191.8699495
21
-204.8738685
0
LINE
8
0
10
165.6848315
20
-214.8825727
11
164.7043688
21
-217.7300432
0
LINE
8
0
10
191.8699495
20
-204.8738685
11
198.6743239
21
-185.1125303
0
LINE
8
0
10
198.6743239
20
-185.1125303
11
179.6677996
21
-178.5680591
0
LINE
8
0
10
179.6905953
20
-178.4934978
11
201.17741
21
-178.4934978
0
LINE
8
0
10
201.17741
20
-178.4934978
11
201.17741
21
-157.4934978
0
LINE
8
0
10
201.17741
20
-157.4934978
11
179.17741
21
-157.4934978
0
LINE
8
0
10
179.17741
20
-157.4934978
11
179.17741
21
-175.1931833
0
LINE
8
0
10
315.9803641
20
-189.4682292
11
336.2314708
21
-198.0643141
0
LINE
8
0
10
336.2314708
20
-198.0643141
11
357.7216829
21
-147.4365472
0
LINE
8
0
10
320.8383671
20
-178.0234914
11
315.9803641
21
-189.4682292
0
LINE
8
0
10
325.4652322
20
-167.1232803
11
337.4705762
21
-138.8404623
0
LINE
8
0
10
357.7216829
20
-147.4365472
11
337.4705762
21
-138.8404623
0
LINE
8
0
10
301.6593334
20
-174.2954649
11
320.8383671
21
-178.0234914
0
LINE
8
0
10
325.4652322
20
-167.1232803
11
333.7496263
21
-124.5037677
0
LINE
8
0
10
302.800459
20
-168.4248825
11
301.6593334
21
-174.2954649
0
LINE
8
0
10
307.8489002
20
-142.4529042
11
312.1538282
21
-120.3059698
0
LINE
8
0
10
333.7496263
20
-124.5037677
11
312.1538282
21
-120.3059698
0
LINE
8
0
10
287.1774102
20
-167.3324126
11
302.800459
21
-168.4248825
0
LINE
8
0
10
307.8489002
20
-142.4529042
11
308.3887545
21
-134.7326297
0
LINE
8
0
10
308.3887545
20
-134.7326297
11
308.6677803
21
-130.7423735
0
LINE
8
0
10
308.6677803
20
-130.7423735
11
309.8536404
21
-113.7837847
0
LINE
8
0
10
309.8536404
20
-113.7837847
11
287.9072313
21
-112.2491423
0
LINE
8
0
10
287.9072313
20
-112.2491423
11
287.1774101
21
-122.6860713
0
LINE
8
0
10
249.4008289
20
-174.4934978
11
287.1774102
21
-174.4934978
0
LINE
8
0
10
287.1774102
20
-174.4934978
11
287.1774102
21
-167.3324126
0
LINE
8
0
10
287.1774101
20
-122.6860713
11
287.1774101
21
-119.4934978
0
LINE
8
0
10
247.17741
20
-119.4934978
11
287.1774101
21
-119.4934978
0
LINE
8
0
10
247.17741
20
-169.6900311
11
247.17741
21
-119.4934978
0
LINE
8
0
10
258.4724356
20
-202.4552344
11
279.6201943
21
-196.7887095
0
LINE
8
0
10
279.6201943
20
-196.7887095
11
274.1849943
21
-176.5042671
0
LINE
8
0
10
274.1849943
20
-176.5042671
11
252.9346261
21
-182.1982861
0
LINE
8
0
10
252.9346261
20
-182.1982861
11
257.5824974
21
-199.5443778
0
LINE
8
0
10
242.6699885
20
-214.8825727
11
260.5962629
21
-209.4019606
0
LINE
8
0
10
260.5962629
20
-209.4019606
11
258.4724356
21
-202.4552344
0
LINE
8
0
10
257.5824974
20
-199.5443778
11
254.4564571
21
-189.3195607
0
LINE
8
0
10
254.4564571
20
-189.3195607
11
253.9783047
21
-189.4657466
0
LINE
8
0
10
228.6642247
20
-178.4934978
11
228.6870204
21
-178.5680591
0
LINE
8
0
10
253.9783047
20
-189.4657466
11
249.4008289
21
-174.4934978
0
LINE
8
0
10
247.17741
20
-169.6900311
11
229.17741
21
-175.1931833
0
LINE
8
0
10
222.8490425
20
-224.8925426
11
243.6504512
21
-217.7300432
0
LINE
8
0
10
243.6504512
20
-217.7300432
11
242.6699885
21
-214.8825727
0
LINE
8
0
10
216.4848705
20
-204.8738685
11
216.0121112
21
-205.0366526
0
LINE
8
0
10
216.0121112
20
-205.0366526
11
222.8490425
21
-224.8925426
0
LINE
8
0
10
209.6804961
20
-185.1125303
11
216.4848705
21
-204.8738685
0
LINE
8
0
10
228.6870204
20
-178.5680591
11
209.6804961
21
-185.1125303
0
LINE
8
0
10
207.17741
20
-178.4934978
11
228.6642247
21
-178.4934978
0
LINE
8
0
10
229.17741
20
-175.1931833
11
229.17741
21
-157.4934978
0
LINE
8
0
10
229.17741
20
-157.4934978
11
207.17741
21
-157.4934978
0
LINE
8
0
10
207.17741
20
-157.4934978
11
207.17741
21
-178.4934978
0
ENDSEC
0
EOF