0
SECTION
2
HEADER
9
$INSUNITS
70
4
0
ENDSEC
0
SECTION
2
TABLES
0
TABLE
2
LTYPE
0
LTYPE
72
65
70
64
2
CONTINUOUS
3
______
73
0
40
0
0
ENDTAB
0
TABLE
2
LAYER
0
ENDTAB
0
ENDSEC
0
SECTION
2
ENTITIES
0
LINE
8
0
10
72.6531229
20
-196.7530781
11
91.06322
21
-188.9384555
0
LINE
8
0
10
91.06322
20
-188.9384555
11
86.1134354
21
-177.2774937
0
LINE
8
0
10
70.3544701
20
-140.1516983
11
85.6866412
21
-176.2720298
0
LINE
8
0
10
51.944373
20
-147.9663209
11
72.6531229
21
-196.7530781
0
LINE
8
0
10
70.3544701
20
-140.1516983
11
51.944373
21
-147.9663209
0
LINE
8
0
10
86.1134354
20
-177.2774937
11
105.5230504
21
-173.5046467
0
LINE
8
0
10
105.5230504
20
-173.5046467
11
104.3570634
21
-167.5061639
0
LINE
8
0
10
95.4101736
20
-121.478406
11
102.6439922
21
-158.6931764
0
LINE
8
0
10
75.7776299
20
-125.2945859
11
85.6866412
21
-176.2720298
0
LINE
8
0
10
95.4101736
20
-121.478406
11
75.7776299
21
-125.2945859
0
LINE
8
0
10
104.3570634
20
-167.5061639
11
122.1774098
21
-166.2600438
0
LINE
8
0
10
120.8451541
20
-132.2701797
11
122.1774099
21
-151.3223245
0
LINE
8
0
10
101.9402203
20
-148.62877
11
102.0797332
21
-150.623898
0
LINE
8
0
10
102.0797332
20
-150.623898
11
102.6439922
21
-158.6931764
0
LINE
8
0
10
120.8451541
20
-132.2701797
11
120.7056412
21
-130.2750516
0
LINE
8
0
10
99.5685001
20
-114.7115923
11
100.8938731
21
-133.6653092
0
LINE
8
0
10
100.8938731
20
-133.6653092
11
101.9402203
21
-148.62877
0
LINE
8
0
10
120.7056412
20
-130.2750516
11
119.5197811
21
-113.3164628
0
LINE
8
0
10
119.5197811
20
-113.3164628
11
99.5685001
21
-114.7115923
0
LINE
8
0
10
122.1774098
20
-173.4934978
11
160.17741
21
-173.4934978
0
LINE
8
0
10
122.1774098
20
-166.2600438
11
122.1774098
21
-173.4934978
0
LINE
8
0
10
122.1774099
20
-151.3223245
11
122.1774099
21
-120.4934978
0
LINE
8
0
10
122.1774099
20
-120.4934978
11
160.17741
21
-120.4934978
0
LINE
8
0
10
160.17741
20
-173.4934978
11
160.17741
21
-120.4934978
0
LINE
8
0
10
129.9593706
20
-196.0816027
11
149.2778871
21
-201.2579836
0
LINE
8
0
10
149.2778871
20
-201.2579836
11
154.195449
21
-182.9053929
0
LINE
8
0
10
154.195449
20
-182.9053929
11
134.8769325
21
-177.729012
0
LINE
8
0
10
134.8769325
20
-177.729012
11
129.9593706
21
-196.0816027
0
LINE
8
0
10
149.0072335
20
-208.7380275
11
166.9674859
21
-214.2290277
0
LINE
8
0
10
172.7879089
20
-199.3610157
11
173.0512039
21
-198.4998168
0
LINE
8
0
10
173.6354952
20
-196.3994994
11
154.5622959
21
-190.5682372
0
LINE
8
0
10
154.5622959
20
-190.5682372
11
149.0072335
21
-208.7380275
0
LINE
8
0
10
173.4733732
20
-195.4088112
11
179.3208073
21
-176.282716
0
LINE
8
0
10
179.3208073
20
-176.282716
11
161.151017
21
-170.7276536
0
LINE
8
0
10
161.151017
20
-170.7276536
11
155.3035829
21
-189.8537488
0
LINE
8
0
10
155.3035829
20
-189.8537488
11
173.4733732
21
-195.4088112
0
LINE
8
0
10
165.9754556
20
-217.1100928
11
184.8858271
21
-223.6214559
0
LINE
8
0
10
184.8858271
20
-223.6214559
11
191.071622
21
-205.656603
0
LINE
8
0
10
191.071622
20
-205.656603
11
172.7879089
21
-199.3610157
0
LINE
8
0
10
166.9674859
20
-214.2290277
11
165.9754556
21
-217.1100928
0
LINE
8
0
10
190.8918741
20
-204.6428522
11
197.4032372
21
-185.7324807
0
LINE
8
0
10
197.4032372
20
-185.7324807
11
179.4383843
21
-179.5466858
0
LINE
8
0
10
179.4383843
20
-179.5466858
11
173.6354952
21
-196.3994994
0
LINE
8
0
10
173.0512039
20
-198.4998168
11
190.8918741
21
-204.6428522
0
LINE
8
0
10
180.17741
20
-177.4934978
11
200.17741
21
-177.4934978
0
LINE
8
0
10
200.17741
20
-177.4934978
11
200.17741
21
-158.4934978
0
LINE
8
0
10
200.17741
20
-158.4934978
11
180.17741
21
-158.4934978
0
LINE
8
0
10
180.17741
20
-158.4934978
11
180.17741
21
-177.4934978
0
LINE
8
0
10
317.2916
20
-188.9384555
11
335.7016971
21
-196.7530781
0
LINE
8
0
10
335.7016971
20
-196.7530781
11
356.410447
21
-147.9663209
0
LINE
8
0
10
322.6681788
20
-176.2720298
11
338.0003499
21
-140.1516983
0
LINE
8
0
10
322.2413846
20
-177.2774937
11
317.2916
21
-188.9384555
0
LINE
8
0
10
356.410447
20
-147.9663209
11
338.0003499
21
-140.1516983
0
LINE
8
0
10
302.8317696
20
-173.5046467
11
322.2413846
21
-177.2774937
0
LINE
8
0
10
322.6681788
20
-176.2720298
11
332.5771901
21
-125.2945859
0
LINE
8
0
10
305.7108278
20
-158.6931764
11
312.9446464
21
-121.478406
0
LINE
8
0
10
303.9977566
20
-167.5061639
11
302.8317696
21
-173.5046467
0
LINE
8
0
10
332.5771901
20
-125.2945859
11
312.9446464
21
-121.478406
0
LINE
8
0
10
286.1774102
20
-166.2600438
11
303.9977566
21
-167.5061639
0
LINE
8
0
10
305.7108278
20
-158.6931764
11
306.2750868
21
-150.623898
0
LINE
8
0
10
306.2750868
20
-150.623898
11
306.4145997
21
-148.62877
0
LINE
8
0
10
286.1774101
20
-151.3223245
11
286.4633187
21
-147.2336405
0
LINE
8
0
10
306.4145997
20
-148.62877
11
307.4609469
21
-133.6653092
0
LINE
8
0
10
307.4609469
20
-133.6653092
11
307.6004598
21
-131.6701811
0
LINE
8
0
10
287.5096659
20
-132.2701797
11
288.8350389
21
-113.3164628
0
LINE
8
0
10
287.5096659
20
-132.2701797
11
286.4633187
21
-147.2336405
0
LINE
8
0
10
307.6004598
20
-131.6701811
11
308.7863199
21
-114.7115923
0
LINE
8
0
10
308.7863199
20
-114.7115923
11
288.8350389
21
-113.3164628
0
LINE
8
0
10
248.17741
20
-173.4934978
11
286.1774102
21
-173.4934978
0
LINE
8
0
10
286.1774102
20
-173.4934978
11
286.1774102
21
-166.2600438
0
LINE
8
0
10
286.1774101
20
-151.3223245
11
286.1774101
21
-120.4934978
0
LINE
8
0
10
248.17741
20
-120.4934978
11
286.1774101
21
-120.4934978
0
LINE
8
0
10
248.17741
20
-173.4934978
11
248.17741
21
-120.4934978
0
LINE
8
0
10
259.0769329
20
-201.2579836
11
278.3954494
21
-196.0816027
0
LINE
8
0
10
278.3954494
20
-196.0816027
11
273.4778875
21
-177.729012
0
LINE
8
0
10
273.4778875
20
-177.729012
11
254.159371
21
-182.9053929
0
LINE
8
0
10
254.159371
20
-182.9053929
11
259.0769329
21
-201.2579836
0
LINE
8
0
10
241.3873341
20
-214.2290277
11
259.3475865
21
-208.7380275
0
LINE
8
0
10
259.3475865
20
-208.7380275
11
253.7925241
21
-190.5682372
0
LINE
8
0
10
253.7925241
20
-190.5682372
11
234.7193248
21
-196.3994994
0
LINE
8
0
10
235.3036161
20
-198.4998168
11
235.5669111
21
-199.3610157
0
LINE
8
0
10
229.0340127
20
-176.282716
11
234.8814468
21
-195.4088112
0
LINE
8
0
10
234.8814468
20
-195.4088112
11
253.0512371
21
-189.8537488
0
LINE
8
0
10
253.0512371
20
-189.8537488
11
247.203803
21
-170.7276536
0
LINE
8
0
10
247.203803
20
-170.7276536
11
229.0340127
21
-176.282716
0
LINE
8
0
10
223.4689929
20
-223.6214559
11
242.3793644
21
-217.1100928
0
LINE
8
0
10
242.3793644
20
-217.1100928
11
241.3873341
21
-214.2290277
0
LINE
8
0
10
235.5669111
20
-199.3610157
11
217.283198
21
-205.656603
0
LINE
8
0
10
217.283198
20
-205.656603
11
223.4689929
21
-223.6214559
0
LINE
8
0
10
210.9515828
20
-185.7324807
11
217.4629459
21
-204.6428522
0
LINE
8
0
10
217.4629459
20
-204.6428522
11
235.3036161
21
-198.4998168
0
LINE
8
0
10
234.7193248
20
-196.3994994
11
228.9164357
21
-179.5466858
0
LINE
8
0
10
228.9164357
20
-179.5466858
11
210.9515828
21
-185.7324807
0
LINE
8
0
10
208.17741
20
-177.4934978
11
228.17741
21
-177.4934978
0
LINE
8
0
10
228.17741
20
-177.4934978
11
228.17741
21
-158.4934978
0
LINE
8
0
10
228.17741
20
-158.4934978
11
208.17741
21
-158.4934978
0
LINE
8
0
10
208.17741
20
-158.4934978
11
208.17741
21
-177.4934978
0
ENDSEC
0
EOF