0
SECTION
2
HEADER
9
$INSUNITS
70
4
0
ENDSEC
0
SECTION
2
TABLES
0
TABLE
2
LTYPE
0
LTYPE
72
65
70
64
2
CONTINUOUS
3
______
73
0
40
0
0
ENDTAB
0
TABLE
2
LAYER
0
ENDTAB
0
ENDSEC
0
SECTION
2
ENTITIES
0
LINE
8
0
10
164.7036082
20
-157.6799652
11
183.1137053
21
-149.8653426
0
LINE
8
0
10
183.1137053
20
-149.8653426
11
178.1639207
21
-138.2043807
0
LINE
8
0
10
162.4049555
20
-101.0785854
11
177.7371265
21
-137.1989165
0
LINE
8
0
10
143.9948584
20
-108.893208
11
164.7036082
21
-157.6799652
0
LINE
8
0
10
162.4049555
20
-101.0785854
11
143.9948584
21
-108.893208
0
LINE
8
0
10
178.1639207
20
-138.2043807
11
197.5735357
21
-134.4315338
0
LINE
8
0
10
197.5735357
20
-134.4315338
11
196.4075488
21
-128.433051
0
LINE
8
0
10
187.4606589
20
-82.4052932
11
194.6944774
21
-119.6200628
0
LINE
8
0
10
167.8281152
20
-86.2214731
11
177.7371265
21
-137.1989165
0
LINE
8
0
10
187.4606589
20
-82.4052932
11
167.8281152
21
-86.2214731
0
LINE
8
0
10
196.4075488
20
-128.433051
11
214.2278952
21
-127.1869309
0
LINE
8
0
10
214.2278952
20
-112.2492117
11
214.0814995
21
-110.1556557
0
LINE
8
0
10
214.0814995
20
-110.1556557
11
213.9419866
21
-108.1605276
0
LINE
8
0
10
193.9907056
20
-109.5556571
11
194.1302185
21
-111.5507852
0
LINE
8
0
10
194.1302185
20
-111.5507852
11
194.6944774
21
-119.6200628
0
LINE
8
0
10
211.5702664
20
-74.2433499
11
213.9419866
21
-108.1605276
0
LINE
8
0
10
192.8048455
20
-92.5970683
11
192.9443584
21
-94.5921963
0
LINE
8
0
10
192.9443584
20
-94.5921963
11
193.9907056
21
-109.5556571
0
LINE
8
0
10
211.5702664
20
-74.2433499
11
191.6189854
21
-75.6384794
0
LINE
8
0
10
191.6189854
20
-75.6384794
11
192.8048455
21
-92.5970683
0
LINE
8
0
10
214.2278952
20
-134.420385
11
252.2278953
21
-134.420385
0
LINE
8
0
10
214.2278952
20
-127.1869309
11
214.2278952
21
-134.420385
0
LINE
8
0
10
214.2278952
20
-112.2492117
11
214.2278952
21
-81.420385
0
LINE
8
0
10
214.2278952
20
-81.420385
11
252.2278953
21
-81.4203849
0
LINE
8
0
10
252.2278953
20
-134.4203849
11
252.2278953
21
-111.4203849
0
LINE
8
0
10
252.2278953
20
-92.4203849
11
252.2278953
21
-81.4203849
0
LINE
8
0
10
222.009856
20
-157.0084899
11
241.3283725
21
-162.1848708
0
LINE
8
0
10
241.3283725
20
-162.1848708
11
246.2459344
21
-143.8322801
0
LINE
8
0
10
246.2459344
20
-143.8322801
11
226.9274179
21
-138.6558992
0
LINE
8
0
10
226.9274179
20
-138.6558992
11
222.009856
21
-157.0084899
0
LINE
8
0
10
241.0577189
20
-169.6649147
11
259.0179713
21
-175.1559149
0
LINE
8
0
10
264.8383943
20
-160.2879029
11
265.1016893
21
-159.426704
0
LINE
8
0
10
265.6859806
20
-157.3263866
11
246.6127813
21
-151.4951244
0
LINE
8
0
10
246.6127813
20
-151.4951244
11
241.0577189
21
-169.6649147
0
LINE
8
0
10
265.5238586
20
-156.3356984
11
271.3712927
21
-137.2096032
0
LINE
8
0
10
271.3712927
20
-137.2096032
11
253.2015024
21
-131.6545408
0
LINE
8
0
10
253.2015024
20
-131.6545408
11
247.3540683
21
-150.780636
0
LINE
8
0
10
247.3540683
20
-150.780636
11
265.5238586
21
-156.3356984
0
LINE
8
0
10
258.025941
20
-178.03698
11
276.9363125
21
-184.5483431
0
LINE
8
0
10
276.9363125
20
-184.5483431
11
283.1221074
21
-166.5834902
0
LINE
8
0
10
283.1221074
20
-166.5834902
11
264.8383943
21
-160.2879029
0
LINE
8
0
10
259.0179713
20
-175.1559149
11
258.025941
21
-178.03698
0
LINE
8
0
10
282.9423595
20
-165.5697394
11
289.4537226
21
-146.6593679
0
LINE
8
0
10
289.4537226
20
-146.6593679
11
271.4888697
21
-140.473573
0
LINE
8
0
10
271.4888697
20
-140.473573
11
265.6859806
21
-157.3263866
0
LINE
8
0
10
265.1016893
20
-159.426704
11
282.9423595
21
-165.5697394
0
LINE
8
0
10
272.2278953
20
-138.4203849
11
292.2278953
21
-138.4203849
0
LINE
8
0
10
292.2278953
20
-138.4203849
11
292.2278953
21
-119.4203849
0
LINE
8
0
10
292.2278953
20
-119.4203849
11
272.2278953
21
-119.4203849
0
LINE
8
0
10
272.2278953
20
-119.4203849
11
272.2278953
21
-138.4203849
0
LINE
8
0
10
252.2278953
20
-111.4203849
11
272.2278953
21
-111.4203849
0
LINE
8
0
10
272.2278953
20
-111.4203849
11
272.2278953
21
-92.4203849
0
LINE
8
0
10
272.2278953
20
-92.4203849
11
252.2278953
21
-92.4203849
0
LINE
8
0
10
409.3420853
20
-149.8653426
11
427.7521824
21
-157.6799652
0
LINE
8
0
10
427.7521824
20
-157.6799652
11
448.4609322
21
-108.893208
0
LINE
8
0
10
414.7186641
20
-137.1989165
11
430.0508351
21
-101.0785854
0
LINE
8
0
10
414.2918699
20
-138.2043807
11
409.3420853
21
-149.8653426
0
LINE
8
0
10
448.4609322
20
-108.893208
11
430.0508351
21
-101.0785854
0
LINE
8
0
10
394.8822549
20
-134.4315338
11
414.2918699
21
-138.2043807
0
LINE
8
0
10
414.7186641
20
-137.1989165
11
424.6276754
21
-86.2214731
0
LINE
8
0
10
397.7613132
20
-119.6200628
11
404.9951317
21
-82.4052932
0
LINE
8
0
10
396.0482418
20
-128.433051
11
394.8822549
21
-134.4315338
0
LINE
8
0
10
424.6276754
20
-86.2214731
11
404.9951317
21
-82.4052932
0
LINE
8
0
10
378.2278954
20
-127.1869309
11
396.0482418
21
-128.433051
0
LINE
8
0
10
397.7613132
20
-119.6200628
11
398.3255721
21
-111.5507852
0
LINE
8
0
10
398.3255721
20
-111.5507852
11
398.465085
21
-109.5556571
0
LINE
8
0
10
378.513804
20
-108.1605276
11
378.3742911
21
-110.1556557
0
LINE
8
0
10
378.3742911
20
-110.1556557
11
378.2278954
21
-112.2492117
0
LINE
8
0
10
398.465085
20
-109.5556571
11
399.5114322
21
-94.5921963
0
LINE
8
0
10
399.5114322
20
-94.5921963
11
399.6509451
21
-92.5970683
0
LINE
8
0
10
379.6996641
20
-91.2019388
11
379.5601512
21
-93.1970668
0
LINE
8
0
10
379.5601512
20
-93.1970668
11
378.513804
21
-108.1605276
0
LINE
8
0
10
399.6509451
20
-92.5970683
11
400.8368052
21
-75.6384794
0
LINE
8
0
10
400.8368052
20
-75.6384794
11
380.8855242
21
-74.2433499
0
LINE
8
0
10
380.8855242
20
-74.2433499
11
379.6996641
21
-91.2019388
0
LINE
8
0
10
340.2278953
20
-134.420385
11
378.2278954
21
-134.420385
0
LINE
8
0
10
378.2278954
20
-134.420385
11
378.2278954
21
-127.1869309
0
LINE
8
0
10
378.2278954
20
-112.2492117
11
378.2278954
21
-81.420385
0
LINE
8
0
10
340.2278953
20
-81.420385
11
378.2278954
21
-81.4203849
0
LINE
8
0
10
340.2278953
20
-134.4203849
11
340.2278953
21
-111.4203849
0
LINE
8
0
10
340.2278953
20
-81.4203849
11
340.2278953
21
-92.4203849
0
LINE
8
0
10
351.1274181
20
-162.1848708
11
370.4459346
21
-157.0084899
0
LINE
8
0
10
370.4459346
20
-157.0084899
11
365.5283727
21
-138.6558992
0
LINE
8
0
10
365.5283727
20
-138.6558992
11
346.2098562
21
-143.8322801
0
LINE
8
0
10
346.2098562
20
-143.8322801
11
351.1274181
21
-162.1848708
0
LINE
8
0
10
333.4378193
20
-175.1559149
11
351.3980717
21
-169.6649147
0
LINE
8
0
10
351.3980717
20
-169.6649147
11
345.8430093
21
-151.4951244
0
LINE
8
0
10
345.8430093
20
-151.4951244
11
326.76981
21
-157.3263866
0
LINE
8
0
10
327.3541013
20
-159.426704
11
327.6173963
21
-160.2879029
0
LINE
8
0
10
321.0844979
20
-137.2096032
11
326.931932
21
-156.3356984
0
LINE
8
0
10
326.931932
20
-156.3356984
11
345.1017223
21
-150.780636
0
LINE
8
0
10
345.1017223
20
-150.780636
11
339.2542882
21
-131.6545408
0
LINE
8
0
10
339.2542882
20
-131.6545408
11
321.0844979
21
-137.2096032
0
LINE
8
0
10
315.5194781
20
-184.5483431
11
334.4298496
21
-178.03698
0
LINE
8
0
10
334.4298496
20
-178.03698
11
333.4378193
21
-175.1559149
0
LINE
8
0
10
327.6173963
20
-160.2879029
11
309.3336832
21
-166.5834902
0
LINE
8
0
10
309.3336832
20
-166.5834902
11
315.5194781
21
-184.5483431
0
LINE
8
0
10
303.002068
20
-146.6593679
11
309.5134311
21
-165.5697394
0
LINE
8
0
10
309.5134311
20
-165.5697394
11
327.3541013
21
-159.426704
0
LINE
8
0
10
326.76981
20
-157.3263866
11
320.9669209
21
-140.473573
0
LINE
8
0
10
320.9669209
20
-140.473573
11
303.002068
21
-146.6593679
0
LINE
8
0
10
300.2278953
20
-138.4203849
11
320.2278953
21
-138.4203849
0
LINE
8
0
10
320.2278953
20
-138.4203849
11
320.2278953
21
-119.4203849
0
LINE
8
0
10
320.2278953
20
-119.4203849
11
300.2278953
21
-119.4203849
0
LINE
8
0
10
300.2278953
20
-119.4203849
11
300.2278953
21
-138.4203849
0
LINE
8
0
10
320.2278953
20
-111.4203849
11
340.2278953
21
-111.4203849
0
LINE
8
0
10
340.2278953
20
-92.4203849
11
320.2278953
21
-92.4203849
0
LINE
8
0
10
320.2278953
20
-92.4203849
11
320.2278953
21
-111.4203849
0
ENDSEC
0
EOF