0
SECTION
2
HEADER
9
$INSUNITS
70
4
0
ENDSEC
0
SECTION
2
TABLES
0
TABLE
2
LTYPE
0
LTYPE
72
65
70
64
2
CONTINUOUS
3
______
73
0
40
0
0
ENDTAB
0
TABLE
2
LAYER
0
ENDTAB
0
ENDSEC
0
SECTION
2
ENTITIES
0
LINE
8
0
10
358.4897872
20
-147.1262129
11
359.6885369
21
-146.6418866
0
LINE
8
0
10
359.6885369
20
-146.6418866
11
338.4761085
21
-139.1935363
0
LINE
8
0
10
337.2028495
20
-137.8089203
11
334.066335
21
-125.7240357
0
LINE
8
0
10
332.5120914
20
-124.2632153
11
313.2775965
21
-120.5244082
0
LINE
8
0
10
311.7730742
20
-119.2263414
11
310.2903687
21
-115.0221281
0
LINE
8
0
10
308.5437413
20
-113.6921876
11
288.9086253
21
-112.3191666
0
LINE
8
0
10
287.2527083
20
-113.0102552
11
282.275905
21
-118.7975372
0
LINE
8
0
10
224.0217951
20
-119.4934978
11
280.759501
21
-119.4934978
0
LINE
8
0
10
222.0225902
20
-121.43711
11
221.0322298
21
-156.5498856
0
LINE
8
0
10
219.0330249
20
-158.4934978
11
209.17741
21
-158.4934978
0
LINE
8
0
10
207.17741
20
-160.4934978
11
207.17741
21
-178.127965
0
LINE
8
0
10
207.3067054
20
-178.8354
11
209.6656859
21
-185.0733671
0
LINE
8
0
10
209.6936535
20
-185.1522766
11
222.2129719
21
-222.9710781
0
LINE
8
0
10
224.7627804
20
-224.2335898
11
243.5319419
21
-217.7708492
0
LINE
8
0
10
243.7629395
20
-217.6747604
11
260.4806104
21
-209.4587985
0
LINE
8
0
10
260.7036652
20
-209.3307507
11
279.0506217
21
-197.1663476
0
LINE
8
0
10
279.8395771
20
-196.1414888
11
286.7237282
21
-175.8319454
0
LINE
8
0
10
288.590526
20
-174.4741742
11
300.7806943
21
-174.3074798
0
LINE
8
0
10
302.2624881
20
-174.9344918
11
315.6928938
21
-189.1636618
0
LINE
8
0
10
316.3658791
20
-189.6318706
11
334.3904612
21
-197.2828519
0
LINE
8
0
10
337.0129331
20
-196.2233043
11
357.3979906
21
-148.1991185
0
ARC
8
0
10
339.1387111
20
-137.3064863
40
2
50
194.5495395
51
250.6522216
0
ARC
8
0
10
332.1304734
20
-126.2264697
40
2
50
14.5495395
51
78.9999999
0
ARC
8
0
10
313.6592145
20
-118.5611538
40
2
50
199.426284
51
258.9999999
0
ARC
8
0
10
308.4042283
20
-115.6873157
40
2
50
19.426284
51
85.9999987
0
ARC
8
0
10
288.7691123
20
-114.3142947
40
2
50
85.9999987
51
139.3059468
0
ARC
8
0
10
280.759501
20
-117.4934978
40
2
50
270
51
319.3059468
0
ARC
8
0
10
224.0217951
20
-121.4934978
40
2
50
90
51
178.3843945
0
ARC
8
0
10
219.0330249
20
-156.4934978
40
2
50
270
51
358.3843945
0
ARC
8
0
10
209.17741
20
-160.4934978
40
2
50
90
51
180
0
ARC
8
0
10
209.17741
20
-178.127965
40
2
50
180
51
200.7148634
0
ARC
8
0
10
207.7949814
20
-185.7808021
40
2
50
18.3163105
51
20.7148634
0
ARC
8
0
10
224.1116441
20
-222.3425526
40
2
50
198.3163105
51
289.000002
0
ARC
8
0
10
242.8808055
20
-215.8798121
40
2
50
289.000002
51
296.1719792
0
ARC
8
0
10
259.5984764
20
-207.6638501
40
2
50
296.1719792
51
303.5451829
0
ARC
8
0
10
277.9454329
20
-195.499447
40
2
50
303.5451829
51
341.275324
0
ARC
8
0
10
288.6178724
20
-176.4739872
40
2
50
90.7834411
51
161.275324
0
ARC
8
0
10
300.8080407
20
-176.3072928
40
2
50
43.3458495
51
90.7834411
0
ARC
8
0
10
317.1473412
20
-187.7908608
40
2
50
223.3458495
51
247.0000025
0
ARC
8
0
10
335.1719233
20
-195.4418421
40
2
50
247.0000025
51
337.0000025
0
ARC
8
0
10
359.2390004
20
-148.9805806
40
2
50
111.9999994
51
157.0000025
0
LINE
8
0
10
318.930645
20
-188.2762384
11
335.03948
21
-195.1140331
0
LINE
8
0
10
335.03948
20
-195.1140331
11
341.4865436
21
-179.925703
0
LINE
8
0
10
341.4865436
20
-179.925703
11
325.3777086
21
-173.0879083
0
LINE
8
0
10
325.3777086
20
-173.0879083
11
318.930645
21
-188.2762384
0
LINE
8
0
10
325.5730742
20
-172.6276559
11
341.6819092
21
-179.4654506
0
LINE
8
0
10
341.6819092
20
-179.4654506
11
348.1289728
21
-164.2771205
0
LINE
8
0
10
348.1289728
20
-164.2771205
11
332.0201378
21
-157.4393258
0
LINE
8
0
10
332.0201378
20
-157.4393258
11
325.5730742
21
-172.6276559
0
LINE
8
0
10
332.2155034
20
-156.9790734
11
348.3243384
21
-163.8168681
0
LINE
8
0
10
348.3243384
20
-163.8168681
11
354.771402
21
-148.628538
0
LINE
8
0
10
354.771402
20
-148.628538
11
338.662567
21
-141.7907433
0
LINE
8
0
10
338.662567
20
-141.7907433
11
332.2155034
21
-156.9790734
0
LINE
8
0
10
304.2973148
20
-172.516124
11
321.4757905
21
-175.8552814
0
LINE
8
0
10
321.4757905
20
-175.8552814
11
324.624139
21
-159.6584328
0
LINE
8
0
10
324.624139
20
-159.6584328
11
307.4456633
21
-156.3192754
0
LINE
8
0
10
307.4456633
20
-156.3192754
11
304.2973148
21
-172.516124
0
LINE
8
0
10
307.5410678
20
-155.8284619
11
324.7195435
21
-159.1676193
0
LINE
8
0
10
324.7195435
20
-159.1676193
11
327.867892
21
-142.9707707
0
LINE
8
0
10
327.867892
20
-142.9707707
11
310.6894163
21
-139.6316133
0
LINE
8
0
10
310.6894163
20
-139.6316133
11
307.5410678
21
-155.8284619
0
LINE
8
0
10
310.7848207
20
-139.1407998
11
327.9632964
21
-142.4799572
0
LINE
8
0
10
327.9632964
20
-142.4799572
11
331.1116449
21
-126.2831086
0
LINE
8
0
10
331.1116449
20
-126.2831086
11
313.9331692
21
-122.9439512
0
LINE
8
0
10
313.9331692
20
-122.9439512
11
310.7848207
21
-139.1407998
0
LINE
8
0
10
286.4720964
20
-165.027598
11
303.9294672
21
-166.2483363
0
LINE
8
0
10
303.9294672
20
-166.2483363
11
305.080449
21
-149.7885294
0
LINE
8
0
10
305.080449
20
-149.7885294
11
287.6230782
21
-148.5677911
0
LINE
8
0
10
287.6230782
20
-148.5677911
11
286.4720964
21
-165.027598
0
LINE
8
0
10
287.6579565
20
-148.0690091
11
305.1153273
21
-149.2897474
0
LINE
8
0
10
305.1153273
20
-149.2897474
11
306.2663091
21
-132.8299405
0
LINE
8
0
10
306.2663091
20
-132.8299405
11
288.8089383
21
-131.6092022
0
LINE
8
0
10
288.8089383
20
-131.6092022
11
287.6579565
21
-148.0690091
0
LINE
8
0
10
288.8438166
20
-131.1104203
11
306.3011874
21
-132.3311586
0
LINE
8
0
10
306.3011874
20
-132.3311586
11
307.4521692
21
-115.8713517
0
LINE
8
0
10
307.4521692
20
-115.8713517
11
289.9947984
21
-114.6506134
0
LINE
8
0
10
289.9947984
20
-114.6506134
11
288.8438166
21
-131.1104203
0
LINE
8
0
10
267.4274102
20
-172.2434978
11
284.9274102
21
-172.2434978
0
LINE
8
0
10
284.9274102
20
-172.2434978
11
284.9274102
21
-155.7434978
0
LINE
8
0
10
284.9274102
20
-155.7434978
11
267.4274102
21
-155.7434978
0
LINE
8
0
10
267.4274102
20
-155.7434978
11
267.4274102
21
-172.2434978
0
LINE
8
0
10
267.4274101
20
-155.2434978
11
284.9274101
21
-155.2434978
0
LINE
8
0
10
284.9274101
20
-155.2434978
11
284.9274101
21
-138.7434978
0
LINE
8
0
10
284.9274101
20
-138.7434978
11
267.4274101
21
-138.7434978
0
LINE
8
0
10
267.4274101
20
-138.7434978
11
267.4274101
21
-155.2434978
0
LINE
8
0
10
267.4274101
20
-138.2434978
11
284.9274101
21
-138.2434978
0
LINE
8
0
10
284.9274101
20
-138.2434978
11
284.9274101
21
-121.7434978
0
LINE
8
0
10
284.9274101
20
-121.7434978
11
267.4274101
21
-121.7434978
0
LINE
8
0
10
267.4274101
20
-121.7434978
11
267.4274101
21
-138.2434978
0
LINE
8
0
10
249.42741
20
-172.2434978
11
266.92741
21
-172.2434978
0
LINE
8
0
10
266.92741
20
-172.2434978
11
266.92741
21
-155.7434978
0
LINE
8
0
10
266.92741
20
-155.7434978
11
249.42741
21
-155.7434978
0
LINE
8
0
10
249.42741
20
-155.7434978
11
249.42741
21
-172.2434978
0
LINE
8
0
10
249.42741
20
-155.2434978
11
266.92741
21
-155.2434978
0
LINE
8
0
10
266.92741
20
-155.2434978
11
266.92741
21
-138.7434978
0
LINE
8
0
10
266.92741
20
-138.7434978
11
249.42741
21
-138.7434978
0
LINE
8
0
10
249.42741
20
-138.7434978
11
249.42741
21
-155.2434978
0
LINE
8
0
10
249.42741
20
-138.2434978
11
266.92741
21
-138.2434978
0
LINE
8
0
10
266.92741
20
-138.2434978
11
266.92741
21
-121.7434978
0
LINE
8
0
10
266.92741
20
-121.7434978
11
249.42741
21
-121.7434978
0
LINE
8
0
10
249.42741
20
-121.7434978
11
249.42741
21
-138.2434978
0
LINE
8
0
10
259.9608163
20
-199.7270525
11
276.8645183
21
-195.1977192
0
LINE
8
0
10
276.8645183
20
-195.1977192
11
272.5940041
21
-179.2599431
0
LINE
8
0
10
272.5940041
20
-179.2599431
11
255.6903021
21
-183.7892764
0
LINE
8
0
10
255.6903021
20
-183.7892764
11
259.9608163
21
-199.7270525
0
LINE
8
0
10
241.0514076
20
-213.0246161
11
257.7867409
21
-207.9081112
0
LINE
8
0
10
257.7867409
20
-207.9081112
11
252.9626078
21
-192.1290827
0
LINE
8
0
10
252.9626078
20
-192.1290827
11
236.2272745
21
-197.2455876
0
LINE
8
0
10
236.2272745
20
-197.2455876
11
241.0514076
21
-213.0246161
0
LINE
8
0
10
230.5948582
20
-177.1126323
11
235.7113631
21
-193.8479656
0
LINE
8
0
10
235.7113631
20
-193.8479656
11
251.4903916
21
-189.0238325
0
LINE
8
0
10
251.4903916
20
-189.0238325
11
246.3738867
21
-172.2884992
0
LINE
8
0
10
246.3738867
20
-172.2884992
11
230.5948582
21
-177.1126323
0
LINE
8
0
10
224.2439309
20
-222.0325975
11
240.790506
21
-216.3351548
0
LINE
8
0
10
240.790506
20
-216.3351548
11
235.4186315
21
-200.7340983
0
LINE
8
0
10
235.4186315
20
-200.7340983
11
218.8720564
21
-206.431541
0
LINE
8
0
10
218.8720564
20
-206.431541
11
224.2439309
21
-222.0325975
0
LINE
8
0
10
212.5404412
20
-186.5074187
11
218.2378839
21
-203.0539938
0
LINE
8
0
10
218.2378839
20
-203.0539938
11
233.8389404
21
-197.6821193
0
LINE
8
0
10
233.8389404
20
-197.6821193
11
228.1414977
21
-181.1355442
0
LINE
8
0
10
228.1414977
20
-181.1355442
11
212.5404412
21
-186.5074187
0
LINE
8
0
10
209.42741
20
-176.2434978
11
226.92741
21
-176.2434978
0
LINE
8
0
10
226.92741
20
-176.2434978
11
226.92741
21
-159.7434978
0
LINE
8
0
10
226.92741
20
-159.7434978
11
209.42741
21
-159.7434978
0
LINE
8
0
10
209.42741
20
-159.7434978
11
209.42741
21
-176.2434978
0
ENDSEC
0
EOF