0
SECTION
2
HEADER
9
$INSUNITS
70
4
0
ENDSEC
0
SECTION
2
TABLES
0
TABLE
2
LTYPE
0
LTYPE
72
65
70
64
2
CONTINUOUS
3
______
73
0
40
0
0
ENDTAB
0
TABLE
2
LAYER
0
ENDTAB
0
ENDSEC
0
SECTION
2
ENTITIES
0
LINE
8
0
10
36.2394676
20
-151.9167568
11
70.5710286
21
-137.3438738
0
LINE
8
0
10
71.7821885
20
-135.674496
11
72.7170245
21
-124.8211905
0
LINE
8
0
10
74.3280285
20
-123.0295681
11
95.6342093
21
-118.8880662
0
LINE
8
0
10
97.2463601
20
-116.7670592
11
97.0594007
21
-114.4041593
0
LINE
8
0
10
98.9136566
20
-112.2512786
11
120.4536711
21
-110.7450541
0
LINE
8
0
10
122.4139805
20
-111.9127158
11
124.6445485
21
-116.8209642
0
LINE
8
0
10
126.4653449
20
-117.9934978
11
185.801604
21
-117.9934978
0
LINE
8
0
10
187.8014559
20
-119.9691574
11
188.2158641
21
-154.0178382
0
LINE
8
0
10
190.215716
20
-155.9934978
11
200.67741
21
-155.9934978
0
LINE
8
0
10
202.67741
20
-157.9934978
11
202.67741
21
-179.6563553
0
LINE
8
0
10
202.5668857
20
-180.312009
11
187.0897917
21
-224.914207
0
LINE
8
0
10
184.5491796
20
-226.1495906
11
162.9140099
21
-218.7000043
0
LINE
8
0
10
162.6872471
20
-218.6059905
11
146.0021025
21
-210.4548033
0
LINE
8
0
10
145.7773143
20
-210.3263363
11
127.4762725
21
-198.2318535
0
LINE
8
0
10
126.6799008
20
-197.1906524
11
120.1094502
21
-177.3013219
0
LINE
8
0
10
118.3015007
20
-175.9307533
11
109.3633021
21
-175.5231519
0
LINE
8
0
10
107.8256527
20
-176.1399447
11
94.6263873
21
-189.9643115
0
LINE
8
0
10
93.9613097
20
-190.4241903
11
73.1696982
21
-199.2497058
0
LINE
8
0
10
70.5472263
20
-198.1901582
11
49.4477454
21
-148.4828964
0
ARC
8
0
10
69.7895665
20
-135.502864
40
2
50
292.9999975
51
355.0770503
0
ARC
8
0
10
74.7096465
20
-124.9928225
40
2
50
101.0000001
51
175.0770503
0
ARC
8
0
10
95.2525913
20
-116.9248118
40
2
50
281.0000001
51
4.5239784
0
ARC
8
0
10
99.0531695
20
-114.2464067
40
2
50
94.0000013
51
184.5239784
0
ARC
8
0
10
120.5931841
20
-112.7401822
40
2
50
24.4395648
51
94.0000013
0
ARC
8
0
10
126.4653449
20
-115.9934978
40
2
50
204.4395648
51
270
0
ARC
8
0
10
185.801604
20
-119.9934978
40
2
50
0.6973183
51
90
0
ARC
8
0
10
190.215716
20
-153.9934978
40
2
50
180.6973183
51
270
0
ARC
8
0
10
200.67741
20
-157.9934978
40
2
50
0
51
90
0
ARC
8
0
10
200.67741
20
-179.6563553
40
2
50
340.8630752
51
0
0
ARC
8
0
10
185.200316
20
-224.2585534
40
2
50
250.999998
51
340.8630752
0
ARC
8
0
10
163.5651463
20
-216.8089671
40
2
50
243.9631197
51
250.999998
0
ARC
8
0
10
146.8800017
20
-208.6577799
40
2
50
236.5407545
51
243.9631197
0
ARC
8
0
10
128.5789599
20
-196.5632972
40
2
50
198.2809992
51
236.5407545
0
ARC
8
0
10
118.210391
20
-177.928677
40
2
50
18.2809992
51
87.3889985
0
ARC
8
0
10
109.2721925
20
-177.5210756
40
2
50
87.3889985
51
136.3251118
0
ARC
8
0
10
93.1798475
20
-188.5831806
40
2
50
292.9999975
51
316.3251118
0
ARC
8
0
10
72.3882361
20
-197.408696
40
2
50
202.9999975
51
292.9999975
0
ARC
8
0
10
47.6067356
20
-149.2643586
40
2
50
22.9999975
51
112.9999975
0
ENDSEC
0
EOF