0
SECTION
2
HEADER
9
$INSUNITS
70
4
0
ENDSEC
0
SECTION
2
TABLES
0
TABLE
2
LTYPE
0
LTYPE
72
65
70
64
2
CONTINUOUS
3
______
73
0
40
0
0
ENDTAB
0
TABLE
2
LAYER
0
ENDTAB
0
ENDSEC
0
SECTION
2
ENTITIES
0
LINE
8
0
10
357.8475271
20
-145.8604243
11
340.3365984
21
-138.427476
0
LINE
8
0
10
339.1856434
20
-137.1019892
11
335.8308075
21
-124.5265199
0
LINE
8
0
10
334.2800083
20
-123.0787885
11
315.0216765
21
-119.335348
0
LINE
8
0
10
313.5247354
20
-118.0583993
11
311.8997253
21
-113.6104144
0
LINE
8
0
10
310.1606793
20
-112.3015921
11
287.5148214
21
-110.7180395
0
LINE
8
0
10
285.8610925
20
-111.4065879
11
280.7757455
21
-117.3000774
0
LINE
8
0
10
279.2615296
20
-117.9934978
11
221.47741
21
-117.9934978
0
LINE
8
0
10
219.47741
20
-119.9934978
11
219.47741
21
-154.9934978
0
LINE
8
0
10
217.47741
20
-156.9934978
11
207.67741
21
-156.9934978
0
LINE
8
0
10
205.67741
20
-158.9934978
11
205.67741
21
-179.6563553
0
LINE
8
0
10
205.7879343
20
-180.312009
11
221.2650283
21
-224.914207
0
LINE
8
0
10
223.8056404
20
-226.1495906
11
245.4408101
21
-218.7000043
0
LINE
8
0
10
245.6675729
20
-218.6059905
11
262.3527175
21
-210.4548033
0
LINE
8
0
10
262.5775057
20
-210.3263363
11
280.8189115
21
-198.2712647
0
LINE
8
0
10
281.6510567
20
-197.109091
11
286.7928839
21
-177.4627309
0
LINE
8
0
10
288.6959372
20
-175.969366
11
300.4828524
21
-175.7820534
0
LINE
8
0
10
301.9793811
20
-176.4199974
11
315.1037406
21
-190.5364972
0
LINE
8
0
10
315.7870279
20
-191.0157034
11
335.1851218
21
-199.2497058
0
LINE
8
0
10
337.8075937
20
-198.1901582
11
358.9070747
21
-148.4828962
0
ARC
8
0
10
341.1180606
20
-136.5864662
40
2
50
194.9372785
51
247.0000025
0
ARC
8
0
10
333.8983903
20
-125.0420429
40
2
50
14.9372785
51
78.9999999
0
ARC
8
0
10
315.4032945
20
-117.3720936
40
2
50
200.0690818
51
258.9999999
0
ARC
8
0
10
310.0211663
20
-114.2967202
40
2
50
20.0690818
51
85.9999987
0
ARC
8
0
10
287.3753084
20
-112.7131676
40
2
50
85.9999987
51
139.209898
0
ARC
8
0
10
279.2615296
20
-115.9934978
40
2
50
270
51
319.209898
0
ARC
8
0
10
221.47741
20
-119.9934978
40
2
50
90
51
180
0
ARC
8
0
10
217.47741
20
-154.9934978
40
2
50
270
51
0
0
ARC
8
0
10
207.67741
20
-158.9934978
40
2
50
90
51
180
0
ARC
8
0
10
207.67741
20
-179.6563553
40
2
50
180
51
199.1369248
0
ARC
8
0
10
223.154504
20
-224.2585534
40
2
50
199.1369248
51
289.000002
0
ARC
8
0
10
244.7896737
20
-216.8089671
40
2
50
289.000002
51
296.0368803
0
ARC
8
0
10
261.4748183
20
-208.6577799
40
2
50
296.0368803
51
303.4592455
0
ARC
8
0
10
279.7162242
20
-196.6027084
40
2
50
303.4592455
51
345.333562
0
ARC
8
0
10
288.7277164
20
-177.9691135
40
2
50
90.9104453
51
165.333562
0
ARC
8
0
10
300.5146316
20
-177.7818009
40
2
50
42.9141502
51
90.9104453
0
ARC
8
0
10
316.5684901
20
-189.1746937
40
2
50
222.9141502
51
247.0000025
0
ARC
8
0
10
335.9665839
20
-197.408696
40
2
50
247.0000025
51
337.0000025
0
ARC
8
0
10
357.0660649
20
-147.701434
40
2
50
337.0000025
51
67.0000025
0
LINE
8
0
10
321.0299424
20
-187.8093868
11
333.9170104
21
-193.2796226
0
LINE
8
0
10
333.9170104
20
-193.2796226
11
339.3872462
21
-180.3925546
0
LINE
8
0
10
339.3872462
20
-180.3925546
11
326.5001782
21
-174.9223188
0
LINE
8
0
10
326.5001782
20
-174.9223188
11
321.0299424
21
-187.8093868
0
LINE
8
0
10
327.6723716
20
-172.1608043
11
340.5594396
21
-177.6310401
0
LINE
8
0
10
340.5594396
20
-177.6310401
11
346.0296754
21
-164.7439721
0
LINE
8
0
10
346.0296754
20
-164.7439721
11
333.1426074
21
-159.2737363
0
LINE
8
0
10
333.1426074
20
-159.2737363
11
327.6723716
21
-172.1608043
0
LINE
8
0
10
334.3148008
20
-156.5122218
11
347.2018688
21
-161.9824576
0
LINE
8
0
10
347.2018688
20
-161.9824576
11
352.6721046
21
-149.0953896
0
LINE
8
0
10
352.6721046
20
-149.0953896
11
339.7850366
21
-143.6251538
0
LINE
8
0
10
339.7850366
20
-143.6251538
11
334.3148008
21
-156.5122218
0
LINE
8
0
10
306.2536736
20
-171.6230057
11
319.9964542
21
-174.2943317
0
LINE
8
0
10
319.9964542
20
-174.2943317
11
322.6677802
21
-160.5515511
0
LINE
8
0
10
322.6677802
20
-160.5515511
11
308.9249996
21
-157.8802251
0
LINE
8
0
10
308.9249996
20
-157.8802251
11
306.2536736
21
-171.6230057
0
LINE
8
0
10
309.4974266
20
-154.9353436
11
323.2402072
21
-157.6066696
0
LINE
8
0
10
323.2402072
20
-157.6066696
11
325.9115332
21
-143.863889
0
LINE
8
0
10
325.9115332
20
-143.863889
11
312.1687526
21
-141.192563
0
LINE
8
0
10
312.1687526
20
-141.192563
11
309.4974266
21
-154.9353436
0
LINE
8
0
10
312.7411795
20
-138.2476815
11
326.4839601
21
-140.9190075
0
LINE
8
0
10
326.4839601
20
-140.9190075
11
329.1552861
21
-127.1762269
0
LINE
8
0
10
329.1552861
20
-127.1762269
11
315.4125055
21
-124.5049009
0
LINE
8
0
10
315.4125055
20
-124.5049009
11
312.7411795
21
-138.2476815
0
LINE
8
0
10
288.305029
20
-163.9027167
11
302.2709257
21
-164.8793074
0
LINE
8
0
10
302.2709257
20
-164.8793074
11
303.2475164
21
-150.9134107
0
LINE
8
0
10
303.2475164
20
-150.9134107
11
289.2816197
21
-149.93682
0
LINE
8
0
10
289.2816197
20
-149.93682
11
288.305029
21
-163.9027167
0
LINE
8
0
10
289.4908891
20
-146.9441278
11
303.4567858
21
-147.9207185
0
LINE
8
0
10
303.4567858
20
-147.9207185
11
304.4333765
21
-133.9548218
0
LINE
8
0
10
304.4333765
20
-133.9548218
11
290.4674798
21
-132.9782311
0
LINE
8
0
10
290.4674798
20
-132.9782311
11
289.4908891
21
-146.9441278
0
LINE
8
0
10
290.6767492
20
-129.985539
11
304.6426459
21
-130.9621297
0
LINE
8
0
10
304.6426459
20
-130.9621297
11
305.6192366
21
-116.996233
0
LINE
8
0
10
305.6192366
20
-116.996233
11
291.6533399
21
-116.0196423
0
LINE
8
0
10
291.6533399
20
-116.0196423
11
290.6767492
21
-129.985539
0
LINE
8
0
10
269.1774102
20
-170.9934978
11
283.1774102
21
-170.9934978
0
LINE
8
0
10
283.1774102
20
-170.9934978
11
283.1774102
21
-156.9934978
0
LINE
8
0
10
283.1774102
20
-156.9934978
11
269.1774102
21
-156.9934978
0
LINE
8
0
10
269.1774102
20
-156.9934978
11
269.1774102
21
-170.9934978
0
LINE
8
0
10
269.1774101
20
-153.9934978
11
283.1774101
21
-153.9934978
0
LINE
8
0
10
283.1774101
20
-153.9934978
11
283.1774101
21
-139.9934978
0
LINE
8
0
10
283.1774101
20
-139.9934978
11
269.1774101
21
-139.9934978
0
LINE
8
0
10
269.1774101
20
-139.9934978
11
269.1774101
21
-153.9934978
0
LINE
8
0
10
269.1774101
20
-136.9934978
11
283.1774101
21
-136.9934978
0
LINE
8
0
10
283.1774101
20
-136.9934978
11
283.1774101
21
-122.9934978
0
LINE
8
0
10
283.1774101
20
-122.9934978
11
269.1774101
21
-122.9934978
0
LINE
8
0
10
269.1774101
20
-122.9934978
11
269.1774101
21
-136.9934978
0
LINE
8
0
10
251.17741
20
-170.9934978
11
265.17741
21
-170.9934978
0
LINE
8
0
10
265.17741
20
-170.9934978
11
265.17741
21
-156.9934978
0
LINE
8
0
10
265.17741
20
-156.9934978
11
251.17741
21
-156.9934978
0
LINE
8
0
10
251.17741
20
-156.9934978
11
251.17741
21
-170.9934978
0
LINE
8
0
10
251.17741
20
-153.9934978
11
265.17741
21
-153.9934978
0
LINE
8
0
10
265.17741
20
-153.9934978
11
265.17741
21
-139.9934978
0
LINE
8
0
10
265.17741
20
-139.9934978
11
251.17741
21
-139.9934978
0
LINE
8
0
10
251.17741
20
-139.9934978
11
251.17741
21
-153.9934978
0
LINE
8
0
10
251.17741
20
-136.9934978
11
265.17741
21
-136.9934978
0
LINE
8
0
10
265.17741
20
-136.9934978
11
265.17741
21
-122.9934978
0
LINE
8
0
10
265.17741
20
-122.9934978
11
251.17741
21
-122.9934978
0
LINE
8
0
10
251.17741
20
-122.9934978
11
251.17741
21
-136.9934978
0
LINE
8
0
10
261.3276627
20
-198.0667119
11
274.8506243
21
-194.4432453
0
LINE
8
0
10
274.8506243
20
-194.4432453
11
271.2271577
21
-180.9202837
0
LINE
8
0
10
271.2271577
20
-180.9202837
11
257.7041961
21
-184.5437503
0
LINE
8
0
10
257.7041961
20
-184.5437503
11
261.3276627
21
-198.0667119
0
LINE
8
0
10
242.3594763
20
-211.3175846
11
255.7477429
21
-207.2243808
0
LINE
8
0
10
255.7477429
20
-207.2243808
11
251.6545391
21
-193.8361142
0
LINE
8
0
10
251.6545391
20
-193.8361142
11
238.2662725
21
-197.929318
0
LINE
8
0
10
238.2662725
20
-197.929318
11
242.3594763
21
-211.3175846
0
LINE
8
0
10
232.3018897
20
-178.420701
11
236.3950935
21
-191.8089676
0
LINE
8
0
10
236.3950935
20
-191.8089676
11
249.7833601
21
-187.7157638
0
LINE
8
0
10
249.7833601
20
-187.7157638
11
245.6901563
21
-174.3274972
0
LINE
8
0
10
245.6901563
20
-174.3274972
11
232.3018897
21
-178.420701
0
LINE
8
0
10
225.4916283
20
-220.280955
11
238.7288883
21
-215.7230008
0
LINE
8
0
10
238.7288883
20
-215.7230008
11
234.1709341
21
-202.4857408
0
LINE
8
0
10
234.1709341
20
-202.4857408
11
220.9336741
21
-207.043695
0
LINE
8
0
10
220.9336741
20
-207.043695
11
225.4916283
21
-220.280955
0
LINE
8
0
10
214.2920837
20
-187.7551161
11
218.8500379
21
-200.9923761
0
LINE
8
0
10
218.8500379
20
-200.9923761
11
232.0872979
21
-196.4344219
0
LINE
8
0
10
232.0872979
20
-196.4344219
11
227.5293437
21
-183.1971619
0
LINE
8
0
10
227.5293437
20
-183.1971619
11
214.2920837
21
-187.7551161
0
LINE
8
0
10
212.17741
20
-173.9934978
11
224.17741
21
-173.9934978
0
LINE
8
0
10
224.17741
20
-173.9934978
11
224.17741
21
-161.9934978
0
LINE
8
0
10
224.17741
20
-161.9934978
11
212.17741
21
-161.9934978
0
LINE
8
0
10
212.17741
20
-161.9934978
11
212.17741
21
-173.9934978
0
LINE
8
0
10
227.92741
20
-156.2434978
11
230.17741
21
-156.2434978
0
LINE
8
0
10
244.17741
20
-156.2434978
11
246.42741
21
-156.2434978
0
LINE
8
0
10
246.42741
20
-156.2434978
11
246.42741
21
-122.7434978
0
LINE
8
0
10
246.42741
20
-122.7434978
11
227.92741
21
-122.7434978
0
LINE
8
0
10
227.92741
20
-122.7434978
11
227.92741
21
-156.2434978
0
LINE
8
0
10
230.17741
20
-163.9934978
11
244.17741
21
-163.9934978
0
LINE
8
0
10
244.17741
20
-163.9934978
11
244.17741
21
-156.2434978
0
LINE
8
0
10
230.17741
20
-156.2434978
11
230.17741
21
-163.9934978
0
ENDSEC
0
EOF