0
SECTION
2
HEADER
9
$INSUNITS
70
4
0
ENDSEC
0
SECTION
2
TABLES
0
TABLE
2
LTYPE
0
LTYPE
72
65
70
64
2
CONTINUOUS
3
______
73
0
40
0
0
ENDTAB
0
TABLE
2
LAYER
0
ENDTAB
0
ENDSEC
0
SECTION
2
ENTITIES
0
LINE
8
0
10
358.4897872
20
-147.1262129
11
359.6885369
21
-146.6418866
0
LINE
8
0
10
359.6885369
20
-146.6418866
11
338.4761085
21
-139.1935363
0
LINE
8
0
10
337.2028495
20
-137.8089203
11
334.066335
21
-125.7240357
0
LINE
8
0
10
332.5120914
20
-124.2632153
11
313.2775965
21
-120.5244082
0
LINE
8
0
10
311.7730742
20
-119.2263414
11
310.2903687
21
-115.0221281
0
LINE
8
0
10
308.5437413
20
-113.6921876
11
288.9086253
21
-112.3191666
0
LINE
8
0
10
287.2527083
20
-113.0102552
11
282.275905
21
-118.7975372
0
LINE
8
0
10
224.0217951
20
-119.4934978
11
280.759501
21
-119.4934978
0
LINE
8
0
10
222.0225902
20
-121.43711
11
221.0322298
21
-156.5498856
0
LINE
8
0
10
219.0330249
20
-158.4934978
11
209.17741
21
-158.4934978
0
LINE
8
0
10
207.17741
20
-160.4934978
11
207.17741
21
-178.127965
0
LINE
8
0
10
207.3067054
20
-178.8354
11
209.6656859
21
-185.0733671
0
LINE
8
0
10
209.6936535
20
-185.1522766
11
222.2129719
21
-222.9710781
0
LINE
8
0
10
224.7627804
20
-224.2335898
11
243.5319419
21
-217.7708492
0
LINE
8
0
10
243.7629395
20
-217.6747604
11
260.4806104
21
-209.4587985
0
LINE
8
0
10
260.7036652
20
-209.3307507
11
279.0506217
21
-197.1663476
0
LINE
8
0
10
279.8395771
20
-196.1414888
11
286.7237282
21
-175.8319454
0
LINE
8
0
10
288.590526
20
-174.4741742
11
300.7806943
21
-174.3074798
0
LINE
8
0
10
302.2624881
20
-174.9344918
11
315.6928938
21
-189.1636618
0
LINE
8
0
10
316.3658791
20
-189.6318706
11
334.3904612
21
-197.2828519
0
LINE
8
0
10
337.0129331
20
-196.2233043
11
357.3979906
21
-148.1991185
0
ARC
8
0
10
339.1387111
20
-137.3064863
40
2
50
194.5495395
51
250.6522216
0
ARC
8
0
10
332.1304734
20
-126.2264697
40
2
50
14.5495395
51
78.9999999
0
ARC
8
0
10
313.6592145
20
-118.5611538
40
2
50
199.426284
51
258.9999999
0
ARC
8
0
10
308.4042283
20
-115.6873157
40
2
50
19.426284
51
85.9999987
0
ARC
8
0
10
288.7691123
20
-114.3142947
40
2
50
85.9999987
51
139.3059468
0
ARC
8
0
10
280.759501
20
-117.4934978
40
2
50
270
51
319.3059468
0
ARC
8
0
10
224.0217951
20
-121.4934978
40
2
50
90
51
178.3843945
0
ARC
8
0
10
219.0330249
20
-156.4934978
40
2
50
270
51
358.3843945
0
ARC
8
0
10
209.17741
20
-160.4934978
40
2
50
90
51
180
0
ARC
8
0
10
209.17741
20
-178.127965
40
2
50
180
51
200.7148634
0
ARC
8
0
10
207.7949814
20
-185.7808021
40
2
50
18.3163105
51
20.7148634
0
ARC
8
0
10
224.1116441
20
-222.3425526
40
2
50
198.3163105
51
289.000002
0
ARC
8
0
10
242.8808055
20
-215.8798121
40
2
50
289.000002
51
296.1719792
0
ARC
8
0
10
259.5984764
20
-207.6638501
40
2
50
296.1719792
51
303.5451829
0
ARC
8
0
10
277.9454329
20
-195.499447
40
2
50
303.5451829
51
341.275324
0
ARC
8
0
10
288.6178724
20
-176.4739872
40
2
50
90.7834411
51
161.275324
0
ARC
8
0
10
300.8080407
20
-176.3072928
40
2
50
43.3458495
51
90.7834411
0
ARC
8
0
10
317.1473412
20
-187.7908608
40
2
50
223.3458495
51
247.0000025
0
ARC
8
0
10
335.1719233
20
-195.4418421
40
2
50
247.0000025
51
337.0000025
0
ARC
8
0
10
359.2390004
20
-148.9805806
40
2
50
111.9999994
51
157.0000025
0
ENDSEC
0
EOF