0
SECTION
2
HEADER
9
$INSUNITS
70
4
0
ENDSEC
0
SECTION
2
TABLES
0
TABLE
2
LTYPE
0
LTYPE
72
65
70
64
2
CONTINUOUS
3
______
73
0
40
0
0
ENDTAB
0
TABLE
2
LAYER
0
ENDTAB
0
ENDSEC
0
SECTION
2
ENTITIES
0
LINE
8
0
10
73.31534
20
-195.1140331
11
89.424175
21
-188.2762384
0
LINE
8
0
10
89.424175
20
-188.2762384
11
82.9771114
21
-173.0879083
0
LINE
8
0
10
82.9771114
20
-173.0879083
11
66.8682764
21
-179.925703
0
LINE
8
0
10
66.8682764
20
-179.925703
11
73.31534
21
-195.1140331
0
LINE
8
0
10
66.6729108
20
-179.4654506
11
82.7817458
21
-172.6276559
0
LINE
8
0
10
82.7817458
20
-172.6276559
11
76.3346822
21
-157.4393258
0
LINE
8
0
10
76.3346822
20
-157.4393258
11
60.2258472
21
-164.2771205
0
LINE
8
0
10
60.2258472
20
-164.2771205
11
66.6729108
21
-179.4654506
0
LINE
8
0
10
60.0304816
20
-163.8168681
11
76.1393166
21
-156.9790734
0
LINE
8
0
10
76.1393166
20
-156.9790734
11
69.692253
21
-141.7907433
0
LINE
8
0
10
69.692253
20
-141.7907433
11
53.583418
21
-148.628538
0
LINE
8
0
10
53.583418
20
-148.628538
11
60.0304816
21
-163.8168681
0
LINE
8
0
10
86.8790295
20
-175.8552814
11
104.0575052
21
-172.516124
0
LINE
8
0
10
104.0575052
20
-172.516124
11
100.9091567
21
-156.3192754
0
LINE
8
0
10
100.9091567
20
-156.3192754
11
83.730681
21
-159.6584328
0
LINE
8
0
10
83.730681
20
-159.6584328
11
86.8790295
21
-175.8552814
0
LINE
8
0
10
83.6352765
20
-159.1676193
11
100.8137522
21
-155.8284619
0
LINE
8
0
10
100.8137522
20
-155.8284619
11
97.6654037
21
-139.6316133
0
LINE
8
0
10
97.6654037
20
-139.6316133
11
80.486928
21
-142.9707707
0
LINE
8
0
10
80.486928
20
-142.9707707
11
83.6352765
21
-159.1676193
0
LINE
8
0
10
80.3915236
20
-142.4799572
11
97.5699993
21
-139.1407998
0
LINE
8
0
10
97.5699993
20
-139.1407998
11
94.4216508
21
-122.9439512
0
LINE
8
0
10
94.4216508
20
-122.9439512
11
77.2431751
21
-126.2831086
0
LINE
8
0
10
77.2431751
20
-126.2831086
11
80.3915236
21
-142.4799572
0
LINE
8
0
10
104.4253528
20
-166.2483363
11
121.8827236
21
-165.027598
0
LINE
8
0
10
121.8827236
20
-165.027598
11
120.7317418
21
-148.5677911
0
LINE
8
0
10
120.7317418
20
-148.5677911
11
103.274371
21
-149.7885294
0
LINE
8
0
10
103.274371
20
-149.7885294
11
104.4253528
21
-166.2483363
0
LINE
8
0
10
103.2394927
20
-149.2897474
11
120.6968635
21
-148.0690091
0
LINE
8
0
10
120.6968635
20
-148.0690091
11
119.5458817
21
-131.6092022
0
LINE
8
0
10
119.5458817
20
-131.6092022
11
102.0885109
21
-132.8299405
0
LINE
8
0
10
102.0885109
20
-132.8299405
11
103.2394927
21
-149.2897474
0
LINE
8
0
10
102.0536326
20
-132.3311586
11
119.5110034
21
-131.1104203
0
LINE
8
0
10
119.5110034
20
-131.1104203
11
118.3600216
21
-114.6506134
0
LINE
8
0
10
118.3600216
20
-114.6506134
11
100.9026508
21
-115.8713517
0
LINE
8
0
10
100.9026508
20
-115.8713517
11
102.0536326
21
-132.3311586
0
LINE
8
0
10
123.4274098
20
-172.2434978
11
140.9274098
21
-172.2434978
0
LINE
8
0
10
140.9274098
20
-172.2434978
11
140.9274098
21
-155.7434978
0
LINE
8
0
10
140.9274098
20
-155.7434978
11
123.4274098
21
-155.7434978
0
LINE
8
0
10
123.4274098
20
-155.7434978
11
123.4274098
21
-172.2434978
0
LINE
8
0
10
123.4274099
20
-155.2434978
11
140.9274099
21
-155.2434978
0
LINE
8
0
10
140.9274099
20
-155.2434978
11
140.9274099
21
-138.7434978
0
LINE
8
0
10
140.9274099
20
-138.7434978
11
123.4274099
21
-138.7434978
0
LINE
8
0
10
123.4274099
20
-138.7434978
11
123.4274099
21
-155.2434978
0
LINE
8
0
10
123.4274099
20
-138.2434978
11
140.9274099
21
-138.2434978
0
LINE
8
0
10
140.9274099
20
-138.2434978
11
140.9274099
21
-121.7434978
0
LINE
8
0
10
140.9274099
20
-121.7434978
11
123.4274099
21
-121.7434978
0
LINE
8
0
10
123.4274099
20
-121.7434978
11
123.4274099
21
-138.2434978
0
LINE
8
0
10
141.42741
20
-172.2434978
11
158.92741
21
-172.2434978
0
LINE
8
0
10
158.92741
20
-172.2434978
11
158.92741
21
-155.7434978
0
LINE
8
0
10
158.92741
20
-155.7434978
11
141.42741
21
-155.7434978
0
LINE
8
0
10
141.42741
20
-155.7434978
11
141.42741
21
-172.2434978
0
LINE
8
0
10
141.42741
20
-155.2434978
11
158.92741
21
-155.2434978
0
LINE
8
0
10
158.92741
20
-155.2434978
11
158.92741
21
-138.7434978
0
LINE
8
0
10
158.92741
20
-138.7434978
11
141.42741
21
-138.7434978
0
LINE
8
0
10
141.42741
20
-138.7434978
11
141.42741
21
-155.2434978
0
LINE
8
0
10
141.42741
20
-138.2434978
11
158.92741
21
-138.2434978
0
LINE
8
0
10
158.92741
20
-138.2434978
11
158.92741
21
-121.7434978
0
LINE
8
0
10
158.92741
20
-121.7434978
11
141.42741
21
-121.7434978
0
LINE
8
0
10
141.42741
20
-121.7434978
11
141.42741
21
-138.2434978
0
LINE
8
0
10
131.4903017
20
-195.1977192
11
148.3940037
21
-199.7270525
0
LINE
8
0
10
148.3940037
20
-199.7270525
11
152.6645179
21
-183.7892764
0
LINE
8
0
10
152.6645179
20
-183.7892764
11
135.7608159
21
-179.2599431
0
LINE
8
0
10
135.7608159
20
-179.2599431
11
131.4903017
21
-195.1977192
0
LINE
8
0
10
150.5680791
20
-207.9081112
11
167.3034124
21
-213.0246161
0
LINE
8
0
10
167.3034124
20
-213.0246161
11
172.1275455
21
-197.2455876
0
LINE
8
0
10
172.1275455
20
-197.2455876
11
155.3922122
21
-192.1290827
0
LINE
8
0
10
155.3922122
20
-192.1290827
11
150.5680791
21
-207.9081112
0
LINE
8
0
10
172.6434569
20
-193.8479656
11
177.7599618
21
-177.1126323
0
LINE
8
0
10
177.7599618
20
-177.1126323
11
161.9809333
21
-172.2884992
0
LINE
8
0
10
161.9809333
20
-172.2884992
11
156.8644284
21
-189.0238325
0
LINE
8
0
10
156.8644284
20
-189.0238325
11
172.6434569
21
-193.8479656
0
LINE
8
0
10
167.564314
20
-216.3351548
11
184.1108891
21
-222.0325975
0
LINE
8
0
10
184.1108891
20
-222.0325975
11
189.4827636
21
-206.431541
0
LINE
8
0
10
189.4827636
20
-206.431541
11
172.9361885
21
-200.7340983
0
LINE
8
0
10
172.9361885
20
-200.7340983
11
167.564314
21
-216.3351548
0
LINE
8
0
10
190.1169361
20
-203.0539938
11
195.8143788
21
-186.5074187
0
LINE
8
0
10
195.8143788
20
-186.5074187
11
180.2133223
21
-181.1355442
0
LINE
8
0
10
180.2133223
20
-181.1355442
11
174.5158796
21
-197.6821193
0
LINE
8
0
10
174.5158796
20
-197.6821193
11
190.1169361
21
-203.0539938
0
LINE
8
0
10
181.42741
20
-176.2434978
11
198.92741
21
-176.2434978
0
LINE
8
0
10
198.92741
20
-176.2434978
11
198.92741
21
-159.7434978
0
LINE
8
0
10
198.92741
20
-159.7434978
11
181.42741
21
-159.7434978
0
LINE
8
0
10
181.42741
20
-159.7434978
11
181.42741
21
-176.2434978
0
ENDSEC
0
EOF