0
SECTION
2
HEADER
9
$INSUNITS
70
4
0
ENDSEC
0
SECTION
2
TABLES
0
TABLE
2
LTYPE
0
LTYPE
72
65
70
64
2
CONTINUOUS
3
______
73
0
40
0
0
ENDTAB
0
TABLE
2
LAYER
0
ENDTAB
0
ENDSEC
0
SECTION
2
ENTITIES
0
LINE
8
0
10
49.4477454
20
-148.4828963
11
70.5472263
21
-198.1901582
0
LINE
8
0
10
50.5072929
20
-145.8604243
11
68.0182216
21
-138.427476
0
LINE
8
0
10
69.1691766
20
-137.1019892
11
72.5240125
21
-124.5265199
0
LINE
8
0
10
74.0748117
20
-123.0787885
11
93.3331435
21
-119.335348
0
LINE
8
0
10
94.8300846
20
-118.0583993
11
96.4550947
21
-113.6104144
0
LINE
8
0
10
98.1941407
20
-112.3015921
11
120.8399986
21
-110.7180395
0
LINE
8
0
10
122.4937275
20
-111.4065879
11
127.5790745
21
-117.3000774
0
LINE
8
0
10
129.0932904
20
-117.9934978
11
186.87741
21
-117.9934978
0
LINE
8
0
10
188.87741
20
-119.9934978
11
188.87741
21
-154.9934978
0
LINE
8
0
10
190.87741
20
-156.9934978
11
200.67741
21
-156.9934978
0
LINE
8
0
10
202.67741
20
-158.9934978
11
202.67741
21
-179.6563553
0
LINE
8
0
10
202.5668857
20
-180.312009
11
187.0897917
21
-224.914207
0
LINE
8
0
10
184.5491796
20
-226.1495906
11
162.9140099
21
-218.7000043
0
LINE
8
0
10
162.6872471
20
-218.6059905
11
146.0021025
21
-210.4548033
0
LINE
8
0
10
145.7773143
20
-210.3263363
11
127.4762725
21
-198.2318535
0
LINE
8
0
10
126.6799008
20
-197.1906524
11
120.1094502
21
-177.3013219
0
LINE
8
0
10
118.3015007
20
-175.9307533
11
109.3633021
21
-175.5231519
0
LINE
8
0
10
107.8256527
20
-176.1399447
11
94.6263873
21
-189.9643115
0
LINE
8
0
10
93.9613097
20
-190.4241903
11
73.1696982
21
-199.2497058
0
ARC
8
0
10
51.2887551
20
-147.701434
40
2
50
112.9999975
51
202.9999997
0
ARC
8
0
10
67.2367594
20
-136.5864662
40
2
50
292.9999975
51
345.0627215
0
ARC
8
0
10
74.4564297
20
-125.0420429
40
2
50
101.0000001
51
165.0627215
0
ARC
8
0
10
92.9515255
20
-117.3720936
40
2
50
281.0000001
51
339.9309182
0
ARC
8
0
10
98.3336537
20
-114.2967202
40
2
50
94.0000013
51
159.9309182
0
ARC
8
0
10
120.9795116
20
-112.7131676
40
2
50
40.790102
51
94.0000013
0
ARC
8
0
10
129.0932904
20
-115.9934978
40
2
50
220.790102
51
270
0
ARC
8
0
10
186.87741
20
-119.9934978
40
2
50
0
51
90
0
ARC
8
0
10
190.87741
20
-154.9934978
40
2
50
180
51
270
0
ARC
8
0
10
200.67741
20
-158.9934978
40
2
50
0
51
90
0
ARC
8
0
10
200.67741
20
-179.6563553
40
2
50
340.8630752
51
0
0
ARC
8
0
10
185.200316
20
-224.2585534
40
2
50
250.999998
51
340.8630752
0
ARC
8
0
10
163.5651463
20
-216.8089671
40
2
50
243.9631197
51
250.999998
0
ARC
8
0
10
146.8800017
20
-208.6577799
40
2
50
236.5407545
51
243.9631197
0
ARC
8
0
10
128.5789599
20
-196.5632972
40
2
50
198.2809992
51
236.5407545
0
ARC
8
0
10
118.210391
20
-177.928677
40
2
50
18.2809992
51
87.3889985
0
ARC
8
0
10
109.2721925
20
-177.5210756
40
2
50
87.3889985
51
136.3251118
0
ARC
8
0
10
93.1798475
20
-188.5831806
40
2
50
292.9999975
51
316.3251118
0
ARC
8
0
10
72.3882361
20
-197.408696
40
2
50
202.9999975
51
292.9999975
0
LINE
8
0
10
74.4378096
20
-193.2796226
11
87.3248776
21
-187.8093868
0
LINE
8
0
10
87.3248776
20
-187.8093868
11
81.8546418
21
-174.9223188
0
LINE
8
0
10
81.8546418
20
-174.9223188
11
68.9675738
21
-180.3925546
0
LINE
8
0
10
68.9675738
20
-180.3925546
11
74.4378096
21
-193.2796226
0
LINE
8
0
10
67.7953804
20
-177.6310401
11
80.6824484
21
-172.1608043
0
LINE
8
0
10
80.6824484
20
-172.1608043
11
75.2122126
21
-159.2737363
0
LINE
8
0
10
75.2122126
20
-159.2737363
11
62.3251446
21
-164.7439721
0
LINE
8
0
10
62.3251446
20
-164.7439721
11
67.7953804
21
-177.6310401
0
LINE
8
0
10
61.1529512
20
-161.9824576
11
74.0400192
21
-156.5122218
0
LINE
8
0
10
74.0400192
20
-156.5122218
11
68.5697834
21
-143.6251538
0
LINE
8
0
10
68.5697834
20
-143.6251538
11
55.6827154
21
-149.0953896
0
LINE
8
0
10
55.6827154
20
-149.0953896
11
61.1529512
21
-161.9824576
0
LINE
8
0
10
88.3583658
20
-174.2943317
11
102.1011464
21
-171.6230057
0
LINE
8
0
10
102.1011464
20
-171.6230057
11
99.4298204
21
-157.8802251
0
LINE
8
0
10
99.4298204
20
-157.8802251
11
85.6870398
21
-160.5515511
0
LINE
8
0
10
85.6870398
20
-160.5515511
11
88.3583658
21
-174.2943317
0
LINE
8
0
10
85.1146128
20
-157.6066696
11
98.8573934
21
-154.9353436
0
LINE
8
0
10
98.8573934
20
-154.9353436
11
96.1860674
21
-141.192563
0
LINE
8
0
10
96.1860674
20
-141.192563
11
82.4432868
21
-143.863889
0
LINE
8
0
10
82.4432868
20
-143.863889
11
85.1146128
21
-157.6066696
0
LINE
8
0
10
81.8708599
20
-140.9190075
11
95.6136405
21
-138.2476815
0
LINE
8
0
10
95.6136405
20
-138.2476815
11
92.9423145
21
-124.5049009
0
LINE
8
0
10
92.9423145
20
-124.5049009
11
79.1995339
21
-127.1762269
0
LINE
8
0
10
79.1995339
20
-127.1762269
11
81.8708599
21
-140.9190075
0
LINE
8
0
10
106.0838943
20
-164.8793074
11
120.049791
21
-163.9027167
0
LINE
8
0
10
120.049791
20
-163.9027167
11
119.0732003
21
-149.93682
0
LINE
8
0
10
119.0732003
20
-149.93682
11
105.1073036
21
-150.9134107
0
LINE
8
0
10
105.1073036
20
-150.9134107
11
106.0838943
21
-164.8793074
0
LINE
8
0
10
104.8980342
20
-147.9207185
11
118.8639309
21
-146.9441278
0
LINE
8
0
10
118.8639309
20
-146.9441278
11
117.8873402
21
-132.9782311
0
LINE
8
0
10
117.8873402
20
-132.9782311
11
103.9214435
21
-133.9548218
0
LINE
8
0
10
103.9214435
20
-133.9548218
11
104.8980342
21
-147.9207185
0
LINE
8
0
10
103.7121741
20
-130.9621297
11
117.6780708
21
-129.985539
0
LINE
8
0
10
117.6780708
20
-129.985539
11
116.7014801
21
-116.0196423
0
LINE
8
0
10
116.7014801
20
-116.0196423
11
102.7355834
21
-116.996233
0
LINE
8
0
10
102.7355834
20
-116.996233
11
103.7121741
21
-130.9621297
0
LINE
8
0
10
125.1774098
20
-170.9934978
11
139.1774098
21
-170.9934978
0
LINE
8
0
10
139.1774098
20
-170.9934978
11
139.1774098
21
-156.9934978
0
LINE
8
0
10
139.1774098
20
-156.9934978
11
125.1774098
21
-156.9934978
0
LINE
8
0
10
125.1774098
20
-156.9934978
11
125.1774098
21
-170.9934978
0
LINE
8
0
10
125.1774099
20
-153.9934978
11
139.1774099
21
-153.9934978
0
LINE
8
0
10
139.1774099
20
-153.9934978
11
139.1774099
21
-139.9934978
0
LINE
8
0
10
139.1774099
20
-139.9934978
11
125.1774099
21
-139.9934978
0
LINE
8
0
10
125.1774099
20
-139.9934978
11
125.1774099
21
-153.9934978
0
LINE
8
0
10
125.1774099
20
-136.9934978
11
139.1774099
21
-136.9934978
0
LINE
8
0
10
139.1774099
20
-136.9934978
11
139.1774099
21
-122.9934978
0
LINE
8
0
10
139.1774099
20
-122.9934978
11
125.1774099
21
-122.9934978
0
LINE
8
0
10
125.1774099
20
-122.9934978
11
125.1774099
21
-136.9934978
0
LINE
8
0
10
143.17741
20
-170.9934978
11
157.17741
21
-170.9934978
0
LINE
8
0
10
157.17741
20
-170.9934978
11
157.17741
21
-156.9934978
0
LINE
8
0
10
157.17741
20
-156.9934978
11
143.17741
21
-156.9934978
0
LINE
8
0
10
143.17741
20
-156.9934978
11
143.17741
21
-170.9934978
0
LINE
8
0
10
143.17741
20
-153.9934978
11
157.17741
21
-153.9934978
0
LINE
8
0
10
157.17741
20
-153.9934978
11
157.17741
21
-139.9934978
0
LINE
8
0
10
157.17741
20
-139.9934978
11
143.17741
21
-139.9934978
0
LINE
8
0
10
143.17741
20
-139.9934978
11
143.17741
21
-153.9934978
0
LINE
8
0
10
143.17741
20
-136.9934978
11
157.17741
21
-136.9934978
0
LINE
8
0
10
157.17741
20
-136.9934978
11
157.17741
21
-122.9934978
0
LINE
8
0
10
157.17741
20
-122.9934978
11
143.17741
21
-122.9934978
0
LINE
8
0
10
143.17741
20
-122.9934978
11
143.17741
21
-136.9934978
0
LINE
8
0
10
133.5041957
20
-194.4432453
11
147.0271573
21
-198.0667119
0
LINE
8
0
10
147.0271573
20
-198.0667119
11
150.6506239
21
-184.5437503
0
LINE
8
0
10
150.6506239
20
-184.5437503
11
137.1276623
21
-180.9202837
0
LINE
8
0
10
137.1276623
20
-180.9202837
11
133.5041957
21
-194.4432453
0
LINE
8
0
10
152.6070771
20
-207.2243808
11
165.9953437
21
-211.3175846
0
LINE
8
0
10
165.9953437
20
-211.3175846
11
170.0885475
21
-197.929318
0
LINE
8
0
10
170.0885475
20
-197.929318
11
156.7002809
21
-193.8361142
0
LINE
8
0
10
156.7002809
20
-193.8361142
11
152.6070771
21
-207.2243808
0
LINE
8
0
10
171.9597265
20
-191.8089676
11
176.0529303
21
-178.420701
0
LINE
8
0
10
176.0529303
20
-178.420701
11
162.6646637
21
-174.3274972
0
LINE
8
0
10
162.6646637
20
-174.3274972
11
158.5714599
21
-187.7157638
0
LINE
8
0
10
158.5714599
20
-187.7157638
11
171.9597265
21
-191.8089676
0
LINE
8
0
10
169.6259317
20
-215.7230008
11
182.8631917
21
-220.280955
0
LINE
8
0
10
182.8631917
20
-220.280955
11
187.4211459
21
-207.043695
0
LINE
8
0
10
187.4211459
20
-207.043695
11
174.1838859
21
-202.4857408
0
LINE
8
0
10
174.1838859
20
-202.4857408
11
169.6259317
21
-215.7230008
0
LINE
8
0
10
189.5047821
20
-200.9923761
11
194.0627363
21
-187.7551161
0
LINE
8
0
10
194.0627363
20
-187.7551161
11
180.8254763
21
-183.1971619
0
LINE
8
0
10
180.8254763
20
-183.1971619
11
176.2675221
21
-196.4344219
0
LINE
8
0
10
176.2675221
20
-196.4344219
11
189.5047821
21
-200.9923761
0
LINE
8
0
10
184.17741
20
-173.9934978
11
196.17741
21
-173.9934978
0
LINE
8
0
10
196.17741
20
-173.9934978
11
196.17741
21
-161.9934978
0
LINE
8
0
10
196.17741
20
-161.9934978
11
184.17741
21
-161.9934978
0
LINE
8
0
10
184.17741
20
-161.9934978
11
184.17741
21
-173.9934978
0
LINE
8
0
10
161.92741
20
-156.2434978
11
164.17741
21
-156.2434978
0
LINE
8
0
10
178.17741
20
-156.2434978
11
180.42741
21
-156.2434978
0
LINE
8
0
10
180.42741
20
-156.2434978
11
180.42741
21
-122.7434978
0
LINE
8
0
10
180.42741
20
-122.7434978
11
161.92741
21
-122.7434978
0
LINE
8
0
10
161.92741
20
-122.7434978
11
161.92741
21
-156.2434978
0
LINE
8
0
10
164.17741
20
-163.9934978
11
178.17741
21
-163.9934978
0
LINE
8
0
10
178.17741
20
-163.9934978
11
178.17741
21
-156.2434978
0
LINE
8
0
10
164.17741
20
-156.2434978
11
164.17741
21
-163.9934978
0
ENDSEC
0
EOF