M48
; DRILL file {KiCad 9.0.5} date 2025-11-08T17:13:50+1000
; FORMAT={-:-/ absolute / metric / decimal}
; #@! TF.CreationDate,2025-11-08T17:13:50+10:00
; #@! TF.GenerationSoftware,Kicad,Pcbnew,9.0.5
; #@! TF.FileFunction,Plated,1,2,PTH
FMAT,2
METRIC
; #@! TA.AperFunction,Plated,PTH,ComponentDrill
T1C0.300
; #@! TA.AperFunction,Plated,PTH,ComponentDrill
T2C0.400
; #@! TA.AperFunction,Plated,PTH,ComponentDrill
T3C0.750
; #@! TA.AperFunction,Plated,PTH,ComponentDrill
T4C1.000
; #@! TA.AperFunction,Plated,PTH,ComponentDrill
T5C1.092
; #@! TA.AperFunction,Plated,PTH,ComponentDrill
T6C1.500
; #@! TA.AperFunction,Plated,PTH,ComponentDrill
T7C2.200
%
G90
G05
T1
X223.818Y-210.937
X224.32Y-184.905
X225.107Y-208.537
X226.721Y-186.194
X227.608Y-147.248
X228.308Y-163.748
X229.651Y-194.704
X230.974Y-194.248
X233.161Y-204.283
X233.616Y-205.607
X240.435Y-215.58
X241.005Y-201.889
X242.377Y-199.535
X242.415Y-175.89
X244.769Y-177.262
X247.401Y-185.869
X248.739Y-185.459
X250.574Y-195.564
X250.983Y-196.903
X252.608Y-161.298
X252.608Y-127.298
X252.608Y-144.298
X254.608Y-142.448
X254.608Y-125.448
X254.608Y-159.448
X257.45Y-207.109
X260.295Y-188.564
X261.748Y-186.259
X263.608Y-124.048
X263.608Y-125.448
X263.608Y-141.048
X263.608Y-158.048
X270.079Y-182.577
X270.441Y-183.93
X270.608Y-161.298
X270.608Y-127.298
X270.608Y-144.298
X272.608Y-159.448
X272.608Y-142.448
X272.608Y-125.448
X281.608Y-141.048
X281.608Y-124.048
X281.608Y-158.048
X281.608Y-125.448
X288.513Y-163.957
X290.393Y-154.265
X291.579Y-137.306
X292.517Y-152.559
X292.765Y-120.348
X293.703Y-135.6
X294.889Y-118.642
X301.593Y-151.79
X302.779Y-134.831
X303.867Y-119.269
X303.965Y-117.873
X306.43Y-171.587
X309.478Y-162.196
X311.794Y-160.762
X312.722Y-145.509
X315.038Y-144.074
X315.965Y-128.821
X318.282Y-127.387
X320.896Y-161.105
X324.14Y-144.417
X326.113Y-179.06
X327.116Y-129.104
X327.383Y-127.73
X328.677Y-178.139
X332.755Y-163.412
X335.319Y-162.49
X337.508Y-180.367
X339.398Y-147.763
X341.962Y-146.842
X344.151Y-164.718
X350.246Y-150.358
T2
X210.658Y-177.348
X211.141Y-176.181
X211.141Y-178.514
X212.308Y-175.698
X212.308Y-178.998
X213.474Y-176.181
X213.474Y-178.514
X213.958Y-177.348
X223.798Y-123.048
X224.281Y-121.881
X224.281Y-124.214
X225.448Y-121.398
X225.448Y-124.698
X226.614Y-121.881
X226.614Y-124.214
X227.098Y-123.048
X228.658Y-173.608
X229.141Y-172.441
X229.141Y-174.774
X230.308Y-171.958
X230.308Y-175.258
X231.474Y-172.441
X231.474Y-174.774
X231.958Y-173.608
X234.798Y-197.49
X234.897Y-196.231
X235.618Y-198.45
X235.857Y-195.411
X236.877Y-198.549
X237.116Y-195.51
X237.837Y-197.729
X237.936Y-196.47
X243.958Y-167.148
X244.441Y-165.981
X244.441Y-168.314
X245.608Y-165.498
X245.608Y-168.798
X246.774Y-165.981
X246.774Y-168.314
X247.258Y-167.148
X266.458Y-138.248
X266.941Y-137.081
X266.941Y-139.414
X268.108Y-136.598
X268.108Y-139.898
X269.274Y-137.081
X269.274Y-139.414
X269.758Y-138.248
X290.639Y-168.667
X291.04Y-169.865
X291.203Y-167.537
X292.17Y-170.428
X292.4Y-167.136
X293.368Y-170.027
X293.53Y-167.7
X293.931Y-168.897
X305.817Y-132.237
X306.218Y-133.435
X306.381Y-131.107
X307.348Y-133.998
X307.578Y-130.706
X308.546Y-133.597
X308.709Y-131.27
X309.109Y-132.467
X315.147Y-180.366
X315.268Y-181.623
X315.95Y-179.392
X316.242Y-182.426
X317.207Y-179.27
X317.5Y-182.305
X318.182Y-180.074
X318.303Y-181.331
X331.573Y-142.03
X331.694Y-143.287
X332.376Y-141.055
X332.669Y-144.09
X333.634Y-140.934
X333.926Y-143.969
X334.608Y-141.737
X334.729Y-142.994
T3
X216.268Y-178.348
X216.268Y-176.348
T4
X211.488Y-164.358
X211.488Y-166.858
X211.488Y-169.358
X225.988Y-169.358
X225.988Y-164.358
X233.028Y-158.448
X235.568Y-158.448
X238.108Y-158.448
X240.648Y-158.448
X243.188Y-158.448
T5
X230.488Y-143.058
X230.488Y-153.218
X230.488Y-127.818
X230.488Y-145.598
X230.488Y-135.438
X230.488Y-150.678
X230.488Y-130.358
X230.488Y-140.518
X230.488Y-148.138
X230.488Y-125.278
X230.488Y-132.898
X230.488Y-137.978
X233.028Y-148.138
X235.568Y-148.138
X238.108Y-148.138
X245.728Y-140.518
X245.728Y-145.598
X245.728Y-153.218
X245.728Y-130.358
X245.728Y-137.978
X245.728Y-148.138
X245.728Y-127.818
X245.728Y-143.058
X245.728Y-132.898
X245.728Y-150.678
X245.728Y-125.278
X245.728Y-135.438
T7
X212.308Y-177.348
X225.448Y-123.048
X230.308Y-173.608
X236.367Y-196.98
X245.608Y-167.148
X268.108Y-138.248
X292.285Y-168.782
X307.463Y-132.352
X316.725Y-180.848
X333.151Y-142.512
T6
G00X218.338Y-172.458
M15
G01X219.638Y-172.458
M16
G05
G00X218.338Y-161.258
M15
G01X219.638Y-161.258
M16
G05
M30
