%TF.GenerationSoftware,KiCad,Pcbnew,9.0.5*%
%TF.CreationDate,2025-11-08T17:14:02+10:00*%
%TF.ProjectId,badWingsRight,62616457-696e-4677-9352-696768742e6b,v1.0.0*%
%TF.SameCoordinates,Original*%
%TF.FileFunction,Soldermask,Top*%
%TF.FilePolarity,Negative*%
%FSLAX46Y46*%
G04 Gerber Fmt 4.6, Leading zero omitted, Abs format (unit mm)*
G04 Created by KiCad (PCBNEW 9.0.5) date 2025-11-08 17:14:02*
%MOMM*%
%LPD*%
G01*
G04 APERTURE LIST*
G04 Aperture macros list*
%AMRoundRect*
0 Rectangle with rounded corners*
0 $1 Rounding radius*
0 $2 $3 $4 $5 $6 $7 $8 $9 X,Y pos of 4 corners*
0 Add a 4 corners polygon primitive as box body*
4,1,4,$2,$3,$4,$5,$6,$7,$8,$9,$2,$3,0*
0 Add four circle primitives for the rounded corners*
1,1,$1+$1,$2,$3*
1,1,$1+$1,$4,$5*
1,1,$1+$1,$6,$7*
1,1,$1+$1,$8,$9*
0 Add four rect primitives between the rounded corners*
20,1,$1+$1,$2,$3,$4,$5,0*
20,1,$1+$1,$4,$5,$6,$7,0*
20,1,$1+$1,$6,$7,$8,$9,0*
20,1,$1+$1,$8,$9,$2,$3,0*%
G04 Aperture macros list end*
%ADD10C,1.100000*%
%ADD11C,1.801800*%
%ADD12C,3.529000*%
%ADD13C,3.100000*%
%ADD14C,0.800000*%
%ADD15C,4.500000*%
%ADD16C,0.850000*%
%ADD17RoundRect,0.050000X-1.600000X-1.000000X1.600000X-1.000000X1.600000X1.000000X-1.600000X1.000000X0*%
%ADD18C,1.600000*%
%ADD19RoundRect,0.050000X-1.000000X-1.000000X1.000000X-1.000000X1.000000X1.000000X-1.000000X1.000000X0*%
%ADD20C,2.100000*%
%ADD21RoundRect,0.050000X0.850000X-0.600000X0.850000X0.600000X-0.850000X0.600000X-0.850000X-0.600000X0*%
%ADD22O,1.800000X1.300000*%
%ADD23O,1.800000X1.800000*%
%ADD24RoundRect,0.050000X-0.850000X-0.850000X0.850000X-0.850000X0.850000X0.850000X-0.850000X0.850000X0*%
%ADD25C,1.852600*%
G04 APERTURE END LIST*
D10*
%TO.C,T1*%
X224727690Y-148247709D03*
X224727684Y-145247715D03*
%TD*%
D11*
%TO.C,S7*%
X302193132Y-157545926D03*
D12*
X296706530Y-157162265D03*
D13*
X296291477Y-163097780D03*
X291457123Y-160554348D03*
D11*
X291219928Y-156778604D03*
%TD*%
%TO.C,S15*%
X264607683Y-129747692D03*
D12*
X259107683Y-129747692D03*
D13*
X259107681Y-135697701D03*
X254107683Y-133497692D03*
D11*
X253607683Y-129747692D03*
%TD*%
D14*
%TO.C,_82*%
X305817419Y-132237105D03*
X306380903Y-131106932D03*
X306218129Y-133434700D03*
X307578498Y-130706222D03*
D15*
X307463400Y-132352203D03*
D14*
X307348302Y-133998184D03*
X308708671Y-131269706D03*
X308545897Y-133597474D03*
X309109381Y-132467301D03*
%TD*%
%TO.C,_76*%
X234897051Y-196230907D03*
X235857334Y-195410748D03*
X234797969Y-197489869D03*
X237116296Y-195509830D03*
D15*
X236367212Y-196979991D03*
D14*
X235618128Y-198450152D03*
X237936455Y-196470113D03*
X236877090Y-198549234D03*
X237837373Y-197729075D03*
%TD*%
D16*
%TO.C,B1*%
X222812666Y-130547700D03*
X225562664Y-130547698D03*
%TD*%
D14*
%TO.C,_79*%
X266457672Y-138247704D03*
X266940946Y-137080978D03*
X266940946Y-139414430D03*
X268107672Y-136597704D03*
D15*
X268107672Y-138247704D03*
D14*
X268107672Y-139897704D03*
X269274398Y-137080978D03*
X269274398Y-139414430D03*
X269757672Y-138247704D03*
%TD*%
D11*
%TO.C,S1*%
X336201636Y-186004187D03*
D13*
X328814006Y-189332181D03*
D12*
X331138856Y-183855177D03*
D13*
X325071090Y-185353415D03*
D11*
X326076076Y-181706167D03*
%TD*%
%TO.C,S2*%
X342844062Y-170355602D03*
D13*
X335456432Y-173683596D03*
D12*
X337781282Y-168206592D03*
D13*
X331713516Y-169704830D03*
D11*
X332718502Y-166057582D03*
%TD*%
%TO.C,S4*%
X320789920Y-166890937D03*
D13*
X314255658Y-171682191D03*
D12*
X315390971Y-165841498D03*
D13*
X309767301Y-168568555D03*
D11*
X309992022Y-164792059D03*
%TD*%
D14*
%TO.C,_80*%
X210657663Y-177347700D03*
X211140937Y-176180974D03*
X211140937Y-178514426D03*
X212307663Y-175697700D03*
D15*
X212307663Y-177347700D03*
D14*
X212307663Y-178997700D03*
X213474389Y-176180974D03*
X213474389Y-178514426D03*
X213957663Y-177347700D03*
%TD*%
%TO.C,_83*%
X243957655Y-167147710D03*
X244440929Y-165980984D03*
X244440929Y-168314436D03*
X245607655Y-165497710D03*
D15*
X245607655Y-167147710D03*
D14*
X245607655Y-168797710D03*
X246774381Y-165980984D03*
X246774381Y-168314436D03*
X247257655Y-167147710D03*
%TD*%
D11*
%TO.C,S17*%
X253196954Y-200723014D03*
D12*
X247937278Y-202331058D03*
D13*
X249676891Y-208021079D03*
X244252146Y-207379061D03*
D11*
X242677602Y-203939102D03*
%TD*%
%TO.C,S8*%
X303378980Y-140587345D03*
D12*
X297892378Y-140203684D03*
D13*
X297477325Y-146139199D03*
X292642971Y-143595767D03*
D11*
X292405776Y-139820023D03*
%TD*%
%TO.C,S5*%
X324033670Y-150203272D03*
D13*
X317499408Y-154994526D03*
D12*
X318634721Y-149153833D03*
D13*
X313011051Y-151880890D03*
D11*
X313235772Y-148104394D03*
%TD*%
%TO.C,S13*%
X264607670Y-163747717D03*
D12*
X259107670Y-163747717D03*
D13*
X259107668Y-169697726D03*
X254107670Y-167497717D03*
D11*
X253607670Y-163747717D03*
%TD*%
%TO.C,S16*%
X272520268Y-187824214D03*
D13*
X268747652Y-194994978D03*
D12*
X267207675Y-189247713D03*
D13*
X263348614Y-194164032D03*
D11*
X261895082Y-190671212D03*
%TD*%
D17*
%TO.C,ROT1*%
X218987676Y-172457696D03*
X218987680Y-161257691D03*
D18*
X225987679Y-164357688D03*
X225987678Y-169357694D03*
D19*
X211487678Y-164357692D03*
D20*
X211487679Y-169357693D03*
X211487678Y-166857692D03*
%TD*%
D11*
%TO.C,S14*%
X264607687Y-146747691D03*
D12*
X259107687Y-146747691D03*
D13*
X259107685Y-152697700D03*
X254107687Y-150497691D03*
D11*
X253607687Y-146747691D03*
%TD*%
%TO.C,S10*%
X282607656Y-163747701D03*
D12*
X277107656Y-163747701D03*
D13*
X277107654Y-169697710D03*
X272107656Y-167497701D03*
D11*
X271607656Y-163747701D03*
%TD*%
D14*
%TO.C,_78*%
X331573196Y-142029662D03*
X332376471Y-141055212D03*
X331694236Y-143286703D03*
X333633512Y-140934172D03*
D15*
X333151099Y-142512075D03*
D14*
X332668686Y-144089978D03*
X334607962Y-141737447D03*
X333925727Y-143968938D03*
X334729002Y-142994488D03*
%TD*%
D11*
%TO.C,S20*%
X225910560Y-197049341D03*
D13*
X218494104Y-193786120D03*
D12*
X224119941Y-191848988D03*
D13*
X218946406Y-188342276D03*
D11*
X222329322Y-186648635D03*
%TD*%
%TO.C,S9*%
X304564859Y-123628760D03*
D12*
X299078257Y-123245099D03*
D13*
X298663204Y-129180614D03*
X293828850Y-126637182D03*
D11*
X293591655Y-122861438D03*
%TD*%
D14*
%TO.C,_81*%
X290639221Y-168667066D03*
X291202705Y-167536893D03*
X291039931Y-169864661D03*
X292400300Y-167136183D03*
D15*
X292285202Y-168782164D03*
D14*
X292170104Y-170428145D03*
X293530473Y-167699667D03*
X293367699Y-170027435D03*
X293931183Y-168897262D03*
%TD*%
D11*
%TO.C,S18*%
X243580939Y-188082097D03*
D12*
X241972895Y-182822421D03*
D13*
X236282874Y-184562034D03*
X236924892Y-179137289D03*
D11*
X240364851Y-177562745D03*
%TD*%
%TO.C,S11*%
X282607658Y-146747705D03*
D12*
X277107658Y-146747705D03*
D13*
X277107656Y-152697714D03*
X272107658Y-150497705D03*
D11*
X271607658Y-146747705D03*
%TD*%
%TO.C,S12*%
X282607658Y-129747718D03*
D12*
X277107658Y-129747718D03*
D13*
X277107656Y-135697727D03*
X272107658Y-133497718D03*
D11*
X271607658Y-129747718D03*
%TD*%
D14*
%TO.C,_77*%
X315147003Y-180365979D03*
X315950278Y-179391529D03*
X315268043Y-181623020D03*
X317207319Y-179270489D03*
D15*
X316724906Y-180848392D03*
D14*
X316242493Y-182426295D03*
X318181769Y-180073764D03*
X317499534Y-182305255D03*
X318302809Y-181330805D03*
%TD*%
D11*
%TO.C,S6*%
X327277438Y-133515606D03*
D13*
X320743176Y-138306860D03*
D12*
X321878489Y-132466167D03*
D13*
X316254819Y-135193224D03*
D11*
X316479540Y-131416728D03*
%TD*%
D21*
%TO.C,JST1*%
X216267672Y-178347704D03*
D22*
X216267674Y-176347700D03*
%TD*%
D23*
%TO.C,niceView1*%
X243187671Y-158447714D03*
D24*
X240647674Y-158447712D03*
D23*
X238107675Y-158447715D03*
X235567674Y-158447714D03*
X233027675Y-158447711D03*
%TD*%
D11*
%TO.C,S3*%
X349486491Y-154707006D03*
D13*
X342098861Y-158035000D03*
D12*
X344423711Y-152557996D03*
D13*
X338355945Y-154056234D03*
D11*
X339360931Y-150408986D03*
%TD*%
D14*
%TO.C,_85*%
X223797671Y-123047693D03*
X224280945Y-121880967D03*
X224280945Y-124214419D03*
X225447671Y-121397693D03*
D15*
X225447671Y-123047693D03*
D14*
X225447671Y-124697693D03*
X226614397Y-121880967D03*
X226614397Y-124214419D03*
X227097671Y-123047693D03*
%TD*%
%TO.C,_84*%
X228657677Y-173607707D03*
X229140951Y-172440981D03*
X229140951Y-174774433D03*
X230307677Y-171957707D03*
D15*
X230307677Y-173607707D03*
D14*
X230307677Y-175257707D03*
X231474403Y-172440981D03*
X231474403Y-174774433D03*
X231957677Y-173607707D03*
%TD*%
D11*
%TO.C,S19*%
X235961886Y-209346940D03*
D13*
X232698665Y-216763396D03*
D12*
X230761533Y-211137559D03*
D13*
X227254821Y-216311094D03*
D11*
X225561180Y-212928178D03*
%TD*%
D25*
%TO.C,MCU1*%
X245727680Y-125277719D03*
X245727676Y-127817711D03*
X245727674Y-130357710D03*
X245727677Y-132897715D03*
X245727681Y-135437712D03*
X245727674Y-137977712D03*
X245727670Y-140517716D03*
X245727676Y-143057719D03*
X245727670Y-145597714D03*
X245727675Y-148137715D03*
X245727678Y-150677711D03*
X245727673Y-153217710D03*
X230487670Y-153217707D03*
X230487674Y-150677715D03*
X230487676Y-148137716D03*
X230487673Y-145597711D03*
X230487669Y-143057714D03*
X230487676Y-140517714D03*
X230487680Y-137977710D03*
X230487674Y-135437707D03*
X230487680Y-132897712D03*
X230487675Y-130357711D03*
X230487672Y-127817715D03*
X230487677Y-125277716D03*
X233027675Y-148137713D03*
X235567675Y-148137712D03*
X238107675Y-148137713D03*
%TD*%
M02*
