%TF.GenerationSoftware,KiCad,Pcbnew,9.0.5*%
%TF.CreationDate,2025-11-08T17:14:02+10:00*%
%TF.ProjectId,badWingsRight,62616457-696e-4677-9352-696768742e6b,v1.0.0*%
%TF.SameCoordinates,Original*%
%TF.FileFunction,Legend,Top*%
%TF.FilePolarity,Positive*%
%FSLAX46Y46*%
G04 Gerber Fmt 4.6, Leading zero omitted, Abs format (unit mm)*
G04 Created by KiCad (PCBNEW 9.0.5) date 2025-11-08 17:14:02*
%MOMM*%
%LPD*%
G01*
G04 APERTURE LIST*
%ADD10C,0.400000*%
%ADD11C,0.150000*%
%ADD12C,0.300000*%
%ADD13C,0.120000*%
%ADD14C,0.381000*%
%ADD15C,1.752600*%
G04 APERTURE END LIST*
D10*
X257594504Y-175843325D02*
X258005218Y-175986182D01*
X258005218Y-175986182D02*
X258130218Y-176129039D01*
X258130218Y-176129039D02*
X258237361Y-176414754D01*
X258237361Y-176414754D02*
X258183789Y-176843325D01*
X258183789Y-176843325D02*
X258005218Y-177129039D01*
X258005218Y-177129039D02*
X257844504Y-177271897D01*
X257844504Y-177271897D02*
X257540932Y-177414754D01*
X257540932Y-177414754D02*
X256398075Y-177414754D01*
X256398075Y-177414754D02*
X256773075Y-174414754D01*
X256773075Y-174414754D02*
X257773075Y-174414754D01*
X257773075Y-174414754D02*
X258040932Y-174557611D01*
X258040932Y-174557611D02*
X258165932Y-174700468D01*
X258165932Y-174700468D02*
X258273075Y-174986182D01*
X258273075Y-174986182D02*
X258237361Y-175271897D01*
X258237361Y-175271897D02*
X258058789Y-175557611D01*
X258058789Y-175557611D02*
X257898075Y-175700468D01*
X257898075Y-175700468D02*
X257594504Y-175843325D01*
X257594504Y-175843325D02*
X256594504Y-175843325D01*
X260683789Y-177414754D02*
X260880218Y-175843325D01*
X260880218Y-175843325D02*
X260773075Y-175557611D01*
X260773075Y-175557611D02*
X260505218Y-175414754D01*
X260505218Y-175414754D02*
X259933789Y-175414754D01*
X259933789Y-175414754D02*
X259630218Y-175557611D01*
X260701647Y-177271897D02*
X260398075Y-177414754D01*
X260398075Y-177414754D02*
X259683789Y-177414754D01*
X259683789Y-177414754D02*
X259415932Y-177271897D01*
X259415932Y-177271897D02*
X259308789Y-176986182D01*
X259308789Y-176986182D02*
X259344504Y-176700468D01*
X259344504Y-176700468D02*
X259523075Y-176414754D01*
X259523075Y-176414754D02*
X259826647Y-176271897D01*
X259826647Y-176271897D02*
X260540932Y-176271897D01*
X260540932Y-176271897D02*
X260844504Y-176129039D01*
X263398075Y-177414754D02*
X263773075Y-174414754D01*
X263415933Y-177271897D02*
X263112361Y-177414754D01*
X263112361Y-177414754D02*
X262540933Y-177414754D01*
X262540933Y-177414754D02*
X262273075Y-177271897D01*
X262273075Y-177271897D02*
X262148075Y-177129039D01*
X262148075Y-177129039D02*
X262040933Y-176843325D01*
X262040933Y-176843325D02*
X262148075Y-175986182D01*
X262148075Y-175986182D02*
X262326647Y-175700468D01*
X262326647Y-175700468D02*
X262487361Y-175557611D01*
X262487361Y-175557611D02*
X262790933Y-175414754D01*
X262790933Y-175414754D02*
X263362361Y-175414754D01*
X263362361Y-175414754D02*
X263630218Y-175557611D01*
X264915933Y-174414754D02*
X265255219Y-177414754D01*
X265255219Y-177414754D02*
X266094504Y-175271897D01*
X266094504Y-175271897D02*
X266398076Y-177414754D01*
X266398076Y-177414754D02*
X267487361Y-174414754D01*
X268255218Y-177414754D02*
X268505218Y-175414754D01*
X268630218Y-174414754D02*
X268469504Y-174557611D01*
X268469504Y-174557611D02*
X268594504Y-174700468D01*
X268594504Y-174700468D02*
X268755218Y-174557611D01*
X268755218Y-174557611D02*
X268630218Y-174414754D01*
X268630218Y-174414754D02*
X268594504Y-174700468D01*
X269933789Y-175414754D02*
X269683789Y-177414754D01*
X269898075Y-175700468D02*
X270058789Y-175557611D01*
X270058789Y-175557611D02*
X270362361Y-175414754D01*
X270362361Y-175414754D02*
X270790932Y-175414754D01*
X270790932Y-175414754D02*
X271058789Y-175557611D01*
X271058789Y-175557611D02*
X271165932Y-175843325D01*
X271165932Y-175843325D02*
X270969503Y-177414754D01*
X273933789Y-175414754D02*
X273630218Y-177843325D01*
X273630218Y-177843325D02*
X273451647Y-178129039D01*
X273451647Y-178129039D02*
X273290932Y-178271897D01*
X273290932Y-178271897D02*
X272987361Y-178414754D01*
X272987361Y-178414754D02*
X272558789Y-178414754D01*
X272558789Y-178414754D02*
X272290932Y-178271897D01*
X273701647Y-177271897D02*
X273398075Y-177414754D01*
X273398075Y-177414754D02*
X272826647Y-177414754D01*
X272826647Y-177414754D02*
X272558789Y-177271897D01*
X272558789Y-177271897D02*
X272433789Y-177129039D01*
X272433789Y-177129039D02*
X272326647Y-176843325D01*
X272326647Y-176843325D02*
X272433789Y-175986182D01*
X272433789Y-175986182D02*
X272612361Y-175700468D01*
X272612361Y-175700468D02*
X272773075Y-175557611D01*
X272773075Y-175557611D02*
X273076647Y-175414754D01*
X273076647Y-175414754D02*
X273648075Y-175414754D01*
X273648075Y-175414754D02*
X273915932Y-175557611D01*
X274987361Y-177271897D02*
X275255218Y-177414754D01*
X275255218Y-177414754D02*
X275826647Y-177414754D01*
X275826647Y-177414754D02*
X276130218Y-177271897D01*
X276130218Y-177271897D02*
X276308790Y-176986182D01*
X276308790Y-176986182D02*
X276326647Y-176843325D01*
X276326647Y-176843325D02*
X276219504Y-176557611D01*
X276219504Y-176557611D02*
X275951647Y-176414754D01*
X275951647Y-176414754D02*
X275523075Y-176414754D01*
X275523075Y-176414754D02*
X275255218Y-176271897D01*
X275255218Y-176271897D02*
X275148075Y-175986182D01*
X275148075Y-175986182D02*
X275165933Y-175843325D01*
X275165933Y-175843325D02*
X275344504Y-175557611D01*
X275344504Y-175557611D02*
X275648075Y-175414754D01*
X275648075Y-175414754D02*
X276076647Y-175414754D01*
X276076647Y-175414754D02*
X276344504Y-175557611D01*
D11*
X233351872Y-157219143D02*
X233389967Y-157104857D01*
X233389967Y-157104857D02*
X233389967Y-156914381D01*
X233389967Y-156914381D02*
X233351872Y-156838190D01*
X233351872Y-156838190D02*
X233313776Y-156800095D01*
X233313776Y-156800095D02*
X233237586Y-156762000D01*
X233237586Y-156762000D02*
X233161395Y-156762000D01*
X233161395Y-156762000D02*
X233085205Y-156800095D01*
X233085205Y-156800095D02*
X233047110Y-156838190D01*
X233047110Y-156838190D02*
X233009014Y-156914381D01*
X233009014Y-156914381D02*
X232970919Y-157066762D01*
X232970919Y-157066762D02*
X232932824Y-157142952D01*
X232932824Y-157142952D02*
X232894729Y-157181047D01*
X232894729Y-157181047D02*
X232818538Y-157219143D01*
X232818538Y-157219143D02*
X232742348Y-157219143D01*
X232742348Y-157219143D02*
X232666157Y-157181047D01*
X232666157Y-157181047D02*
X232628062Y-157142952D01*
X232628062Y-157142952D02*
X232589967Y-157066762D01*
X232589967Y-157066762D02*
X232589967Y-156876285D01*
X232589967Y-156876285D02*
X232628062Y-156762000D01*
X233389967Y-156419142D02*
X232589967Y-156419142D01*
X232589967Y-156419142D02*
X232589967Y-156228666D01*
X232589967Y-156228666D02*
X232628062Y-156114380D01*
X232628062Y-156114380D02*
X232704252Y-156038190D01*
X232704252Y-156038190D02*
X232780443Y-156000095D01*
X232780443Y-156000095D02*
X232932824Y-155961999D01*
X232932824Y-155961999D02*
X233047110Y-155961999D01*
X233047110Y-155961999D02*
X233199491Y-156000095D01*
X233199491Y-156000095D02*
X233275681Y-156038190D01*
X233275681Y-156038190D02*
X233351872Y-156114380D01*
X233351872Y-156114380D02*
X233389967Y-156228666D01*
X233389967Y-156228666D02*
X233389967Y-156419142D01*
X233161395Y-155657238D02*
X233161395Y-155276285D01*
X233389967Y-155733428D02*
X232589967Y-155466761D01*
X232589967Y-155466761D02*
X233389967Y-155200095D01*
D12*
X233429103Y-160726043D02*
X233429103Y-161726043D01*
X233429103Y-160868900D02*
X233500532Y-160797472D01*
X233500532Y-160797472D02*
X233643389Y-160726043D01*
X233643389Y-160726043D02*
X233857675Y-160726043D01*
X233857675Y-160726043D02*
X234000532Y-160797472D01*
X234000532Y-160797472D02*
X234071961Y-160940329D01*
X234071961Y-160940329D02*
X234071961Y-161726043D01*
X234786246Y-161726043D02*
X234786246Y-160726043D01*
X234786246Y-160226043D02*
X234714818Y-160297472D01*
X234714818Y-160297472D02*
X234786246Y-160368900D01*
X234786246Y-160368900D02*
X234857675Y-160297472D01*
X234857675Y-160297472D02*
X234786246Y-160226043D01*
X234786246Y-160226043D02*
X234786246Y-160368900D01*
X236143390Y-161654615D02*
X236000532Y-161726043D01*
X236000532Y-161726043D02*
X235714818Y-161726043D01*
X235714818Y-161726043D02*
X235571961Y-161654615D01*
X235571961Y-161654615D02*
X235500532Y-161583186D01*
X235500532Y-161583186D02*
X235429104Y-161440329D01*
X235429104Y-161440329D02*
X235429104Y-161011757D01*
X235429104Y-161011757D02*
X235500532Y-160868900D01*
X235500532Y-160868900D02*
X235571961Y-160797472D01*
X235571961Y-160797472D02*
X235714818Y-160726043D01*
X235714818Y-160726043D02*
X236000532Y-160726043D01*
X236000532Y-160726043D02*
X236143390Y-160797472D01*
X237357675Y-161654615D02*
X237214818Y-161726043D01*
X237214818Y-161726043D02*
X236929104Y-161726043D01*
X236929104Y-161726043D02*
X236786246Y-161654615D01*
X236786246Y-161654615D02*
X236714818Y-161511757D01*
X236714818Y-161511757D02*
X236714818Y-160940329D01*
X236714818Y-160940329D02*
X236786246Y-160797472D01*
X236786246Y-160797472D02*
X236929104Y-160726043D01*
X236929104Y-160726043D02*
X237214818Y-160726043D01*
X237214818Y-160726043D02*
X237357675Y-160797472D01*
X237357675Y-160797472D02*
X237429104Y-160940329D01*
X237429104Y-160940329D02*
X237429104Y-161083186D01*
X237429104Y-161083186D02*
X236714818Y-161226043D01*
X238071960Y-161583186D02*
X238143389Y-161654615D01*
X238143389Y-161654615D02*
X238071960Y-161726043D01*
X238071960Y-161726043D02*
X238000532Y-161654615D01*
X238000532Y-161654615D02*
X238071960Y-161583186D01*
X238071960Y-161583186D02*
X238071960Y-161726043D01*
X238071960Y-161154615D02*
X238000532Y-160297472D01*
X238000532Y-160297472D02*
X238071960Y-160226043D01*
X238071960Y-160226043D02*
X238143389Y-160297472D01*
X238143389Y-160297472D02*
X238071960Y-161154615D01*
X238071960Y-161154615D02*
X238071960Y-160226043D01*
X238643389Y-160726043D02*
X239000532Y-161726043D01*
X239000532Y-161726043D02*
X239357675Y-160726043D01*
X239929103Y-161726043D02*
X239929103Y-160726043D01*
X239929103Y-160226043D02*
X239857675Y-160297472D01*
X239857675Y-160297472D02*
X239929103Y-160368900D01*
X239929103Y-160368900D02*
X240000532Y-160297472D01*
X240000532Y-160297472D02*
X239929103Y-160226043D01*
X239929103Y-160226043D02*
X239929103Y-160368900D01*
X241214818Y-161654615D02*
X241071961Y-161726043D01*
X241071961Y-161726043D02*
X240786247Y-161726043D01*
X240786247Y-161726043D02*
X240643389Y-161654615D01*
X240643389Y-161654615D02*
X240571961Y-161511757D01*
X240571961Y-161511757D02*
X240571961Y-160940329D01*
X240571961Y-160940329D02*
X240643389Y-160797472D01*
X240643389Y-160797472D02*
X240786247Y-160726043D01*
X240786247Y-160726043D02*
X241071961Y-160726043D01*
X241071961Y-160726043D02*
X241214818Y-160797472D01*
X241214818Y-160797472D02*
X241286247Y-160940329D01*
X241286247Y-160940329D02*
X241286247Y-161083186D01*
X241286247Y-161083186D02*
X240571961Y-161226043D01*
X241786246Y-160726043D02*
X242071961Y-161726043D01*
X242071961Y-161726043D02*
X242357675Y-161011757D01*
X242357675Y-161011757D02*
X242643389Y-161726043D01*
X242643389Y-161726043D02*
X242929103Y-160726043D01*
D11*
X243473779Y-156381047D02*
X243511875Y-156419143D01*
X243511875Y-156419143D02*
X243549970Y-156533428D01*
X243549970Y-156533428D02*
X243549970Y-156609619D01*
X243549970Y-156609619D02*
X243511875Y-156723905D01*
X243511875Y-156723905D02*
X243435684Y-156800095D01*
X243435684Y-156800095D02*
X243359494Y-156838190D01*
X243359494Y-156838190D02*
X243207113Y-156876286D01*
X243207113Y-156876286D02*
X243092827Y-156876286D01*
X243092827Y-156876286D02*
X242940446Y-156838190D01*
X242940446Y-156838190D02*
X242864255Y-156800095D01*
X242864255Y-156800095D02*
X242788065Y-156723905D01*
X242788065Y-156723905D02*
X242749970Y-156609619D01*
X242749970Y-156609619D02*
X242749970Y-156533428D01*
X242749970Y-156533428D02*
X242788065Y-156419143D01*
X242788065Y-156419143D02*
X242826160Y-156381047D01*
X243511875Y-156076286D02*
X243549970Y-155962000D01*
X243549970Y-155962000D02*
X243549970Y-155771524D01*
X243549970Y-155771524D02*
X243511875Y-155695333D01*
X243511875Y-155695333D02*
X243473779Y-155657238D01*
X243473779Y-155657238D02*
X243397589Y-155619143D01*
X243397589Y-155619143D02*
X243321398Y-155619143D01*
X243321398Y-155619143D02*
X243245208Y-155657238D01*
X243245208Y-155657238D02*
X243207113Y-155695333D01*
X243207113Y-155695333D02*
X243169017Y-155771524D01*
X243169017Y-155771524D02*
X243130922Y-155923905D01*
X243130922Y-155923905D02*
X243092827Y-156000095D01*
X243092827Y-156000095D02*
X243054732Y-156038190D01*
X243054732Y-156038190D02*
X242978541Y-156076286D01*
X242978541Y-156076286D02*
X242902351Y-156076286D01*
X242902351Y-156076286D02*
X242826160Y-156038190D01*
X242826160Y-156038190D02*
X242788065Y-156000095D01*
X242788065Y-156000095D02*
X242749970Y-155923905D01*
X242749970Y-155923905D02*
X242749970Y-155733428D01*
X242749970Y-155733428D02*
X242788065Y-155619143D01*
X235891875Y-157200096D02*
X235929970Y-157085810D01*
X235929970Y-157085810D02*
X235929970Y-156895334D01*
X235929970Y-156895334D02*
X235891875Y-156819143D01*
X235891875Y-156819143D02*
X235853779Y-156781048D01*
X235853779Y-156781048D02*
X235777589Y-156742953D01*
X235777589Y-156742953D02*
X235701398Y-156742953D01*
X235701398Y-156742953D02*
X235625208Y-156781048D01*
X235625208Y-156781048D02*
X235587113Y-156819143D01*
X235587113Y-156819143D02*
X235549017Y-156895334D01*
X235549017Y-156895334D02*
X235510922Y-157047715D01*
X235510922Y-157047715D02*
X235472827Y-157123905D01*
X235472827Y-157123905D02*
X235434732Y-157162000D01*
X235434732Y-157162000D02*
X235358541Y-157200096D01*
X235358541Y-157200096D02*
X235282351Y-157200096D01*
X235282351Y-157200096D02*
X235206160Y-157162000D01*
X235206160Y-157162000D02*
X235168065Y-157123905D01*
X235168065Y-157123905D02*
X235129970Y-157047715D01*
X235129970Y-157047715D02*
X235129970Y-156857238D01*
X235129970Y-156857238D02*
X235168065Y-156742953D01*
X235853779Y-155942952D02*
X235891875Y-155981048D01*
X235891875Y-155981048D02*
X235929970Y-156095333D01*
X235929970Y-156095333D02*
X235929970Y-156171524D01*
X235929970Y-156171524D02*
X235891875Y-156285810D01*
X235891875Y-156285810D02*
X235815684Y-156362000D01*
X235815684Y-156362000D02*
X235739494Y-156400095D01*
X235739494Y-156400095D02*
X235587113Y-156438191D01*
X235587113Y-156438191D02*
X235472827Y-156438191D01*
X235472827Y-156438191D02*
X235320446Y-156400095D01*
X235320446Y-156400095D02*
X235244255Y-156362000D01*
X235244255Y-156362000D02*
X235168065Y-156285810D01*
X235168065Y-156285810D02*
X235129970Y-156171524D01*
X235129970Y-156171524D02*
X235129970Y-156095333D01*
X235129970Y-156095333D02*
X235168065Y-155981048D01*
X235168065Y-155981048D02*
X235206160Y-155942952D01*
X235929970Y-155219143D02*
X235929970Y-155600095D01*
X235929970Y-155600095D02*
X235129970Y-155600095D01*
X240248065Y-156857238D02*
X240209970Y-156933428D01*
X240209970Y-156933428D02*
X240209970Y-157047714D01*
X240209970Y-157047714D02*
X240248065Y-157162000D01*
X240248065Y-157162000D02*
X240324255Y-157238190D01*
X240324255Y-157238190D02*
X240400446Y-157276285D01*
X240400446Y-157276285D02*
X240552827Y-157314381D01*
X240552827Y-157314381D02*
X240667113Y-157314381D01*
X240667113Y-157314381D02*
X240819494Y-157276285D01*
X240819494Y-157276285D02*
X240895684Y-157238190D01*
X240895684Y-157238190D02*
X240971875Y-157162000D01*
X240971875Y-157162000D02*
X241009970Y-157047714D01*
X241009970Y-157047714D02*
X241009970Y-156971523D01*
X241009970Y-156971523D02*
X240971875Y-156857238D01*
X240971875Y-156857238D02*
X240933779Y-156819142D01*
X240933779Y-156819142D02*
X240667113Y-156819142D01*
X240667113Y-156819142D02*
X240667113Y-156971523D01*
X241009970Y-156476285D02*
X240209970Y-156476285D01*
X240209970Y-156476285D02*
X241009970Y-156019142D01*
X241009970Y-156019142D02*
X240209970Y-156019142D01*
X241009970Y-155638190D02*
X240209970Y-155638190D01*
X240209970Y-155638190D02*
X240209970Y-155447714D01*
X240209970Y-155447714D02*
X240248065Y-155333428D01*
X240248065Y-155333428D02*
X240324255Y-155257238D01*
X240324255Y-155257238D02*
X240400446Y-155219143D01*
X240400446Y-155219143D02*
X240552827Y-155181047D01*
X240552827Y-155181047D02*
X240667113Y-155181047D01*
X240667113Y-155181047D02*
X240819494Y-155219143D01*
X240819494Y-155219143D02*
X240895684Y-155257238D01*
X240895684Y-155257238D02*
X240971875Y-155333428D01*
X240971875Y-155333428D02*
X241009970Y-155447714D01*
X241009970Y-155447714D02*
X241009970Y-155638190D01*
X237669970Y-157314381D02*
X238469970Y-157047714D01*
X238469970Y-157047714D02*
X237669970Y-156781048D01*
X238393779Y-156057238D02*
X238431875Y-156095334D01*
X238431875Y-156095334D02*
X238469970Y-156209619D01*
X238469970Y-156209619D02*
X238469970Y-156285810D01*
X238469970Y-156285810D02*
X238431875Y-156400096D01*
X238431875Y-156400096D02*
X238355684Y-156476286D01*
X238355684Y-156476286D02*
X238279494Y-156514381D01*
X238279494Y-156514381D02*
X238127113Y-156552477D01*
X238127113Y-156552477D02*
X238012827Y-156552477D01*
X238012827Y-156552477D02*
X237860446Y-156514381D01*
X237860446Y-156514381D02*
X237784255Y-156476286D01*
X237784255Y-156476286D02*
X237708065Y-156400096D01*
X237708065Y-156400096D02*
X237669970Y-156285810D01*
X237669970Y-156285810D02*
X237669970Y-156209619D01*
X237669970Y-156209619D02*
X237708065Y-156095334D01*
X237708065Y-156095334D02*
X237746160Y-156057238D01*
X238393779Y-155257238D02*
X238431875Y-155295334D01*
X238431875Y-155295334D02*
X238469970Y-155409619D01*
X238469970Y-155409619D02*
X238469970Y-155485810D01*
X238469970Y-155485810D02*
X238431875Y-155600096D01*
X238431875Y-155600096D02*
X238355684Y-155676286D01*
X238355684Y-155676286D02*
X238279494Y-155714381D01*
X238279494Y-155714381D02*
X238127113Y-155752477D01*
X238127113Y-155752477D02*
X238012827Y-155752477D01*
X238012827Y-155752477D02*
X237860446Y-155714381D01*
X237860446Y-155714381D02*
X237784255Y-155676286D01*
X237784255Y-155676286D02*
X237708065Y-155600096D01*
X237708065Y-155600096D02*
X237669970Y-155485810D01*
X237669970Y-155485810D02*
X237669970Y-155409619D01*
X237669970Y-155409619D02*
X237708065Y-155295334D01*
X237708065Y-155295334D02*
X237746160Y-155257238D01*
X231770484Y-150240008D02*
X231846674Y-150240008D01*
X231846674Y-150240008D02*
X231922865Y-150278103D01*
X231922865Y-150278103D02*
X231960960Y-150316198D01*
X231960960Y-150316198D02*
X231999055Y-150392389D01*
X231999055Y-150392389D02*
X232037150Y-150544770D01*
X232037150Y-150544770D02*
X232037150Y-150735246D01*
X232037150Y-150735246D02*
X231999055Y-150887627D01*
X231999055Y-150887627D02*
X231960960Y-150963817D01*
X231960960Y-150963817D02*
X231922865Y-151001913D01*
X231922865Y-151001913D02*
X231846674Y-151040008D01*
X231846674Y-151040008D02*
X231770484Y-151040008D01*
X231770484Y-151040008D02*
X231694293Y-151001913D01*
X231694293Y-151001913D02*
X231656198Y-150963817D01*
X231656198Y-150963817D02*
X231618103Y-150887627D01*
X231618103Y-150887627D02*
X231580007Y-150735246D01*
X231580007Y-150735246D02*
X231580007Y-150544770D01*
X231580007Y-150544770D02*
X231618103Y-150392389D01*
X231618103Y-150392389D02*
X231656198Y-150316198D01*
X231656198Y-150316198D02*
X231694293Y-150278103D01*
X231694293Y-150278103D02*
X231770484Y-150240008D01*
X232799055Y-151040008D02*
X232341912Y-151040008D01*
X232570484Y-151040008D02*
X232570484Y-150240008D01*
X232570484Y-150240008D02*
X232494293Y-150354293D01*
X232494293Y-150354293D02*
X232418103Y-150430484D01*
X232418103Y-150430484D02*
X232341912Y-150468579D01*
X233294294Y-150240008D02*
X233370484Y-150240008D01*
X233370484Y-150240008D02*
X233446675Y-150278103D01*
X233446675Y-150278103D02*
X233484770Y-150316198D01*
X233484770Y-150316198D02*
X233522865Y-150392389D01*
X233522865Y-150392389D02*
X233560960Y-150544770D01*
X233560960Y-150544770D02*
X233560960Y-150735246D01*
X233560960Y-150735246D02*
X233522865Y-150887627D01*
X233522865Y-150887627D02*
X233484770Y-150963817D01*
X233484770Y-150963817D02*
X233446675Y-151001913D01*
X233446675Y-151001913D02*
X233370484Y-151040008D01*
X233370484Y-151040008D02*
X233294294Y-151040008D01*
X233294294Y-151040008D02*
X233218103Y-151001913D01*
X233218103Y-151001913D02*
X233180008Y-150963817D01*
X233180008Y-150963817D02*
X233141913Y-150887627D01*
X233141913Y-150887627D02*
X233103817Y-150735246D01*
X233103817Y-150735246D02*
X233103817Y-150544770D01*
X233103817Y-150544770D02*
X233141913Y-150392389D01*
X233141913Y-150392389D02*
X233180008Y-150316198D01*
X233180008Y-150316198D02*
X233218103Y-150278103D01*
X233218103Y-150278103D02*
X233294294Y-150240008D01*
X243111538Y-145960006D02*
X242654395Y-145960006D01*
X242882967Y-145960006D02*
X242882967Y-145160006D01*
X242882967Y-145160006D02*
X242806776Y-145274291D01*
X242806776Y-145274291D02*
X242730586Y-145350482D01*
X242730586Y-145350482D02*
X242654395Y-145388577D01*
X243606777Y-145160006D02*
X243682967Y-145160006D01*
X243682967Y-145160006D02*
X243759158Y-145198101D01*
X243759158Y-145198101D02*
X243797253Y-145236196D01*
X243797253Y-145236196D02*
X243835348Y-145312387D01*
X243835348Y-145312387D02*
X243873443Y-145464768D01*
X243873443Y-145464768D02*
X243873443Y-145655244D01*
X243873443Y-145655244D02*
X243835348Y-145807625D01*
X243835348Y-145807625D02*
X243797253Y-145883815D01*
X243797253Y-145883815D02*
X243759158Y-145921911D01*
X243759158Y-145921911D02*
X243682967Y-145960006D01*
X243682967Y-145960006D02*
X243606777Y-145960006D01*
X243606777Y-145960006D02*
X243530586Y-145921911D01*
X243530586Y-145921911D02*
X243492491Y-145883815D01*
X243492491Y-145883815D02*
X243454396Y-145807625D01*
X243454396Y-145807625D02*
X243416300Y-145655244D01*
X243416300Y-145655244D02*
X243416300Y-145464768D01*
X243416300Y-145464768D02*
X243454396Y-145312387D01*
X243454396Y-145312387D02*
X243492491Y-145236196D01*
X243492491Y-145236196D02*
X243530586Y-145198101D01*
X243530586Y-145198101D02*
X243606777Y-145160006D01*
X244368682Y-145160006D02*
X244444872Y-145160006D01*
X244444872Y-145160006D02*
X244521063Y-145198101D01*
X244521063Y-145198101D02*
X244559158Y-145236196D01*
X244559158Y-145236196D02*
X244597253Y-145312387D01*
X244597253Y-145312387D02*
X244635348Y-145464768D01*
X244635348Y-145464768D02*
X244635348Y-145655244D01*
X244635348Y-145655244D02*
X244597253Y-145807625D01*
X244597253Y-145807625D02*
X244559158Y-145883815D01*
X244559158Y-145883815D02*
X244521063Y-145921911D01*
X244521063Y-145921911D02*
X244444872Y-145960006D01*
X244444872Y-145960006D02*
X244368682Y-145960006D01*
X244368682Y-145960006D02*
X244292491Y-145921911D01*
X244292491Y-145921911D02*
X244254396Y-145883815D01*
X244254396Y-145883815D02*
X244216301Y-145807625D01*
X244216301Y-145807625D02*
X244178205Y-145655244D01*
X244178205Y-145655244D02*
X244178205Y-145464768D01*
X244178205Y-145464768D02*
X244216301Y-145312387D01*
X244216301Y-145312387D02*
X244254396Y-145236196D01*
X244254396Y-145236196D02*
X244292491Y-145198101D01*
X244292491Y-145198101D02*
X244368682Y-145160006D01*
X232081580Y-130720006D02*
X231814913Y-130339053D01*
X231624437Y-130720006D02*
X231624437Y-129920006D01*
X231624437Y-129920006D02*
X231929199Y-129920006D01*
X231929199Y-129920006D02*
X232005389Y-129958101D01*
X232005389Y-129958101D02*
X232043484Y-129996196D01*
X232043484Y-129996196D02*
X232081580Y-130072387D01*
X232081580Y-130072387D02*
X232081580Y-130186672D01*
X232081580Y-130186672D02*
X232043484Y-130262863D01*
X232043484Y-130262863D02*
X232005389Y-130300958D01*
X232005389Y-130300958D02*
X231929199Y-130339053D01*
X231929199Y-130339053D02*
X231624437Y-130339053D01*
X232386341Y-130681911D02*
X232500627Y-130720006D01*
X232500627Y-130720006D02*
X232691103Y-130720006D01*
X232691103Y-130720006D02*
X232767294Y-130681911D01*
X232767294Y-130681911D02*
X232805389Y-130643815D01*
X232805389Y-130643815D02*
X232843484Y-130567625D01*
X232843484Y-130567625D02*
X232843484Y-130491434D01*
X232843484Y-130491434D02*
X232805389Y-130415244D01*
X232805389Y-130415244D02*
X232767294Y-130377149D01*
X232767294Y-130377149D02*
X232691103Y-130339053D01*
X232691103Y-130339053D02*
X232538722Y-130300958D01*
X232538722Y-130300958D02*
X232462532Y-130262863D01*
X232462532Y-130262863D02*
X232424437Y-130224768D01*
X232424437Y-130224768D02*
X232386341Y-130148577D01*
X232386341Y-130148577D02*
X232386341Y-130072387D01*
X232386341Y-130072387D02*
X232424437Y-129996196D01*
X232424437Y-129996196D02*
X232462532Y-129958101D01*
X232462532Y-129958101D02*
X232538722Y-129920006D01*
X232538722Y-129920006D02*
X232729199Y-129920006D01*
X232729199Y-129920006D02*
X232843484Y-129958101D01*
X233072056Y-129920006D02*
X233529199Y-129920006D01*
X233300627Y-130720006D02*
X233300627Y-129920006D01*
X231770484Y-140080009D02*
X231846674Y-140080009D01*
X231846674Y-140080009D02*
X231922865Y-140118104D01*
X231922865Y-140118104D02*
X231960960Y-140156199D01*
X231960960Y-140156199D02*
X231999055Y-140232390D01*
X231999055Y-140232390D02*
X232037150Y-140384771D01*
X232037150Y-140384771D02*
X232037150Y-140575247D01*
X232037150Y-140575247D02*
X231999055Y-140727628D01*
X231999055Y-140727628D02*
X231960960Y-140803818D01*
X231960960Y-140803818D02*
X231922865Y-140841914D01*
X231922865Y-140841914D02*
X231846674Y-140880009D01*
X231846674Y-140880009D02*
X231770484Y-140880009D01*
X231770484Y-140880009D02*
X231694293Y-140841914D01*
X231694293Y-140841914D02*
X231656198Y-140803818D01*
X231656198Y-140803818D02*
X231618103Y-140727628D01*
X231618103Y-140727628D02*
X231580007Y-140575247D01*
X231580007Y-140575247D02*
X231580007Y-140384771D01*
X231580007Y-140384771D02*
X231618103Y-140232390D01*
X231618103Y-140232390D02*
X231656198Y-140156199D01*
X231656198Y-140156199D02*
X231694293Y-140118104D01*
X231694293Y-140118104D02*
X231770484Y-140080009D01*
X232532389Y-140080009D02*
X232608579Y-140080009D01*
X232608579Y-140080009D02*
X232684770Y-140118104D01*
X232684770Y-140118104D02*
X232722865Y-140156199D01*
X232722865Y-140156199D02*
X232760960Y-140232390D01*
X232760960Y-140232390D02*
X232799055Y-140384771D01*
X232799055Y-140384771D02*
X232799055Y-140575247D01*
X232799055Y-140575247D02*
X232760960Y-140727628D01*
X232760960Y-140727628D02*
X232722865Y-140803818D01*
X232722865Y-140803818D02*
X232684770Y-140841914D01*
X232684770Y-140841914D02*
X232608579Y-140880009D01*
X232608579Y-140880009D02*
X232532389Y-140880009D01*
X232532389Y-140880009D02*
X232456198Y-140841914D01*
X232456198Y-140841914D02*
X232418103Y-140803818D01*
X232418103Y-140803818D02*
X232380008Y-140727628D01*
X232380008Y-140727628D02*
X232341912Y-140575247D01*
X232341912Y-140575247D02*
X232341912Y-140384771D01*
X232341912Y-140384771D02*
X232380008Y-140232390D01*
X232380008Y-140232390D02*
X232418103Y-140156199D01*
X232418103Y-140156199D02*
X232456198Y-140118104D01*
X232456198Y-140118104D02*
X232532389Y-140080009D01*
X233103817Y-140156199D02*
X233141913Y-140118104D01*
X233141913Y-140118104D02*
X233218103Y-140080009D01*
X233218103Y-140080009D02*
X233408579Y-140080009D01*
X233408579Y-140080009D02*
X233484770Y-140118104D01*
X233484770Y-140118104D02*
X233522865Y-140156199D01*
X233522865Y-140156199D02*
X233560960Y-140232390D01*
X233560960Y-140232390D02*
X233560960Y-140308580D01*
X233560960Y-140308580D02*
X233522865Y-140422866D01*
X233522865Y-140422866D02*
X233065722Y-140880009D01*
X233065722Y-140880009D02*
X233560960Y-140880009D01*
X232037142Y-145960008D02*
X231579999Y-145960008D01*
X231808571Y-145960008D02*
X231808571Y-145160008D01*
X231808571Y-145160008D02*
X231732380Y-145274293D01*
X231732380Y-145274293D02*
X231656190Y-145350484D01*
X231656190Y-145350484D02*
X231579999Y-145388579D01*
X232799047Y-145960008D02*
X232341904Y-145960008D01*
X232570476Y-145960008D02*
X232570476Y-145160008D01*
X232570476Y-145160008D02*
X232494285Y-145274293D01*
X232494285Y-145274293D02*
X232418095Y-145350484D01*
X232418095Y-145350484D02*
X232341904Y-145388579D01*
X233065714Y-145160008D02*
X233560952Y-145160008D01*
X233560952Y-145160008D02*
X233294286Y-145464770D01*
X233294286Y-145464770D02*
X233408571Y-145464770D01*
X233408571Y-145464770D02*
X233484762Y-145502865D01*
X233484762Y-145502865D02*
X233522857Y-145540960D01*
X233522857Y-145540960D02*
X233560952Y-145617151D01*
X233560952Y-145617151D02*
X233560952Y-145807627D01*
X233560952Y-145807627D02*
X233522857Y-145883817D01*
X233522857Y-145883817D02*
X233484762Y-145921913D01*
X233484762Y-145921913D02*
X233408571Y-145960008D01*
X233408571Y-145960008D02*
X233180000Y-145960008D01*
X233180000Y-145960008D02*
X233103809Y-145921913D01*
X233103809Y-145921913D02*
X233065714Y-145883817D01*
X242844867Y-127310011D02*
X242921057Y-127310011D01*
X242921057Y-127310011D02*
X242997248Y-127348106D01*
X242997248Y-127348106D02*
X243035343Y-127386201D01*
X243035343Y-127386201D02*
X243073438Y-127462392D01*
X243073438Y-127462392D02*
X243111533Y-127614773D01*
X243111533Y-127614773D02*
X243111533Y-127805249D01*
X243111533Y-127805249D02*
X243073438Y-127957630D01*
X243073438Y-127957630D02*
X243035343Y-128033820D01*
X243035343Y-128033820D02*
X242997248Y-128071916D01*
X242997248Y-128071916D02*
X242921057Y-128110011D01*
X242921057Y-128110011D02*
X242844867Y-128110011D01*
X242844867Y-128110011D02*
X242768676Y-128071916D01*
X242768676Y-128071916D02*
X242730581Y-128033820D01*
X242730581Y-128033820D02*
X242692486Y-127957630D01*
X242692486Y-127957630D02*
X242654390Y-127805249D01*
X242654390Y-127805249D02*
X242654390Y-127614773D01*
X242654390Y-127614773D02*
X242692486Y-127462392D01*
X242692486Y-127462392D02*
X242730581Y-127386201D01*
X242730581Y-127386201D02*
X242768676Y-127348106D01*
X242768676Y-127348106D02*
X242844867Y-127310011D01*
X243606772Y-127310011D02*
X243682962Y-127310011D01*
X243682962Y-127310011D02*
X243759153Y-127348106D01*
X243759153Y-127348106D02*
X243797248Y-127386201D01*
X243797248Y-127386201D02*
X243835343Y-127462392D01*
X243835343Y-127462392D02*
X243873438Y-127614773D01*
X243873438Y-127614773D02*
X243873438Y-127805249D01*
X243873438Y-127805249D02*
X243835343Y-127957630D01*
X243835343Y-127957630D02*
X243797248Y-128033820D01*
X243797248Y-128033820D02*
X243759153Y-128071916D01*
X243759153Y-128071916D02*
X243682962Y-128110011D01*
X243682962Y-128110011D02*
X243606772Y-128110011D01*
X243606772Y-128110011D02*
X243530581Y-128071916D01*
X243530581Y-128071916D02*
X243492486Y-128033820D01*
X243492486Y-128033820D02*
X243454391Y-127957630D01*
X243454391Y-127957630D02*
X243416295Y-127805249D01*
X243416295Y-127805249D02*
X243416295Y-127614773D01*
X243416295Y-127614773D02*
X243454391Y-127462392D01*
X243454391Y-127462392D02*
X243492486Y-127386201D01*
X243492486Y-127386201D02*
X243530581Y-127348106D01*
X243530581Y-127348106D02*
X243606772Y-127310011D01*
X244330581Y-127652868D02*
X244254391Y-127614773D01*
X244254391Y-127614773D02*
X244216296Y-127576677D01*
X244216296Y-127576677D02*
X244178200Y-127500487D01*
X244178200Y-127500487D02*
X244178200Y-127462392D01*
X244178200Y-127462392D02*
X244216296Y-127386201D01*
X244216296Y-127386201D02*
X244254391Y-127348106D01*
X244254391Y-127348106D02*
X244330581Y-127310011D01*
X244330581Y-127310011D02*
X244482962Y-127310011D01*
X244482962Y-127310011D02*
X244559153Y-127348106D01*
X244559153Y-127348106D02*
X244597248Y-127386201D01*
X244597248Y-127386201D02*
X244635343Y-127462392D01*
X244635343Y-127462392D02*
X244635343Y-127500487D01*
X244635343Y-127500487D02*
X244597248Y-127576677D01*
X244597248Y-127576677D02*
X244559153Y-127614773D01*
X244559153Y-127614773D02*
X244482962Y-127652868D01*
X244482962Y-127652868D02*
X244330581Y-127652868D01*
X244330581Y-127652868D02*
X244254391Y-127690963D01*
X244254391Y-127690963D02*
X244216296Y-127729058D01*
X244216296Y-127729058D02*
X244178200Y-127805249D01*
X244178200Y-127805249D02*
X244178200Y-127957630D01*
X244178200Y-127957630D02*
X244216296Y-128033820D01*
X244216296Y-128033820D02*
X244254391Y-128071916D01*
X244254391Y-128071916D02*
X244330581Y-128110011D01*
X244330581Y-128110011D02*
X244482962Y-128110011D01*
X244482962Y-128110011D02*
X244559153Y-128071916D01*
X244559153Y-128071916D02*
X244597248Y-128033820D01*
X244597248Y-128033820D02*
X244635343Y-127957630D01*
X244635343Y-127957630D02*
X244635343Y-127805249D01*
X244635343Y-127805249D02*
X244597248Y-127729058D01*
X244597248Y-127729058D02*
X244559153Y-127690963D01*
X244559153Y-127690963D02*
X244482962Y-127652868D01*
X242844865Y-124840010D02*
X242921055Y-124840010D01*
X242921055Y-124840010D02*
X242997246Y-124878105D01*
X242997246Y-124878105D02*
X243035341Y-124916200D01*
X243035341Y-124916200D02*
X243073436Y-124992391D01*
X243073436Y-124992391D02*
X243111531Y-125144772D01*
X243111531Y-125144772D02*
X243111531Y-125335248D01*
X243111531Y-125335248D02*
X243073436Y-125487629D01*
X243073436Y-125487629D02*
X243035341Y-125563819D01*
X243035341Y-125563819D02*
X242997246Y-125601915D01*
X242997246Y-125601915D02*
X242921055Y-125640010D01*
X242921055Y-125640010D02*
X242844865Y-125640010D01*
X242844865Y-125640010D02*
X242768674Y-125601915D01*
X242768674Y-125601915D02*
X242730579Y-125563819D01*
X242730579Y-125563819D02*
X242692484Y-125487629D01*
X242692484Y-125487629D02*
X242654388Y-125335248D01*
X242654388Y-125335248D02*
X242654388Y-125144772D01*
X242654388Y-125144772D02*
X242692484Y-124992391D01*
X242692484Y-124992391D02*
X242730579Y-124916200D01*
X242730579Y-124916200D02*
X242768674Y-124878105D01*
X242768674Y-124878105D02*
X242844865Y-124840010D01*
X243606770Y-124840010D02*
X243682960Y-124840010D01*
X243682960Y-124840010D02*
X243759151Y-124878105D01*
X243759151Y-124878105D02*
X243797246Y-124916200D01*
X243797246Y-124916200D02*
X243835341Y-124992391D01*
X243835341Y-124992391D02*
X243873436Y-125144772D01*
X243873436Y-125144772D02*
X243873436Y-125335248D01*
X243873436Y-125335248D02*
X243835341Y-125487629D01*
X243835341Y-125487629D02*
X243797246Y-125563819D01*
X243797246Y-125563819D02*
X243759151Y-125601915D01*
X243759151Y-125601915D02*
X243682960Y-125640010D01*
X243682960Y-125640010D02*
X243606770Y-125640010D01*
X243606770Y-125640010D02*
X243530579Y-125601915D01*
X243530579Y-125601915D02*
X243492484Y-125563819D01*
X243492484Y-125563819D02*
X243454389Y-125487629D01*
X243454389Y-125487629D02*
X243416293Y-125335248D01*
X243416293Y-125335248D02*
X243416293Y-125144772D01*
X243416293Y-125144772D02*
X243454389Y-124992391D01*
X243454389Y-124992391D02*
X243492484Y-124916200D01*
X243492484Y-124916200D02*
X243530579Y-124878105D01*
X243530579Y-124878105D02*
X243606770Y-124840010D01*
X244559151Y-124840010D02*
X244406770Y-124840010D01*
X244406770Y-124840010D02*
X244330579Y-124878105D01*
X244330579Y-124878105D02*
X244292484Y-124916200D01*
X244292484Y-124916200D02*
X244216294Y-125030486D01*
X244216294Y-125030486D02*
X244178198Y-125182867D01*
X244178198Y-125182867D02*
X244178198Y-125487629D01*
X244178198Y-125487629D02*
X244216294Y-125563819D01*
X244216294Y-125563819D02*
X244254389Y-125601915D01*
X244254389Y-125601915D02*
X244330579Y-125640010D01*
X244330579Y-125640010D02*
X244482960Y-125640010D01*
X244482960Y-125640010D02*
X244559151Y-125601915D01*
X244559151Y-125601915D02*
X244597246Y-125563819D01*
X244597246Y-125563819D02*
X244635341Y-125487629D01*
X244635341Y-125487629D02*
X244635341Y-125297153D01*
X244635341Y-125297153D02*
X244597246Y-125220962D01*
X244597246Y-125220962D02*
X244559151Y-125182867D01*
X244559151Y-125182867D02*
X244482960Y-125144772D01*
X244482960Y-125144772D02*
X244330579Y-125144772D01*
X244330579Y-125144772D02*
X244254389Y-125182867D01*
X244254389Y-125182867D02*
X244216294Y-125220962D01*
X244216294Y-125220962D02*
X244178198Y-125297153D01*
X242959151Y-132498103D02*
X242882961Y-132460008D01*
X242882961Y-132460008D02*
X242768675Y-132460008D01*
X242768675Y-132460008D02*
X242654389Y-132498103D01*
X242654389Y-132498103D02*
X242578199Y-132574293D01*
X242578199Y-132574293D02*
X242540104Y-132650484D01*
X242540104Y-132650484D02*
X242502008Y-132802865D01*
X242502008Y-132802865D02*
X242502008Y-132917151D01*
X242502008Y-132917151D02*
X242540104Y-133069532D01*
X242540104Y-133069532D02*
X242578199Y-133145722D01*
X242578199Y-133145722D02*
X242654389Y-133221913D01*
X242654389Y-133221913D02*
X242768675Y-133260008D01*
X242768675Y-133260008D02*
X242844866Y-133260008D01*
X242844866Y-133260008D02*
X242959151Y-133221913D01*
X242959151Y-133221913D02*
X242997247Y-133183817D01*
X242997247Y-133183817D02*
X242997247Y-132917151D01*
X242997247Y-132917151D02*
X242844866Y-132917151D01*
X243340104Y-133260008D02*
X243340104Y-132460008D01*
X243340104Y-132460008D02*
X243797247Y-133260008D01*
X243797247Y-133260008D02*
X243797247Y-132460008D01*
X244178199Y-133260008D02*
X244178199Y-132460008D01*
X244178199Y-132460008D02*
X244368675Y-132460008D01*
X244368675Y-132460008D02*
X244482961Y-132498103D01*
X244482961Y-132498103D02*
X244559151Y-132574293D01*
X244559151Y-132574293D02*
X244597246Y-132650484D01*
X244597246Y-132650484D02*
X244635342Y-132802865D01*
X244635342Y-132802865D02*
X244635342Y-132917151D01*
X244635342Y-132917151D02*
X244597246Y-133069532D01*
X244597246Y-133069532D02*
X244559151Y-133145722D01*
X244559151Y-133145722D02*
X244482961Y-133221913D01*
X244482961Y-133221913D02*
X244368675Y-133260008D01*
X244368675Y-133260008D02*
X244178199Y-133260008D01*
X242844867Y-137610009D02*
X242921057Y-137610009D01*
X242921057Y-137610009D02*
X242997248Y-137648104D01*
X242997248Y-137648104D02*
X243035343Y-137686199D01*
X243035343Y-137686199D02*
X243073438Y-137762390D01*
X243073438Y-137762390D02*
X243111533Y-137914771D01*
X243111533Y-137914771D02*
X243111533Y-138105247D01*
X243111533Y-138105247D02*
X243073438Y-138257628D01*
X243073438Y-138257628D02*
X243035343Y-138333818D01*
X243035343Y-138333818D02*
X242997248Y-138371914D01*
X242997248Y-138371914D02*
X242921057Y-138410009D01*
X242921057Y-138410009D02*
X242844867Y-138410009D01*
X242844867Y-138410009D02*
X242768676Y-138371914D01*
X242768676Y-138371914D02*
X242730581Y-138333818D01*
X242730581Y-138333818D02*
X242692486Y-138257628D01*
X242692486Y-138257628D02*
X242654390Y-138105247D01*
X242654390Y-138105247D02*
X242654390Y-137914771D01*
X242654390Y-137914771D02*
X242692486Y-137762390D01*
X242692486Y-137762390D02*
X242730581Y-137686199D01*
X242730581Y-137686199D02*
X242768676Y-137648104D01*
X242768676Y-137648104D02*
X242844867Y-137610009D01*
X243416295Y-137686199D02*
X243454391Y-137648104D01*
X243454391Y-137648104D02*
X243530581Y-137610009D01*
X243530581Y-137610009D02*
X243721057Y-137610009D01*
X243721057Y-137610009D02*
X243797248Y-137648104D01*
X243797248Y-137648104D02*
X243835343Y-137686199D01*
X243835343Y-137686199D02*
X243873438Y-137762390D01*
X243873438Y-137762390D02*
X243873438Y-137838580D01*
X243873438Y-137838580D02*
X243835343Y-137952866D01*
X243835343Y-137952866D02*
X243378200Y-138410009D01*
X243378200Y-138410009D02*
X243873438Y-138410009D01*
X244368677Y-137610009D02*
X244444867Y-137610009D01*
X244444867Y-137610009D02*
X244521058Y-137648104D01*
X244521058Y-137648104D02*
X244559153Y-137686199D01*
X244559153Y-137686199D02*
X244597248Y-137762390D01*
X244597248Y-137762390D02*
X244635343Y-137914771D01*
X244635343Y-137914771D02*
X244635343Y-138105247D01*
X244635343Y-138105247D02*
X244597248Y-138257628D01*
X244597248Y-138257628D02*
X244559153Y-138333818D01*
X244559153Y-138333818D02*
X244521058Y-138371914D01*
X244521058Y-138371914D02*
X244444867Y-138410009D01*
X244444867Y-138410009D02*
X244368677Y-138410009D01*
X244368677Y-138410009D02*
X244292486Y-138371914D01*
X244292486Y-138371914D02*
X244254391Y-138333818D01*
X244254391Y-138333818D02*
X244216296Y-138257628D01*
X244216296Y-138257628D02*
X244178200Y-138105247D01*
X244178200Y-138105247D02*
X244178200Y-137914771D01*
X244178200Y-137914771D02*
X244216296Y-137762390D01*
X244216296Y-137762390D02*
X244254391Y-137686199D01*
X244254391Y-137686199D02*
X244292486Y-137648104D01*
X244292486Y-137648104D02*
X244368677Y-137610009D01*
X242844861Y-140110008D02*
X242921051Y-140110008D01*
X242921051Y-140110008D02*
X242997242Y-140148103D01*
X242997242Y-140148103D02*
X243035337Y-140186198D01*
X243035337Y-140186198D02*
X243073432Y-140262389D01*
X243073432Y-140262389D02*
X243111527Y-140414770D01*
X243111527Y-140414770D02*
X243111527Y-140605246D01*
X243111527Y-140605246D02*
X243073432Y-140757627D01*
X243073432Y-140757627D02*
X243035337Y-140833817D01*
X243035337Y-140833817D02*
X242997242Y-140871913D01*
X242997242Y-140871913D02*
X242921051Y-140910008D01*
X242921051Y-140910008D02*
X242844861Y-140910008D01*
X242844861Y-140910008D02*
X242768670Y-140871913D01*
X242768670Y-140871913D02*
X242730575Y-140833817D01*
X242730575Y-140833817D02*
X242692480Y-140757627D01*
X242692480Y-140757627D02*
X242654384Y-140605246D01*
X242654384Y-140605246D02*
X242654384Y-140414770D01*
X242654384Y-140414770D02*
X242692480Y-140262389D01*
X242692480Y-140262389D02*
X242730575Y-140186198D01*
X242730575Y-140186198D02*
X242768670Y-140148103D01*
X242768670Y-140148103D02*
X242844861Y-140110008D01*
X243416289Y-140186198D02*
X243454385Y-140148103D01*
X243454385Y-140148103D02*
X243530575Y-140110008D01*
X243530575Y-140110008D02*
X243721051Y-140110008D01*
X243721051Y-140110008D02*
X243797242Y-140148103D01*
X243797242Y-140148103D02*
X243835337Y-140186198D01*
X243835337Y-140186198D02*
X243873432Y-140262389D01*
X243873432Y-140262389D02*
X243873432Y-140338579D01*
X243873432Y-140338579D02*
X243835337Y-140452865D01*
X243835337Y-140452865D02*
X243378194Y-140910008D01*
X243378194Y-140910008D02*
X243873432Y-140910008D01*
X244178194Y-140186198D02*
X244216290Y-140148103D01*
X244216290Y-140148103D02*
X244292480Y-140110008D01*
X244292480Y-140110008D02*
X244482956Y-140110008D01*
X244482956Y-140110008D02*
X244559147Y-140148103D01*
X244559147Y-140148103D02*
X244597242Y-140186198D01*
X244597242Y-140186198D02*
X244635337Y-140262389D01*
X244635337Y-140262389D02*
X244635337Y-140338579D01*
X244635337Y-140338579D02*
X244597242Y-140452865D01*
X244597242Y-140452865D02*
X244140099Y-140910008D01*
X244140099Y-140910008D02*
X244635337Y-140910008D01*
X242844865Y-135010008D02*
X242921055Y-135010008D01*
X242921055Y-135010008D02*
X242997246Y-135048103D01*
X242997246Y-135048103D02*
X243035341Y-135086198D01*
X243035341Y-135086198D02*
X243073436Y-135162389D01*
X243073436Y-135162389D02*
X243111531Y-135314770D01*
X243111531Y-135314770D02*
X243111531Y-135505246D01*
X243111531Y-135505246D02*
X243073436Y-135657627D01*
X243073436Y-135657627D02*
X243035341Y-135733817D01*
X243035341Y-135733817D02*
X242997246Y-135771913D01*
X242997246Y-135771913D02*
X242921055Y-135810008D01*
X242921055Y-135810008D02*
X242844865Y-135810008D01*
X242844865Y-135810008D02*
X242768674Y-135771913D01*
X242768674Y-135771913D02*
X242730579Y-135733817D01*
X242730579Y-135733817D02*
X242692484Y-135657627D01*
X242692484Y-135657627D02*
X242654388Y-135505246D01*
X242654388Y-135505246D02*
X242654388Y-135314770D01*
X242654388Y-135314770D02*
X242692484Y-135162389D01*
X242692484Y-135162389D02*
X242730579Y-135086198D01*
X242730579Y-135086198D02*
X242768674Y-135048103D01*
X242768674Y-135048103D02*
X242844865Y-135010008D01*
X243873436Y-135810008D02*
X243416293Y-135810008D01*
X243644865Y-135810008D02*
X243644865Y-135010008D01*
X243644865Y-135010008D02*
X243568674Y-135124293D01*
X243568674Y-135124293D02*
X243492484Y-135200484D01*
X243492484Y-135200484D02*
X243416293Y-135238579D01*
X244140103Y-135010008D02*
X244673437Y-135010008D01*
X244673437Y-135010008D02*
X244330579Y-135810008D01*
X242959155Y-129958109D02*
X242882965Y-129920014D01*
X242882965Y-129920014D02*
X242768679Y-129920014D01*
X242768679Y-129920014D02*
X242654393Y-129958109D01*
X242654393Y-129958109D02*
X242578203Y-130034299D01*
X242578203Y-130034299D02*
X242540108Y-130110490D01*
X242540108Y-130110490D02*
X242502012Y-130262871D01*
X242502012Y-130262871D02*
X242502012Y-130377157D01*
X242502012Y-130377157D02*
X242540108Y-130529538D01*
X242540108Y-130529538D02*
X242578203Y-130605728D01*
X242578203Y-130605728D02*
X242654393Y-130681919D01*
X242654393Y-130681919D02*
X242768679Y-130720014D01*
X242768679Y-130720014D02*
X242844870Y-130720014D01*
X242844870Y-130720014D02*
X242959155Y-130681919D01*
X242959155Y-130681919D02*
X242997251Y-130643823D01*
X242997251Y-130643823D02*
X242997251Y-130377157D01*
X242997251Y-130377157D02*
X242844870Y-130377157D01*
X243340108Y-130720014D02*
X243340108Y-129920014D01*
X243340108Y-129920014D02*
X243797251Y-130720014D01*
X243797251Y-130720014D02*
X243797251Y-129920014D01*
X244178203Y-130720014D02*
X244178203Y-129920014D01*
X244178203Y-129920014D02*
X244368679Y-129920014D01*
X244368679Y-129920014D02*
X244482965Y-129958109D01*
X244482965Y-129958109D02*
X244559155Y-130034299D01*
X244559155Y-130034299D02*
X244597250Y-130110490D01*
X244597250Y-130110490D02*
X244635346Y-130262871D01*
X244635346Y-130262871D02*
X244635346Y-130377157D01*
X244635346Y-130377157D02*
X244597250Y-130529538D01*
X244597250Y-130529538D02*
X244559155Y-130605728D01*
X244559155Y-130605728D02*
X244482965Y-130681919D01*
X244482965Y-130681919D02*
X244368679Y-130720014D01*
X244368679Y-130720014D02*
X244178203Y-130720014D01*
D12*
X232817960Y-152388039D02*
X232817960Y-153388039D01*
X232817960Y-152530896D02*
X232889389Y-152459468D01*
X232889389Y-152459468D02*
X233032246Y-152388039D01*
X233032246Y-152388039D02*
X233246532Y-152388039D01*
X233246532Y-152388039D02*
X233389389Y-152459468D01*
X233389389Y-152459468D02*
X233460818Y-152602325D01*
X233460818Y-152602325D02*
X233460818Y-153388039D01*
X234175103Y-153388039D02*
X234175103Y-152388039D01*
X234175103Y-151888039D02*
X234103675Y-151959468D01*
X234103675Y-151959468D02*
X234175103Y-152030896D01*
X234175103Y-152030896D02*
X234246532Y-151959468D01*
X234246532Y-151959468D02*
X234175103Y-151888039D01*
X234175103Y-151888039D02*
X234175103Y-152030896D01*
X235532247Y-153316611D02*
X235389389Y-153388039D01*
X235389389Y-153388039D02*
X235103675Y-153388039D01*
X235103675Y-153388039D02*
X234960818Y-153316611D01*
X234960818Y-153316611D02*
X234889389Y-153245182D01*
X234889389Y-153245182D02*
X234817961Y-153102325D01*
X234817961Y-153102325D02*
X234817961Y-152673753D01*
X234817961Y-152673753D02*
X234889389Y-152530896D01*
X234889389Y-152530896D02*
X234960818Y-152459468D01*
X234960818Y-152459468D02*
X235103675Y-152388039D01*
X235103675Y-152388039D02*
X235389389Y-152388039D01*
X235389389Y-152388039D02*
X235532247Y-152459468D01*
X236746532Y-153316611D02*
X236603675Y-153388039D01*
X236603675Y-153388039D02*
X236317961Y-153388039D01*
X236317961Y-153388039D02*
X236175103Y-153316611D01*
X236175103Y-153316611D02*
X236103675Y-153173753D01*
X236103675Y-153173753D02*
X236103675Y-152602325D01*
X236103675Y-152602325D02*
X236175103Y-152459468D01*
X236175103Y-152459468D02*
X236317961Y-152388039D01*
X236317961Y-152388039D02*
X236603675Y-152388039D01*
X236603675Y-152388039D02*
X236746532Y-152459468D01*
X236746532Y-152459468D02*
X236817961Y-152602325D01*
X236817961Y-152602325D02*
X236817961Y-152745182D01*
X236817961Y-152745182D02*
X236103675Y-152888039D01*
X237460817Y-153245182D02*
X237532246Y-153316611D01*
X237532246Y-153316611D02*
X237460817Y-153388039D01*
X237460817Y-153388039D02*
X237389389Y-153316611D01*
X237389389Y-153316611D02*
X237460817Y-153245182D01*
X237460817Y-153245182D02*
X237460817Y-153388039D01*
X237460817Y-152816611D02*
X237389389Y-151959468D01*
X237389389Y-151959468D02*
X237460817Y-151888039D01*
X237460817Y-151888039D02*
X237532246Y-151959468D01*
X237532246Y-151959468D02*
X237460817Y-152816611D01*
X237460817Y-152816611D02*
X237460817Y-151888039D01*
X238175103Y-152388039D02*
X238175103Y-153388039D01*
X238175103Y-152530896D02*
X238246532Y-152459468D01*
X238246532Y-152459468D02*
X238389389Y-152388039D01*
X238389389Y-152388039D02*
X238603675Y-152388039D01*
X238603675Y-152388039D02*
X238746532Y-152459468D01*
X238746532Y-152459468D02*
X238817961Y-152602325D01*
X238817961Y-152602325D02*
X238817961Y-153388039D01*
X240175104Y-153388039D02*
X240175104Y-152602325D01*
X240175104Y-152602325D02*
X240103675Y-152459468D01*
X240103675Y-152459468D02*
X239960818Y-152388039D01*
X239960818Y-152388039D02*
X239675104Y-152388039D01*
X239675104Y-152388039D02*
X239532246Y-152459468D01*
X240175104Y-153316611D02*
X240032246Y-153388039D01*
X240032246Y-153388039D02*
X239675104Y-153388039D01*
X239675104Y-153388039D02*
X239532246Y-153316611D01*
X239532246Y-153316611D02*
X239460818Y-153173753D01*
X239460818Y-153173753D02*
X239460818Y-153030896D01*
X239460818Y-153030896D02*
X239532246Y-152888039D01*
X239532246Y-152888039D02*
X239675104Y-152816611D01*
X239675104Y-152816611D02*
X240032246Y-152816611D01*
X240032246Y-152816611D02*
X240175104Y-152745182D01*
X240889389Y-152388039D02*
X240889389Y-153388039D01*
X240889389Y-152530896D02*
X240960818Y-152459468D01*
X240960818Y-152459468D02*
X241103675Y-152388039D01*
X241103675Y-152388039D02*
X241317961Y-152388039D01*
X241317961Y-152388039D02*
X241460818Y-152459468D01*
X241460818Y-152459468D02*
X241532247Y-152602325D01*
X241532247Y-152602325D02*
X241532247Y-153388039D01*
X242460818Y-153388039D02*
X242317961Y-153316611D01*
X242317961Y-153316611D02*
X242246532Y-153245182D01*
X242246532Y-153245182D02*
X242175104Y-153102325D01*
X242175104Y-153102325D02*
X242175104Y-152673753D01*
X242175104Y-152673753D02*
X242246532Y-152530896D01*
X242246532Y-152530896D02*
X242317961Y-152459468D01*
X242317961Y-152459468D02*
X242460818Y-152388039D01*
X242460818Y-152388039D02*
X242675104Y-152388039D01*
X242675104Y-152388039D02*
X242817961Y-152459468D01*
X242817961Y-152459468D02*
X242889390Y-152530896D01*
X242889390Y-152530896D02*
X242960818Y-152673753D01*
X242960818Y-152673753D02*
X242960818Y-153102325D01*
X242960818Y-153102325D02*
X242889390Y-153245182D01*
X242889390Y-153245182D02*
X242817961Y-153316611D01*
X242817961Y-153316611D02*
X242675104Y-153388039D01*
X242675104Y-153388039D02*
X242460818Y-153388039D01*
D11*
X232043484Y-127418103D02*
X231967294Y-127380008D01*
X231967294Y-127380008D02*
X231853008Y-127380008D01*
X231853008Y-127380008D02*
X231738722Y-127418103D01*
X231738722Y-127418103D02*
X231662532Y-127494293D01*
X231662532Y-127494293D02*
X231624437Y-127570484D01*
X231624437Y-127570484D02*
X231586341Y-127722865D01*
X231586341Y-127722865D02*
X231586341Y-127837151D01*
X231586341Y-127837151D02*
X231624437Y-127989532D01*
X231624437Y-127989532D02*
X231662532Y-128065722D01*
X231662532Y-128065722D02*
X231738722Y-128141913D01*
X231738722Y-128141913D02*
X231853008Y-128180008D01*
X231853008Y-128180008D02*
X231929199Y-128180008D01*
X231929199Y-128180008D02*
X232043484Y-128141913D01*
X232043484Y-128141913D02*
X232081580Y-128103817D01*
X232081580Y-128103817D02*
X232081580Y-127837151D01*
X232081580Y-127837151D02*
X231929199Y-127837151D01*
X232424437Y-128180008D02*
X232424437Y-127380008D01*
X232424437Y-127380008D02*
X232881580Y-128180008D01*
X232881580Y-128180008D02*
X232881580Y-127380008D01*
X233262532Y-128180008D02*
X233262532Y-127380008D01*
X233262532Y-127380008D02*
X233453008Y-127380008D01*
X233453008Y-127380008D02*
X233567294Y-127418103D01*
X233567294Y-127418103D02*
X233643484Y-127494293D01*
X233643484Y-127494293D02*
X233681579Y-127570484D01*
X233681579Y-127570484D02*
X233719675Y-127722865D01*
X233719675Y-127722865D02*
X233719675Y-127837151D01*
X233719675Y-127837151D02*
X233681579Y-127989532D01*
X233681579Y-127989532D02*
X233643484Y-128065722D01*
X233643484Y-128065722D02*
X233567294Y-128141913D01*
X233567294Y-128141913D02*
X233453008Y-128180008D01*
X233453008Y-128180008D02*
X233262532Y-128180008D01*
X242844865Y-142620008D02*
X242921055Y-142620008D01*
X242921055Y-142620008D02*
X242997246Y-142658103D01*
X242997246Y-142658103D02*
X243035341Y-142696198D01*
X243035341Y-142696198D02*
X243073436Y-142772389D01*
X243073436Y-142772389D02*
X243111531Y-142924770D01*
X243111531Y-142924770D02*
X243111531Y-143115246D01*
X243111531Y-143115246D02*
X243073436Y-143267627D01*
X243073436Y-143267627D02*
X243035341Y-143343817D01*
X243035341Y-143343817D02*
X242997246Y-143381913D01*
X242997246Y-143381913D02*
X242921055Y-143420008D01*
X242921055Y-143420008D02*
X242844865Y-143420008D01*
X242844865Y-143420008D02*
X242768674Y-143381913D01*
X242768674Y-143381913D02*
X242730579Y-143343817D01*
X242730579Y-143343817D02*
X242692484Y-143267627D01*
X242692484Y-143267627D02*
X242654388Y-143115246D01*
X242654388Y-143115246D02*
X242654388Y-142924770D01*
X242654388Y-142924770D02*
X242692484Y-142772389D01*
X242692484Y-142772389D02*
X242730579Y-142696198D01*
X242730579Y-142696198D02*
X242768674Y-142658103D01*
X242768674Y-142658103D02*
X242844865Y-142620008D01*
X243416293Y-142696198D02*
X243454389Y-142658103D01*
X243454389Y-142658103D02*
X243530579Y-142620008D01*
X243530579Y-142620008D02*
X243721055Y-142620008D01*
X243721055Y-142620008D02*
X243797246Y-142658103D01*
X243797246Y-142658103D02*
X243835341Y-142696198D01*
X243835341Y-142696198D02*
X243873436Y-142772389D01*
X243873436Y-142772389D02*
X243873436Y-142848579D01*
X243873436Y-142848579D02*
X243835341Y-142962865D01*
X243835341Y-142962865D02*
X243378198Y-143420008D01*
X243378198Y-143420008D02*
X243873436Y-143420008D01*
X244559151Y-142886674D02*
X244559151Y-143420008D01*
X244368675Y-142581913D02*
X244178198Y-143153341D01*
X244178198Y-143153341D02*
X244673437Y-143153341D01*
X243111531Y-151040008D02*
X242654388Y-151040008D01*
X242882960Y-151040008D02*
X242882960Y-150240008D01*
X242882960Y-150240008D02*
X242806769Y-150354293D01*
X242806769Y-150354293D02*
X242730579Y-150430484D01*
X242730579Y-150430484D02*
X242654388Y-150468579D01*
X243606770Y-150240008D02*
X243682960Y-150240008D01*
X243682960Y-150240008D02*
X243759151Y-150278103D01*
X243759151Y-150278103D02*
X243797246Y-150316198D01*
X243797246Y-150316198D02*
X243835341Y-150392389D01*
X243835341Y-150392389D02*
X243873436Y-150544770D01*
X243873436Y-150544770D02*
X243873436Y-150735246D01*
X243873436Y-150735246D02*
X243835341Y-150887627D01*
X243835341Y-150887627D02*
X243797246Y-150963817D01*
X243797246Y-150963817D02*
X243759151Y-151001913D01*
X243759151Y-151001913D02*
X243682960Y-151040008D01*
X243682960Y-151040008D02*
X243606770Y-151040008D01*
X243606770Y-151040008D02*
X243530579Y-151001913D01*
X243530579Y-151001913D02*
X243492484Y-150963817D01*
X243492484Y-150963817D02*
X243454389Y-150887627D01*
X243454389Y-150887627D02*
X243416293Y-150735246D01*
X243416293Y-150735246D02*
X243416293Y-150544770D01*
X243416293Y-150544770D02*
X243454389Y-150392389D01*
X243454389Y-150392389D02*
X243492484Y-150316198D01*
X243492484Y-150316198D02*
X243530579Y-150278103D01*
X243530579Y-150278103D02*
X243606770Y-150240008D01*
X244559151Y-150506674D02*
X244559151Y-151040008D01*
X244368675Y-150201913D02*
X244178198Y-150773341D01*
X244178198Y-150773341D02*
X244673437Y-150773341D01*
X231770489Y-135000010D02*
X231846679Y-135000010D01*
X231846679Y-135000010D02*
X231922870Y-135038105D01*
X231922870Y-135038105D02*
X231960965Y-135076200D01*
X231960965Y-135076200D02*
X231999060Y-135152391D01*
X231999060Y-135152391D02*
X232037155Y-135304772D01*
X232037155Y-135304772D02*
X232037155Y-135495248D01*
X232037155Y-135495248D02*
X231999060Y-135647629D01*
X231999060Y-135647629D02*
X231960965Y-135723819D01*
X231960965Y-135723819D02*
X231922870Y-135761915D01*
X231922870Y-135761915D02*
X231846679Y-135800010D01*
X231846679Y-135800010D02*
X231770489Y-135800010D01*
X231770489Y-135800010D02*
X231694298Y-135761915D01*
X231694298Y-135761915D02*
X231656203Y-135723819D01*
X231656203Y-135723819D02*
X231618108Y-135647629D01*
X231618108Y-135647629D02*
X231580012Y-135495248D01*
X231580012Y-135495248D02*
X231580012Y-135304772D01*
X231580012Y-135304772D02*
X231618108Y-135152391D01*
X231618108Y-135152391D02*
X231656203Y-135076200D01*
X231656203Y-135076200D02*
X231694298Y-135038105D01*
X231694298Y-135038105D02*
X231770489Y-135000010D01*
X232303822Y-135000010D02*
X232799060Y-135000010D01*
X232799060Y-135000010D02*
X232532394Y-135304772D01*
X232532394Y-135304772D02*
X232646679Y-135304772D01*
X232646679Y-135304772D02*
X232722870Y-135342867D01*
X232722870Y-135342867D02*
X232760965Y-135380962D01*
X232760965Y-135380962D02*
X232799060Y-135457153D01*
X232799060Y-135457153D02*
X232799060Y-135647629D01*
X232799060Y-135647629D02*
X232760965Y-135723819D01*
X232760965Y-135723819D02*
X232722870Y-135761915D01*
X232722870Y-135761915D02*
X232646679Y-135800010D01*
X232646679Y-135800010D02*
X232418108Y-135800010D01*
X232418108Y-135800010D02*
X232341917Y-135761915D01*
X232341917Y-135761915D02*
X232303822Y-135723819D01*
X233560965Y-135800010D02*
X233103822Y-135800010D01*
X233332394Y-135800010D02*
X233332394Y-135000010D01*
X233332394Y-135000010D02*
X233256203Y-135114295D01*
X233256203Y-135114295D02*
X233180013Y-135190486D01*
X233180013Y-135190486D02*
X233103822Y-135228581D01*
X232037156Y-143420012D02*
X231580013Y-143420012D01*
X231808585Y-143420012D02*
X231808585Y-142620012D01*
X231808585Y-142620012D02*
X231732394Y-142734297D01*
X231732394Y-142734297D02*
X231656204Y-142810488D01*
X231656204Y-142810488D02*
X231580013Y-142848583D01*
X232799061Y-143420012D02*
X232341918Y-143420012D01*
X232570490Y-143420012D02*
X232570490Y-142620012D01*
X232570490Y-142620012D02*
X232494299Y-142734297D01*
X232494299Y-142734297D02*
X232418109Y-142810488D01*
X232418109Y-142810488D02*
X232341918Y-142848583D01*
X233522871Y-142620012D02*
X233141919Y-142620012D01*
X233141919Y-142620012D02*
X233103823Y-143000964D01*
X233103823Y-143000964D02*
X233141919Y-142962869D01*
X233141919Y-142962869D02*
X233218109Y-142924774D01*
X233218109Y-142924774D02*
X233408585Y-142924774D01*
X233408585Y-142924774D02*
X233484776Y-142962869D01*
X233484776Y-142962869D02*
X233522871Y-143000964D01*
X233522871Y-143000964D02*
X233560966Y-143077155D01*
X233560966Y-143077155D02*
X233560966Y-143267631D01*
X233560966Y-143267631D02*
X233522871Y-143343821D01*
X233522871Y-143343821D02*
X233484776Y-143381917D01*
X233484776Y-143381917D02*
X233408585Y-143420012D01*
X233408585Y-143420012D02*
X233218109Y-143420012D01*
X233218109Y-143420012D02*
X233141919Y-143381917D01*
X233141919Y-143381917D02*
X233103823Y-143343821D01*
X232037150Y-148500008D02*
X231580007Y-148500008D01*
X231808579Y-148500008D02*
X231808579Y-147700008D01*
X231808579Y-147700008D02*
X231732388Y-147814293D01*
X231732388Y-147814293D02*
X231656198Y-147890484D01*
X231656198Y-147890484D02*
X231580007Y-147928579D01*
X232799055Y-148500008D02*
X232341912Y-148500008D01*
X232570484Y-148500008D02*
X232570484Y-147700008D01*
X232570484Y-147700008D02*
X232494293Y-147814293D01*
X232494293Y-147814293D02*
X232418103Y-147890484D01*
X232418103Y-147890484D02*
X232341912Y-147928579D01*
X233560960Y-148500008D02*
X233103817Y-148500008D01*
X233332389Y-148500008D02*
X233332389Y-147700008D01*
X233332389Y-147700008D02*
X233256198Y-147814293D01*
X233256198Y-147814293D02*
X233180008Y-147890484D01*
X233180008Y-147890484D02*
X233103817Y-147928579D01*
X231503807Y-132460007D02*
X231770474Y-133260007D01*
X231770474Y-133260007D02*
X232037140Y-132460007D01*
X232760950Y-133183816D02*
X232722854Y-133221912D01*
X232722854Y-133221912D02*
X232608569Y-133260007D01*
X232608569Y-133260007D02*
X232532378Y-133260007D01*
X232532378Y-133260007D02*
X232418092Y-133221912D01*
X232418092Y-133221912D02*
X232341902Y-133145721D01*
X232341902Y-133145721D02*
X232303807Y-133069531D01*
X232303807Y-133069531D02*
X232265711Y-132917150D01*
X232265711Y-132917150D02*
X232265711Y-132802864D01*
X232265711Y-132802864D02*
X232303807Y-132650483D01*
X232303807Y-132650483D02*
X232341902Y-132574292D01*
X232341902Y-132574292D02*
X232418092Y-132498102D01*
X232418092Y-132498102D02*
X232532378Y-132460007D01*
X232532378Y-132460007D02*
X232608569Y-132460007D01*
X232608569Y-132460007D02*
X232722854Y-132498102D01*
X232722854Y-132498102D02*
X232760950Y-132536197D01*
X233560950Y-133183816D02*
X233522854Y-133221912D01*
X233522854Y-133221912D02*
X233408569Y-133260007D01*
X233408569Y-133260007D02*
X233332378Y-133260007D01*
X233332378Y-133260007D02*
X233218092Y-133221912D01*
X233218092Y-133221912D02*
X233141902Y-133145721D01*
X233141902Y-133145721D02*
X233103807Y-133069531D01*
X233103807Y-133069531D02*
X233065711Y-132917150D01*
X233065711Y-132917150D02*
X233065711Y-132802864D01*
X233065711Y-132802864D02*
X233103807Y-132650483D01*
X233103807Y-132650483D02*
X233141902Y-132574292D01*
X233141902Y-132574292D02*
X233218092Y-132498102D01*
X233218092Y-132498102D02*
X233332378Y-132460007D01*
X233332378Y-132460007D02*
X233408569Y-132460007D01*
X233408569Y-132460007D02*
X233522854Y-132498102D01*
X233522854Y-132498102D02*
X233560950Y-132536197D01*
X232081579Y-125640008D02*
X231814912Y-125259055D01*
X231624436Y-125640008D02*
X231624436Y-124840008D01*
X231624436Y-124840008D02*
X231929198Y-124840008D01*
X231929198Y-124840008D02*
X232005388Y-124878103D01*
X232005388Y-124878103D02*
X232043483Y-124916198D01*
X232043483Y-124916198D02*
X232081579Y-124992389D01*
X232081579Y-124992389D02*
X232081579Y-125106674D01*
X232081579Y-125106674D02*
X232043483Y-125182865D01*
X232043483Y-125182865D02*
X232005388Y-125220960D01*
X232005388Y-125220960D02*
X231929198Y-125259055D01*
X231929198Y-125259055D02*
X231624436Y-125259055D01*
X232386340Y-125411436D02*
X232767293Y-125411436D01*
X232310150Y-125640008D02*
X232576817Y-124840008D01*
X232576817Y-124840008D02*
X232843483Y-125640008D01*
X233033959Y-124840008D02*
X233224435Y-125640008D01*
X233224435Y-125640008D02*
X233376816Y-125068579D01*
X233376816Y-125068579D02*
X233529197Y-125640008D01*
X233529197Y-125640008D02*
X233719674Y-124840008D01*
X231770484Y-137540008D02*
X231846674Y-137540008D01*
X231846674Y-137540008D02*
X231922865Y-137578103D01*
X231922865Y-137578103D02*
X231960960Y-137616198D01*
X231960960Y-137616198D02*
X231999055Y-137692389D01*
X231999055Y-137692389D02*
X232037150Y-137844770D01*
X232037150Y-137844770D02*
X232037150Y-138035246D01*
X232037150Y-138035246D02*
X231999055Y-138187627D01*
X231999055Y-138187627D02*
X231960960Y-138263817D01*
X231960960Y-138263817D02*
X231922865Y-138301913D01*
X231922865Y-138301913D02*
X231846674Y-138340008D01*
X231846674Y-138340008D02*
X231770484Y-138340008D01*
X231770484Y-138340008D02*
X231694293Y-138301913D01*
X231694293Y-138301913D02*
X231656198Y-138263817D01*
X231656198Y-138263817D02*
X231618103Y-138187627D01*
X231618103Y-138187627D02*
X231580007Y-138035246D01*
X231580007Y-138035246D02*
X231580007Y-137844770D01*
X231580007Y-137844770D02*
X231618103Y-137692389D01*
X231618103Y-137692389D02*
X231656198Y-137616198D01*
X231656198Y-137616198D02*
X231694293Y-137578103D01*
X231694293Y-137578103D02*
X231770484Y-137540008D01*
X232341912Y-137616198D02*
X232380008Y-137578103D01*
X232380008Y-137578103D02*
X232456198Y-137540008D01*
X232456198Y-137540008D02*
X232646674Y-137540008D01*
X232646674Y-137540008D02*
X232722865Y-137578103D01*
X232722865Y-137578103D02*
X232760960Y-137616198D01*
X232760960Y-137616198D02*
X232799055Y-137692389D01*
X232799055Y-137692389D02*
X232799055Y-137768579D01*
X232799055Y-137768579D02*
X232760960Y-137882865D01*
X232760960Y-137882865D02*
X232303817Y-138340008D01*
X232303817Y-138340008D02*
X232799055Y-138340008D01*
X233180008Y-138340008D02*
X233332389Y-138340008D01*
X233332389Y-138340008D02*
X233408579Y-138301913D01*
X233408579Y-138301913D02*
X233446675Y-138263817D01*
X233446675Y-138263817D02*
X233522865Y-138149532D01*
X233522865Y-138149532D02*
X233560960Y-137997151D01*
X233560960Y-137997151D02*
X233560960Y-137692389D01*
X233560960Y-137692389D02*
X233522865Y-137616198D01*
X233522865Y-137616198D02*
X233484770Y-137578103D01*
X233484770Y-137578103D02*
X233408579Y-137540008D01*
X233408579Y-137540008D02*
X233256198Y-137540008D01*
X233256198Y-137540008D02*
X233180008Y-137578103D01*
X233180008Y-137578103D02*
X233141913Y-137616198D01*
X233141913Y-137616198D02*
X233103817Y-137692389D01*
X233103817Y-137692389D02*
X233103817Y-137882865D01*
X233103817Y-137882865D02*
X233141913Y-137959055D01*
X233141913Y-137959055D02*
X233180008Y-137997151D01*
X233180008Y-137997151D02*
X233256198Y-138035246D01*
X233256198Y-138035246D02*
X233408579Y-138035246D01*
X233408579Y-138035246D02*
X233484770Y-137997151D01*
X233484770Y-137997151D02*
X233522865Y-137959055D01*
X233522865Y-137959055D02*
X233560960Y-137882865D01*
D13*
%TO.C,ROT1*%
X211187678Y-162757695D02*
X211787679Y-162757697D01*
X211487678Y-163057692D02*
X211187678Y-162757695D01*
X211787679Y-162757697D02*
X211487678Y-163057692D01*
X212887680Y-161057691D02*
X212887679Y-172757690D01*
X216987669Y-161057691D02*
X212887680Y-161057691D01*
X216987680Y-172757699D02*
X212887679Y-172757690D01*
X218487675Y-166857691D02*
X219487681Y-166857695D01*
X218987678Y-166357685D02*
X218987682Y-167357691D01*
X220987678Y-160957692D02*
X225087679Y-160957691D01*
X225087678Y-165557700D02*
X225087680Y-168157688D01*
X225087678Y-170157692D02*
X225087684Y-172757692D01*
X225087679Y-160957691D02*
X225087674Y-163557692D01*
X225087684Y-172757692D02*
X220987678Y-172757689D01*
X221987677Y-166857688D02*
G75*
G02*
X215987681Y-166857688I-2999998J0D01*
G01*
X215987681Y-166857688D02*
G75*
G02*
X221987677Y-166857688I2999998J0D01*
G01*
D14*
%TO.C,niceView1*%
X231107675Y-123747715D02*
X245107675Y-123747715D01*
X231107675Y-159747715D02*
X231107675Y-123747715D01*
X245107675Y-123747715D02*
X245107675Y-159747715D01*
X245107675Y-159747715D02*
X231107675Y-159747715D01*
%TO.C,MCU1*%
X229217674Y-154487712D02*
X246997677Y-154487709D01*
X229217675Y-121467713D02*
X229217674Y-154487712D01*
X246997675Y-121467713D02*
X229217675Y-121467713D01*
X246997677Y-154487709D02*
X246997675Y-121467713D01*
%TD*%
D15*
%TO.C,MCU1*%
X245727680Y-125277719D03*
X245727676Y-127817711D03*
X245727674Y-130357710D03*
X245727677Y-132897715D03*
X245727681Y-135437712D03*
X245727674Y-137977712D03*
X245727670Y-140517716D03*
X245727676Y-143057719D03*
X245727670Y-145597714D03*
X245727675Y-148137715D03*
X245727678Y-150677711D03*
X245727673Y-153217710D03*
X230487670Y-153217707D03*
X230487674Y-150677715D03*
X230487676Y-148137716D03*
X230487673Y-145597711D03*
X230487669Y-143057714D03*
X230487676Y-140517714D03*
X230487680Y-137977710D03*
X230487674Y-135437707D03*
X230487680Y-132897712D03*
X230487675Y-130357711D03*
X230487672Y-127817715D03*
X230487677Y-125277716D03*
X233027675Y-148137713D03*
X235567675Y-148137712D03*
X238107675Y-148137713D03*
%TD*%
M02*
