%TF.GenerationSoftware,KiCad,Pcbnew,9.0.5*%
%TF.CreationDate,2025-11-08T17:14:02+10:00*%
%TF.ProjectId,badWingsRight,62616457-696e-4677-9352-696768742e6b,v1.0.0*%
%TF.SameCoordinates,Original*%
%TF.FileFunction,Legend,Bot*%
%TF.FilePolarity,Positive*%
%FSLAX46Y46*%
G04 Gerber Fmt 4.6, Leading zero omitted, Abs format (unit mm)*
G04 Created by KiCad (PCBNEW 9.0.5) date 2025-11-08 17:14:02*
%MOMM*%
%LPD*%
G01*
G04 APERTURE LIST*
%ADD10C,0.150000*%
%ADD11C,0.120000*%
%ADD12C,0.100000*%
%ADD13C,0.381000*%
%ADD14C,1.752600*%
G04 APERTURE END LIST*
D10*
X240248065Y-155638191D02*
X240209970Y-155562001D01*
X240209970Y-155562001D02*
X240209970Y-155447715D01*
X240209970Y-155447715D02*
X240248065Y-155333429D01*
X240248065Y-155333429D02*
X240324255Y-155257239D01*
X240324255Y-155257239D02*
X240400446Y-155219144D01*
X240400446Y-155219144D02*
X240552827Y-155181048D01*
X240552827Y-155181048D02*
X240667113Y-155181048D01*
X240667113Y-155181048D02*
X240819494Y-155219144D01*
X240819494Y-155219144D02*
X240895684Y-155257239D01*
X240895684Y-155257239D02*
X240971875Y-155333429D01*
X240971875Y-155333429D02*
X241009970Y-155447715D01*
X241009970Y-155447715D02*
X241009970Y-155523906D01*
X241009970Y-155523906D02*
X240971875Y-155638191D01*
X240971875Y-155638191D02*
X240933779Y-155676287D01*
X240933779Y-155676287D02*
X240667113Y-155676287D01*
X240667113Y-155676287D02*
X240667113Y-155523906D01*
X241009970Y-156019144D02*
X240209970Y-156019144D01*
X240209970Y-156019144D02*
X241009970Y-156476287D01*
X241009970Y-156476287D02*
X240209970Y-156476287D01*
X241009970Y-156857239D02*
X240209970Y-156857239D01*
X240209970Y-156857239D02*
X240209970Y-157047715D01*
X240209970Y-157047715D02*
X240248065Y-157162001D01*
X240248065Y-157162001D02*
X240324255Y-157238191D01*
X240324255Y-157238191D02*
X240400446Y-157276286D01*
X240400446Y-157276286D02*
X240552827Y-157314382D01*
X240552827Y-157314382D02*
X240667113Y-157314382D01*
X240667113Y-157314382D02*
X240819494Y-157276286D01*
X240819494Y-157276286D02*
X240895684Y-157238191D01*
X240895684Y-157238191D02*
X240971875Y-157162001D01*
X240971875Y-157162001D02*
X241009970Y-157047715D01*
X241009970Y-157047715D02*
X241009970Y-156857239D01*
X243473779Y-156114382D02*
X243511875Y-156076286D01*
X243511875Y-156076286D02*
X243549970Y-155962001D01*
X243549970Y-155962001D02*
X243549970Y-155885810D01*
X243549970Y-155885810D02*
X243511875Y-155771524D01*
X243511875Y-155771524D02*
X243435684Y-155695334D01*
X243435684Y-155695334D02*
X243359494Y-155657239D01*
X243359494Y-155657239D02*
X243207113Y-155619143D01*
X243207113Y-155619143D02*
X243092827Y-155619143D01*
X243092827Y-155619143D02*
X242940446Y-155657239D01*
X242940446Y-155657239D02*
X242864255Y-155695334D01*
X242864255Y-155695334D02*
X242788065Y-155771524D01*
X242788065Y-155771524D02*
X242749970Y-155885810D01*
X242749970Y-155885810D02*
X242749970Y-155962001D01*
X242749970Y-155962001D02*
X242788065Y-156076286D01*
X242788065Y-156076286D02*
X242826160Y-156114382D01*
X243511875Y-156419143D02*
X243549970Y-156533429D01*
X243549970Y-156533429D02*
X243549970Y-156723905D01*
X243549970Y-156723905D02*
X243511875Y-156800096D01*
X243511875Y-156800096D02*
X243473779Y-156838191D01*
X243473779Y-156838191D02*
X243397589Y-156876286D01*
X243397589Y-156876286D02*
X243321398Y-156876286D01*
X243321398Y-156876286D02*
X243245208Y-156838191D01*
X243245208Y-156838191D02*
X243207113Y-156800096D01*
X243207113Y-156800096D02*
X243169017Y-156723905D01*
X243169017Y-156723905D02*
X243130922Y-156571524D01*
X243130922Y-156571524D02*
X243092827Y-156495334D01*
X243092827Y-156495334D02*
X243054732Y-156457239D01*
X243054732Y-156457239D02*
X242978541Y-156419143D01*
X242978541Y-156419143D02*
X242902351Y-156419143D01*
X242902351Y-156419143D02*
X242826160Y-156457239D01*
X242826160Y-156457239D02*
X242788065Y-156495334D01*
X242788065Y-156495334D02*
X242749970Y-156571524D01*
X242749970Y-156571524D02*
X242749970Y-156762001D01*
X242749970Y-156762001D02*
X242788065Y-156876286D01*
X237669970Y-155181048D02*
X238469970Y-155447715D01*
X238469970Y-155447715D02*
X237669970Y-155714381D01*
X238393779Y-156438191D02*
X238431875Y-156400095D01*
X238431875Y-156400095D02*
X238469970Y-156285810D01*
X238469970Y-156285810D02*
X238469970Y-156209619D01*
X238469970Y-156209619D02*
X238431875Y-156095333D01*
X238431875Y-156095333D02*
X238355684Y-156019143D01*
X238355684Y-156019143D02*
X238279494Y-155981048D01*
X238279494Y-155981048D02*
X238127113Y-155942952D01*
X238127113Y-155942952D02*
X238012827Y-155942952D01*
X238012827Y-155942952D02*
X237860446Y-155981048D01*
X237860446Y-155981048D02*
X237784255Y-156019143D01*
X237784255Y-156019143D02*
X237708065Y-156095333D01*
X237708065Y-156095333D02*
X237669970Y-156209619D01*
X237669970Y-156209619D02*
X237669970Y-156285810D01*
X237669970Y-156285810D02*
X237708065Y-156400095D01*
X237708065Y-156400095D02*
X237746160Y-156438191D01*
X238393779Y-157238191D02*
X238431875Y-157200095D01*
X238431875Y-157200095D02*
X238469970Y-157085810D01*
X238469970Y-157085810D02*
X238469970Y-157009619D01*
X238469970Y-157009619D02*
X238431875Y-156895333D01*
X238431875Y-156895333D02*
X238355684Y-156819143D01*
X238355684Y-156819143D02*
X238279494Y-156781048D01*
X238279494Y-156781048D02*
X238127113Y-156742952D01*
X238127113Y-156742952D02*
X238012827Y-156742952D01*
X238012827Y-156742952D02*
X237860446Y-156781048D01*
X237860446Y-156781048D02*
X237784255Y-156819143D01*
X237784255Y-156819143D02*
X237708065Y-156895333D01*
X237708065Y-156895333D02*
X237669970Y-157009619D01*
X237669970Y-157009619D02*
X237669970Y-157085810D01*
X237669970Y-157085810D02*
X237708065Y-157200095D01*
X237708065Y-157200095D02*
X237746160Y-157238191D01*
X233351872Y-155276286D02*
X233389967Y-155390572D01*
X233389967Y-155390572D02*
X233389967Y-155581048D01*
X233389967Y-155581048D02*
X233351872Y-155657239D01*
X233351872Y-155657239D02*
X233313776Y-155695334D01*
X233313776Y-155695334D02*
X233237586Y-155733429D01*
X233237586Y-155733429D02*
X233161395Y-155733429D01*
X233161395Y-155733429D02*
X233085205Y-155695334D01*
X233085205Y-155695334D02*
X233047110Y-155657239D01*
X233047110Y-155657239D02*
X233009014Y-155581048D01*
X233009014Y-155581048D02*
X232970919Y-155428667D01*
X232970919Y-155428667D02*
X232932824Y-155352477D01*
X232932824Y-155352477D02*
X232894729Y-155314382D01*
X232894729Y-155314382D02*
X232818538Y-155276286D01*
X232818538Y-155276286D02*
X232742348Y-155276286D01*
X232742348Y-155276286D02*
X232666157Y-155314382D01*
X232666157Y-155314382D02*
X232628062Y-155352477D01*
X232628062Y-155352477D02*
X232589967Y-155428667D01*
X232589967Y-155428667D02*
X232589967Y-155619144D01*
X232589967Y-155619144D02*
X232628062Y-155733429D01*
X233389967Y-156076287D02*
X232589967Y-156076287D01*
X232589967Y-156076287D02*
X232589967Y-156266763D01*
X232589967Y-156266763D02*
X232628062Y-156381049D01*
X232628062Y-156381049D02*
X232704252Y-156457239D01*
X232704252Y-156457239D02*
X232780443Y-156495334D01*
X232780443Y-156495334D02*
X232932824Y-156533430D01*
X232932824Y-156533430D02*
X233047110Y-156533430D01*
X233047110Y-156533430D02*
X233199491Y-156495334D01*
X233199491Y-156495334D02*
X233275681Y-156457239D01*
X233275681Y-156457239D02*
X233351872Y-156381049D01*
X233351872Y-156381049D02*
X233389967Y-156266763D01*
X233389967Y-156266763D02*
X233389967Y-156076287D01*
X233161395Y-156838191D02*
X233161395Y-157219144D01*
X233389967Y-156762001D02*
X232589967Y-157028668D01*
X232589967Y-157028668D02*
X233389967Y-157295334D01*
X235891875Y-155295333D02*
X235929970Y-155409619D01*
X235929970Y-155409619D02*
X235929970Y-155600095D01*
X235929970Y-155600095D02*
X235891875Y-155676286D01*
X235891875Y-155676286D02*
X235853779Y-155714381D01*
X235853779Y-155714381D02*
X235777589Y-155752476D01*
X235777589Y-155752476D02*
X235701398Y-155752476D01*
X235701398Y-155752476D02*
X235625208Y-155714381D01*
X235625208Y-155714381D02*
X235587113Y-155676286D01*
X235587113Y-155676286D02*
X235549017Y-155600095D01*
X235549017Y-155600095D02*
X235510922Y-155447714D01*
X235510922Y-155447714D02*
X235472827Y-155371524D01*
X235472827Y-155371524D02*
X235434732Y-155333429D01*
X235434732Y-155333429D02*
X235358541Y-155295333D01*
X235358541Y-155295333D02*
X235282351Y-155295333D01*
X235282351Y-155295333D02*
X235206160Y-155333429D01*
X235206160Y-155333429D02*
X235168065Y-155371524D01*
X235168065Y-155371524D02*
X235129970Y-155447714D01*
X235129970Y-155447714D02*
X235129970Y-155638191D01*
X235129970Y-155638191D02*
X235168065Y-155752476D01*
X235853779Y-156552477D02*
X235891875Y-156514381D01*
X235891875Y-156514381D02*
X235929970Y-156400096D01*
X235929970Y-156400096D02*
X235929970Y-156323905D01*
X235929970Y-156323905D02*
X235891875Y-156209619D01*
X235891875Y-156209619D02*
X235815684Y-156133429D01*
X235815684Y-156133429D02*
X235739494Y-156095334D01*
X235739494Y-156095334D02*
X235587113Y-156057238D01*
X235587113Y-156057238D02*
X235472827Y-156057238D01*
X235472827Y-156057238D02*
X235320446Y-156095334D01*
X235320446Y-156095334D02*
X235244255Y-156133429D01*
X235244255Y-156133429D02*
X235168065Y-156209619D01*
X235168065Y-156209619D02*
X235129970Y-156323905D01*
X235129970Y-156323905D02*
X235129970Y-156400096D01*
X235129970Y-156400096D02*
X235168065Y-156514381D01*
X235168065Y-156514381D02*
X235206160Y-156552477D01*
X235929970Y-157276286D02*
X235929970Y-156895334D01*
X235929970Y-156895334D02*
X235129970Y-156895334D01*
X244444864Y-124840010D02*
X244368674Y-124840010D01*
X244368674Y-124840010D02*
X244292483Y-124878105D01*
X244292483Y-124878105D02*
X244254388Y-124916200D01*
X244254388Y-124916200D02*
X244216293Y-124992391D01*
X244216293Y-124992391D02*
X244178198Y-125144772D01*
X244178198Y-125144772D02*
X244178198Y-125335248D01*
X244178198Y-125335248D02*
X244216293Y-125487629D01*
X244216293Y-125487629D02*
X244254388Y-125563819D01*
X244254388Y-125563819D02*
X244292483Y-125601915D01*
X244292483Y-125601915D02*
X244368674Y-125640010D01*
X244368674Y-125640010D02*
X244444864Y-125640010D01*
X244444864Y-125640010D02*
X244521055Y-125601915D01*
X244521055Y-125601915D02*
X244559150Y-125563819D01*
X244559150Y-125563819D02*
X244597245Y-125487629D01*
X244597245Y-125487629D02*
X244635341Y-125335248D01*
X244635341Y-125335248D02*
X244635341Y-125144772D01*
X244635341Y-125144772D02*
X244597245Y-124992391D01*
X244597245Y-124992391D02*
X244559150Y-124916200D01*
X244559150Y-124916200D02*
X244521055Y-124878105D01*
X244521055Y-124878105D02*
X244444864Y-124840010D01*
X243682959Y-124840010D02*
X243606769Y-124840010D01*
X243606769Y-124840010D02*
X243530578Y-124878105D01*
X243530578Y-124878105D02*
X243492483Y-124916200D01*
X243492483Y-124916200D02*
X243454388Y-124992391D01*
X243454388Y-124992391D02*
X243416293Y-125144772D01*
X243416293Y-125144772D02*
X243416293Y-125335248D01*
X243416293Y-125335248D02*
X243454388Y-125487629D01*
X243454388Y-125487629D02*
X243492483Y-125563819D01*
X243492483Y-125563819D02*
X243530578Y-125601915D01*
X243530578Y-125601915D02*
X243606769Y-125640010D01*
X243606769Y-125640010D02*
X243682959Y-125640010D01*
X243682959Y-125640010D02*
X243759150Y-125601915D01*
X243759150Y-125601915D02*
X243797245Y-125563819D01*
X243797245Y-125563819D02*
X243835340Y-125487629D01*
X243835340Y-125487629D02*
X243873436Y-125335248D01*
X243873436Y-125335248D02*
X243873436Y-125144772D01*
X243873436Y-125144772D02*
X243835340Y-124992391D01*
X243835340Y-124992391D02*
X243797245Y-124916200D01*
X243797245Y-124916200D02*
X243759150Y-124878105D01*
X243759150Y-124878105D02*
X243682959Y-124840010D01*
X242730578Y-124840010D02*
X242882959Y-124840010D01*
X242882959Y-124840010D02*
X242959150Y-124878105D01*
X242959150Y-124878105D02*
X242997245Y-124916200D01*
X242997245Y-124916200D02*
X243073435Y-125030486D01*
X243073435Y-125030486D02*
X243111531Y-125182867D01*
X243111531Y-125182867D02*
X243111531Y-125487629D01*
X243111531Y-125487629D02*
X243073435Y-125563819D01*
X243073435Y-125563819D02*
X243035340Y-125601915D01*
X243035340Y-125601915D02*
X242959150Y-125640010D01*
X242959150Y-125640010D02*
X242806769Y-125640010D01*
X242806769Y-125640010D02*
X242730578Y-125601915D01*
X242730578Y-125601915D02*
X242692483Y-125563819D01*
X242692483Y-125563819D02*
X242654388Y-125487629D01*
X242654388Y-125487629D02*
X242654388Y-125297153D01*
X242654388Y-125297153D02*
X242692483Y-125220962D01*
X242692483Y-125220962D02*
X242730578Y-125182867D01*
X242730578Y-125182867D02*
X242806769Y-125144772D01*
X242806769Y-125144772D02*
X242959150Y-125144772D01*
X242959150Y-125144772D02*
X243035340Y-125182867D01*
X243035340Y-125182867D02*
X243073435Y-125220962D01*
X243073435Y-125220962D02*
X243111531Y-125297153D01*
X233370488Y-135000010D02*
X233294298Y-135000010D01*
X233294298Y-135000010D02*
X233218107Y-135038105D01*
X233218107Y-135038105D02*
X233180012Y-135076200D01*
X233180012Y-135076200D02*
X233141917Y-135152391D01*
X233141917Y-135152391D02*
X233103822Y-135304772D01*
X233103822Y-135304772D02*
X233103822Y-135495248D01*
X233103822Y-135495248D02*
X233141917Y-135647629D01*
X233141917Y-135647629D02*
X233180012Y-135723819D01*
X233180012Y-135723819D02*
X233218107Y-135761915D01*
X233218107Y-135761915D02*
X233294298Y-135800010D01*
X233294298Y-135800010D02*
X233370488Y-135800010D01*
X233370488Y-135800010D02*
X233446679Y-135761915D01*
X233446679Y-135761915D02*
X233484774Y-135723819D01*
X233484774Y-135723819D02*
X233522869Y-135647629D01*
X233522869Y-135647629D02*
X233560965Y-135495248D01*
X233560965Y-135495248D02*
X233560965Y-135304772D01*
X233560965Y-135304772D02*
X233522869Y-135152391D01*
X233522869Y-135152391D02*
X233484774Y-135076200D01*
X233484774Y-135076200D02*
X233446679Y-135038105D01*
X233446679Y-135038105D02*
X233370488Y-135000010D01*
X232837155Y-135000010D02*
X232341917Y-135000010D01*
X232341917Y-135000010D02*
X232608583Y-135304772D01*
X232608583Y-135304772D02*
X232494298Y-135304772D01*
X232494298Y-135304772D02*
X232418107Y-135342867D01*
X232418107Y-135342867D02*
X232380012Y-135380962D01*
X232380012Y-135380962D02*
X232341917Y-135457153D01*
X232341917Y-135457153D02*
X232341917Y-135647629D01*
X232341917Y-135647629D02*
X232380012Y-135723819D01*
X232380012Y-135723819D02*
X232418107Y-135761915D01*
X232418107Y-135761915D02*
X232494298Y-135800010D01*
X232494298Y-135800010D02*
X232722869Y-135800010D01*
X232722869Y-135800010D02*
X232799060Y-135761915D01*
X232799060Y-135761915D02*
X232837155Y-135723819D01*
X231580012Y-135800010D02*
X232037155Y-135800010D01*
X231808583Y-135800010D02*
X231808583Y-135000010D01*
X231808583Y-135000010D02*
X231884774Y-135114295D01*
X231884774Y-135114295D02*
X231960964Y-135190486D01*
X231960964Y-135190486D02*
X232037155Y-135228581D01*
X244444864Y-135010008D02*
X244368674Y-135010008D01*
X244368674Y-135010008D02*
X244292483Y-135048103D01*
X244292483Y-135048103D02*
X244254388Y-135086198D01*
X244254388Y-135086198D02*
X244216293Y-135162389D01*
X244216293Y-135162389D02*
X244178198Y-135314770D01*
X244178198Y-135314770D02*
X244178198Y-135505246D01*
X244178198Y-135505246D02*
X244216293Y-135657627D01*
X244216293Y-135657627D02*
X244254388Y-135733817D01*
X244254388Y-135733817D02*
X244292483Y-135771913D01*
X244292483Y-135771913D02*
X244368674Y-135810008D01*
X244368674Y-135810008D02*
X244444864Y-135810008D01*
X244444864Y-135810008D02*
X244521055Y-135771913D01*
X244521055Y-135771913D02*
X244559150Y-135733817D01*
X244559150Y-135733817D02*
X244597245Y-135657627D01*
X244597245Y-135657627D02*
X244635341Y-135505246D01*
X244635341Y-135505246D02*
X244635341Y-135314770D01*
X244635341Y-135314770D02*
X244597245Y-135162389D01*
X244597245Y-135162389D02*
X244559150Y-135086198D01*
X244559150Y-135086198D02*
X244521055Y-135048103D01*
X244521055Y-135048103D02*
X244444864Y-135010008D01*
X243416293Y-135810008D02*
X243873436Y-135810008D01*
X243644864Y-135810008D02*
X243644864Y-135010008D01*
X243644864Y-135010008D02*
X243721055Y-135124293D01*
X243721055Y-135124293D02*
X243797245Y-135200484D01*
X243797245Y-135200484D02*
X243873436Y-135238579D01*
X243149626Y-135010008D02*
X242616292Y-135010008D01*
X242616292Y-135010008D02*
X242959150Y-135810008D01*
X233103817Y-148500008D02*
X233560960Y-148500008D01*
X233332388Y-148500008D02*
X233332388Y-147700008D01*
X233332388Y-147700008D02*
X233408579Y-147814293D01*
X233408579Y-147814293D02*
X233484769Y-147890484D01*
X233484769Y-147890484D02*
X233560960Y-147928579D01*
X232341912Y-148500008D02*
X232799055Y-148500008D01*
X232570483Y-148500008D02*
X232570483Y-147700008D01*
X232570483Y-147700008D02*
X232646674Y-147814293D01*
X232646674Y-147814293D02*
X232722864Y-147890484D01*
X232722864Y-147890484D02*
X232799055Y-147928579D01*
X231580007Y-148500008D02*
X232037150Y-148500008D01*
X231808578Y-148500008D02*
X231808578Y-147700008D01*
X231808578Y-147700008D02*
X231884769Y-147814293D01*
X231884769Y-147814293D02*
X231960959Y-147890484D01*
X231960959Y-147890484D02*
X232037150Y-147928579D01*
X244178202Y-129958109D02*
X244254392Y-129920014D01*
X244254392Y-129920014D02*
X244368678Y-129920014D01*
X244368678Y-129920014D02*
X244482964Y-129958109D01*
X244482964Y-129958109D02*
X244559154Y-130034299D01*
X244559154Y-130034299D02*
X244597249Y-130110490D01*
X244597249Y-130110490D02*
X244635345Y-130262871D01*
X244635345Y-130262871D02*
X244635345Y-130377157D01*
X244635345Y-130377157D02*
X244597249Y-130529538D01*
X244597249Y-130529538D02*
X244559154Y-130605728D01*
X244559154Y-130605728D02*
X244482964Y-130681919D01*
X244482964Y-130681919D02*
X244368678Y-130720014D01*
X244368678Y-130720014D02*
X244292487Y-130720014D01*
X244292487Y-130720014D02*
X244178202Y-130681919D01*
X244178202Y-130681919D02*
X244140106Y-130643823D01*
X244140106Y-130643823D02*
X244140106Y-130377157D01*
X244140106Y-130377157D02*
X244292487Y-130377157D01*
X243797249Y-130720014D02*
X243797249Y-129920014D01*
X243797249Y-129920014D02*
X243340106Y-130720014D01*
X243340106Y-130720014D02*
X243340106Y-129920014D01*
X242959154Y-130720014D02*
X242959154Y-129920014D01*
X242959154Y-129920014D02*
X242768678Y-129920014D01*
X242768678Y-129920014D02*
X242654392Y-129958109D01*
X242654392Y-129958109D02*
X242578202Y-130034299D01*
X242578202Y-130034299D02*
X242540107Y-130110490D01*
X242540107Y-130110490D02*
X242502011Y-130262871D01*
X242502011Y-130262871D02*
X242502011Y-130377157D01*
X242502011Y-130377157D02*
X242540107Y-130529538D01*
X242540107Y-130529538D02*
X242578202Y-130605728D01*
X242578202Y-130605728D02*
X242654392Y-130681919D01*
X242654392Y-130681919D02*
X242768678Y-130720014D01*
X242768678Y-130720014D02*
X242959154Y-130720014D01*
X233186340Y-125640008D02*
X233453007Y-125259055D01*
X233643483Y-125640008D02*
X233643483Y-124840008D01*
X233643483Y-124840008D02*
X233338721Y-124840008D01*
X233338721Y-124840008D02*
X233262531Y-124878103D01*
X233262531Y-124878103D02*
X233224436Y-124916198D01*
X233224436Y-124916198D02*
X233186340Y-124992389D01*
X233186340Y-124992389D02*
X233186340Y-125106674D01*
X233186340Y-125106674D02*
X233224436Y-125182865D01*
X233224436Y-125182865D02*
X233262531Y-125220960D01*
X233262531Y-125220960D02*
X233338721Y-125259055D01*
X233338721Y-125259055D02*
X233643483Y-125259055D01*
X232881579Y-125411436D02*
X232500626Y-125411436D01*
X232957769Y-125640008D02*
X232691102Y-124840008D01*
X232691102Y-124840008D02*
X232424436Y-125640008D01*
X232233960Y-124840008D02*
X232043484Y-125640008D01*
X232043484Y-125640008D02*
X231891103Y-125068579D01*
X231891103Y-125068579D02*
X231738722Y-125640008D01*
X231738722Y-125640008D02*
X231548246Y-124840008D01*
X244178198Y-132498103D02*
X244254388Y-132460008D01*
X244254388Y-132460008D02*
X244368674Y-132460008D01*
X244368674Y-132460008D02*
X244482960Y-132498103D01*
X244482960Y-132498103D02*
X244559150Y-132574293D01*
X244559150Y-132574293D02*
X244597245Y-132650484D01*
X244597245Y-132650484D02*
X244635341Y-132802865D01*
X244635341Y-132802865D02*
X244635341Y-132917151D01*
X244635341Y-132917151D02*
X244597245Y-133069532D01*
X244597245Y-133069532D02*
X244559150Y-133145722D01*
X244559150Y-133145722D02*
X244482960Y-133221913D01*
X244482960Y-133221913D02*
X244368674Y-133260008D01*
X244368674Y-133260008D02*
X244292483Y-133260008D01*
X244292483Y-133260008D02*
X244178198Y-133221913D01*
X244178198Y-133221913D02*
X244140102Y-133183817D01*
X244140102Y-133183817D02*
X244140102Y-132917151D01*
X244140102Y-132917151D02*
X244292483Y-132917151D01*
X243797245Y-133260008D02*
X243797245Y-132460008D01*
X243797245Y-132460008D02*
X243340102Y-133260008D01*
X243340102Y-133260008D02*
X243340102Y-132460008D01*
X242959150Y-133260008D02*
X242959150Y-132460008D01*
X242959150Y-132460008D02*
X242768674Y-132460008D01*
X242768674Y-132460008D02*
X242654388Y-132498103D01*
X242654388Y-132498103D02*
X242578198Y-132574293D01*
X242578198Y-132574293D02*
X242540103Y-132650484D01*
X242540103Y-132650484D02*
X242502007Y-132802865D01*
X242502007Y-132802865D02*
X242502007Y-132917151D01*
X242502007Y-132917151D02*
X242540103Y-133069532D01*
X242540103Y-133069532D02*
X242578198Y-133145722D01*
X242578198Y-133145722D02*
X242654388Y-133221913D01*
X242654388Y-133221913D02*
X242768674Y-133260008D01*
X242768674Y-133260008D02*
X242959150Y-133260008D01*
X233103809Y-145960008D02*
X233560952Y-145960008D01*
X233332380Y-145960008D02*
X233332380Y-145160008D01*
X233332380Y-145160008D02*
X233408571Y-145274293D01*
X233408571Y-145274293D02*
X233484761Y-145350484D01*
X233484761Y-145350484D02*
X233560952Y-145388579D01*
X232341904Y-145960008D02*
X232799047Y-145960008D01*
X232570475Y-145960008D02*
X232570475Y-145160008D01*
X232570475Y-145160008D02*
X232646666Y-145274293D01*
X232646666Y-145274293D02*
X232722856Y-145350484D01*
X232722856Y-145350484D02*
X232799047Y-145388579D01*
X232075237Y-145160008D02*
X231579999Y-145160008D01*
X231579999Y-145160008D02*
X231846665Y-145464770D01*
X231846665Y-145464770D02*
X231732380Y-145464770D01*
X231732380Y-145464770D02*
X231656189Y-145502865D01*
X231656189Y-145502865D02*
X231618094Y-145540960D01*
X231618094Y-145540960D02*
X231579999Y-145617151D01*
X231579999Y-145617151D02*
X231579999Y-145807627D01*
X231579999Y-145807627D02*
X231618094Y-145883817D01*
X231618094Y-145883817D02*
X231656189Y-145921913D01*
X231656189Y-145921913D02*
X231732380Y-145960008D01*
X231732380Y-145960008D02*
X231960951Y-145960008D01*
X231960951Y-145960008D02*
X232037142Y-145921913D01*
X232037142Y-145921913D02*
X232075237Y-145883817D01*
X244444866Y-137610009D02*
X244368676Y-137610009D01*
X244368676Y-137610009D02*
X244292485Y-137648104D01*
X244292485Y-137648104D02*
X244254390Y-137686199D01*
X244254390Y-137686199D02*
X244216295Y-137762390D01*
X244216295Y-137762390D02*
X244178200Y-137914771D01*
X244178200Y-137914771D02*
X244178200Y-138105247D01*
X244178200Y-138105247D02*
X244216295Y-138257628D01*
X244216295Y-138257628D02*
X244254390Y-138333818D01*
X244254390Y-138333818D02*
X244292485Y-138371914D01*
X244292485Y-138371914D02*
X244368676Y-138410009D01*
X244368676Y-138410009D02*
X244444866Y-138410009D01*
X244444866Y-138410009D02*
X244521057Y-138371914D01*
X244521057Y-138371914D02*
X244559152Y-138333818D01*
X244559152Y-138333818D02*
X244597247Y-138257628D01*
X244597247Y-138257628D02*
X244635343Y-138105247D01*
X244635343Y-138105247D02*
X244635343Y-137914771D01*
X244635343Y-137914771D02*
X244597247Y-137762390D01*
X244597247Y-137762390D02*
X244559152Y-137686199D01*
X244559152Y-137686199D02*
X244521057Y-137648104D01*
X244521057Y-137648104D02*
X244444866Y-137610009D01*
X243873438Y-137686199D02*
X243835342Y-137648104D01*
X243835342Y-137648104D02*
X243759152Y-137610009D01*
X243759152Y-137610009D02*
X243568676Y-137610009D01*
X243568676Y-137610009D02*
X243492485Y-137648104D01*
X243492485Y-137648104D02*
X243454390Y-137686199D01*
X243454390Y-137686199D02*
X243416295Y-137762390D01*
X243416295Y-137762390D02*
X243416295Y-137838580D01*
X243416295Y-137838580D02*
X243454390Y-137952866D01*
X243454390Y-137952866D02*
X243911533Y-138410009D01*
X243911533Y-138410009D02*
X243416295Y-138410009D01*
X242921056Y-137610009D02*
X242844866Y-137610009D01*
X242844866Y-137610009D02*
X242768675Y-137648104D01*
X242768675Y-137648104D02*
X242730580Y-137686199D01*
X242730580Y-137686199D02*
X242692485Y-137762390D01*
X242692485Y-137762390D02*
X242654390Y-137914771D01*
X242654390Y-137914771D02*
X242654390Y-138105247D01*
X242654390Y-138105247D02*
X242692485Y-138257628D01*
X242692485Y-138257628D02*
X242730580Y-138333818D01*
X242730580Y-138333818D02*
X242768675Y-138371914D01*
X242768675Y-138371914D02*
X242844866Y-138410009D01*
X242844866Y-138410009D02*
X242921056Y-138410009D01*
X242921056Y-138410009D02*
X242997247Y-138371914D01*
X242997247Y-138371914D02*
X243035342Y-138333818D01*
X243035342Y-138333818D02*
X243073437Y-138257628D01*
X243073437Y-138257628D02*
X243111533Y-138105247D01*
X243111533Y-138105247D02*
X243111533Y-137914771D01*
X243111533Y-137914771D02*
X243073437Y-137762390D01*
X243073437Y-137762390D02*
X243035342Y-137686199D01*
X243035342Y-137686199D02*
X242997247Y-137648104D01*
X242997247Y-137648104D02*
X242921056Y-137610009D01*
X232957769Y-130720006D02*
X233224436Y-130339053D01*
X233414912Y-130720006D02*
X233414912Y-129920006D01*
X233414912Y-129920006D02*
X233110150Y-129920006D01*
X233110150Y-129920006D02*
X233033960Y-129958101D01*
X233033960Y-129958101D02*
X232995865Y-129996196D01*
X232995865Y-129996196D02*
X232957769Y-130072387D01*
X232957769Y-130072387D02*
X232957769Y-130186672D01*
X232957769Y-130186672D02*
X232995865Y-130262863D01*
X232995865Y-130262863D02*
X233033960Y-130300958D01*
X233033960Y-130300958D02*
X233110150Y-130339053D01*
X233110150Y-130339053D02*
X233414912Y-130339053D01*
X232653008Y-130681911D02*
X232538722Y-130720006D01*
X232538722Y-130720006D02*
X232348246Y-130720006D01*
X232348246Y-130720006D02*
X232272055Y-130681911D01*
X232272055Y-130681911D02*
X232233960Y-130643815D01*
X232233960Y-130643815D02*
X232195865Y-130567625D01*
X232195865Y-130567625D02*
X232195865Y-130491434D01*
X232195865Y-130491434D02*
X232233960Y-130415244D01*
X232233960Y-130415244D02*
X232272055Y-130377149D01*
X232272055Y-130377149D02*
X232348246Y-130339053D01*
X232348246Y-130339053D02*
X232500627Y-130300958D01*
X232500627Y-130300958D02*
X232576817Y-130262863D01*
X232576817Y-130262863D02*
X232614912Y-130224768D01*
X232614912Y-130224768D02*
X232653008Y-130148577D01*
X232653008Y-130148577D02*
X232653008Y-130072387D01*
X232653008Y-130072387D02*
X232614912Y-129996196D01*
X232614912Y-129996196D02*
X232576817Y-129958101D01*
X232576817Y-129958101D02*
X232500627Y-129920006D01*
X232500627Y-129920006D02*
X232310150Y-129920006D01*
X232310150Y-129920006D02*
X232195865Y-129958101D01*
X231967293Y-129920006D02*
X231510150Y-129920006D01*
X231738722Y-130720006D02*
X231738722Y-129920006D01*
X244178205Y-145960006D02*
X244635348Y-145960006D01*
X244406776Y-145960006D02*
X244406776Y-145160006D01*
X244406776Y-145160006D02*
X244482967Y-145274291D01*
X244482967Y-145274291D02*
X244559157Y-145350482D01*
X244559157Y-145350482D02*
X244635348Y-145388577D01*
X243682966Y-145160006D02*
X243606776Y-145160006D01*
X243606776Y-145160006D02*
X243530585Y-145198101D01*
X243530585Y-145198101D02*
X243492490Y-145236196D01*
X243492490Y-145236196D02*
X243454395Y-145312387D01*
X243454395Y-145312387D02*
X243416300Y-145464768D01*
X243416300Y-145464768D02*
X243416300Y-145655244D01*
X243416300Y-145655244D02*
X243454395Y-145807625D01*
X243454395Y-145807625D02*
X243492490Y-145883815D01*
X243492490Y-145883815D02*
X243530585Y-145921911D01*
X243530585Y-145921911D02*
X243606776Y-145960006D01*
X243606776Y-145960006D02*
X243682966Y-145960006D01*
X243682966Y-145960006D02*
X243759157Y-145921911D01*
X243759157Y-145921911D02*
X243797252Y-145883815D01*
X243797252Y-145883815D02*
X243835347Y-145807625D01*
X243835347Y-145807625D02*
X243873443Y-145655244D01*
X243873443Y-145655244D02*
X243873443Y-145464768D01*
X243873443Y-145464768D02*
X243835347Y-145312387D01*
X243835347Y-145312387D02*
X243797252Y-145236196D01*
X243797252Y-145236196D02*
X243759157Y-145198101D01*
X243759157Y-145198101D02*
X243682966Y-145160006D01*
X242921061Y-145160006D02*
X242844871Y-145160006D01*
X242844871Y-145160006D02*
X242768680Y-145198101D01*
X242768680Y-145198101D02*
X242730585Y-145236196D01*
X242730585Y-145236196D02*
X242692490Y-145312387D01*
X242692490Y-145312387D02*
X242654395Y-145464768D01*
X242654395Y-145464768D02*
X242654395Y-145655244D01*
X242654395Y-145655244D02*
X242692490Y-145807625D01*
X242692490Y-145807625D02*
X242730585Y-145883815D01*
X242730585Y-145883815D02*
X242768680Y-145921911D01*
X242768680Y-145921911D02*
X242844871Y-145960006D01*
X242844871Y-145960006D02*
X242921061Y-145960006D01*
X242921061Y-145960006D02*
X242997252Y-145921911D01*
X242997252Y-145921911D02*
X243035347Y-145883815D01*
X243035347Y-145883815D02*
X243073442Y-145807625D01*
X243073442Y-145807625D02*
X243111538Y-145655244D01*
X243111538Y-145655244D02*
X243111538Y-145464768D01*
X243111538Y-145464768D02*
X243073442Y-145312387D01*
X243073442Y-145312387D02*
X243035347Y-145236196D01*
X243035347Y-145236196D02*
X242997252Y-145198101D01*
X242997252Y-145198101D02*
X242921061Y-145160006D01*
X233637140Y-132460007D02*
X233370473Y-133260007D01*
X233370473Y-133260007D02*
X233103807Y-132460007D01*
X232379997Y-133183816D02*
X232418093Y-133221912D01*
X232418093Y-133221912D02*
X232532378Y-133260007D01*
X232532378Y-133260007D02*
X232608569Y-133260007D01*
X232608569Y-133260007D02*
X232722855Y-133221912D01*
X232722855Y-133221912D02*
X232799045Y-133145721D01*
X232799045Y-133145721D02*
X232837140Y-133069531D01*
X232837140Y-133069531D02*
X232875236Y-132917150D01*
X232875236Y-132917150D02*
X232875236Y-132802864D01*
X232875236Y-132802864D02*
X232837140Y-132650483D01*
X232837140Y-132650483D02*
X232799045Y-132574292D01*
X232799045Y-132574292D02*
X232722855Y-132498102D01*
X232722855Y-132498102D02*
X232608569Y-132460007D01*
X232608569Y-132460007D02*
X232532378Y-132460007D01*
X232532378Y-132460007D02*
X232418093Y-132498102D01*
X232418093Y-132498102D02*
X232379997Y-132536197D01*
X231579997Y-133183816D02*
X231618093Y-133221912D01*
X231618093Y-133221912D02*
X231732378Y-133260007D01*
X231732378Y-133260007D02*
X231808569Y-133260007D01*
X231808569Y-133260007D02*
X231922855Y-133221912D01*
X231922855Y-133221912D02*
X231999045Y-133145721D01*
X231999045Y-133145721D02*
X232037140Y-133069531D01*
X232037140Y-133069531D02*
X232075236Y-132917150D01*
X232075236Y-132917150D02*
X232075236Y-132802864D01*
X232075236Y-132802864D02*
X232037140Y-132650483D01*
X232037140Y-132650483D02*
X231999045Y-132574292D01*
X231999045Y-132574292D02*
X231922855Y-132498102D01*
X231922855Y-132498102D02*
X231808569Y-132460007D01*
X231808569Y-132460007D02*
X231732378Y-132460007D01*
X231732378Y-132460007D02*
X231618093Y-132498102D01*
X231618093Y-132498102D02*
X231579997Y-132536197D01*
X244178198Y-151040008D02*
X244635341Y-151040008D01*
X244406769Y-151040008D02*
X244406769Y-150240008D01*
X244406769Y-150240008D02*
X244482960Y-150354293D01*
X244482960Y-150354293D02*
X244559150Y-150430484D01*
X244559150Y-150430484D02*
X244635341Y-150468579D01*
X243682959Y-150240008D02*
X243606769Y-150240008D01*
X243606769Y-150240008D02*
X243530578Y-150278103D01*
X243530578Y-150278103D02*
X243492483Y-150316198D01*
X243492483Y-150316198D02*
X243454388Y-150392389D01*
X243454388Y-150392389D02*
X243416293Y-150544770D01*
X243416293Y-150544770D02*
X243416293Y-150735246D01*
X243416293Y-150735246D02*
X243454388Y-150887627D01*
X243454388Y-150887627D02*
X243492483Y-150963817D01*
X243492483Y-150963817D02*
X243530578Y-151001913D01*
X243530578Y-151001913D02*
X243606769Y-151040008D01*
X243606769Y-151040008D02*
X243682959Y-151040008D01*
X243682959Y-151040008D02*
X243759150Y-151001913D01*
X243759150Y-151001913D02*
X243797245Y-150963817D01*
X243797245Y-150963817D02*
X243835340Y-150887627D01*
X243835340Y-150887627D02*
X243873436Y-150735246D01*
X243873436Y-150735246D02*
X243873436Y-150544770D01*
X243873436Y-150544770D02*
X243835340Y-150392389D01*
X243835340Y-150392389D02*
X243797245Y-150316198D01*
X243797245Y-150316198D02*
X243759150Y-150278103D01*
X243759150Y-150278103D02*
X243682959Y-150240008D01*
X242730578Y-150506674D02*
X242730578Y-151040008D01*
X242921054Y-150201913D02*
X243111531Y-150773341D01*
X243111531Y-150773341D02*
X242616292Y-150773341D01*
X233370483Y-137540008D02*
X233294293Y-137540008D01*
X233294293Y-137540008D02*
X233218102Y-137578103D01*
X233218102Y-137578103D02*
X233180007Y-137616198D01*
X233180007Y-137616198D02*
X233141912Y-137692389D01*
X233141912Y-137692389D02*
X233103817Y-137844770D01*
X233103817Y-137844770D02*
X233103817Y-138035246D01*
X233103817Y-138035246D02*
X233141912Y-138187627D01*
X233141912Y-138187627D02*
X233180007Y-138263817D01*
X233180007Y-138263817D02*
X233218102Y-138301913D01*
X233218102Y-138301913D02*
X233294293Y-138340008D01*
X233294293Y-138340008D02*
X233370483Y-138340008D01*
X233370483Y-138340008D02*
X233446674Y-138301913D01*
X233446674Y-138301913D02*
X233484769Y-138263817D01*
X233484769Y-138263817D02*
X233522864Y-138187627D01*
X233522864Y-138187627D02*
X233560960Y-138035246D01*
X233560960Y-138035246D02*
X233560960Y-137844770D01*
X233560960Y-137844770D02*
X233522864Y-137692389D01*
X233522864Y-137692389D02*
X233484769Y-137616198D01*
X233484769Y-137616198D02*
X233446674Y-137578103D01*
X233446674Y-137578103D02*
X233370483Y-137540008D01*
X232799055Y-137616198D02*
X232760959Y-137578103D01*
X232760959Y-137578103D02*
X232684769Y-137540008D01*
X232684769Y-137540008D02*
X232494293Y-137540008D01*
X232494293Y-137540008D02*
X232418102Y-137578103D01*
X232418102Y-137578103D02*
X232380007Y-137616198D01*
X232380007Y-137616198D02*
X232341912Y-137692389D01*
X232341912Y-137692389D02*
X232341912Y-137768579D01*
X232341912Y-137768579D02*
X232380007Y-137882865D01*
X232380007Y-137882865D02*
X232837150Y-138340008D01*
X232837150Y-138340008D02*
X232341912Y-138340008D01*
X231960959Y-138340008D02*
X231808578Y-138340008D01*
X231808578Y-138340008D02*
X231732388Y-138301913D01*
X231732388Y-138301913D02*
X231694292Y-138263817D01*
X231694292Y-138263817D02*
X231618102Y-138149532D01*
X231618102Y-138149532D02*
X231580007Y-137997151D01*
X231580007Y-137997151D02*
X231580007Y-137692389D01*
X231580007Y-137692389D02*
X231618102Y-137616198D01*
X231618102Y-137616198D02*
X231656197Y-137578103D01*
X231656197Y-137578103D02*
X231732388Y-137540008D01*
X231732388Y-137540008D02*
X231884769Y-137540008D01*
X231884769Y-137540008D02*
X231960959Y-137578103D01*
X231960959Y-137578103D02*
X231999054Y-137616198D01*
X231999054Y-137616198D02*
X232037150Y-137692389D01*
X232037150Y-137692389D02*
X232037150Y-137882865D01*
X232037150Y-137882865D02*
X231999054Y-137959055D01*
X231999054Y-137959055D02*
X231960959Y-137997151D01*
X231960959Y-137997151D02*
X231884769Y-138035246D01*
X231884769Y-138035246D02*
X231732388Y-138035246D01*
X231732388Y-138035246D02*
X231656197Y-137997151D01*
X231656197Y-137997151D02*
X231618102Y-137959055D01*
X231618102Y-137959055D02*
X231580007Y-137882865D01*
X233262531Y-127418103D02*
X233338721Y-127380008D01*
X233338721Y-127380008D02*
X233453007Y-127380008D01*
X233453007Y-127380008D02*
X233567293Y-127418103D01*
X233567293Y-127418103D02*
X233643483Y-127494293D01*
X233643483Y-127494293D02*
X233681578Y-127570484D01*
X233681578Y-127570484D02*
X233719674Y-127722865D01*
X233719674Y-127722865D02*
X233719674Y-127837151D01*
X233719674Y-127837151D02*
X233681578Y-127989532D01*
X233681578Y-127989532D02*
X233643483Y-128065722D01*
X233643483Y-128065722D02*
X233567293Y-128141913D01*
X233567293Y-128141913D02*
X233453007Y-128180008D01*
X233453007Y-128180008D02*
X233376816Y-128180008D01*
X233376816Y-128180008D02*
X233262531Y-128141913D01*
X233262531Y-128141913D02*
X233224435Y-128103817D01*
X233224435Y-128103817D02*
X233224435Y-127837151D01*
X233224435Y-127837151D02*
X233376816Y-127837151D01*
X232881578Y-128180008D02*
X232881578Y-127380008D01*
X232881578Y-127380008D02*
X232424435Y-128180008D01*
X232424435Y-128180008D02*
X232424435Y-127380008D01*
X232043483Y-128180008D02*
X232043483Y-127380008D01*
X232043483Y-127380008D02*
X231853007Y-127380008D01*
X231853007Y-127380008D02*
X231738721Y-127418103D01*
X231738721Y-127418103D02*
X231662531Y-127494293D01*
X231662531Y-127494293D02*
X231624436Y-127570484D01*
X231624436Y-127570484D02*
X231586340Y-127722865D01*
X231586340Y-127722865D02*
X231586340Y-127837151D01*
X231586340Y-127837151D02*
X231624436Y-127989532D01*
X231624436Y-127989532D02*
X231662531Y-128065722D01*
X231662531Y-128065722D02*
X231738721Y-128141913D01*
X231738721Y-128141913D02*
X231853007Y-128180008D01*
X231853007Y-128180008D02*
X232043483Y-128180008D01*
X233370483Y-140080009D02*
X233294293Y-140080009D01*
X233294293Y-140080009D02*
X233218102Y-140118104D01*
X233218102Y-140118104D02*
X233180007Y-140156199D01*
X233180007Y-140156199D02*
X233141912Y-140232390D01*
X233141912Y-140232390D02*
X233103817Y-140384771D01*
X233103817Y-140384771D02*
X233103817Y-140575247D01*
X233103817Y-140575247D02*
X233141912Y-140727628D01*
X233141912Y-140727628D02*
X233180007Y-140803818D01*
X233180007Y-140803818D02*
X233218102Y-140841914D01*
X233218102Y-140841914D02*
X233294293Y-140880009D01*
X233294293Y-140880009D02*
X233370483Y-140880009D01*
X233370483Y-140880009D02*
X233446674Y-140841914D01*
X233446674Y-140841914D02*
X233484769Y-140803818D01*
X233484769Y-140803818D02*
X233522864Y-140727628D01*
X233522864Y-140727628D02*
X233560960Y-140575247D01*
X233560960Y-140575247D02*
X233560960Y-140384771D01*
X233560960Y-140384771D02*
X233522864Y-140232390D01*
X233522864Y-140232390D02*
X233484769Y-140156199D01*
X233484769Y-140156199D02*
X233446674Y-140118104D01*
X233446674Y-140118104D02*
X233370483Y-140080009D01*
X232608578Y-140080009D02*
X232532388Y-140080009D01*
X232532388Y-140080009D02*
X232456197Y-140118104D01*
X232456197Y-140118104D02*
X232418102Y-140156199D01*
X232418102Y-140156199D02*
X232380007Y-140232390D01*
X232380007Y-140232390D02*
X232341912Y-140384771D01*
X232341912Y-140384771D02*
X232341912Y-140575247D01*
X232341912Y-140575247D02*
X232380007Y-140727628D01*
X232380007Y-140727628D02*
X232418102Y-140803818D01*
X232418102Y-140803818D02*
X232456197Y-140841914D01*
X232456197Y-140841914D02*
X232532388Y-140880009D01*
X232532388Y-140880009D02*
X232608578Y-140880009D01*
X232608578Y-140880009D02*
X232684769Y-140841914D01*
X232684769Y-140841914D02*
X232722864Y-140803818D01*
X232722864Y-140803818D02*
X232760959Y-140727628D01*
X232760959Y-140727628D02*
X232799055Y-140575247D01*
X232799055Y-140575247D02*
X232799055Y-140384771D01*
X232799055Y-140384771D02*
X232760959Y-140232390D01*
X232760959Y-140232390D02*
X232722864Y-140156199D01*
X232722864Y-140156199D02*
X232684769Y-140118104D01*
X232684769Y-140118104D02*
X232608578Y-140080009D01*
X232037150Y-140156199D02*
X231999054Y-140118104D01*
X231999054Y-140118104D02*
X231922864Y-140080009D01*
X231922864Y-140080009D02*
X231732388Y-140080009D01*
X231732388Y-140080009D02*
X231656197Y-140118104D01*
X231656197Y-140118104D02*
X231618102Y-140156199D01*
X231618102Y-140156199D02*
X231580007Y-140232390D01*
X231580007Y-140232390D02*
X231580007Y-140308580D01*
X231580007Y-140308580D02*
X231618102Y-140422866D01*
X231618102Y-140422866D02*
X232075245Y-140880009D01*
X232075245Y-140880009D02*
X231580007Y-140880009D01*
X233103823Y-143420012D02*
X233560966Y-143420012D01*
X233332394Y-143420012D02*
X233332394Y-142620012D01*
X233332394Y-142620012D02*
X233408585Y-142734297D01*
X233408585Y-142734297D02*
X233484775Y-142810488D01*
X233484775Y-142810488D02*
X233560966Y-142848583D01*
X232341918Y-143420012D02*
X232799061Y-143420012D01*
X232570489Y-143420012D02*
X232570489Y-142620012D01*
X232570489Y-142620012D02*
X232646680Y-142734297D01*
X232646680Y-142734297D02*
X232722870Y-142810488D01*
X232722870Y-142810488D02*
X232799061Y-142848583D01*
X231618108Y-142620012D02*
X231999060Y-142620012D01*
X231999060Y-142620012D02*
X232037156Y-143000964D01*
X232037156Y-143000964D02*
X231999060Y-142962869D01*
X231999060Y-142962869D02*
X231922870Y-142924774D01*
X231922870Y-142924774D02*
X231732394Y-142924774D01*
X231732394Y-142924774D02*
X231656203Y-142962869D01*
X231656203Y-142962869D02*
X231618108Y-143000964D01*
X231618108Y-143000964D02*
X231580013Y-143077155D01*
X231580013Y-143077155D02*
X231580013Y-143267631D01*
X231580013Y-143267631D02*
X231618108Y-143343821D01*
X231618108Y-143343821D02*
X231656203Y-143381917D01*
X231656203Y-143381917D02*
X231732394Y-143420012D01*
X231732394Y-143420012D02*
X231922870Y-143420012D01*
X231922870Y-143420012D02*
X231999060Y-143381917D01*
X231999060Y-143381917D02*
X232037156Y-143343821D01*
X244444866Y-127310011D02*
X244368676Y-127310011D01*
X244368676Y-127310011D02*
X244292485Y-127348106D01*
X244292485Y-127348106D02*
X244254390Y-127386201D01*
X244254390Y-127386201D02*
X244216295Y-127462392D01*
X244216295Y-127462392D02*
X244178200Y-127614773D01*
X244178200Y-127614773D02*
X244178200Y-127805249D01*
X244178200Y-127805249D02*
X244216295Y-127957630D01*
X244216295Y-127957630D02*
X244254390Y-128033820D01*
X244254390Y-128033820D02*
X244292485Y-128071916D01*
X244292485Y-128071916D02*
X244368676Y-128110011D01*
X244368676Y-128110011D02*
X244444866Y-128110011D01*
X244444866Y-128110011D02*
X244521057Y-128071916D01*
X244521057Y-128071916D02*
X244559152Y-128033820D01*
X244559152Y-128033820D02*
X244597247Y-127957630D01*
X244597247Y-127957630D02*
X244635343Y-127805249D01*
X244635343Y-127805249D02*
X244635343Y-127614773D01*
X244635343Y-127614773D02*
X244597247Y-127462392D01*
X244597247Y-127462392D02*
X244559152Y-127386201D01*
X244559152Y-127386201D02*
X244521057Y-127348106D01*
X244521057Y-127348106D02*
X244444866Y-127310011D01*
X243682961Y-127310011D02*
X243606771Y-127310011D01*
X243606771Y-127310011D02*
X243530580Y-127348106D01*
X243530580Y-127348106D02*
X243492485Y-127386201D01*
X243492485Y-127386201D02*
X243454390Y-127462392D01*
X243454390Y-127462392D02*
X243416295Y-127614773D01*
X243416295Y-127614773D02*
X243416295Y-127805249D01*
X243416295Y-127805249D02*
X243454390Y-127957630D01*
X243454390Y-127957630D02*
X243492485Y-128033820D01*
X243492485Y-128033820D02*
X243530580Y-128071916D01*
X243530580Y-128071916D02*
X243606771Y-128110011D01*
X243606771Y-128110011D02*
X243682961Y-128110011D01*
X243682961Y-128110011D02*
X243759152Y-128071916D01*
X243759152Y-128071916D02*
X243797247Y-128033820D01*
X243797247Y-128033820D02*
X243835342Y-127957630D01*
X243835342Y-127957630D02*
X243873438Y-127805249D01*
X243873438Y-127805249D02*
X243873438Y-127614773D01*
X243873438Y-127614773D02*
X243835342Y-127462392D01*
X243835342Y-127462392D02*
X243797247Y-127386201D01*
X243797247Y-127386201D02*
X243759152Y-127348106D01*
X243759152Y-127348106D02*
X243682961Y-127310011D01*
X242959152Y-127652868D02*
X243035342Y-127614773D01*
X243035342Y-127614773D02*
X243073437Y-127576677D01*
X243073437Y-127576677D02*
X243111533Y-127500487D01*
X243111533Y-127500487D02*
X243111533Y-127462392D01*
X243111533Y-127462392D02*
X243073437Y-127386201D01*
X243073437Y-127386201D02*
X243035342Y-127348106D01*
X243035342Y-127348106D02*
X242959152Y-127310011D01*
X242959152Y-127310011D02*
X242806771Y-127310011D01*
X242806771Y-127310011D02*
X242730580Y-127348106D01*
X242730580Y-127348106D02*
X242692485Y-127386201D01*
X242692485Y-127386201D02*
X242654390Y-127462392D01*
X242654390Y-127462392D02*
X242654390Y-127500487D01*
X242654390Y-127500487D02*
X242692485Y-127576677D01*
X242692485Y-127576677D02*
X242730580Y-127614773D01*
X242730580Y-127614773D02*
X242806771Y-127652868D01*
X242806771Y-127652868D02*
X242959152Y-127652868D01*
X242959152Y-127652868D02*
X243035342Y-127690963D01*
X243035342Y-127690963D02*
X243073437Y-127729058D01*
X243073437Y-127729058D02*
X243111533Y-127805249D01*
X243111533Y-127805249D02*
X243111533Y-127957630D01*
X243111533Y-127957630D02*
X243073437Y-128033820D01*
X243073437Y-128033820D02*
X243035342Y-128071916D01*
X243035342Y-128071916D02*
X242959152Y-128110011D01*
X242959152Y-128110011D02*
X242806771Y-128110011D01*
X242806771Y-128110011D02*
X242730580Y-128071916D01*
X242730580Y-128071916D02*
X242692485Y-128033820D01*
X242692485Y-128033820D02*
X242654390Y-127957630D01*
X242654390Y-127957630D02*
X242654390Y-127805249D01*
X242654390Y-127805249D02*
X242692485Y-127729058D01*
X242692485Y-127729058D02*
X242730580Y-127690963D01*
X242730580Y-127690963D02*
X242806771Y-127652868D01*
X244444860Y-140110008D02*
X244368670Y-140110008D01*
X244368670Y-140110008D02*
X244292479Y-140148103D01*
X244292479Y-140148103D02*
X244254384Y-140186198D01*
X244254384Y-140186198D02*
X244216289Y-140262389D01*
X244216289Y-140262389D02*
X244178194Y-140414770D01*
X244178194Y-140414770D02*
X244178194Y-140605246D01*
X244178194Y-140605246D02*
X244216289Y-140757627D01*
X244216289Y-140757627D02*
X244254384Y-140833817D01*
X244254384Y-140833817D02*
X244292479Y-140871913D01*
X244292479Y-140871913D02*
X244368670Y-140910008D01*
X244368670Y-140910008D02*
X244444860Y-140910008D01*
X244444860Y-140910008D02*
X244521051Y-140871913D01*
X244521051Y-140871913D02*
X244559146Y-140833817D01*
X244559146Y-140833817D02*
X244597241Y-140757627D01*
X244597241Y-140757627D02*
X244635337Y-140605246D01*
X244635337Y-140605246D02*
X244635337Y-140414770D01*
X244635337Y-140414770D02*
X244597241Y-140262389D01*
X244597241Y-140262389D02*
X244559146Y-140186198D01*
X244559146Y-140186198D02*
X244521051Y-140148103D01*
X244521051Y-140148103D02*
X244444860Y-140110008D01*
X243873432Y-140186198D02*
X243835336Y-140148103D01*
X243835336Y-140148103D02*
X243759146Y-140110008D01*
X243759146Y-140110008D02*
X243568670Y-140110008D01*
X243568670Y-140110008D02*
X243492479Y-140148103D01*
X243492479Y-140148103D02*
X243454384Y-140186198D01*
X243454384Y-140186198D02*
X243416289Y-140262389D01*
X243416289Y-140262389D02*
X243416289Y-140338579D01*
X243416289Y-140338579D02*
X243454384Y-140452865D01*
X243454384Y-140452865D02*
X243911527Y-140910008D01*
X243911527Y-140910008D02*
X243416289Y-140910008D01*
X243111527Y-140186198D02*
X243073431Y-140148103D01*
X243073431Y-140148103D02*
X242997241Y-140110008D01*
X242997241Y-140110008D02*
X242806765Y-140110008D01*
X242806765Y-140110008D02*
X242730574Y-140148103D01*
X242730574Y-140148103D02*
X242692479Y-140186198D01*
X242692479Y-140186198D02*
X242654384Y-140262389D01*
X242654384Y-140262389D02*
X242654384Y-140338579D01*
X242654384Y-140338579D02*
X242692479Y-140452865D01*
X242692479Y-140452865D02*
X243149622Y-140910008D01*
X243149622Y-140910008D02*
X242654384Y-140910008D01*
X244444864Y-142620008D02*
X244368674Y-142620008D01*
X244368674Y-142620008D02*
X244292483Y-142658103D01*
X244292483Y-142658103D02*
X244254388Y-142696198D01*
X244254388Y-142696198D02*
X244216293Y-142772389D01*
X244216293Y-142772389D02*
X244178198Y-142924770D01*
X244178198Y-142924770D02*
X244178198Y-143115246D01*
X244178198Y-143115246D02*
X244216293Y-143267627D01*
X244216293Y-143267627D02*
X244254388Y-143343817D01*
X244254388Y-143343817D02*
X244292483Y-143381913D01*
X244292483Y-143381913D02*
X244368674Y-143420008D01*
X244368674Y-143420008D02*
X244444864Y-143420008D01*
X244444864Y-143420008D02*
X244521055Y-143381913D01*
X244521055Y-143381913D02*
X244559150Y-143343817D01*
X244559150Y-143343817D02*
X244597245Y-143267627D01*
X244597245Y-143267627D02*
X244635341Y-143115246D01*
X244635341Y-143115246D02*
X244635341Y-142924770D01*
X244635341Y-142924770D02*
X244597245Y-142772389D01*
X244597245Y-142772389D02*
X244559150Y-142696198D01*
X244559150Y-142696198D02*
X244521055Y-142658103D01*
X244521055Y-142658103D02*
X244444864Y-142620008D01*
X243873436Y-142696198D02*
X243835340Y-142658103D01*
X243835340Y-142658103D02*
X243759150Y-142620008D01*
X243759150Y-142620008D02*
X243568674Y-142620008D01*
X243568674Y-142620008D02*
X243492483Y-142658103D01*
X243492483Y-142658103D02*
X243454388Y-142696198D01*
X243454388Y-142696198D02*
X243416293Y-142772389D01*
X243416293Y-142772389D02*
X243416293Y-142848579D01*
X243416293Y-142848579D02*
X243454388Y-142962865D01*
X243454388Y-142962865D02*
X243911531Y-143420008D01*
X243911531Y-143420008D02*
X243416293Y-143420008D01*
X242730578Y-142886674D02*
X242730578Y-143420008D01*
X242921054Y-142581913D02*
X243111531Y-143153341D01*
X243111531Y-143153341D02*
X242616292Y-143153341D01*
X233370483Y-150240008D02*
X233294293Y-150240008D01*
X233294293Y-150240008D02*
X233218102Y-150278103D01*
X233218102Y-150278103D02*
X233180007Y-150316198D01*
X233180007Y-150316198D02*
X233141912Y-150392389D01*
X233141912Y-150392389D02*
X233103817Y-150544770D01*
X233103817Y-150544770D02*
X233103817Y-150735246D01*
X233103817Y-150735246D02*
X233141912Y-150887627D01*
X233141912Y-150887627D02*
X233180007Y-150963817D01*
X233180007Y-150963817D02*
X233218102Y-151001913D01*
X233218102Y-151001913D02*
X233294293Y-151040008D01*
X233294293Y-151040008D02*
X233370483Y-151040008D01*
X233370483Y-151040008D02*
X233446674Y-151001913D01*
X233446674Y-151001913D02*
X233484769Y-150963817D01*
X233484769Y-150963817D02*
X233522864Y-150887627D01*
X233522864Y-150887627D02*
X233560960Y-150735246D01*
X233560960Y-150735246D02*
X233560960Y-150544770D01*
X233560960Y-150544770D02*
X233522864Y-150392389D01*
X233522864Y-150392389D02*
X233484769Y-150316198D01*
X233484769Y-150316198D02*
X233446674Y-150278103D01*
X233446674Y-150278103D02*
X233370483Y-150240008D01*
X232341912Y-151040008D02*
X232799055Y-151040008D01*
X232570483Y-151040008D02*
X232570483Y-150240008D01*
X232570483Y-150240008D02*
X232646674Y-150354293D01*
X232646674Y-150354293D02*
X232722864Y-150430484D01*
X232722864Y-150430484D02*
X232799055Y-150468579D01*
X231846673Y-150240008D02*
X231770483Y-150240008D01*
X231770483Y-150240008D02*
X231694292Y-150278103D01*
X231694292Y-150278103D02*
X231656197Y-150316198D01*
X231656197Y-150316198D02*
X231618102Y-150392389D01*
X231618102Y-150392389D02*
X231580007Y-150544770D01*
X231580007Y-150544770D02*
X231580007Y-150735246D01*
X231580007Y-150735246D02*
X231618102Y-150887627D01*
X231618102Y-150887627D02*
X231656197Y-150963817D01*
X231656197Y-150963817D02*
X231694292Y-151001913D01*
X231694292Y-151001913D02*
X231770483Y-151040008D01*
X231770483Y-151040008D02*
X231846673Y-151040008D01*
X231846673Y-151040008D02*
X231922864Y-151001913D01*
X231922864Y-151001913D02*
X231960959Y-150963817D01*
X231960959Y-150963817D02*
X231999054Y-150887627D01*
X231999054Y-150887627D02*
X232037150Y-150735246D01*
X232037150Y-150735246D02*
X232037150Y-150544770D01*
X232037150Y-150544770D02*
X231999054Y-150392389D01*
X231999054Y-150392389D02*
X231960959Y-150316198D01*
X231960959Y-150316198D02*
X231922864Y-150278103D01*
X231922864Y-150278103D02*
X231846673Y-150240008D01*
%TO.C,T1*%
X223377682Y-146747712D02*
X223377692Y-143447713D01*
X223377682Y-146747712D02*
X223377693Y-150047713D01*
X223377687Y-144797712D02*
X223377687Y-148697712D01*
X223377693Y-150047713D02*
X226227683Y-150047713D01*
X226227683Y-150047713D02*
X226227686Y-143447709D01*
X226227686Y-143447709D02*
X223377692Y-143447713D01*
D11*
%TO.C,B1*%
X222337665Y-131972692D02*
X222337665Y-132897699D01*
X222337668Y-128197700D02*
X222337666Y-129122700D01*
X224462669Y-128097697D02*
X223912660Y-128097697D01*
X224462670Y-132997701D02*
X223912661Y-132997701D01*
X226037665Y-128197699D02*
X226037662Y-132897698D01*
D10*
%TO.C,JST1*%
X214917673Y-175097703D02*
X216517672Y-175097694D01*
X214917673Y-179597702D02*
X214917684Y-180297700D01*
X214917675Y-174397696D02*
X214917673Y-175097703D01*
X214917684Y-180297700D02*
X222517673Y-180297702D01*
X216517672Y-175097694D02*
X216517672Y-179597708D01*
X216517672Y-179597708D02*
X214917673Y-179597702D01*
X217767673Y-178347702D02*
X218267680Y-178347702D01*
X218017673Y-178597702D02*
X218017673Y-178097702D01*
X222517673Y-174397702D02*
X214917675Y-174397696D01*
X222517673Y-180297702D02*
X222517673Y-174397702D01*
D11*
%TO.C,LED5*%
X315858598Y-143520622D02*
X316163892Y-141950018D01*
X316163892Y-141950018D02*
X317734496Y-142255313D01*
%TO.C,LED19*%
X225019844Y-206134274D02*
X226532675Y-205613364D01*
X225540753Y-207647102D02*
X225019844Y-206134274D01*
D12*
%TO.C,D10*%
X268707664Y-163197698D02*
X269107667Y-162597697D01*
X269107663Y-163197701D02*
X269107664Y-163697698D01*
X269107664Y-162197698D02*
X269107667Y-162597697D01*
X269107667Y-162597697D02*
X268557660Y-162597701D01*
X269107667Y-162597697D02*
X269507664Y-163197698D01*
X269107667Y-162597697D02*
X269657664Y-162597700D01*
X269507664Y-163197698D02*
X268707664Y-163197698D01*
%TO.C,D19*%
X222640125Y-213352282D02*
X222822989Y-212654755D01*
X222692762Y-212276542D02*
X222822989Y-212654755D01*
X222822989Y-212654755D02*
X222302953Y-212833815D01*
X222822989Y-212654755D02*
X223343025Y-212475689D01*
X222822989Y-212654755D02*
X223396537Y-213091832D01*
X223018330Y-213222061D02*
X223181114Y-213694820D01*
X223396537Y-213091832D02*
X222640125Y-213352282D01*
D11*
%TO.C,LED2*%
X336236999Y-162119298D02*
X336862168Y-160646491D01*
X336862168Y-160646491D02*
X338334979Y-161271666D01*
D12*
%TO.C,D21*%
X227907682Y-166997714D02*
X228307685Y-166397713D01*
X228307681Y-166997717D02*
X228307682Y-167497714D01*
X228307682Y-165997714D02*
X228307685Y-166397713D01*
X228307685Y-166397713D02*
X227757678Y-166397717D01*
X228307685Y-166397713D02*
X228707682Y-166997714D01*
X228307685Y-166397713D02*
X228857682Y-166397716D01*
X228707682Y-166997714D02*
X227907682Y-166997714D01*
D11*
%TO.C,LED16*%
X261828930Y-183856092D02*
X263374412Y-183441984D01*
X262243041Y-185401575D02*
X261828930Y-183856092D01*
D12*
%TO.C,D16*%
X258951538Y-190890531D02*
X259182615Y-190207463D01*
X259079090Y-189821079D02*
X259182615Y-190207463D01*
X259182615Y-190207463D02*
X258651353Y-190349801D01*
X259182615Y-190207463D02*
X259713880Y-190065103D01*
X259182615Y-190207463D02*
X259724275Y-190683472D01*
X259337908Y-190787016D02*
X259467318Y-191269967D01*
X259724275Y-190683472D02*
X258951538Y-190890531D01*
D11*
%TO.C,LED7*%
X293264581Y-151909370D02*
X293376191Y-150313268D01*
X293376191Y-150313268D02*
X294972293Y-150424878D01*
%TO.C,LED10*%
X273307660Y-157147711D02*
X274907660Y-157147712D01*
X273307660Y-158747712D02*
X273307660Y-157147711D01*
D12*
%TO.C,D3*%
X336906370Y-148769580D02*
X337509009Y-148373575D01*
X337274570Y-148925873D02*
X337079205Y-149386126D01*
X337509009Y-148373575D02*
X337002731Y-148158674D01*
X337509009Y-148373575D02*
X337642771Y-149082163D01*
X337509009Y-148373575D02*
X338015285Y-148588474D01*
X337642771Y-149082163D02*
X336906370Y-148769580D01*
X337665301Y-148005368D02*
X337509009Y-148373575D01*
D13*
%TO.C,MCU1*%
X229217674Y-154487712D02*
X246997677Y-154487709D01*
X229217675Y-121467713D02*
X229217674Y-154487712D01*
X246997675Y-121467713D02*
X229217675Y-121467713D01*
X246997677Y-154487709D02*
X246997675Y-121467713D01*
D12*
%TO.C,D1*%
X323621507Y-180066754D02*
X324224146Y-179670749D01*
X323989707Y-180223047D02*
X323794342Y-180683300D01*
X324224146Y-179670749D02*
X323717868Y-179455848D01*
X324224146Y-179670749D02*
X324357908Y-180379337D01*
X324224146Y-179670749D02*
X324730422Y-179885648D01*
X324357908Y-180379337D02*
X323621507Y-180066754D01*
X324380438Y-179302542D02*
X324224146Y-179670749D01*
D11*
%TO.C,LED3*%
X342879453Y-146470714D02*
X343504622Y-144997907D01*
X343504622Y-144997907D02*
X344977433Y-145623082D01*
D12*
%TO.C,D12*%
X268707660Y-129197712D02*
X269107663Y-128597711D01*
X269107659Y-129197715D02*
X269107660Y-129697712D01*
X269107660Y-128197712D02*
X269107663Y-128597711D01*
X269107663Y-128597711D02*
X268557656Y-128597715D01*
X269107663Y-128597711D02*
X269507660Y-129197712D01*
X269107663Y-128597711D02*
X269657660Y-128597714D01*
X269507660Y-129197712D02*
X268707660Y-129197712D01*
D11*
%TO.C,LED14*%
X255307682Y-140147696D02*
X256907682Y-140147697D01*
X255307682Y-141747697D02*
X255307682Y-140147696D01*
%TO.C,LED15*%
X255307656Y-123147706D02*
X256907656Y-123147707D01*
X255307656Y-124747707D02*
X255307656Y-123147706D01*
D12*
%TO.C,D6*%
X313737775Y-130323468D02*
X314244903Y-129810826D01*
X314130418Y-130399804D02*
X314035013Y-130890609D01*
X314244903Y-129810826D02*
X313705002Y-129705878D01*
X314244903Y-129810826D02*
X314523063Y-130476113D01*
X314244903Y-129810826D02*
X314784800Y-129915768D01*
X314321227Y-129418169D02*
X314244903Y-129810826D01*
X314523063Y-130476113D02*
X313737775Y-130323468D01*
%TO.C,D5*%
X310494017Y-147011128D02*
X311001145Y-146498486D01*
X310886660Y-147087464D02*
X310791255Y-147578269D01*
X311001145Y-146498486D02*
X310461244Y-146393538D01*
X311001145Y-146498486D02*
X311279305Y-147163773D01*
X311001145Y-146498486D02*
X311541042Y-146603428D01*
X311077469Y-146105829D02*
X311001145Y-146498486D01*
X311279305Y-147163773D02*
X310494017Y-147011128D01*
D11*
%TO.C,LED20*%
X227610392Y-186628175D02*
X229123220Y-186107266D01*
X229123220Y-186107266D02*
X229644130Y-187620097D01*
D12*
%TO.C,D14*%
X250707678Y-146197696D02*
X251107681Y-145597695D01*
X251107677Y-146197699D02*
X251107678Y-146697696D01*
X251107678Y-145197696D02*
X251107681Y-145597695D01*
X251107681Y-145597695D02*
X250557674Y-145597699D01*
X251107681Y-145597695D02*
X251507678Y-146197696D01*
X251107681Y-145597695D02*
X251657678Y-145597698D01*
X251507678Y-146197696D02*
X250707678Y-146197696D01*
%TO.C,D9*%
X290737095Y-122110471D02*
X291177976Y-121539840D01*
X291136121Y-122138374D02*
X291101243Y-122637156D01*
X291177976Y-121539840D02*
X290629315Y-121501473D01*
X291177976Y-121539840D02*
X291535144Y-122166273D01*
X291177976Y-121539840D02*
X291726636Y-121578207D01*
X291205877Y-121140810D02*
X291177976Y-121539840D01*
X291535144Y-122166273D02*
X290737095Y-122110471D01*
D11*
%TO.C,LED12*%
X273307661Y-123147703D02*
X274907661Y-123147704D01*
X273307661Y-124747704D02*
X273307661Y-123147703D01*
D12*
%TO.C,D7*%
X288365358Y-156027645D02*
X288806239Y-155457014D01*
X288764384Y-156055548D02*
X288729506Y-156554330D01*
X288806239Y-155457014D02*
X288257578Y-155418647D01*
X288806239Y-155457014D02*
X289163407Y-156083447D01*
X288806239Y-155457014D02*
X289354899Y-155495381D01*
X288834140Y-155057984D02*
X288806239Y-155457014D01*
X289163407Y-156083447D02*
X288365358Y-156027645D01*
%TO.C,D17*%
X239743500Y-204261006D02*
X239950596Y-203570290D01*
X239833650Y-203187760D02*
X239950596Y-203570290D01*
X239950596Y-203570290D02*
X239424633Y-203731090D01*
X239950596Y-203570290D02*
X240476572Y-203409479D01*
X239950596Y-203570290D02*
X240508540Y-204027112D01*
X240126022Y-204144065D02*
X240272208Y-204622218D01*
X240508540Y-204027112D02*
X239743500Y-204261006D01*
D11*
%TO.C,LED13*%
X255307669Y-157147702D02*
X256907669Y-157147703D01*
X255307669Y-158747703D02*
X255307669Y-157147702D01*
D12*
%TO.C,D4*%
X307250266Y-163698788D02*
X307757394Y-163186146D01*
X307642909Y-163775124D02*
X307547504Y-164265929D01*
X307757394Y-163186146D02*
X307217493Y-163081198D01*
X307757394Y-163186146D02*
X308035554Y-163851433D01*
X307757394Y-163186146D02*
X308297291Y-163291088D01*
X307833718Y-162793489D02*
X307757394Y-163186146D01*
X308035554Y-163851433D02*
X307250266Y-163698788D01*
%TO.C,D20*%
X221905201Y-183727558D02*
X222602728Y-183910422D01*
X222035422Y-184105763D02*
X221562663Y-184268547D01*
X222165651Y-184483970D02*
X221905201Y-183727558D01*
X222602728Y-183910422D02*
X222165651Y-184483970D01*
X222602728Y-183910422D02*
X222423668Y-183390386D01*
X222602728Y-183910422D02*
X222781794Y-184430458D01*
X222980941Y-183780195D02*
X222602728Y-183910422D01*
%TO.C,D11*%
X268707671Y-146197691D02*
X269107674Y-145597690D01*
X269107670Y-146197694D02*
X269107671Y-146697691D01*
X269107671Y-145197691D02*
X269107674Y-145597690D01*
X269107674Y-145597690D02*
X268557667Y-145597694D01*
X269107674Y-145597690D02*
X269507671Y-146197691D01*
X269107674Y-145597690D02*
X269657671Y-145597693D01*
X269507671Y-146197691D02*
X268707671Y-146197691D01*
%TO.C,D2*%
X330263940Y-164418192D02*
X330866579Y-164022187D01*
X330632140Y-164574485D02*
X330436775Y-165034738D01*
X330866579Y-164022187D02*
X330360301Y-163807286D01*
X330866579Y-164022187D02*
X331000341Y-164730775D01*
X330866579Y-164022187D02*
X331372855Y-164237086D01*
X331000341Y-164730775D02*
X330263940Y-164418192D01*
X331022871Y-163653980D02*
X330866579Y-164022187D01*
D11*
%TO.C,LED8*%
X294450438Y-134950784D02*
X294562048Y-133354682D01*
X294562048Y-133354682D02*
X296158150Y-133466292D01*
%TO.C,LED18*%
X245643404Y-177726616D02*
X247173489Y-177258821D01*
X247173489Y-177258821D02*
X247641279Y-178788910D01*
D12*
%TO.C,D8*%
X289551227Y-139069061D02*
X289992108Y-138498430D01*
X289950253Y-139096964D02*
X289915375Y-139595746D01*
X289992108Y-138498430D02*
X289443447Y-138460063D01*
X289992108Y-138498430D02*
X290349276Y-139124863D01*
X289992108Y-138498430D02*
X290540768Y-138536797D01*
X290020009Y-138099400D02*
X289992108Y-138498430D01*
X290349276Y-139124863D02*
X289551227Y-139069061D01*
D11*
%TO.C,LED9*%
X295636289Y-117992199D02*
X295747899Y-116396097D01*
X295747899Y-116396097D02*
X297344001Y-116507707D01*
%TO.C,LED4*%
X312614833Y-160208270D02*
X312920127Y-158637666D01*
X312920127Y-158637666D02*
X314490731Y-158942961D01*
%TO.C,LED11*%
X273307678Y-140147703D02*
X274907678Y-140147704D01*
X273307678Y-141747704D02*
X273307678Y-140147703D01*
%TO.C,LED1*%
X329594581Y-177767871D02*
X330219750Y-176295064D01*
X330219750Y-176295064D02*
X331692561Y-176920239D01*
%TO.C,LED6*%
X319102353Y-126832951D02*
X319407647Y-125262347D01*
X319407647Y-125262347D02*
X320978251Y-125567642D01*
D12*
%TO.C,D15*%
X250707674Y-129197692D02*
X251107677Y-128597691D01*
X251107673Y-129197695D02*
X251107674Y-129697692D01*
X251107674Y-128197692D02*
X251107677Y-128597691D01*
X251107677Y-128597691D02*
X250557670Y-128597695D01*
X251107677Y-128597691D02*
X251507674Y-129197692D01*
X251107677Y-128597691D02*
X251657674Y-128597694D01*
X251507674Y-129197692D02*
X250707674Y-129197692D01*
D11*
%TO.C,LED17*%
X242373644Y-197130447D02*
X243903733Y-196662657D01*
X242841439Y-198660532D02*
X242373644Y-197130447D01*
D12*
%TO.C,D18*%
X240042929Y-174628671D02*
X240733645Y-174835767D01*
X240159870Y-175011193D02*
X239681717Y-175157379D01*
X240276823Y-175393711D02*
X240042929Y-174628671D01*
X240733645Y-174835767D02*
X240276823Y-175393711D01*
X240733645Y-174835767D02*
X240572845Y-174309804D01*
X240733645Y-174835767D02*
X240894456Y-175361743D01*
X241116175Y-174718821D02*
X240733645Y-174835767D01*
%TO.C,D13*%
X250707675Y-163197700D02*
X251107678Y-162597699D01*
X251107674Y-163197703D02*
X251107675Y-163697700D01*
X251107675Y-162197700D02*
X251107678Y-162597699D01*
X251107678Y-162597699D02*
X250557671Y-162597703D01*
X251107678Y-162597699D02*
X251507675Y-163197700D01*
X251107678Y-162597699D02*
X251657675Y-162597702D01*
X251507675Y-163197700D02*
X250707675Y-163197700D01*
%TD*%
D14*
%TO.C,MCU1*%
X245727680Y-125277719D03*
X245727676Y-127817711D03*
X245727674Y-130357710D03*
X245727677Y-132897715D03*
X245727681Y-135437712D03*
X245727674Y-137977712D03*
X245727670Y-140517716D03*
X245727676Y-143057719D03*
X245727670Y-145597714D03*
X245727675Y-148137715D03*
X245727678Y-150677711D03*
X245727673Y-153217710D03*
X230487670Y-153217707D03*
X230487674Y-150677715D03*
X230487676Y-148137716D03*
X230487673Y-145597711D03*
X230487669Y-143057714D03*
X230487676Y-140517714D03*
X230487680Y-137977710D03*
X230487674Y-135437707D03*
X230487680Y-132897712D03*
X230487675Y-130357711D03*
X230487672Y-127817715D03*
X230487677Y-125277716D03*
X233027675Y-148137713D03*
X235567675Y-148137712D03*
X238107675Y-148137713D03*
%TD*%
M02*
