%TF.GenerationSoftware,KiCad,Pcbnew,9.0.5*%
%TF.CreationDate,2025-11-08T17:14:02+10:00*%
%TF.ProjectId,badWingsRight,62616457-696e-4677-9352-696768742e6b,v1.0.0*%
%TF.SameCoordinates,Original*%
%TF.FileFunction,Paste,Bot*%
%TF.FilePolarity,Positive*%
%FSLAX46Y46*%
G04 Gerber Fmt 4.6, Leading zero omitted, Abs format (unit mm)*
G04 Created by KiCad (PCBNEW 9.0.5) date 2025-11-08 17:14:02*
%MOMM*%
%LPD*%
G01*
G04 APERTURE LIST*
G04 Aperture macros list*
%AMRotRect*
0 Rectangle, with rotation*
0 The origin of the aperture is its center*
0 $1 length*
0 $2 width*
0 $3 Rotation angle, in degrees counterclockwise*
0 Add horizontal line*
21,1,$1,$2,0,0,$3*%
G04 Aperture macros list end*
%ADD10R,0.900000X0.900000*%
%ADD11R,1.250000X0.900000*%
%ADD12RotRect,2.600000X2.600000X176.000000*%
%ADD13R,2.600000X2.600000*%
%ADD14R,1.000000X1.550000*%
%ADD15RotRect,2.600000X2.600000X157.000000*%
%ADD16RotRect,2.600000X2.600000X169.000000*%
%ADD17RotRect,2.600000X2.600000X197.000000*%
%ADD18RotRect,2.600000X2.600000X195.000000*%
%ADD19RotRect,2.600000X2.600000X109.000000*%
%ADD20RotRect,2.600000X2.600000X107.000000*%
%ADD21RotRect,2.600000X2.600000X199.000000*%
%ADD22RotRect,1.400000X1.000000X349.000000*%
%ADD23RotRect,1.400000X1.000000X19.000000*%
%ADD24R,1.200000X0.900000*%
%ADD25RotRect,0.900000X1.200000X289.000000*%
%ADD26RotRect,1.400000X1.000000X337.000000*%
%ADD27RotRect,1.400000X1.000000X15.000000*%
%ADD28RotRect,0.900000X1.200000X285.000000*%
%ADD29RotRect,1.400000X1.000000X356.000000*%
%ADD30R,1.400000X1.000000*%
%ADD31RotRect,0.900000X1.200000X247.000000*%
%ADD32RotRect,0.900000X1.200000X259.000000*%
%ADD33RotRect,1.400000X1.000000X289.000000*%
%ADD34RotRect,0.900000X1.200000X266.000000*%
%ADD35RotRect,0.900000X1.200000X287.000000*%
%ADD36RotRect,0.900000X1.200000X199.000000*%
%ADD37RotRect,1.400000X1.000000X287.000000*%
%ADD38RotRect,1.400000X1.000000X17.000000*%
%ADD39RotRect,0.900000X1.200000X197.000000*%
G04 APERTURE END LIST*
D10*
%TO.C,T1*%
X223627691Y-150447714D03*
X225827683Y-150447712D03*
X223627691Y-143047712D03*
X225827683Y-143047710D03*
D11*
X226802687Y-148997712D03*
X226802687Y-145997712D03*
X226802690Y-144497708D03*
%TD*%
D12*
%TO.C,S7*%
X299558501Y-163326224D03*
X288190103Y-160325893D03*
%TD*%
D13*
%TO.C,S15*%
X262382683Y-135697692D03*
X250832685Y-133497690D03*
%TD*%
D14*
%TO.C,B1*%
X223337665Y-133172699D03*
X223337665Y-127922699D03*
X225037665Y-133172699D03*
X225037665Y-127922699D03*
%TD*%
D15*
%TO.C,S1*%
X331828659Y-190611825D03*
X322056441Y-184073771D03*
%TD*%
%TO.C,S2*%
X338471085Y-174963240D03*
X328698867Y-168425186D03*
%TD*%
D16*
%TO.C,S4*%
X317470487Y-172307079D03*
X306552465Y-167943655D03*
%TD*%
D17*
%TO.C,S17*%
X252808788Y-207063554D03*
X241120250Y-208336577D03*
%TD*%
D12*
%TO.C,S8*%
X300744349Y-146367643D03*
X289375951Y-143367312D03*
%TD*%
D16*
%TO.C,S5*%
X320714237Y-155619414D03*
X309796215Y-151255990D03*
%TD*%
D13*
%TO.C,S13*%
X262382670Y-169697717D03*
X250832672Y-167497715D03*
%TD*%
D18*
%TO.C,S16*%
X271911057Y-194147342D03*
X260185208Y-195011660D03*
%TD*%
D13*
%TO.C,S14*%
X262382687Y-152697691D03*
X250832689Y-150497689D03*
%TD*%
%TO.C,S10*%
X280382656Y-169697701D03*
X268832658Y-167497699D03*
%TD*%
D19*
%TO.C,S20*%
X219560341Y-196882692D03*
X217880171Y-185245704D03*
%TD*%
D12*
%TO.C,S9*%
X301930228Y-129409058D03*
X290561830Y-126408727D03*
%TD*%
D20*
%TO.C,S18*%
X237240399Y-187693931D03*
X235967376Y-176005393D03*
%TD*%
D13*
%TO.C,S11*%
X280382658Y-152697705D03*
X268832660Y-150497703D03*
%TD*%
%TO.C,S12*%
X280382658Y-135697718D03*
X268832660Y-133497716D03*
%TD*%
D16*
%TO.C,S6*%
X323958005Y-138931748D03*
X313039983Y-134568324D03*
%TD*%
D15*
%TO.C,S3*%
X345113514Y-159314644D03*
X335341296Y-152776590D03*
%TD*%
D21*
%TO.C,S19*%
X235795237Y-215697159D03*
X224158249Y-217377329D03*
%TD*%
D22*
%TO.C,LED5*%
X322105608Y-145448019D03*
X322372741Y-144073741D03*
X317071954Y-143043373D03*
X316804821Y-144417651D03*
%TD*%
D23*
%TO.C,LED19*%
X231914523Y-206192776D03*
X231458726Y-204869046D03*
X226352925Y-206627110D03*
X226808722Y-207950840D03*
%TD*%
D24*
%TO.C,D10*%
X269107664Y-161297698D03*
X269107664Y-164597698D03*
%TD*%
D25*
%TO.C,D19*%
X222399751Y-211425575D03*
X223474125Y-214545787D03*
%TD*%
D26*
%TO.C,LED2*%
X341946764Y-165303404D03*
X342493792Y-164014697D03*
X337523070Y-161904748D03*
X336976042Y-163193455D03*
%TD*%
D24*
%TO.C,D21*%
X228307682Y-165097714D03*
X228307682Y-168397714D03*
%TD*%
D27*
%TO.C,LED16*%
X268702736Y-184395402D03*
X268340385Y-183043103D03*
X263124382Y-184440724D03*
X263486733Y-185793023D03*
%TD*%
D28*
%TO.C,D16*%
X258846154Y-188951745D03*
X259700254Y-192139301D03*
%TD*%
D29*
%TO.C,LED7*%
X299699920Y-153061085D03*
X299797576Y-151664493D03*
X294410728Y-151287805D03*
X294313072Y-152684397D03*
%TD*%
D30*
%TO.C,LED10*%
X279807660Y-159447712D03*
X279807660Y-158047712D03*
X274407660Y-158047712D03*
X274407660Y-159447712D03*
%TD*%
D31*
%TO.C,D3*%
X338016959Y-147176914D03*
X336727547Y-150214580D03*
%TD*%
%TO.C,D1*%
X324732096Y-178474088D03*
X323442684Y-181511754D03*
%TD*%
D26*
%TO.C,LED3*%
X348589218Y-149654820D03*
X349136246Y-148366113D03*
X344165524Y-146256164D03*
X343618496Y-147544871D03*
%TD*%
D24*
%TO.C,D12*%
X269107660Y-127297712D03*
X269107660Y-130597712D03*
%TD*%
D30*
%TO.C,LED14*%
X261807682Y-142447697D03*
X261807682Y-141047697D03*
X256407682Y-141047697D03*
X256407682Y-142447697D03*
%TD*%
%TO.C,LED15*%
X261807656Y-125447707D03*
X261807656Y-124047707D03*
X256407656Y-124047707D03*
X256407656Y-125447707D03*
%TD*%
D32*
%TO.C,D6*%
X314492955Y-128534704D03*
X313863285Y-131774074D03*
%TD*%
%TO.C,D5*%
X311249197Y-145222364D03*
X310619527Y-148461734D03*
%TD*%
D33*
%TO.C,LED20*%
X229064718Y-193001945D03*
X230388448Y-192546148D03*
X228630384Y-187440347D03*
X227306654Y-187896144D03*
%TD*%
D24*
%TO.C,D14*%
X251107678Y-144297696D03*
X251107678Y-147597696D03*
%TD*%
D34*
%TO.C,D9*%
X291268658Y-120243002D03*
X291038462Y-123534964D03*
%TD*%
D30*
%TO.C,LED12*%
X279807661Y-125447704D03*
X279807661Y-124047704D03*
X274407661Y-124047704D03*
X274407661Y-125447704D03*
%TD*%
D34*
%TO.C,D7*%
X288896921Y-154160176D03*
X288666725Y-157452138D03*
%TD*%
D35*
%TO.C,D17*%
X239570516Y-202327086D03*
X240535342Y-205482892D03*
%TD*%
D30*
%TO.C,LED13*%
X261807669Y-159447703D03*
X261807669Y-158047703D03*
X256407669Y-158047703D03*
X256407669Y-159447703D03*
%TD*%
D32*
%TO.C,D4*%
X308005446Y-161910024D03*
X307375776Y-165149394D03*
%TD*%
D36*
%TO.C,D20*%
X223831908Y-183487184D03*
X220711696Y-184561558D03*
%TD*%
D24*
%TO.C,D11*%
X269107671Y-144297691D03*
X269107671Y-147597691D03*
%TD*%
D31*
%TO.C,D2*%
X331374529Y-162825526D03*
X330085117Y-165863192D03*
%TD*%
D29*
%TO.C,LED8*%
X300885777Y-136102499D03*
X300983433Y-134705907D03*
X295596585Y-134329219D03*
X295498929Y-135725811D03*
%TD*%
D37*
%TO.C,LED18*%
X246874406Y-184147257D03*
X248213233Y-183737937D03*
X246634426Y-178573891D03*
X245295599Y-178983211D03*
%TD*%
D34*
%TO.C,D8*%
X290082790Y-137201592D03*
X289852594Y-140493554D03*
%TD*%
D29*
%TO.C,LED9*%
X302071628Y-119143914D03*
X302169284Y-117747322D03*
X296782436Y-117370634D03*
X296684780Y-118767226D03*
%TD*%
D22*
%TO.C,LED4*%
X318861843Y-162135667D03*
X319128976Y-160761389D03*
X313828189Y-159731021D03*
X313561056Y-161105299D03*
%TD*%
D30*
%TO.C,LED11*%
X279807678Y-142447704D03*
X279807678Y-141047704D03*
X274407678Y-141047704D03*
X274407678Y-142447704D03*
%TD*%
D26*
%TO.C,LED1*%
X335304346Y-180951977D03*
X335851374Y-179663270D03*
X330880652Y-177553321D03*
X330333624Y-178842028D03*
%TD*%
D22*
%TO.C,LED6*%
X325349363Y-128760348D03*
X325616496Y-127386070D03*
X320315709Y-126355702D03*
X320048576Y-127729980D03*
%TD*%
D24*
%TO.C,D15*%
X251107674Y-127297692D03*
X251107674Y-130597692D03*
%TD*%
D38*
%TO.C,LED17*%
X249262080Y-197429530D03*
X248852760Y-196090703D03*
X243688714Y-197669510D03*
X244098034Y-199008337D03*
%TD*%
D39*
%TO.C,D18*%
X241976849Y-174455687D03*
X238821043Y-175420513D03*
%TD*%
D24*
%TO.C,D13*%
X251107675Y-161297700D03*
X251107675Y-164597700D03*
%TD*%
M02*
