%TF.GenerationSoftware,KiCad,Pcbnew,9.0.5*%
%TF.CreationDate,2025-11-08T17:13:50+10:00*%
%TF.ProjectId,badWingsRight,62616457-696e-4677-9352-696768742e6b,v1.0.0*%
%TF.SameCoordinates,Original*%
%TF.FileFunction,Drillmap*%
%TF.FilePolarity,Positive*%
%FSLAX45Y45*%
G04 Gerber Fmt 4.5, Leading zero omitted, Abs format (unit mm)*
G04 Created by KiCad (PCBNEW 9.0.5) date 2025-11-08 17:13:50*
%MOMM*%
%LPD*%
G01*
G04 APERTURE LIST*
%ADD10C,0.150000*%
%ADD11C,0.120000*%
%ADD12C,0.200000*%
%ADD13C,0.100000*%
%ADD14C,0.109220*%
%ADD15C,0.220000*%
G04 APERTURE END LIST*
D10*
X28168977Y-11924770D02*
X22390766Y-11924771D01*
X28818296Y-11276446D02*
X28320617Y-11855173D01*
X33794319Y-19597752D02*
X35787048Y-14903176D01*
X20821283Y-17855905D02*
G75*
G02*
X20810765Y-17791907I189547J64015D01*
G01*
X28076981Y-19589569D02*
X28765399Y-17558615D01*
X28320617Y-11855173D02*
G75*
G02*
X28168977Y-11924767I-151637J130403D01*
G01*
X30947401Y-11344638D02*
X28983887Y-11207337D01*
X30947401Y-11344638D02*
G75*
G02*
X31122062Y-11477634I-13961J-199522D01*
G01*
X22190767Y-12124772D02*
X22190769Y-15624771D01*
X20821283Y-17855905D02*
X22313553Y-22274073D01*
X33815334Y-13764105D02*
X33499658Y-12547824D01*
X24469318Y-21742895D02*
G75*
G02*
X24446220Y-21752504I-88249J179565D01*
G01*
X20810767Y-16024770D02*
G75*
G02*
X21010767Y-15824766I200004J0D01*
G01*
X31420786Y-12027862D02*
G75*
G02*
X31270337Y-11898053I38164J196322D01*
G01*
X35681091Y-14640929D02*
X33930772Y-13897963D01*
X33344235Y-12401742D02*
G75*
G02*
X33499659Y-12547823I-38155J-196318D01*
G01*
X28765399Y-17558615D02*
G75*
G02*
X28952080Y-17422842I189411J-64205D01*
G01*
X22568149Y-22399176D02*
X24446220Y-21752504D01*
X31729614Y-18938610D02*
X33532072Y-19703708D01*
X24469318Y-21742895D02*
X26141086Y-20921299D01*
X20810767Y-16024770D02*
X20810766Y-17791907D01*
X26163391Y-20908495D02*
G75*
G02*
X26141088Y-20921300I-110531J166695D01*
G01*
X33344235Y-12401742D02*
X31420786Y-12027862D01*
X22568149Y-22399176D02*
G75*
G02*
X22313556Y-22274071I-65109J189106D01*
G01*
X35681091Y-14640929D02*
G75*
G02*
X35787044Y-14903174I-78151J-184101D01*
G01*
X31270333Y-11898055D02*
X31122063Y-11477634D01*
X31729614Y-18938610D02*
G75*
G02*
X31662314Y-18891787I78106J184040D01*
G01*
X28818296Y-11276446D02*
G75*
G02*
X28983887Y-11207337I151644J-130414D01*
G01*
X22190767Y-12124772D02*
G75*
G02*
X22390766Y-11924767I200003J2D01*
G01*
X33794319Y-19597752D02*
G75*
G02*
X33532075Y-19703702I-184099J78152D01*
G01*
X30171095Y-17406168D02*
G75*
G02*
X30319273Y-17468869I2725J-200002D01*
G01*
X26163391Y-20908495D02*
X27998088Y-19692056D01*
X21990766Y-15824771D02*
X21010767Y-15824770D01*
X28076981Y-19589569D02*
G75*
G02*
X27998088Y-19692056I-189402J64189D01*
G01*
X22190769Y-15624771D02*
G75*
G02*
X21990766Y-15824769I-199999J1D01*
G01*
X33930772Y-13897963D02*
G75*
G02*
X33815333Y-13764105I78128J184083D01*
G01*
X30319274Y-17468868D02*
X31662315Y-18891786D01*
X28952080Y-17422837D02*
X30171095Y-17406168D01*
D11*
X32165147Y-14306764D02*
X32105995Y-14611067D01*
X31752609Y-14542375D01*
X31811761Y-14238072D01*
X32165147Y-14306764D01*
X23134029Y-20728947D02*
X22793642Y-20846152D01*
X22692716Y-20553042D01*
X23033103Y-20435837D01*
X23134029Y-20728947D01*
X34199746Y-16288062D02*
X34078619Y-16573418D01*
X33747238Y-16432753D01*
X33868365Y-16147397D01*
X34199746Y-16288062D01*
X26805339Y-18544937D02*
X26457607Y-18638112D01*
X26377373Y-18338676D01*
X26725105Y-18245501D01*
X26805339Y-18544937D01*
X29895906Y-15075379D02*
X29874281Y-15384622D01*
X29515159Y-15359510D01*
X29536783Y-15050266D01*
X29895906Y-15075379D01*
X27890766Y-15719772D02*
X27890766Y-16029770D01*
X27530766Y-16029770D01*
X27530766Y-15719772D01*
X27890766Y-15719772D01*
X34863991Y-14723203D02*
X34742864Y-15008559D01*
X34411483Y-14867895D01*
X34532610Y-14582539D01*
X34863991Y-14723203D01*
X26090768Y-14019771D02*
X26090768Y-14329769D01*
X25730768Y-14329769D01*
X25730768Y-14019770D01*
X26090768Y-14019771D01*
X26090765Y-12319772D02*
X26090765Y-12629770D01*
X25730766Y-12629770D01*
X25730766Y-12319771D01*
X26090765Y-12319772D01*
X23089913Y-19141845D02*
X22796803Y-19242771D01*
X22679597Y-18902384D01*
X22972707Y-18801458D01*
X23089913Y-19141845D01*
X27890766Y-12319771D02*
X27890766Y-12629770D01*
X27530766Y-12629769D01*
X27530766Y-12319771D01*
X27890766Y-12319771D01*
X26090767Y-15719771D02*
X26090767Y-16029770D01*
X25730767Y-16029769D01*
X25730767Y-15719771D01*
X26090767Y-15719771D01*
X30014492Y-13379520D02*
X29992867Y-13688764D01*
X29633744Y-13663651D01*
X29655369Y-13354408D01*
X30014492Y-13379520D01*
X24876295Y-18262875D02*
X24579842Y-18353510D01*
X24474588Y-18009240D01*
X24771041Y-17918605D01*
X24876295Y-18262875D01*
X30133077Y-11683662D02*
X30111452Y-11992905D01*
X29752329Y-11967793D01*
X29773954Y-11658549D01*
X30133077Y-11683662D01*
X31840770Y-15975529D02*
X31781619Y-16279832D01*
X31428233Y-16211139D01*
X31487384Y-15906837D01*
X31840770Y-15975529D01*
X27890768Y-14019771D02*
X27890768Y-14329770D01*
X27530768Y-14329769D01*
X27530768Y-14019771D01*
X27890768Y-14019771D01*
X33535504Y-17852919D02*
X33414377Y-18138275D01*
X33082996Y-17997611D01*
X33204123Y-17712255D01*
X33535504Y-17852919D01*
X32489522Y-12637997D02*
X32430371Y-12942300D01*
X32076985Y-12873608D01*
X32136136Y-12569305D01*
X32489522Y-12637997D01*
X24864992Y-19850552D02*
X24520723Y-19955806D01*
X24430087Y-19659352D01*
X24774357Y-19554098D01*
X24864992Y-19850552D01*
D12*
D13*
X22366803Y-21078723D02*
X22396803Y-21108723D01*
X22396803Y-21078723D02*
X22366803Y-21108723D01*
X22417027Y-18475547D02*
X22447027Y-18505547D01*
X22447027Y-18475547D02*
X22417027Y-18505547D01*
X22495677Y-20838688D02*
X22525677Y-20868688D01*
X22525677Y-20838688D02*
X22495677Y-20868688D01*
X22657063Y-18604419D02*
X22687063Y-18634419D01*
X22687063Y-18604419D02*
X22657063Y-18634419D01*
X22745768Y-14709770D02*
X22775768Y-14739770D01*
X22775768Y-14709770D02*
X22745768Y-14739770D01*
X22815767Y-16359770D02*
X22845767Y-16389770D01*
X22845767Y-16359770D02*
X22815767Y-16389770D01*
X22950074Y-19455386D02*
X22980074Y-19485386D01*
X22980074Y-19455386D02*
X22950074Y-19485386D01*
X23082447Y-19409807D02*
X23112447Y-19439807D01*
X23112447Y-19409807D02*
X23082447Y-19439807D01*
X23301064Y-20413306D02*
X23331064Y-20443306D01*
X23331064Y-20413306D02*
X23301064Y-20443306D01*
X23346643Y-20545677D02*
X23376643Y-20575677D01*
X23376643Y-20545677D02*
X23346643Y-20575677D01*
X24028497Y-21543025D02*
X24058497Y-21573025D01*
X24058497Y-21543025D02*
X24028497Y-21573025D01*
X24085497Y-20173852D02*
X24115497Y-20203852D01*
X24115497Y-20173852D02*
X24085497Y-20203852D01*
X24222669Y-19938461D02*
X24252669Y-19968461D01*
X24252669Y-19938461D02*
X24222669Y-19968461D01*
X24226542Y-17574015D02*
X24256542Y-17604015D01*
X24256542Y-17574015D02*
X24226542Y-17604015D01*
X24461932Y-17711187D02*
X24491932Y-17741187D01*
X24491932Y-17711187D02*
X24461932Y-17741187D01*
X24725067Y-18571861D02*
X24755067Y-18601861D01*
X24755067Y-18571861D02*
X24725067Y-18601861D01*
X24858949Y-18530929D02*
X24888949Y-18560929D01*
X24888949Y-18530929D02*
X24858949Y-18560929D01*
X25042412Y-19541444D02*
X25072412Y-19571444D01*
X25072412Y-19541444D02*
X25042412Y-19571444D01*
X25083343Y-19675326D02*
X25113343Y-19705326D01*
X25113343Y-19675326D02*
X25083343Y-19705326D01*
X25245766Y-16114771D02*
X25275766Y-16144771D01*
X25275766Y-16114771D02*
X25245766Y-16144771D01*
X25245766Y-12714772D02*
X25275766Y-12744772D01*
X25275766Y-12714772D02*
X25245766Y-12744772D01*
X25245768Y-14414771D02*
X25275768Y-14444771D01*
X25275768Y-14414771D02*
X25245768Y-14444771D01*
X25445766Y-14229770D02*
X25475766Y-14259770D01*
X25475766Y-14229770D02*
X25445766Y-14259770D01*
X25445767Y-12529771D02*
X25475767Y-12559771D01*
X25475767Y-12529771D02*
X25445767Y-12559771D01*
X25445768Y-15929769D02*
X25475768Y-15959769D01*
X25475768Y-15929769D02*
X25445768Y-15959769D01*
X25729975Y-20695864D02*
X25759975Y-20725864D01*
X25759975Y-20695864D02*
X25729975Y-20725864D01*
X26014504Y-18841352D02*
X26044504Y-18871352D01*
X26044504Y-18841352D02*
X26014504Y-18871352D01*
X26159808Y-18610891D02*
X26189808Y-18640891D01*
X26189808Y-18610891D02*
X26159808Y-18640891D01*
X26345765Y-12389771D02*
X26375765Y-12419771D01*
X26375765Y-12389771D02*
X26345765Y-12419771D01*
X26345767Y-12529770D02*
X26375767Y-12559770D01*
X26375767Y-12529770D02*
X26345767Y-12559770D01*
X26345767Y-14089770D02*
X26375767Y-14119770D01*
X26375767Y-14089770D02*
X26345767Y-14119770D01*
X26345768Y-15789770D02*
X26375768Y-15819770D01*
X26375768Y-15789770D02*
X26345768Y-15819770D01*
X26992906Y-18242724D02*
X27022906Y-18272724D01*
X27022906Y-18242724D02*
X26992906Y-18272724D01*
X27029142Y-18377953D02*
X27059142Y-18407953D01*
X27059142Y-18377953D02*
X27029142Y-18407953D01*
X27045767Y-16114771D02*
X27075767Y-16144771D01*
X27075767Y-16114771D02*
X27045767Y-16144771D01*
X27045767Y-12714769D02*
X27075767Y-12744769D01*
X27075767Y-12714769D02*
X27045767Y-12744769D01*
X27045767Y-14414770D02*
X27075767Y-14444770D01*
X27075767Y-14414770D02*
X27045767Y-14444770D01*
X27245764Y-15929770D02*
X27275764Y-15959770D01*
X27275764Y-15929770D02*
X27245764Y-15959770D01*
X27245766Y-14229771D02*
X27275766Y-14259771D01*
X27275766Y-14229771D02*
X27245766Y-14259771D01*
X27245767Y-12529771D02*
X27275767Y-12559771D01*
X27275767Y-12529771D02*
X27245767Y-12559771D01*
X28145765Y-14089769D02*
X28175765Y-14119769D01*
X28175765Y-14089769D02*
X28145765Y-14119769D01*
X28145767Y-12389770D02*
X28175767Y-12419770D01*
X28175767Y-12389770D02*
X28145767Y-12419770D01*
X28145767Y-15789770D02*
X28175767Y-15819770D01*
X28175767Y-15789770D02*
X28145767Y-15819770D01*
X28145768Y-12529770D02*
X28175768Y-12559770D01*
X28175768Y-12529770D02*
X28145768Y-12559770D01*
X28836257Y-16380723D02*
X28866257Y-16410723D01*
X28866257Y-16380723D02*
X28836257Y-16410723D01*
X29024327Y-15411482D02*
X29054327Y-15441482D01*
X29054327Y-15411482D02*
X29024327Y-15441482D01*
X29142914Y-13715624D02*
X29172914Y-13745624D01*
X29172914Y-13715624D02*
X29142914Y-13745624D01*
X29236745Y-15240883D02*
X29266745Y-15270883D01*
X29266745Y-15240883D02*
X29236745Y-15270883D01*
X29261499Y-12019764D02*
X29291499Y-12049764D01*
X29291499Y-12019764D02*
X29261499Y-12049764D01*
X29355331Y-13545025D02*
X29385331Y-13575025D01*
X29385331Y-13545025D02*
X29355331Y-13575025D01*
X29473916Y-11849166D02*
X29503916Y-11879166D01*
X29503916Y-11849166D02*
X29473916Y-11879166D01*
X30144319Y-15164007D02*
X30174319Y-15194007D01*
X30174319Y-15164007D02*
X30144319Y-15194007D01*
X30262905Y-13468147D02*
X30292905Y-13498147D01*
X30292905Y-13468147D02*
X30262905Y-13498147D01*
X30371725Y-11911946D02*
X30401725Y-11941946D01*
X30401725Y-11911946D02*
X30371725Y-11941946D01*
X30381491Y-11772289D02*
X30411491Y-11802289D01*
X30411491Y-11772289D02*
X30381491Y-11802289D01*
X30628002Y-17143722D02*
X30658002Y-17173722D01*
X30658002Y-17143722D02*
X30628002Y-17173722D01*
X30932789Y-16204624D02*
X30962789Y-16234624D01*
X30962789Y-16204624D02*
X30932789Y-16234624D01*
X31164413Y-16061182D02*
X31194413Y-16091182D01*
X31194413Y-16061182D02*
X31164413Y-16091182D01*
X31257164Y-14535859D02*
X31287164Y-14565859D01*
X31287164Y-14535859D02*
X31257164Y-14565859D01*
X31488788Y-14392418D02*
X31518788Y-14422418D01*
X31518788Y-14392418D02*
X31488788Y-14422418D01*
X31581539Y-12867093D02*
X31611539Y-12897093D01*
X31611539Y-12867093D02*
X31581539Y-12897093D01*
X31813164Y-12723652D02*
X31843164Y-12753652D01*
X31843164Y-12723652D02*
X31813164Y-12753652D01*
X32074593Y-16095485D02*
X32104593Y-16125485D01*
X32104593Y-16095485D02*
X32074593Y-16125485D01*
X32398968Y-14426719D02*
X32428968Y-14456719D01*
X32428968Y-14426719D02*
X32398968Y-14456719D01*
X32596285Y-17891019D02*
X32626285Y-17921019D01*
X32626285Y-17891019D02*
X32596285Y-17921019D01*
X32696629Y-12895382D02*
X32726629Y-12925382D01*
X32726629Y-12895382D02*
X32696629Y-12925382D01*
X32723341Y-12757954D02*
X32753341Y-12787954D01*
X32753341Y-12757954D02*
X32723341Y-12787954D01*
X32852672Y-17798870D02*
X32882672Y-17828870D01*
X32882672Y-17798870D02*
X32852672Y-17828870D01*
X33260528Y-16326160D02*
X33290528Y-16356160D01*
X33290528Y-16326160D02*
X33260528Y-16356160D01*
X33516917Y-16234013D02*
X33546917Y-16264013D01*
X33546917Y-16234013D02*
X33516917Y-16264013D01*
X33735829Y-18021659D02*
X33765829Y-18051659D01*
X33765829Y-18021659D02*
X33735829Y-18051659D01*
X33924772Y-14761302D02*
X33954772Y-14791302D01*
X33954772Y-14761302D02*
X33924772Y-14791302D01*
X34181160Y-14669155D02*
X34211160Y-14699155D01*
X34211160Y-14669155D02*
X34181160Y-14699155D01*
X34400072Y-16456801D02*
X34430072Y-16486801D01*
X34430072Y-16456801D02*
X34400072Y-16486801D01*
X35009613Y-15020815D02*
X35039613Y-15050815D01*
X35039613Y-15020815D02*
X35009613Y-15050815D01*
X21085766Y-17734770D02*
G75*
G02*
X21045766Y-17734770I-20000J0D01*
G01*
X21045766Y-17734770D02*
G75*
G02*
X21085766Y-17734770I20000J0D01*
G01*
X21134094Y-17618097D02*
G75*
G02*
X21094094Y-17618097I-20000J0D01*
G01*
X21094094Y-17618097D02*
G75*
G02*
X21134094Y-17618097I20000J0D01*
G01*
X21134094Y-17851443D02*
G75*
G02*
X21094094Y-17851443I-20000J0D01*
G01*
X21094094Y-17851443D02*
G75*
G02*
X21134094Y-17851443I20000J0D01*
G01*
X21250766Y-17569770D02*
G75*
G02*
X21210766Y-17569770I-20000J0D01*
G01*
X21210766Y-17569770D02*
G75*
G02*
X21250766Y-17569770I20000J0D01*
G01*
X21250766Y-17899770D02*
G75*
G02*
X21210766Y-17899770I-20000J0D01*
G01*
X21210766Y-17899770D02*
G75*
G02*
X21250766Y-17899770I20000J0D01*
G01*
X21367439Y-17618097D02*
G75*
G02*
X21327439Y-17618097I-20000J0D01*
G01*
X21327439Y-17618097D02*
G75*
G02*
X21367439Y-17618097I20000J0D01*
G01*
X21367439Y-17851443D02*
G75*
G02*
X21327439Y-17851443I-20000J0D01*
G01*
X21327439Y-17851443D02*
G75*
G02*
X21367439Y-17851443I20000J0D01*
G01*
X21415766Y-17734770D02*
G75*
G02*
X21375766Y-17734770I-20000J0D01*
G01*
X21375766Y-17734770D02*
G75*
G02*
X21415766Y-17734770I20000J0D01*
G01*
X22399767Y-12304769D02*
G75*
G02*
X22359767Y-12304769I-20000J0D01*
G01*
X22359767Y-12304769D02*
G75*
G02*
X22399767Y-12304769I20000J0D01*
G01*
X22448094Y-12188097D02*
G75*
G02*
X22408094Y-12188097I-20000J0D01*
G01*
X22408094Y-12188097D02*
G75*
G02*
X22448094Y-12188097I20000J0D01*
G01*
X22448094Y-12421442D02*
G75*
G02*
X22408094Y-12421442I-20000J0D01*
G01*
X22408094Y-12421442D02*
G75*
G02*
X22448094Y-12421442I20000J0D01*
G01*
X22564767Y-12139769D02*
G75*
G02*
X22524767Y-12139769I-20000J0D01*
G01*
X22524767Y-12139769D02*
G75*
G02*
X22564767Y-12139769I20000J0D01*
G01*
X22564767Y-12469769D02*
G75*
G02*
X22524767Y-12469769I-20000J0D01*
G01*
X22524767Y-12469769D02*
G75*
G02*
X22564767Y-12469769I20000J0D01*
G01*
X22681440Y-12188097D02*
G75*
G02*
X22641440Y-12188097I-20000J0D01*
G01*
X22641440Y-12188097D02*
G75*
G02*
X22681440Y-12188097I20000J0D01*
G01*
X22681440Y-12421442D02*
G75*
G02*
X22641440Y-12421442I-20000J0D01*
G01*
X22641440Y-12421442D02*
G75*
G02*
X22681440Y-12421442I20000J0D01*
G01*
X22729767Y-12304769D02*
G75*
G02*
X22689767Y-12304769I-20000J0D01*
G01*
X22689767Y-12304769D02*
G75*
G02*
X22729767Y-12304769I20000J0D01*
G01*
X22885768Y-17360771D02*
G75*
G02*
X22845768Y-17360771I-20000J0D01*
G01*
X22845768Y-17360771D02*
G75*
G02*
X22885768Y-17360771I20000J0D01*
G01*
X22934095Y-17244098D02*
G75*
G02*
X22894095Y-17244098I-20000J0D01*
G01*
X22894095Y-17244098D02*
G75*
G02*
X22934095Y-17244098I20000J0D01*
G01*
X22934095Y-17477443D02*
G75*
G02*
X22894095Y-17477443I-20000J0D01*
G01*
X22894095Y-17477443D02*
G75*
G02*
X22934095Y-17477443I20000J0D01*
G01*
X23050768Y-17195771D02*
G75*
G02*
X23010768Y-17195771I-20000J0D01*
G01*
X23010768Y-17195771D02*
G75*
G02*
X23050768Y-17195771I20000J0D01*
G01*
X23050768Y-17525771D02*
G75*
G02*
X23010768Y-17525771I-20000J0D01*
G01*
X23010768Y-17525771D02*
G75*
G02*
X23050768Y-17525771I20000J0D01*
G01*
X23167440Y-17244098D02*
G75*
G02*
X23127440Y-17244098I-20000J0D01*
G01*
X23127440Y-17244098D02*
G75*
G02*
X23167440Y-17244098I20000J0D01*
G01*
X23167440Y-17477443D02*
G75*
G02*
X23127440Y-17477443I-20000J0D01*
G01*
X23127440Y-17477443D02*
G75*
G02*
X23167440Y-17477443I20000J0D01*
G01*
X23215768Y-17360771D02*
G75*
G02*
X23175768Y-17360771I-20000J0D01*
G01*
X23175768Y-17360771D02*
G75*
G02*
X23215768Y-17360771I20000J0D01*
G01*
X23499797Y-19748987D02*
G75*
G02*
X23459797Y-19748987I-20000J0D01*
G01*
X23459797Y-19748987D02*
G75*
G02*
X23499797Y-19748987I20000J0D01*
G01*
X23509705Y-19623091D02*
G75*
G02*
X23469705Y-19623091I-20000J0D01*
G01*
X23469705Y-19623091D02*
G75*
G02*
X23509705Y-19623091I20000J0D01*
G01*
X23581813Y-19845015D02*
G75*
G02*
X23541813Y-19845015I-20000J0D01*
G01*
X23541813Y-19845015D02*
G75*
G02*
X23581813Y-19845015I20000J0D01*
G01*
X23605733Y-19541075D02*
G75*
G02*
X23565733Y-19541075I-20000J0D01*
G01*
X23565733Y-19541075D02*
G75*
G02*
X23605733Y-19541075I20000J0D01*
G01*
X23707709Y-19854923D02*
G75*
G02*
X23667709Y-19854923I-20000J0D01*
G01*
X23667709Y-19854923D02*
G75*
G02*
X23707709Y-19854923I20000J0D01*
G01*
X23731630Y-19550983D02*
G75*
G02*
X23691630Y-19550983I-20000J0D01*
G01*
X23691630Y-19550983D02*
G75*
G02*
X23731630Y-19550983I20000J0D01*
G01*
X23803737Y-19772908D02*
G75*
G02*
X23763737Y-19772908I-20000J0D01*
G01*
X23763737Y-19772908D02*
G75*
G02*
X23803737Y-19772908I20000J0D01*
G01*
X23813645Y-19647011D02*
G75*
G02*
X23773645Y-19647011I-20000J0D01*
G01*
X23773645Y-19647011D02*
G75*
G02*
X23813645Y-19647011I20000J0D01*
G01*
X24415765Y-16714771D02*
G75*
G02*
X24375765Y-16714771I-20000J0D01*
G01*
X24375765Y-16714771D02*
G75*
G02*
X24415765Y-16714771I20000J0D01*
G01*
X24464093Y-16598098D02*
G75*
G02*
X24424093Y-16598098I-20000J0D01*
G01*
X24424093Y-16598098D02*
G75*
G02*
X24464093Y-16598098I20000J0D01*
G01*
X24464093Y-16831444D02*
G75*
G02*
X24424093Y-16831444I-20000J0D01*
G01*
X24424093Y-16831444D02*
G75*
G02*
X24464093Y-16831444I20000J0D01*
G01*
X24580765Y-16549771D02*
G75*
G02*
X24540765Y-16549771I-20000J0D01*
G01*
X24540765Y-16549771D02*
G75*
G02*
X24580765Y-16549771I20000J0D01*
G01*
X24580765Y-16879771D02*
G75*
G02*
X24540765Y-16879771I-20000J0D01*
G01*
X24540765Y-16879771D02*
G75*
G02*
X24580765Y-16879771I20000J0D01*
G01*
X24697438Y-16598098D02*
G75*
G02*
X24657438Y-16598098I-20000J0D01*
G01*
X24657438Y-16598098D02*
G75*
G02*
X24697438Y-16598098I20000J0D01*
G01*
X24697438Y-16831444D02*
G75*
G02*
X24657438Y-16831444I-20000J0D01*
G01*
X24657438Y-16831444D02*
G75*
G02*
X24697438Y-16831444I20000J0D01*
G01*
X24745765Y-16714771D02*
G75*
G02*
X24705765Y-16714771I-20000J0D01*
G01*
X24705765Y-16714771D02*
G75*
G02*
X24745765Y-16714771I20000J0D01*
G01*
X26665767Y-13824770D02*
G75*
G02*
X26625767Y-13824770I-20000J0D01*
G01*
X26625767Y-13824770D02*
G75*
G02*
X26665767Y-13824770I20000J0D01*
G01*
X26714095Y-13708098D02*
G75*
G02*
X26674095Y-13708098I-20000J0D01*
G01*
X26674095Y-13708098D02*
G75*
G02*
X26714095Y-13708098I20000J0D01*
G01*
X26714095Y-13941443D02*
G75*
G02*
X26674095Y-13941443I-20000J0D01*
G01*
X26674095Y-13941443D02*
G75*
G02*
X26714095Y-13941443I20000J0D01*
G01*
X26830767Y-13659770D02*
G75*
G02*
X26790767Y-13659770I-20000J0D01*
G01*
X26790767Y-13659770D02*
G75*
G02*
X26830767Y-13659770I20000J0D01*
G01*
X26830767Y-13989770D02*
G75*
G02*
X26790767Y-13989770I-20000J0D01*
G01*
X26790767Y-13989770D02*
G75*
G02*
X26830767Y-13989770I20000J0D01*
G01*
X26947440Y-13708098D02*
G75*
G02*
X26907440Y-13708098I-20000J0D01*
G01*
X26907440Y-13708098D02*
G75*
G02*
X26947440Y-13708098I20000J0D01*
G01*
X26947440Y-13941443D02*
G75*
G02*
X26907440Y-13941443I-20000J0D01*
G01*
X26907440Y-13941443D02*
G75*
G02*
X26947440Y-13941443I20000J0D01*
G01*
X26995767Y-13824770D02*
G75*
G02*
X26955767Y-13824770I-20000J0D01*
G01*
X26955767Y-13824770D02*
G75*
G02*
X26995767Y-13824770I20000J0D01*
G01*
X29083922Y-16866707D02*
G75*
G02*
X29043922Y-16866707I-20000J0D01*
G01*
X29043922Y-16866707D02*
G75*
G02*
X29083922Y-16866707I20000J0D01*
G01*
X29123993Y-16986466D02*
G75*
G02*
X29083993Y-16986466I-20000J0D01*
G01*
X29083993Y-16986466D02*
G75*
G02*
X29123993Y-16986466I20000J0D01*
G01*
X29140270Y-16753689D02*
G75*
G02*
X29100270Y-16753689I-20000J0D01*
G01*
X29100270Y-16753689D02*
G75*
G02*
X29140270Y-16753689I20000J0D01*
G01*
X29237010Y-17042815D02*
G75*
G02*
X29197010Y-17042815I-20000J0D01*
G01*
X29197010Y-17042815D02*
G75*
G02*
X29237010Y-17042815I20000J0D01*
G01*
X29260030Y-16713618D02*
G75*
G02*
X29220030Y-16713618I-20000J0D01*
G01*
X29220030Y-16713618D02*
G75*
G02*
X29260030Y-16713618I20000J0D01*
G01*
X29356770Y-17002744D02*
G75*
G02*
X29316770Y-17002744I-20000J0D01*
G01*
X29316770Y-17002744D02*
G75*
G02*
X29356770Y-17002744I20000J0D01*
G01*
X29373047Y-16769967D02*
G75*
G02*
X29333047Y-16769967I-20000J0D01*
G01*
X29333047Y-16769967D02*
G75*
G02*
X29373047Y-16769967I20000J0D01*
G01*
X29413118Y-16889726D02*
G75*
G02*
X29373118Y-16889726I-20000J0D01*
G01*
X29373118Y-16889726D02*
G75*
G02*
X29413118Y-16889726I20000J0D01*
G01*
X30601742Y-13223710D02*
G75*
G02*
X30561742Y-13223710I-20000J0D01*
G01*
X30561742Y-13223710D02*
G75*
G02*
X30601742Y-13223710I20000J0D01*
G01*
X30641813Y-13343470D02*
G75*
G02*
X30601813Y-13343470I-20000J0D01*
G01*
X30601813Y-13343470D02*
G75*
G02*
X30641813Y-13343470I20000J0D01*
G01*
X30658090Y-13110693D02*
G75*
G02*
X30618090Y-13110693I-20000J0D01*
G01*
X30618090Y-13110693D02*
G75*
G02*
X30658090Y-13110693I20000J0D01*
G01*
X30754830Y-13399818D02*
G75*
G02*
X30714830Y-13399818I-20000J0D01*
G01*
X30714830Y-13399818D02*
G75*
G02*
X30754830Y-13399818I20000J0D01*
G01*
X30777850Y-13070622D02*
G75*
G02*
X30737850Y-13070622I-20000J0D01*
G01*
X30737850Y-13070622D02*
G75*
G02*
X30777850Y-13070622I20000J0D01*
G01*
X30874590Y-13359747D02*
G75*
G02*
X30834590Y-13359747I-20000J0D01*
G01*
X30834590Y-13359747D02*
G75*
G02*
X30874590Y-13359747I20000J0D01*
G01*
X30890867Y-13126971D02*
G75*
G02*
X30850867Y-13126971I-20000J0D01*
G01*
X30850867Y-13126971D02*
G75*
G02*
X30890867Y-13126971I20000J0D01*
G01*
X30930938Y-13246730D02*
G75*
G02*
X30890938Y-13246730I-20000J0D01*
G01*
X30890938Y-13246730D02*
G75*
G02*
X30930938Y-13246730I20000J0D01*
G01*
X31534700Y-18036598D02*
G75*
G02*
X31494700Y-18036598I-20000J0D01*
G01*
X31494700Y-18036598D02*
G75*
G02*
X31534700Y-18036598I20000J0D01*
G01*
X31546804Y-18162302D02*
G75*
G02*
X31506804Y-18162302I-20000J0D01*
G01*
X31506804Y-18162302D02*
G75*
G02*
X31546804Y-18162302I20000J0D01*
G01*
X31615028Y-17939153D02*
G75*
G02*
X31575028Y-17939153I-20000J0D01*
G01*
X31575028Y-17939153D02*
G75*
G02*
X31615028Y-17939153I20000J0D01*
G01*
X31644249Y-18242630D02*
G75*
G02*
X31604249Y-18242630I-20000J0D01*
G01*
X31604249Y-18242630D02*
G75*
G02*
X31644249Y-18242630I20000J0D01*
G01*
X31740732Y-17927049D02*
G75*
G02*
X31700732Y-17927049I-20000J0D01*
G01*
X31700732Y-17927049D02*
G75*
G02*
X31740732Y-17927049I20000J0D01*
G01*
X31769953Y-18230526D02*
G75*
G02*
X31729953Y-18230526I-20000J0D01*
G01*
X31729953Y-18230526D02*
G75*
G02*
X31769953Y-18230526I20000J0D01*
G01*
X31838177Y-18007376D02*
G75*
G02*
X31798177Y-18007376I-20000J0D01*
G01*
X31798177Y-18007376D02*
G75*
G02*
X31838177Y-18007376I20000J0D01*
G01*
X31850281Y-18133081D02*
G75*
G02*
X31810281Y-18133081I-20000J0D01*
G01*
X31810281Y-18133081D02*
G75*
G02*
X31850281Y-18133081I20000J0D01*
G01*
X33177320Y-14202966D02*
G75*
G02*
X33137320Y-14202966I-20000J0D01*
G01*
X33137320Y-14202966D02*
G75*
G02*
X33177320Y-14202966I20000J0D01*
G01*
X33189424Y-14328670D02*
G75*
G02*
X33149424Y-14328670I-20000J0D01*
G01*
X33149424Y-14328670D02*
G75*
G02*
X33189424Y-14328670I20000J0D01*
G01*
X33257647Y-14105521D02*
G75*
G02*
X33217647Y-14105521I-20000J0D01*
G01*
X33217647Y-14105521D02*
G75*
G02*
X33257647Y-14105521I20000J0D01*
G01*
X33286869Y-14408998D02*
G75*
G02*
X33246869Y-14408998I-20000J0D01*
G01*
X33246869Y-14408998D02*
G75*
G02*
X33286869Y-14408998I20000J0D01*
G01*
X33383351Y-14093417D02*
G75*
G02*
X33343351Y-14093417I-20000J0D01*
G01*
X33343351Y-14093417D02*
G75*
G02*
X33383351Y-14093417I20000J0D01*
G01*
X33412573Y-14396894D02*
G75*
G02*
X33372573Y-14396894I-20000J0D01*
G01*
X33372573Y-14396894D02*
G75*
G02*
X33412573Y-14396894I20000J0D01*
G01*
X33480796Y-14173745D02*
G75*
G02*
X33440796Y-14173745I-20000J0D01*
G01*
X33440796Y-14173745D02*
G75*
G02*
X33480796Y-14173745I20000J0D01*
G01*
X33492900Y-14299449D02*
G75*
G02*
X33452900Y-14299449I-20000J0D01*
G01*
X33452900Y-14299449D02*
G75*
G02*
X33492900Y-14299449I20000J0D01*
G01*
X21626767Y-17797270D02*
X21626767Y-17872270D01*
X21589267Y-17834770D02*
X21664267Y-17834770D01*
X21626767Y-17597270D02*
X21626767Y-17672270D01*
X21589267Y-17634770D02*
X21664267Y-17634770D01*
X21184124Y-16471125D02*
X21184124Y-16400413D01*
X21113412Y-16400413D01*
X21113412Y-16471125D01*
X21184124Y-16471125D01*
X21184124Y-16721125D02*
X21184124Y-16650413D01*
X21113412Y-16650413D01*
X21113412Y-16721125D01*
X21184124Y-16721125D01*
X21184124Y-16971125D02*
X21184124Y-16900414D01*
X21113412Y-16900414D01*
X21113412Y-16971125D01*
X21184124Y-16971125D01*
X22634123Y-16971125D02*
X22634123Y-16900414D01*
X22563412Y-16900414D01*
X22563412Y-16971125D01*
X22634123Y-16971125D01*
X22634124Y-16471124D02*
X22634124Y-16400413D01*
X22563412Y-16400413D01*
X22563412Y-16471124D01*
X22634124Y-16471124D01*
X23338123Y-15880127D02*
X23338123Y-15809415D01*
X23267412Y-15809415D01*
X23267412Y-15880127D01*
X23338123Y-15880127D01*
X23592123Y-15880127D02*
X23592123Y-15809416D01*
X23521412Y-15809416D01*
X23521412Y-15880127D01*
X23592123Y-15880127D01*
X23846123Y-15880127D02*
X23846123Y-15809416D01*
X23775412Y-15809416D01*
X23775412Y-15880127D01*
X23846123Y-15880127D01*
X24100123Y-15880127D02*
X24100123Y-15809415D01*
X24029412Y-15809415D01*
X24029412Y-15880127D01*
X24100123Y-15880127D01*
X24354123Y-15880127D02*
X24354123Y-15809416D01*
X24283411Y-15809416D01*
X24283411Y-15880127D01*
X24354123Y-15880127D01*
D14*
X23048767Y-14360381D02*
X23103377Y-14305771D01*
X23048767Y-14251161D01*
X22994157Y-14305771D01*
X23048767Y-14360381D01*
X23048767Y-15376381D02*
X23103377Y-15321771D01*
X23048767Y-15267161D01*
X22994157Y-15321771D01*
X23048767Y-15376381D01*
X23048767Y-12836381D02*
X23103377Y-12781771D01*
X23048767Y-12727161D01*
X22994157Y-12781771D01*
X23048767Y-12836381D01*
X23048767Y-14614381D02*
X23103377Y-14559771D01*
X23048767Y-14505161D01*
X22994157Y-14559771D01*
X23048767Y-14614381D01*
X23048767Y-13598381D02*
X23103377Y-13543771D01*
X23048767Y-13489161D01*
X22994157Y-13543771D01*
X23048767Y-13598381D01*
X23048767Y-15122381D02*
X23103377Y-15067771D01*
X23048767Y-15013161D01*
X22994157Y-15067771D01*
X23048767Y-15122381D01*
X23048767Y-13090381D02*
X23103377Y-13035771D01*
X23048767Y-12981161D01*
X22994157Y-13035771D01*
X23048767Y-13090381D01*
X23048768Y-14106381D02*
X23103378Y-14051771D01*
X23048768Y-13997161D01*
X22994158Y-14051771D01*
X23048768Y-14106381D01*
X23048768Y-14868382D02*
X23103378Y-14813772D01*
X23048768Y-14759162D01*
X22994158Y-14813772D01*
X23048768Y-14868382D01*
X23048768Y-12582382D02*
X23103378Y-12527772D01*
X23048768Y-12473162D01*
X22994158Y-12527772D01*
X23048768Y-12582382D01*
X23048768Y-13344381D02*
X23103378Y-13289771D01*
X23048768Y-13235161D01*
X22994158Y-13289771D01*
X23048768Y-13344381D01*
X23048768Y-13852381D02*
X23103378Y-13797771D01*
X23048768Y-13743161D01*
X22994158Y-13797771D01*
X23048768Y-13852381D01*
X23302767Y-14868381D02*
X23357377Y-14813771D01*
X23302767Y-14759161D01*
X23248157Y-14813771D01*
X23302767Y-14868381D01*
X23556767Y-14868381D02*
X23611377Y-14813771D01*
X23556767Y-14759161D01*
X23502157Y-14813771D01*
X23556767Y-14868381D01*
X23810767Y-14868381D02*
X23865377Y-14813771D01*
X23810767Y-14759161D01*
X23756157Y-14813771D01*
X23810767Y-14868381D01*
X24572767Y-14106382D02*
X24627377Y-14051772D01*
X24572767Y-13997162D01*
X24518157Y-14051772D01*
X24572767Y-14106382D01*
X24572767Y-14614381D02*
X24627377Y-14559771D01*
X24572767Y-14505161D01*
X24518157Y-14559771D01*
X24572767Y-14614381D01*
X24572767Y-15376381D02*
X24627377Y-15321771D01*
X24572767Y-15267161D01*
X24518157Y-15321771D01*
X24572767Y-15376381D01*
X24572767Y-13090381D02*
X24627377Y-13035771D01*
X24572767Y-12981161D01*
X24518157Y-13035771D01*
X24572767Y-13090381D01*
X24572767Y-13852381D02*
X24627377Y-13797771D01*
X24572767Y-13743161D01*
X24518157Y-13797771D01*
X24572767Y-13852381D01*
X24572767Y-14868381D02*
X24627377Y-14813771D01*
X24572767Y-14759161D01*
X24518157Y-14813771D01*
X24572767Y-14868381D01*
X24572768Y-12836381D02*
X24627378Y-12781771D01*
X24572768Y-12727161D01*
X24518158Y-12781771D01*
X24572768Y-12836381D01*
X24572768Y-14360382D02*
X24627378Y-14305772D01*
X24572768Y-14251162D01*
X24518158Y-14305772D01*
X24572768Y-14360382D01*
X24572768Y-13344381D02*
X24627378Y-13289771D01*
X24572768Y-13235161D01*
X24518158Y-13289771D01*
X24572768Y-13344381D01*
X24572768Y-15122381D02*
X24627378Y-15067771D01*
X24572768Y-15013161D01*
X24518158Y-15067771D01*
X24572768Y-15122381D01*
X24572768Y-12582382D02*
X24627378Y-12527772D01*
X24572768Y-12473162D01*
X24518158Y-12527772D01*
X24572768Y-12582382D01*
X24572768Y-13598381D02*
X24627378Y-13543771D01*
X24572768Y-13489161D01*
X24518158Y-13543771D01*
X24572768Y-13598381D01*
D10*
X21823768Y-17170770D02*
X21973768Y-17320770D01*
X21973768Y-17170770D02*
X21823768Y-17320770D01*
X21973768Y-17245770D02*
G75*
G02*
X21823768Y-17245770I-75000J0D01*
G01*
X21823768Y-17245770D02*
G75*
G02*
X21973768Y-17245770I75000J0D01*
G01*
D13*
X21833768Y-17320770D02*
X21963768Y-17320770D01*
X21963768Y-17170770D02*
G75*
G02*
X21963768Y-17320770I0J-75000D01*
G01*
X21963768Y-17170770D02*
X21833768Y-17170770D01*
X21833768Y-17170770D02*
G75*
G03*
X21833768Y-17320770I0J-75000D01*
G01*
D10*
X21823768Y-16050769D02*
X21973768Y-16200769D01*
X21973768Y-16050769D02*
X21823768Y-16200769D01*
X21973768Y-16125769D02*
G75*
G02*
X21823768Y-16125769I-75000J0D01*
G01*
X21823768Y-16125769D02*
G75*
G02*
X21973768Y-16125769I75000J0D01*
G01*
D13*
X21833768Y-16200769D02*
X21963768Y-16200769D01*
X21963768Y-16050769D02*
G75*
G02*
X21963768Y-16200769I0J-75000D01*
G01*
X21963768Y-16050769D02*
X21833768Y-16050769D01*
X21833768Y-16050769D02*
G75*
G03*
X21833768Y-16200769I0J-75000D01*
G01*
D15*
X21120766Y-17624770D02*
X21340766Y-17844770D01*
X21340766Y-17624770D02*
X21120766Y-17844770D01*
X21230766Y-17624770D02*
X21230766Y-17844770D01*
X21120766Y-17734770D02*
X21340766Y-17734770D01*
X22434767Y-12194769D02*
X22654767Y-12414769D01*
X22654767Y-12194769D02*
X22434767Y-12414769D01*
X22544767Y-12194769D02*
X22544767Y-12414769D01*
X22434767Y-12304769D02*
X22654767Y-12304769D01*
X22920768Y-17250771D02*
X23140768Y-17470771D01*
X23140768Y-17250771D02*
X22920768Y-17470771D01*
X23030768Y-17250771D02*
X23030768Y-17470771D01*
X22920768Y-17360771D02*
X23140768Y-17360771D01*
X23526721Y-19587999D02*
X23746721Y-19807999D01*
X23746721Y-19587999D02*
X23526721Y-19807999D01*
X23636721Y-19587999D02*
X23636721Y-19807999D01*
X23526721Y-19697999D02*
X23746721Y-19697999D01*
X24450765Y-16604771D02*
X24670765Y-16824771D01*
X24670765Y-16604771D02*
X24450765Y-16824771D01*
X24560765Y-16604771D02*
X24560765Y-16824771D01*
X24450765Y-16714771D02*
X24670765Y-16714771D01*
X26700767Y-13714770D02*
X26920767Y-13934770D01*
X26920767Y-13714770D02*
X26700767Y-13934770D01*
X26810767Y-13714770D02*
X26810767Y-13934770D01*
X26700767Y-13824770D02*
X26920767Y-13824770D01*
X29118520Y-16768216D02*
X29338520Y-16988216D01*
X29338520Y-16768216D02*
X29118520Y-16988216D01*
X29228520Y-16768216D02*
X29228520Y-16988216D01*
X29118520Y-16878216D02*
X29338520Y-16878216D01*
X30636340Y-13125220D02*
X30856340Y-13345220D01*
X30856340Y-13125220D02*
X30636340Y-13345220D01*
X30746340Y-13125220D02*
X30746340Y-13345220D01*
X30636340Y-13235220D02*
X30856340Y-13235220D01*
X31562491Y-17974839D02*
X31782491Y-18194839D01*
X31782491Y-17974839D02*
X31562491Y-18194839D01*
X31672491Y-17974839D02*
X31672491Y-18194839D01*
X31562491Y-18084839D02*
X31782491Y-18084839D01*
X33205110Y-14141207D02*
X33425110Y-14361207D01*
X33425110Y-14141207D02*
X33205110Y-14361207D01*
X33315110Y-14141207D02*
X33315110Y-14361207D01*
X33205110Y-14251207D02*
X33425110Y-14251207D01*
D12*
X21064043Y-22729055D02*
X21064043Y-22529055D01*
X21064043Y-22529055D02*
X21111662Y-22529055D01*
X21111662Y-22529055D02*
X21140234Y-22538578D01*
X21140234Y-22538578D02*
X21159281Y-22557626D01*
X21159281Y-22557626D02*
X21168805Y-22576674D01*
X21168805Y-22576674D02*
X21178329Y-22614769D01*
X21178329Y-22614769D02*
X21178329Y-22643340D01*
X21178329Y-22643340D02*
X21168805Y-22681435D01*
X21168805Y-22681435D02*
X21159281Y-22700483D01*
X21159281Y-22700483D02*
X21140234Y-22719531D01*
X21140234Y-22719531D02*
X21111662Y-22729055D01*
X21111662Y-22729055D02*
X21064043Y-22729055D01*
X21264043Y-22729055D02*
X21264043Y-22595721D01*
X21264043Y-22633816D02*
X21273567Y-22614769D01*
X21273567Y-22614769D02*
X21283091Y-22605245D01*
X21283091Y-22605245D02*
X21302138Y-22595721D01*
X21302138Y-22595721D02*
X21321186Y-22595721D01*
X21387853Y-22729055D02*
X21387853Y-22595721D01*
X21387853Y-22529055D02*
X21378329Y-22538578D01*
X21378329Y-22538578D02*
X21387853Y-22548102D01*
X21387853Y-22548102D02*
X21397376Y-22538578D01*
X21397376Y-22538578D02*
X21387853Y-22529055D01*
X21387853Y-22529055D02*
X21387853Y-22548102D01*
X21511662Y-22729055D02*
X21492615Y-22719531D01*
X21492615Y-22719531D02*
X21483091Y-22700483D01*
X21483091Y-22700483D02*
X21483091Y-22529055D01*
X21616424Y-22729055D02*
X21597376Y-22719531D01*
X21597376Y-22719531D02*
X21587853Y-22700483D01*
X21587853Y-22700483D02*
X21587853Y-22529055D01*
X21844996Y-22729055D02*
X21844996Y-22529055D01*
X21844996Y-22529055D02*
X21911662Y-22671912D01*
X21911662Y-22671912D02*
X21978329Y-22529055D01*
X21978329Y-22529055D02*
X21978329Y-22729055D01*
X22159281Y-22729055D02*
X22159281Y-22624293D01*
X22159281Y-22624293D02*
X22149757Y-22605245D01*
X22149757Y-22605245D02*
X22130710Y-22595721D01*
X22130710Y-22595721D02*
X22092615Y-22595721D01*
X22092615Y-22595721D02*
X22073567Y-22605245D01*
X22159281Y-22719531D02*
X22140234Y-22729055D01*
X22140234Y-22729055D02*
X22092615Y-22729055D01*
X22092615Y-22729055D02*
X22073567Y-22719531D01*
X22073567Y-22719531D02*
X22064043Y-22700483D01*
X22064043Y-22700483D02*
X22064043Y-22681435D01*
X22064043Y-22681435D02*
X22073567Y-22662388D01*
X22073567Y-22662388D02*
X22092615Y-22652864D01*
X22092615Y-22652864D02*
X22140234Y-22652864D01*
X22140234Y-22652864D02*
X22159281Y-22643340D01*
X22254519Y-22595721D02*
X22254519Y-22795721D01*
X22254519Y-22605245D02*
X22273567Y-22595721D01*
X22273567Y-22595721D02*
X22311662Y-22595721D01*
X22311662Y-22595721D02*
X22330710Y-22605245D01*
X22330710Y-22605245D02*
X22340234Y-22614769D01*
X22340234Y-22614769D02*
X22349757Y-22633816D01*
X22349757Y-22633816D02*
X22349757Y-22690959D01*
X22349757Y-22690959D02*
X22340234Y-22710007D01*
X22340234Y-22710007D02*
X22330710Y-22719531D01*
X22330710Y-22719531D02*
X22311662Y-22729055D01*
X22311662Y-22729055D02*
X22273567Y-22729055D01*
X22273567Y-22729055D02*
X22254519Y-22719531D01*
X22435472Y-22710007D02*
X22444995Y-22719531D01*
X22444995Y-22719531D02*
X22435472Y-22729055D01*
X22435472Y-22729055D02*
X22425948Y-22719531D01*
X22425948Y-22719531D02*
X22435472Y-22710007D01*
X22435472Y-22710007D02*
X22435472Y-22729055D01*
X22435472Y-22605245D02*
X22444995Y-22614769D01*
X22444995Y-22614769D02*
X22435472Y-22624293D01*
X22435472Y-22624293D02*
X22425948Y-22614769D01*
X22425948Y-22614769D02*
X22435472Y-22605245D01*
X22435472Y-22605245D02*
X22435472Y-22624293D01*
D13*
X20773266Y-23042571D02*
X20803266Y-23072571D01*
X20803266Y-23042571D02*
X20773266Y-23072571D01*
D12*
X21102138Y-22949055D02*
X21121186Y-22949055D01*
X21121186Y-22949055D02*
X21140234Y-22958578D01*
X21140234Y-22958578D02*
X21149757Y-22968102D01*
X21149757Y-22968102D02*
X21159281Y-22987150D01*
X21159281Y-22987150D02*
X21168805Y-23025245D01*
X21168805Y-23025245D02*
X21168805Y-23072864D01*
X21168805Y-23072864D02*
X21159281Y-23110959D01*
X21159281Y-23110959D02*
X21149757Y-23130007D01*
X21149757Y-23130007D02*
X21140234Y-23139531D01*
X21140234Y-23139531D02*
X21121186Y-23149055D01*
X21121186Y-23149055D02*
X21102138Y-23149055D01*
X21102138Y-23149055D02*
X21083091Y-23139531D01*
X21083091Y-23139531D02*
X21073567Y-23130007D01*
X21073567Y-23130007D02*
X21064043Y-23110959D01*
X21064043Y-23110959D02*
X21054519Y-23072864D01*
X21054519Y-23072864D02*
X21054519Y-23025245D01*
X21054519Y-23025245D02*
X21064043Y-22987150D01*
X21064043Y-22987150D02*
X21073567Y-22968102D01*
X21073567Y-22968102D02*
X21083091Y-22958578D01*
X21083091Y-22958578D02*
X21102138Y-22949055D01*
X21254519Y-23130007D02*
X21264043Y-23139531D01*
X21264043Y-23139531D02*
X21254519Y-23149055D01*
X21254519Y-23149055D02*
X21244996Y-23139531D01*
X21244996Y-23139531D02*
X21254519Y-23130007D01*
X21254519Y-23130007D02*
X21254519Y-23149055D01*
X21330710Y-22949055D02*
X21454519Y-22949055D01*
X21454519Y-22949055D02*
X21387853Y-23025245D01*
X21387853Y-23025245D02*
X21416424Y-23025245D01*
X21416424Y-23025245D02*
X21435472Y-23034769D01*
X21435472Y-23034769D02*
X21444996Y-23044293D01*
X21444996Y-23044293D02*
X21454519Y-23063340D01*
X21454519Y-23063340D02*
X21454519Y-23110959D01*
X21454519Y-23110959D02*
X21444996Y-23130007D01*
X21444996Y-23130007D02*
X21435472Y-23139531D01*
X21435472Y-23139531D02*
X21416424Y-23149055D01*
X21416424Y-23149055D02*
X21359281Y-23149055D01*
X21359281Y-23149055D02*
X21340234Y-23139531D01*
X21340234Y-23139531D02*
X21330710Y-23130007D01*
X21578329Y-22949055D02*
X21597377Y-22949055D01*
X21597377Y-22949055D02*
X21616424Y-22958578D01*
X21616424Y-22958578D02*
X21625948Y-22968102D01*
X21625948Y-22968102D02*
X21635472Y-22987150D01*
X21635472Y-22987150D02*
X21644996Y-23025245D01*
X21644996Y-23025245D02*
X21644996Y-23072864D01*
X21644996Y-23072864D02*
X21635472Y-23110959D01*
X21635472Y-23110959D02*
X21625948Y-23130007D01*
X21625948Y-23130007D02*
X21616424Y-23139531D01*
X21616424Y-23139531D02*
X21597377Y-23149055D01*
X21597377Y-23149055D02*
X21578329Y-23149055D01*
X21578329Y-23149055D02*
X21559281Y-23139531D01*
X21559281Y-23139531D02*
X21549757Y-23130007D01*
X21549757Y-23130007D02*
X21540234Y-23110959D01*
X21540234Y-23110959D02*
X21530710Y-23072864D01*
X21530710Y-23072864D02*
X21530710Y-23025245D01*
X21530710Y-23025245D02*
X21540234Y-22987150D01*
X21540234Y-22987150D02*
X21549757Y-22968102D01*
X21549757Y-22968102D02*
X21559281Y-22958578D01*
X21559281Y-22958578D02*
X21578329Y-22949055D01*
X21768805Y-22949055D02*
X21787853Y-22949055D01*
X21787853Y-22949055D02*
X21806900Y-22958578D01*
X21806900Y-22958578D02*
X21816424Y-22968102D01*
X21816424Y-22968102D02*
X21825948Y-22987150D01*
X21825948Y-22987150D02*
X21835472Y-23025245D01*
X21835472Y-23025245D02*
X21835472Y-23072864D01*
X21835472Y-23072864D02*
X21825948Y-23110959D01*
X21825948Y-23110959D02*
X21816424Y-23130007D01*
X21816424Y-23130007D02*
X21806900Y-23139531D01*
X21806900Y-23139531D02*
X21787853Y-23149055D01*
X21787853Y-23149055D02*
X21768805Y-23149055D01*
X21768805Y-23149055D02*
X21749757Y-23139531D01*
X21749757Y-23139531D02*
X21740234Y-23130007D01*
X21740234Y-23130007D02*
X21730710Y-23110959D01*
X21730710Y-23110959D02*
X21721186Y-23072864D01*
X21721186Y-23072864D02*
X21721186Y-23025245D01*
X21721186Y-23025245D02*
X21730710Y-22987150D01*
X21730710Y-22987150D02*
X21740234Y-22968102D01*
X21740234Y-22968102D02*
X21749757Y-22958578D01*
X21749757Y-22958578D02*
X21768805Y-22949055D01*
X21921186Y-23149055D02*
X21921186Y-23015721D01*
X21921186Y-23034769D02*
X21930710Y-23025245D01*
X21930710Y-23025245D02*
X21949757Y-23015721D01*
X21949757Y-23015721D02*
X21978329Y-23015721D01*
X21978329Y-23015721D02*
X21997377Y-23025245D01*
X21997377Y-23025245D02*
X22006900Y-23044293D01*
X22006900Y-23044293D02*
X22006900Y-23149055D01*
X22006900Y-23044293D02*
X22016424Y-23025245D01*
X22016424Y-23025245D02*
X22035472Y-23015721D01*
X22035472Y-23015721D02*
X22064043Y-23015721D01*
X22064043Y-23015721D02*
X22083091Y-23025245D01*
X22083091Y-23025245D02*
X22092615Y-23044293D01*
X22092615Y-23044293D02*
X22092615Y-23149055D01*
X22187853Y-23149055D02*
X22187853Y-23015721D01*
X22187853Y-23034769D02*
X22197377Y-23025245D01*
X22197377Y-23025245D02*
X22216424Y-23015721D01*
X22216424Y-23015721D02*
X22244996Y-23015721D01*
X22244996Y-23015721D02*
X22264043Y-23025245D01*
X22264043Y-23025245D02*
X22273567Y-23044293D01*
X22273567Y-23044293D02*
X22273567Y-23149055D01*
X22273567Y-23044293D02*
X22283091Y-23025245D01*
X22283091Y-23025245D02*
X22302138Y-23015721D01*
X22302138Y-23015721D02*
X22330710Y-23015721D01*
X22330710Y-23015721D02*
X22349758Y-23025245D01*
X22349758Y-23025245D02*
X22359281Y-23044293D01*
X22359281Y-23044293D02*
X22359281Y-23149055D01*
X22749757Y-22939531D02*
X22578329Y-23196674D01*
X23006900Y-22949055D02*
X23025948Y-22949055D01*
X23025948Y-22949055D02*
X23044996Y-22958578D01*
X23044996Y-22958578D02*
X23054519Y-22968102D01*
X23054519Y-22968102D02*
X23064043Y-22987150D01*
X23064043Y-22987150D02*
X23073567Y-23025245D01*
X23073567Y-23025245D02*
X23073567Y-23072864D01*
X23073567Y-23072864D02*
X23064043Y-23110959D01*
X23064043Y-23110959D02*
X23054519Y-23130007D01*
X23054519Y-23130007D02*
X23044996Y-23139531D01*
X23044996Y-23139531D02*
X23025948Y-23149055D01*
X23025948Y-23149055D02*
X23006900Y-23149055D01*
X23006900Y-23149055D02*
X22987853Y-23139531D01*
X22987853Y-23139531D02*
X22978329Y-23130007D01*
X22978329Y-23130007D02*
X22968805Y-23110959D01*
X22968805Y-23110959D02*
X22959281Y-23072864D01*
X22959281Y-23072864D02*
X22959281Y-23025245D01*
X22959281Y-23025245D02*
X22968805Y-22987150D01*
X22968805Y-22987150D02*
X22978329Y-22968102D01*
X22978329Y-22968102D02*
X22987853Y-22958578D01*
X22987853Y-22958578D02*
X23006900Y-22949055D01*
X23159281Y-23130007D02*
X23168805Y-23139531D01*
X23168805Y-23139531D02*
X23159281Y-23149055D01*
X23159281Y-23149055D02*
X23149758Y-23139531D01*
X23149758Y-23139531D02*
X23159281Y-23130007D01*
X23159281Y-23130007D02*
X23159281Y-23149055D01*
X23292615Y-22949055D02*
X23311662Y-22949055D01*
X23311662Y-22949055D02*
X23330710Y-22958578D01*
X23330710Y-22958578D02*
X23340234Y-22968102D01*
X23340234Y-22968102D02*
X23349758Y-22987150D01*
X23349758Y-22987150D02*
X23359281Y-23025245D01*
X23359281Y-23025245D02*
X23359281Y-23072864D01*
X23359281Y-23072864D02*
X23349758Y-23110959D01*
X23349758Y-23110959D02*
X23340234Y-23130007D01*
X23340234Y-23130007D02*
X23330710Y-23139531D01*
X23330710Y-23139531D02*
X23311662Y-23149055D01*
X23311662Y-23149055D02*
X23292615Y-23149055D01*
X23292615Y-23149055D02*
X23273567Y-23139531D01*
X23273567Y-23139531D02*
X23264043Y-23130007D01*
X23264043Y-23130007D02*
X23254519Y-23110959D01*
X23254519Y-23110959D02*
X23244996Y-23072864D01*
X23244996Y-23072864D02*
X23244996Y-23025245D01*
X23244996Y-23025245D02*
X23254519Y-22987150D01*
X23254519Y-22987150D02*
X23264043Y-22968102D01*
X23264043Y-22968102D02*
X23273567Y-22958578D01*
X23273567Y-22958578D02*
X23292615Y-22949055D01*
X23549758Y-23149055D02*
X23435472Y-23149055D01*
X23492615Y-23149055D02*
X23492615Y-22949055D01*
X23492615Y-22949055D02*
X23473567Y-22977626D01*
X23473567Y-22977626D02*
X23454519Y-22996674D01*
X23454519Y-22996674D02*
X23435472Y-23006197D01*
X23740234Y-23149055D02*
X23625948Y-23149055D01*
X23683091Y-23149055D02*
X23683091Y-22949055D01*
X23683091Y-22949055D02*
X23664043Y-22977626D01*
X23664043Y-22977626D02*
X23644996Y-22996674D01*
X23644996Y-22996674D02*
X23625948Y-23006197D01*
X23854519Y-23034769D02*
X23835472Y-23025245D01*
X23835472Y-23025245D02*
X23825948Y-23015721D01*
X23825948Y-23015721D02*
X23816424Y-22996674D01*
X23816424Y-22996674D02*
X23816424Y-22987150D01*
X23816424Y-22987150D02*
X23825948Y-22968102D01*
X23825948Y-22968102D02*
X23835472Y-22958578D01*
X23835472Y-22958578D02*
X23854519Y-22949055D01*
X23854519Y-22949055D02*
X23892615Y-22949055D01*
X23892615Y-22949055D02*
X23911662Y-22958578D01*
X23911662Y-22958578D02*
X23921186Y-22968102D01*
X23921186Y-22968102D02*
X23930710Y-22987150D01*
X23930710Y-22987150D02*
X23930710Y-22996674D01*
X23930710Y-22996674D02*
X23921186Y-23015721D01*
X23921186Y-23015721D02*
X23911662Y-23025245D01*
X23911662Y-23025245D02*
X23892615Y-23034769D01*
X23892615Y-23034769D02*
X23854519Y-23034769D01*
X23854519Y-23034769D02*
X23835472Y-23044293D01*
X23835472Y-23044293D02*
X23825948Y-23053816D01*
X23825948Y-23053816D02*
X23816424Y-23072864D01*
X23816424Y-23072864D02*
X23816424Y-23110959D01*
X23816424Y-23110959D02*
X23825948Y-23130007D01*
X23825948Y-23130007D02*
X23835472Y-23139531D01*
X23835472Y-23139531D02*
X23854519Y-23149055D01*
X23854519Y-23149055D02*
X23892615Y-23149055D01*
X23892615Y-23149055D02*
X23911662Y-23139531D01*
X23911662Y-23139531D02*
X23921186Y-23130007D01*
X23921186Y-23130007D02*
X23930710Y-23110959D01*
X23930710Y-23110959D02*
X23930710Y-23072864D01*
X23930710Y-23072864D02*
X23921186Y-23053816D01*
X23921186Y-23053816D02*
X23911662Y-23044293D01*
X23911662Y-23044293D02*
X23892615Y-23034769D01*
X24006900Y-22949055D02*
X24006900Y-22987150D01*
X24083091Y-22949055D02*
X24083091Y-22987150D01*
X24378329Y-23225245D02*
X24368805Y-23215721D01*
X24368805Y-23215721D02*
X24349758Y-23187150D01*
X24349758Y-23187150D02*
X24340234Y-23168102D01*
X24340234Y-23168102D02*
X24330710Y-23139531D01*
X24330710Y-23139531D02*
X24321186Y-23091912D01*
X24321186Y-23091912D02*
X24321186Y-23053816D01*
X24321186Y-23053816D02*
X24330710Y-23006197D01*
X24330710Y-23006197D02*
X24340234Y-22977626D01*
X24340234Y-22977626D02*
X24349758Y-22958578D01*
X24349758Y-22958578D02*
X24368805Y-22930007D01*
X24368805Y-22930007D02*
X24378329Y-22920483D01*
X24435472Y-22949055D02*
X24568805Y-22949055D01*
X24568805Y-22949055D02*
X24483091Y-23149055D01*
X24740234Y-22949055D02*
X24644996Y-22949055D01*
X24644996Y-22949055D02*
X24635472Y-23044293D01*
X24635472Y-23044293D02*
X24644996Y-23034769D01*
X24644996Y-23034769D02*
X24664043Y-23025245D01*
X24664043Y-23025245D02*
X24711662Y-23025245D01*
X24711662Y-23025245D02*
X24730710Y-23034769D01*
X24730710Y-23034769D02*
X24740234Y-23044293D01*
X24740234Y-23044293D02*
X24749758Y-23063340D01*
X24749758Y-23063340D02*
X24749758Y-23110959D01*
X24749758Y-23110959D02*
X24740234Y-23130007D01*
X24740234Y-23130007D02*
X24730710Y-23139531D01*
X24730710Y-23139531D02*
X24711662Y-23149055D01*
X24711662Y-23149055D02*
X24664043Y-23149055D01*
X24664043Y-23149055D02*
X24644996Y-23139531D01*
X24644996Y-23139531D02*
X24635472Y-23130007D01*
X24987853Y-23149055D02*
X24987853Y-22949055D01*
X25073567Y-23149055D02*
X25073567Y-23044293D01*
X25073567Y-23044293D02*
X25064043Y-23025245D01*
X25064043Y-23025245D02*
X25044996Y-23015721D01*
X25044996Y-23015721D02*
X25016424Y-23015721D01*
X25016424Y-23015721D02*
X24997377Y-23025245D01*
X24997377Y-23025245D02*
X24987853Y-23034769D01*
X25197377Y-23149055D02*
X25178329Y-23139531D01*
X25178329Y-23139531D02*
X25168805Y-23130007D01*
X25168805Y-23130007D02*
X25159282Y-23110959D01*
X25159282Y-23110959D02*
X25159282Y-23053816D01*
X25159282Y-23053816D02*
X25168805Y-23034769D01*
X25168805Y-23034769D02*
X25178329Y-23025245D01*
X25178329Y-23025245D02*
X25197377Y-23015721D01*
X25197377Y-23015721D02*
X25225948Y-23015721D01*
X25225948Y-23015721D02*
X25244996Y-23025245D01*
X25244996Y-23025245D02*
X25254520Y-23034769D01*
X25254520Y-23034769D02*
X25264043Y-23053816D01*
X25264043Y-23053816D02*
X25264043Y-23110959D01*
X25264043Y-23110959D02*
X25254520Y-23130007D01*
X25254520Y-23130007D02*
X25244996Y-23139531D01*
X25244996Y-23139531D02*
X25225948Y-23149055D01*
X25225948Y-23149055D02*
X25197377Y-23149055D01*
X25378329Y-23149055D02*
X25359282Y-23139531D01*
X25359282Y-23139531D02*
X25349758Y-23120483D01*
X25349758Y-23120483D02*
X25349758Y-22949055D01*
X25530710Y-23139531D02*
X25511663Y-23149055D01*
X25511663Y-23149055D02*
X25473567Y-23149055D01*
X25473567Y-23149055D02*
X25454520Y-23139531D01*
X25454520Y-23139531D02*
X25444996Y-23120483D01*
X25444996Y-23120483D02*
X25444996Y-23044293D01*
X25444996Y-23044293D02*
X25454520Y-23025245D01*
X25454520Y-23025245D02*
X25473567Y-23015721D01*
X25473567Y-23015721D02*
X25511663Y-23015721D01*
X25511663Y-23015721D02*
X25530710Y-23025245D01*
X25530710Y-23025245D02*
X25540234Y-23044293D01*
X25540234Y-23044293D02*
X25540234Y-23063340D01*
X25540234Y-23063340D02*
X25444996Y-23082388D01*
X25616424Y-23139531D02*
X25635472Y-23149055D01*
X25635472Y-23149055D02*
X25673567Y-23149055D01*
X25673567Y-23149055D02*
X25692615Y-23139531D01*
X25692615Y-23139531D02*
X25702139Y-23120483D01*
X25702139Y-23120483D02*
X25702139Y-23110959D01*
X25702139Y-23110959D02*
X25692615Y-23091912D01*
X25692615Y-23091912D02*
X25673567Y-23082388D01*
X25673567Y-23082388D02*
X25644996Y-23082388D01*
X25644996Y-23082388D02*
X25625948Y-23072864D01*
X25625948Y-23072864D02*
X25616424Y-23053816D01*
X25616424Y-23053816D02*
X25616424Y-23044293D01*
X25616424Y-23044293D02*
X25625948Y-23025245D01*
X25625948Y-23025245D02*
X25644996Y-23015721D01*
X25644996Y-23015721D02*
X25673567Y-23015721D01*
X25673567Y-23015721D02*
X25692615Y-23025245D01*
X25768805Y-23225245D02*
X25778329Y-23215721D01*
X25778329Y-23215721D02*
X25797377Y-23187150D01*
X25797377Y-23187150D02*
X25806901Y-23168102D01*
X25806901Y-23168102D02*
X25816424Y-23139531D01*
X25816424Y-23139531D02*
X25825948Y-23091912D01*
X25825948Y-23091912D02*
X25825948Y-23053816D01*
X25825948Y-23053816D02*
X25816424Y-23006197D01*
X25816424Y-23006197D02*
X25806901Y-22977626D01*
X25806901Y-22977626D02*
X25797377Y-22958578D01*
X25797377Y-22958578D02*
X25778329Y-22930007D01*
X25778329Y-22930007D02*
X25768805Y-22920483D01*
D13*
X20803266Y-23321571D02*
G75*
G02*
X20763266Y-23321571I-20000J0D01*
G01*
X20763266Y-23321571D02*
G75*
G02*
X20803266Y-23321571I20000J0D01*
G01*
D12*
X21102138Y-23213055D02*
X21121186Y-23213055D01*
X21121186Y-23213055D02*
X21140234Y-23222578D01*
X21140234Y-23222578D02*
X21149757Y-23232102D01*
X21149757Y-23232102D02*
X21159281Y-23251150D01*
X21159281Y-23251150D02*
X21168805Y-23289245D01*
X21168805Y-23289245D02*
X21168805Y-23336864D01*
X21168805Y-23336864D02*
X21159281Y-23374959D01*
X21159281Y-23374959D02*
X21149757Y-23394007D01*
X21149757Y-23394007D02*
X21140234Y-23403531D01*
X21140234Y-23403531D02*
X21121186Y-23413055D01*
X21121186Y-23413055D02*
X21102138Y-23413055D01*
X21102138Y-23413055D02*
X21083091Y-23403531D01*
X21083091Y-23403531D02*
X21073567Y-23394007D01*
X21073567Y-23394007D02*
X21064043Y-23374959D01*
X21064043Y-23374959D02*
X21054519Y-23336864D01*
X21054519Y-23336864D02*
X21054519Y-23289245D01*
X21054519Y-23289245D02*
X21064043Y-23251150D01*
X21064043Y-23251150D02*
X21073567Y-23232102D01*
X21073567Y-23232102D02*
X21083091Y-23222578D01*
X21083091Y-23222578D02*
X21102138Y-23213055D01*
X21254519Y-23394007D02*
X21264043Y-23403531D01*
X21264043Y-23403531D02*
X21254519Y-23413055D01*
X21254519Y-23413055D02*
X21244996Y-23403531D01*
X21244996Y-23403531D02*
X21254519Y-23394007D01*
X21254519Y-23394007D02*
X21254519Y-23413055D01*
X21435472Y-23279721D02*
X21435472Y-23413055D01*
X21387853Y-23203531D02*
X21340234Y-23346388D01*
X21340234Y-23346388D02*
X21464043Y-23346388D01*
X21578329Y-23213055D02*
X21597377Y-23213055D01*
X21597377Y-23213055D02*
X21616424Y-23222578D01*
X21616424Y-23222578D02*
X21625948Y-23232102D01*
X21625948Y-23232102D02*
X21635472Y-23251150D01*
X21635472Y-23251150D02*
X21644996Y-23289245D01*
X21644996Y-23289245D02*
X21644996Y-23336864D01*
X21644996Y-23336864D02*
X21635472Y-23374959D01*
X21635472Y-23374959D02*
X21625948Y-23394007D01*
X21625948Y-23394007D02*
X21616424Y-23403531D01*
X21616424Y-23403531D02*
X21597377Y-23413055D01*
X21597377Y-23413055D02*
X21578329Y-23413055D01*
X21578329Y-23413055D02*
X21559281Y-23403531D01*
X21559281Y-23403531D02*
X21549757Y-23394007D01*
X21549757Y-23394007D02*
X21540234Y-23374959D01*
X21540234Y-23374959D02*
X21530710Y-23336864D01*
X21530710Y-23336864D02*
X21530710Y-23289245D01*
X21530710Y-23289245D02*
X21540234Y-23251150D01*
X21540234Y-23251150D02*
X21549757Y-23232102D01*
X21549757Y-23232102D02*
X21559281Y-23222578D01*
X21559281Y-23222578D02*
X21578329Y-23213055D01*
X21768805Y-23213055D02*
X21787853Y-23213055D01*
X21787853Y-23213055D02*
X21806900Y-23222578D01*
X21806900Y-23222578D02*
X21816424Y-23232102D01*
X21816424Y-23232102D02*
X21825948Y-23251150D01*
X21825948Y-23251150D02*
X21835472Y-23289245D01*
X21835472Y-23289245D02*
X21835472Y-23336864D01*
X21835472Y-23336864D02*
X21825948Y-23374959D01*
X21825948Y-23374959D02*
X21816424Y-23394007D01*
X21816424Y-23394007D02*
X21806900Y-23403531D01*
X21806900Y-23403531D02*
X21787853Y-23413055D01*
X21787853Y-23413055D02*
X21768805Y-23413055D01*
X21768805Y-23413055D02*
X21749757Y-23403531D01*
X21749757Y-23403531D02*
X21740234Y-23394007D01*
X21740234Y-23394007D02*
X21730710Y-23374959D01*
X21730710Y-23374959D02*
X21721186Y-23336864D01*
X21721186Y-23336864D02*
X21721186Y-23289245D01*
X21721186Y-23289245D02*
X21730710Y-23251150D01*
X21730710Y-23251150D02*
X21740234Y-23232102D01*
X21740234Y-23232102D02*
X21749757Y-23222578D01*
X21749757Y-23222578D02*
X21768805Y-23213055D01*
X21921186Y-23413055D02*
X21921186Y-23279721D01*
X21921186Y-23298769D02*
X21930710Y-23289245D01*
X21930710Y-23289245D02*
X21949757Y-23279721D01*
X21949757Y-23279721D02*
X21978329Y-23279721D01*
X21978329Y-23279721D02*
X21997377Y-23289245D01*
X21997377Y-23289245D02*
X22006900Y-23308293D01*
X22006900Y-23308293D02*
X22006900Y-23413055D01*
X22006900Y-23308293D02*
X22016424Y-23289245D01*
X22016424Y-23289245D02*
X22035472Y-23279721D01*
X22035472Y-23279721D02*
X22064043Y-23279721D01*
X22064043Y-23279721D02*
X22083091Y-23289245D01*
X22083091Y-23289245D02*
X22092615Y-23308293D01*
X22092615Y-23308293D02*
X22092615Y-23413055D01*
X22187853Y-23413055D02*
X22187853Y-23279721D01*
X22187853Y-23298769D02*
X22197377Y-23289245D01*
X22197377Y-23289245D02*
X22216424Y-23279721D01*
X22216424Y-23279721D02*
X22244996Y-23279721D01*
X22244996Y-23279721D02*
X22264043Y-23289245D01*
X22264043Y-23289245D02*
X22273567Y-23308293D01*
X22273567Y-23308293D02*
X22273567Y-23413055D01*
X22273567Y-23308293D02*
X22283091Y-23289245D01*
X22283091Y-23289245D02*
X22302138Y-23279721D01*
X22302138Y-23279721D02*
X22330710Y-23279721D01*
X22330710Y-23279721D02*
X22349758Y-23289245D01*
X22349758Y-23289245D02*
X22359281Y-23308293D01*
X22359281Y-23308293D02*
X22359281Y-23413055D01*
X22749757Y-23203531D02*
X22578329Y-23460674D01*
X23006900Y-23213055D02*
X23025948Y-23213055D01*
X23025948Y-23213055D02*
X23044996Y-23222578D01*
X23044996Y-23222578D02*
X23054519Y-23232102D01*
X23054519Y-23232102D02*
X23064043Y-23251150D01*
X23064043Y-23251150D02*
X23073567Y-23289245D01*
X23073567Y-23289245D02*
X23073567Y-23336864D01*
X23073567Y-23336864D02*
X23064043Y-23374959D01*
X23064043Y-23374959D02*
X23054519Y-23394007D01*
X23054519Y-23394007D02*
X23044996Y-23403531D01*
X23044996Y-23403531D02*
X23025948Y-23413055D01*
X23025948Y-23413055D02*
X23006900Y-23413055D01*
X23006900Y-23413055D02*
X22987853Y-23403531D01*
X22987853Y-23403531D02*
X22978329Y-23394007D01*
X22978329Y-23394007D02*
X22968805Y-23374959D01*
X22968805Y-23374959D02*
X22959281Y-23336864D01*
X22959281Y-23336864D02*
X22959281Y-23289245D01*
X22959281Y-23289245D02*
X22968805Y-23251150D01*
X22968805Y-23251150D02*
X22978329Y-23232102D01*
X22978329Y-23232102D02*
X22987853Y-23222578D01*
X22987853Y-23222578D02*
X23006900Y-23213055D01*
X23159281Y-23394007D02*
X23168805Y-23403531D01*
X23168805Y-23403531D02*
X23159281Y-23413055D01*
X23159281Y-23413055D02*
X23149758Y-23403531D01*
X23149758Y-23403531D02*
X23159281Y-23394007D01*
X23159281Y-23394007D02*
X23159281Y-23413055D01*
X23292615Y-23213055D02*
X23311662Y-23213055D01*
X23311662Y-23213055D02*
X23330710Y-23222578D01*
X23330710Y-23222578D02*
X23340234Y-23232102D01*
X23340234Y-23232102D02*
X23349758Y-23251150D01*
X23349758Y-23251150D02*
X23359281Y-23289245D01*
X23359281Y-23289245D02*
X23359281Y-23336864D01*
X23359281Y-23336864D02*
X23349758Y-23374959D01*
X23349758Y-23374959D02*
X23340234Y-23394007D01*
X23340234Y-23394007D02*
X23330710Y-23403531D01*
X23330710Y-23403531D02*
X23311662Y-23413055D01*
X23311662Y-23413055D02*
X23292615Y-23413055D01*
X23292615Y-23413055D02*
X23273567Y-23403531D01*
X23273567Y-23403531D02*
X23264043Y-23394007D01*
X23264043Y-23394007D02*
X23254519Y-23374959D01*
X23254519Y-23374959D02*
X23244996Y-23336864D01*
X23244996Y-23336864D02*
X23244996Y-23289245D01*
X23244996Y-23289245D02*
X23254519Y-23251150D01*
X23254519Y-23251150D02*
X23264043Y-23232102D01*
X23264043Y-23232102D02*
X23273567Y-23222578D01*
X23273567Y-23222578D02*
X23292615Y-23213055D01*
X23549758Y-23413055D02*
X23435472Y-23413055D01*
X23492615Y-23413055D02*
X23492615Y-23213055D01*
X23492615Y-23213055D02*
X23473567Y-23241626D01*
X23473567Y-23241626D02*
X23454519Y-23260674D01*
X23454519Y-23260674D02*
X23435472Y-23270197D01*
X23730710Y-23213055D02*
X23635472Y-23213055D01*
X23635472Y-23213055D02*
X23625948Y-23308293D01*
X23625948Y-23308293D02*
X23635472Y-23298769D01*
X23635472Y-23298769D02*
X23654519Y-23289245D01*
X23654519Y-23289245D02*
X23702139Y-23289245D01*
X23702139Y-23289245D02*
X23721186Y-23298769D01*
X23721186Y-23298769D02*
X23730710Y-23308293D01*
X23730710Y-23308293D02*
X23740234Y-23327340D01*
X23740234Y-23327340D02*
X23740234Y-23374959D01*
X23740234Y-23374959D02*
X23730710Y-23394007D01*
X23730710Y-23394007D02*
X23721186Y-23403531D01*
X23721186Y-23403531D02*
X23702139Y-23413055D01*
X23702139Y-23413055D02*
X23654519Y-23413055D01*
X23654519Y-23413055D02*
X23635472Y-23403531D01*
X23635472Y-23403531D02*
X23625948Y-23394007D01*
X23806900Y-23213055D02*
X23940234Y-23213055D01*
X23940234Y-23213055D02*
X23854519Y-23413055D01*
X24006900Y-23213055D02*
X24006900Y-23251150D01*
X24083091Y-23213055D02*
X24083091Y-23251150D01*
X24378329Y-23489245D02*
X24368805Y-23479721D01*
X24368805Y-23479721D02*
X24349758Y-23451150D01*
X24349758Y-23451150D02*
X24340234Y-23432102D01*
X24340234Y-23432102D02*
X24330710Y-23403531D01*
X24330710Y-23403531D02*
X24321186Y-23355912D01*
X24321186Y-23355912D02*
X24321186Y-23317816D01*
X24321186Y-23317816D02*
X24330710Y-23270197D01*
X24330710Y-23270197D02*
X24340234Y-23241626D01*
X24340234Y-23241626D02*
X24349758Y-23222578D01*
X24349758Y-23222578D02*
X24368805Y-23194007D01*
X24368805Y-23194007D02*
X24378329Y-23184483D01*
X24483091Y-23298769D02*
X24464043Y-23289245D01*
X24464043Y-23289245D02*
X24454520Y-23279721D01*
X24454520Y-23279721D02*
X24444996Y-23260674D01*
X24444996Y-23260674D02*
X24444996Y-23251150D01*
X24444996Y-23251150D02*
X24454520Y-23232102D01*
X24454520Y-23232102D02*
X24464043Y-23222578D01*
X24464043Y-23222578D02*
X24483091Y-23213055D01*
X24483091Y-23213055D02*
X24521186Y-23213055D01*
X24521186Y-23213055D02*
X24540234Y-23222578D01*
X24540234Y-23222578D02*
X24549758Y-23232102D01*
X24549758Y-23232102D02*
X24559281Y-23251150D01*
X24559281Y-23251150D02*
X24559281Y-23260674D01*
X24559281Y-23260674D02*
X24549758Y-23279721D01*
X24549758Y-23279721D02*
X24540234Y-23289245D01*
X24540234Y-23289245D02*
X24521186Y-23298769D01*
X24521186Y-23298769D02*
X24483091Y-23298769D01*
X24483091Y-23298769D02*
X24464043Y-23308293D01*
X24464043Y-23308293D02*
X24454520Y-23317816D01*
X24454520Y-23317816D02*
X24444996Y-23336864D01*
X24444996Y-23336864D02*
X24444996Y-23374959D01*
X24444996Y-23374959D02*
X24454520Y-23394007D01*
X24454520Y-23394007D02*
X24464043Y-23403531D01*
X24464043Y-23403531D02*
X24483091Y-23413055D01*
X24483091Y-23413055D02*
X24521186Y-23413055D01*
X24521186Y-23413055D02*
X24540234Y-23403531D01*
X24540234Y-23403531D02*
X24549758Y-23394007D01*
X24549758Y-23394007D02*
X24559281Y-23374959D01*
X24559281Y-23374959D02*
X24559281Y-23336864D01*
X24559281Y-23336864D02*
X24549758Y-23317816D01*
X24549758Y-23317816D02*
X24540234Y-23308293D01*
X24540234Y-23308293D02*
X24521186Y-23298769D01*
X24683091Y-23213055D02*
X24702139Y-23213055D01*
X24702139Y-23213055D02*
X24721186Y-23222578D01*
X24721186Y-23222578D02*
X24730710Y-23232102D01*
X24730710Y-23232102D02*
X24740234Y-23251150D01*
X24740234Y-23251150D02*
X24749758Y-23289245D01*
X24749758Y-23289245D02*
X24749758Y-23336864D01*
X24749758Y-23336864D02*
X24740234Y-23374959D01*
X24740234Y-23374959D02*
X24730710Y-23394007D01*
X24730710Y-23394007D02*
X24721186Y-23403531D01*
X24721186Y-23403531D02*
X24702139Y-23413055D01*
X24702139Y-23413055D02*
X24683091Y-23413055D01*
X24683091Y-23413055D02*
X24664043Y-23403531D01*
X24664043Y-23403531D02*
X24654520Y-23394007D01*
X24654520Y-23394007D02*
X24644996Y-23374959D01*
X24644996Y-23374959D02*
X24635472Y-23336864D01*
X24635472Y-23336864D02*
X24635472Y-23289245D01*
X24635472Y-23289245D02*
X24644996Y-23251150D01*
X24644996Y-23251150D02*
X24654520Y-23232102D01*
X24654520Y-23232102D02*
X24664043Y-23222578D01*
X24664043Y-23222578D02*
X24683091Y-23213055D01*
X24987853Y-23413055D02*
X24987853Y-23213055D01*
X25073567Y-23413055D02*
X25073567Y-23308293D01*
X25073567Y-23308293D02*
X25064043Y-23289245D01*
X25064043Y-23289245D02*
X25044996Y-23279721D01*
X25044996Y-23279721D02*
X25016424Y-23279721D01*
X25016424Y-23279721D02*
X24997377Y-23289245D01*
X24997377Y-23289245D02*
X24987853Y-23298769D01*
X25197377Y-23413055D02*
X25178329Y-23403531D01*
X25178329Y-23403531D02*
X25168805Y-23394007D01*
X25168805Y-23394007D02*
X25159282Y-23374959D01*
X25159282Y-23374959D02*
X25159282Y-23317816D01*
X25159282Y-23317816D02*
X25168805Y-23298769D01*
X25168805Y-23298769D02*
X25178329Y-23289245D01*
X25178329Y-23289245D02*
X25197377Y-23279721D01*
X25197377Y-23279721D02*
X25225948Y-23279721D01*
X25225948Y-23279721D02*
X25244996Y-23289245D01*
X25244996Y-23289245D02*
X25254520Y-23298769D01*
X25254520Y-23298769D02*
X25264043Y-23317816D01*
X25264043Y-23317816D02*
X25264043Y-23374959D01*
X25264043Y-23374959D02*
X25254520Y-23394007D01*
X25254520Y-23394007D02*
X25244996Y-23403531D01*
X25244996Y-23403531D02*
X25225948Y-23413055D01*
X25225948Y-23413055D02*
X25197377Y-23413055D01*
X25378329Y-23413055D02*
X25359282Y-23403531D01*
X25359282Y-23403531D02*
X25349758Y-23384483D01*
X25349758Y-23384483D02*
X25349758Y-23213055D01*
X25530710Y-23403531D02*
X25511663Y-23413055D01*
X25511663Y-23413055D02*
X25473567Y-23413055D01*
X25473567Y-23413055D02*
X25454520Y-23403531D01*
X25454520Y-23403531D02*
X25444996Y-23384483D01*
X25444996Y-23384483D02*
X25444996Y-23308293D01*
X25444996Y-23308293D02*
X25454520Y-23289245D01*
X25454520Y-23289245D02*
X25473567Y-23279721D01*
X25473567Y-23279721D02*
X25511663Y-23279721D01*
X25511663Y-23279721D02*
X25530710Y-23289245D01*
X25530710Y-23289245D02*
X25540234Y-23308293D01*
X25540234Y-23308293D02*
X25540234Y-23327340D01*
X25540234Y-23327340D02*
X25444996Y-23346388D01*
X25616424Y-23403531D02*
X25635472Y-23413055D01*
X25635472Y-23413055D02*
X25673567Y-23413055D01*
X25673567Y-23413055D02*
X25692615Y-23403531D01*
X25692615Y-23403531D02*
X25702139Y-23384483D01*
X25702139Y-23384483D02*
X25702139Y-23374959D01*
X25702139Y-23374959D02*
X25692615Y-23355912D01*
X25692615Y-23355912D02*
X25673567Y-23346388D01*
X25673567Y-23346388D02*
X25644996Y-23346388D01*
X25644996Y-23346388D02*
X25625948Y-23336864D01*
X25625948Y-23336864D02*
X25616424Y-23317816D01*
X25616424Y-23317816D02*
X25616424Y-23308293D01*
X25616424Y-23308293D02*
X25625948Y-23289245D01*
X25625948Y-23289245D02*
X25644996Y-23279721D01*
X25644996Y-23279721D02*
X25673567Y-23279721D01*
X25673567Y-23279721D02*
X25692615Y-23289245D01*
X25768805Y-23489245D02*
X25778329Y-23479721D01*
X25778329Y-23479721D02*
X25797377Y-23451150D01*
X25797377Y-23451150D02*
X25806901Y-23432102D01*
X25806901Y-23432102D02*
X25816424Y-23403531D01*
X25816424Y-23403531D02*
X25825948Y-23355912D01*
X25825948Y-23355912D02*
X25825948Y-23317816D01*
X25825948Y-23317816D02*
X25816424Y-23270197D01*
X25816424Y-23270197D02*
X25806901Y-23241626D01*
X25806901Y-23241626D02*
X25797377Y-23222578D01*
X25797377Y-23222578D02*
X25778329Y-23194007D01*
X25778329Y-23194007D02*
X25768805Y-23184483D01*
D13*
X20765766Y-23548071D02*
X20765766Y-23623071D01*
X20728266Y-23585571D02*
X20803266Y-23585571D01*
D12*
X21102138Y-23477055D02*
X21121186Y-23477055D01*
X21121186Y-23477055D02*
X21140234Y-23486578D01*
X21140234Y-23486578D02*
X21149757Y-23496102D01*
X21149757Y-23496102D02*
X21159281Y-23515150D01*
X21159281Y-23515150D02*
X21168805Y-23553245D01*
X21168805Y-23553245D02*
X21168805Y-23600864D01*
X21168805Y-23600864D02*
X21159281Y-23638959D01*
X21159281Y-23638959D02*
X21149757Y-23658007D01*
X21149757Y-23658007D02*
X21140234Y-23667531D01*
X21140234Y-23667531D02*
X21121186Y-23677055D01*
X21121186Y-23677055D02*
X21102138Y-23677055D01*
X21102138Y-23677055D02*
X21083091Y-23667531D01*
X21083091Y-23667531D02*
X21073567Y-23658007D01*
X21073567Y-23658007D02*
X21064043Y-23638959D01*
X21064043Y-23638959D02*
X21054519Y-23600864D01*
X21054519Y-23600864D02*
X21054519Y-23553245D01*
X21054519Y-23553245D02*
X21064043Y-23515150D01*
X21064043Y-23515150D02*
X21073567Y-23496102D01*
X21073567Y-23496102D02*
X21083091Y-23486578D01*
X21083091Y-23486578D02*
X21102138Y-23477055D01*
X21254519Y-23658007D02*
X21264043Y-23667531D01*
X21264043Y-23667531D02*
X21254519Y-23677055D01*
X21254519Y-23677055D02*
X21244996Y-23667531D01*
X21244996Y-23667531D02*
X21254519Y-23658007D01*
X21254519Y-23658007D02*
X21254519Y-23677055D01*
X21330710Y-23477055D02*
X21464043Y-23477055D01*
X21464043Y-23477055D02*
X21378329Y-23677055D01*
X21635472Y-23477055D02*
X21540234Y-23477055D01*
X21540234Y-23477055D02*
X21530710Y-23572293D01*
X21530710Y-23572293D02*
X21540234Y-23562769D01*
X21540234Y-23562769D02*
X21559281Y-23553245D01*
X21559281Y-23553245D02*
X21606900Y-23553245D01*
X21606900Y-23553245D02*
X21625948Y-23562769D01*
X21625948Y-23562769D02*
X21635472Y-23572293D01*
X21635472Y-23572293D02*
X21644996Y-23591340D01*
X21644996Y-23591340D02*
X21644996Y-23638959D01*
X21644996Y-23638959D02*
X21635472Y-23658007D01*
X21635472Y-23658007D02*
X21625948Y-23667531D01*
X21625948Y-23667531D02*
X21606900Y-23677055D01*
X21606900Y-23677055D02*
X21559281Y-23677055D01*
X21559281Y-23677055D02*
X21540234Y-23667531D01*
X21540234Y-23667531D02*
X21530710Y-23658007D01*
X21768805Y-23477055D02*
X21787853Y-23477055D01*
X21787853Y-23477055D02*
X21806900Y-23486578D01*
X21806900Y-23486578D02*
X21816424Y-23496102D01*
X21816424Y-23496102D02*
X21825948Y-23515150D01*
X21825948Y-23515150D02*
X21835472Y-23553245D01*
X21835472Y-23553245D02*
X21835472Y-23600864D01*
X21835472Y-23600864D02*
X21825948Y-23638959D01*
X21825948Y-23638959D02*
X21816424Y-23658007D01*
X21816424Y-23658007D02*
X21806900Y-23667531D01*
X21806900Y-23667531D02*
X21787853Y-23677055D01*
X21787853Y-23677055D02*
X21768805Y-23677055D01*
X21768805Y-23677055D02*
X21749757Y-23667531D01*
X21749757Y-23667531D02*
X21740234Y-23658007D01*
X21740234Y-23658007D02*
X21730710Y-23638959D01*
X21730710Y-23638959D02*
X21721186Y-23600864D01*
X21721186Y-23600864D02*
X21721186Y-23553245D01*
X21721186Y-23553245D02*
X21730710Y-23515150D01*
X21730710Y-23515150D02*
X21740234Y-23496102D01*
X21740234Y-23496102D02*
X21749757Y-23486578D01*
X21749757Y-23486578D02*
X21768805Y-23477055D01*
X21921186Y-23677055D02*
X21921186Y-23543721D01*
X21921186Y-23562769D02*
X21930710Y-23553245D01*
X21930710Y-23553245D02*
X21949757Y-23543721D01*
X21949757Y-23543721D02*
X21978329Y-23543721D01*
X21978329Y-23543721D02*
X21997377Y-23553245D01*
X21997377Y-23553245D02*
X22006900Y-23572293D01*
X22006900Y-23572293D02*
X22006900Y-23677055D01*
X22006900Y-23572293D02*
X22016424Y-23553245D01*
X22016424Y-23553245D02*
X22035472Y-23543721D01*
X22035472Y-23543721D02*
X22064043Y-23543721D01*
X22064043Y-23543721D02*
X22083091Y-23553245D01*
X22083091Y-23553245D02*
X22092615Y-23572293D01*
X22092615Y-23572293D02*
X22092615Y-23677055D01*
X22187853Y-23677055D02*
X22187853Y-23543721D01*
X22187853Y-23562769D02*
X22197377Y-23553245D01*
X22197377Y-23553245D02*
X22216424Y-23543721D01*
X22216424Y-23543721D02*
X22244996Y-23543721D01*
X22244996Y-23543721D02*
X22264043Y-23553245D01*
X22264043Y-23553245D02*
X22273567Y-23572293D01*
X22273567Y-23572293D02*
X22273567Y-23677055D01*
X22273567Y-23572293D02*
X22283091Y-23553245D01*
X22283091Y-23553245D02*
X22302138Y-23543721D01*
X22302138Y-23543721D02*
X22330710Y-23543721D01*
X22330710Y-23543721D02*
X22349758Y-23553245D01*
X22349758Y-23553245D02*
X22359281Y-23572293D01*
X22359281Y-23572293D02*
X22359281Y-23677055D01*
X22749757Y-23467531D02*
X22578329Y-23724674D01*
X23006900Y-23477055D02*
X23025948Y-23477055D01*
X23025948Y-23477055D02*
X23044996Y-23486578D01*
X23044996Y-23486578D02*
X23054519Y-23496102D01*
X23054519Y-23496102D02*
X23064043Y-23515150D01*
X23064043Y-23515150D02*
X23073567Y-23553245D01*
X23073567Y-23553245D02*
X23073567Y-23600864D01*
X23073567Y-23600864D02*
X23064043Y-23638959D01*
X23064043Y-23638959D02*
X23054519Y-23658007D01*
X23054519Y-23658007D02*
X23044996Y-23667531D01*
X23044996Y-23667531D02*
X23025948Y-23677055D01*
X23025948Y-23677055D02*
X23006900Y-23677055D01*
X23006900Y-23677055D02*
X22987853Y-23667531D01*
X22987853Y-23667531D02*
X22978329Y-23658007D01*
X22978329Y-23658007D02*
X22968805Y-23638959D01*
X22968805Y-23638959D02*
X22959281Y-23600864D01*
X22959281Y-23600864D02*
X22959281Y-23553245D01*
X22959281Y-23553245D02*
X22968805Y-23515150D01*
X22968805Y-23515150D02*
X22978329Y-23496102D01*
X22978329Y-23496102D02*
X22987853Y-23486578D01*
X22987853Y-23486578D02*
X23006900Y-23477055D01*
X23159281Y-23658007D02*
X23168805Y-23667531D01*
X23168805Y-23667531D02*
X23159281Y-23677055D01*
X23159281Y-23677055D02*
X23149758Y-23667531D01*
X23149758Y-23667531D02*
X23159281Y-23658007D01*
X23159281Y-23658007D02*
X23159281Y-23677055D01*
X23292615Y-23477055D02*
X23311662Y-23477055D01*
X23311662Y-23477055D02*
X23330710Y-23486578D01*
X23330710Y-23486578D02*
X23340234Y-23496102D01*
X23340234Y-23496102D02*
X23349758Y-23515150D01*
X23349758Y-23515150D02*
X23359281Y-23553245D01*
X23359281Y-23553245D02*
X23359281Y-23600864D01*
X23359281Y-23600864D02*
X23349758Y-23638959D01*
X23349758Y-23638959D02*
X23340234Y-23658007D01*
X23340234Y-23658007D02*
X23330710Y-23667531D01*
X23330710Y-23667531D02*
X23311662Y-23677055D01*
X23311662Y-23677055D02*
X23292615Y-23677055D01*
X23292615Y-23677055D02*
X23273567Y-23667531D01*
X23273567Y-23667531D02*
X23264043Y-23658007D01*
X23264043Y-23658007D02*
X23254519Y-23638959D01*
X23254519Y-23638959D02*
X23244996Y-23600864D01*
X23244996Y-23600864D02*
X23244996Y-23553245D01*
X23244996Y-23553245D02*
X23254519Y-23515150D01*
X23254519Y-23515150D02*
X23264043Y-23496102D01*
X23264043Y-23496102D02*
X23273567Y-23486578D01*
X23273567Y-23486578D02*
X23292615Y-23477055D01*
X23435472Y-23496102D02*
X23444996Y-23486578D01*
X23444996Y-23486578D02*
X23464043Y-23477055D01*
X23464043Y-23477055D02*
X23511662Y-23477055D01*
X23511662Y-23477055D02*
X23530710Y-23486578D01*
X23530710Y-23486578D02*
X23540234Y-23496102D01*
X23540234Y-23496102D02*
X23549758Y-23515150D01*
X23549758Y-23515150D02*
X23549758Y-23534197D01*
X23549758Y-23534197D02*
X23540234Y-23562769D01*
X23540234Y-23562769D02*
X23425948Y-23677055D01*
X23425948Y-23677055D02*
X23549758Y-23677055D01*
X23644996Y-23677055D02*
X23683091Y-23677055D01*
X23683091Y-23677055D02*
X23702139Y-23667531D01*
X23702139Y-23667531D02*
X23711662Y-23658007D01*
X23711662Y-23658007D02*
X23730710Y-23629435D01*
X23730710Y-23629435D02*
X23740234Y-23591340D01*
X23740234Y-23591340D02*
X23740234Y-23515150D01*
X23740234Y-23515150D02*
X23730710Y-23496102D01*
X23730710Y-23496102D02*
X23721186Y-23486578D01*
X23721186Y-23486578D02*
X23702139Y-23477055D01*
X23702139Y-23477055D02*
X23664043Y-23477055D01*
X23664043Y-23477055D02*
X23644996Y-23486578D01*
X23644996Y-23486578D02*
X23635472Y-23496102D01*
X23635472Y-23496102D02*
X23625948Y-23515150D01*
X23625948Y-23515150D02*
X23625948Y-23562769D01*
X23625948Y-23562769D02*
X23635472Y-23581816D01*
X23635472Y-23581816D02*
X23644996Y-23591340D01*
X23644996Y-23591340D02*
X23664043Y-23600864D01*
X23664043Y-23600864D02*
X23702139Y-23600864D01*
X23702139Y-23600864D02*
X23721186Y-23591340D01*
X23721186Y-23591340D02*
X23730710Y-23581816D01*
X23730710Y-23581816D02*
X23740234Y-23562769D01*
X23921186Y-23477055D02*
X23825948Y-23477055D01*
X23825948Y-23477055D02*
X23816424Y-23572293D01*
X23816424Y-23572293D02*
X23825948Y-23562769D01*
X23825948Y-23562769D02*
X23844996Y-23553245D01*
X23844996Y-23553245D02*
X23892615Y-23553245D01*
X23892615Y-23553245D02*
X23911662Y-23562769D01*
X23911662Y-23562769D02*
X23921186Y-23572293D01*
X23921186Y-23572293D02*
X23930710Y-23591340D01*
X23930710Y-23591340D02*
X23930710Y-23638959D01*
X23930710Y-23638959D02*
X23921186Y-23658007D01*
X23921186Y-23658007D02*
X23911662Y-23667531D01*
X23911662Y-23667531D02*
X23892615Y-23677055D01*
X23892615Y-23677055D02*
X23844996Y-23677055D01*
X23844996Y-23677055D02*
X23825948Y-23667531D01*
X23825948Y-23667531D02*
X23816424Y-23658007D01*
X24006900Y-23477055D02*
X24006900Y-23515150D01*
X24083091Y-23477055D02*
X24083091Y-23515150D01*
X24378329Y-23753245D02*
X24368805Y-23743721D01*
X24368805Y-23743721D02*
X24349758Y-23715150D01*
X24349758Y-23715150D02*
X24340234Y-23696102D01*
X24340234Y-23696102D02*
X24330710Y-23667531D01*
X24330710Y-23667531D02*
X24321186Y-23619912D01*
X24321186Y-23619912D02*
X24321186Y-23581816D01*
X24321186Y-23581816D02*
X24330710Y-23534197D01*
X24330710Y-23534197D02*
X24340234Y-23505626D01*
X24340234Y-23505626D02*
X24349758Y-23486578D01*
X24349758Y-23486578D02*
X24368805Y-23458007D01*
X24368805Y-23458007D02*
X24378329Y-23448483D01*
X24444996Y-23496102D02*
X24454520Y-23486578D01*
X24454520Y-23486578D02*
X24473567Y-23477055D01*
X24473567Y-23477055D02*
X24521186Y-23477055D01*
X24521186Y-23477055D02*
X24540234Y-23486578D01*
X24540234Y-23486578D02*
X24549758Y-23496102D01*
X24549758Y-23496102D02*
X24559281Y-23515150D01*
X24559281Y-23515150D02*
X24559281Y-23534197D01*
X24559281Y-23534197D02*
X24549758Y-23562769D01*
X24549758Y-23562769D02*
X24435472Y-23677055D01*
X24435472Y-23677055D02*
X24559281Y-23677055D01*
X24797377Y-23677055D02*
X24797377Y-23477055D01*
X24883091Y-23677055D02*
X24883091Y-23572293D01*
X24883091Y-23572293D02*
X24873567Y-23553245D01*
X24873567Y-23553245D02*
X24854520Y-23543721D01*
X24854520Y-23543721D02*
X24825948Y-23543721D01*
X24825948Y-23543721D02*
X24806901Y-23553245D01*
X24806901Y-23553245D02*
X24797377Y-23562769D01*
X25006901Y-23677055D02*
X24987853Y-23667531D01*
X24987853Y-23667531D02*
X24978329Y-23658007D01*
X24978329Y-23658007D02*
X24968805Y-23638959D01*
X24968805Y-23638959D02*
X24968805Y-23581816D01*
X24968805Y-23581816D02*
X24978329Y-23562769D01*
X24978329Y-23562769D02*
X24987853Y-23553245D01*
X24987853Y-23553245D02*
X25006901Y-23543721D01*
X25006901Y-23543721D02*
X25035472Y-23543721D01*
X25035472Y-23543721D02*
X25054520Y-23553245D01*
X25054520Y-23553245D02*
X25064043Y-23562769D01*
X25064043Y-23562769D02*
X25073567Y-23581816D01*
X25073567Y-23581816D02*
X25073567Y-23638959D01*
X25073567Y-23638959D02*
X25064043Y-23658007D01*
X25064043Y-23658007D02*
X25054520Y-23667531D01*
X25054520Y-23667531D02*
X25035472Y-23677055D01*
X25035472Y-23677055D02*
X25006901Y-23677055D01*
X25187853Y-23677055D02*
X25168805Y-23667531D01*
X25168805Y-23667531D02*
X25159282Y-23648483D01*
X25159282Y-23648483D02*
X25159282Y-23477055D01*
X25340234Y-23667531D02*
X25321186Y-23677055D01*
X25321186Y-23677055D02*
X25283091Y-23677055D01*
X25283091Y-23677055D02*
X25264043Y-23667531D01*
X25264043Y-23667531D02*
X25254520Y-23648483D01*
X25254520Y-23648483D02*
X25254520Y-23572293D01*
X25254520Y-23572293D02*
X25264043Y-23553245D01*
X25264043Y-23553245D02*
X25283091Y-23543721D01*
X25283091Y-23543721D02*
X25321186Y-23543721D01*
X25321186Y-23543721D02*
X25340234Y-23553245D01*
X25340234Y-23553245D02*
X25349758Y-23572293D01*
X25349758Y-23572293D02*
X25349758Y-23591340D01*
X25349758Y-23591340D02*
X25254520Y-23610388D01*
X25425948Y-23667531D02*
X25444996Y-23677055D01*
X25444996Y-23677055D02*
X25483091Y-23677055D01*
X25483091Y-23677055D02*
X25502139Y-23667531D01*
X25502139Y-23667531D02*
X25511663Y-23648483D01*
X25511663Y-23648483D02*
X25511663Y-23638959D01*
X25511663Y-23638959D02*
X25502139Y-23619912D01*
X25502139Y-23619912D02*
X25483091Y-23610388D01*
X25483091Y-23610388D02*
X25454520Y-23610388D01*
X25454520Y-23610388D02*
X25435472Y-23600864D01*
X25435472Y-23600864D02*
X25425948Y-23581816D01*
X25425948Y-23581816D02*
X25425948Y-23572293D01*
X25425948Y-23572293D02*
X25435472Y-23553245D01*
X25435472Y-23553245D02*
X25454520Y-23543721D01*
X25454520Y-23543721D02*
X25483091Y-23543721D01*
X25483091Y-23543721D02*
X25502139Y-23553245D01*
X25578329Y-23753245D02*
X25587853Y-23743721D01*
X25587853Y-23743721D02*
X25606901Y-23715150D01*
X25606901Y-23715150D02*
X25616424Y-23696102D01*
X25616424Y-23696102D02*
X25625948Y-23667531D01*
X25625948Y-23667531D02*
X25635472Y-23619912D01*
X25635472Y-23619912D02*
X25635472Y-23581816D01*
X25635472Y-23581816D02*
X25625948Y-23534197D01*
X25625948Y-23534197D02*
X25616424Y-23505626D01*
X25616424Y-23505626D02*
X25606901Y-23486578D01*
X25606901Y-23486578D02*
X25587853Y-23458007D01*
X25587853Y-23458007D02*
X25578329Y-23448483D01*
D13*
X20788622Y-23884926D02*
X20788622Y-23814215D01*
X20717911Y-23814215D01*
X20717911Y-23884926D01*
X20788622Y-23884926D01*
D12*
X21168805Y-23941055D02*
X21054519Y-23941055D01*
X21111662Y-23941055D02*
X21111662Y-23741055D01*
X21111662Y-23741055D02*
X21092615Y-23769626D01*
X21092615Y-23769626D02*
X21073567Y-23788674D01*
X21073567Y-23788674D02*
X21054519Y-23798197D01*
X21254519Y-23922007D02*
X21264043Y-23931531D01*
X21264043Y-23931531D02*
X21254519Y-23941055D01*
X21254519Y-23941055D02*
X21244996Y-23931531D01*
X21244996Y-23931531D02*
X21254519Y-23922007D01*
X21254519Y-23922007D02*
X21254519Y-23941055D01*
X21387853Y-23741055D02*
X21406900Y-23741055D01*
X21406900Y-23741055D02*
X21425948Y-23750578D01*
X21425948Y-23750578D02*
X21435472Y-23760102D01*
X21435472Y-23760102D02*
X21444996Y-23779150D01*
X21444996Y-23779150D02*
X21454519Y-23817245D01*
X21454519Y-23817245D02*
X21454519Y-23864864D01*
X21454519Y-23864864D02*
X21444996Y-23902959D01*
X21444996Y-23902959D02*
X21435472Y-23922007D01*
X21435472Y-23922007D02*
X21425948Y-23931531D01*
X21425948Y-23931531D02*
X21406900Y-23941055D01*
X21406900Y-23941055D02*
X21387853Y-23941055D01*
X21387853Y-23941055D02*
X21368805Y-23931531D01*
X21368805Y-23931531D02*
X21359281Y-23922007D01*
X21359281Y-23922007D02*
X21349757Y-23902959D01*
X21349757Y-23902959D02*
X21340234Y-23864864D01*
X21340234Y-23864864D02*
X21340234Y-23817245D01*
X21340234Y-23817245D02*
X21349757Y-23779150D01*
X21349757Y-23779150D02*
X21359281Y-23760102D01*
X21359281Y-23760102D02*
X21368805Y-23750578D01*
X21368805Y-23750578D02*
X21387853Y-23741055D01*
X21578329Y-23741055D02*
X21597377Y-23741055D01*
X21597377Y-23741055D02*
X21616424Y-23750578D01*
X21616424Y-23750578D02*
X21625948Y-23760102D01*
X21625948Y-23760102D02*
X21635472Y-23779150D01*
X21635472Y-23779150D02*
X21644996Y-23817245D01*
X21644996Y-23817245D02*
X21644996Y-23864864D01*
X21644996Y-23864864D02*
X21635472Y-23902959D01*
X21635472Y-23902959D02*
X21625948Y-23922007D01*
X21625948Y-23922007D02*
X21616424Y-23931531D01*
X21616424Y-23931531D02*
X21597377Y-23941055D01*
X21597377Y-23941055D02*
X21578329Y-23941055D01*
X21578329Y-23941055D02*
X21559281Y-23931531D01*
X21559281Y-23931531D02*
X21549757Y-23922007D01*
X21549757Y-23922007D02*
X21540234Y-23902959D01*
X21540234Y-23902959D02*
X21530710Y-23864864D01*
X21530710Y-23864864D02*
X21530710Y-23817245D01*
X21530710Y-23817245D02*
X21540234Y-23779150D01*
X21540234Y-23779150D02*
X21549757Y-23760102D01*
X21549757Y-23760102D02*
X21559281Y-23750578D01*
X21559281Y-23750578D02*
X21578329Y-23741055D01*
X21768805Y-23741055D02*
X21787853Y-23741055D01*
X21787853Y-23741055D02*
X21806900Y-23750578D01*
X21806900Y-23750578D02*
X21816424Y-23760102D01*
X21816424Y-23760102D02*
X21825948Y-23779150D01*
X21825948Y-23779150D02*
X21835472Y-23817245D01*
X21835472Y-23817245D02*
X21835472Y-23864864D01*
X21835472Y-23864864D02*
X21825948Y-23902959D01*
X21825948Y-23902959D02*
X21816424Y-23922007D01*
X21816424Y-23922007D02*
X21806900Y-23931531D01*
X21806900Y-23931531D02*
X21787853Y-23941055D01*
X21787853Y-23941055D02*
X21768805Y-23941055D01*
X21768805Y-23941055D02*
X21749757Y-23931531D01*
X21749757Y-23931531D02*
X21740234Y-23922007D01*
X21740234Y-23922007D02*
X21730710Y-23902959D01*
X21730710Y-23902959D02*
X21721186Y-23864864D01*
X21721186Y-23864864D02*
X21721186Y-23817245D01*
X21721186Y-23817245D02*
X21730710Y-23779150D01*
X21730710Y-23779150D02*
X21740234Y-23760102D01*
X21740234Y-23760102D02*
X21749757Y-23750578D01*
X21749757Y-23750578D02*
X21768805Y-23741055D01*
X21921186Y-23941055D02*
X21921186Y-23807721D01*
X21921186Y-23826769D02*
X21930710Y-23817245D01*
X21930710Y-23817245D02*
X21949757Y-23807721D01*
X21949757Y-23807721D02*
X21978329Y-23807721D01*
X21978329Y-23807721D02*
X21997377Y-23817245D01*
X21997377Y-23817245D02*
X22006900Y-23836293D01*
X22006900Y-23836293D02*
X22006900Y-23941055D01*
X22006900Y-23836293D02*
X22016424Y-23817245D01*
X22016424Y-23817245D02*
X22035472Y-23807721D01*
X22035472Y-23807721D02*
X22064043Y-23807721D01*
X22064043Y-23807721D02*
X22083091Y-23817245D01*
X22083091Y-23817245D02*
X22092615Y-23836293D01*
X22092615Y-23836293D02*
X22092615Y-23941055D01*
X22187853Y-23941055D02*
X22187853Y-23807721D01*
X22187853Y-23826769D02*
X22197377Y-23817245D01*
X22197377Y-23817245D02*
X22216424Y-23807721D01*
X22216424Y-23807721D02*
X22244996Y-23807721D01*
X22244996Y-23807721D02*
X22264043Y-23817245D01*
X22264043Y-23817245D02*
X22273567Y-23836293D01*
X22273567Y-23836293D02*
X22273567Y-23941055D01*
X22273567Y-23836293D02*
X22283091Y-23817245D01*
X22283091Y-23817245D02*
X22302138Y-23807721D01*
X22302138Y-23807721D02*
X22330710Y-23807721D01*
X22330710Y-23807721D02*
X22349758Y-23817245D01*
X22349758Y-23817245D02*
X22359281Y-23836293D01*
X22359281Y-23836293D02*
X22359281Y-23941055D01*
X22749757Y-23731531D02*
X22578329Y-23988674D01*
X23006900Y-23741055D02*
X23025948Y-23741055D01*
X23025948Y-23741055D02*
X23044996Y-23750578D01*
X23044996Y-23750578D02*
X23054519Y-23760102D01*
X23054519Y-23760102D02*
X23064043Y-23779150D01*
X23064043Y-23779150D02*
X23073567Y-23817245D01*
X23073567Y-23817245D02*
X23073567Y-23864864D01*
X23073567Y-23864864D02*
X23064043Y-23902959D01*
X23064043Y-23902959D02*
X23054519Y-23922007D01*
X23054519Y-23922007D02*
X23044996Y-23931531D01*
X23044996Y-23931531D02*
X23025948Y-23941055D01*
X23025948Y-23941055D02*
X23006900Y-23941055D01*
X23006900Y-23941055D02*
X22987853Y-23931531D01*
X22987853Y-23931531D02*
X22978329Y-23922007D01*
X22978329Y-23922007D02*
X22968805Y-23902959D01*
X22968805Y-23902959D02*
X22959281Y-23864864D01*
X22959281Y-23864864D02*
X22959281Y-23817245D01*
X22959281Y-23817245D02*
X22968805Y-23779150D01*
X22968805Y-23779150D02*
X22978329Y-23760102D01*
X22978329Y-23760102D02*
X22987853Y-23750578D01*
X22987853Y-23750578D02*
X23006900Y-23741055D01*
X23159281Y-23922007D02*
X23168805Y-23931531D01*
X23168805Y-23931531D02*
X23159281Y-23941055D01*
X23159281Y-23941055D02*
X23149758Y-23931531D01*
X23149758Y-23931531D02*
X23159281Y-23922007D01*
X23159281Y-23922007D02*
X23159281Y-23941055D01*
X23292615Y-23741055D02*
X23311662Y-23741055D01*
X23311662Y-23741055D02*
X23330710Y-23750578D01*
X23330710Y-23750578D02*
X23340234Y-23760102D01*
X23340234Y-23760102D02*
X23349758Y-23779150D01*
X23349758Y-23779150D02*
X23359281Y-23817245D01*
X23359281Y-23817245D02*
X23359281Y-23864864D01*
X23359281Y-23864864D02*
X23349758Y-23902959D01*
X23349758Y-23902959D02*
X23340234Y-23922007D01*
X23340234Y-23922007D02*
X23330710Y-23931531D01*
X23330710Y-23931531D02*
X23311662Y-23941055D01*
X23311662Y-23941055D02*
X23292615Y-23941055D01*
X23292615Y-23941055D02*
X23273567Y-23931531D01*
X23273567Y-23931531D02*
X23264043Y-23922007D01*
X23264043Y-23922007D02*
X23254519Y-23902959D01*
X23254519Y-23902959D02*
X23244996Y-23864864D01*
X23244996Y-23864864D02*
X23244996Y-23817245D01*
X23244996Y-23817245D02*
X23254519Y-23779150D01*
X23254519Y-23779150D02*
X23264043Y-23760102D01*
X23264043Y-23760102D02*
X23273567Y-23750578D01*
X23273567Y-23750578D02*
X23292615Y-23741055D01*
X23425948Y-23741055D02*
X23549758Y-23741055D01*
X23549758Y-23741055D02*
X23483091Y-23817245D01*
X23483091Y-23817245D02*
X23511662Y-23817245D01*
X23511662Y-23817245D02*
X23530710Y-23826769D01*
X23530710Y-23826769D02*
X23540234Y-23836293D01*
X23540234Y-23836293D02*
X23549758Y-23855340D01*
X23549758Y-23855340D02*
X23549758Y-23902959D01*
X23549758Y-23902959D02*
X23540234Y-23922007D01*
X23540234Y-23922007D02*
X23530710Y-23931531D01*
X23530710Y-23931531D02*
X23511662Y-23941055D01*
X23511662Y-23941055D02*
X23454519Y-23941055D01*
X23454519Y-23941055D02*
X23435472Y-23931531D01*
X23435472Y-23931531D02*
X23425948Y-23922007D01*
X23644996Y-23941055D02*
X23683091Y-23941055D01*
X23683091Y-23941055D02*
X23702139Y-23931531D01*
X23702139Y-23931531D02*
X23711662Y-23922007D01*
X23711662Y-23922007D02*
X23730710Y-23893435D01*
X23730710Y-23893435D02*
X23740234Y-23855340D01*
X23740234Y-23855340D02*
X23740234Y-23779150D01*
X23740234Y-23779150D02*
X23730710Y-23760102D01*
X23730710Y-23760102D02*
X23721186Y-23750578D01*
X23721186Y-23750578D02*
X23702139Y-23741055D01*
X23702139Y-23741055D02*
X23664043Y-23741055D01*
X23664043Y-23741055D02*
X23644996Y-23750578D01*
X23644996Y-23750578D02*
X23635472Y-23760102D01*
X23635472Y-23760102D02*
X23625948Y-23779150D01*
X23625948Y-23779150D02*
X23625948Y-23826769D01*
X23625948Y-23826769D02*
X23635472Y-23845816D01*
X23635472Y-23845816D02*
X23644996Y-23855340D01*
X23644996Y-23855340D02*
X23664043Y-23864864D01*
X23664043Y-23864864D02*
X23702139Y-23864864D01*
X23702139Y-23864864D02*
X23721186Y-23855340D01*
X23721186Y-23855340D02*
X23730710Y-23845816D01*
X23730710Y-23845816D02*
X23740234Y-23826769D01*
X23911662Y-23807721D02*
X23911662Y-23941055D01*
X23864043Y-23731531D02*
X23816424Y-23874388D01*
X23816424Y-23874388D02*
X23940234Y-23874388D01*
X24006900Y-23741055D02*
X24006900Y-23779150D01*
X24083091Y-23741055D02*
X24083091Y-23779150D01*
X24378329Y-24017245D02*
X24368805Y-24007721D01*
X24368805Y-24007721D02*
X24349758Y-23979150D01*
X24349758Y-23979150D02*
X24340234Y-23960102D01*
X24340234Y-23960102D02*
X24330710Y-23931531D01*
X24330710Y-23931531D02*
X24321186Y-23883912D01*
X24321186Y-23883912D02*
X24321186Y-23845816D01*
X24321186Y-23845816D02*
X24330710Y-23798197D01*
X24330710Y-23798197D02*
X24340234Y-23769626D01*
X24340234Y-23769626D02*
X24349758Y-23750578D01*
X24349758Y-23750578D02*
X24368805Y-23722007D01*
X24368805Y-23722007D02*
X24378329Y-23712483D01*
X24559281Y-23941055D02*
X24444996Y-23941055D01*
X24502139Y-23941055D02*
X24502139Y-23741055D01*
X24502139Y-23741055D02*
X24483091Y-23769626D01*
X24483091Y-23769626D02*
X24464043Y-23788674D01*
X24464043Y-23788674D02*
X24444996Y-23798197D01*
X24683091Y-23741055D02*
X24702139Y-23741055D01*
X24702139Y-23741055D02*
X24721186Y-23750578D01*
X24721186Y-23750578D02*
X24730710Y-23760102D01*
X24730710Y-23760102D02*
X24740234Y-23779150D01*
X24740234Y-23779150D02*
X24749758Y-23817245D01*
X24749758Y-23817245D02*
X24749758Y-23864864D01*
X24749758Y-23864864D02*
X24740234Y-23902959D01*
X24740234Y-23902959D02*
X24730710Y-23922007D01*
X24730710Y-23922007D02*
X24721186Y-23931531D01*
X24721186Y-23931531D02*
X24702139Y-23941055D01*
X24702139Y-23941055D02*
X24683091Y-23941055D01*
X24683091Y-23941055D02*
X24664043Y-23931531D01*
X24664043Y-23931531D02*
X24654520Y-23922007D01*
X24654520Y-23922007D02*
X24644996Y-23902959D01*
X24644996Y-23902959D02*
X24635472Y-23864864D01*
X24635472Y-23864864D02*
X24635472Y-23817245D01*
X24635472Y-23817245D02*
X24644996Y-23779150D01*
X24644996Y-23779150D02*
X24654520Y-23760102D01*
X24654520Y-23760102D02*
X24664043Y-23750578D01*
X24664043Y-23750578D02*
X24683091Y-23741055D01*
X24987853Y-23941055D02*
X24987853Y-23741055D01*
X25073567Y-23941055D02*
X25073567Y-23836293D01*
X25073567Y-23836293D02*
X25064043Y-23817245D01*
X25064043Y-23817245D02*
X25044996Y-23807721D01*
X25044996Y-23807721D02*
X25016424Y-23807721D01*
X25016424Y-23807721D02*
X24997377Y-23817245D01*
X24997377Y-23817245D02*
X24987853Y-23826769D01*
X25197377Y-23941055D02*
X25178329Y-23931531D01*
X25178329Y-23931531D02*
X25168805Y-23922007D01*
X25168805Y-23922007D02*
X25159282Y-23902959D01*
X25159282Y-23902959D02*
X25159282Y-23845816D01*
X25159282Y-23845816D02*
X25168805Y-23826769D01*
X25168805Y-23826769D02*
X25178329Y-23817245D01*
X25178329Y-23817245D02*
X25197377Y-23807721D01*
X25197377Y-23807721D02*
X25225948Y-23807721D01*
X25225948Y-23807721D02*
X25244996Y-23817245D01*
X25244996Y-23817245D02*
X25254520Y-23826769D01*
X25254520Y-23826769D02*
X25264043Y-23845816D01*
X25264043Y-23845816D02*
X25264043Y-23902959D01*
X25264043Y-23902959D02*
X25254520Y-23922007D01*
X25254520Y-23922007D02*
X25244996Y-23931531D01*
X25244996Y-23931531D02*
X25225948Y-23941055D01*
X25225948Y-23941055D02*
X25197377Y-23941055D01*
X25378329Y-23941055D02*
X25359282Y-23931531D01*
X25359282Y-23931531D02*
X25349758Y-23912483D01*
X25349758Y-23912483D02*
X25349758Y-23741055D01*
X25530710Y-23931531D02*
X25511663Y-23941055D01*
X25511663Y-23941055D02*
X25473567Y-23941055D01*
X25473567Y-23941055D02*
X25454520Y-23931531D01*
X25454520Y-23931531D02*
X25444996Y-23912483D01*
X25444996Y-23912483D02*
X25444996Y-23836293D01*
X25444996Y-23836293D02*
X25454520Y-23817245D01*
X25454520Y-23817245D02*
X25473567Y-23807721D01*
X25473567Y-23807721D02*
X25511663Y-23807721D01*
X25511663Y-23807721D02*
X25530710Y-23817245D01*
X25530710Y-23817245D02*
X25540234Y-23836293D01*
X25540234Y-23836293D02*
X25540234Y-23855340D01*
X25540234Y-23855340D02*
X25444996Y-23874388D01*
X25616424Y-23931531D02*
X25635472Y-23941055D01*
X25635472Y-23941055D02*
X25673567Y-23941055D01*
X25673567Y-23941055D02*
X25692615Y-23931531D01*
X25692615Y-23931531D02*
X25702139Y-23912483D01*
X25702139Y-23912483D02*
X25702139Y-23902959D01*
X25702139Y-23902959D02*
X25692615Y-23883912D01*
X25692615Y-23883912D02*
X25673567Y-23874388D01*
X25673567Y-23874388D02*
X25644996Y-23874388D01*
X25644996Y-23874388D02*
X25625948Y-23864864D01*
X25625948Y-23864864D02*
X25616424Y-23845816D01*
X25616424Y-23845816D02*
X25616424Y-23836293D01*
X25616424Y-23836293D02*
X25625948Y-23817245D01*
X25625948Y-23817245D02*
X25644996Y-23807721D01*
X25644996Y-23807721D02*
X25673567Y-23807721D01*
X25673567Y-23807721D02*
X25692615Y-23817245D01*
X25768805Y-24017245D02*
X25778329Y-24007721D01*
X25778329Y-24007721D02*
X25797377Y-23979150D01*
X25797377Y-23979150D02*
X25806901Y-23960102D01*
X25806901Y-23960102D02*
X25816424Y-23931531D01*
X25816424Y-23931531D02*
X25825948Y-23883912D01*
X25825948Y-23883912D02*
X25825948Y-23845816D01*
X25825948Y-23845816D02*
X25816424Y-23798197D01*
X25816424Y-23798197D02*
X25806901Y-23769626D01*
X25806901Y-23769626D02*
X25797377Y-23750578D01*
X25797377Y-23750578D02*
X25778329Y-23722007D01*
X25778329Y-23722007D02*
X25768805Y-23712483D01*
D14*
X20748656Y-24168181D02*
X20803266Y-24113571D01*
X20748656Y-24058961D01*
X20694046Y-24113571D01*
X20748656Y-24168181D01*
D12*
X21168805Y-24205055D02*
X21054519Y-24205055D01*
X21111662Y-24205055D02*
X21111662Y-24005055D01*
X21111662Y-24005055D02*
X21092615Y-24033626D01*
X21092615Y-24033626D02*
X21073567Y-24052674D01*
X21073567Y-24052674D02*
X21054519Y-24062197D01*
X21254519Y-24186007D02*
X21264043Y-24195531D01*
X21264043Y-24195531D02*
X21254519Y-24205055D01*
X21254519Y-24205055D02*
X21244996Y-24195531D01*
X21244996Y-24195531D02*
X21254519Y-24186007D01*
X21254519Y-24186007D02*
X21254519Y-24205055D01*
X21387853Y-24005055D02*
X21406900Y-24005055D01*
X21406900Y-24005055D02*
X21425948Y-24014578D01*
X21425948Y-24014578D02*
X21435472Y-24024102D01*
X21435472Y-24024102D02*
X21444996Y-24043150D01*
X21444996Y-24043150D02*
X21454519Y-24081245D01*
X21454519Y-24081245D02*
X21454519Y-24128864D01*
X21454519Y-24128864D02*
X21444996Y-24166959D01*
X21444996Y-24166959D02*
X21435472Y-24186007D01*
X21435472Y-24186007D02*
X21425948Y-24195531D01*
X21425948Y-24195531D02*
X21406900Y-24205055D01*
X21406900Y-24205055D02*
X21387853Y-24205055D01*
X21387853Y-24205055D02*
X21368805Y-24195531D01*
X21368805Y-24195531D02*
X21359281Y-24186007D01*
X21359281Y-24186007D02*
X21349757Y-24166959D01*
X21349757Y-24166959D02*
X21340234Y-24128864D01*
X21340234Y-24128864D02*
X21340234Y-24081245D01*
X21340234Y-24081245D02*
X21349757Y-24043150D01*
X21349757Y-24043150D02*
X21359281Y-24024102D01*
X21359281Y-24024102D02*
X21368805Y-24014578D01*
X21368805Y-24014578D02*
X21387853Y-24005055D01*
X21549757Y-24205055D02*
X21587853Y-24205055D01*
X21587853Y-24205055D02*
X21606900Y-24195531D01*
X21606900Y-24195531D02*
X21616424Y-24186007D01*
X21616424Y-24186007D02*
X21635472Y-24157435D01*
X21635472Y-24157435D02*
X21644996Y-24119340D01*
X21644996Y-24119340D02*
X21644996Y-24043150D01*
X21644996Y-24043150D02*
X21635472Y-24024102D01*
X21635472Y-24024102D02*
X21625948Y-24014578D01*
X21625948Y-24014578D02*
X21606900Y-24005055D01*
X21606900Y-24005055D02*
X21568805Y-24005055D01*
X21568805Y-24005055D02*
X21549757Y-24014578D01*
X21549757Y-24014578D02*
X21540234Y-24024102D01*
X21540234Y-24024102D02*
X21530710Y-24043150D01*
X21530710Y-24043150D02*
X21530710Y-24090769D01*
X21530710Y-24090769D02*
X21540234Y-24109816D01*
X21540234Y-24109816D02*
X21549757Y-24119340D01*
X21549757Y-24119340D02*
X21568805Y-24128864D01*
X21568805Y-24128864D02*
X21606900Y-24128864D01*
X21606900Y-24128864D02*
X21625948Y-24119340D01*
X21625948Y-24119340D02*
X21635472Y-24109816D01*
X21635472Y-24109816D02*
X21644996Y-24090769D01*
X21721186Y-24024102D02*
X21730710Y-24014578D01*
X21730710Y-24014578D02*
X21749757Y-24005055D01*
X21749757Y-24005055D02*
X21797377Y-24005055D01*
X21797377Y-24005055D02*
X21816424Y-24014578D01*
X21816424Y-24014578D02*
X21825948Y-24024102D01*
X21825948Y-24024102D02*
X21835472Y-24043150D01*
X21835472Y-24043150D02*
X21835472Y-24062197D01*
X21835472Y-24062197D02*
X21825948Y-24090769D01*
X21825948Y-24090769D02*
X21711662Y-24205055D01*
X21711662Y-24205055D02*
X21835472Y-24205055D01*
X21921186Y-24205055D02*
X21921186Y-24071721D01*
X21921186Y-24090769D02*
X21930710Y-24081245D01*
X21930710Y-24081245D02*
X21949757Y-24071721D01*
X21949757Y-24071721D02*
X21978329Y-24071721D01*
X21978329Y-24071721D02*
X21997377Y-24081245D01*
X21997377Y-24081245D02*
X22006900Y-24100293D01*
X22006900Y-24100293D02*
X22006900Y-24205055D01*
X22006900Y-24100293D02*
X22016424Y-24081245D01*
X22016424Y-24081245D02*
X22035472Y-24071721D01*
X22035472Y-24071721D02*
X22064043Y-24071721D01*
X22064043Y-24071721D02*
X22083091Y-24081245D01*
X22083091Y-24081245D02*
X22092615Y-24100293D01*
X22092615Y-24100293D02*
X22092615Y-24205055D01*
X22187853Y-24205055D02*
X22187853Y-24071721D01*
X22187853Y-24090769D02*
X22197377Y-24081245D01*
X22197377Y-24081245D02*
X22216424Y-24071721D01*
X22216424Y-24071721D02*
X22244996Y-24071721D01*
X22244996Y-24071721D02*
X22264043Y-24081245D01*
X22264043Y-24081245D02*
X22273567Y-24100293D01*
X22273567Y-24100293D02*
X22273567Y-24205055D01*
X22273567Y-24100293D02*
X22283091Y-24081245D01*
X22283091Y-24081245D02*
X22302138Y-24071721D01*
X22302138Y-24071721D02*
X22330710Y-24071721D01*
X22330710Y-24071721D02*
X22349758Y-24081245D01*
X22349758Y-24081245D02*
X22359281Y-24100293D01*
X22359281Y-24100293D02*
X22359281Y-24205055D01*
X22749757Y-23995531D02*
X22578329Y-24252674D01*
X23006900Y-24005055D02*
X23025948Y-24005055D01*
X23025948Y-24005055D02*
X23044996Y-24014578D01*
X23044996Y-24014578D02*
X23054519Y-24024102D01*
X23054519Y-24024102D02*
X23064043Y-24043150D01*
X23064043Y-24043150D02*
X23073567Y-24081245D01*
X23073567Y-24081245D02*
X23073567Y-24128864D01*
X23073567Y-24128864D02*
X23064043Y-24166959D01*
X23064043Y-24166959D02*
X23054519Y-24186007D01*
X23054519Y-24186007D02*
X23044996Y-24195531D01*
X23044996Y-24195531D02*
X23025948Y-24205055D01*
X23025948Y-24205055D02*
X23006900Y-24205055D01*
X23006900Y-24205055D02*
X22987853Y-24195531D01*
X22987853Y-24195531D02*
X22978329Y-24186007D01*
X22978329Y-24186007D02*
X22968805Y-24166959D01*
X22968805Y-24166959D02*
X22959281Y-24128864D01*
X22959281Y-24128864D02*
X22959281Y-24081245D01*
X22959281Y-24081245D02*
X22968805Y-24043150D01*
X22968805Y-24043150D02*
X22978329Y-24024102D01*
X22978329Y-24024102D02*
X22987853Y-24014578D01*
X22987853Y-24014578D02*
X23006900Y-24005055D01*
X23159281Y-24186007D02*
X23168805Y-24195531D01*
X23168805Y-24195531D02*
X23159281Y-24205055D01*
X23159281Y-24205055D02*
X23149758Y-24195531D01*
X23149758Y-24195531D02*
X23159281Y-24186007D01*
X23159281Y-24186007D02*
X23159281Y-24205055D01*
X23292615Y-24005055D02*
X23311662Y-24005055D01*
X23311662Y-24005055D02*
X23330710Y-24014578D01*
X23330710Y-24014578D02*
X23340234Y-24024102D01*
X23340234Y-24024102D02*
X23349758Y-24043150D01*
X23349758Y-24043150D02*
X23359281Y-24081245D01*
X23359281Y-24081245D02*
X23359281Y-24128864D01*
X23359281Y-24128864D02*
X23349758Y-24166959D01*
X23349758Y-24166959D02*
X23340234Y-24186007D01*
X23340234Y-24186007D02*
X23330710Y-24195531D01*
X23330710Y-24195531D02*
X23311662Y-24205055D01*
X23311662Y-24205055D02*
X23292615Y-24205055D01*
X23292615Y-24205055D02*
X23273567Y-24195531D01*
X23273567Y-24195531D02*
X23264043Y-24186007D01*
X23264043Y-24186007D02*
X23254519Y-24166959D01*
X23254519Y-24166959D02*
X23244996Y-24128864D01*
X23244996Y-24128864D02*
X23244996Y-24081245D01*
X23244996Y-24081245D02*
X23254519Y-24043150D01*
X23254519Y-24043150D02*
X23264043Y-24024102D01*
X23264043Y-24024102D02*
X23273567Y-24014578D01*
X23273567Y-24014578D02*
X23292615Y-24005055D01*
X23530710Y-24071721D02*
X23530710Y-24205055D01*
X23483091Y-23995531D02*
X23435472Y-24138388D01*
X23435472Y-24138388D02*
X23559281Y-24138388D01*
X23616424Y-24005055D02*
X23740234Y-24005055D01*
X23740234Y-24005055D02*
X23673567Y-24081245D01*
X23673567Y-24081245D02*
X23702139Y-24081245D01*
X23702139Y-24081245D02*
X23721186Y-24090769D01*
X23721186Y-24090769D02*
X23730710Y-24100293D01*
X23730710Y-24100293D02*
X23740234Y-24119340D01*
X23740234Y-24119340D02*
X23740234Y-24166959D01*
X23740234Y-24166959D02*
X23730710Y-24186007D01*
X23730710Y-24186007D02*
X23721186Y-24195531D01*
X23721186Y-24195531D02*
X23702139Y-24205055D01*
X23702139Y-24205055D02*
X23644996Y-24205055D01*
X23644996Y-24205055D02*
X23625948Y-24195531D01*
X23625948Y-24195531D02*
X23616424Y-24186007D01*
X23864043Y-24005055D02*
X23883091Y-24005055D01*
X23883091Y-24005055D02*
X23902139Y-24014578D01*
X23902139Y-24014578D02*
X23911662Y-24024102D01*
X23911662Y-24024102D02*
X23921186Y-24043150D01*
X23921186Y-24043150D02*
X23930710Y-24081245D01*
X23930710Y-24081245D02*
X23930710Y-24128864D01*
X23930710Y-24128864D02*
X23921186Y-24166959D01*
X23921186Y-24166959D02*
X23911662Y-24186007D01*
X23911662Y-24186007D02*
X23902139Y-24195531D01*
X23902139Y-24195531D02*
X23883091Y-24205055D01*
X23883091Y-24205055D02*
X23864043Y-24205055D01*
X23864043Y-24205055D02*
X23844996Y-24195531D01*
X23844996Y-24195531D02*
X23835472Y-24186007D01*
X23835472Y-24186007D02*
X23825948Y-24166959D01*
X23825948Y-24166959D02*
X23816424Y-24128864D01*
X23816424Y-24128864D02*
X23816424Y-24081245D01*
X23816424Y-24081245D02*
X23825948Y-24043150D01*
X23825948Y-24043150D02*
X23835472Y-24024102D01*
X23835472Y-24024102D02*
X23844996Y-24014578D01*
X23844996Y-24014578D02*
X23864043Y-24005055D01*
X24006900Y-24005055D02*
X24006900Y-24043150D01*
X24083091Y-24005055D02*
X24083091Y-24043150D01*
X24378329Y-24281245D02*
X24368805Y-24271721D01*
X24368805Y-24271721D02*
X24349758Y-24243150D01*
X24349758Y-24243150D02*
X24340234Y-24224102D01*
X24340234Y-24224102D02*
X24330710Y-24195531D01*
X24330710Y-24195531D02*
X24321186Y-24147912D01*
X24321186Y-24147912D02*
X24321186Y-24109816D01*
X24321186Y-24109816D02*
X24330710Y-24062197D01*
X24330710Y-24062197D02*
X24340234Y-24033626D01*
X24340234Y-24033626D02*
X24349758Y-24014578D01*
X24349758Y-24014578D02*
X24368805Y-23986007D01*
X24368805Y-23986007D02*
X24378329Y-23976483D01*
X24444996Y-24024102D02*
X24454520Y-24014578D01*
X24454520Y-24014578D02*
X24473567Y-24005055D01*
X24473567Y-24005055D02*
X24521186Y-24005055D01*
X24521186Y-24005055D02*
X24540234Y-24014578D01*
X24540234Y-24014578D02*
X24549758Y-24024102D01*
X24549758Y-24024102D02*
X24559281Y-24043150D01*
X24559281Y-24043150D02*
X24559281Y-24062197D01*
X24559281Y-24062197D02*
X24549758Y-24090769D01*
X24549758Y-24090769D02*
X24435472Y-24205055D01*
X24435472Y-24205055D02*
X24559281Y-24205055D01*
X24625948Y-24005055D02*
X24759281Y-24005055D01*
X24759281Y-24005055D02*
X24673567Y-24205055D01*
X24987853Y-24205055D02*
X24987853Y-24005055D01*
X25073567Y-24205055D02*
X25073567Y-24100293D01*
X25073567Y-24100293D02*
X25064043Y-24081245D01*
X25064043Y-24081245D02*
X25044996Y-24071721D01*
X25044996Y-24071721D02*
X25016424Y-24071721D01*
X25016424Y-24071721D02*
X24997377Y-24081245D01*
X24997377Y-24081245D02*
X24987853Y-24090769D01*
X25197377Y-24205055D02*
X25178329Y-24195531D01*
X25178329Y-24195531D02*
X25168805Y-24186007D01*
X25168805Y-24186007D02*
X25159282Y-24166959D01*
X25159282Y-24166959D02*
X25159282Y-24109816D01*
X25159282Y-24109816D02*
X25168805Y-24090769D01*
X25168805Y-24090769D02*
X25178329Y-24081245D01*
X25178329Y-24081245D02*
X25197377Y-24071721D01*
X25197377Y-24071721D02*
X25225948Y-24071721D01*
X25225948Y-24071721D02*
X25244996Y-24081245D01*
X25244996Y-24081245D02*
X25254520Y-24090769D01*
X25254520Y-24090769D02*
X25264043Y-24109816D01*
X25264043Y-24109816D02*
X25264043Y-24166959D01*
X25264043Y-24166959D02*
X25254520Y-24186007D01*
X25254520Y-24186007D02*
X25244996Y-24195531D01*
X25244996Y-24195531D02*
X25225948Y-24205055D01*
X25225948Y-24205055D02*
X25197377Y-24205055D01*
X25378329Y-24205055D02*
X25359282Y-24195531D01*
X25359282Y-24195531D02*
X25349758Y-24176483D01*
X25349758Y-24176483D02*
X25349758Y-24005055D01*
X25530710Y-24195531D02*
X25511663Y-24205055D01*
X25511663Y-24205055D02*
X25473567Y-24205055D01*
X25473567Y-24205055D02*
X25454520Y-24195531D01*
X25454520Y-24195531D02*
X25444996Y-24176483D01*
X25444996Y-24176483D02*
X25444996Y-24100293D01*
X25444996Y-24100293D02*
X25454520Y-24081245D01*
X25454520Y-24081245D02*
X25473567Y-24071721D01*
X25473567Y-24071721D02*
X25511663Y-24071721D01*
X25511663Y-24071721D02*
X25530710Y-24081245D01*
X25530710Y-24081245D02*
X25540234Y-24100293D01*
X25540234Y-24100293D02*
X25540234Y-24119340D01*
X25540234Y-24119340D02*
X25444996Y-24138388D01*
X25616424Y-24195531D02*
X25635472Y-24205055D01*
X25635472Y-24205055D02*
X25673567Y-24205055D01*
X25673567Y-24205055D02*
X25692615Y-24195531D01*
X25692615Y-24195531D02*
X25702139Y-24176483D01*
X25702139Y-24176483D02*
X25702139Y-24166959D01*
X25702139Y-24166959D02*
X25692615Y-24147912D01*
X25692615Y-24147912D02*
X25673567Y-24138388D01*
X25673567Y-24138388D02*
X25644996Y-24138388D01*
X25644996Y-24138388D02*
X25625948Y-24128864D01*
X25625948Y-24128864D02*
X25616424Y-24109816D01*
X25616424Y-24109816D02*
X25616424Y-24100293D01*
X25616424Y-24100293D02*
X25625948Y-24081245D01*
X25625948Y-24081245D02*
X25644996Y-24071721D01*
X25644996Y-24071721D02*
X25673567Y-24071721D01*
X25673567Y-24071721D02*
X25692615Y-24081245D01*
X25768805Y-24281245D02*
X25778329Y-24271721D01*
X25778329Y-24271721D02*
X25797377Y-24243150D01*
X25797377Y-24243150D02*
X25806901Y-24224102D01*
X25806901Y-24224102D02*
X25816424Y-24195531D01*
X25816424Y-24195531D02*
X25825948Y-24147912D01*
X25825948Y-24147912D02*
X25825948Y-24109816D01*
X25825948Y-24109816D02*
X25816424Y-24062197D01*
X25816424Y-24062197D02*
X25806901Y-24033626D01*
X25806901Y-24033626D02*
X25797377Y-24014578D01*
X25797377Y-24014578D02*
X25778329Y-23986007D01*
X25778329Y-23986007D02*
X25768805Y-23976483D01*
D10*
X20653266Y-24302571D02*
X20803266Y-24452571D01*
X20803266Y-24302571D02*
X20653266Y-24452571D01*
X20803266Y-24377571D02*
G75*
G02*
X20653266Y-24377571I-75000J0D01*
G01*
X20653266Y-24377571D02*
G75*
G02*
X20803266Y-24377571I75000J0D01*
G01*
D12*
X21168805Y-24469055D02*
X21054519Y-24469055D01*
X21111662Y-24469055D02*
X21111662Y-24269055D01*
X21111662Y-24269055D02*
X21092615Y-24297626D01*
X21092615Y-24297626D02*
X21073567Y-24316674D01*
X21073567Y-24316674D02*
X21054519Y-24326197D01*
X21254519Y-24450007D02*
X21264043Y-24459531D01*
X21264043Y-24459531D02*
X21254519Y-24469055D01*
X21254519Y-24469055D02*
X21244996Y-24459531D01*
X21244996Y-24459531D02*
X21254519Y-24450007D01*
X21254519Y-24450007D02*
X21254519Y-24469055D01*
X21444996Y-24269055D02*
X21349757Y-24269055D01*
X21349757Y-24269055D02*
X21340234Y-24364293D01*
X21340234Y-24364293D02*
X21349757Y-24354769D01*
X21349757Y-24354769D02*
X21368805Y-24345245D01*
X21368805Y-24345245D02*
X21416424Y-24345245D01*
X21416424Y-24345245D02*
X21435472Y-24354769D01*
X21435472Y-24354769D02*
X21444996Y-24364293D01*
X21444996Y-24364293D02*
X21454519Y-24383340D01*
X21454519Y-24383340D02*
X21454519Y-24430959D01*
X21454519Y-24430959D02*
X21444996Y-24450007D01*
X21444996Y-24450007D02*
X21435472Y-24459531D01*
X21435472Y-24459531D02*
X21416424Y-24469055D01*
X21416424Y-24469055D02*
X21368805Y-24469055D01*
X21368805Y-24469055D02*
X21349757Y-24459531D01*
X21349757Y-24459531D02*
X21340234Y-24450007D01*
X21578329Y-24269055D02*
X21597377Y-24269055D01*
X21597377Y-24269055D02*
X21616424Y-24278578D01*
X21616424Y-24278578D02*
X21625948Y-24288102D01*
X21625948Y-24288102D02*
X21635472Y-24307150D01*
X21635472Y-24307150D02*
X21644996Y-24345245D01*
X21644996Y-24345245D02*
X21644996Y-24392864D01*
X21644996Y-24392864D02*
X21635472Y-24430959D01*
X21635472Y-24430959D02*
X21625948Y-24450007D01*
X21625948Y-24450007D02*
X21616424Y-24459531D01*
X21616424Y-24459531D02*
X21597377Y-24469055D01*
X21597377Y-24469055D02*
X21578329Y-24469055D01*
X21578329Y-24469055D02*
X21559281Y-24459531D01*
X21559281Y-24459531D02*
X21549757Y-24450007D01*
X21549757Y-24450007D02*
X21540234Y-24430959D01*
X21540234Y-24430959D02*
X21530710Y-24392864D01*
X21530710Y-24392864D02*
X21530710Y-24345245D01*
X21530710Y-24345245D02*
X21540234Y-24307150D01*
X21540234Y-24307150D02*
X21549757Y-24288102D01*
X21549757Y-24288102D02*
X21559281Y-24278578D01*
X21559281Y-24278578D02*
X21578329Y-24269055D01*
X21768805Y-24269055D02*
X21787853Y-24269055D01*
X21787853Y-24269055D02*
X21806900Y-24278578D01*
X21806900Y-24278578D02*
X21816424Y-24288102D01*
X21816424Y-24288102D02*
X21825948Y-24307150D01*
X21825948Y-24307150D02*
X21835472Y-24345245D01*
X21835472Y-24345245D02*
X21835472Y-24392864D01*
X21835472Y-24392864D02*
X21825948Y-24430959D01*
X21825948Y-24430959D02*
X21816424Y-24450007D01*
X21816424Y-24450007D02*
X21806900Y-24459531D01*
X21806900Y-24459531D02*
X21787853Y-24469055D01*
X21787853Y-24469055D02*
X21768805Y-24469055D01*
X21768805Y-24469055D02*
X21749757Y-24459531D01*
X21749757Y-24459531D02*
X21740234Y-24450007D01*
X21740234Y-24450007D02*
X21730710Y-24430959D01*
X21730710Y-24430959D02*
X21721186Y-24392864D01*
X21721186Y-24392864D02*
X21721186Y-24345245D01*
X21721186Y-24345245D02*
X21730710Y-24307150D01*
X21730710Y-24307150D02*
X21740234Y-24288102D01*
X21740234Y-24288102D02*
X21749757Y-24278578D01*
X21749757Y-24278578D02*
X21768805Y-24269055D01*
X21921186Y-24469055D02*
X21921186Y-24335721D01*
X21921186Y-24354769D02*
X21930710Y-24345245D01*
X21930710Y-24345245D02*
X21949757Y-24335721D01*
X21949757Y-24335721D02*
X21978329Y-24335721D01*
X21978329Y-24335721D02*
X21997377Y-24345245D01*
X21997377Y-24345245D02*
X22006900Y-24364293D01*
X22006900Y-24364293D02*
X22006900Y-24469055D01*
X22006900Y-24364293D02*
X22016424Y-24345245D01*
X22016424Y-24345245D02*
X22035472Y-24335721D01*
X22035472Y-24335721D02*
X22064043Y-24335721D01*
X22064043Y-24335721D02*
X22083091Y-24345245D01*
X22083091Y-24345245D02*
X22092615Y-24364293D01*
X22092615Y-24364293D02*
X22092615Y-24469055D01*
X22187853Y-24469055D02*
X22187853Y-24335721D01*
X22187853Y-24354769D02*
X22197377Y-24345245D01*
X22197377Y-24345245D02*
X22216424Y-24335721D01*
X22216424Y-24335721D02*
X22244996Y-24335721D01*
X22244996Y-24335721D02*
X22264043Y-24345245D01*
X22264043Y-24345245D02*
X22273567Y-24364293D01*
X22273567Y-24364293D02*
X22273567Y-24469055D01*
X22273567Y-24364293D02*
X22283091Y-24345245D01*
X22283091Y-24345245D02*
X22302138Y-24335721D01*
X22302138Y-24335721D02*
X22330710Y-24335721D01*
X22330710Y-24335721D02*
X22349758Y-24345245D01*
X22349758Y-24345245D02*
X22359281Y-24364293D01*
X22359281Y-24364293D02*
X22359281Y-24469055D01*
X22749757Y-24259531D02*
X22578329Y-24516674D01*
X23006900Y-24269055D02*
X23025948Y-24269055D01*
X23025948Y-24269055D02*
X23044996Y-24278578D01*
X23044996Y-24278578D02*
X23054519Y-24288102D01*
X23054519Y-24288102D02*
X23064043Y-24307150D01*
X23064043Y-24307150D02*
X23073567Y-24345245D01*
X23073567Y-24345245D02*
X23073567Y-24392864D01*
X23073567Y-24392864D02*
X23064043Y-24430959D01*
X23064043Y-24430959D02*
X23054519Y-24450007D01*
X23054519Y-24450007D02*
X23044996Y-24459531D01*
X23044996Y-24459531D02*
X23025948Y-24469055D01*
X23025948Y-24469055D02*
X23006900Y-24469055D01*
X23006900Y-24469055D02*
X22987853Y-24459531D01*
X22987853Y-24459531D02*
X22978329Y-24450007D01*
X22978329Y-24450007D02*
X22968805Y-24430959D01*
X22968805Y-24430959D02*
X22959281Y-24392864D01*
X22959281Y-24392864D02*
X22959281Y-24345245D01*
X22959281Y-24345245D02*
X22968805Y-24307150D01*
X22968805Y-24307150D02*
X22978329Y-24288102D01*
X22978329Y-24288102D02*
X22987853Y-24278578D01*
X22987853Y-24278578D02*
X23006900Y-24269055D01*
X23159281Y-24450007D02*
X23168805Y-24459531D01*
X23168805Y-24459531D02*
X23159281Y-24469055D01*
X23159281Y-24469055D02*
X23149758Y-24459531D01*
X23149758Y-24459531D02*
X23159281Y-24450007D01*
X23159281Y-24450007D02*
X23159281Y-24469055D01*
X23292615Y-24269055D02*
X23311662Y-24269055D01*
X23311662Y-24269055D02*
X23330710Y-24278578D01*
X23330710Y-24278578D02*
X23340234Y-24288102D01*
X23340234Y-24288102D02*
X23349758Y-24307150D01*
X23349758Y-24307150D02*
X23359281Y-24345245D01*
X23359281Y-24345245D02*
X23359281Y-24392864D01*
X23359281Y-24392864D02*
X23349758Y-24430959D01*
X23349758Y-24430959D02*
X23340234Y-24450007D01*
X23340234Y-24450007D02*
X23330710Y-24459531D01*
X23330710Y-24459531D02*
X23311662Y-24469055D01*
X23311662Y-24469055D02*
X23292615Y-24469055D01*
X23292615Y-24469055D02*
X23273567Y-24459531D01*
X23273567Y-24459531D02*
X23264043Y-24450007D01*
X23264043Y-24450007D02*
X23254519Y-24430959D01*
X23254519Y-24430959D02*
X23244996Y-24392864D01*
X23244996Y-24392864D02*
X23244996Y-24345245D01*
X23244996Y-24345245D02*
X23254519Y-24307150D01*
X23254519Y-24307150D02*
X23264043Y-24288102D01*
X23264043Y-24288102D02*
X23273567Y-24278578D01*
X23273567Y-24278578D02*
X23292615Y-24269055D01*
X23540234Y-24269055D02*
X23444996Y-24269055D01*
X23444996Y-24269055D02*
X23435472Y-24364293D01*
X23435472Y-24364293D02*
X23444996Y-24354769D01*
X23444996Y-24354769D02*
X23464043Y-24345245D01*
X23464043Y-24345245D02*
X23511662Y-24345245D01*
X23511662Y-24345245D02*
X23530710Y-24354769D01*
X23530710Y-24354769D02*
X23540234Y-24364293D01*
X23540234Y-24364293D02*
X23549758Y-24383340D01*
X23549758Y-24383340D02*
X23549758Y-24430959D01*
X23549758Y-24430959D02*
X23540234Y-24450007D01*
X23540234Y-24450007D02*
X23530710Y-24459531D01*
X23530710Y-24459531D02*
X23511662Y-24469055D01*
X23511662Y-24469055D02*
X23464043Y-24469055D01*
X23464043Y-24469055D02*
X23444996Y-24459531D01*
X23444996Y-24459531D02*
X23435472Y-24450007D01*
X23644996Y-24469055D02*
X23683091Y-24469055D01*
X23683091Y-24469055D02*
X23702139Y-24459531D01*
X23702139Y-24459531D02*
X23711662Y-24450007D01*
X23711662Y-24450007D02*
X23730710Y-24421435D01*
X23730710Y-24421435D02*
X23740234Y-24383340D01*
X23740234Y-24383340D02*
X23740234Y-24307150D01*
X23740234Y-24307150D02*
X23730710Y-24288102D01*
X23730710Y-24288102D02*
X23721186Y-24278578D01*
X23721186Y-24278578D02*
X23702139Y-24269055D01*
X23702139Y-24269055D02*
X23664043Y-24269055D01*
X23664043Y-24269055D02*
X23644996Y-24278578D01*
X23644996Y-24278578D02*
X23635472Y-24288102D01*
X23635472Y-24288102D02*
X23625948Y-24307150D01*
X23625948Y-24307150D02*
X23625948Y-24354769D01*
X23625948Y-24354769D02*
X23635472Y-24373816D01*
X23635472Y-24373816D02*
X23644996Y-24383340D01*
X23644996Y-24383340D02*
X23664043Y-24392864D01*
X23664043Y-24392864D02*
X23702139Y-24392864D01*
X23702139Y-24392864D02*
X23721186Y-24383340D01*
X23721186Y-24383340D02*
X23730710Y-24373816D01*
X23730710Y-24373816D02*
X23740234Y-24354769D01*
X23930710Y-24469055D02*
X23816424Y-24469055D01*
X23873567Y-24469055D02*
X23873567Y-24269055D01*
X23873567Y-24269055D02*
X23854519Y-24297626D01*
X23854519Y-24297626D02*
X23835472Y-24316674D01*
X23835472Y-24316674D02*
X23816424Y-24326197D01*
X24006900Y-24269055D02*
X24006900Y-24307150D01*
X24083091Y-24269055D02*
X24083091Y-24307150D01*
X24378329Y-24545245D02*
X24368805Y-24535721D01*
X24368805Y-24535721D02*
X24349758Y-24507150D01*
X24349758Y-24507150D02*
X24340234Y-24488102D01*
X24340234Y-24488102D02*
X24330710Y-24459531D01*
X24330710Y-24459531D02*
X24321186Y-24411912D01*
X24321186Y-24411912D02*
X24321186Y-24373816D01*
X24321186Y-24373816D02*
X24330710Y-24326197D01*
X24330710Y-24326197D02*
X24340234Y-24297626D01*
X24340234Y-24297626D02*
X24349758Y-24278578D01*
X24349758Y-24278578D02*
X24368805Y-24250007D01*
X24368805Y-24250007D02*
X24378329Y-24240483D01*
X24492615Y-24269055D02*
X24511662Y-24269055D01*
X24511662Y-24269055D02*
X24530710Y-24278578D01*
X24530710Y-24278578D02*
X24540234Y-24288102D01*
X24540234Y-24288102D02*
X24549758Y-24307150D01*
X24549758Y-24307150D02*
X24559281Y-24345245D01*
X24559281Y-24345245D02*
X24559281Y-24392864D01*
X24559281Y-24392864D02*
X24549758Y-24430959D01*
X24549758Y-24430959D02*
X24540234Y-24450007D01*
X24540234Y-24450007D02*
X24530710Y-24459531D01*
X24530710Y-24459531D02*
X24511662Y-24469055D01*
X24511662Y-24469055D02*
X24492615Y-24469055D01*
X24492615Y-24469055D02*
X24473567Y-24459531D01*
X24473567Y-24459531D02*
X24464043Y-24450007D01*
X24464043Y-24450007D02*
X24454520Y-24430959D01*
X24454520Y-24430959D02*
X24444996Y-24392864D01*
X24444996Y-24392864D02*
X24444996Y-24345245D01*
X24444996Y-24345245D02*
X24454520Y-24307150D01*
X24454520Y-24307150D02*
X24464043Y-24288102D01*
X24464043Y-24288102D02*
X24473567Y-24278578D01*
X24473567Y-24278578D02*
X24492615Y-24269055D01*
X24797377Y-24469055D02*
X24797377Y-24269055D01*
X24883091Y-24469055D02*
X24883091Y-24364293D01*
X24883091Y-24364293D02*
X24873567Y-24345245D01*
X24873567Y-24345245D02*
X24854520Y-24335721D01*
X24854520Y-24335721D02*
X24825948Y-24335721D01*
X24825948Y-24335721D02*
X24806901Y-24345245D01*
X24806901Y-24345245D02*
X24797377Y-24354769D01*
X25006901Y-24469055D02*
X24987853Y-24459531D01*
X24987853Y-24459531D02*
X24978329Y-24450007D01*
X24978329Y-24450007D02*
X24968805Y-24430959D01*
X24968805Y-24430959D02*
X24968805Y-24373816D01*
X24968805Y-24373816D02*
X24978329Y-24354769D01*
X24978329Y-24354769D02*
X24987853Y-24345245D01*
X24987853Y-24345245D02*
X25006901Y-24335721D01*
X25006901Y-24335721D02*
X25035472Y-24335721D01*
X25035472Y-24335721D02*
X25054520Y-24345245D01*
X25054520Y-24345245D02*
X25064043Y-24354769D01*
X25064043Y-24354769D02*
X25073567Y-24373816D01*
X25073567Y-24373816D02*
X25073567Y-24430959D01*
X25073567Y-24430959D02*
X25064043Y-24450007D01*
X25064043Y-24450007D02*
X25054520Y-24459531D01*
X25054520Y-24459531D02*
X25035472Y-24469055D01*
X25035472Y-24469055D02*
X25006901Y-24469055D01*
X25187853Y-24469055D02*
X25168805Y-24459531D01*
X25168805Y-24459531D02*
X25159282Y-24440483D01*
X25159282Y-24440483D02*
X25159282Y-24269055D01*
X25340234Y-24459531D02*
X25321186Y-24469055D01*
X25321186Y-24469055D02*
X25283091Y-24469055D01*
X25283091Y-24469055D02*
X25264043Y-24459531D01*
X25264043Y-24459531D02*
X25254520Y-24440483D01*
X25254520Y-24440483D02*
X25254520Y-24364293D01*
X25254520Y-24364293D02*
X25264043Y-24345245D01*
X25264043Y-24345245D02*
X25283091Y-24335721D01*
X25283091Y-24335721D02*
X25321186Y-24335721D01*
X25321186Y-24335721D02*
X25340234Y-24345245D01*
X25340234Y-24345245D02*
X25349758Y-24364293D01*
X25349758Y-24364293D02*
X25349758Y-24383340D01*
X25349758Y-24383340D02*
X25254520Y-24402388D01*
X25425948Y-24459531D02*
X25444996Y-24469055D01*
X25444996Y-24469055D02*
X25483091Y-24469055D01*
X25483091Y-24469055D02*
X25502139Y-24459531D01*
X25502139Y-24459531D02*
X25511663Y-24440483D01*
X25511663Y-24440483D02*
X25511663Y-24430959D01*
X25511663Y-24430959D02*
X25502139Y-24411912D01*
X25502139Y-24411912D02*
X25483091Y-24402388D01*
X25483091Y-24402388D02*
X25454520Y-24402388D01*
X25454520Y-24402388D02*
X25435472Y-24392864D01*
X25435472Y-24392864D02*
X25425948Y-24373816D01*
X25425948Y-24373816D02*
X25425948Y-24364293D01*
X25425948Y-24364293D02*
X25435472Y-24345245D01*
X25435472Y-24345245D02*
X25454520Y-24335721D01*
X25454520Y-24335721D02*
X25483091Y-24335721D01*
X25483091Y-24335721D02*
X25502139Y-24345245D01*
X25749758Y-24392864D02*
X25902139Y-24392864D01*
X25825948Y-24469055D02*
X25825948Y-24316674D01*
X26140234Y-24288102D02*
X26149758Y-24278578D01*
X26149758Y-24278578D02*
X26168805Y-24269055D01*
X26168805Y-24269055D02*
X26216425Y-24269055D01*
X26216425Y-24269055D02*
X26235472Y-24278578D01*
X26235472Y-24278578D02*
X26244996Y-24288102D01*
X26244996Y-24288102D02*
X26254520Y-24307150D01*
X26254520Y-24307150D02*
X26254520Y-24326197D01*
X26254520Y-24326197D02*
X26244996Y-24354769D01*
X26244996Y-24354769D02*
X26130710Y-24469055D01*
X26130710Y-24469055D02*
X26254520Y-24469055D01*
X26483091Y-24459531D02*
X26502139Y-24469055D01*
X26502139Y-24469055D02*
X26540234Y-24469055D01*
X26540234Y-24469055D02*
X26559282Y-24459531D01*
X26559282Y-24459531D02*
X26568806Y-24440483D01*
X26568806Y-24440483D02*
X26568806Y-24430959D01*
X26568806Y-24430959D02*
X26559282Y-24411912D01*
X26559282Y-24411912D02*
X26540234Y-24402388D01*
X26540234Y-24402388D02*
X26511663Y-24402388D01*
X26511663Y-24402388D02*
X26492615Y-24392864D01*
X26492615Y-24392864D02*
X26483091Y-24373816D01*
X26483091Y-24373816D02*
X26483091Y-24364293D01*
X26483091Y-24364293D02*
X26492615Y-24345245D01*
X26492615Y-24345245D02*
X26511663Y-24335721D01*
X26511663Y-24335721D02*
X26540234Y-24335721D01*
X26540234Y-24335721D02*
X26559282Y-24345245D01*
X26683091Y-24469055D02*
X26664044Y-24459531D01*
X26664044Y-24459531D02*
X26654520Y-24440483D01*
X26654520Y-24440483D02*
X26654520Y-24269055D01*
X26787853Y-24469055D02*
X26768806Y-24459531D01*
X26768806Y-24459531D02*
X26759282Y-24450007D01*
X26759282Y-24450007D02*
X26749758Y-24430959D01*
X26749758Y-24430959D02*
X26749758Y-24373816D01*
X26749758Y-24373816D02*
X26759282Y-24354769D01*
X26759282Y-24354769D02*
X26768806Y-24345245D01*
X26768806Y-24345245D02*
X26787853Y-24335721D01*
X26787853Y-24335721D02*
X26816425Y-24335721D01*
X26816425Y-24335721D02*
X26835472Y-24345245D01*
X26835472Y-24345245D02*
X26844996Y-24354769D01*
X26844996Y-24354769D02*
X26854520Y-24373816D01*
X26854520Y-24373816D02*
X26854520Y-24430959D01*
X26854520Y-24430959D02*
X26844996Y-24450007D01*
X26844996Y-24450007D02*
X26835472Y-24459531D01*
X26835472Y-24459531D02*
X26816425Y-24469055D01*
X26816425Y-24469055D02*
X26787853Y-24469055D01*
X26911663Y-24335721D02*
X26987853Y-24335721D01*
X26940234Y-24269055D02*
X26940234Y-24440483D01*
X26940234Y-24440483D02*
X26949758Y-24459531D01*
X26949758Y-24459531D02*
X26968806Y-24469055D01*
X26968806Y-24469055D02*
X26987853Y-24469055D01*
X27044996Y-24459531D02*
X27064044Y-24469055D01*
X27064044Y-24469055D02*
X27102139Y-24469055D01*
X27102139Y-24469055D02*
X27121187Y-24459531D01*
X27121187Y-24459531D02*
X27130710Y-24440483D01*
X27130710Y-24440483D02*
X27130710Y-24430959D01*
X27130710Y-24430959D02*
X27121187Y-24411912D01*
X27121187Y-24411912D02*
X27102139Y-24402388D01*
X27102139Y-24402388D02*
X27073567Y-24402388D01*
X27073567Y-24402388D02*
X27054520Y-24392864D01*
X27054520Y-24392864D02*
X27044996Y-24373816D01*
X27044996Y-24373816D02*
X27044996Y-24364293D01*
X27044996Y-24364293D02*
X27054520Y-24345245D01*
X27054520Y-24345245D02*
X27073567Y-24335721D01*
X27073567Y-24335721D02*
X27102139Y-24335721D01*
X27102139Y-24335721D02*
X27121187Y-24345245D01*
X27197377Y-24545245D02*
X27206901Y-24535721D01*
X27206901Y-24535721D02*
X27225948Y-24507150D01*
X27225948Y-24507150D02*
X27235472Y-24488102D01*
X27235472Y-24488102D02*
X27244996Y-24459531D01*
X27244996Y-24459531D02*
X27254520Y-24411912D01*
X27254520Y-24411912D02*
X27254520Y-24373816D01*
X27254520Y-24373816D02*
X27244996Y-24326197D01*
X27244996Y-24326197D02*
X27235472Y-24297626D01*
X27235472Y-24297626D02*
X27225948Y-24278578D01*
X27225948Y-24278578D02*
X27206901Y-24250007D01*
X27206901Y-24250007D02*
X27197377Y-24240483D01*
X20603266Y-24547571D02*
X20803266Y-24747571D01*
X20803266Y-24547571D02*
X20603266Y-24747571D01*
X20703266Y-24547571D02*
X20703266Y-24747571D01*
X20603266Y-24647571D02*
X20803266Y-24647571D01*
X21054519Y-24558102D02*
X21064043Y-24548578D01*
X21064043Y-24548578D02*
X21083091Y-24539055D01*
X21083091Y-24539055D02*
X21130710Y-24539055D01*
X21130710Y-24539055D02*
X21149757Y-24548578D01*
X21149757Y-24548578D02*
X21159281Y-24558102D01*
X21159281Y-24558102D02*
X21168805Y-24577150D01*
X21168805Y-24577150D02*
X21168805Y-24596197D01*
X21168805Y-24596197D02*
X21159281Y-24624769D01*
X21159281Y-24624769D02*
X21044996Y-24739055D01*
X21044996Y-24739055D02*
X21168805Y-24739055D01*
X21254519Y-24720007D02*
X21264043Y-24729531D01*
X21264043Y-24729531D02*
X21254519Y-24739055D01*
X21254519Y-24739055D02*
X21244996Y-24729531D01*
X21244996Y-24729531D02*
X21254519Y-24720007D01*
X21254519Y-24720007D02*
X21254519Y-24739055D01*
X21340234Y-24558102D02*
X21349757Y-24548578D01*
X21349757Y-24548578D02*
X21368805Y-24539055D01*
X21368805Y-24539055D02*
X21416424Y-24539055D01*
X21416424Y-24539055D02*
X21435472Y-24548578D01*
X21435472Y-24548578D02*
X21444996Y-24558102D01*
X21444996Y-24558102D02*
X21454519Y-24577150D01*
X21454519Y-24577150D02*
X21454519Y-24596197D01*
X21454519Y-24596197D02*
X21444996Y-24624769D01*
X21444996Y-24624769D02*
X21330710Y-24739055D01*
X21330710Y-24739055D02*
X21454519Y-24739055D01*
X21578329Y-24539055D02*
X21597377Y-24539055D01*
X21597377Y-24539055D02*
X21616424Y-24548578D01*
X21616424Y-24548578D02*
X21625948Y-24558102D01*
X21625948Y-24558102D02*
X21635472Y-24577150D01*
X21635472Y-24577150D02*
X21644996Y-24615245D01*
X21644996Y-24615245D02*
X21644996Y-24662864D01*
X21644996Y-24662864D02*
X21635472Y-24700959D01*
X21635472Y-24700959D02*
X21625948Y-24720007D01*
X21625948Y-24720007D02*
X21616424Y-24729531D01*
X21616424Y-24729531D02*
X21597377Y-24739055D01*
X21597377Y-24739055D02*
X21578329Y-24739055D01*
X21578329Y-24739055D02*
X21559281Y-24729531D01*
X21559281Y-24729531D02*
X21549757Y-24720007D01*
X21549757Y-24720007D02*
X21540234Y-24700959D01*
X21540234Y-24700959D02*
X21530710Y-24662864D01*
X21530710Y-24662864D02*
X21530710Y-24615245D01*
X21530710Y-24615245D02*
X21540234Y-24577150D01*
X21540234Y-24577150D02*
X21549757Y-24558102D01*
X21549757Y-24558102D02*
X21559281Y-24548578D01*
X21559281Y-24548578D02*
X21578329Y-24539055D01*
X21768805Y-24539055D02*
X21787853Y-24539055D01*
X21787853Y-24539055D02*
X21806900Y-24548578D01*
X21806900Y-24548578D02*
X21816424Y-24558102D01*
X21816424Y-24558102D02*
X21825948Y-24577150D01*
X21825948Y-24577150D02*
X21835472Y-24615245D01*
X21835472Y-24615245D02*
X21835472Y-24662864D01*
X21835472Y-24662864D02*
X21825948Y-24700959D01*
X21825948Y-24700959D02*
X21816424Y-24720007D01*
X21816424Y-24720007D02*
X21806900Y-24729531D01*
X21806900Y-24729531D02*
X21787853Y-24739055D01*
X21787853Y-24739055D02*
X21768805Y-24739055D01*
X21768805Y-24739055D02*
X21749757Y-24729531D01*
X21749757Y-24729531D02*
X21740234Y-24720007D01*
X21740234Y-24720007D02*
X21730710Y-24700959D01*
X21730710Y-24700959D02*
X21721186Y-24662864D01*
X21721186Y-24662864D02*
X21721186Y-24615245D01*
X21721186Y-24615245D02*
X21730710Y-24577150D01*
X21730710Y-24577150D02*
X21740234Y-24558102D01*
X21740234Y-24558102D02*
X21749757Y-24548578D01*
X21749757Y-24548578D02*
X21768805Y-24539055D01*
X21921186Y-24739055D02*
X21921186Y-24605721D01*
X21921186Y-24624769D02*
X21930710Y-24615245D01*
X21930710Y-24615245D02*
X21949757Y-24605721D01*
X21949757Y-24605721D02*
X21978329Y-24605721D01*
X21978329Y-24605721D02*
X21997377Y-24615245D01*
X21997377Y-24615245D02*
X22006900Y-24634293D01*
X22006900Y-24634293D02*
X22006900Y-24739055D01*
X22006900Y-24634293D02*
X22016424Y-24615245D01*
X22016424Y-24615245D02*
X22035472Y-24605721D01*
X22035472Y-24605721D02*
X22064043Y-24605721D01*
X22064043Y-24605721D02*
X22083091Y-24615245D01*
X22083091Y-24615245D02*
X22092615Y-24634293D01*
X22092615Y-24634293D02*
X22092615Y-24739055D01*
X22187853Y-24739055D02*
X22187853Y-24605721D01*
X22187853Y-24624769D02*
X22197377Y-24615245D01*
X22197377Y-24615245D02*
X22216424Y-24605721D01*
X22216424Y-24605721D02*
X22244996Y-24605721D01*
X22244996Y-24605721D02*
X22264043Y-24615245D01*
X22264043Y-24615245D02*
X22273567Y-24634293D01*
X22273567Y-24634293D02*
X22273567Y-24739055D01*
X22273567Y-24634293D02*
X22283091Y-24615245D01*
X22283091Y-24615245D02*
X22302138Y-24605721D01*
X22302138Y-24605721D02*
X22330710Y-24605721D01*
X22330710Y-24605721D02*
X22349758Y-24615245D01*
X22349758Y-24615245D02*
X22359281Y-24634293D01*
X22359281Y-24634293D02*
X22359281Y-24739055D01*
X22749757Y-24529531D02*
X22578329Y-24786674D01*
X23006900Y-24539055D02*
X23025948Y-24539055D01*
X23025948Y-24539055D02*
X23044996Y-24548578D01*
X23044996Y-24548578D02*
X23054519Y-24558102D01*
X23054519Y-24558102D02*
X23064043Y-24577150D01*
X23064043Y-24577150D02*
X23073567Y-24615245D01*
X23073567Y-24615245D02*
X23073567Y-24662864D01*
X23073567Y-24662864D02*
X23064043Y-24700959D01*
X23064043Y-24700959D02*
X23054519Y-24720007D01*
X23054519Y-24720007D02*
X23044996Y-24729531D01*
X23044996Y-24729531D02*
X23025948Y-24739055D01*
X23025948Y-24739055D02*
X23006900Y-24739055D01*
X23006900Y-24739055D02*
X22987853Y-24729531D01*
X22987853Y-24729531D02*
X22978329Y-24720007D01*
X22978329Y-24720007D02*
X22968805Y-24700959D01*
X22968805Y-24700959D02*
X22959281Y-24662864D01*
X22959281Y-24662864D02*
X22959281Y-24615245D01*
X22959281Y-24615245D02*
X22968805Y-24577150D01*
X22968805Y-24577150D02*
X22978329Y-24558102D01*
X22978329Y-24558102D02*
X22987853Y-24548578D01*
X22987853Y-24548578D02*
X23006900Y-24539055D01*
X23159281Y-24720007D02*
X23168805Y-24729531D01*
X23168805Y-24729531D02*
X23159281Y-24739055D01*
X23159281Y-24739055D02*
X23149758Y-24729531D01*
X23149758Y-24729531D02*
X23159281Y-24720007D01*
X23159281Y-24720007D02*
X23159281Y-24739055D01*
X23292615Y-24539055D02*
X23311662Y-24539055D01*
X23311662Y-24539055D02*
X23330710Y-24548578D01*
X23330710Y-24548578D02*
X23340234Y-24558102D01*
X23340234Y-24558102D02*
X23349758Y-24577150D01*
X23349758Y-24577150D02*
X23359281Y-24615245D01*
X23359281Y-24615245D02*
X23359281Y-24662864D01*
X23359281Y-24662864D02*
X23349758Y-24700959D01*
X23349758Y-24700959D02*
X23340234Y-24720007D01*
X23340234Y-24720007D02*
X23330710Y-24729531D01*
X23330710Y-24729531D02*
X23311662Y-24739055D01*
X23311662Y-24739055D02*
X23292615Y-24739055D01*
X23292615Y-24739055D02*
X23273567Y-24729531D01*
X23273567Y-24729531D02*
X23264043Y-24720007D01*
X23264043Y-24720007D02*
X23254519Y-24700959D01*
X23254519Y-24700959D02*
X23244996Y-24662864D01*
X23244996Y-24662864D02*
X23244996Y-24615245D01*
X23244996Y-24615245D02*
X23254519Y-24577150D01*
X23254519Y-24577150D02*
X23264043Y-24558102D01*
X23264043Y-24558102D02*
X23273567Y-24548578D01*
X23273567Y-24548578D02*
X23292615Y-24539055D01*
X23473567Y-24624769D02*
X23454519Y-24615245D01*
X23454519Y-24615245D02*
X23444996Y-24605721D01*
X23444996Y-24605721D02*
X23435472Y-24586674D01*
X23435472Y-24586674D02*
X23435472Y-24577150D01*
X23435472Y-24577150D02*
X23444996Y-24558102D01*
X23444996Y-24558102D02*
X23454519Y-24548578D01*
X23454519Y-24548578D02*
X23473567Y-24539055D01*
X23473567Y-24539055D02*
X23511662Y-24539055D01*
X23511662Y-24539055D02*
X23530710Y-24548578D01*
X23530710Y-24548578D02*
X23540234Y-24558102D01*
X23540234Y-24558102D02*
X23549758Y-24577150D01*
X23549758Y-24577150D02*
X23549758Y-24586674D01*
X23549758Y-24586674D02*
X23540234Y-24605721D01*
X23540234Y-24605721D02*
X23530710Y-24615245D01*
X23530710Y-24615245D02*
X23511662Y-24624769D01*
X23511662Y-24624769D02*
X23473567Y-24624769D01*
X23473567Y-24624769D02*
X23454519Y-24634293D01*
X23454519Y-24634293D02*
X23444996Y-24643816D01*
X23444996Y-24643816D02*
X23435472Y-24662864D01*
X23435472Y-24662864D02*
X23435472Y-24700959D01*
X23435472Y-24700959D02*
X23444996Y-24720007D01*
X23444996Y-24720007D02*
X23454519Y-24729531D01*
X23454519Y-24729531D02*
X23473567Y-24739055D01*
X23473567Y-24739055D02*
X23511662Y-24739055D01*
X23511662Y-24739055D02*
X23530710Y-24729531D01*
X23530710Y-24729531D02*
X23540234Y-24720007D01*
X23540234Y-24720007D02*
X23549758Y-24700959D01*
X23549758Y-24700959D02*
X23549758Y-24662864D01*
X23549758Y-24662864D02*
X23540234Y-24643816D01*
X23540234Y-24643816D02*
X23530710Y-24634293D01*
X23530710Y-24634293D02*
X23511662Y-24624769D01*
X23721186Y-24539055D02*
X23683091Y-24539055D01*
X23683091Y-24539055D02*
X23664043Y-24548578D01*
X23664043Y-24548578D02*
X23654519Y-24558102D01*
X23654519Y-24558102D02*
X23635472Y-24586674D01*
X23635472Y-24586674D02*
X23625948Y-24624769D01*
X23625948Y-24624769D02*
X23625948Y-24700959D01*
X23625948Y-24700959D02*
X23635472Y-24720007D01*
X23635472Y-24720007D02*
X23644996Y-24729531D01*
X23644996Y-24729531D02*
X23664043Y-24739055D01*
X23664043Y-24739055D02*
X23702139Y-24739055D01*
X23702139Y-24739055D02*
X23721186Y-24729531D01*
X23721186Y-24729531D02*
X23730710Y-24720007D01*
X23730710Y-24720007D02*
X23740234Y-24700959D01*
X23740234Y-24700959D02*
X23740234Y-24653340D01*
X23740234Y-24653340D02*
X23730710Y-24634293D01*
X23730710Y-24634293D02*
X23721186Y-24624769D01*
X23721186Y-24624769D02*
X23702139Y-24615245D01*
X23702139Y-24615245D02*
X23664043Y-24615245D01*
X23664043Y-24615245D02*
X23644996Y-24624769D01*
X23644996Y-24624769D02*
X23635472Y-24634293D01*
X23635472Y-24634293D02*
X23625948Y-24653340D01*
X23911662Y-24539055D02*
X23873567Y-24539055D01*
X23873567Y-24539055D02*
X23854519Y-24548578D01*
X23854519Y-24548578D02*
X23844996Y-24558102D01*
X23844996Y-24558102D02*
X23825948Y-24586674D01*
X23825948Y-24586674D02*
X23816424Y-24624769D01*
X23816424Y-24624769D02*
X23816424Y-24700959D01*
X23816424Y-24700959D02*
X23825948Y-24720007D01*
X23825948Y-24720007D02*
X23835472Y-24729531D01*
X23835472Y-24729531D02*
X23854519Y-24739055D01*
X23854519Y-24739055D02*
X23892615Y-24739055D01*
X23892615Y-24739055D02*
X23911662Y-24729531D01*
X23911662Y-24729531D02*
X23921186Y-24720007D01*
X23921186Y-24720007D02*
X23930710Y-24700959D01*
X23930710Y-24700959D02*
X23930710Y-24653340D01*
X23930710Y-24653340D02*
X23921186Y-24634293D01*
X23921186Y-24634293D02*
X23911662Y-24624769D01*
X23911662Y-24624769D02*
X23892615Y-24615245D01*
X23892615Y-24615245D02*
X23854519Y-24615245D01*
X23854519Y-24615245D02*
X23835472Y-24624769D01*
X23835472Y-24624769D02*
X23825948Y-24634293D01*
X23825948Y-24634293D02*
X23816424Y-24653340D01*
X24006900Y-24539055D02*
X24006900Y-24577150D01*
X24083091Y-24539055D02*
X24083091Y-24577150D01*
X24378329Y-24815245D02*
X24368805Y-24805721D01*
X24368805Y-24805721D02*
X24349758Y-24777150D01*
X24349758Y-24777150D02*
X24340234Y-24758102D01*
X24340234Y-24758102D02*
X24330710Y-24729531D01*
X24330710Y-24729531D02*
X24321186Y-24681912D01*
X24321186Y-24681912D02*
X24321186Y-24643816D01*
X24321186Y-24643816D02*
X24330710Y-24596197D01*
X24330710Y-24596197D02*
X24340234Y-24567626D01*
X24340234Y-24567626D02*
X24349758Y-24548578D01*
X24349758Y-24548578D02*
X24368805Y-24520007D01*
X24368805Y-24520007D02*
X24378329Y-24510483D01*
X24559281Y-24739055D02*
X24444996Y-24739055D01*
X24502139Y-24739055D02*
X24502139Y-24539055D01*
X24502139Y-24539055D02*
X24483091Y-24567626D01*
X24483091Y-24567626D02*
X24464043Y-24586674D01*
X24464043Y-24586674D02*
X24444996Y-24596197D01*
X24683091Y-24539055D02*
X24702139Y-24539055D01*
X24702139Y-24539055D02*
X24721186Y-24548578D01*
X24721186Y-24548578D02*
X24730710Y-24558102D01*
X24730710Y-24558102D02*
X24740234Y-24577150D01*
X24740234Y-24577150D02*
X24749758Y-24615245D01*
X24749758Y-24615245D02*
X24749758Y-24662864D01*
X24749758Y-24662864D02*
X24740234Y-24700959D01*
X24740234Y-24700959D02*
X24730710Y-24720007D01*
X24730710Y-24720007D02*
X24721186Y-24729531D01*
X24721186Y-24729531D02*
X24702139Y-24739055D01*
X24702139Y-24739055D02*
X24683091Y-24739055D01*
X24683091Y-24739055D02*
X24664043Y-24729531D01*
X24664043Y-24729531D02*
X24654520Y-24720007D01*
X24654520Y-24720007D02*
X24644996Y-24700959D01*
X24644996Y-24700959D02*
X24635472Y-24662864D01*
X24635472Y-24662864D02*
X24635472Y-24615245D01*
X24635472Y-24615245D02*
X24644996Y-24577150D01*
X24644996Y-24577150D02*
X24654520Y-24558102D01*
X24654520Y-24558102D02*
X24664043Y-24548578D01*
X24664043Y-24548578D02*
X24683091Y-24539055D01*
X24987853Y-24739055D02*
X24987853Y-24539055D01*
X25073567Y-24739055D02*
X25073567Y-24634293D01*
X25073567Y-24634293D02*
X25064043Y-24615245D01*
X25064043Y-24615245D02*
X25044996Y-24605721D01*
X25044996Y-24605721D02*
X25016424Y-24605721D01*
X25016424Y-24605721D02*
X24997377Y-24615245D01*
X24997377Y-24615245D02*
X24987853Y-24624769D01*
X25197377Y-24739055D02*
X25178329Y-24729531D01*
X25178329Y-24729531D02*
X25168805Y-24720007D01*
X25168805Y-24720007D02*
X25159282Y-24700959D01*
X25159282Y-24700959D02*
X25159282Y-24643816D01*
X25159282Y-24643816D02*
X25168805Y-24624769D01*
X25168805Y-24624769D02*
X25178329Y-24615245D01*
X25178329Y-24615245D02*
X25197377Y-24605721D01*
X25197377Y-24605721D02*
X25225948Y-24605721D01*
X25225948Y-24605721D02*
X25244996Y-24615245D01*
X25244996Y-24615245D02*
X25254520Y-24624769D01*
X25254520Y-24624769D02*
X25264043Y-24643816D01*
X25264043Y-24643816D02*
X25264043Y-24700959D01*
X25264043Y-24700959D02*
X25254520Y-24720007D01*
X25254520Y-24720007D02*
X25244996Y-24729531D01*
X25244996Y-24729531D02*
X25225948Y-24739055D01*
X25225948Y-24739055D02*
X25197377Y-24739055D01*
X25378329Y-24739055D02*
X25359282Y-24729531D01*
X25359282Y-24729531D02*
X25349758Y-24710483D01*
X25349758Y-24710483D02*
X25349758Y-24539055D01*
X25530710Y-24729531D02*
X25511663Y-24739055D01*
X25511663Y-24739055D02*
X25473567Y-24739055D01*
X25473567Y-24739055D02*
X25454520Y-24729531D01*
X25454520Y-24729531D02*
X25444996Y-24710483D01*
X25444996Y-24710483D02*
X25444996Y-24634293D01*
X25444996Y-24634293D02*
X25454520Y-24615245D01*
X25454520Y-24615245D02*
X25473567Y-24605721D01*
X25473567Y-24605721D02*
X25511663Y-24605721D01*
X25511663Y-24605721D02*
X25530710Y-24615245D01*
X25530710Y-24615245D02*
X25540234Y-24634293D01*
X25540234Y-24634293D02*
X25540234Y-24653340D01*
X25540234Y-24653340D02*
X25444996Y-24672388D01*
X25616424Y-24729531D02*
X25635472Y-24739055D01*
X25635472Y-24739055D02*
X25673567Y-24739055D01*
X25673567Y-24739055D02*
X25692615Y-24729531D01*
X25692615Y-24729531D02*
X25702139Y-24710483D01*
X25702139Y-24710483D02*
X25702139Y-24700959D01*
X25702139Y-24700959D02*
X25692615Y-24681912D01*
X25692615Y-24681912D02*
X25673567Y-24672388D01*
X25673567Y-24672388D02*
X25644996Y-24672388D01*
X25644996Y-24672388D02*
X25625948Y-24662864D01*
X25625948Y-24662864D02*
X25616424Y-24643816D01*
X25616424Y-24643816D02*
X25616424Y-24634293D01*
X25616424Y-24634293D02*
X25625948Y-24615245D01*
X25625948Y-24615245D02*
X25644996Y-24605721D01*
X25644996Y-24605721D02*
X25673567Y-24605721D01*
X25673567Y-24605721D02*
X25692615Y-24615245D01*
X25768805Y-24815245D02*
X25778329Y-24805721D01*
X25778329Y-24805721D02*
X25797377Y-24777150D01*
X25797377Y-24777150D02*
X25806901Y-24758102D01*
X25806901Y-24758102D02*
X25816424Y-24729531D01*
X25816424Y-24729531D02*
X25825948Y-24681912D01*
X25825948Y-24681912D02*
X25825948Y-24643816D01*
X25825948Y-24643816D02*
X25816424Y-24596197D01*
X25816424Y-24596197D02*
X25806901Y-24567626D01*
X25806901Y-24567626D02*
X25797377Y-24548578D01*
X25797377Y-24548578D02*
X25778329Y-24520007D01*
X25778329Y-24520007D02*
X25768805Y-24510483D01*
M02*
