%TF.GenerationSoftware,KiCad,Pcbnew,9.0.5*%
%TF.CreationDate,2025-11-08T17:14:02+10:00*%
%TF.ProjectId,badWingsRight,62616457-696e-4677-9352-696768742e6b,v1.0.0*%
%TF.SameCoordinates,Original*%
%TF.FileFunction,Soldermask,Bot*%
%TF.FilePolarity,Negative*%
%FSLAX46Y46*%
G04 Gerber Fmt 4.6, Leading zero omitted, Abs format (unit mm)*
G04 Created by KiCad (PCBNEW 9.0.5) date 2025-11-08 17:14:02*
%MOMM*%
%LPD*%
G01*
G04 APERTURE LIST*
G04 Aperture macros list*
%AMRoundRect*
0 Rectangle with rounded corners*
0 $1 Rounding radius*
0 $2 $3 $4 $5 $6 $7 $8 $9 X,Y pos of 4 corners*
0 Add a 4 corners polygon primitive as box body*
4,1,4,$2,$3,$4,$5,$6,$7,$8,$9,$2,$3,0*
0 Add four circle primitives for the rounded corners*
1,1,$1+$1,$2,$3*
1,1,$1+$1,$4,$5*
1,1,$1+$1,$6,$7*
1,1,$1+$1,$8,$9*
0 Add four rect primitives between the rounded corners*
20,1,$1+$1,$2,$3,$4,$5,0*
20,1,$1+$1,$4,$5,$6,$7,0*
20,1,$1+$1,$6,$7,$8,$9,0*
20,1,$1+$1,$8,$9,$2,$3,0*%
G04 Aperture macros list end*
%ADD10RoundRect,0.050000X0.450000X-0.450000X0.450000X0.450000X-0.450000X0.450000X-0.450000X-0.450000X0*%
%ADD11C,1.100000*%
%ADD12RoundRect,0.050000X0.625000X-0.450000X0.625000X0.450000X-0.625000X0.450000X-0.625000X-0.450000X0*%
%ADD13C,1.801800*%
%ADD14C,3.529000*%
%ADD15C,3.100000*%
%ADD16RoundRect,0.050000X1.387517X1.206150X-1.206150X1.387517X-1.387517X-1.206150X1.206150X-1.387517X0*%
%ADD17RoundRect,0.050000X1.300000X1.300000X-1.300000X1.300000X-1.300000X-1.300000X1.300000X-1.300000X0*%
%ADD18C,0.800000*%
%ADD19C,4.500000*%
%ADD20C,0.850000*%
%ADD21RoundRect,0.050000X0.500000X-0.775000X0.500000X0.775000X-0.500000X0.775000X-0.500000X-0.775000X0*%
%ADD22RoundRect,0.050000X1.704607X0.688706X-0.688706X1.704607X-1.704607X-0.688706X0.688706X-1.704607X0*%
%ADD23RoundRect,0.050000X1.524167X1.028064X-1.028064X1.524167X-1.524167X-1.028064X1.028064X-1.524167X0*%
%ADD24RoundRect,0.050000X0.863113X1.623279X-1.623279X0.863113X-0.863113X-1.623279X1.623279X-0.863113X0*%
%ADD25RoundRect,0.050000X0.919239X1.592168X-1.592168X0.919239X-0.919239X-1.592168X1.592168X-0.919239X0*%
%ADD26RoundRect,0.050000X-1.600000X-1.000000X1.600000X-1.000000X1.600000X1.000000X-1.600000X1.000000X0*%
%ADD27C,1.600000*%
%ADD28RoundRect,0.050000X-1.000000X-1.000000X1.000000X-1.000000X1.000000X1.000000X-1.000000X1.000000X0*%
%ADD29C,2.100000*%
%ADD30RoundRect,0.050000X1.652413X-0.805936X0.805936X1.652413X-1.652413X0.805936X-0.805936X-1.652413X0*%
%ADD31RoundRect,0.050000X1.623279X-0.863113X0.863113X1.623279X-1.623279X0.863113X-0.863113X-1.623279X0*%
%ADD32RoundRect,0.050000X0.850000X-0.600000X0.850000X0.600000X-0.850000X0.600000X-0.850000X-0.600000X0*%
%ADD33O,1.800000X1.300000*%
%ADD34O,1.800000X1.800000*%
%ADD35RoundRect,0.050000X-0.850000X-0.850000X0.850000X-0.850000X0.850000X0.850000X-0.850000X0.850000X0*%
%ADD36RoundRect,0.050000X0.805936X1.652413X-1.652413X0.805936X-0.805936X-1.652413X1.652413X-0.805936X0*%
%ADD37RoundRect,0.050000X-0.782544X-0.357247X0.591735X-0.624380X0.782544X0.357247X-0.591735X0.624380X0*%
%ADD38RoundRect,0.050000X-0.499079X-0.700657X0.824647X-0.244862X0.499079X0.700657X-0.824647X0.244862X0*%
%ADD39RoundRect,0.050000X-0.600000X0.450000X-0.600000X-0.450000X0.600000X-0.450000X0.600000X0.450000X0*%
%ADD40RoundRect,0.050000X-0.713817X0.230142X-0.420805X-0.620824X0.713817X-0.230142X0.420805X0.620824X0*%
%ADD41RoundRect,0.050000X-0.839719X-0.186741X0.448988X-0.733764X0.839719X0.186741X-0.448988X0.733764X0*%
%ADD42RoundRect,0.050000X-0.546739X-0.664136X0.805558X-0.301790X0.546739X0.664136X-0.805558X0.301790X0*%
%ADD43RoundRect,0.050000X-0.696024X0.279375X-0.463087X-0.589958X0.696024X-0.279375X0.463087X0.589958X0*%
%ADD44RoundRect,0.050000X-0.733173X-0.449952X0.663417X-0.547612X0.733173X0.449952X-0.663417X0.547612X0*%
%ADD45RoundRect,0.050000X-0.700000X-0.500000X0.700000X-0.500000X0.700000X0.500000X-0.700000X0.500000X0*%
%ADD46RoundRect,0.050000X-0.376474X0.648666X-0.728132X-0.179789X0.376474X-0.648666X0.728132X0.179789X0*%
%ADD47C,1.852600*%
%ADD48RoundRect,0.050000X-0.503112X0.556218X-0.674840X-0.327247X0.503112X-0.556218X0.674840X0.327247X0*%
%ADD49RoundRect,0.050000X-0.700657X0.499079X-0.244862X-0.824647X0.700657X-0.499079X0.244862X0.824647X0*%
%ADD50RoundRect,0.050000X-0.567148X0.490758X-0.629929X-0.407050X0.567148X-0.490758X0.629929X0.407050X0*%
%ADD51RoundRect,0.050000X-0.705350X0.254914X-0.442216X-0.605760X0.705350X-0.254914X0.442216X0.605760X0*%
%ADD52RoundRect,0.050000X0.230142X0.713817X-0.620824X0.420805X-0.230142X-0.713817X0.620824X-0.420805X0*%
%ADD53RoundRect,0.050000X-0.682813X0.523227X-0.273492X-0.815599X0.682813X-0.523227X0.273492X0.815599X0*%
%ADD54RoundRect,0.050000X-0.523227X-0.682813X0.815599X-0.273492X0.523227X0.682813X-0.815599X0.273492X0*%
%ADD55RoundRect,0.050000X0.254914X0.705350X-0.605760X0.442216X-0.254914X-0.705350X0.605760X-0.442216X0*%
G04 APERTURE END LIST*
D10*
%TO.C,T1*%
X223627691Y-150447714D03*
X225827683Y-150447712D03*
D11*
X224727690Y-148247709D03*
X224727684Y-145247715D03*
D10*
X223627691Y-143047712D03*
X225827683Y-143047710D03*
D12*
X226802687Y-148997712D03*
X226802687Y-145997712D03*
X226802690Y-144497708D03*
%TD*%
D13*
%TO.C,S7*%
X302193132Y-157545926D03*
D14*
X296706530Y-157162265D03*
D15*
X296291477Y-163097780D03*
X291457123Y-160554348D03*
D13*
X291219928Y-156778604D03*
D16*
X299558501Y-163326224D03*
X288190103Y-160325893D03*
%TD*%
D13*
%TO.C,S15*%
X264607683Y-129747692D03*
D14*
X259107683Y-129747692D03*
D15*
X259107681Y-135697701D03*
X254107683Y-133497692D03*
D13*
X253607683Y-129747692D03*
D17*
X262382683Y-135697692D03*
X250832685Y-133497690D03*
%TD*%
D18*
%TO.C,_82*%
X305817419Y-132237105D03*
X306380903Y-131106932D03*
X306218129Y-133434700D03*
X307578498Y-130706222D03*
D19*
X307463400Y-132352203D03*
D18*
X307348302Y-133998184D03*
X308708671Y-131269706D03*
X308545897Y-133597474D03*
X309109381Y-132467301D03*
%TD*%
%TO.C,_76*%
X234897051Y-196230907D03*
X235857334Y-195410748D03*
X234797969Y-197489869D03*
X237116296Y-195509830D03*
D19*
X236367212Y-196979991D03*
D18*
X235618128Y-198450152D03*
X237936455Y-196470113D03*
X236877090Y-198549234D03*
X237837373Y-197729075D03*
%TD*%
D20*
%TO.C,B1*%
X222812666Y-130547700D03*
X225562664Y-130547698D03*
D21*
X223337665Y-133172699D03*
X223337665Y-127922699D03*
X225037665Y-133172699D03*
X225037665Y-127922699D03*
%TD*%
D18*
%TO.C,_79*%
X266457672Y-138247704D03*
X266940946Y-137080978D03*
X266940946Y-139414430D03*
X268107672Y-136597704D03*
D19*
X268107672Y-138247704D03*
D18*
X268107672Y-139897704D03*
X269274398Y-137080978D03*
X269274398Y-139414430D03*
X269757672Y-138247704D03*
%TD*%
D13*
%TO.C,S1*%
X336201636Y-186004187D03*
D15*
X328814006Y-189332181D03*
D14*
X331138856Y-183855177D03*
D15*
X325071090Y-185353415D03*
D13*
X326076076Y-181706167D03*
D22*
X331828659Y-190611825D03*
X322056441Y-184073771D03*
%TD*%
D13*
%TO.C,S2*%
X342844062Y-170355602D03*
D15*
X335456432Y-173683596D03*
D14*
X337781282Y-168206592D03*
D15*
X331713516Y-169704830D03*
D13*
X332718502Y-166057582D03*
D22*
X338471085Y-174963240D03*
X328698867Y-168425186D03*
%TD*%
D13*
%TO.C,S4*%
X320789920Y-166890937D03*
D15*
X314255658Y-171682191D03*
D14*
X315390971Y-165841498D03*
D15*
X309767301Y-168568555D03*
D13*
X309992022Y-164792059D03*
D23*
X317470487Y-172307079D03*
X306552465Y-167943655D03*
%TD*%
D18*
%TO.C,_80*%
X210657663Y-177347700D03*
X211140937Y-176180974D03*
X211140937Y-178514426D03*
X212307663Y-175697700D03*
D19*
X212307663Y-177347700D03*
D18*
X212307663Y-178997700D03*
X213474389Y-176180974D03*
X213474389Y-178514426D03*
X213957663Y-177347700D03*
%TD*%
%TO.C,_83*%
X243957655Y-167147710D03*
X244440929Y-165980984D03*
X244440929Y-168314436D03*
X245607655Y-165497710D03*
D19*
X245607655Y-167147710D03*
D18*
X245607655Y-168797710D03*
X246774381Y-165980984D03*
X246774381Y-168314436D03*
X247257655Y-167147710D03*
%TD*%
D13*
%TO.C,S17*%
X253196954Y-200723014D03*
D14*
X247937278Y-202331058D03*
D15*
X249676891Y-208021079D03*
X244252146Y-207379061D03*
D13*
X242677602Y-203939102D03*
D24*
X252808788Y-207063554D03*
X241120250Y-208336577D03*
%TD*%
D13*
%TO.C,S8*%
X303378980Y-140587345D03*
D14*
X297892378Y-140203684D03*
D15*
X297477325Y-146139199D03*
X292642971Y-143595767D03*
D13*
X292405776Y-139820023D03*
D16*
X300744349Y-146367643D03*
X289375951Y-143367312D03*
%TD*%
D13*
%TO.C,S5*%
X324033670Y-150203272D03*
D15*
X317499408Y-154994526D03*
D14*
X318634721Y-149153833D03*
D15*
X313011051Y-151880890D03*
D13*
X313235772Y-148104394D03*
D23*
X320714237Y-155619414D03*
X309796215Y-151255990D03*
%TD*%
D13*
%TO.C,S13*%
X264607670Y-163747717D03*
D14*
X259107670Y-163747717D03*
D15*
X259107668Y-169697726D03*
X254107670Y-167497717D03*
D13*
X253607670Y-163747717D03*
D17*
X262382670Y-169697717D03*
X250832672Y-167497715D03*
%TD*%
D13*
%TO.C,S16*%
X272520268Y-187824214D03*
D15*
X268747652Y-194994978D03*
D14*
X267207675Y-189247713D03*
D15*
X263348614Y-194164032D03*
D13*
X261895082Y-190671212D03*
D25*
X271911057Y-194147342D03*
X260185208Y-195011660D03*
%TD*%
D26*
%TO.C,ROT1*%
X218987676Y-172457696D03*
X218987680Y-161257691D03*
D27*
X225987679Y-164357688D03*
X225987678Y-169357694D03*
D28*
X211487678Y-164357692D03*
D29*
X211487679Y-169357693D03*
X211487678Y-166857692D03*
%TD*%
D13*
%TO.C,S14*%
X264607687Y-146747691D03*
D14*
X259107687Y-146747691D03*
D15*
X259107685Y-152697700D03*
X254107687Y-150497691D03*
D13*
X253607687Y-146747691D03*
D17*
X262382687Y-152697691D03*
X250832689Y-150497689D03*
%TD*%
D13*
%TO.C,S10*%
X282607656Y-163747701D03*
D14*
X277107656Y-163747701D03*
D15*
X277107654Y-169697710D03*
X272107656Y-167497701D03*
D13*
X271607656Y-163747701D03*
D17*
X280382656Y-169697701D03*
X268832658Y-167497699D03*
%TD*%
D18*
%TO.C,_78*%
X331573196Y-142029662D03*
X332376471Y-141055212D03*
X331694236Y-143286703D03*
X333633512Y-140934172D03*
D19*
X333151099Y-142512075D03*
D18*
X332668686Y-144089978D03*
X334607962Y-141737447D03*
X333925727Y-143968938D03*
X334729002Y-142994488D03*
%TD*%
D13*
%TO.C,S20*%
X225910560Y-197049341D03*
D15*
X218494104Y-193786120D03*
D14*
X224119941Y-191848988D03*
D15*
X218946406Y-188342276D03*
D13*
X222329322Y-186648635D03*
D30*
X219560341Y-196882692D03*
X217880171Y-185245704D03*
%TD*%
D13*
%TO.C,S9*%
X304564859Y-123628760D03*
D14*
X299078257Y-123245099D03*
D15*
X298663204Y-129180614D03*
X293828850Y-126637182D03*
D13*
X293591655Y-122861438D03*
D16*
X301930228Y-129409058D03*
X290561830Y-126408727D03*
%TD*%
D18*
%TO.C,_81*%
X290639221Y-168667066D03*
X291202705Y-167536893D03*
X291039931Y-169864661D03*
X292400300Y-167136183D03*
D19*
X292285202Y-168782164D03*
D18*
X292170104Y-170428145D03*
X293530473Y-167699667D03*
X293367699Y-170027435D03*
X293931183Y-168897262D03*
%TD*%
D13*
%TO.C,S18*%
X243580939Y-188082097D03*
D14*
X241972895Y-182822421D03*
D15*
X236282874Y-184562034D03*
X236924892Y-179137289D03*
D13*
X240364851Y-177562745D03*
D31*
X237240399Y-187693931D03*
X235967376Y-176005393D03*
%TD*%
D13*
%TO.C,S11*%
X282607658Y-146747705D03*
D14*
X277107658Y-146747705D03*
D15*
X277107656Y-152697714D03*
X272107658Y-150497705D03*
D13*
X271607658Y-146747705D03*
D17*
X280382658Y-152697705D03*
X268832660Y-150497703D03*
%TD*%
D13*
%TO.C,S12*%
X282607658Y-129747718D03*
D14*
X277107658Y-129747718D03*
D15*
X277107656Y-135697727D03*
X272107658Y-133497718D03*
D13*
X271607658Y-129747718D03*
D17*
X280382658Y-135697718D03*
X268832660Y-133497716D03*
%TD*%
D18*
%TO.C,_77*%
X315147003Y-180365979D03*
X315950278Y-179391529D03*
X315268043Y-181623020D03*
X317207319Y-179270489D03*
D19*
X316724906Y-180848392D03*
D18*
X316242493Y-182426295D03*
X318181769Y-180073764D03*
X317499534Y-182305255D03*
X318302809Y-181330805D03*
%TD*%
D13*
%TO.C,S6*%
X327277438Y-133515606D03*
D15*
X320743176Y-138306860D03*
D14*
X321878489Y-132466167D03*
D15*
X316254819Y-135193224D03*
D13*
X316479540Y-131416728D03*
D23*
X323958005Y-138931748D03*
X313039983Y-134568324D03*
%TD*%
D32*
%TO.C,JST1*%
X216267672Y-178347704D03*
D33*
X216267674Y-176347700D03*
%TD*%
D34*
%TO.C,niceView1*%
X243187671Y-158447714D03*
D35*
X240647674Y-158447712D03*
D34*
X238107675Y-158447715D03*
X235567674Y-158447714D03*
X233027675Y-158447711D03*
%TD*%
D13*
%TO.C,S3*%
X349486491Y-154707006D03*
D15*
X342098861Y-158035000D03*
D14*
X344423711Y-152557996D03*
D15*
X338355945Y-154056234D03*
D13*
X339360931Y-150408986D03*
D22*
X345113514Y-159314644D03*
X335341296Y-152776590D03*
%TD*%
D18*
%TO.C,_85*%
X223797671Y-123047693D03*
X224280945Y-121880967D03*
X224280945Y-124214419D03*
X225447671Y-121397693D03*
D19*
X225447671Y-123047693D03*
D18*
X225447671Y-124697693D03*
X226614397Y-121880967D03*
X226614397Y-124214419D03*
X227097671Y-123047693D03*
%TD*%
%TO.C,_84*%
X228657677Y-173607707D03*
X229140951Y-172440981D03*
X229140951Y-174774433D03*
X230307677Y-171957707D03*
D19*
X230307677Y-173607707D03*
D18*
X230307677Y-175257707D03*
X231474403Y-172440981D03*
X231474403Y-174774433D03*
X231957677Y-173607707D03*
%TD*%
D13*
%TO.C,S19*%
X235961886Y-209346940D03*
D15*
X232698665Y-216763396D03*
D14*
X230761533Y-211137559D03*
D15*
X227254821Y-216311094D03*
D13*
X225561180Y-212928178D03*
D36*
X235795237Y-215697159D03*
X224158249Y-217377329D03*
%TD*%
D37*
%TO.C,LED5*%
X322105608Y-145448019D03*
X322372741Y-144073741D03*
X317071954Y-143043373D03*
X316804821Y-144417651D03*
%TD*%
D38*
%TO.C,LED19*%
X231914523Y-206192776D03*
X231458726Y-204869046D03*
X226352925Y-206627110D03*
X226808722Y-207950840D03*
%TD*%
D39*
%TO.C,D10*%
X269107664Y-161297698D03*
X269107664Y-164597698D03*
%TD*%
D40*
%TO.C,D19*%
X222399751Y-211425575D03*
X223474125Y-214545787D03*
%TD*%
D41*
%TO.C,LED2*%
X341946764Y-165303404D03*
X342493792Y-164014697D03*
X337523070Y-161904748D03*
X336976042Y-163193455D03*
%TD*%
D39*
%TO.C,D21*%
X228307682Y-165097714D03*
X228307682Y-168397714D03*
%TD*%
D42*
%TO.C,LED16*%
X268702736Y-184395402D03*
X268340385Y-183043103D03*
X263124382Y-184440724D03*
X263486733Y-185793023D03*
%TD*%
D43*
%TO.C,D16*%
X258846154Y-188951745D03*
X259700254Y-192139301D03*
%TD*%
D44*
%TO.C,LED7*%
X299699920Y-153061085D03*
X299797576Y-151664493D03*
X294410728Y-151287805D03*
X294313072Y-152684397D03*
%TD*%
D45*
%TO.C,LED10*%
X279807660Y-159447712D03*
X279807660Y-158047712D03*
X274407660Y-158047712D03*
X274407660Y-159447712D03*
%TD*%
D46*
%TO.C,D3*%
X338016959Y-147176914D03*
X336727547Y-150214580D03*
%TD*%
D47*
%TO.C,MCU1*%
X245727680Y-125277719D03*
X245727676Y-127817711D03*
X245727674Y-130357710D03*
X245727677Y-132897715D03*
X245727681Y-135437712D03*
X245727674Y-137977712D03*
X245727670Y-140517716D03*
X245727676Y-143057719D03*
X245727670Y-145597714D03*
X245727675Y-148137715D03*
X245727678Y-150677711D03*
X245727673Y-153217710D03*
X230487670Y-153217707D03*
X230487674Y-150677715D03*
X230487676Y-148137716D03*
X230487673Y-145597711D03*
X230487669Y-143057714D03*
X230487676Y-140517714D03*
X230487680Y-137977710D03*
X230487674Y-135437707D03*
X230487680Y-132897712D03*
X230487675Y-130357711D03*
X230487672Y-127817715D03*
X230487677Y-125277716D03*
X233027675Y-148137713D03*
X235567675Y-148137712D03*
X238107675Y-148137713D03*
%TD*%
D46*
%TO.C,D1*%
X324732096Y-178474088D03*
X323442684Y-181511754D03*
%TD*%
D41*
%TO.C,LED3*%
X348589218Y-149654820D03*
X349136246Y-148366113D03*
X344165524Y-146256164D03*
X343618496Y-147544871D03*
%TD*%
D39*
%TO.C,D12*%
X269107660Y-127297712D03*
X269107660Y-130597712D03*
%TD*%
D45*
%TO.C,LED14*%
X261807682Y-142447697D03*
X261807682Y-141047697D03*
X256407682Y-141047697D03*
X256407682Y-142447697D03*
%TD*%
%TO.C,LED15*%
X261807656Y-125447707D03*
X261807656Y-124047707D03*
X256407656Y-124047707D03*
X256407656Y-125447707D03*
%TD*%
D48*
%TO.C,D6*%
X314492955Y-128534704D03*
X313863285Y-131774074D03*
%TD*%
%TO.C,D5*%
X311249197Y-145222364D03*
X310619527Y-148461734D03*
%TD*%
D49*
%TO.C,LED20*%
X229064718Y-193001945D03*
X230388448Y-192546148D03*
X228630384Y-187440347D03*
X227306654Y-187896144D03*
%TD*%
D39*
%TO.C,D14*%
X251107678Y-144297696D03*
X251107678Y-147597696D03*
%TD*%
D50*
%TO.C,D9*%
X291268658Y-120243002D03*
X291038462Y-123534964D03*
%TD*%
D45*
%TO.C,LED12*%
X279807661Y-125447704D03*
X279807661Y-124047704D03*
X274407661Y-124047704D03*
X274407661Y-125447704D03*
%TD*%
D50*
%TO.C,D7*%
X288896921Y-154160176D03*
X288666725Y-157452138D03*
%TD*%
D51*
%TO.C,D17*%
X239570516Y-202327086D03*
X240535342Y-205482892D03*
%TD*%
D45*
%TO.C,LED13*%
X261807669Y-159447703D03*
X261807669Y-158047703D03*
X256407669Y-158047703D03*
X256407669Y-159447703D03*
%TD*%
D48*
%TO.C,D4*%
X308005446Y-161910024D03*
X307375776Y-165149394D03*
%TD*%
D52*
%TO.C,D20*%
X223831908Y-183487184D03*
X220711696Y-184561558D03*
%TD*%
D39*
%TO.C,D11*%
X269107671Y-144297691D03*
X269107671Y-147597691D03*
%TD*%
D46*
%TO.C,D2*%
X331374529Y-162825526D03*
X330085117Y-165863192D03*
%TD*%
D44*
%TO.C,LED8*%
X300885777Y-136102499D03*
X300983433Y-134705907D03*
X295596585Y-134329219D03*
X295498929Y-135725811D03*
%TD*%
D53*
%TO.C,LED18*%
X246874406Y-184147257D03*
X248213233Y-183737937D03*
X246634426Y-178573891D03*
X245295599Y-178983211D03*
%TD*%
D50*
%TO.C,D8*%
X290082790Y-137201592D03*
X289852594Y-140493554D03*
%TD*%
D44*
%TO.C,LED9*%
X302071628Y-119143914D03*
X302169284Y-117747322D03*
X296782436Y-117370634D03*
X296684780Y-118767226D03*
%TD*%
D37*
%TO.C,LED4*%
X318861843Y-162135667D03*
X319128976Y-160761389D03*
X313828189Y-159731021D03*
X313561056Y-161105299D03*
%TD*%
D45*
%TO.C,LED11*%
X279807678Y-142447704D03*
X279807678Y-141047704D03*
X274407678Y-141047704D03*
X274407678Y-142447704D03*
%TD*%
D41*
%TO.C,LED1*%
X335304346Y-180951977D03*
X335851374Y-179663270D03*
X330880652Y-177553321D03*
X330333624Y-178842028D03*
%TD*%
D37*
%TO.C,LED6*%
X325349363Y-128760348D03*
X325616496Y-127386070D03*
X320315709Y-126355702D03*
X320048576Y-127729980D03*
%TD*%
D39*
%TO.C,D15*%
X251107674Y-127297692D03*
X251107674Y-130597692D03*
%TD*%
D54*
%TO.C,LED17*%
X249262080Y-197429530D03*
X248852760Y-196090703D03*
X243688714Y-197669510D03*
X244098034Y-199008337D03*
%TD*%
D55*
%TO.C,D18*%
X241976849Y-174455687D03*
X238821043Y-175420513D03*
%TD*%
D39*
%TO.C,D13*%
X251107675Y-161297700D03*
X251107675Y-164597700D03*
%TD*%
M02*
