M48
; DRILL file {KiCad 9.0.5} date 2025-11-08T17:13:50+1000
; FORMAT={-:-/ absolute / metric / decimal}
; #@! TF.CreationDate,2025-11-08T17:13:50+10:00
; #@! TF.GenerationSoftware,Kicad,Pcbnew,9.0.5
; #@! TF.FileFunction,NonPlated,1,2,NPTH
FMAT,2
METRIC
; #@! TA.AperFunction,NonPlated,NPTH,ComponentDrill
T1C0.750
; #@! TA.AperFunction,NonPlated,NPTH,ComponentDrill
T2C0.900
; #@! TA.AperFunction,NonPlated,NPTH,ComponentDrill
T3C1.702
; #@! TA.AperFunction,NonPlated,NPTH,ComponentDrill
T4C3.000
; #@! TA.AperFunction,NonPlated,NPTH,ComponentDrill
T5C3.429
%
G90
G05
T1
X222.813Y-130.548
X225.563Y-130.548
T2
X224.728Y-145.248
X224.728Y-148.248
T3
X222.329Y-186.649
X225.561Y-212.928
X225.911Y-197.049
X235.962Y-209.347
X240.365Y-177.563
X242.678Y-203.939
X243.581Y-188.082
X253.197Y-200.723
X253.608Y-163.748
X253.608Y-129.748
X253.608Y-146.748
X261.895Y-190.671
X264.608Y-163.748
X264.608Y-129.748
X264.608Y-146.748
X271.608Y-163.748
X271.608Y-129.748
X271.608Y-146.748
X272.52Y-187.824
X282.608Y-163.748
X282.608Y-129.748
X282.608Y-146.748
X291.22Y-156.779
X292.406Y-139.82
X293.592Y-122.861
X302.193Y-157.546
X303.379Y-140.587
X304.565Y-123.629
X309.992Y-164.792
X313.236Y-148.104
X316.48Y-131.417
X320.79Y-166.891
X324.034Y-150.203
X326.076Y-181.706
X327.277Y-133.516
X332.719Y-166.058
X336.202Y-186.004
X339.361Y-150.409
X342.844Y-170.356
X349.486Y-154.707
T4
X218.494Y-193.786
X218.946Y-188.342
X227.255Y-216.311
X232.699Y-216.763
X236.283Y-184.562
X236.925Y-179.137
X244.252Y-207.379
X249.677Y-208.021
X254.108Y-167.498
X254.108Y-133.498
X254.108Y-150.498
X259.108Y-169.698
X259.108Y-135.698
X259.108Y-152.698
X263.349Y-194.164
X268.748Y-194.995
X272.108Y-167.498
X272.108Y-133.498
X272.108Y-150.498
X277.108Y-169.698
X277.108Y-135.698
X277.108Y-152.698
X291.457Y-160.554
X292.643Y-143.596
X293.829Y-126.637
X296.291Y-163.098
X297.477Y-146.139
X298.663Y-129.181
X309.767Y-168.569
X313.011Y-151.881
X314.256Y-171.682
X316.255Y-135.193
X317.499Y-154.995
X320.743Y-138.307
X325.071Y-185.353
X328.814Y-189.332
X331.714Y-169.705
X335.456Y-173.684
X338.356Y-154.056
X342.099Y-158.035
T5
X224.12Y-191.849
X230.762Y-211.138
X241.973Y-182.822
X247.937Y-202.331
X259.108Y-163.748
X259.108Y-129.748
X259.108Y-146.748
X267.208Y-189.248
X277.108Y-163.748
X277.108Y-129.748
X277.108Y-146.748
X296.707Y-157.162
X297.892Y-140.204
X299.078Y-123.245
X315.391Y-165.841
X318.635Y-149.154
X321.878Y-132.466
X331.139Y-183.855
X337.781Y-168.207
X344.424Y-152.558
M30
